<svg xmlns="http://www.w3.org/2000/svg" viewBox="0 0 3840 2160"><defs><style>.cls-1{fill:none;}.cls-2{fill:#cbeb75;}.cls-3{fill:#dcc2a4;}.cls-4{fill:#a67c52;}.cls-5{fill:#c9f2de;}.cls-6{fill:#ffffe0;}.cls-7{fill:#fbb08d;}.cls-8{fill:#d5af6d;}.cls-9{fill:#c69c6d;}.cls-10{fill:#ffe8ba;}.cls-11{fill:#8c6239;}.cls-12{fill:#a6d9ac;}.cls-13{fill:#c9f2f2;}.cls-14{fill:#fff;}.cls-15{fill:#534741;}.cls-16{fill:#22b573;}.cls-17{fill:#5fb569;}.cls-18{fill:#009245;}</style></defs><title>Bakgrunn</title><g id="Bakgrunn_tom" data-name="Bakgrunn tom"><polygon class="cls-1" points="2242.57 1135.47 2255.5 1160.09 2245.56 1135.2 2242.43 1135.2 2242.57 1135.47"/><path class="cls-1" d="M2975,1091.27h578c-.22-.33-.44-.66-.65-1H2974.71C2974.82,1090.61,2974.92,1090.94,2975,1091.27Z"/><path class="cls-1" d="M2436.31,1090.27v1h275.08l.33-1Z"/><polygon class="cls-1" points="2222.66 1135.28 2241.73 1135.2 2222.66 1135.2 2222.66 1135.28"/><path class="cls-2" d="M3657.74,1137.14l6.55,243.66-58.47-1.4,10.83-234.92c-24.1-5.19-46.19-26.34-63.61-53.21H2975c7.13,23.06,10.9,45.68,10.54,64.89-1.33,69.91-59.21,192.51-130.93,207.58l13.89,293.86-75,1.74,8.4-304.79c-60.23-34-103-141-101.84-203.79.34-17.81,4.34-38.43,11.29-59.49H2436.31v43.93H2245.56l9.94,24.89,525.57,1000.73h-.83l-107.45.24.44,1.94,502.9-1,14.39-388.42c-103.45-43.47-177-180.16-174.92-260.38,2.43-95.8,116.29-255.19,251.69-253.29s241.06,164.38,238.62,260.19c-2.27,89.32-101.7,246-224.87,265.22l23.84,375.45-63.25,1.1,596.34-1.19.15-53.49-52.62-58.44-54.86,60.15-2.22-2,.39-.42-90.76-90.78L3545,2107.59l-2.1-2.14,95.2-94,92.78,92.79,54.67-59.94,52.62,58.43L3841,1091.27H3701.1C3688.89,1111,3674.15,1127.64,3657.74,1137.14Zm-441.49,82.16-25.21-28-25.31,27.76-.65-.59-.41.41-43.25-43.26-43.4,42.85-.22-.22L3076,1220l-27.86-27.87-28,27.6-2.11-2.13,30.08-29.7,28.08,28.08,45.16-44.6,43.78,43.78,25.85-28.33,27.42,30.45Zm329,889.43-2.12,2.12-60.19-60.2-60.39,59.63-2.11-2.14,62.51-61.72Z"/><path class="cls-2" d="M1785.37,1137.11l20-.08v-1.83H1645.6V1134l-22-10v-.32l.07-33.45H1390.57c62.37,68.86,102.7,179.93,101.25,256.37-2.07,109.47-92.72,301.46-205,325l21.74,460.15-117.41,2.73,13.16-477.26C1110,1604,1043,1436.5,1044.83,1338.18c1.41-74.76,44-181.1,106.62-247.91H564.32c-2,77.89-55.13,202.18-128.88,242.6l10.63,374.39-94.91-2.14,17.57-361c-90.37-18.42-163.39-167.77-165.69-253.83l-203,.26V2158.46l1576.85,1.4L1785,1137.12ZM308.49,1958.58,248,1898.05l-60.71,60-2.11-2.13,62.84-62,62.63,62.64Zm298.58-1.44-54.93-61-52.83,57.92h0l-.08.08-2.25,2.47-2.21-2,.39-.43-91.26-91.28-93.58,92.42-2.11-2.13,95.71-94.52,93.27,93.29,55-60.26,57.14,63.45Zm28.66-829.21-.42-.43-1.59,1.59L613,1108.36l-20.79,20.53-2.11-2.14L613,1104.13l21.14,21.15,34-33.59,33,33,19.48-21.35,19.3,21.43,21.88-21.6,21.14,21.15,34-33.59,33,33,19.48-21.35,20.92,23.24-2.23,2-18.71-20.77-18.78,20.59-.76-.69-.57.57-32.32-32.32-32.41,32-.43-.43-1.58,1.59-20.73-20.73L741,1127.89l-.44-.45-1.23,1.1-18.71-20.78-18.79,20.6-.76-.69-.57.57-32.31-32.32ZM766,1663.44,721.62,1619l-44.55,44-2.11-2.13,46.67-46.09,46.51,46.53Zm220.42-1.08-40.26-44.71L905.75,1662l-.38-.34,0,0-.84-.84-1-.88,0,0-66.83-66.85-68.82,68-2.11-2.14,70.94-70.05,68.85,68.86,40.59-44.51,42.48,47.17Z"/><polygon class="cls-3" points="1577.33 2162.5 2779.42 2159.82 2241.82 1136.2 2222.66 1136.28 2222.66 1146.18 2237.64 1146.18 2237.64 1178.13 1801.35 1178.13 1801.35 1146.18 1805.34 1146.18 1805.34 1138.03 1785.79 1138.11 1577.33 2162.5"/><path class="cls-4" d="M2781.07,2160.82,2255.5,1160.09l-12.93-24.62-.14-.27h-.7l-19.07.08v-20h-13v-27H1807.34v27h-2V1137l-20,.08h-.4L1576.85,2159.86l-.74,3.64,1096.68-2.44,107.45-.24ZM1807.34,1116.23h414.32v29H1806.34v-29Zm1-27h400.34v26H1808.34Zm-6,57.9h434.28v30H1802.35Zm3-1h-4v32h436.28v-32h-15v-9.9l19.16-.08,537.6,1023.62-1202.09,2.68,208.46-1024.39,19.55-.08Z"/><path class="cls-5" d="M1922,1.5h.65L2150.9,3.35l.54.28L2446,157.81h-9.67v103a1.73,1.73,0,0,1,0,3.14V281.6H3842V0H1881.4l38.75,2.52ZM3036.91,176.35c11.28-41,41.3-70.32,76.7-70.5a65.72,65.72,0,0,1,31.67,8.07c21.06-26.67,50.71-43.34,83.64-43.51,33.74-.17,64.2,17,85.62,44.65a67.1,67.1,0,0,1,35.39-10.53c35.4-.18,65.71,28.51,77.41,68.86,5.09,17.56-5,36.25-19.51,36.32l-57.41.29-33.41.17a25.4,25.4,0,0,1-5.89.73l-81.55.41-53.2.27a16.67,16.67,0,0,1-4.85.76l-57.41.29-57.32.29C3042.22,213,3032,194.18,3036.91,176.35Z"/><path class="cls-5" d="M1625.63,152.1l-21.56-8.89L1855.29,0H2V281.6H1625.36ZM779.14,215.7l-57.4.29-33.42.17a25.4,25.4,0,0,1-5.89.73l-81.54.41-53.21.27a16.24,16.24,0,0,1-4.85.76l-57.4.29-57.33.29c-14.56.08-24.79-18.74-19.88-36.57,11.29-41,41.3-70.32,76.71-70.5a65.75,65.75,0,0,1,31.67,8.07c21-26.67,50.71-43.34,83.64-43.51,33.74-.17,64.2,17,85.62,44.65a67.07,67.07,0,0,1,35.38-10.53c35.41-.18,65.72,28.51,77.41,68.86C803.74,196.94,793.71,215.63,779.14,215.7ZM1264,136.6l-43.65.22L1195,137a19.42,19.42,0,0,1-4.48.56l-62,.31L1088,138a12.53,12.53,0,0,1-3.68.57l-43.66.22L997.1,139c-11.08.06-18.85-14.25-15.12-27.81,8.58-31.15,31.41-53.47,58.33-53.61a50,50,0,0,1,24.08,6.14c16-20.28,38.56-33,63.61-33.09,25.65-.13,48.82,13,65.11,34a51,51,0,0,1,26.91-8c26.92-.14,50,21.68,58.86,52.36C1282.75,122.34,1275.12,136.55,1264,136.6Z"/><polygon class="cls-5" points="1670.89 138.9 1644.53 153.23 1644.63 153.26 1670.89 138.9"/><path class="cls-6" d="M3840,389.43H2436.31v699.84h275.75c22.69-67,75.05-137.88,134.57-136.76,58.06,1.1,106.72,70.38,127.77,136.76h577.36c-22.29-35.17-36.63-79.52-37.2-110.74-.91-49.22,31.28-126.56,76.85-153.31v-51.7A61.81,61.81,0,0,1,3653,711.89h54.83a61.81,61.81,0,0,1,61.63,61.63v86.29c0,1.65-.06,3.28-.19,4.91V943.5H3733a149.76,149.76,0,0,1,4.12,30.72c.6,32.07-12.82,78.56-34.83,115H3840ZM2742.69,883.77c0,1.65-.06,3.33-.19,5V970h-84.94v2h-9.68v-2H2559.6l0-83.92c0-.76,0-1.53,0-2.28V797.48a64.2,64.2,0,0,1,64.13-64.13h54.83a64.2,64.2,0,0,1,64.13,64.13Zm4-304.5c0,1.65-.07,3.33-.2,5v81.2h-84.94v2h-9.68v-2h-88.28l0-83.92c0-.76,0-1.53,0-2.28V493a64.2,64.2,0,0,1,64.13-64.13h54.84A64.2,64.2,0,0,1,2746.69,493Zm526.13,293.51c0,1.66-.06,3.34-.19,5V959h-84.94v2H3178v-2h-88.28l0-83.91c0-.77,0-1.53,0-2.29V786.5a64.2,64.2,0,0,1,64.13-64.13h54.83a64.2,64.2,0,0,1,64.13,64.13Zm9-303.5c0,1.65-.07,3.34-.2,5v81.19h-84.93v2H3187v-2h-88.28l0-83.91c0-.77,0-1.53,0-2.29V483a64.2,64.2,0,0,1,64.13-64.13h54.83A64.2,64.2,0,0,1,3281.81,483Zm496.68-10c0,1.65-.07,3.29-.2,4.91V643h-84.93v2h-4.68v-2H3600.4V564.08h.18c-.12-1.58-.18-3.17-.18-4.78V473A61.81,61.81,0,0,1,3662,411.39h54.83A61.81,61.81,0,0,1,3778.49,473Z"/><path class="cls-6" d="M1152.39,1089.27c35.53-37.56,77.44-62.35,121.89-61.51,42.68.8,82.13,25.15,115.38,61.51h234l1.43-699.84H4v699.84H203s0-.06,0-.09c-.52-26.66,5.65-58.67,17.07-90.77H201V919.5h.18c-.12-1.58-.18-3.18-.18-4.78V828.43a61.81,61.81,0,0,1,61.63-61.63h54.83a61.81,61.81,0,0,1,61.63,61.63V839c99.69-1.62,183.49,151.47,185.28,243.51,0,2.2,0,4.45,0,6.73Zm-766.33-489c0,1.65-.07,3.29-.2,4.91v78.79H300.93v2h-4.69v-2H208V605h.18c-.12-1.57-.18-3.17-.18-4.78V514a61.81,61.81,0,0,1,61.63-61.63h54.83A61.81,61.81,0,0,1,386.06,514Zm753.38-6.2h.18c-.12-1.58-.18-3.17-.18-4.78V503a61.81,61.81,0,0,1,61.63-61.63h54.83A61.81,61.81,0,0,1,1317.53,503v86.28c0,1.65-.07,3.29-.2,4.91V673H1232.4v2h-4.68v-2h-88.28Zm-5,314.49h.19c-.12-1.58-.19-3.18-.19-4.79V817.45a61.82,61.82,0,0,1,61.63-61.63h54.84a61.82,61.82,0,0,1,61.63,61.63v86.28c0,1.66-.07,3.29-.2,4.91v78.79h-84.93v2h-4.69v-2h-88.28Zm-264.18-1.79c0,1.65-.06,3.29-.19,4.91v78.79H785.13v2h-4.68v-2H692.17V911.51h.19c-.13-1.58-.19-3.17-.19-4.78V820.45a61.81,61.81,0,0,1,61.63-61.63h54.83a61.81,61.81,0,0,1,61.63,61.63Zm5-307.5c0,1.66-.07,3.29-.2,4.91v78.79H790.12v2h-4.68v-2H697.16V604h.19c-.12-1.58-.19-3.18-.19-4.79V513a61.82,61.82,0,0,1,61.63-61.63h54.84A61.82,61.82,0,0,1,875.26,513Z"/><path class="cls-4" d="M2436.31,1090.27h275.41c.12-.33.23-.66.34-1H2436.31Z"/><path class="cls-4" d="M203,1089.27H4V389.43H3v700.84H203C203,1089.94,203,1089.6,203,1089.27Z"/><path class="cls-4" d="M3840,389.43v699.84H3702.32c-.2.34-.41.67-.61,1H3841V389.43Z"/><path class="cls-4" d="M2974.71,1090.27h577.68l-.63-1H2974.4C2974.51,1089.61,2974.61,1089.94,2974.71,1090.27Z"/><path class="cls-4" d="M1623.71,1089.27h-234c.3.34.61.67.91,1h233.14Z"/><path class="cls-4" d="M1152.39,1089.27H564.34c0,.34,0,.67,0,1h587.13C1151.77,1089.94,1152.08,1089.61,1152.39,1089.27Z"/><rect class="cls-7" x="2436.31" y="286.6" width="1401.69" height="97.83"/><polygon class="cls-7" points="1625.35 286.6 3 286.6 3 359.47 3 384.43 1625.15 384.43 1625.35 286.6"/><polygon class="cls-8" points="2436.31 286.6 3838 286.6 3838 384.43 2436.31 384.43 2436.31 389.43 3840 389.43 3841 389.43 3843 389.43 3843 281.6 3842 281.6 2436.31 281.6 2436.31 286.6"/><polygon class="cls-8" points="4 389.43 1625.14 389.43 1625.15 384.43 3 384.43 3 359.47 3 286.6 1625.35 286.6 1625.36 281.6 2 281.6 -2 281.6 -2 389.43 3 389.43 4 389.43"/><path class="cls-6" d="M2435.31,1134.2V264.13H1646.85l-.25,0v870.1h158.74v-19h2v-27h14V762.81H2200v325.47h9.67v27h13v19ZM1946.09,511.77q0,3-.24,5.91v95H1843.49v2.41h-5.64v-2.41H1731.46V517.53h.23c-.15-1.9-.23-3.82-.23-5.76v-104a74.49,74.49,0,0,1,74.28-74.27h66.08a74.49,74.49,0,0,1,74.27,74.27Zm251.82,99.87v2.41h-5.64v-2.41H2085.88V516.53h.23c-.15-1.9-.23-3.82-.23-5.76v-104a74.49,74.49,0,0,1,74.27-74.27h66.09a74.49,74.49,0,0,1,74.27,74.27v104q0,3-.24,5.92v94.95Z"/><path class="cls-6" d="M1646.85,260.64h788.46V157.81H1646.6V260.66ZM2180,178.15c1.54-.24,4.85.13,10,1.12q8.64,1.72,8.75,4c0,.4-.4,1-1.2,1.79s-1.2,1.39-1.2,1.79v41.25l11.37-3.36a17.23,17.23,0,0,1,3.72-1.34q1.53-.15,8.21,3.17c4.45,2.22,6.53,3.67,6.24,4.37q-1.32,3.5-4.16,4.25a7,7,0,0,1-2.35.07,5.51,5.51,0,0,0-2.14.08L2201.05,240a3.42,3.42,0,0,0-1.59,1.27,2.86,2.86,0,0,1-1.58,1.19q-2.41.6-10.18-1.12t-9.41-3.2c-.8-.8-1.05-2-.76-3.73a11.81,11.81,0,0,0,.22-1.87V182.41a2.52,2.52,0,0,0-.88-1.27q-.66-.52-.66-.9C2176.36,179.3,2177.64,178.6,2180,178.15Zm-68.16,15.07q5.37-14,13.9-14a12.51,12.51,0,0,1,2.13.26c.91.17,1.62.29,2.14.33a74.41,74.41,0,0,1,10.39-1.56c.73,0,1.46,0,2.19.07q13.13,1.13,20.68,11.19,6.78,9.1,6.78,21.71,0,11.94-6.13,20.51a23.09,23.09,0,0,1-17.83,10.22,20.16,20.16,0,0,1-5.14-.41q-2.85-.56-5.58-1.16-3.28-.59-10.29-2.16a22.07,22.07,0,0,1-13.24-10.29q-3.93-6.79-3.93-16.41Q2108,203.67,2111.88,193.22Zm-68.92,0q5.36-14,13.89-14a12.72,12.72,0,0,1,2.14.26c.91.17,1.62.29,2.13.33a74.62,74.62,0,0,1,10.39-1.56c.73,0,1.46,0,2.19.07q13.14,1.13,20.68,11.19,6.78,9.1,6.78,21.71,0,11.94-6.12,20.51a23.11,23.11,0,0,1-17.84,10.22,20.2,20.2,0,0,1-5.14-.41q-2.85-.56-5.58-1.16-3.29-.59-10.28-2.16A22,22,0,0,1,2043,227.91q-3.95-6.79-3.94-16.41Q2039,203.67,2043,193.22Zm-74.07,41.7a11.49,11.49,0,0,0,.33-2.09V185.09a15.48,15.48,0,0,1,1-4.1c.15-.5,1.39-1.2,3.72-2.09a5.58,5.58,0,0,1,1.21-.07,43.33,43.33,0,0,1,8.53.89q5.8,1.2,6.13,3.13a5.19,5.19,0,0,1-.93,2.54,6.79,6.79,0,0,0-1,2.53v18.21q7.44-1.27,16.3-2.61V182.7a5.18,5.18,0,0,0-.49-1.12,2,2,0,0,1-.28-1.56c.37-.9,1.57-1.47,3.62-1.72,1.53-.15,3.06-.27,4.59-.37a22.45,22.45,0,0,1,7.06,1c3.1.8,4.83,1.64,5.19,2.54a1.81,1.81,0,0,1-.43,1.56,4.38,4.38,0,0,0-.77,2.09v20.59c.36.3,2.08,1.37,5.14,3.21q3,1.79,2.85,2.61c-.08.69-.93,1.55-2.57,2.57a8.33,8.33,0,0,1-3.56,1.53,13,13,0,0,0-1.86.07v18.8a19,19,0,0,1,1.1,2.76q1,4.77-1.65,5.6a6.63,6.63,0,0,1-1.64.15,35,35,0,0,1-9.84-1.87c-4.31-1.29-6.93-2.58-7.88-3.88-.08-.45-.18-1.12-.33-2-.15-.35.11-.82.77-1.42s1-1,1-1.12V217.61c-1.39.1-4.12.48-8.2,1.12s-6.79,1.15-8.1,1.49v15.15a1.9,1.9,0,0,0,.71,1.23,3.17,3.17,0,0,1,.82,1.08c-.29.8-.55,1.57-.77,2.31a1.66,1.66,0,0,1-1.2,1q-1.76.44-9.79-1.38t-8.48-2.95A3.67,3.67,0,0,1,1968.89,234.92Zm-57.76-46q7.32-10,18.38-10.36,4.26-.15,12.52,3t10.89,6.23q2.63,3.09,3.61,13.54a8.62,8.62,0,0,1-.88,4.55q-1.31,2.76-3.39,2.53a82.87,82.87,0,0,1-9.63-1.64c-4.66-1-7.18-1.91-7.54-2.61a1.32,1.32,0,0,1-.22-.67,2.8,2.8,0,0,1,.93-1.68,2.8,2.8,0,0,0,.93-1.68,33,33,0,0,0,.54-5.74c0-2.59-.43-4.38-1.31-5.37a21.29,21.29,0,0,0-10,11,36.4,36.4,0,0,0-2.84,14.7,36,36,0,0,0,1.64,11.3q1.65,5,3.94,6c.73.29,2.75-.71,6.07-3s5.45-4.17,6.4-5.56a19.68,19.68,0,0,0,1-2.39,2.82,2.82,0,0,1,1.75-1.64q1.86-.45,9.57,2.13c5.14,1.71,7.64,2.92,7.5,3.61a4.38,4.38,0,0,1-2.08,3,39.64,39.64,0,0,1-9.74,9.32q-7.11,5-11.49,5a8.72,8.72,0,0,1-1.2-.08q-4.82-1-10.83-2.61a28,28,0,0,1-16.41-11.41,31.25,31.25,0,0,1-5-17.68A35.74,35.74,0,0,1,1911.13,188.89ZM1847,222.35a4.13,4.13,0,0,1,2.24-1.38,12.75,12.75,0,0,1,2.41-.15,82.57,82.57,0,0,1,9.35.64q5.54.63,6.19,1.15c.43.35,1,2.14,1.75,5.37.65,3,1.64,4.65,2.95,5a3,3,0,0,0,1,.15,4.21,4.21,0,0,0,3.56-2.35,9.85,9.85,0,0,0,1.48-5.33q0-6.49-5.91-8.66-13.57-5-19-9.25-6.35-4.92-5.69-11.63.55-5.59,6-11.3t11.43-6.68q2.52-.37,15.32,3.28,3.16.82,6.4,1.72a12.93,12.93,0,0,1,5.19,2.61q3.06,2.61,3.07,9c0,.8,0,2-.11,3.51-.08,1.34-.11,2.29-.11,2.83a7.44,7.44,0,0,0,.76,1.72,2.34,2.34,0,0,1,.44,1.64c-.15,2.19-1.49,3.41-4,3.66-1.46.15-4.15-.23-8.09-1.12q-6.57-1.43-8.32-3.06a2.87,2.87,0,0,1-.22-1.49c0-.75.13-2.44.39-5.08s.38-4.55.38-5.74c0-2.14-.37-3.18-1.1-3.13a7.07,7.07,0,0,0-5.63,3.32,12.18,12.18,0,0,0-2.24,7.2q0,6.7,5.8,9.54l13.13,5.67q6.22,2.76,8.64,5.52,3.06,3.58,3.06,10,0,5.52-5.36,9.06t-14.88,3.69a27.31,27.31,0,0,1-5.14-.52q-5-1-5.25-1l-5.31-.78a11.77,11.77,0,0,1-4.65-1.68,12.74,12.74,0,0,1-4.81-5.82,26,26,0,0,0-3.5-5.89,10.39,10.39,0,0,1-2.08-2.09A2.26,2.26,0,0,1,1847,222.35Z"/><path class="cls-6" d="M2138,232.68q5.91.75,9.52-8.28a50.26,50.26,0,0,0,3.17-18.8,40,40,0,0,0-1.64-12.38c-1.16-3.58-2.81-5.57-4.92-6-1.61-.29-3.19,1.17-4.76,4.41s-3.16,4.84-4.76,4.84a4.65,4.65,0,0,1-1.59-.41,7.09,7.09,0,0,0-1.69-.48q-3.72,5.59-3.72,16a35,35,0,0,0,2.52,14Q2133,232,2138,232.68Z"/><path class="cls-6" d="M2069.11,232.68q5.91.75,9.52-8.28a50.46,50.46,0,0,0,3.17-18.8,40.26,40.26,0,0,0-1.64-12.38q-1.76-5.37-4.93-6c-1.6-.29-3.19,1.17-4.76,4.41s-3.15,4.84-4.75,4.84a4.6,4.6,0,0,1-1.59-.41,7.14,7.14,0,0,0-1.7-.48q-3.72,5.59-3.72,16a35,35,0,0,0,2.52,14Q2064.08,232,2069.11,232.68Z"/><path class="cls-9" d="M2436.31,1089.27V264a1.73,1.73,0,0,1-.75.18h-.25V1134.2H2222.66v1h213.65v-45.93Z"/><polygon class="cls-9" points="1646.6 1134.48 1645.6 1134.02 1645.6 1135.2 1805.34 1135.2 1805.34 1134.2 1646.6 1134.2 1646.6 1134.48"/><path class="cls-9" d="M2435.56,260.64a1.72,1.72,0,0,1,.75.17v-103h-1V260.64Z"/><path class="cls-10" d="M1624.64,1123.4l21,9.53V263.6a1.75,1.75,0,0,1-.49-1.22,1.79,1.79,0,0,1,.49-1.22V157.81h-9.27l7.12-3.9-.1,0-5.8,3.15-10.92-4.5Z"/><path d="M1646.6,1134.48V264.1a1.74,1.74,0,0,1-1-.5v869.33l-21-9.53,2-970.88-1-.42-.27,129.5v5l-.2,97.83v5l-1.43,699.84v1l-.07,33.45v.32l22,10Z"/><polygon points="1644.63 153.26 1644.53 153.23 1643.35 153.87 1643.45 153.91 1644.63 153.26"/><path d="M1646.6,260.66V157.81h-1V261.16A1.8,1.8,0,0,1,1646.6,260.66Z"/><path class="cls-6" d="M1998,77.94v2H1980.6a52,52,0,0,0,51.37,50.4V112.88h2V130.3a52,52,0,0,0,50.41-51.87c0-.16,0-.33,0-.49h-17.46v-2h17.4A52,52,0,0,0,2033,26.54V44h-2V26.56a52,52,0,0,0-50.39,51.38ZM2026.89,50l5.35,23.95L2042,62.06l2.32,1.9-10.89,13.23a1.9,1.9,0,0,1,0,.25,2,2,0,0,1-4,0,2,2,0,0,1,.26-1L2024,50.64Z"/><path class="cls-6" d="M2425.64,152.81l-276-144.47L1923.28,6.5l-267.4,146.31ZM2032.47,17.53a60.91,60.91,0,1,1-60.91,60.9A61,61,0,0,1,2032.47,17.53Z"/><path class="cls-7" d="M1625.63,152.1l1,.42,10.92,4.5,5.8-3.15,1.18-.64,26.36-14.33-26.26,14.36-1.18.65-7.12,3.9H2446L2151.44,3.63l-.54-.28L1922.67,1.5H1922l-1.87,1L1881.4,0,1858-1.52,1855.29,0,1604.07,143.21Zm524-143.76,276,144.47H1655.88L1923.28,6.5Z"/><path class="cls-11" d="M2435.56,260.64H1646.85l-.25,0a1.72,1.72,0,0,0-1.49,1.72,1.72,1.72,0,0,0,1.49,1.72l.25,0h788.71a1.75,1.75,0,0,0,0-3.49Z"/><path d="M1848.44,226.64a26,26,0,0,1,3.5,5.89,12.74,12.74,0,0,0,4.81,5.82,11.77,11.77,0,0,0,4.65,1.68l5.31.78q.21,0,5.25,1a27.31,27.31,0,0,0,5.14.52q9.53-.15,14.88-3.69t5.36-9.06q0-6.42-3.06-10-2.41-2.76-8.64-5.52l-13.13-5.67q-5.8-2.84-5.8-9.54a12.18,12.18,0,0,1,2.24-7.2,7.07,7.07,0,0,1,5.63-3.32c.73-.05,1.1,1,1.1,3.13,0,1.19-.13,3.11-.38,5.74s-.39,4.33-.39,5.08a2.87,2.87,0,0,0,.22,1.49q1.75,1.63,8.32,3.06c3.94.89,6.63,1.27,8.09,1.12,2.56-.25,3.9-1.47,4-3.66a2.34,2.34,0,0,0-.44-1.64,7.44,7.44,0,0,1-.76-1.72c0-.54,0-1.49.11-2.83.07-1.54.11-2.71.11-3.51q0-6.41-3.07-9a12.93,12.93,0,0,0-5.19-2.61q-3.24-.9-6.4-1.72-12.81-3.65-15.32-3.28-6,1-11.43,6.68t-6,11.3q-.64,6.71,5.69,11.63,5.47,4.26,19,9.25,5.91,2.18,5.91,8.66a9.85,9.85,0,0,1-1.48,5.33,4.21,4.21,0,0,1-3.56,2.35,3,3,0,0,1-1-.15c-1.31-.35-2.3-2-2.95-5-.73-3.23-1.32-5-1.75-5.37s-2.5-.73-6.19-1.15a82.57,82.57,0,0,0-9.35-.64,12.75,12.75,0,0,0-2.41.15,4.13,4.13,0,0,0-2.24,1.38,2.26,2.26,0,0,0-.6,2.2A10.39,10.39,0,0,0,1848.44,226.64Z"/><path d="M1925.68,239.69q6,1.58,10.83,2.61a8.72,8.72,0,0,0,1.2.08q4.38,0,11.49-5a39.64,39.64,0,0,0,9.74-9.32,4.38,4.38,0,0,0,2.08-3c.14-.69-2.36-1.9-7.5-3.61s-8.33-2.43-9.57-2.13a2.82,2.82,0,0,0-1.75,1.64,19.68,19.68,0,0,1-1,2.39q-1.43,2.08-6.4,5.56c-3.32,2.31-5.34,3.31-6.07,3q-2.29-1-3.94-6a36,36,0,0,1-1.64-11.3,36.4,36.4,0,0,1,2.84-14.7,21.29,21.29,0,0,1,10-11c.88,1,1.31,2.78,1.31,5.37a33,33,0,0,1-.54,5.74,2.8,2.8,0,0,1-.93,1.68,2.8,2.8,0,0,0-.93,1.68,1.32,1.32,0,0,0,.22.67c.36.7,2.88,1.57,7.54,2.61a82.87,82.87,0,0,0,9.63,1.64q2.09.22,3.39-2.53a8.62,8.62,0,0,0,.88-4.55q-1-10.44-3.61-13.54T1942,181.51q-8.25-3.13-12.52-3-11.05.38-18.38,10.36a35.74,35.74,0,0,0-6.9,21.71,31.25,31.25,0,0,0,5,17.68A28,28,0,0,0,1925.68,239.69Z"/><path d="M1977.59,239.66q8,1.82,9.79,1.38a1.66,1.66,0,0,0,1.2-1c.22-.74.48-1.51.77-2.31a3.17,3.17,0,0,0-.82-1.08,1.9,1.9,0,0,1-.71-1.23V220.22q2-.51,8.1-1.49c4.08-.64,6.81-1,8.2-1.12v15.07c0,.15-.33.52-1,1.12s-.92,1.07-.77,1.42c.15.89.25,1.56.33,2,1,1.3,3.57,2.59,7.88,3.88a35,35,0,0,0,9.84,1.87,6.63,6.63,0,0,0,1.64-.15q2.63-.83,1.65-5.6a19,19,0,0,0-1.1-2.76v-18.8a13,13,0,0,1,1.86-.07,8.33,8.33,0,0,0,3.56-1.53c1.64-1,2.49-1.88,2.57-2.57s-.88-1.42-2.85-2.61c-3.06-1.84-4.78-2.91-5.14-3.21V185.09a4.38,4.38,0,0,1,.77-2.09,1.81,1.81,0,0,0,.43-1.56c-.36-.9-2.09-1.74-5.19-2.54a22.45,22.45,0,0,0-7.06-1c-1.53.1-3.06.22-4.59.37-2,.25-3.25.82-3.62,1.72a2,2,0,0,0,.28,1.56,5.18,5.18,0,0,1,.49,1.12v20.82q-8.86,1.33-16.3,2.61V187.92a6.79,6.79,0,0,1,1-2.53,5.19,5.19,0,0,0,.93-2.54q-.33-1.93-6.13-3.13a43.33,43.33,0,0,0-8.53-.89,5.58,5.58,0,0,0-1.21.07c-2.33.89-3.57,1.59-3.72,2.09a15.48,15.48,0,0,0-1,4.1v47.74a11.49,11.49,0,0,1-.33,2.09,3.67,3.67,0,0,0,.22,1.79Q1969.55,237.84,1977.59,239.66Z"/><path d="M2056.2,238.2q7,1.58,10.28,2.16,2.73.6,5.58,1.16a20.2,20.2,0,0,0,5.14.41A23.11,23.11,0,0,0,2095,231.71q6.12-8.58,6.12-20.51,0-12.62-6.78-21.71-7.55-10.06-20.68-11.19c-.73-.05-1.46-.07-2.19-.07a74.62,74.62,0,0,0-10.39,1.56c-.51,0-1.22-.16-2.13-.33a12.72,12.72,0,0,0-2.14-.26q-8.52,0-13.89,14Q2039,203.66,2039,211.5q0,9.62,3.94,16.41A22,22,0,0,0,2056.2,238.2Zm6.23-42.59a7.14,7.14,0,0,1,1.7.48,4.6,4.6,0,0,0,1.59.41c1.6,0,3.19-1.61,4.75-4.84s3.16-4.7,4.76-4.41q3.18.6,4.93,6a40.26,40.26,0,0,1,1.64,12.38,50.46,50.46,0,0,1-3.17,18.8q-3.62,9-9.52,8.28-5-.68-7.88-7.16a35,35,0,0,1-2.52-14Q2058.71,201.21,2062.43,195.61Z"/><path d="M2125.12,238.2q7,1.58,10.29,2.16,2.73.6,5.58,1.16a20.16,20.16,0,0,0,5.14.41A23.09,23.09,0,0,0,2164,231.71q6.14-8.58,6.13-20.51,0-12.62-6.78-21.71-7.56-10.06-20.68-11.19c-.73-.05-1.46-.07-2.19-.07a74.41,74.41,0,0,0-10.39,1.56c-.52,0-1.23-.16-2.14-.33a12.51,12.51,0,0,0-2.13-.26q-8.54,0-13.9,14Q2108,203.66,2108,211.5q0,9.62,3.93,16.41A22.07,22.07,0,0,0,2125.12,238.2Zm6.24-42.59a7.09,7.09,0,0,1,1.69.48,4.65,4.65,0,0,0,1.59.41q2.4,0,4.76-4.84c1.57-3.24,3.15-4.7,4.76-4.41,2.11.4,3.76,2.39,4.92,6a40,40,0,0,1,1.64,12.38,50.26,50.26,0,0,1-3.17,18.8q-3.62,9-9.52,8.28-5-.68-7.87-7.16a35,35,0,0,1-2.52-14Q2127.64,201.21,2131.36,195.61Z"/><path d="M2176.87,181.14a2.52,2.52,0,0,1,.88,1.27v50.12a11.81,11.81,0,0,1-.22,1.87c-.29,1.69,0,2.93.76,3.73q1.65,1.49,9.41,3.2t10.18,1.12a2.86,2.86,0,0,0,1.58-1.19,3.42,3.42,0,0,1,1.59-1.27l16.19-4.62a5.51,5.51,0,0,1,2.14-.08,7,7,0,0,0,2.35-.07q2.83-.75,4.16-4.25c.29-.7-1.79-2.15-6.24-4.37s-7.19-3.27-8.21-3.17a17.23,17.23,0,0,0-3.72,1.34l-11.37,3.36V186.88c0-.4.4-1,1.2-1.79s1.2-1.39,1.2-1.79q-.11-2.31-8.75-4c-5.11-1-8.42-1.36-10-1.12-2.4.45-3.68,1.15-3.83,2.09Q2176.21,180.62,2176.87,181.14Z"/><path d="M1998,77.94h-17.45c0,.16,0,.33,0,.49,0,.51,0,1,0,1.5H1998Z"/><path d="M2033,44V26.54h-.5l-1.5,0V44Z"/><path d="M2032,112.88v17.45h.5c.5,0,1,0,1.5,0V112.88Z"/><path d="M2066.91,77.94h17.46c0-.67,0-1.34-.06-2h-17.4Z"/><path class="cls-12" d="M2032.47,139.34a60.91,60.91,0,1,0-60.91-60.91A61,61,0,0,0,2032.47,139.34ZM2031,26.56l1.5,0h.5a52,52,0,0,1,51.34,49.4c0,.66.05,1.33.06,2,0,.16,0,.33,0,.49A52,52,0,0,1,2034,130.3c-.5,0-1,0-1.5,0h-.5a52,52,0,0,1-51.37-50.4c0-.5,0-1,0-1.5,0-.16,0-.33,0-.49A52,52,0,0,1,2031,26.56Z"/><path d="M2029.48,77.44a2,2,0,0,0,4,0,1.9,1.9,0,0,0,0-.25L2044.33,64l-2.32-1.9-9.77,11.88L2026.89,50l-2.92.65,5.77,25.83A2,2,0,0,0,2029.48,77.44Z"/><path class="cls-13" d="M317.44,766.8H262.61A61.81,61.81,0,0,0,201,828.43v54.29h88.28V768.35h4.68V878.9c25-23.82,53.92-39.3,84.93-39.87h.2v-10.6A61.81,61.81,0,0,0,317.44,766.8Z"/><path class="cls-13" d="M201,914.72c0,1.6.06,3.2.18,4.78H201v78.91h19.09c14.6-41,37.8-82.14,66.7-112.35H201Z"/><path class="cls-14" d="M289.26,768.35V882.72H201v3.34h85.79q3.53-3.69,7.17-7.16V768.35Z"/><path class="cls-13" d="M324.43,452.32H269.6A61.81,61.81,0,0,0,208,514v54.28h88.27V453.87h4.69V568.23h84.26v3.35H300.93V683.93h84.93V605.14c.13-1.62.2-3.26.2-4.91V514A61.81,61.81,0,0,0,324.43,452.32Z"/><path class="cls-13" d="M208,571.58v28.65c0,1.61.06,3.21.18,4.78H208v78.92h88.27V571.58Z"/><polygon class="cls-14" points="385.19 571.58 385.19 568.23 300.93 568.23 300.93 453.87 296.25 453.87 296.25 568.23 207.97 568.23 207.97 571.58 296.25 571.58 296.25 683.93 296.25 685.94 300.93 685.94 300.93 683.93 300.93 571.58 385.19 571.58"/><path class="cls-13" d="M808.63,758.82H753.8a61.81,61.81,0,0,0-61.63,61.63v54.28h88.28V760.37h4.68V874.73H869.4v3.34H785.13V990.43h84.94V911.64c.13-1.62.19-3.26.19-4.91V820.45A61.81,61.81,0,0,0,808.63,758.82Z"/><path class="cls-13" d="M692.17,878.07v28.66c0,1.61.06,3.2.19,4.78h-.19v78.92h88.28V878.07Z"/><polygon class="cls-14" points="869.4 878.07 869.4 874.73 785.13 874.73 785.13 760.37 780.45 760.37 780.45 874.73 692.17 874.73 692.17 878.07 780.45 878.07 780.45 990.43 780.45 992.43 785.13 992.43 785.13 990.43 785.13 878.07 869.4 878.07"/><path class="cls-13" d="M1222.72,757.37h4.69V871.73h84.26v3.35h-84.26V987.43h84.93V908.64c.13-1.62.2-3.25.2-4.91V817.45a61.82,61.82,0,0,0-61.63-61.63h-54.84a61.82,61.82,0,0,0-61.63,61.63v54.28h88.28Z"/><path class="cls-13" d="M1222.72,875.08h-88.28v28.65c0,1.61.07,3.21.19,4.79h-.19v78.91h88.28Z"/><polygon class="cls-14" points="1222.72 987.43 1222.72 989.44 1227.4 989.44 1227.4 987.43 1227.4 875.08 1311.67 875.08 1311.67 871.73 1227.4 871.73 1227.4 757.37 1222.72 757.37 1222.72 871.73 1134.44 871.73 1134.44 875.08 1222.72 875.08 1222.72 987.43"/><path class="cls-13" d="M813.63,451.32H758.79A61.82,61.82,0,0,0,697.16,513v54.28h88.28V452.87h4.68V567.23h84.27v3.35H790.12V682.93h84.94V604.14c.13-1.62.2-3.25.2-4.91V513A61.82,61.82,0,0,0,813.63,451.32Z"/><path class="cls-13" d="M697.16,570.58v28.65c0,1.61.07,3.21.19,4.79h-.19v78.91h88.28V570.58Z"/><polygon class="cls-14" points="874.39 570.58 874.39 567.23 790.12 567.23 790.12 452.87 785.44 452.87 785.44 567.23 697.16 567.23 697.16 570.58 785.44 570.58 785.44 682.93 785.44 684.94 790.12 684.94 790.12 682.93 790.12 570.58 874.39 570.58"/><path class="cls-13" d="M1227.72,442.89h4.68V557.25h84.26v3.34H1232.4V673h84.93V594.16c.13-1.62.2-3.26.2-4.91V503a61.81,61.81,0,0,0-61.63-61.63h-54.83A61.81,61.81,0,0,0,1139.44,503v54.28h88.28Z"/><path class="cls-13" d="M1227.72,560.59h-88.28v28.66c0,1.61.06,3.2.18,4.78h-.18V673h88.28Z"/><polygon class="cls-14" points="1227.71 672.95 1227.71 674.96 1232.4 674.96 1232.4 672.95 1232.4 560.59 1316.66 560.59 1316.66 557.25 1232.4 557.25 1232.4 442.89 1227.71 442.89 1227.71 557.25 1139.44 557.25 1139.44 560.59 1227.71 560.59 1227.71 672.95"/><path class="cls-13" d="M2651.87,433.85h-24.15A59.2,59.2,0,0,0,2568.59,493v51.79h83.28Z"/><path class="cls-13" d="M2682.56,433.85h-21V544.77h80.14V493A59.2,59.2,0,0,0,2682.56,433.85Z"/><path class="cls-13" d="M2661.55,660.47h79.94V584c.12-1.58.19-3.16.19-4.71V553.11h-80.14Z"/><path class="cls-14" d="M2682.56,428.85h-54.84A64.2,64.2,0,0,0,2563.59,493v86.29c0,.75,0,1.52,0,2.28l0,83.92h88.28v2h9.68v-2h84.94v-81.2c.13-1.67.2-3.35.2-5V493A64.2,64.2,0,0,0,2682.56,428.85Zm59.13,150.42c0,1.55-.07,3.13-.19,4.71v76.49h-79.94V553.11h80.14ZM2568.59,493a59.2,59.2,0,0,1,59.13-59.13h24.15V544.77h-83.28Zm0,93.57h.39l-.21-2.69c-.12-1.53-.18-3.07-.18-4.59V553.11h83.28V660.47h-83.28Zm173.1-41.78h-80.14V433.85h21A59.2,59.2,0,0,1,2741.69,493Z"/><path class="cls-13" d="M2651.87,553.11h-83.28v26.16c0,1.52.06,3.06.18,4.59l.21,2.69h-.39v73.92h83.28Z"/><path class="cls-13" d="M3196.68,650.48h79.93V574c.13-1.57.19-3.16.19-4.71V543.13h-80.13Z"/><path class="cls-13" d="M3217.68,423.87h-21V534.78h80.13V483A59.2,59.2,0,0,0,3217.68,423.87Z"/><path class="cls-13" d="M3187,423.87h-24.15A59.2,59.2,0,0,0,3103.72,483v51.78H3187Z"/><path class="cls-14" d="M3217.68,418.87h-54.83A64.2,64.2,0,0,0,3098.72,483v86.28c0,.76,0,1.52,0,2.29l0,83.91H3187v2h9.68v-2h84.93V574.29c.13-1.67.2-3.36.2-5V483A64.2,64.2,0,0,0,3217.68,418.87Zm59.13,150.41c0,1.55-.06,3.14-.19,4.71v76.49h-79.93V543.13h80.13ZM3103.72,483a59.2,59.2,0,0,1,59.13-59.13H3187V534.78h-83.28Zm0,93.57h.38l-.21-2.7c-.11-1.52-.17-3.07-.17-4.59V543.13H3187V650.48h-83.28Zm173.09-41.79h-80.13V423.87h21A59.2,59.2,0,0,1,3276.81,483Z"/><path class="cls-13" d="M3187,543.13h-83.28v26.15c0,1.52.06,3.07.17,4.59l.21,2.7h-.38v73.91H3187Z"/><path class="cls-13" d="M3716.86,411.39H3662A61.81,61.81,0,0,0,3600.4,473V527.3h88.28V412.94h4.68V527.3h84.26v3.34h-84.26V643h84.93V564.21c.13-1.62.2-3.26.2-4.91V473A61.81,61.81,0,0,0,3716.86,411.39Z"/><path class="cls-13" d="M3600.4,530.64V559.3c0,1.61.06,3.2.18,4.78h-.18V643h88.28V530.64Z"/><polygon class="cls-14" points="3777.62 530.64 3777.62 527.3 3693.36 527.3 3693.36 412.94 3688.68 412.94 3688.68 527.3 3600.4 527.3 3600.4 530.64 3688.68 530.64 3688.68 643 3688.68 645 3693.36 645 3693.36 643 3693.36 530.64 3777.62 530.64"/><path class="cls-13" d="M2678.56,738.35h-21V849.27h80.13V797.48A59.2,59.2,0,0,0,2678.56,738.35Z"/><path class="cls-13" d="M2647.88,738.35h-24.15a59.2,59.2,0,0,0-59.13,59.13v51.79h83.28Z"/><path class="cls-13" d="M2657.56,965h79.94V888.48c.13-1.58.19-3.16.19-4.71V857.61h-80.13Z"/><path class="cls-14" d="M2678.56,733.35h-54.83a64.2,64.2,0,0,0-64.13,64.13v86.29c0,.75,0,1.52,0,2.28l0,83.92h88.28v2h9.68v-2h84.94v-81.2c.13-1.67.19-3.35.19-5V797.48A64.2,64.2,0,0,0,2678.56,733.35Zm59.13,150.42c0,1.55-.06,3.13-.19,4.71V965h-79.94V857.61h80.13ZM2564.6,797.48a59.2,59.2,0,0,1,59.13-59.13h24.15V849.27H2564.6Zm0,93.57h.39l-.21-2.69c-.12-1.53-.18-3.07-.18-4.59V857.61h83.28V965H2564.6Zm173.09-41.78h-80.13V738.35h21a59.2,59.2,0,0,1,59.13,59.13Z"/><path class="cls-13" d="M2647.88,857.61H2564.6v26.16c0,1.52.06,3.06.18,4.59l.21,2.69h-.39V965h83.28Z"/><path class="cls-13" d="M3187.69,954h79.94V877.5c.13-1.58.19-3.16.19-4.72V846.63h-80.13Z"/><path class="cls-13" d="M3208.69,727.37h-21V838.28h80.13V786.5A59.2,59.2,0,0,0,3208.69,727.37Z"/><path class="cls-13" d="M3178,727.37h-24.15a59.2,59.2,0,0,0-59.13,59.13v51.78H3178Z"/><path class="cls-14" d="M3208.69,722.37h-54.83a64.2,64.2,0,0,0-64.13,64.13v86.28c0,.76,0,1.52,0,2.29l0,83.91H3178v2h9.68v-2h84.94V877.79c.13-1.67.19-3.35.19-5V786.5A64.2,64.2,0,0,0,3208.69,722.37Zm59.13,150.41c0,1.56-.06,3.14-.19,4.72V954h-79.94V846.63h80.13ZM3094.73,786.5a59.2,59.2,0,0,1,59.13-59.13H3178V838.28h-83.28Zm0,93.57h.39l-.21-2.7c-.12-1.52-.18-3.06-.18-4.59V846.63H3178V954h-83.28Zm173.09-41.79h-80.13V727.37h21a59.2,59.2,0,0,1,59.13,59.13Z"/><path class="cls-13" d="M3178,846.63h-83.28v26.15c0,1.53.06,3.07.18,4.59l.21,2.7h-.39V954H3178Z"/><path class="cls-13" d="M3769.31,864.72c.13-1.63.19-3.26.19-4.91V773.52a61.81,61.81,0,0,0-61.63-61.63H3653a61.81,61.81,0,0,0-61.63,61.63v51.7c9.93-5.83,20.49-9.27,31.48-9.49,13.35-.25,26.24,4.25,38.25,12.08h18.55V713.44h4.68V827.81h84.27v3.34h-84.27V848c23.32,25.66,41,62.58,48.66,95.49h36.28Z"/><path class="cls-13" d="M3666,831.15a120.4,120.4,0,0,1,13.74,11.94V831.15Z"/><path class="cls-14" d="M3768.64,831.15v-3.34h-84.27V713.44h-4.68V827.81h-18.55c1.62,1.05,3.22,2.17,4.81,3.34h13.74v11.94c1.58,1.59,3.15,3.23,4.68,4.92V831.15Z"/><path class="cls-13" d="M1871.82,333.52h-66.08a74.49,74.49,0,0,0-74.28,74.27V473.2h106.39V335.38h5.64V473.2h101.56v4H1843.49V612.64h102.36v-95q.24-2.92.24-5.91v-104A74.49,74.49,0,0,0,1871.82,333.52Z"/><path class="cls-13" d="M1731.46,477.23v34.54c0,1.94.08,3.86.23,5.76h-.23v95.11h106.39V477.23Z"/><polygon class="cls-14" points="1945.05 477.23 1945.05 473.2 1843.49 473.2 1843.49 335.38 1837.85 335.38 1837.85 473.2 1731.46 473.2 1731.46 477.23 1837.85 477.23 1837.85 612.63 1837.85 615.05 1843.49 615.05 1843.49 612.63 1843.49 477.23 1945.05 477.23"/><path class="cls-13" d="M2300.27,516.69q.24-2.94.24-5.92v-104a74.49,74.49,0,0,0-74.27-74.27h-66.09a74.49,74.49,0,0,0-74.27,74.27v65.42h106.39V334.38h5.64V472.21h101.55v4H2197.91V611.64h102.36Z"/><path class="cls-13" d="M2085.88,476.23v34.54c0,1.94.08,3.86.23,5.76h-.23v95.11h106.39V476.23Z"/><polygon class="cls-14" points="2299.46 476.24 2299.46 472.2 2197.91 472.2 2197.91 334.38 2192.27 334.38 2192.27 472.2 2085.88 472.2 2085.88 476.24 2192.27 476.24 2192.27 611.64 2192.27 614.05 2197.91 614.05 2197.91 611.64 2197.91 476.24 2299.46 476.24"/><path class="cls-13" d="M1826.29,767.81v320.47H2015V928.54H1826.31v-9H2015V768.8h12V919.55H2194.7v9H2027v159.74h168V767.81Zm149.77,176.7h23v4h-23Zm83.87,4h-23v-4h23Z"/><polygon class="cls-15" points="1821.29 762.81 1821.29 1088.28 1826.29 1088.28 1826.29 767.81 2195.01 767.81 2195.01 1088.28 2200.01 1088.28 2200.01 762.81 1821.29 762.81"/><polygon class="cls-14" points="2194.7 928.54 2194.7 919.55 2026.98 919.55 2026.98 768.8 2015 768.8 2015 919.55 1826.31 919.55 1826.31 928.54 2015 928.54 2015 1088.28 2026.98 1088.28 2026.98 928.54 2194.7 928.54"/><rect x="1976.06" y="944.51" width="22.96" height="3.99"/><rect x="2036.96" y="944.51" width="22.96" height="3.99"/><rect class="cls-7" x="1808.34" y="1089.28" width="400.34" height="25.96"/><polygon class="cls-7" points="1806.34 1145.18 2221.66 1145.18 2221.66 1116.23 2209.68 1116.23 1807.34 1116.23 1806.34 1116.23 1806.34 1145.18"/><rect class="cls-7" x="1802.35" y="1147.18" width="434.29" height="29.95"/><path class="cls-14" d="M1220,56.62a51,51,0,0,0-26.91,8c-16.29-21-39.46-34.08-65.11-33.95-25,.13-47.6,12.81-63.61,33.09a50,50,0,0,0-24.08-6.14c-26.92.14-49.75,22.46-58.33,53.61-3.73,13.56,4,27.87,15.12,27.81l43.59-.22,43.66-.22A12.53,12.53,0,0,0,1088,138l40.46-.21,62-.31A19.42,19.42,0,0,0,1195,137l25.41-.13,43.65-.22c11.08,0,18.71-14.26,14.84-27.62C1270,78.3,1246.94,56.48,1220,56.62Z"/><path class="cls-14" d="M721.24,110.52a67.07,67.07,0,0,0-35.38,10.53C664.44,93.44,634,76.23,600.24,76.4c-32.93.17-62.59,16.84-83.64,43.51a65.75,65.75,0,0,0-31.67-8.07c-35.41.18-65.42,29.53-76.71,70.5-4.91,17.83,5.32,36.65,19.88,36.57l57.33-.29,57.4-.29a16.24,16.24,0,0,0,4.85-.76l53.21-.27,81.54-.41a25.4,25.4,0,0,0,5.89-.73l33.42-.17,57.4-.29c14.57-.07,24.6-18.76,19.51-36.32C787,139,756.65,110.34,721.24,110.52Z"/><path class="cls-14" d="M3056.79,212.92l57.32-.29,57.41-.29a16.67,16.67,0,0,0,4.85-.76l53.2-.27,81.55-.41a25.4,25.4,0,0,0,5.89-.73l33.41-.17,57.41-.29c14.56-.07,24.6-18.76,19.51-36.32-11.7-40.35-42-69-77.41-68.86a67.1,67.1,0,0,0-35.39,10.53c-21.42-27.61-51.88-44.82-85.62-44.65-32.93.17-62.58,16.84-83.64,43.51a65.72,65.72,0,0,0-31.67-8.07c-35.4.18-65.42,29.53-76.7,70.5C3032,194.18,3042.22,213,3056.79,212.92Z"/><path class="cls-16" d="M3125,1571.15c1.58-62.14,75.43-165.53,163.25-164.3s156.37,106.63,154.79,168.77c-.75,29.76-18.14,71-45.68,105.82l-1.33,12-10.86,2.29c-28.71,30.94-65.75,53.79-105.61,53.23l-.84,0,2.32,36.43c123.17-19.25,222.6-175.9,224.87-265.22,2.44-95.81-103.23-258.28-238.62-260.19S3018,1417.4,3015.6,1513.2c-2,80.22,71.47,216.91,174.92,260.38l2.37-63.9C3150.86,1670.41,3124,1610.38,3125,1571.15Z"/><path class="cls-17" d="M3288.25,1406.85c-87.82-1.23-161.67,102.16-163.25,164.3-1,39.23,25.86,99.26,67.89,138.53l4.17-112.56,71.88-2.23,6.59,103.78,123.38-31.2-1.55,14c27.54-34.8,44.93-76.06,45.68-105.82C3444.62,1513.48,3376.08,1408.09,3288.25,1406.85Z"/><path class="cls-17" d="M3385.17,1695.69l-108.38,22.87,1.93,30.33.84,0C3319.42,1749.48,3356.46,1726.63,3385.17,1695.69Z"/><polygon class="cls-11" points="3281.03 1785.32 3278.72 1748.89 3276.8 1718.56 3385.17 1695.69 3396.03 1693.4 3397.36 1681.44 3398.91 1667.47 3275.53 1698.66 3268.94 1594.89 3197.06 1597.12 3192.89 1709.68 3190.52 1773.58 3176.13 2162 3176.09 2163 3241.63 2161.87 3304.88 2160.77 3281.03 1785.32"/><path class="cls-16" d="M368.73,1344.16l1.71-35c-.21,0-.41,0-.62,0-29.38.54-56.67-21.44-77.83-51.18l-8-2.21-1-11.49c-20.3-33.46-33.11-73.13-33.67-101.73-1.17-59.75,49.35-161.07,114.07-162.26s119.15,98.21,120.32,158c.73,37.72-19.06,95.44-50,133.19l1.75,61.43c73.75-40.42,126.85-164.71,128.88-242.6,0-.33,0-.66,0-1,0-2.28,0-4.53,0-6.73-1.79-92-85.59-245.13-185.28-243.51h-.2c-31,.57-59.89,16.05-84.93,39.87q-3.65,3.47-7.17,7.16c-28.9,30.21-52.1,71.34-66.7,112.35-11.42,32.1-17.59,64.11-17.07,90.77,0,0,0,.06,0,.09,0,.33,0,.67,0,1v.06C205.34,1176.39,278.36,1325.74,368.73,1344.16Z"/><path class="cls-17" d="M372.79,1260.85l4.86-99.77,53,2.14,3.07,108.22c31-37.75,50.77-95.47,50-133.19-1.17-59.74-55.59-159.14-120.32-158s-115.24,102.51-114.07,162.26c.56,28.6,13.37,68.27,33.67,101.73l-1.15-13.43Z"/><path class="cls-17" d="M292,1258c21.16,29.74,48.45,51.72,77.83,51.18.21,0,.41,0,.62,0l1.42-29.17Z"/><polygon class="cls-11" points="430.62 1163.22 377.65 1161.08 372.79 1260.85 281.86 1230.86 283.01 1244.29 283.98 1255.78 291.99 1257.99 371.86 1279.97 370.44 1309.14 368.73 1344.16 351.16 1705.12 446.07 1707.26 435.44 1332.87 433.69 1271.44 430.62 1163.22"/><path class="cls-16" d="M1389.66,1089.27c-33.25-36.36-72.7-60.71-115.38-61.51-44.45-.84-86.36,24-121.89,61.51-.31.34-.62.67-.94,1-62.61,66.81-105.21,173.15-106.62,247.91C1043,1436.5,1110,1604,1204.3,1657.3l2.15-78.32c-38.31-48.12-62.8-121.7-61.89-169.78,1.44-76.16,68.77-202.87,148.83-201.36s142.55,130.68,141.11,206.85c-.69,36.46-16.53,87-41.64,129.69l-1.21,14.64-9.91,2.81c-26.17,37.92-59.93,65.93-96.28,65.25l-.76,0,2.11,44.64c112.29-23.58,202.94-215.57,205-325,1.45-76.44-38.88-187.51-101.25-256.37C1390.27,1089.94,1390,1089.61,1389.66,1089.27Z"/><path class="cls-17" d="M1275.79,1438.3l6,127.18,112.48-38.23-1.41,17.13c25.11-42.66,41-93.23,41.64-129.69,1.44-76.17-61-205.33-141.11-206.85S1146,1333,1144.56,1409.2c-.91,48.08,23.58,121.66,61.89,169.78l3.81-138Z"/><path class="cls-17" d="M1284.7,1627l.76,0c36.35.68,70.11-27.33,96.28-65.25l-98.79,28Z"/><polygon class="cls-11" points="1282.95 1589.86 1381.74 1561.83 1391.65 1559.02 1392.86 1544.38 1394.27 1527.25 1281.8 1565.48 1275.79 1438.3 1210.26 1441.03 1206.45 1578.98 1204.3 1657.3 1191.14 2134.56 1308.55 2131.83 1286.81 1671.68 1284.7 1627.04 1282.95 1589.86"/><path class="cls-16" d="M2974.4,1089.27c-21.05-66.38-69.71-135.66-127.77-136.76-59.52-1.12-111.88,69.71-134.57,136.76-.11.34-.22.67-.34,1l-.33,1c-6.95,21.06-10.95,41.68-11.29,59.49-1.19,62.78,41.61,169.77,101.84,203.79l1.38-50c-24.47-30.73-40.11-77.72-39.53-108.42.92-48.64,43.92-129.56,95.05-128.59s91,83.45,90.11,132.09c-.44,23.29-10.56,55.59-26.59,82.83l-.78,9.35-6.32,1.8c-16.72,24.21-38.28,42.1-61.49,41.66l-.48,0,1.34,28.51c71.72-15.07,129.6-137.67,130.93-207.58.36-19.21-3.41-41.83-10.54-64.89-.1-.33-.2-.66-.31-1S2974.51,1089.61,2974.4,1089.27Z"/><path class="cls-17" d="M2847.59,1214.69l3.84,81.22,71.83-24.41-.9,10.94c16-27.24,26.15-59.54,26.59-82.83.92-48.64-39-131.12-90.11-132.09s-94.13,80-95.05,128.59c-.58,30.7,15.06,77.69,39.53,108.42l2.42-88.09Z"/><path class="cls-17" d="M2853.29,1335.23l.48,0c23.21.44,44.77-17.45,61.49-41.66l-63.09,17.89Z"/><polygon class="cls-11" points="2852.16 1311.48 2915.26 1293.59 2921.58 1291.79 2922.36 1282.44 2923.26 1271.5 2851.43 1295.91 2847.59 1214.69 2805.74 1216.44 2803.32 1304.53 2801.94 1354.55 2793.54 1659.34 2868.52 1657.6 2854.63 1363.74 2853.29 1335.23 2852.16 1311.48"/><path class="cls-16" d="M3702.32,1089.27c22-36.49,35.43-83,34.83-115A149.76,149.76,0,0,0,3733,943.5c-7.64-32.91-25.34-69.83-48.66-95.49-1.53-1.69-3.1-3.33-4.68-4.92A120.4,120.4,0,0,0,3666,831.15c-1.59-1.17-3.19-2.29-4.81-3.34-12-7.83-24.9-12.33-38.25-12.08-11,.22-21.55,3.66-31.48,9.49-45.57,26.75-77.76,104.09-76.85,153.31.57,31.22,14.91,75.57,37.2,110.74l.63,1c.21.34.43.67.65,1,17.42,26.87,39.51,48,63.61,53.21l1-22.79-.38,0c-18.1.35-34.91-14-48-33.31l-4.93-1.43-.6-7.48c-12.51-21.78-20.4-47.6-20.74-66.21-.72-38.89,30.4-104.83,70.27-105.6s73.4,63.91,74.12,102.8c.45,24.54-11.74,62.11-30.82,86.67l1.07,40c16.41-9.5,31.15-26.13,43.36-45.87.2-.33.41-.66.61-1S3702.12,1089.61,3702.32,1089.27Z"/><path class="cls-17" d="M3619.15,1090.26l3-64.93,32.63,1.4,1.9,70.42c19.08-24.56,31.27-62.13,30.82-86.67-.72-38.89-34.25-103.58-74.12-102.8s-71,66.71-70.27,105.6c.34,18.61,8.23,44.43,20.74,66.21l-.7-8.74Z"/><path class="cls-17" d="M3569.37,1088.4c13,19.36,29.85,33.66,48,33.31l.38,0,.87-19Z"/><path class="cls-17" d="M3569.37,1088.4c13,19.36,29.85,33.66,48,33.31l.38,0,.87-19Z"/><polygon class="cls-11" points="3664.29 1380.8 3657.74 1137.14 3656.67 1097.15 3654.77 1026.72 3622.14 1025.33 3619.15 1090.26 3563.14 1070.74 3563.84 1079.49 3564.44 1086.96 3569.38 1088.4 3618.57 1102.71 3617.7 1121.69 3616.65 1144.48 3605.82 1379.4 3664.29 1380.8"/><polygon class="cls-18" points="674.96 1660.88 677.07 1663.01 721.62 1619.02 766.02 1663.44 768.14 1661.32 721.63 1614.79 674.96 1660.88"/><polygon class="cls-18" points="905.6 1657.69 836.75 1588.83 765.81 1658.88 767.92 1661.02 836.74 1593.06 903.57 1659.91 903.53 1659.95 904.5 1660.83 905.34 1661.67 905.38 1661.63 905.75 1661.97 946.18 1617.65 986.44 1662.36 988.67 1660.35 946.19 1613.18 905.6 1657.69"/><polygon class="cls-18" points="3165.21 1215.17 3121.43 1171.39 3076.26 1215.99 3048.19 1187.91 3018.11 1217.61 3020.22 1219.74 3048.18 1192.14 3076.04 1220.01 3077.8 1218.25 3078.02 1218.47 3121.42 1175.62 3164.67 1218.88 3165.08 1218.47 3165.72 1219.06 3191.04 1191.3 3216.25 1219.3 3218.48 1217.29 3191.05 1186.84 3165.21 1215.17"/><polygon class="cls-18" points="3420.45 2108.14 3422.56 2110.28 3482.95 2050.65 3543.14 2110.85 3545.26 2108.73 3482.96 2046.42 3420.45 2108.14"/><polygon class="cls-18" points="3730.84 2104.23 3638.06 2011.44 3542.86 2105.45 3544.96 2107.59 3638.05 2015.67 3728.81 2106.45 3728.42 2106.88 3730.64 2108.9 3785.5 2048.75 3838.12 2107.19 3840.13 2109.42 3842.35 2107.41 3838.13 2102.72 3785.51 2044.29 3730.84 2104.23"/><polygon class="cls-18" points="185.15 1955.87 187.26 1958 247.97 1898.05 308.49 1958.58 310.62 1956.46 247.99 1893.82 185.15 1955.87"/><polygon class="cls-18" points="497.19 1951.94 403.92 1858.65 308.21 1953.17 310.31 1955.3 403.9 1862.88 495.16 1954.16 494.77 1954.59 496.98 1956.62 499.23 1954.15 499.31 1954.07 499.31 1954.06 552.14 1896.14 607.07 1957.14 609.29 1955.13 552.15 1891.68 497.19 1951.94"/><polygon class="cls-18" points="701.03 1127.67 701.79 1128.36 720.58 1107.76 739.29 1128.54 740.52 1127.44 740.96 1127.89 761.75 1107.36 782.48 1128.09 784.06 1126.51 784.49 1126.93 816.9 1094.92 849.22 1127.24 849.79 1126.67 850.54 1127.36 869.33 1106.77 888.04 1127.54 890.27 1125.54 869.35 1102.3 849.87 1123.65 816.92 1090.69 782.91 1124.28 761.77 1103.13 739.89 1124.73 720.59 1103.3 701.11 1124.65 668.16 1091.69 634.15 1125.28 613.01 1104.13 590.1 1126.76 592.21 1128.89 613 1108.36 633.72 1129.09 635.31 1127.5 635.73 1127.93 668.15 1095.92 700.46 1128.24 701.03 1127.67"/></g></svg>
