<svg xmlns="http://www.w3.org/2000/svg" viewBox="0 0 410 220"><defs><style>.cls-1{fill:#ffffbd;}.cls-2{fill:#a6d9ac;}</style></defs><title>Deadline</title><g id="UI"><g id="Knapper"><path class="cls-1" d="M152.18,116.35h0a5.58,5.58,0,0,0-.72,0c-3.32.36-6,3.2-8.05,8.44-.14.38-.28.76-.42,1.16a58.67,58.67,0,0,0-2.6,18.41,67.88,67.88,0,0,0,2.72,18c.41,1.46.8,2.69,1.17,3.75,1.61,4.57,2.89,5.64,3.74,5.64h0a3.75,3.75,0,0,0,1-.15l.09,0a3.43,3.43,0,0,0,.48-.19l.08,0a6.29,6.29,0,0,0,2.07-1.68l0,0a14.42,14.42,0,0,0,1.8-2.89l.09-.18.18-.38c.23-.52.47-1.07.69-1.66h0c.42-1.1.82-2.33,1.2-3.68a87.18,87.18,0,0,0,2.59-22.72,64.64,64.64,0,0,0-1.56-15.41C155.67,118.5,154.11,116.35,152.18,116.35Z"/><path class="cls-1" d="M113.07,53.38H113a8.09,8.09,0,0,0-3.69,1.5,7.48,7.48,0,0,0-2.64,2.36,25.76,25.76,0,0,0,5.44-.6c.72-.18,1.08-1,1.08-2.5C113.2,53.5,113.07,53.39,113.07,53.38Z"/><path class="cls-1" d="M196.6,56.19c-1.87,1.31-2.81,2.53-2.81,3.62,0,1.37,1.75,2.14,5.22,2.28,1.19,0,3.25-1.57,6.26-9.45a21.48,21.48,0,0,0-7.82,3C197.15,55.81,196.86,56,196.6,56.19Z"/><path class="cls-1" d="M340.67,53.38a8.09,8.09,0,0,0-3.69,1.5,7.57,7.57,0,0,0-2.64,2.36,26,26,0,0,0,5.45-.6c.71-.18,1.07-1,1.07-2.5,0-.64-.12-.75-.12-.76Z"/><path class="cls-1" d="M145,64.05h.06c1.12,0,3.74-.85,7.78-2.54a55.52,55.52,0,0,0,6.58-3.14,29.48,29.48,0,0,0-5.48,1.4c-1.45.61-2.91,1.2-4.37,1.79a16.4,16.4,0,0,0-3.28,1.53A5.46,5.46,0,0,0,145,64.05Z"/><path class="cls-1" d="M69.42,116.61h0c-2.43,0-4.55,1.28-6.33,3.79a23,23,0,0,0-2.85,5.86,58.33,58.33,0,0,0-2.6,18.41,67.87,67.87,0,0,0,2.72,18c.27,1,.53,1.85.79,2.64,1.79,5.51,3.2,6.76,4.11,6.76h0c2.53,0,4.73-2.42,6.56-7.18v0c.1-.25.19-.51.28-.77l.14-.38c.05-.14.09-.29.14-.43.22-.67.44-1.37.65-2.11a76.25,76.25,0,0,0,2.24-13.48c.06-.76.11-1.53.16-2.31,0-.23,0-.45,0-.68,0-.54,0-1.09.06-1.64.06-1.51.09-3,.09-4.61A64.64,64.64,0,0,0,74.05,123C72.91,118.76,71.35,116.61,69.42,116.61Z"/><path class="cls-1" d="M76.41,47.56a6.58,6.58,0,0,0-1.28-.08,52.07,52.07,0,0,0-10.34,1.24V60.79A17.42,17.42,0,0,0,74,55.55c2.23-2.41,3.36-4.6,3.36-6.53C77.31,47.86,76.8,47.63,76.41,47.56Z"/><path class="cls-1" d="M258.5,116h0c-2.43,0-4.55,1.28-6.34,3.79a23.45,23.45,0,0,0-2.85,5.85,58.71,58.71,0,0,0-2.6,18.41,67.88,67.88,0,0,0,2.72,18c.27,1,.54,1.85.79,2.63,1.79,5.51,3.21,6.76,4.12,6.76h0c2.51,0,4.69-2.39,6.51-7.08a.5.5,0,0,0,0-.13c.06-.13.11-.28.16-.42.37-1,.72-2.08,1.05-3.26.07-.26.13-.54.2-.8a88.42,88.42,0,0,0,2.39-21.92,64.7,64.7,0,0,0-1.56-15.41C262,118.16,260.43,116,258.5,116Z"/><path class="cls-1" d="M376,6H31.71A27.9,27.9,0,0,0,4,34.07V187.62a27.9,27.9,0,0,0,27.68,28H376a27.9,27.9,0,0,0,27.68-28V34.07A27.9,27.9,0,0,0,376,6ZM360.2,51.39a16.53,16.53,0,0,1,2.42-1.74,3.83,3.83,0,0,1,1.64-.33h.38v.14l0-.13c.09,0,.87.07,5.05.33,3.12.19,3.76.55,4,.91.29.55-.37,1.08-1.12,1.57-1,.62-1.15.94-1.18,1a2.05,2.05,0,0,1,0,.78l0,.08a1.89,1.89,0,0,1-1.62,1.18,3.9,3.9,0,0,1-.64,0,36.64,36.64,0,0,1-5-.57c-3.95-.62-4.77-.93-5-1.13a.48.48,0,0,1-.23-.4C358.78,52.82,359,52.39,360.2,51.39Zm0,13.09a16.47,16.47,0,0,1,2.42-1.75,3.85,3.85,0,0,1,1.64-.32h.38v.15l0-.14c.09,0,.88.08,5.05.34,3.12.18,3.76.54,4,.9.29.56-.37,1.09-1.12,1.58-1,.62-1.15.93-1.18,1a1.8,1.8,0,0,1,0,.76,1.9,1.9,0,0,1-1.64,1.25,5.31,5.31,0,0,1-.64,0,37,37,0,0,1-5-.57c-3.95-.63-4.76-.91-5-1.09a.52.52,0,0,1-.24-.41C358.78,65.9,359,65.47,360.2,64.48ZM325.61,52.7c3.13-2,7.16-3.06,12-3.1a47.13,47.13,0,0,1,6.37.46,39.12,39.12,0,0,1,7.57,1.64,3.2,3.2,0,0,1,1.63,1.71,5.41,5.41,0,0,1,.88,2.84,3,3,0,0,1-2.07,3l-.1,0c-5.67.61-11.52,1-17.4,1a4.07,4.07,0,0,0,1,2.36,3,3,0,0,0,2.17,1.42,10.28,10.28,0,0,0,3.91-.91A7.34,7.34,0,0,0,344,61.9a10.28,10.28,0,0,1,1.63-1.79l.09-.09h.13a39.25,39.25,0,0,1,5.37.45c3.61.47,4.45.77,4.76,1a.57.57,0,0,1,.3.5c0,.38-.29.94-3.6,2.66A32.41,32.41,0,0,1,344,67.67a10.37,10.37,0,0,1-1.58.09,70.09,70.09,0,0,1-8.64-.69,30.72,30.72,0,0,1-7.51-1.5c-3.39-1.48-5.1-3.58-5.1-6.25C321.15,56.81,322.65,54.58,325.61,52.7Zm-73.49-7.16a6.14,6.14,0,0,1,3.22-1.14,42.53,42.53,0,0,1,6.81.5c4.38.56,5.41,1,5.81,1.3a.59.59,0,0,1,.23.52,3.32,3.32,0,0,1-.84,1.84,3,3,0,0,1-1.83,1.33l-.39,0c-.7,0-2.4-.11-6.94-.63-6.29-.71-6.8-1-7-1.09a.82.82,0,0,1-.42-.73C250.79,46.82,251.23,46.19,252.12,45.54Zm-.47,19.33a1.3,1.3,0,0,0,.58-1.25V51.81c-.89-1-1-1.35-1-1.59,0-.51.51-.73,3.48-.73a65.45,65.45,0,0,1,7.07.53,28.88,28.88,0,0,1,5.54.95.67.67,0,0,1,.46.61c0,.27-.18.55-1.13,1.16-.73.47-.81.66-.81.67V64.76a2.16,2.16,0,0,0,.75.43c.92.41,1.15.61,1.24.82a1,1,0,0,1-.08.88c-.3.48-1,.76-2.32.9-.3,0-.7,0-1.21,0-2,0-4.56-.15-7.53-.43-4.35-.41-5.4-.78-5.79-1a.52.52,0,0,1-.29-.46C250.6,65.58,250.89,65.29,251.65,64.87Zm-23.14-20a.84.84,0,0,1-.47-.66v-.09c.16-.66,1.19-1,3.44-1.18.58,0,1.75,0,3.57,0,2.08,0,3.9.16,5.42.31,3.15.31,3.78.74,3.78,1.33,0,.24-.16.49-.5.8l-.45.41a6.25,6.25,0,0,0-.91,1.59V64.78c0,.06.09.17.32.3s.69.42.69.76c0,1-.4,2.18-2.35,2.32h-.24c-.73,0-2.43-.13-5.17-.4a49.22,49.22,0,0,1-5.58-.71h0c-1.5-.43-2.11-.82-2.11-1.34,0-.35.39-.51.55-.58s.12-.1.12-.16V45ZM134.34,62c1.11-1.74,4.43-3.35,10.13-4.88,4-1.06,9.64-2.21,16.86-3.39-.1-.19-.35-.4-1-.52-.36-.08-1.65,0-5.78.64-3.34.53-5.71,1-7,1.37-.44.15-1.18.36-2.2.63a9.37,9.37,0,0,1-2.73.18,25.59,25.59,0,0,1-4-1c-2.9-.9-3.3-1.18-3.46-1.37a.8.8,0,0,1-.21-.8c.15-.44.72-.74,1.85-1,0,0,.08,0,3.41-.35l6.2-1.13a82.33,82.33,0,0,1,11.18-1.15,15.6,15.6,0,0,1,4.49.7c1.46.44,2.93.87,4.42,1.29s3,.84,4.58,1.24c2.08.61,3,1.18,3,1.88V64.93c.63.59.84.95.74,1.27-.11.51-.77.77-1.25.92a6.56,6.56,0,0,1-2.23.24c-9.46-.44-11.27-1-11.81-1.4a.62.62,0,0,1-.32-.52c0-.38.41-.56.59-.64a1.3,1.3,0,0,0,.32-.18.93.93,0,0,1,.36-.3,1.34,1.34,0,0,0,0-.26,19,19,0,0,0-2.54,1.21A18.4,18.4,0,0,1,154.1,67a21,21,0,0,1-6.25.86,15,15,0,0,1-4.06-.55c-.63-.17-1.71-.54-3.31-1.12-2.78-1-4.17-1.59-4.4-1.68h0c-1.36-.61-2-1.2-2-1.84A1.1,1.1,0,0,1,134.34,62ZM49.77,44.89c.23-.65,1.13-1,2.84-1.12.07,0,.27,0,4.26.2a41.82,41.82,0,0,0,4.94-.59,51.49,51.49,0,0,1,7.34-.63,37.46,37.46,0,0,1,7.14.66c1.31.27,3.27.79,5.85,1.54,3.86,1.13,6.31,2.3,7.49,3.57a6.18,6.18,0,0,1,1.19,4.17c0,2.21-1.67,4.51-5.12,7a50.15,50.15,0,0,1-10,5.55,37.58,37.58,0,0,1-7.92,2.62,23.21,23.21,0,0,1-2.92.17,51.92,51.92,0,0,1-8.48-.8A35.23,35.23,0,0,1,50,65.83l-.24-.08ZM94,166.67C89,179.49,81.5,186,71.79,186h0a24.56,24.56,0,0,1-5.65-.81c-3.55-1-5.51-1.47-5.84-1.53-2.29-.66-6-1.63-11.36-3-4.35-1-8-5.46-10.73-13.14a72.85,72.85,0,0,1-3.92-24.47c0-9.07,1.29-16.92,3.9-23.33,2.9-7.26,7.2-11.67,12.81-13.11a6.21,6.21,0,0,1,1.1-.11,5.88,5.88,0,0,1,2.31.57,2.72,2.72,0,0,0,1.67.35,31.61,31.61,0,0,1,7.74-1,53.82,53.82,0,0,1,11,1.34c6.43,1.33,9.92,2,10.68,2.15h0c4.27.67,7.71,3.93,10.23,9.66,2.24,5.32,3.38,12,3.4,19.85A74,74,0,0,1,94,166.67Zm20.77-98.91a70.38,70.38,0,0,1-8.64-.69,30.72,30.72,0,0,1-7.51-1.5c-3.38-1.48-5.1-3.58-5.1-6.25,0-2.51,1.5-4.74,4.47-6.62,3.13-2,7.16-3.06,12-3.1a47.13,47.13,0,0,1,6.37.46,39,39,0,0,1,7.56,1.64,3.2,3.2,0,0,1,1.63,1.71,5.34,5.34,0,0,1,.89,2.84,3,3,0,0,1-2.08,3l-.09,0c-5.67.61-11.52,1-17.4,1a3.94,3.94,0,0,0,1,2.36,3,3,0,0,0,2.17,1.42,10.28,10.28,0,0,0,3.9-.91,7.22,7.22,0,0,0,2.48-1.3A10.69,10.69,0,0,1,118,60.11l.1-.09h.12a39.13,39.13,0,0,1,5.37.45c3.6.47,4.45.77,4.77,1a.57.57,0,0,1,.3.5c0,.38-.29.94-3.6,2.66a32.41,32.41,0,0,1-8.69,3.08A10.52,10.52,0,0,1,114.73,67.76Zm62,98.65c-5,12.81-12.47,19.33-22.17,19.36h-.05a24.41,24.41,0,0,1-5.64-.81c-3.56-1-5.52-1.47-5.84-1.53-2.29-.66-6-1.63-11.37-3-4.35-1-8-5.47-10.73-13.15A72.76,72.76,0,0,1,117,142.83c0-9.07,1.29-16.91,3.91-23.32,2.89-7.26,7.2-11.67,12.8-13.11a5.42,5.42,0,0,1,1.11-.11,6,6,0,0,1,2.3.57,2.7,2.7,0,0,0,1.68.34,32.53,32.53,0,0,1,7.73-1,55.26,55.26,0,0,1,11,1.34c6.33,1.31,9.92,2,10.68,2.16h0c4.27.67,7.71,3.92,10.24,9.66,2.23,5.31,3.37,12,3.4,19.84A74.23,74.23,0,0,1,176.73,166.41ZM211.18,141c-.37,1.94-1.13,3.08-2.28,3.43a3.58,3.58,0,0,1-1,.12,28,28,0,0,1-7.61-1.79h0c-6.05-2-7.23-3-7.59-3.54s-.47-1.52,1.76-5.49A37.22,37.22,0,0,1,198,128.2a3.61,3.61,0,0,1,2.67-1h.39v.21l.07-.17c.15,0,1.35.24,7.62,1,3.58.43,5.52,1.29,5.91,2.6.21.81-.3,2-1.57,3.79s-2,3.16-2,4.17A9.23,9.23,0,0,1,211.18,141Zm2.08,35.58c-1.3,1.76-2,3.16-2,4.17a8.55,8.55,0,0,1,0,2.13q-.56,2.9-2.28,3.42a3.52,3.52,0,0,1-1,.13c-1.53,0-4-.6-7.62-1.79-6-2-7.22-2.93-7.58-3.44s-.48-1.53,1.75-5.5a36.69,36.69,0,0,1,3.59-5.54,3.54,3.54,0,0,1,2.67-1h.39v.2l.07-.17c.15,0,1.34.25,7.62,1,3.58.44,5.52,1.29,5.91,2.61C215,173.61,214.54,174.81,213.26,176.59Zm6.37-110.3c.79.46,1.1.79,1.09,1.14a.54.54,0,0,1-.34.49,5.34,5.34,0,0,1-2.34.27c-1.3,0-3.3-.09-5.93-.26-3.86-.27-4.6-.31-4.69-.31a3.66,3.66,0,0,1-2.43-.78c-.17-.11-.2-.38-.2-.63a8.25,8.25,0,0,1,.55-2.55c-1,.7-2,1.41-3,2.1a9.11,9.11,0,0,1-5.19,1.6c-11.4-.78-16.94-3.15-16.94-7.24,0-2.3,1.85-4.65,5.48-7a30,30,0,0,1,11.42-4.32,9.84,9.84,0,0,1,1.66-.15,25.79,25.79,0,0,1,7,1.63V45.39a4.24,4.24,0,0,0-.64-.63c-.56-.48-.8-.83-.8-1.14,0-.84,1.37-1,2.72-1s3.46.14,6.1.4l5,.54c1.57.15,2.44.49,2.73,1.08s-.21,1-.7,1.52h0c-.48.49-.64.7-.7.77V65.44C219.4,65.9,219.49,66.21,219.63,66.29Zm63.42,99.78c-5,12.82-12.47,19.33-22.17,19.36h0a24.49,24.49,0,0,1-5.65-.81c-4.42-1.19-5.62-1.49-5.84-1.53-2.3-.66-6-1.63-11.37-3-4.35-1-8-5.47-10.73-13.15a72.76,72.76,0,0,1-3.92-24.47c0-9.06,1.29-16.91,3.91-23.32,2.89-7.26,7.2-11.67,12.8-13.11a5.13,5.13,0,0,1,3.41.46,2.7,2.7,0,0,0,1.68.34,32.53,32.53,0,0,1,7.73-1,55.26,55.26,0,0,1,11,1.34c6.34,1.32,9.93,2,10.68,2.16h0c4.27.67,7.71,3.92,10.24,9.66,2.23,5.31,3.37,12,3.4,19.84A74.23,74.23,0,0,1,283.05,166.07ZM295,55.54c-4.1,2.38-4.71,3.52-4.71,4v5.07c.43.16,1.1.51,1.1,1.16,0,.94-1,1.54-3.18,1.84a6.69,6.69,0,0,1-1.05.06c-1.52,0-3.77-.12-6.69-.36-3.94-.32-4.74-.5-5-.61q-.72-.33-.72-.84c0-.38.35-.67,1.19-1a6.5,6.5,0,0,0,.75-.34v-13a2,2,0,0,0-.49-.34c-.42-.23-.63-.45-.67-.71a.55.55,0,0,1,.17-.48c.39-.47,1.3-.75,2.83-.88a52.61,52.61,0,0,1,6.38.32c4.86.41,5.82.75,6.11,1a.68.68,0,0,1,.23.51,1.37,1.37,0,0,1-.47.94,9.21,9.21,0,0,0-.82,1,.14.14,0,0,0,0,.06,12.08,12.08,0,0,1,3.34-2.29A13.2,13.2,0,0,1,299,49.2a53.46,53.46,0,0,1,7.46.68c4.16.61,5.07,1,5.39,1.28,1.67,1.29,2.49,5.73,2.5,13.57A1.69,1.69,0,0,1,315,66c0,1.16-1.68,1.43-2.23,1.52a17.54,17.54,0,0,1-2.17.09c-1.91,0-4.21-.1-6.85-.3a28.67,28.67,0,0,1-4.89-.6c-.17-.07-.66-.27-.66-.71s.24-.66,1.45-1.33c.95-.52,1.08-.73,1.09-.75.12-8.51-.16-10.46-.32-10.88-.51,0-1.86.41-5.48,2.52Zm64.8,120.77c-12.16,6.91-24,10.43-35.1,10.47h0c-4.2,0-9.61-2-16.07-5.84-7-4.29-10.52-8.4-10.53-12.23,0-8.47,5.65-15.93,16.87-22.18C305.68,144.25,301,140.35,301,135s5-11.88,15-19.68c10.26-8,19.44-12,27.3-12,5.72,0,10.2.91,13.3,2.75,2.57,2.24,5.14,4.48,7.71,6.67,5.59,4.65,8.43,8.91,8.44,12.65a8.32,8.32,0,0,1-.78,3.54c-1.73,4-5.41,7.43-10.94,10.27,11.38,5.44,17.15,11.13,17.17,16.92C378.18,162.55,372,169.36,359.77,176.31Z"/><path class="cls-1" d="M342.88,130.69c3.71-2.72,6.1-5.54,7.13-8.43a9.05,9.05,0,0,0,.31-1.1,8.69,8.69,0,0,0,.26-1.81,48,48,0,0,0-16.93,6.49,30.67,30.67,0,0,0-8.47,7.83,24.69,24.69,0,0,0-1.87,3.05,36.33,36.33,0,0,0,5.37-.36A31.42,31.42,0,0,0,342.88,130.69Z"/><path class="cls-1" d="M321.26,171.41c.61,0,1.23.06,1.84.06,6.85,0,14.23-2.64,21.93-7.77h0a43.44,43.44,0,0,0,8-6.53,17.66,17.66,0,0,0,1.54-1.95c.22-.34.43-.68.6-1a6.8,6.8,0,0,0,.83-2.66c-8.41.07-15.59,1.61-21.36,4.59C327.58,159.8,323.07,164.93,321.26,171.41Z"/><path d="M376,5.85H31.71A28.07,28.07,0,0,0,3.86,34.07V187.62a28.07,28.07,0,0,0,27.85,28.23H376a28.08,28.08,0,0,0,27.86-28.23V34.07A28.08,28.08,0,0,0,376,5.85Zm27.68,181.77a27.9,27.9,0,0,1-27.68,28H31.71A27.9,27.9,0,0,1,4,187.62V34.07A27.9,27.9,0,0,1,31.71,6H376a27.9,27.9,0,0,1,27.68,28Z"/><path class="cls-2" d="M93.3,166.41a73.43,73.43,0,0,0,5.11-26.89c0-7.76-1.14-14.34-3.34-19.56-2.41-5.49-5.67-8.61-9.69-9.24-.77-.12-4.27-.83-10.72-2.16a53,53,0,0,0-10.88-1.32,30.91,30.91,0,0,0-7.55.92,3.37,3.37,0,0,1-2.14-.38,5.32,5.32,0,0,0-2-.51h0a5.2,5.2,0,0,0-1,.09c-5.35,1.38-9.5,5.65-12.3,12.69-2.58,6.32-3.88,14.07-3.85,23a72.17,72.17,0,0,0,3.87,24.22C41.52,174.76,45,179,49.06,180c5.39,1.35,9.1,2.32,11.36,3,.18,0,1,.23,5.86,1.53a23.83,23.83,0,0,0,5.51.8C81.18,185.29,88.41,178.92,93.3,166.41Zm-19.59-5.1h0c-1.9,6.71-4.25,10.41-7.17,11.24a4.94,4.94,0,0,1-1.28.17h0a2.19,2.19,0,0,1-.36,0c-1.3-.27-2.55-2-3.82-5.48-.47-1.24-.93-2.71-1.41-4.4a68.87,68.87,0,0,1-2.74-18.15A59.61,59.61,0,0,1,59.55,126c2.32-6.7,5.64-10.11,9.86-10.12h0c2.29,0,4.08,2.32,5.32,6.9a65.78,65.78,0,0,1,1.59,15.6A88.57,88.57,0,0,1,73.71,161.31Z"/><path d="M85.49,110h0c-.76-.12-4.25-.82-10.68-2.15a53.82,53.82,0,0,0-11-1.34,31.61,31.61,0,0,0-7.74,1,2.72,2.72,0,0,1-1.67-.35,5.88,5.88,0,0,0-2.31-.57,6.21,6.21,0,0,0-1.1.11c-5.61,1.44-9.91,5.85-12.81,13.11-2.61,6.41-3.93,14.26-3.9,23.33a72.85,72.85,0,0,0,3.92,24.47c2.77,7.68,6.38,12.1,10.73,13.14,5.37,1.35,9.07,2.32,11.36,3,.33.06,2.29.57,5.84,1.53a24.56,24.56,0,0,0,5.65.81h0C81.5,186,89,179.49,94,166.67a74,74,0,0,0,5.16-27.15c0-7.86-1.16-14.53-3.4-19.85C93.2,113.94,89.76,110.68,85.49,110ZM66.28,184.52c-4.82-1.3-5.68-1.5-5.86-1.53-2.26-.65-6-1.62-11.36-3-4.1-1-7.54-5.26-10.23-12.7A72.17,72.17,0,0,1,35,143.1c0-9,1.27-16.73,3.85-23,2.8-7,6.95-11.31,12.3-12.69a5.2,5.2,0,0,1,1-.09h0a5.32,5.32,0,0,1,2,.51,3.37,3.37,0,0,0,2.14.38,30.91,30.91,0,0,1,7.55-.92,53,53,0,0,1,10.88,1.32c6.45,1.33,10,2,10.72,2.16,4,.63,7.28,3.75,9.69,9.24,2.2,5.22,3.32,11.8,3.34,19.56a73.43,73.43,0,0,1-5.11,26.89c-4.89,12.51-12.12,18.88-21.51,18.91A23.83,23.83,0,0,1,66.28,184.52Z"/><path d="M69.42,115.9h0c-4.22,0-7.54,3.42-9.86,10.12a59.61,59.61,0,0,0-2.63,18.65,68.87,68.87,0,0,0,2.74,18.15c.48,1.69.94,3.16,1.41,4.4,1.27,3.43,2.52,5.21,3.82,5.48a2.19,2.19,0,0,0,.36,0h0a4.94,4.94,0,0,0,1.28-.17c2.92-.83,5.27-4.53,7.17-11.24h0a88.57,88.57,0,0,0,2.62-22.91,65.78,65.78,0,0,0-1.59-15.6C73.5,118.22,71.71,115.9,69.42,115.9ZM75.53,143c0,.55,0,1.1-.06,1.64,0,.23,0,.45,0,.68-.05.78-.1,1.55-.16,2.31A76.25,76.25,0,0,1,73,161.12c-.21.74-.43,1.44-.65,2.11,0,.14-.09.29-.14.43l-.14.38c-.09.26-.18.52-.28.77v0c-1.83,4.76-4,7.17-6.56,7.18h0c-.91,0-2.32-1.25-4.11-6.76-.26-.79-.52-1.67-.79-2.64a67.87,67.87,0,0,1-2.72-18,58.33,58.33,0,0,1,2.6-18.41,23,23,0,0,1,2.85-5.86c1.78-2.51,3.9-3.78,6.33-3.79h0c1.93,0,3.49,2.15,4.63,6.38a64.64,64.64,0,0,1,1.57,15.41C75.62,140,75.59,141.5,75.53,143Z"/><path class="cls-2" d="M176.07,166.14a73.39,73.39,0,0,0,5.11-26.89c0-7.76-1.15-14.34-3.34-19.55-2.42-5.5-5.68-8.61-9.69-9.24-.78-.12-4.38-.85-10.72-2.16A54.5,54.5,0,0,0,146.54,107a31.54,31.54,0,0,0-7.55.93,3.41,3.41,0,0,1-2.13-.38,5.41,5.41,0,0,0-2-.51h0a5.2,5.2,0,0,0-1,.09c-5.35,1.37-9.49,5.64-12.3,12.68-2.58,6.32-3.87,14.08-3.85,23.05a72.18,72.18,0,0,0,3.88,24.23c2.68,7.43,6.12,11.71,10.23,12.69,5.38,1.35,9.1,2.33,11.36,3,.31.05,2.23.55,5.85,1.53a23.15,23.15,0,0,0,5.51.79C163.94,185,171.18,178.66,176.07,166.14Zm-19.59-5.09h0c-1.77,6.24-3.92,9.87-6.56,11a4.63,4.63,0,0,1-1.9.4h0a1.47,1.47,0,0,1-.36,0c-1.67-.34-3.23-3.12-4.88-8.65-.12-.39-.23-.8-.35-1.22a68.57,68.57,0,0,1-2.75-18.16,59.25,59.25,0,0,1,2.64-18.64c2.32-6.71,5.63-10.11,9.85-10.13h0c2.29,0,4.08,2.33,5.32,6.91a65.2,65.2,0,0,1,1.59,15.6A88.21,88.21,0,0,1,156.48,161.05Z"/><path d="M168.25,109.75h0c-.76-.12-4.35-.85-10.68-2.16a55.26,55.26,0,0,0-11-1.34,32.53,32.53,0,0,0-7.73,1,2.7,2.7,0,0,1-1.68-.34,6,6,0,0,0-2.3-.57,5.42,5.42,0,0,0-1.11.11c-5.6,1.44-9.91,5.85-12.8,13.11-2.62,6.41-3.93,14.25-3.91,23.32a72.76,72.76,0,0,0,3.92,24.47c2.77,7.68,6.38,12.11,10.73,13.15,5.37,1.35,9.08,2.32,11.37,3,.32.06,2.28.57,5.84,1.53a24.41,24.41,0,0,0,5.64.81h.05c9.7,0,17.16-6.55,22.17-19.36a74.23,74.23,0,0,0,5.16-27.16c0-7.85-1.17-14.53-3.4-19.84C176,113.67,172.52,110.42,168.25,109.75ZM149,184.26c-3.62-1-5.54-1.48-5.85-1.53-2.26-.65-6-1.63-11.36-3-4.11-1-7.55-5.26-10.23-12.69a72.18,72.18,0,0,1-3.88-24.23c0-9,1.27-16.73,3.85-23.05,2.81-7,7-11.31,12.3-12.68a5.2,5.2,0,0,1,1-.09h0a5.41,5.41,0,0,1,2,.51,3.41,3.41,0,0,0,2.13.38,31.54,31.54,0,0,1,7.55-.93,54.5,54.5,0,0,1,10.89,1.33c6.34,1.31,9.94,2,10.72,2.16,4,.63,7.27,3.74,9.69,9.24,2.19,5.21,3.31,11.79,3.34,19.55a73.39,73.39,0,0,1-5.11,26.89c-4.89,12.52-12.13,18.88-21.52,18.91A23.15,23.15,0,0,1,149,184.26Z"/><path d="M152.18,115.63h0c-4.22,0-7.53,3.42-9.85,10.13a59.25,59.25,0,0,0-2.64,18.64,68.57,68.57,0,0,0,2.75,18.16c.12.42.23.83.35,1.22,1.65,5.53,3.21,8.31,4.88,8.65a1.47,1.47,0,0,0,.36,0h0a4.63,4.63,0,0,0,1.9-.4c2.64-1.15,4.79-4.78,6.56-11h0a88.21,88.21,0,0,0,2.61-22.91,65.2,65.2,0,0,0-1.59-15.6C156.26,118,154.47,115.63,152.18,115.63Zm3.61,45.23c-.38,1.35-.78,2.58-1.2,3.68h0c-.22.59-.46,1.14-.69,1.66l-.18.38-.09.18a14.42,14.42,0,0,1-1.8,2.89l0,0a6.29,6.29,0,0,1-2.07,1.68l-.08,0a3.43,3.43,0,0,1-.48.19l-.09,0a3.75,3.75,0,0,1-1,.15h0c-.85,0-2.13-1.07-3.74-5.64-.37-1.06-.76-2.29-1.17-3.75a67.88,67.88,0,0,1-2.72-18A58.67,58.67,0,0,1,143,126c.14-.4.28-.78.42-1.16,2-5.24,4.73-8.08,8.05-8.44a5.58,5.58,0,0,1,.72,0h0c1.93,0,3.49,2.15,4.64,6.38a64.64,64.64,0,0,1,1.56,15.41A87.18,87.18,0,0,1,155.79,160.86Z"/><path class="cls-2" d="M214.15,173c-.21-.67-1.29-1.59-5.31-2.08h0c-5-.64-6.89-.88-7.6-1.07a3.2,3.2,0,0,0-2.52.79,36.6,36.6,0,0,0-3.51,5.43c-2.18,3.89-1.88,4.61-1.8,4.72.33.47,1.84,1.38,7.23,3.18s7.43,1.9,8.19,1.66,1.48-1.21,1.79-2.83a8.37,8.37,0,0,0,0-2c0-1.24.67-2.75,2.09-4.66S214.23,173.31,214.15,173Z"/><path d="M208.92,170.19c-6.28-.79-7.47-1-7.62-1l-.07.17v-.2h-.39a3.54,3.54,0,0,0-2.67,1,36.69,36.69,0,0,0-3.59,5.54c-2.23,4-2.13,5-1.75,5.5s1.54,1.42,7.58,3.44c3.58,1.19,6.09,1.79,7.62,1.79a3.52,3.52,0,0,0,1-.13q1.72-.52,2.28-3.42a8.55,8.55,0,0,0,0-2.13c0-1,.66-2.41,2-4.17s1.78-3,1.57-3.79C214.44,171.48,212.5,170.63,208.92,170.19Zm1.68,10.63a8.37,8.37,0,0,1,0,2c-.31,1.62-.91,2.57-1.79,2.83s-2.8.15-8.19-1.66-6.9-2.71-7.23-3.18c-.08-.11-.38-.83,1.8-4.72a36.6,36.6,0,0,1,3.51-5.43,3.2,3.2,0,0,1,2.52-.79c.71.19,2.6.43,7.6,1.07h0c4,.49,5.1,1.41,5.31,2.08.08.32,0,1.14-1.46,3.17S210.59,179.58,210.6,180.82Z"/><path class="cls-2" d="M214,131c-.2-.68-1.28-1.6-5.3-2.09-5-.64-6.9-.88-7.61-1.07a3.2,3.2,0,0,0-2.52.8,35.88,35.88,0,0,0-3.51,5.42c-2.18,3.9-1.88,4.62-1.8,4.72.34.52,1.85,1.48,7.23,3.28h0c5.38,1.8,7.43,1.9,8.19,1.66s1.48-1.22,1.79-2.83a9.08,9.08,0,0,0,0-2.06c0-1.25.67-2.76,2.09-4.67S214.1,131.34,214,131Z"/><path d="M214.7,130.83c-.39-1.31-2.33-2.17-5.91-2.6-6.27-.8-7.47-1-7.62-1l-.07.17v-.21h-.39a3.61,3.61,0,0,0-2.67,1,37.22,37.22,0,0,0-3.59,5.54c-2.23,4-2.13,5-1.76,5.49s1.54,1.52,7.59,3.54h0a28,28,0,0,0,7.61,1.79,3.58,3.58,0,0,0,1-.12c1.15-.35,1.91-1.49,2.28-3.43a9.23,9.23,0,0,0,0-2.22c0-1,.66-2.41,2-4.17S214.91,131.64,214.7,130.83Zm-4.23,8a9.08,9.08,0,0,1,0,2.06c-.31,1.61-.91,2.56-1.79,2.83s-2.81.14-8.19-1.66h0c-5.38-1.8-6.89-2.76-7.23-3.28-.08-.1-.38-.82,1.8-4.72a35.88,35.88,0,0,1,3.51-5.42,3.2,3.2,0,0,1,2.52-.8c.71.19,2.6.43,7.61,1.07,4,.49,5.1,1.41,5.3,2.09.09.31,0,1.14-1.45,3.16S210.46,137.61,210.47,138.86Z"/><path class="cls-2" d="M282.39,165.8a73.35,73.35,0,0,0,5.11-26.89c0-7.75-1.15-14.33-3.34-19.55-2.42-5.5-5.68-8.61-9.69-9.24-.78-.12-4.28-.83-10.72-2.16a54.5,54.5,0,0,0-10.89-1.33,31.54,31.54,0,0,0-7.55.93,3.41,3.41,0,0,1-2.13-.38,5.41,5.41,0,0,0-2-.51h0a5.28,5.28,0,0,0-1,.09c-5.35,1.37-9.49,5.64-12.3,12.68-2.58,6.32-3.87,14.08-3.85,23.05a72.18,72.18,0,0,0,3.88,24.23c2.68,7.44,6.12,11.71,10.23,12.69,5.37,1.35,9.08,2.32,11.35,3,.32.05,2.25.56,5.86,1.53a24.37,24.37,0,0,0,5.51.79C270.26,184.68,277.5,178.32,282.39,165.8Zm-19.59-5.09h0c-1.77,6.23-3.92,9.86-6.56,11a4.63,4.63,0,0,1-1.9.4h0a2.19,2.19,0,0,1-.36,0c-1.31-.28-2.56-2-3.83-5.48-.46-1.25-.93-2.71-1.4-4.4A68.51,68.51,0,0,1,246,144.06a59.25,59.25,0,0,1,2.64-18.64c2.32-6.71,5.63-10.11,9.85-10.13h0c2.29,0,4.08,2.33,5.32,6.91a65.2,65.2,0,0,1,1.59,15.6A88.16,88.16,0,0,1,262.8,160.71Z"/><path d="M274.57,109.41h0c-.75-.12-4.34-.84-10.68-2.16a55.26,55.26,0,0,0-11-1.34,32.53,32.53,0,0,0-7.73,1,2.7,2.7,0,0,1-1.68-.34,5.13,5.13,0,0,0-3.41-.46c-5.6,1.44-9.91,5.85-12.8,13.11-2.62,6.41-3.93,14.26-3.91,23.32A72.76,72.76,0,0,0,227.25,167c2.77,7.68,6.38,12.11,10.73,13.15,5.36,1.35,9.07,2.32,11.37,3,.22,0,1.42.34,5.84,1.53a24.49,24.49,0,0,0,5.65.81h0c9.7,0,17.16-6.54,22.17-19.36a74.23,74.23,0,0,0,5.16-27.16c0-7.85-1.17-14.53-3.4-19.84C282.28,113.33,278.84,110.08,274.57,109.41Zm-19.21,74.51c-3.61-1-5.54-1.48-5.86-1.53-2.27-.66-6-1.63-11.35-3-4.11-1-7.55-5.25-10.23-12.69A72.18,72.18,0,0,1,224,142.49c0-9,1.27-16.73,3.85-23.05,2.81-7,7-11.31,12.3-12.68a5.28,5.28,0,0,1,1-.09h0a5.41,5.41,0,0,1,2,.51,3.41,3.41,0,0,0,2.13.38,31.54,31.54,0,0,1,7.55-.93A54.5,54.5,0,0,1,263.75,108c6.44,1.33,9.94,2,10.72,2.16,4,.63,7.27,3.74,9.69,9.24,2.19,5.22,3.31,11.8,3.34,19.55a73.35,73.35,0,0,1-5.11,26.89c-4.89,12.52-12.13,18.88-21.52,18.91A24.37,24.37,0,0,1,255.36,183.92Z"/><path d="M258.5,115.29h0c-4.22,0-7.53,3.42-9.85,10.13A59.25,59.25,0,0,0,246,144.06a68.51,68.51,0,0,0,2.75,18.16c.47,1.69.94,3.15,1.4,4.4,1.27,3.43,2.52,5.2,3.83,5.48a2.19,2.19,0,0,0,.36,0h0a4.63,4.63,0,0,0,1.9-.4c2.64-1.15,4.79-4.78,6.56-11h0a88.16,88.16,0,0,0,2.61-22.91,65.2,65.2,0,0,0-1.59-15.6C262.58,117.62,260.79,115.29,258.5,115.29Zm3.81,44.43c-.07.26-.13.54-.2.8-.33,1.18-.68,2.27-1.05,3.26-.05.14-.1.29-.16.42a.5.5,0,0,1,0,.13c-1.82,4.69-4,7.08-6.51,7.08h0c-.91,0-2.33-1.25-4.12-6.76-.25-.78-.52-1.66-.79-2.63a67.88,67.88,0,0,1-2.72-18,58.71,58.71,0,0,1,2.6-18.41,23.45,23.45,0,0,1,2.85-5.85c1.79-2.51,3.91-3.78,6.34-3.79h0c1.93,0,3.49,2.15,4.64,6.38a64.7,64.7,0,0,1,1.56,15.41A88.42,88.42,0,0,1,262.31,159.72Z"/><path class="cls-2" d="M377.45,156.05c0-5.59-5.88-11.18-17.42-16.58l-.68-.32.67-.33c5.75-2.83,9.53-6.28,11.26-10.26a7.59,7.59,0,0,0,.72-3.23c0-3.52-2.76-7.6-8.18-12.11-2.57-2.2-5.15-4.43-7.67-6.64-2.91-1.72-7.21-2.61-12.72-2.61h-.17c-7.69,0-16.73,4-26.87,11.87-9.77,7.65-14.71,14.08-14.7,19.11,0,5.2,4.82,8.93,14.28,11.1l.93.21-.84.45c-11.52,6.21-17.35,13.61-17.32,22,0,3.56,3.44,7.47,10.18,11.61,6.35,3.81,11.64,5.74,15.71,5.74h0c11,0,22.7-3.53,34.75-10.37S377.47,162.27,377.45,156.05Zm-55-19.14a29.21,29.21,0,0,1,10.85-11.67h0a44.77,44.77,0,0,1,10.4-4.86,56.28,56.28,0,0,1,7.21-1.82l.42-.08v.43a11.41,11.41,0,0,1-2,6.33,23.7,23.7,0,0,1-6,6,32.71,32.71,0,0,1-18.36,6.14q-.69,0-1.38,0h-1.39Zm23,27.39h0a46,46,0,0,1-17,7.38,30.71,30.71,0,0,1-5.34.51H323c-.76,0-1.51,0-2.24-.09l-.42,0,.1-.42c1.78-6.89,6.45-12.32,13.89-16.15,5.95-3.07,13.37-4.64,22-4.67h.36v.36C356.76,154.94,353.06,159.23,345.42,164.3Z"/><path d="M361,139.13c5.53-2.84,9.21-6.3,10.94-10.27a8.32,8.32,0,0,0,.78-3.54c0-3.74-2.85-8-8.44-12.65-2.57-2.19-5.14-4.43-7.71-6.67-3.1-1.84-7.58-2.77-13.3-2.75-7.86,0-17,4.07-27.3,12-10,7.8-15,14.42-15,19.68s4.7,9.3,13.92,11.58C303.68,152.78,298,160.24,298,168.71c0,3.83,3.55,7.94,10.53,12.23,6.46,3.88,11.87,5.84,16.07,5.84h0c11.13,0,22.94-3.56,35.1-10.47s18.41-13.76,18.39-20.26C378.14,150.26,372.37,144.57,361,139.13Zm-36.36,46.93c-4.07,0-9.36-1.93-15.71-5.74-6.74-4.14-10.17-8-10.18-11.61,0-8.39,5.8-15.79,17.32-22l.84-.45-.93-.21c-9.46-2.17-14.26-5.9-14.28-11.1,0-5,4.93-11.46,14.7-19.11C326.53,108,335.57,104,343.26,104h.17c5.51,0,9.81.89,12.72,2.61,2.52,2.21,5.1,4.44,7.67,6.64,5.42,4.51,8.17,8.59,8.18,12.11a7.59,7.59,0,0,1-.72,3.23c-1.73,4-5.51,7.43-11.26,10.26l-.67.33.68.32c11.54,5.4,17.4,11,17.42,16.58,0,6.22-6.05,12.82-18,19.64S335.68,186,324.67,186.06Z"/><path d="M323.56,137.44q.69,0,1.38,0a32.71,32.71,0,0,0,18.36-6.14,23.7,23.7,0,0,0,6-6,11.41,11.41,0,0,0,2-6.33v-.43l-.42.08a56.28,56.28,0,0,0-7.21,1.82,44.77,44.77,0,0,0-10.4,4.86h0a29.21,29.21,0,0,0-10.85,11.67l-.25.51h1.39Zm1.62-3.77a30.67,30.67,0,0,1,8.47-7.83,48,48,0,0,1,16.93-6.49,8.69,8.69,0,0,1-.26,1.81,9.05,9.05,0,0,1-.31,1.1c-1,2.89-3.42,5.71-7.13,8.43a31.42,31.42,0,0,1-14.2,5.67,36.33,36.33,0,0,1-5.37.36A24.69,24.69,0,0,1,325.18,133.67Z"/><path d="M356.39,150.83c-8.67,0-16.09,1.6-22,4.67-7.44,3.83-12.11,9.26-13.89,16.15l-.1.42.42,0c.73.06,1.48.09,2.24.09h.08a30.71,30.71,0,0,0,5.34-.51,46,46,0,0,0,17-7.38h0c7.64-5.07,11.34-9.36,11.33-13.11v-.36Zm-1.19,3.39c-.17.32-.38.66-.6,1a17.66,17.66,0,0,1-1.54,1.95,43.44,43.44,0,0,1-8,6.53h0c-7.7,5.13-15.08,7.75-21.93,7.77-.61,0-1.23,0-1.84-.06,1.81-6.48,6.32-11.61,13.41-15.26,5.77-3,12.95-4.52,21.36-4.59A6.8,6.8,0,0,1,355.2,154.22Z"/><path d="M56.37,67.27a51.92,51.92,0,0,0,8.48.8,23.21,23.21,0,0,0,2.92-.17,37.58,37.58,0,0,0,7.92-2.62,50.15,50.15,0,0,0,10-5.55c3.45-2.53,5.12-4.83,5.12-7a6.18,6.18,0,0,0-1.19-4.17C88.45,47.25,86,46.08,82.14,45c-2.58-.75-4.54-1.27-5.85-1.54a37.46,37.46,0,0,0-7.14-.66,51.49,51.49,0,0,0-7.34.63,41.82,41.82,0,0,1-4.94.59c-4-.23-4.19-.21-4.26-.2-1.71.11-2.61.47-2.84,1.12l0,20.86.24.08A35.23,35.23,0,0,0,56.37,67.27Zm8.42-6.48V48.72a52.07,52.07,0,0,1,10.34-1.24,6.58,6.58,0,0,1,1.28.08c.39.07.9.3.9,1.46,0,1.93-1.13,4.12-3.36,6.53A17.42,17.42,0,0,1,64.79,60.79Z"/><path d="M128.61,61.93a.57.57,0,0,0-.3-.5c-.32-.19-1.17-.49-4.77-1a39.13,39.13,0,0,0-5.37-.45h-.12l-.1.09a10.69,10.69,0,0,0-1.63,1.79,7.22,7.22,0,0,1-2.48,1.3,10.28,10.28,0,0,1-3.9.91,3,3,0,0,1-2.17-1.42,3.94,3.94,0,0,1-1-2.36c5.88-.08,11.73-.44,17.4-1l.09,0a3,3,0,0,0,2.08-3,5.34,5.34,0,0,0-.89-2.84,3.2,3.2,0,0,0-1.63-1.71,39,39,0,0,0-7.56-1.64,47.13,47.13,0,0,0-6.37-.46c-4.82,0-8.85,1.08-12,3.1-3,1.88-4.47,4.11-4.47,6.62,0,2.67,1.72,4.77,5.1,6.25a30.72,30.72,0,0,0,7.51,1.5,70.38,70.38,0,0,0,8.64.69,10.52,10.52,0,0,0,1.59-.09A32.41,32.41,0,0,0,125,64.59C128.32,62.87,128.6,62.31,128.61,61.93Zm-16.49-5.29a25.76,25.76,0,0,1-5.44.6,7.48,7.48,0,0,1,2.64-2.36,8.09,8.09,0,0,1,3.69-1.5h.06s.13.12.13.76C113.2,55.62,112.84,56.46,112.12,56.64Z"/><path d="M136.08,64.52h0c.23.09,1.62.63,4.4,1.68,1.6.58,2.68,1,3.31,1.12a15,15,0,0,0,4.06.55A21,21,0,0,0,154.1,67a18.4,18.4,0,0,0,3.77-1.74,19,19,0,0,1,2.54-1.21,1.34,1.34,0,0,1,0,.26.93.93,0,0,0-.36.3,1.3,1.3,0,0,1-.32.18c-.18.08-.59.26-.59.64a.62.62,0,0,0,.32.52c.54.39,2.35,1,11.81,1.4a6.56,6.56,0,0,0,2.23-.24c.48-.15,1.14-.41,1.25-.92.1-.32-.11-.68-.74-1.27V54.34c0-.7-.89-1.27-3-1.88-1.57-.4-3.11-.81-4.58-1.24s-3-.85-4.42-1.29a15.6,15.6,0,0,0-4.49-.7,82.33,82.33,0,0,0-11.18,1.15l-6.2,1.13c-3.33.32-3.39.34-3.41.35-1.13.23-1.7.53-1.85,1a.8.8,0,0,0,.21.8c.16.19.56.47,3.46,1.37a25.59,25.59,0,0,0,4,1,9.37,9.37,0,0,0,2.73-.18c1-.27,1.76-.48,2.2-.63,1.33-.37,3.7-.84,7-1.37,4.13-.66,5.42-.72,5.78-.64.64.12.89.33,1,.52-7.22,1.18-12.89,2.33-16.86,3.39-5.7,1.53-9,3.14-10.13,4.88a1.1,1.1,0,0,0-.24.67C134.1,63.32,134.72,63.91,136.08,64.52Zm13.5-3C151,61,152.5,60.38,154,59.77a29.48,29.48,0,0,1,5.48-1.4,55.52,55.52,0,0,1-6.58,3.14c-4,1.69-6.66,2.54-7.78,2.54H145a5.46,5.46,0,0,1,1.29-1A16.4,16.4,0,0,1,149.58,61.56Z"/><path d="M220.1,46.2h0c.49-.5,1-1.08.7-1.52s-1.16-.93-2.73-1.08l-5-.54c-2.64-.26-4.7-.4-6.1-.4s-2.72.12-2.72,1c0,.31.24.66.8,1.14a4.24,4.24,0,0,1,.64.63v4.93a25.79,25.79,0,0,0-7-1.63,9.84,9.84,0,0,0-1.66.15,30,30,0,0,0-11.42,4.32c-3.63,2.31-5.48,4.66-5.48,7,0,4.09,5.54,6.46,16.94,7.24a9.11,9.11,0,0,0,5.19-1.6c1-.69,2-1.4,3-2.1a8.25,8.25,0,0,0-.55,2.55c0,.25,0,.52.2.63a3.66,3.66,0,0,0,2.43.78c.09,0,.83,0,4.69.31,2.63.17,4.63.26,5.93.26a5.34,5.34,0,0,0,2.34-.27.54.54,0,0,0,.34-.49c0-.35-.3-.68-1.09-1.14-.14-.08-.23-.39-.23-.85V47C219.46,46.9,219.62,46.69,220.1,46.2ZM199,62.09c-3.47-.14-5.22-.91-5.22-2.28,0-1.09.94-2.31,2.81-3.62.26-.19.55-.38.85-.57a21.48,21.48,0,0,1,7.82-3C202.26,60.52,200.2,62.14,199,62.09Z"/><path d="M228.51,65.14c-.16.07-.55.23-.55.58,0,.52.61.91,2.11,1.34h0a49.22,49.22,0,0,0,5.58.71c2.74.27,4.44.4,5.17.4h.24c1.95-.14,2.35-1.34,2.35-2.32,0-.34-.33-.57-.69-.76s-.32-.24-.32-.3V47.39a6.25,6.25,0,0,1,.91-1.59l.45-.41c.34-.31.5-.56.5-.8,0-.59-.63-1-3.78-1.33-1.52-.15-3.34-.26-5.42-.31-1.82,0-3,0-3.57,0-2.25.17-3.28.52-3.44,1.18v.09a.84.84,0,0,0,.47.66l.12.08V65C228.63,65,228.63,65.08,228.51,65.14Z"/><path d="M251.21,48.19c.18.13.69.38,7,1.09,4.54.52,6.24.63,6.94.63l.39,0a3,3,0,0,0,1.83-1.33,3.32,3.32,0,0,0,.84-1.84.59.59,0,0,0-.23-.52c-.4-.29-1.43-.74-5.81-1.3a42.53,42.53,0,0,0-6.81-.5,6.14,6.14,0,0,0-3.22,1.14c-.89.65-1.33,1.28-1.33,1.92A.82.82,0,0,0,251.21,48.19Z"/><path d="M250.89,66.38c.39.23,1.44.6,5.79,1,3,.28,5.5.43,7.53.43.51,0,.91,0,1.21,0,1.28-.14,2-.42,2.32-.9a1,1,0,0,0,.08-.88c-.09-.21-.32-.41-1.24-.82a2.16,2.16,0,0,1-.75-.43V53.41s.08-.2.81-.67c.95-.61,1.13-.89,1.13-1.16a.67.67,0,0,0-.46-.61,28.88,28.88,0,0,0-5.54-.95,65.45,65.45,0,0,0-7.07-.53c-3,0-3.48.22-3.48.73,0,.24.13.63,1,1.59V63.62a1.3,1.3,0,0,1-.58,1.25c-.76.42-1.05.71-1.05,1A.52.52,0,0,0,250.89,66.38Z"/><path d="M300.77,63.9s-.14.23-1.09.75c-1.21.67-1.45,1-1.45,1.33s.49.64.66.71a28.67,28.67,0,0,0,4.89.6c2.64.2,4.94.3,6.85.3a17.54,17.54,0,0,0,2.17-.09c.55-.09,2.23-.36,2.23-1.52a1.69,1.69,0,0,0-.67-1.25c0-7.84-.83-12.28-2.5-13.57-.32-.26-1.23-.67-5.39-1.28A53.46,53.46,0,0,0,299,49.2a13.2,13.2,0,0,0-5.72,1.38A12.08,12.08,0,0,0,290,52.87a.14.14,0,0,1,0-.06,9.21,9.21,0,0,1,.82-1,1.37,1.37,0,0,0,.47-.94.68.68,0,0,0-.23-.51c-.29-.28-1.25-.62-6.11-1a52.61,52.61,0,0,0-6.38-.32c-1.53.13-2.44.41-2.83.88a.55.55,0,0,0-.17.48c0,.26.25.48.67.71a2,2,0,0,1,.49.34v13a6.5,6.5,0,0,1-.75.34c-.84.35-1.19.64-1.19,1s.24.62.72.84c.26.11,1.06.29,5,.61,2.92.24,5.17.36,6.69.36a6.69,6.69,0,0,0,1.05-.06c2.14-.3,3.18-.9,3.18-1.84,0-.65-.67-1-1.1-1.16V59.52c0-.46.61-1.6,4.71-4h0c3.62-2.11,5-2.51,5.48-2.52C300.61,53.44,300.89,55.39,300.77,63.9Z"/><path d="M326.25,65.57a30.72,30.72,0,0,0,7.51,1.5,70.09,70.09,0,0,0,8.64.69,10.37,10.37,0,0,0,1.58-.09,32.41,32.41,0,0,0,8.69-3.08c3.31-1.72,3.59-2.28,3.6-2.66a.57.57,0,0,0-.3-.5c-.31-.19-1.15-.49-4.76-1a39.25,39.25,0,0,0-5.37-.45h-.13l-.09.09A10.28,10.28,0,0,0,344,61.9a7.34,7.34,0,0,1-2.48,1.3,10.28,10.28,0,0,1-3.91.91,3,3,0,0,1-2.17-1.42,4.07,4.07,0,0,1-1-2.36c5.88-.08,11.73-.44,17.4-1l.1,0a3,3,0,0,0,2.07-3,5.41,5.41,0,0,0-.88-2.84,3.2,3.2,0,0,0-1.63-1.71A39.12,39.12,0,0,0,344,50.06a47.13,47.13,0,0,0-6.37-.46c-4.82,0-8.85,1.08-12,3.1-3,1.88-4.46,4.11-4.46,6.62C321.15,62,322.86,64.09,326.25,65.57Zm13.54-8.93a26,26,0,0,1-5.45.6A7.57,7.57,0,0,1,337,54.88a8.09,8.09,0,0,1,3.69-1.5h.07s.12.12.12.76C340.86,55.62,340.5,56.46,339.79,56.64Z"/><path d="M359.05,66.65c.27.18,1.08.46,5,1.09a37,37,0,0,0,5,.57,5.31,5.31,0,0,0,.64,0A1.9,1.9,0,0,0,371.39,67a1.8,1.8,0,0,0,0-.76c0-.1.2-.41,1.18-1,.75-.49,1.41-1,1.12-1.58-.23-.36-.87-.72-4-.9-4.17-.26-5-.32-5.05-.34l0,.14V62.4h-.38a3.85,3.85,0,0,0-1.64.32,16.47,16.47,0,0,0-2.42,1.75c-1.19,1-1.42,1.42-1.39,1.76A.52.52,0,0,0,359.05,66.65Z"/><path d="M364.08,54.68a36.64,36.64,0,0,0,5,.57,3.9,3.9,0,0,0,.64,0A1.89,1.89,0,0,0,371.37,54l0-.08a2.05,2.05,0,0,0,0-.78c0-.09.2-.41,1.18-1,.75-.49,1.41-1,1.12-1.57-.23-.36-.87-.72-4-.91-4.18-.26-5-.32-5.05-.33l0,.13v-.14h-.38a3.83,3.83,0,0,0-1.64.33,16.53,16.53,0,0,0-2.42,1.74c-1.19,1-1.42,1.43-1.39,1.76a.48.48,0,0,0,.23.4C359.31,53.75,360.13,54.06,364.08,54.68Z"/></g></g></svg>
