<svg xmlns="http://www.w3.org/2000/svg" viewBox="0 0 200 330"><defs><style>.cls-1,.cls-9{fill:none;}.cls-2{fill:#f9e8d8;}.cls-3{fill:#001300;}.cls-4{fill:#231f20;}.cls-5{fill:#d36609;}.cls-6{fill:#c69c6d;}.cls-7{fill:#ffffe2;}.cls-8{fill:#e6e6e6;}.cls-9{stroke:#ffc71e;stroke-miterlimit:10;}</style></defs><title>Gangster</title><g id="UI"><g id="Knapper"><g id="Gangster"><polygon class="cls-1" points="52.7 215.41 52.49 215.36 52.51 216.72 52.7 215.41"/><circle class="cls-1" cx="74.14" cy="96.67" r="1.16"/><rect class="cls-1" x="78.1" y="255.66" width="0.47" height="0.04"/><polygon class="cls-1" points="50.67 145.18 51.2 143.41 50.55 145.19 50.67 145.18"/><rect class="cls-1" x="78.1" y="263.06" width="0.47" height="0.05" transform="translate(-0.77 0.23) rotate(-0.17)"/><path class="cls-2" d="M135.32,72.69H19.19v-.14H19A144.21,144.21,0,0,0,35,137.68l16.18,5.73v0l3.62,1.31,12.69-1.49.06.49h0c0,3.75-4.43,7.19-10.25,7.83-6,.66-11.2-1.9-11.77-5.73h0a.77.77,0,0,1,0-.15l-6.72-1.32c6.39,10.52,13.77,18.87,21.25,24.12,4.92,3.46,9.88,5.58,14.64,6.09,5.58.6,11.38-1,17.08-4.28,20.76-12.06,40.25-47.42,43.59-86.64a14,14,0,0,0,1-5.06v-6l-.94.26Zm-109,12.48L39.39,89.4l-.31.95L26,86.12Zm13.53,9.67c-.27,1.59-5.12,2.37-9,1.7-3.47-.6-7.53-2.6-7.34-4.15s4.7-2.5,8.38-2C35.82,90.91,40.09,93.26,39.81,94.84ZM52.48,115l-.93,2.25-.69,1.64a1,1,0,0,1-1.65.21l-1.08-1.41L46.83,116a.77.77,0,0,1,.51-1.22l2.11-.27,2.42-.32A.58.58,0,0,1,52.48,115ZM69.57,99.84c-4.24-.22-9.42-2-9.41-3.93s5.29-3.68,9.78-3.62c4.82.07,10.29,2.27,10.19,4.21S74.32,100.09,69.57,99.84ZM64,90.43l-.27-.81L82.29,83.4l.27.81Z"/><polygon class="cls-3" points="50.55 145.19 50.51 145.31 50.64 145.3 50.67 145.18 50.55 145.19"/><polygon class="cls-3" points="55.01 144.88 55.28 144.86 67.39 143.71 67.53 143.69 67.58 143.69 67.51 143.19 54.82 144.69 55.28 144.86 55.01 144.88"/><polygon class="cls-3" points="45.99 145.74 46 145.74 45.96 145.74 45.56 145.78 45.51 145.79 45.51 145.79 45.51 145.79 45.56 145.78 45.99 145.74"/><path class="cls-4" d="M78.56,298H78.1v0l-30.73.49v-1.91c-9.94.62-14.91,2.32-14.87,5.85.07,6,17.44,10.77,41.41,10.49l.15-.82c7.71,2,19.2,3,32.67,2.45l1.73-10.83L108,293.17h-.15V298Z"/><path class="cls-5" d="M56.18,255.66H52.92l0,3.57C55.67,257.41,56.14,256.2,56.18,255.66Z"/><path class="cls-5" d="M48.74,261l-.67-5.35h-.7v5.12A2.2,2.2,0,0,0,48.74,261Z"/><path class="cls-5" d="M102.31,259.63v-4H99.05C99.23,256.56,99.92,258,102.31,259.63Z"/><path class="cls-5" d="M103.57,260.39A9.85,9.85,0,0,0,105,261Z"/><path class="cls-5" d="M52.16,259.74l-2.48,1.1A10.22,10.22,0,0,0,52.16,259.74Z"/><path class="cls-5" d="M105.58,261.15a3.51,3.51,0,0,0,2.31-.14v-5.35h-1.5Z"/><path class="cls-5" d="M102,260.14c-2-1.34-3.24-3.15-3.24-4.48H78.56v0H78.1v0H56.29c.28,1-.95,2.56-3.19,4-2.47,1.64-5,2.12-5.73,1.08v37.71L78.1,298V263.57H71.58v-.46H78.1v-.05h.46v.05h5.12v.46H78.56V298h29.33V261.15C106.82,262.1,104.32,261.7,102,260.14Z"/><path class="cls-6" d="M74.66,174.53C69.9,174,64.94,171.9,60,168.44l-1.94-1.24L39.92,212.83l2.84.57,0-.34,9.78,2.1v.2l.21,0-.19,1.31.41,38.94h3.26a.71.71,0,0,0,0-.33,1,1,0,0,1,.14.33H98.78a1.72,1.72,0,0,1,.27-.93,2.08,2.08,0,0,0,0,.93h3.26V217l.24-.08,0-.11,13.07-4.16L94.39,168.6c-.06-.12-1.32.82-1.4.93h0l-1.25.72C86,173.56,80.24,175.13,74.66,174.53ZM52.81,215.27l-.13-.05,3.11-8.77.13.05Zm43.91-11.75L102.34,217l-.22.1L96.5,203.61Z"/><polygon class="cls-6" points="107.89 255.66 108.82 255.66 107.55 247.78 106.39 255.66 107.89 255.66"/><polygon class="cls-6" points="47.52 251.35 46.91 255.66 47.37 255.66 48.06 255.66 47.52 251.35"/><path class="cls-2" d="M57.12,150.05c7.9-.86,9.83-4.9,10.27-6.34l-12.11,1.15-.57,2.6h0l-4.46-.82,0,0L46,145.74l-.43,0C46,146.69,48.48,151,57.12,150.05Z"/><path class="cls-2" d="M46,145.73l-.46-.09a1.14,1.14,0,0,0,.06.14Z"/><path class="cls-4" d="M191.41,42.44c-2.09-7.68-30.25-6.69-63,2.16A58.2,58.2,0,0,0,19.19,72.55v.14H135.32l0,.09.94-.26C168.9,63.5,193.5,50.1,191.41,42.44ZM36,69.44H21.52a14.52,14.52,0,1,1,29,0Z"/><path class="cls-3" d="M69.94,92.29c-4.49-.06-9.76,1.72-9.78,3.62s5.17,3.71,9.41,3.93c4.75.25,10.46-1.4,10.56-3.34S74.76,92.36,69.94,92.29Zm4.2,5.54a1.16,1.16,0,1,1,1.16-1.16A1.16,1.16,0,0,1,74.14,97.83Z"/><path class="cls-3" d="M31.86,90.38c-3.68-.49-8.18.45-8.38,2s3.87,3.55,7.34,4.15c3.87.67,8.72-.11,9-1.7S35.82,90.91,31.86,90.38ZM33.17,95a1.17,1.17,0,1,1,1.16-1.16A1.16,1.16,0,0,1,33.17,95Z"/><rect class="cls-3" x="32.18" y="80.87" width="1" height="13.77" transform="translate(-60.87 91.93) rotate(-72.13)"/><rect class="cls-3" x="63.38" y="86.49" width="19.55" height="0.85" transform="translate(-23.84 27.77) rotate(-18.54)"/><path class="cls-3" d="M51.87,114.16l-2.42.32-2.11.27a.77.77,0,0,0-.51,1.22l1.3,1.69,1.08,1.41a1,1,0,0,0,1.65-.21l.69-1.64.93-2.25A.58.58,0,0,0,51.87,114.16Z"/><path class="cls-2" d="M36,54.92A14.52,14.52,0,0,0,21.52,69.44h29A14.52,14.52,0,0,0,36,54.92Z"/><polygon points="78.56 298.02 78.56 263.57 83.68 263.57 83.68 263.11 78.56 263.11 78.1 263.11 71.58 263.11 71.58 263.57 78.1 263.57 78.1 298 78.1 298.02 78.56 298.02"/><path d="M53.1,259.7c2.24-1.48,3.47-3,3.19-4a1,1,0,0,0-.14-.33.71.71,0,0,1,0,.33c0,.54-.51,1.75-3.22,3.57v.15l-.8.36a10.22,10.22,0,0,1-2.48,1.1l-.91.41,0-.24a2.2,2.2,0,0,1-1.37-.23C48.06,261.82,50.63,261.34,53.1,259.7Z"/><path d="M105.58,261.15v.1L105,261a9.85,9.85,0,0,1-1.41-.61l-1.26-.54v-.22c-2.39-1.62-3.08-3.07-3.26-4a2.08,2.08,0,0,1,0-.93,1.72,1.72,0,0,0-.27.93c0,1.33,1.24,3.14,3.24,4.48,2.3,1.56,4.8,2,5.87,1a1.69,1.69,0,0,0,.26-.28,2.21,2.21,0,0,1-.26.14A3.51,3.51,0,0,1,105.58,261.15Z"/><polygon class="cls-2" points="48.74 261.01 48.77 261.25 49.68 260.84 52.16 259.74 52.96 259.38 52.95 259.23 52.92 255.66 52.51 216.72 52.49 215.36 52.49 215.16 42.72 213.06 42.76 213.4 47.52 251.35 48.06 255.66 48.74 261.01"/><polygon class="cls-2" points="102.31 255.66 102.31 259.63 102.31 259.85 103.57 260.39 104.98 261 105.56 261.25 105.58 261.15 106.39 255.66 107.55 247.78 112.55 213.76 102.55 216.94 102.31 217.02 102.31 255.66"/><rect x="49.64" y="210.79" width="9.31" height="0.15" transform="translate(-162.56 191.28) rotate(-70.4)"/><rect x="99.3" y="203" width="0.24" height="14.57" transform="translate(-73.47 54.68) rotate(-22.71)"/><circle class="cls-7" cx="33.17" cy="93.88" r="1.16"/><path class="cls-4" d="M45.5,145.64l0,0v0a.77.77,0,0,0,0,.15h.05A1.14,1.14,0,0,1,45.5,145.64Z"/><path class="cls-4" d="M57.12,150.05c-8.64.95-11.13-3.36-11.56-4.27h-.05c.57,3.83,5.78,6.39,11.77,5.73,5.82-.64,10.27-4.08,10.25-7.83l-.14,0C67,145.15,65,149.19,57.12,150.05Z"/><polygon class="cls-6" points="55.28 144.86 54.71 147.46 54.71 147.46 55.28 144.86"/><polygon class="cls-8" points="50.64 145.3 50.64 145.3 50.27 146.59 50.25 146.64 54.71 147.46 54.71 147.46 54.71 147.46 55.28 144.86 55.01 144.88 55.28 144.86 54.82 144.69 51.2 143.38 51.2 143.41 50.67 145.18 50.64 145.3"/><path class="cls-6" d="M45.48,145.61l0,0,.46.09h0l4.28.85.37-1.29h-.13l0-.12.65-1.78L35,137.68l-2.08-.74-1.28,6,7.11,1.41,6.72,1.32Z"/><path class="cls-9" d="M94,169.17a1.53,1.53,0,0,0-1.32,1.67,2.12,2.12,0,0,0,.2.89,1.06,1.06,0,0,0-.31,0,1.52,1.52,0,0,0-1.32,1.67,2,2,0,0,0,.2.89.81.81,0,0,0-.31-.06,1.53,1.53,0,0,0-1.33,1.67,2,2,0,0,0,.21.89,1.13,1.13,0,0,0-.32-.05,1.53,1.53,0,0,0-1.32,1.67,2,2,0,0,0,.21.89,1.13,1.13,0,0,0-.32-.05A1.53,1.53,0,0,0,87,180.87a2.12,2.12,0,0,0,0,.44l-.16,0A1.53,1.53,0,0,0,85.52,183c0,.06,0,.13,0,.19a1.07,1.07,0,0,0-.6-.19A1.37,1.37,0,0,0,83.7,184a1.14,1.14,0,0,0-.68-.25,1.72,1.72,0,0,0,0,3.35,1.38,1.38,0,0,0,1.23-1.08,1.13,1.13,0,0,0,.68.24,1.53,1.53,0,0,0,1.32-1.67c0-.07,0-.13,0-.19a1.07,1.07,0,0,0,.6.19A1.53,1.53,0,0,0,88.16,183a2.12,2.12,0,0,0,0-.44l.16,0a1.53,1.53,0,0,0,1.32-1.67,2,2,0,0,0-.2-.89,1.06,1.06,0,0,0,.31.05A1.53,1.53,0,0,0,91,178.36a2,2,0,0,0-.21-.89,1.13,1.13,0,0,0,.32.06,1.53,1.53,0,0,0,1.32-1.68,1.94,1.94,0,0,0-.21-.88,1.13,1.13,0,0,0,.32.05,1.53,1.53,0,0,0,1.32-1.67,2,2,0,0,0-.21-.89,1.19,1.19,0,0,0,.32,0,1.72,1.72,0,0,0,0-3.34Z"/><path class="cls-9" d="M80.63,185.88a1.53,1.53,0,0,0-1.32,1.68c0,.1,0,.2,0,.3a1.26,1.26,0,0,0-1.08-.72,1.13,1.13,0,0,0-.68.24,1.38,1.38,0,0,0-1.23-1.08,1.19,1.19,0,0,0-.61.19,1.11,1.11,0,0,0,0-.19,1.53,1.53,0,0,0-1.32-1.67,1.1,1.1,0,0,0-.61.19,1.46,1.46,0,0,0-1.3-1.44h-.11a1.53,1.53,0,0,0-1.33-1.67,1.06,1.06,0,0,0-.7.26,2.16,2.16,0,0,0,.12-.68,1.53,1.53,0,0,0-1.33-1.67,1.09,1.09,0,0,0-.6.19,1.37,1.37,0,0,0,0-.19,1.54,1.54,0,0,0-1.33-1.68,1.07,1.07,0,0,0-.7.27,2.16,2.16,0,0,0,.12-.68,1.54,1.54,0,0,0-1.33-1.68,1.1,1.1,0,0,0-.6.2,1.36,1.36,0,0,0,0-.2,1.53,1.53,0,0,0-1.33-1.67,1.12,1.12,0,0,0-.7.26,2.06,2.06,0,0,0,.12-.68,1.53,1.53,0,0,0-1.33-1.67.81.81,0,0,0-.31.06,2,2,0,0,0,.2-.89,1.52,1.52,0,0,0-1.32-1.67l-.16,0a2.12,2.12,0,0,0,.05-.44,1.36,1.36,0,1,0-1.32,1.67l.16,0a2,2,0,0,0,0,.44,1.53,1.53,0,0,0,1.32,1.67,1.13,1.13,0,0,0,.32-.05,1.94,1.94,0,0,0-.21.88,1.53,1.53,0,0,0,1.32,1.68,1.17,1.17,0,0,0,.71-.26,1.81,1.81,0,0,0-.12.67,1.53,1.53,0,0,0,1.32,1.68,1.11,1.11,0,0,0,.61-.2,1.36,1.36,0,0,0,0,.2,1.53,1.53,0,0,0,1.32,1.67,1.17,1.17,0,0,0,.71-.26,1.83,1.83,0,0,0-.12.68,1.53,1.53,0,0,0,1.32,1.67,1.19,1.19,0,0,0,.61-.19,1.11,1.11,0,0,0,0,.19A1.53,1.53,0,0,0,69.17,183a1.17,1.17,0,0,0,.71-.26,1.87,1.87,0,0,0-.12.68,1.53,1.53,0,0,0,1.32,1.67l.11,0v0a1.53,1.53,0,0,0,1.33,1.67,1.07,1.07,0,0,0,.6-.19A1.47,1.47,0,0,0,74.43,188a1.09,1.09,0,0,0,.6-.19,1.37,1.37,0,0,0,0,.19,1.54,1.54,0,0,0,1.33,1.68,1.13,1.13,0,0,0,.67-.25,1.38,1.38,0,0,0,1.24,1.08,1.53,1.53,0,0,0,1.32-1.67,1.55,1.55,0,0,0,0-.31,1.28,1.28,0,0,0,1.09.73,1.72,1.72,0,0,0,0-3.35Z"/></g></g></g></svg>
