<svg xmlns="http://www.w3.org/2000/svg" viewBox="0 0 310 310"><defs><style>.cls-1{fill:#ffe8ba;}.cls-2{fill:#a6d9ab;}</style></defs><title>Klokke</title><g id="UI"><g id="Knapper"><path class="cls-1" d="M270,150h28C297.16,74.58,235.58,13.5,160,13.5v27h-3v-27c-74.71,1.6-135,62.87-135,138,0,.32,0,.63,0,.95H50.5v3.05H22.06c2.11,73.74,62.36,133.17,136.41,134v-28h3.06v28C236.41,288.66,297.16,227.91,298,153H270ZM157.5,167.5A14.5,14.5,0,1,1,172,153,14.5,14.5,0,0,1,157.5,167.5Z"/><path class="cls-2" d="M160,1.5c-82.71,0-150,67.29-150,150s67.29,150,150,150,150-67.29,150-150S242.71,1.5,160,1.5ZM299,153h-1c-.82,74.88-61.57,135.63-136.45,136.45v1h-3.06v-1c-74-.81-134.3-60.24-136.41-134H21.5v-3.05H22c0-.32,0-.63,0-.95,0-75.09,60.29-136.36,135-138v-2h3v2c75.58,0,137.16,61.08,138,136.47h1Z"/><circle cx="157.5" cy="153" r="14.5"/><polygon points="160 40.5 160 13.5 160 11.5 157 11.5 157 13.54 157 40.5 160 40.5"/><polygon points="158.47 261.5 158.47 289.48 158.47 290.5 161.53 290.5 161.53 289.48 161.53 261.5 158.47 261.5"/><polygon points="270 149.97 270 153.03 297.98 153.03 299 153.03 299 149.97 297.98 149.97 270 149.97"/><polygon points="50.5 152.45 22.01 152.45 21.5 152.45 21.5 155.5 22.06 155.5 50.5 155.5 50.5 152.45"/></g></g></svg>
