<svg xmlns="http://www.w3.org/2000/svg" viewBox="0 0 560 230"><defs><style>.cls-1{fill:#ffffbd;}.cls-2{fill:#f9e8d8;}.cls-3{fill:#231f20;}.cls-4{fill:#999;}.cls-5{fill:#001300;}.cls-6{fill:#75272d;}.cls-7{fill:#c69c6d;}.cls-8{fill:#e6e6e6;}.cls-9{fill:#f15a24;}</style></defs><title>Liv</title><g id="UI"><g id="Knapper"><path class="cls-1" d="M529.45,4.25H32.55c-15,0-27.17,13.28-27.17,29.61V197c0,16.33,12.19,29.62,27.17,29.62h496.9c15,0,27.17-13.29,27.17-29.62V33.86C556.62,17.53,544.43,4.25,529.45,4.25ZM166,89.29c-8.39,4.77-19.79,9.42-32.32,13.19v2.66a16.17,16.17,0,0,1-.85,5.19c-2.54,29.7-15.47,59.29-32.28,73.74-6.61,5.68-13.45,8.64-19.93,8.64a22.39,22.39,0,0,1-2.32-.13C67.52,191.37,56,181.64,46.45,165.8l-7.85-1.62.83-4.07-9.9-4.42,2.44.47-1.32-.63L40,157.44l.58-2.84a135.29,135.29,0,0,1-11.9-50.84h-.17V100c0-1,0-1.91.07-2.85v-.32h0C30.17,68.16,53,45.33,80.92,45.33c18.22,0,35.08,9.9,44.62,26,12.62-3.39,24.7-5.42,34.24-5.75,12.13-.42,18.67,1.88,20,7S176.63,83.23,166,89.29Zm146,9.28v5.52a13.1,13.1,0,0,1-.84,4.63c-3.73,45.74-30.48,85.76-53.24,83.22-10.52-1.18-22.2-11.68-31.5-27.66L220.12,163l1.12-5.47,1.83.68A136.35,136.35,0,0,1,209,99h-.1v-.3c0-29.54,23-53.57,51.35-53.57,19.36,0,36.26,11.24,45,27.78,28.66-8,53.22-8.91,55.06-1.9S340.55,90.31,311.93,98.57Zm179.2-.22v5.52a13.37,13.37,0,0,1-.84,4.63c-3.73,45.74-30.49,85.76-53.24,83.21-10.52-1.18-22.2-11.68-31.5-27.65l-6.24-1.29,1.12-5.46,1.83.68a136.56,136.56,0,0,1-14.08-59.18h-.1V98.5c0-29.53,23-53.56,51.36-53.56,19.36,0,36.25,11.23,45,27.78,28.66-8,53.23-8.91,55.06-1.9S519.74,90.09,491.13,98.35Z"/><path d="M529.45,3.5H32.55C17.15,3.5,4.62,17.12,4.62,33.86V197c0,16.74,12.53,30.37,27.93,30.37h496.9c15.4,0,27.93-13.63,27.93-30.37V33.86C557.38,17.12,544.85,3.5,529.45,3.5ZM556.62,197c0,16.33-12.19,29.62-27.17,29.62H32.55c-15,0-27.17-13.29-27.17-29.62V33.86c0-16.33,12.19-29.61,27.17-29.61h496.9c15,0,27.17,13.28,27.17,29.61Z"/><path class="cls-2" d="M415.64,166.14l-.1,0,.09,0Z"/><path class="cls-2" d="M420.65,166.89a9.48,9.48,0,0,0,6.69-4.89,19.25,19.25,0,0,1-7.06,2.56l-.25,0-.49,2.35h0l-3.79-.73A8.41,8.41,0,0,0,420.65,166.89Z"/><path class="cls-2" d="M490.8,98.5v.31H388.18A136.56,136.56,0,0,0,402.26,158l14.2,5.24v0l1.15.43a20.82,20.82,0,0,0,2.48-.27c4.93-.85,7.65-2.89,8.14-3.68h0a.57.57,0,0,1,.13-.14l0,0a.69.69,0,0,1,.15-.07l0,0h.23a.18.18,0,0,1,.1,0l.1,0h0l.13.13,0,0a.42.42,0,0,1,0,.1.54.54,0,0,1,0,.11v.05a.54.54,0,0,1,0,.18h0a10.71,10.71,0,0,1-8.44,8,9.44,9.44,0,0,1-1.57.14,10.93,10.93,0,0,1-6.95-2.77l-6.77-1.39c9.3,16,21,26.47,31.5,27.65,22.75,2.55,49.51-37.47,53.24-83.21a13.37,13.37,0,0,0,.84-4.63V98.35l-.33.09Zm-96.21,11.42,11.5,3.87-.27.87-11.5-3.86Zm4,10.41c-3-.55-6.61-2.38-6.44-3.8s4.13-2.29,7.36-1.84c3.47.49,7.22,2.64,7,4.08S402,120.94,398.57,120.33Zm19,16.87-.83,2.05-.6,1.51a.83.83,0,0,1-1.45.19l-.95-1.29-1.13-1.55a.7.7,0,0,1,.44-1.11l1.85-.25,2.13-.29A.53.53,0,0,1,417.59,137.2Zm15-13.85c-3.73-.2-8.26-1.87-8.25-3.6s4.63-3.36,8.57-3.31c4.24.06,9,2.08,9,3.85S436.75,123.57,432.58,123.35Zm-4.87-8.62-.24-.73,16.27-5.7.24.74Z"/><path class="cls-3" d="M484.44,72.72a55,55,0,0,1,6.36,25.72l.33-.09c28.61-8.26,50.21-20.52,48.37-27.53S513.1,64.68,484.44,72.72Z"/><path class="cls-3" d="M439.44,45.54c-27.91,0-50.62,23.59-50.78,52.66H490.22C490.06,69.13,467.34,45.54,439.44,45.54Z"/><path class="cls-4" d="M490.8,98.5v-.06a55,55,0,0,0-6.36-25.72c-8.75-16.55-25.64-27.78-45-27.78-28.32,0-51.36,24-51.36,53.56v.31H490.8Zm-102.14-.3c.16-29.07,22.87-52.66,50.78-52.66s50.62,23.59,50.78,52.66Z"/><path class="cls-5" d="M432.9,116.44c-3.94,0-8.57,1.57-8.57,3.31s4.52,3.4,8.25,3.6c4.17.22,9.18-1.28,9.27-3.06S437.14,116.5,432.9,116.44Z"/><path class="cls-5" d="M399.49,114.69c-3.23-.45-7.18.41-7.36,1.84s3.4,3.25,6.44,3.8c3.4.61,7.66-.1,7.9-1.56S403,115.18,399.49,114.69Z"/><polygon class="cls-5" points="406.09 113.79 394.59 109.92 394.32 110.8 405.82 114.66 406.09 113.79"/><polygon class="cls-5" points="427.47 114 427.71 114.73 443.98 109.04 443.74 108.31 427.47 114"/><path class="cls-6" d="M420,164.59l.25,0a19.25,19.25,0,0,0,7.06-2.56,9.48,9.48,0,0,1-6.69,4.89,8.41,8.41,0,0,1-4.9-.68l-.12,0v0l-.09,0-3.22-.67a10.93,10.93,0,0,0,6.95,2.77,9.44,9.44,0,0,0,1.57-.14,10.71,10.71,0,0,0,8.44-8h0a.54.54,0,0,0,0-.18v-.05a.54.54,0,0,0,0-.11.42.42,0,0,0,0-.1l0,0-.13-.13h0l-.1,0a.18.18,0,0,0-.1,0h-.23l0,0a.69.69,0,0,0-.15.07l0,0a.57.57,0,0,0-.13.14h0c-.49.79-3.21,2.83-8.14,3.68a20.82,20.82,0,0,1-2.48.27l2.43.91Z"/><path class="cls-5" d="M417.05,136.46l-2.13.29-1.85.25a.7.7,0,0,0-.44,1.11l1.13,1.55.95,1.29a.83.83,0,0,0,1.45-.19l.6-1.51.83-2.05A.53.53,0,0,0,417.05,136.46Z"/><polygon class="cls-7" points="420.04 164.59 420.04 164.55 419.54 166.94 419.54 166.94 419.54 166.94 420.04 164.59"/><polygon class="cls-7" points="415.54 166.12 415.64 166.14 416.46 163.23 402.26 157.99 400.43 157.31 399.31 162.77 405.55 164.06 412.32 165.45 415.54 166.12"/><polygon class="cls-8" points="415.63 166.16 415.63 166.18 415.75 166.21 419.54 166.94 419.54 166.94 420.04 164.55 417.61 163.64 416.46 163.21 416.46 163.23 415.64 166.14 415.63 166.16"/><path class="cls-2" d="M236.44,166.36l-.09,0,.09,0Z"/><path class="cls-2" d="M241.46,167.12a9.49,9.49,0,0,0,6.69-4.9,19.14,19.14,0,0,1-7.06,2.56l-.25,0-.5,2.35h0l-3.78-.73A8.4,8.4,0,0,0,241.46,167.12Z"/><path class="cls-2" d="M311.6,98.73V99H209a136.35,136.35,0,0,0,14.08,59.18l14.19,5.24v0l1.14.43a19.27,19.27,0,0,0,2.49-.27c4.92-.85,7.64-2.88,8.13-3.68h0a.58.58,0,0,1,.13-.14l0,0a.46.46,0,0,1,.16-.07l0,0h.23l.1,0a.54.54,0,0,1,.11,0h0a.53.53,0,0,1,.13.13l0,0,0,.11,0,.1s0,0,0,.06a.55.55,0,0,1,0,.18h0a10.74,10.74,0,0,1-8.44,8,9.5,9.5,0,0,1-1.57.13,10.88,10.88,0,0,1-7-2.76l-6.78-1.4c9.3,16,21,26.48,31.5,27.66,22.76,2.54,49.51-37.48,53.24-83.22a13.1,13.1,0,0,0,.84-4.63V98.57l-.33.1Zm-96.21,11.42L226.9,114l-.27.87L215.12,111Zm4,10.41c-3-.55-6.61-2.39-6.44-3.8s4.12-2.29,7.35-1.84c3.47.48,7.22,2.63,7,4.08S222.78,121.17,219.38,120.56Zm19,16.86-.82,2.06L237,141a.83.83,0,0,1-1.46.2l-.94-1.29-1.14-1.55a.71.71,0,0,1,.45-1.12l1.85-.25,2.12-.28A.53.53,0,0,1,238.39,137.42Zm15-13.85c-3.73-.2-8.27-1.86-8.26-3.59s4.64-3.37,8.58-3.31c4.23.06,9,2.08,8.94,3.85S257.56,123.8,253.39,123.57ZM248.51,115l-.23-.74,16.26-5.69.24.74Z"/><path class="cls-3" d="M305.25,72.94a55.17,55.17,0,0,1,6.35,25.73l.33-.1c28.62-8.26,50.21-20.52,48.38-27.53S333.91,64.9,305.25,72.94Z"/><path class="cls-3" d="M260.24,45.77c-27.9,0-50.62,23.59-50.78,52.66H311C310.87,69.36,288.15,45.77,260.24,45.77Z"/><path class="cls-4" d="M311.6,98.73v-.06a55.17,55.17,0,0,0-6.35-25.73c-8.75-16.54-25.65-27.78-45-27.78-28.32,0-51.35,24-51.35,53.57V99H311.6Zm-102.14-.3c.16-29.07,22.88-52.66,50.78-52.66S310.87,69.36,311,98.43Z"/><path class="cls-5" d="M253.71,116.67c-3.94-.06-8.57,1.57-8.58,3.31s4.53,3.39,8.26,3.59c4.17.23,9.17-1.27,9.26-3S257.94,116.73,253.71,116.67Z"/><path class="cls-5" d="M220.29,114.92c-3.23-.45-7.18.41-7.35,1.84s3.39,3.25,6.44,3.8c3.4.61,7.65-.11,7.89-1.56S223.76,115.4,220.29,114.92Z"/><polygon class="cls-5" points="226.9 114.02 215.39 110.15 215.12 111.02 226.63 114.89 226.9 114.02"/><polygon class="cls-5" points="248.28 114.22 248.51 114.96 264.78 109.27 264.54 108.53 248.28 114.22"/><path class="cls-6" d="M240.84,164.82l.25,0a19.14,19.14,0,0,0,7.06-2.56,9.49,9.49,0,0,1-6.69,4.9,8.4,8.4,0,0,1-4.9-.69l-.13,0v0l-.09,0-3.22-.66a10.88,10.88,0,0,0,7,2.76,9.5,9.5,0,0,0,1.57-.13,10.74,10.74,0,0,0,8.44-8h0a.55.55,0,0,0,0-.18s0,0,0-.06l0-.1,0-.11,0,0a.53.53,0,0,0-.13-.13h0a.54.54,0,0,0-.11,0l-.1,0h-.23l0,0a.46.46,0,0,0-.16.07l0,0a.58.58,0,0,0-.13.14h0c-.49.8-3.21,2.83-8.13,3.68a19.27,19.27,0,0,1-2.49.27l2.44.92Z"/><path class="cls-5" d="M237.85,136.69l-2.12.28-1.85.25a.71.71,0,0,0-.45,1.12l1.14,1.55.94,1.29A.83.83,0,0,0,237,141l.6-1.5.82-2.06A.53.53,0,0,0,237.85,136.69Z"/><polygon class="cls-7" points="240.84 164.82 240.85 164.78 240.34 167.16 240.34 167.16 240.34 167.16 240.84 164.82"/><polygon class="cls-7" points="236.35 166.34 236.44 166.36 237.26 163.45 223.07 158.21 221.24 157.53 220.12 163 226.35 164.28 233.13 165.68 236.35 166.34"/><polygon class="cls-8" points="236.44 166.38 236.43 166.41 236.56 166.44 240.34 167.16 240.34 167.16 240.85 164.78 238.41 163.86 237.27 163.43 237.26 163.45 236.44 166.36 236.44 166.38"/><path class="cls-2" d="M126.71,103.76H35.3c.05,1.34.12,2.69.22,4l.37-1.22,17.32,5.83-1.31,4.23.12.2.13.23c.05.09.09.18.13.27l.1.21.09.27c0,.07.05.14.07.2s0,.18.06.26a1.46,1.46,0,0,1,0,.2l0,.25a1.11,1.11,0,0,1,0,.17,2.18,2.18,0,0,1,0,.25s0,.1,0,.15,0,.17,0,.25a.49.49,0,0,0,0,.12,2.91,2.91,0,0,1,0,.31v0a4.23,4.23,0,0,1-.19.72,1.19,1.19,0,0,1-.08.2,4,4,0,0,1-.22.47l-.11.19a3.83,3.83,0,0,1-.33.46l-.08.1a3.78,3.78,0,0,1-.49.49,1.58,1.58,0,0,1-.15.12c-.14.11-.28.22-.43.32l-.2.12c-.15.1-.31.18-.47.27l-.18.09-.69.29-.16,0a5.76,5.76,0,0,1-.59.18l-.26.07-.55.13-.24,0c-.26,0-.53.09-.79.12h0l-.79.07-.25,0-.58,0H43.65c-.17,0-.34,0-.5,0l-.33,0-.54,0-.26,0-.75-.12c-.24,0-.5-.1-.76-.16l-.25-.06-.6-.16-.29-.08-.68-.23-.21-.07c-.3-.11-.61-.22-.91-.35l0,0a124.46,124.46,0,0,0,10.2,30.92l3.42,1.27,5.59,2.06v0l3.77,1.4h.16c.4,0,.8-.09,1.2-.16a19.27,19.27,0,0,0,2.25-.53,10.09,10.09,0,0,0,3.42-1.66h0v0l.07-.09.07-.09.19-.21,0,0,.13-.16.41-.31a3,3,0,0,1,.68-.38l.21-.12.45-.11a3.91,3.91,0,0,1,.61-.08h0l.29-.06.65.12a3.15,3.15,0,0,1,.36.09l.08,0,.08,0,6.75-4.35-4.15,7.61,0,.13h0v.25l0,.26-.1.66A13.66,13.66,0,0,1,63.68,170a12.86,12.86,0,0,1-2,.17c-.45,0-.87,0-1.29-.07h-.09a10.61,10.61,0,0,1-1.15-.19l-.13,0c-.37-.09-.72-.18-1.06-.29l-.14-.05c-.34-.11-.66-.23-1-.36l-.08,0C64,178.87,72,184.91,79,185.69c5.35.6,11.34-1.81,17.33-7,15.6-13.42,27.63-41.33,29.93-69.46l0-.49.17-.47a9.16,9.16,0,0,0,.58-3.17v-.74l-.32.09ZM63.08,138.34l-.83,2.1-.53,1.3A4.22,4.22,0,0,1,60,143.82a4.06,4.06,0,0,1-1.53.54,4.53,4.53,0,0,1-.52,0,4,4,0,0,1-1.83-.44,4.24,4.24,0,0,1-1.46-1.25l-.86-1.17L52.64,140a4.29,4.29,0,0,1-.81-2.51,4.89,4.89,0,0,1,0-.54,4.77,4.77,0,0,1,.27-1.05,4,4,0,0,1,3.15-2.5l3.8-.52h0A3.72,3.72,0,0,1,62.26,134a4.12,4.12,0,0,1,.82,4.34Zm18.65-23.16.2.09c.18.07.34.15.51.23l.1,0c.2.1.39.2.57.31l.17.1.38.23.19.13.32.23.18.14a3.88,3.88,0,0,1,.31.26l.14.13a5,5,0,0,1,.4.4A4.81,4.81,0,0,1,86.53,121c0,.12,0,.25,0,.39a1.18,1.18,0,0,1,0,.2.5.5,0,0,1,0,.12c-.56,2.87-3.61,4.31-6.64,5h0l-1.13.21a19.75,19.75,0,0,1-2.53.27l-.55,0h-.65c-.27,0-.51,0-.72,0h0c-2.64-.14-6.88-1-9.27-3.14a4.9,4.9,0,0,1-1.77-3.77,4.81,4.81,0,0,1,1.46-3.4,6.54,6.54,0,0,1,.68-.59l.14-.11a7.66,7.66,0,0,1,.76-.5l.06,0-1-3L87.12,105l2.34,7.27-8,2.79Z"/><path class="cls-9" d="M87.12,105l-21.85,7.64,1,3-.06,0a7.66,7.66,0,0,0-.76.5l-.14.11a6.54,6.54,0,0,0-.68.59,4.81,4.81,0,0,0-1.46,3.4,4.9,4.9,0,0,0,1.77,3.77c2.39,2.15,6.63,3,9.27,3.14h0c.21,0,.45,0,.72,0h.65l.55,0a19.75,19.75,0,0,0,2.53-.27l1.13-.21h0c3-.67,6.08-2.11,6.64-5a.5.5,0,0,0,0-.12,1.18,1.18,0,0,0,0-.2c0-.14,0-.27,0-.39a4.81,4.81,0,0,0-1.33-3.55,5,5,0,0,0-.4-.4l-.14-.13a3.88,3.88,0,0,0-.31-.26l-.18-.14-.32-.23-.19-.13-.38-.23-.17-.1c-.18-.11-.37-.21-.57-.31l-.1,0c-.17-.08-.33-.16-.51-.23l-.2-.09-.27-.12,8-2.79Z"/><path class="cls-3" d="M158.67,72.56a156.33,156.33,0,0,0-29.92,5.07,2.6,2.6,0,0,0,.1.25c.23.56.46,1.11.68,1.67a2.6,2.6,0,0,0,.1.25c.24.64.47,1.29.69,1.94l.18.53c.16.5.32,1,.47,1.5.05.19.11.38.17.57.18.63.35,1.25.5,1.88,0,0,0,.08,0,.13.16.66.31,1.34.45,2l.12.58c.1.51.19,1,.28,1.53,0,.2.07.39.1.59.11.68.21,1.37.29,2a.2.2,0,0,1,0,.07c.08.67.15,1.33.2,2l0,.24a157.94,157.94,0,0,0,28.46-11.55c9.13-5,11.55-8.44,11.75-9.42C172.72,73.72,169,72,158.67,72.56Z"/><path class="cls-9" d="M159.78,65.59c-9.54.33-21.62,2.36-34.24,5.75-9.54-16.11-26.4-26-44.62-26C53,45.33,30.17,68.16,28.58,96.84h0v.32c0,.94-.07,1.89-.07,2.85v3.75h.17a135.29,135.29,0,0,0,11.9,50.84L40,157.44l-9.33-1.91,1.32.63-2.44-.47,9.9,4.42-.83,4.07,7.85,1.62c9.53,15.84,21.07,25.57,31.83,26.78a22.39,22.39,0,0,0,2.32.13c6.48,0,13.32-3,19.93-8.64,16.81-14.45,29.74-44,32.28-73.74a16.17,16.17,0,0,0,.85-5.19v-2.66c12.53-3.77,23.93-8.42,32.32-13.19,10.65-6.06,15.17-11.51,13.82-16.67S171.91,65.17,159.78,65.59ZM80.92,52.83C104.6,52.83,124.17,72,126,96.26H35.82C37.66,72,57.23,52.83,80.92,52.83ZM127,105.14a9.16,9.16,0,0,1-.58,3.17l-.17.47,0,.49c-2.3,28.13-14.33,56-29.93,69.46-6,5.15-12,7.56-17.33,7-7-.78-15-6.82-22.25-16.58l.08,0c.31.13.63.25,1,.36l.14.05c.34.11.69.2,1.06.29l.13,0a10.61,10.61,0,0,0,1.15.19h.09c.42,0,.84.07,1.29.07a12.86,12.86,0,0,0,2-.17,13.66,13.66,0,0,0,10.79-10.39l.1-.66,0-.26v-.25h0l0-.13,4.15-7.61L71.91,155l-.08,0-.08,0a3.15,3.15,0,0,0-.36-.09l-.65-.12-.29.06h0a3.91,3.91,0,0,0-.61.08l-.45.11-.21.12a3,3,0,0,0-.68.38l-.41.31-.13.16,0,0-.19.21-.07.09-.07.09v0h0a10.09,10.09,0,0,1-3.42,1.66,19.27,19.27,0,0,1-2.25.53c-.4.07-.8.12-1.2.16h-.16l-3.77-1.4v0l-5.59-2.06-3.42-1.27a124.46,124.46,0,0,1-10.2-30.92l0,0c.3.13.61.24.91.35l.21.07.68.23.29.08.6.16.25.06c.26.06.52.12.76.16l.75.12.26,0,.54,0,.33,0c.16,0,.33,0,.5,0h1.14l.58,0,.25,0,.79-.07h0c.26,0,.53-.07.79-.12l.24,0,.55-.13.26-.07a5.76,5.76,0,0,0,.59-.18l.16,0,.69-.29.18-.09c.16-.09.32-.17.47-.27l.2-.12c.15-.1.29-.21.43-.32a1.58,1.58,0,0,0,.15-.12,3.78,3.78,0,0,0,.49-.49l.08-.1a3.83,3.83,0,0,0,.33-.46l.11-.19a4,4,0,0,0,.22-.47,1.19,1.19,0,0,0,.08-.2,4.23,4.23,0,0,0,.19-.72v0a2.91,2.91,0,0,0,0-.31.49.49,0,0,1,0-.12c0-.08,0-.16,0-.25s0-.1,0-.15a2.18,2.18,0,0,0,0-.25,1.11,1.11,0,0,0,0-.17l0-.25a1.46,1.46,0,0,0,0-.2c0-.08,0-.17-.06-.26s0-.13-.07-.2l-.09-.27-.1-.21c0-.09-.08-.18-.13-.27l-.13-.23-.12-.2,1.31-4.23-17.32-5.83-.37,1.22c-.1-1.34-.17-2.69-.22-4h91.41v.73l.32-.09Zm34.59-21.27a157.94,157.94,0,0,1-28.46,11.55l0-.24c0-.67-.12-1.33-.2-2a.2.2,0,0,0,0-.07c-.08-.68-.18-1.37-.29-2,0-.2-.07-.39-.1-.59-.09-.51-.18-1-.28-1.53l-.12-.58c-.14-.67-.29-1.35-.45-2,0,0,0-.09,0-.13-.15-.63-.32-1.25-.5-1.88-.06-.19-.12-.38-.17-.57-.15-.5-.31-1-.47-1.5l-.18-.53c-.22-.65-.45-1.3-.69-1.94a2.6,2.6,0,0,1-.1-.25c-.22-.56-.45-1.11-.68-1.67a2.6,2.6,0,0,1-.1-.25,156.33,156.33,0,0,1,29.92-5.07c10.29-.53,14.05,1.16,14.7,1.89C173.17,75.43,170.75,78.87,161.62,83.87Z"/><path class="cls-3" d="M80.92,52.83c-23.69,0-43.26,19.18-45.1,43.43H126C124.17,72,104.6,52.83,80.92,52.83Z"/><path class="cls-5" d="M57.59,137.49a2.61,2.61,0,0,0-.72.22,3,3,0,0,0,.45.89,2.71,2.71,0,0,0,.58.59,2.35,2.35,0,0,0,.36-.64,2.71,2.71,0,0,0,.2-1A2.3,2.3,0,0,0,57.59,137.49Z"/><path class="cls-9" d="M62.26,134a3.72,3.72,0,0,0-3.18-1.13h0l-3.8.52a4,4,0,0,0-3.15,2.5,4.77,4.77,0,0,0-.27,1.05,4.89,4.89,0,0,0,0,.54,4.29,4.29,0,0,0,.81,2.51l1.13,1.54.86,1.17A4.24,4.24,0,0,0,56.09,144a4,4,0,0,0,1.83.44,4.53,4.53,0,0,0,.52,0,4.06,4.06,0,0,0,1.53-.54,4.22,4.22,0,0,0,1.75-2.08l.53-1.3.83-2.1a4.12,4.12,0,0,0-.82-4.34Zm-4,4.55a2.35,2.35,0,0,1-.36.64,2.71,2.71,0,0,1-.58-.59,3,3,0,0,1-.45-.89,2.61,2.61,0,0,1,.72-.22,2.3,2.3,0,0,1,.87,0A2.71,2.71,0,0,1,58.26,138.55Z"/></g></g></svg>
