<svg xmlns="http://www.w3.org/2000/svg" viewBox="0 0 170 280"><defs><style>.cls-1,.cls-12,.cls-15{fill:none;}.cls-14,.cls-2{fill:#c69c6d;}.cls-3{fill:#a6d9ac;}.cls-13,.cls-4{fill:#f9e8d8;}.cls-5{fill:#75272d;}.cls-6{fill:#ffffe2;}.cls-7{fill:#44210b;}.cls-8{fill:#390000;}.cls-9{fill:#d36609;}.cls-10{fill:#231f20;}.cls-11{fill:#f15a24;}.cls-12{stroke:#39b54a;}.cls-12,.cls-13,.cls-14,.cls-15{stroke-miterlimit:10;}.cls-13,.cls-15{stroke:#000;}.cls-13{stroke-width:0.25px;}.cls-14{stroke:#c69c6d;stroke-width:2px;}.cls-15{stroke-width:0.5px;}</style></defs><title>Nerd</title><g id="Figurdesign"><g id="Nerd"><polygon class="cls-1" points="83.15 192.37 83.15 191.58 83.13 192.37 83.15 192.37"/><path class="cls-2" d="M97,191.58H83.15v.79h0l0-.79H52l-1.65,2-1.52,2.11-.45,58c7.5-2.2,19.3-3.71,32.62-3.9L82.3,198.3l.68,0v0H74.45v-.4H92.24v.4h-8.7v51.59c12.08.07,22.92,1.23,30.44,3V193.56l-1.18-2Z"/><path class="cls-3" d="M81.49,148.9a1,1,0,0,0-.61-.21,1,1,0,0,0-.61,1.77,1,1,0,0,0,1.39-.17A1,1,0,0,0,81.49,148.9Zm-1.11.75a.14.14,0,1,1-.22-.18.14.14,0,0,1,.2,0A.14.14,0,0,1,80.38,149.65Zm1.19,0a.14.14,0,0,1-.2,0,.14.14,0,0,1,0-.2.14.14,0,0,1,.2,0A.15.15,0,0,1,81.57,149.65Z"/><path class="cls-3" d="M88.73,144.05l0,3.63a.62.62,0,0,1-.91.55l-3.17-1.78-3.13-1.75v.23a.4.4,0,0,1-.8,0v-.25l-3,1.77-3.12,1.85a.61.61,0,0,1-.92-.52l0-3.64,0-2a37.86,37.86,0,0,1-9.09-2.71,16.9,16.9,0,0,0-16.23,16.83V173h0v18.58l1.87,3.81.1-1.83,1.65-2H112.8l1.18,2V173h-.09V156.24A16.9,16.9,0,0,0,97,139.39H94.61a39.92,39.92,0,0,1-5.92,2.05ZM82,186.9a1.37,1.37,0,0,1-1.09.53,1.35,1.35,0,0,1-.85-.29A1.38,1.38,0,1,1,82,186.9Zm0-8.7a1.37,1.37,0,0,1-1.09.53,1.35,1.35,0,0,1-.85-.29A1.38,1.38,0,1,1,82,178.2Zm0-8.3a1.37,1.37,0,0,1-1.09.53,1.35,1.35,0,0,1-.85-.29A1.38,1.38,0,1,1,82,169.9Zm0-9.49a1.37,1.37,0,0,1-1.09.53,1.35,1.35,0,0,1-.85-.29,1.38,1.38,0,1,1,1.94-.24Zm0-9.88a1.37,1.37,0,0,1-1.09.53,1.41,1.41,0,0,1-.85-.29,1.38,1.38,0,1,1,1.94-.24Z"/><path class="cls-3" d="M79.24,142.6l1.53.87v-.12a.4.4,0,1,1,.8,0v.25l2-1.22a35.84,35.84,0,0,1-4,.23Z"/><path class="cls-3" d="M81.49,185.27a1,1,0,0,0-.61-.21,1,1,0,0,0-.61,1.77,1,1,0,1,0,1.22-1.56Zm-1.11.75a.14.14,0,0,1-.2,0,.14.14,0,0,1,.18-.22A.14.14,0,0,1,80.38,186Zm1.19,0a.14.14,0,0,1-.2,0,.13.13,0,0,1,0-.2.14.14,0,0,1,.2,0A.15.15,0,0,1,81.57,186Z"/><path class="cls-3" d="M81.49,168.27a1,1,0,0,0-.61-.21,1,1,0,0,0-.61,1.77,1,1,0,1,0,1.22-1.56Zm-1.11.75a.14.14,0,0,1-.2,0,.14.14,0,0,1,.18-.22A.14.14,0,0,1,80.38,169Zm1.19,0a.14.14,0,0,1-.2,0,.13.13,0,0,1,0-.2.14.14,0,0,1,.2,0A.15.15,0,0,1,81.57,169Z"/><path class="cls-3" d="M81.49,176.57a1,1,0,0,0-.61-.21,1,1,0,0,0-.61,1.77,1,1,0,0,0,1.22-1.56Zm-1.11.75a.15.15,0,0,1-.2,0,.14.14,0,0,1,0-.2.13.13,0,0,1,.2,0A.14.14,0,0,1,80.38,177.32Zm1.19,0a.15.15,0,0,1-.2,0,.14.14,0,0,1,.17-.23A.15.15,0,0,1,81.57,177.32Z"/><path class="cls-3" d="M81.49,158.78a1,1,0,0,0-.61-.21,1,1,0,0,0-.61,1.77,1,1,0,1,0,1.22-1.56Zm-1.11.75a.15.15,0,0,1-.2,0,.14.14,0,0,1,0-.2.13.13,0,0,1,.2,0A.14.14,0,0,1,80.38,159.53Zm1.19,0a.15.15,0,0,1-.2,0,.14.14,0,0,1,.17-.23A.15.15,0,0,1,81.57,159.53Z"/><path d="M83.54,198.3h8.7v-.4H74.45v.4h8.7v51.59h.39Z"/><path d="M81,249.72h.58l.06,5.45,1.47-56.84H83l-.68,0Z"/><path class="cls-4" d="M130.15,53a49.22,49.22,0,0,1-8.28-.68,50.55,50.55,0,0,1-20.71-8.81,51.52,51.52,0,0,1-14,1.65,52.69,52.69,0,0,1-13.32-2.24c-5.43,5.33-18.15,9.27-29,9A51.86,51.86,0,0,1,25.73,47.4a29.88,29.88,0,0,1-5-2.83,160.78,160.78,0,0,0,1.1,18.88c5.21-5.2,8.72-5.44,15.4-1.16,5.65,2.64,15.93,9.54,18,13.56,1.09-6.32,8.25-11.22,16.9-11.22,9,0,16.41,5.32,17,12a.46.46,0,0,1,.47.29A3.46,3.46,0,0,0,92.06,79a7.76,7.76,0,0,0,4.52-.23c3.18-1.06,5.19-3.64,4.48-5.74a.44.44,0,0,1,.28-.56h0a9.24,9.24,0,0,1-.87-3.88c0-6.35,6.67-11.52,14.88-11.52,6.31,0,11.72,3.07,13.87,7.38a12.42,12.42,0,0,0,2.56-3.55c3.68-6.27,4.88-7.86,6.37-7h0c0-.52.06-1,.08-1.56A54.8,54.8,0,0,1,130.15,53Z"/><path class="cls-4" d="M74.58,140l3.16,1.78,1.31.74h.54a37.19,37.19,0,0,0,4.22-.25l.83-.49,3.12-1.86a.61.61,0,0,1,.92.51v.92c11.83-3.06,22.81-12,31.59-26,10.16-16.19,16.42-37.54,17.84-60.62a.42.42,0,0,1-.38,0c-.72-.39-1.92,1.17-5.16,6.7a13.16,13.16,0,0,1-3,4,9.21,9.21,0,0,1,.61,3.27c0,6.35-6.67,11.51-14.87,11.51-5.8,0-10.83-2.58-13.28-6.34.07,2.32-2,4.79-5.22,5.86a9.66,9.66,0,0,1-3,.51,7.45,7.45,0,0,1-2-.28,4.6,4.6,0,0,1-2.71-1.84c-.37,6.87-7.87,12.37-17,12.37-9.4,0-17-5.78-17-12.9v-.15a.44.44,0,0,1-.39-.39c-.36-3.14-11.35-10.88-17.81-13.9l0,0c-6.42-4.11-9.56-3.83-14.59,1.3a.46.46,0,0,1-.24.12,148.7,148.7,0,0,0,3.41,18.19A115.9,115.9,0,0,0,38,113.82c5.4,9,11.7,16.06,18.71,21a41,41,0,0,0,17,7.21l0-1.51A.6.6,0,0,1,74.58,140Zm45.75-44.75a.56.56,0,0,1,.35-.34,1,1,0,0,1,1.14.7,1.09,1.09,0,0,1,.05.88.57.57,0,0,1-.35.33.45.45,0,0,1-.2,0,1.15,1.15,0,0,1-.94-.74A1.07,1.07,0,0,1,120.33,95.23Zm-2.58,1.23a.72.72,0,0,1,.39.43.84.84,0,0,1-.39,1,.62.62,0,0,1-.29.07.69.69,0,0,1-.24,0,.77.77,0,0,1-.4-.43.85.85,0,0,1,.4-1A.65.65,0,0,1,117.75,96.46Zm-1.44-4.78a.72.72,0,0,1,.51-.17.76.76,0,0,1,.66.85.87.87,0,0,1-.28.57.7.7,0,0,1-.45.17h-.06a.76.76,0,0,1-.66-.85A.84.84,0,0,1,116.31,91.68ZM93.72,94.34a.25.25,0,0,1,.13-.14.25.25,0,0,1,.19,0,.25.25,0,0,1,.14.13A5.18,5.18,0,0,0,97.33,97a6,6,0,0,0,7.36-3.5,5.19,5.19,0,0,0-.12-4.16.25.25,0,0,1,0-.19.25.25,0,0,1,.13-.14.24.24,0,0,1,.32.12,5.67,5.67,0,0,1,.14,4.55,6.44,6.44,0,0,1-3.25,3.45,6.59,6.59,0,0,1-2.81.64,6.2,6.2,0,0,1-1.91-.3,5.67,5.67,0,0,1-3.45-3A.25.25,0,0,1,93.72,94.34Zm-4.52,21a.47.47,0,0,1,.21-.27.44.44,0,0,1,.34,0,18.67,18.67,0,0,0,6.71-.1c3.77-.62,5.93-1.66,6.34-2a.41.41,0,0,1,.32-.12.49.49,0,0,1,.3.14.44.44,0,0,1,0,.63,5.28,5.28,0,0,1-1.45.81l2.13,6.09-4.1,1.43,0,0-2.18-6.25-.42.08-1.42,8.53-5.34-.9,1.12-7.15a11.51,11.51,0,0,1-2.2-.26A.46.46,0,0,1,89.2,115.33ZM67.37,100.91a1,1,0,0,1,1.26-.66,1,1,0,0,1,.61.49,1,1,0,0,1,.08.74,1,1,0,0,1-1,.7.93.93,0,0,1-.29-.05.94.94,0,0,1-.61-.49A.89.89,0,0,1,67.37,100.91Zm-4-.36a.86.86,0,0,1-.27,0,.79.79,0,0,1-.42-.12,1.5,1.5,0,0,1-.43-1.8,1.29,1.29,0,0,1,.74-.79.8.8,0,0,1,.69.07,1.5,1.5,0,0,1,.44,1.8A1.33,1.33,0,0,1,63.36,100.55Zm.77,6.2a1,1,0,0,1,.28-.71,1,1,0,0,1,1.78.71.94.94,0,0,1-.28.71,1,1,0,0,1-.73.3,1,1,0,0,1-.72-.29A1,1,0,0,1,64.13,106.75Z"/><path class="cls-5" d="M79.05,142.5l.19.1h.35a35.84,35.84,0,0,0,4-.23l.2-.12a37.19,37.19,0,0,1-4.22.25Z"/><path class="cls-4" d="M72.08,65.12c-9.13,0-16.56,5.56-16.56,12.4S63,89.93,72.08,89.93s16.55-5.57,16.55-12.41S81.21,65.12,72.08,65.12Zm1.78,15a2.82,2.82,0,1,1,3-2.81A2.92,2.92,0,0,1,73.86,80.14Z"/><path d="M88.72,77.27c0,.09,0,.17,0,.25,0,6.9-7.47,12.51-16.65,12.51S55.42,84.42,55.42,77.52c0-.11,0-.22,0-.33v0a.45.45,0,0,1-.3.16v.15c0,7.06,7.6,12.8,16.95,12.8,9.18,0,16.68-5.54,16.93-12.43A3.92,3.92,0,0,1,88.72,77.27Z"/><path d="M89,76.66h0C88.4,70,81,64.72,72.08,64.72c-8.67,0-15.83,4.94-16.83,11.28a3.66,3.66,0,0,1,.22.63C56.08,70.15,63.29,65,72.08,65s16.23,5.3,16.63,11.92A.47.47,0,0,1,89,76.66Z"/><path d="M138.12,54a1.32,1.32,0,0,0-.64-.18c-1.19,0-2.51,1.93-5.59,7.19a12.46,12.46,0,0,1-2.6,3.59c.11.23.21.45.3.68a12.91,12.91,0,0,0,2.9-3.94c3.36-5.72,4.5-7.17,5.3-6.74a.34.34,0,0,0,.47-.13.42.42,0,0,0,0-.27A.34.34,0,0,0,138.12,54Z"/><path class="cls-4" d="M115.37,79.65c7.93,0,14.38-4.94,14.38-11s-6.45-11-14.38-11S101,62.55,101,68.63,107.44,79.65,115.37,79.65Zm2-13.89a2.45,2.45,0,1,1-2.62,2.45A2.53,2.53,0,0,1,117.34,65.76Z"/><path d="M115.37,57.21c-8.15,0-14.78,5.12-14.78,11.42a9.12,9.12,0,0,0,.87,3.86.45.45,0,0,1,.45.3,3.75,3.75,0,0,1,.16.81c2.39,3.81,7.45,6.44,13.3,6.44,8.14,0,14.77-5.12,14.77-11.41S123.51,57.21,115.37,57.21ZM100.89,68.63c0-6.13,6.49-11.12,14.48-11.12s14.48,5,14.48,11.12-6.5,11.12-14.48,11.12S100.89,74.76,100.89,68.63Z"/><path class="cls-5" d="M115.37,79.75c8,0,14.48-5,14.48-11.12s-6.5-11.12-14.48-11.12-14.48,5-14.48,11.12S107.38,79.75,115.37,79.75Zm0-22.14c7.93,0,14.38,4.94,14.38,11s-6.45,11-14.38,11S101,74.71,101,68.63,107.44,57.61,115.37,57.61Z"/><path d="M93.81,94.37a.17.17,0,0,0,0,.12,5.63,5.63,0,0,0,3.39,2.92,6.31,6.31,0,0,0,1.88.29,6.41,6.41,0,0,0,2.77-.63,6.31,6.31,0,0,0,3.19-3.4,5.56,5.56,0,0,0-.12-4.47.16.16,0,0,0-.2-.07.14.14,0,0,0-.08.09.14.14,0,0,0,0,.11,5.29,5.29,0,0,1,.12,4.24,6.13,6.13,0,0,1-7.48,3.55,5.28,5.28,0,0,1-3.21-2.76.18.18,0,0,0-.09-.08h0l-.06,0A.2.2,0,0,0,93.81,94.37Z"/><path class="cls-5" d="M97.18,97.5a6.2,6.2,0,0,0,1.91.3,6.59,6.59,0,0,0,2.81-.64,6.44,6.44,0,0,0,3.25-3.45,5.67,5.67,0,0,0-.14-4.55.24.24,0,0,0-.32-.12.25.25,0,0,0-.13.14.25.25,0,0,0,0,.19,5.19,5.19,0,0,1,.12,4.16A6,6,0,0,1,97.33,97a5.18,5.18,0,0,1-3.15-2.71.25.25,0,0,0-.14-.13.25.25,0,0,0-.19,0,.25.25,0,0,0-.13.14.25.25,0,0,0,0,.19A5.67,5.67,0,0,0,97.18,97.5ZM94,94.28a.18.18,0,0,1,.09.08,5.28,5.28,0,0,0,3.21,2.76,6.13,6.13,0,0,0,7.48-3.55,5.29,5.29,0,0,0-.12-4.24.14.14,0,0,1,0-.11.14.14,0,0,1,.08-.09.16.16,0,0,1,.2.07,5.56,5.56,0,0,1,.12,4.47,6.31,6.31,0,0,1-3.19,3.4,6.41,6.41,0,0,1-2.77.63,6.31,6.31,0,0,1-1.88-.29,5.63,5.63,0,0,1-3.39-2.92.17.17,0,0,1,0-.12.2.2,0,0,1,.08-.08l.06,0Z"/><path d="M101.81,72.82a.34.34,0,1,0-.65.22c.72,2.15-1.32,4.78-4.54,5.87a7.91,7.91,0,0,1-4.59.22A3.55,3.55,0,0,1,89.45,77a.34.34,0,0,0-.33-.24l-.11,0a.35.35,0,0,0-.21.44,4.21,4.21,0,0,0,3,2.6,7.23,7.23,0,0,0,2,.27,9.24,9.24,0,0,0,3-.51C100.42,78.36,102.66,75.33,101.81,72.82Z"/><path d="M22.12,64.28c2.75-2.81,4.95-4.18,7.41-4.18,2.07,0,4.34,1,7.3,2.87l0,0c6.48,3,17.51,10.81,17.86,14a.36.36,0,0,0,.35.31h0a.35.35,0,0,0,.23-.12.36.36,0,0,0,.07-.26C55,73.18,43.34,65.25,37.19,62.37c-6.76-4.32-10.25-4-15.57,1.43a.35.35,0,0,0,.25.59h0A.36.36,0,0,0,22.12,64.28Z"/><path d="M73.86,75a2.33,2.33,0,1,0,2.52,2.33A2.44,2.44,0,0,0,73.86,75Zm.79,4.3a1,1,0,1,1,1-1A1,1,0,0,1,74.65,79.3Z"/><path d="M73.86,74.61a2.72,2.72,0,1,0,2.91,2.72A2.83,2.83,0,0,0,73.86,74.61Zm0,5.14a2.43,2.43,0,1,1,2.62-2.42A2.53,2.53,0,0,1,73.86,79.75Z"/><path class="cls-5" d="M73.86,74.51a2.82,2.82,0,1,0,3,2.82A2.92,2.92,0,0,0,73.86,74.51Zm0,5.53a2.72,2.72,0,1,1,2.91-2.71A2.82,2.82,0,0,1,73.86,80Z"/><path class="cls-5" d="M73.86,74.9a2.43,2.43,0,1,0,2.62,2.43A2.53,2.53,0,0,0,73.86,74.9Zm0,4.75a2.33,2.33,0,1,1,2.52-2.32A2.43,2.43,0,0,1,73.86,79.65Z"/><path d="M117.34,70.16a2,2,0,1,0-2.12-2A2.05,2.05,0,0,0,117.34,70.16Zm.4-2.32a1,1,0,1,1-1,1A1,1,0,0,1,117.74,67.84Z"/><path d="M117.34,70.56a2.36,2.36,0,1,0-2.52-2.35A2.45,2.45,0,0,0,117.34,70.56Zm0-4.41a2.06,2.06,0,1,1-2.22,2.06A2.15,2.15,0,0,1,117.34,66.15Z"/><path class="cls-5" d="M117.34,70.65a2.45,2.45,0,1,0-2.62-2.44A2.53,2.53,0,0,0,117.34,70.65Zm0-4.8a2.36,2.36,0,1,1-2.52,2.36A2.45,2.45,0,0,1,117.34,65.85Z"/><path class="cls-5" d="M117.34,70.26a2.06,2.06,0,1,0-2.22-2.05A2.15,2.15,0,0,0,117.34,70.26Zm0-4a2,2,0,1,1-2.12,2A2.06,2.06,0,0,1,117.34,66.25Z"/><path class="cls-6" d="M96.61,115.8a25.41,25.41,0,0,1-4.15.36h-.64l-1.11,7.06,5.15.86,1.4-8.39Z"/><path class="cls-6" d="M97.87,115.56l2.17,6.19,3.91-1.37-2.09-6A22.78,22.78,0,0,1,97.87,115.56Z"/><path class="cls-5" d="M89.52,115.88a11.51,11.51,0,0,0,2.2.26l-1.12,7.15,5.34.9,1.42-8.53.42-.08,2.18,6.25,0,0,4.1-1.43L102,114.35a5.28,5.28,0,0,0,1.45-.81.44.44,0,0,0,0-.63.49.49,0,0,0-.3-.14.41.41,0,0,0-.32.12c-.41.37-2.57,1.41-6.34,2a18.67,18.67,0,0,1-6.71.1.44.44,0,0,0-.34,0,.47.47,0,0,0-.21.27A.46.46,0,0,0,89.52,115.88ZM100,121.75l-2.17-6.19a22.78,22.78,0,0,0,4-1.17l2.09,6Zm-9.33,1.46,1.11-7.06h.64a25.41,25.41,0,0,0,4.15-.36l.65-.12-1.4,8.39Z"/><path class="cls-7" d="M121.49,96.71a.5.5,0,0,0,.29-.28,1,1,0,0,0,0-.8c-.21-.48-.67-.77-1-.65a.52.52,0,0,0-.29.29,1,1,0,0,0,0,.79C120.68,96.54,121.14,96.83,121.49,96.71Z"/><path class="cls-5" d="M121.32,96.84a.45.45,0,0,0,.2,0,.57.57,0,0,0,.35-.33,1.09,1.09,0,0,0-.05-.88,1,1,0,0,0-1.14-.7.56.56,0,0,0-.35.34,1.07,1.07,0,0,0,0,.87A1.15,1.15,0,0,0,121.32,96.84Zm-.9-1.57a.52.52,0,0,1,.29-.29c.35-.12.81.17,1,.65a1,1,0,0,1,0,.8.5.5,0,0,1-.29.28c-.35.12-.81-.17-1-.65A1,1,0,0,1,120.42,95.27Z"/><path class="cls-8" d="M116.7,93a.57.57,0,0,0,.43-.15.68.68,0,0,0,.25-.5.67.67,0,0,0-.57-.74h0a.64.64,0,0,0-.39.14.74.74,0,0,0-.24.5A.68.68,0,0,0,116.7,93Z"/><path class="cls-5" d="M116.69,93.09h.06a.7.7,0,0,0,.45-.17.87.87,0,0,0,.28-.57.76.76,0,0,0-.66-.85.72.72,0,0,0-.51.17.84.84,0,0,0-.28.56A.76.76,0,0,0,116.69,93.09Zm.07-1.48h0a.67.67,0,0,1,.57.74.68.68,0,0,1-.25.5.57.57,0,0,1-.43.15.68.68,0,0,1-.57-.75.74.74,0,0,1,.24-.5A.64.64,0,0,1,116.76,91.61Z"/><path class="cls-7" d="M116.92,97.48a.62.62,0,0,0,.34.37.52.52,0,0,0,.44,0,.75.75,0,0,0,.35-.91.58.58,0,0,0-.34-.36.45.45,0,0,0-.2,0,.53.53,0,0,0-.25,0A.74.74,0,0,0,116.92,97.48Z"/><path class="cls-5" d="M116.82,97.51a.77.77,0,0,0,.4.43.69.69,0,0,0,.24,0,.62.62,0,0,0,.29-.07.84.84,0,0,0,.39-1,.72.72,0,0,0-.39-.43.65.65,0,0,0-.53,0A.85.85,0,0,0,116.82,97.51Zm.89-1a.58.58,0,0,1,.34.36.75.75,0,0,1-.35.91.52.52,0,0,1-.44,0,.62.62,0,0,1-.34-.37.74.74,0,0,1,.34-.91.53.53,0,0,1,.25,0A.45.45,0,0,1,117.71,96.56Z"/><path class="cls-7" d="M63.62,98a.65.65,0,0,0-.36-.1A.67.67,0,0,0,63,98a1.19,1.19,0,0,0-.69.73,1.41,1.41,0,0,0,.39,1.69.73.73,0,0,0,.61.06,1.21,1.21,0,0,0,.68-.73A1.4,1.4,0,0,0,63.62,98Z"/><path class="cls-5" d="M63.67,98a.8.8,0,0,0-.69-.07,1.29,1.29,0,0,0-.74.79,1.5,1.5,0,0,0,.43,1.8.79.79,0,0,0,.42.12.86.86,0,0,0,.27,0,1.33,1.33,0,0,0,.75-.79A1.5,1.5,0,0,0,63.67,98Zm-.34,2.5a.73.73,0,0,1-.61-.06,1.41,1.41,0,0,1-.39-1.69A1.19,1.19,0,0,1,63,98a.67.67,0,0,1,.24,0,.65.65,0,0,1,.36.1A1.4,1.4,0,0,1,64,99.73,1.21,1.21,0,0,1,63.33,100.46Z"/><path class="cls-8" d="M64.23,106.74a.93.93,0,0,0,.3.66.94.94,0,0,0,1.31,0,.85.85,0,0,0,.25-.64.89.89,0,0,0-.29-.65.94.94,0,0,0-1.32,0A.91.91,0,0,0,64.23,106.74Z"/><path class="cls-5" d="M65.91,107.46a.94.94,0,0,0,.28-.71,1,1,0,0,0-1.78-.71,1,1,0,0,0-.28.71,1,1,0,0,0,.33.72,1,1,0,0,0,.72.29A1,1,0,0,0,65.91,107.46Zm-.11-1.36a.89.89,0,0,1,.29.65.85.85,0,0,1-.25.64.94.94,0,0,1-1.31,0,.93.93,0,0,1-.3-.66.91.91,0,0,1,.25-.63A.94.94,0,0,1,65.8,106.1Z"/><path class="cls-7" d="M68.07,102a.94.94,0,0,0,1.15-.59.87.87,0,0,0-.06-.67.93.93,0,0,0-.55-.44,1.24,1.24,0,0,0-.27,0,.91.91,0,0,0-.88.63.85.85,0,0,0,.06.66A.93.93,0,0,0,68.07,102Z"/><path class="cls-5" d="M68.05,102.13a.93.93,0,0,0,.29.05,1,1,0,0,0,1-.7,1,1,0,0,0-.08-.74,1,1,0,0,0-.61-.49,1,1,0,0,0-1.26.66.89.89,0,0,0,.07.73A.94.94,0,0,0,68.05,102.13Zm-.59-1.19a.91.91,0,0,1,.88-.63,1.24,1.24,0,0,1,.27,0,.93.93,0,0,1,.55.44.87.87,0,0,1,.06.67.94.94,0,0,1-1.7.15A.85.85,0,0,1,67.46,100.94Z"/><path class="cls-9" d="M153.11,37c-2.22-3-6.12-6-11-8.44a48.43,48.43,0,0,0-15.7-4.93,46.88,46.88,0,0,0-12.49.21h0c-6.11-4.6-16.5-7.73-25.53-7.73h-.78c-9.74.19-21,4.18-26.22,9.28l0,0h0a48.52,48.52,0,0,0-16-2.57,48.64,48.64,0,0,0-19.7,4.85c-6,3-9.48,6.7-9.41,10.09,0,1.73.95,3.46,2.72,5.16a25.14,25.14,0,0,0,6.85,4.38,51.69,51.69,0,0,0,19.1,4.42c10.83.31,23.53-3.62,28.93-9l0,0h0A52.27,52.27,0,0,0,87.17,45a51.43,51.43,0,0,0,14-1.65h0l0,0a50.35,50.35,0,0,0,20.68,8.8,52.12,52.12,0,0,0,16.59,0c5.49-.87,10.15-2.51,13.12-4.62,2-1.44,3.19-3,3.46-4.73S154.7,39.12,153.11,37Z"/><path class="cls-5" d="M153.19,36.94c-2.23-3-6.14-6-11-8.47a48.86,48.86,0,0,0-15.73-4.94,47.8,47.8,0,0,0-12.5.2C107.84,19.13,97.43,16,88.39,16h-.78c-9.75.2-21,4.19-26.27,9.28a48.77,48.77,0,0,0-16-2.56,48.67,48.67,0,0,0-19.74,4.86c-6.08,3-9.54,6.75-9.47,10.18,0,2.3,1.62,4.6,4.53,6.72v0a163.34,163.34,0,0,0,1.11,19c-.06.06-.12.13-.19.19a.44.44,0,0,0,0,.63.41.41,0,0,0,.3.12,147.48,147.48,0,0,0,3.4,18.21,116.05,116.05,0,0,0,12.63,31.18c5.42,9,11.72,16.08,18.74,21a45.62,45.62,0,0,0,8,4.52,37.86,37.86,0,0,0,9.09,2.71V142a41,41,0,0,1-17-7.21c-7-4.93-13.31-12-18.71-21A115.9,115.9,0,0,1,25.36,82.66,148.7,148.7,0,0,1,22,64.47a.46.46,0,0,0,.24-.12c5-5.13,8.17-5.41,14.59-1.3l0,0c6.46,3,17.45,10.76,17.81,13.9a.44.44,0,0,0,.39.39v.15c0,7.12,7.65,12.9,17,12.9,9.16,0,16.66-5.5,17-12.37a4.6,4.6,0,0,0,2.71,1.84,7.45,7.45,0,0,0,2,.28,9.66,9.66,0,0,0,3-.51c3.17-1.07,5.29-3.54,5.22-5.86,2.45,3.76,7.48,6.34,13.28,6.34,8.2,0,14.87-5.16,14.87-11.51a9.21,9.21,0,0,0-.61-3.27,13.16,13.16,0,0,0,3-4c3.24-5.53,4.44-7.09,5.16-6.7a.42.42,0,0,0,.38,0c-1.42,23.08-7.68,44.43-17.84,60.62-8.78,14-19.76,23-31.59,26v.1a39.92,39.92,0,0,0,5.92-2.05c9.59-4.18,18.44-12.36,25.76-24,10.17-16.22,16.44-37.61,17.86-60.73a.53.53,0,0,0,.11-.14.44.44,0,0,0,0-.34.49.49,0,0,0-.11-.18c0-.54.06-1.1.08-1.65l.15,0c5.5-.86,10.17-2.51,13.16-4.63,2-1.46,3.22-3.07,3.5-4.79S154.79,39.08,153.19,36.94ZM151.6,47.59c-3,2.11-7.63,3.75-13.12,4.62a52.12,52.12,0,0,1-16.59,0,50.35,50.35,0,0,1-20.68-8.8l0,0h0a51.43,51.43,0,0,1-14,1.65,52.27,52.27,0,0,1-13.32-2.25h0l0,0c-5.4,5.34-18.1,9.27-28.93,9a51.69,51.69,0,0,1-19.1-4.42,25.14,25.14,0,0,1-6.85-4.38c-1.77-1.7-2.69-3.43-2.72-5.16-.07-3.39,3.37-7.07,9.41-10.09a48.64,48.64,0,0,1,19.7-4.85,48.52,48.52,0,0,1,16,2.57h0l0,0c5.21-5.1,16.48-9.09,26.22-9.28h.78c9,0,19.42,3.13,25.53,7.73h0a46.88,46.88,0,0,1,12.49-.21,48.43,48.43,0,0,1,15.7,4.93C147,31,150.89,34,153.11,37c1.59,2.12,2.24,4.09,1.95,5.86S153.62,46.15,151.6,47.59Zm-13.34,6.86a.34.34,0,0,1-.47.13c-.8-.43-1.94,1-5.3,6.74a12.91,12.91,0,0,1-2.9,3.94c-.09-.23-.19-.45-.3-.68a12.46,12.46,0,0,0,2.6-3.59c3.08-5.26,4.4-7.19,5.59-7.19a1.32,1.32,0,0,1,.64.18.34.34,0,0,1,.17.2A.42.42,0,0,1,138.26,54.45ZM115.37,80c-5.85,0-10.91-2.63-13.3-6.44a3.75,3.75,0,0,0-.16-.81.45.45,0,0,0-.45-.3,9.12,9.12,0,0,1-.87-3.86c0-6.3,6.63-11.42,14.78-11.42s14.77,5.12,14.77,11.42S123.51,80,115.37,80Zm-18.53-.48a9.24,9.24,0,0,1-3,.51,7.23,7.23,0,0,1-2-.27,4.21,4.21,0,0,1-3-2.6.35.35,0,0,1,.21-.44l.11,0a.34.34,0,0,1,.33.24A3.55,3.55,0,0,0,92,79.13a7.91,7.91,0,0,0,4.59-.22c3.22-1.09,5.26-3.72,4.54-5.87a.34.34,0,1,1,.65-.22C102.66,75.33,100.42,78.36,96.84,79.56ZM72.08,90.32c-9.35,0-16.95-5.74-16.95-12.8v-.15a.45.45,0,0,0,.3-.16v0c0,.11,0,.22,0,.33,0,6.9,7.47,12.51,16.66,12.51s16.65-5.61,16.65-12.51c0-.08,0-.16,0-.25a3.92,3.92,0,0,0,.29.62C88.76,84.78,81.26,90.32,72.08,90.32ZM21.87,64.39h0a.35.35,0,0,1-.25-.59c5.32-5.43,8.81-5.75,15.57-1.43C43.34,65.25,55,73.18,55.42,76.89a.36.36,0,0,1-.07.26.35.35,0,0,1-.23.12h0a.36.36,0,0,1-.35-.31c-.35-3.17-11.38-11-17.86-14l0,0c-3-1.9-5.23-2.87-7.3-2.87-2.46,0-4.66,1.37-7.41,4.18A.36.36,0,0,1,21.87,64.39ZM88.63,77.52c0,6.84-7.42,12.41-16.55,12.41S55.52,84.36,55.52,77.52,63,65.12,72.08,65.12,88.63,70.68,88.63,77.52ZM72.08,65c-8.79,0-16,5.13-16.61,11.61a3.66,3.66,0,0,0-.22-.63c1-6.34,8.16-11.28,16.83-11.28C81,64.72,88.4,70,89,76.66h0a.47.47,0,0,0-.27.28C88.31,70.32,81,65,72.08,65Zm66.09-11.13c-1.49-.81-2.69.78-6.37,7a12.42,12.42,0,0,1-2.56,3.55c-2.15-4.31-7.56-7.38-13.87-7.38-8.21,0-14.88,5.17-14.88,11.52a9.24,9.24,0,0,0,.87,3.88h0a.44.44,0,0,0-.28.56c.71,2.1-1.3,4.68-4.48,5.74a7.76,7.76,0,0,1-4.52.23,3.46,3.46,0,0,1-2.51-2.1.46.46,0,0,0-.47-.29c-.59-6.7-8-12-17-12-8.65,0-15.81,4.9-16.9,11.22-2-4-12.3-10.92-18-13.56-6.68-4.28-10.19-4-15.4,1.16a160.78,160.78,0,0,1-1.1-18.88,29.88,29.88,0,0,0,5,2.83,51.86,51.86,0,0,0,19.14,4.43c10.83.31,23.55-3.63,29-9a52.69,52.69,0,0,0,13.32,2.24,51.52,51.52,0,0,0,14-1.65,50.55,50.55,0,0,0,20.71,8.81,49.22,49.22,0,0,0,8.28.68,54.8,54.8,0,0,0,8.1-.61c0,.52-.05,1-.08,1.56Z"/><path class="cls-6" d="M74.65,77.33a1,1,0,1,0,1,1A1,1,0,0,0,74.65,77.33Z"/><path class="cls-6" d="M117.74,69.81a1,1,0,1,0-1-1A1,1,0,0,0,117.74,69.81Z"/><path class="cls-10" d="M83.15,249.89H83l0,9,0,9c23.09.07,41.82-3.88,41.84-8.83,0-2.32-4.07-4.44-10.78-6.05-7.52-1.81-18.36-3-30.44-3Z"/><path class="cls-10" d="M81.56,249.71H81c-13.32.19-25.12,1.7-32.62,3.9-5.35,1.57-8.52,3.49-8.5,5.53.06,5,18.82,8.75,41.91,8.49l-.11-9,0-3.52Z"/><path class="cls-11" d="M81.73,176.26a1.38,1.38,0,0,0-1.7,2.18,1.35,1.35,0,0,0,.85.29,1.38,1.38,0,0,0,.85-2.47Zm-.07,1.7a1,1,0,0,1-1.56-1.22,1,1,0,0,1,.78-.38,1,1,0,0,1,.78,1.6Z"/><path d="M80.16,177.15a.14.14,0,0,0,0,.2.15.15,0,0,0,.2,0,.14.14,0,0,0,0-.2A.13.13,0,0,0,80.16,177.15Z"/><path d="M81.34,177.15a.14.14,0,0,0,0,.2.14.14,0,0,0,.17-.23A.14.14,0,0,0,81.34,177.15Z"/><path class="cls-11" d="M81.73,185a1.38,1.38,0,0,0-1.7,2.18,1.35,1.35,0,0,0,.85.29,1.38,1.38,0,0,0,.85-2.47Zm-.07,1.7a1,1,0,0,1-1.56-1.22,1,1,0,0,1,.78-.38,1,1,0,0,1,.78,1.6Z"/><path d="M80.16,185.84a.14.14,0,0,0,0,.2.14.14,0,1,0,.18-.22A.14.14,0,0,0,80.16,185.84Z"/><path d="M81.34,185.84a.13.13,0,0,0,0,.2.14.14,0,0,0,.2,0,.15.15,0,0,0,0-.2A.14.14,0,0,0,81.34,185.84Z"/><path class="cls-11" d="M81.73,168a1.38,1.38,0,0,0-1.7,2.18,1.35,1.35,0,0,0,.85.29,1.38,1.38,0,0,0,.85-2.47Zm-.07,1.7a1,1,0,0,1-1.56-1.22,1,1,0,0,1,.78-.38,1,1,0,0,1,.78,1.6Z"/><path d="M80.16,168.84a.14.14,0,0,0,0,.2.14.14,0,1,0,.18-.22A.14.14,0,0,0,80.16,168.84Z"/><path d="M81.34,168.84a.13.13,0,0,0,0,.2.14.14,0,0,0,.2,0,.15.15,0,0,0,0-.2A.14.14,0,0,0,81.34,168.84Z"/><path class="cls-11" d="M81.73,158.47a1.38,1.38,0,0,0-1.7,2.18,1.35,1.35,0,0,0,.85.29,1.38,1.38,0,0,0,.85-2.47Zm-.07,1.7A1,1,0,0,1,80.1,159a1,1,0,0,1,.78-.38,1,1,0,0,1,.78,1.6Z"/><path d="M80.16,159.36a.14.14,0,0,0,0,.2.15.15,0,0,0,.2,0,.14.14,0,0,0,0-.2A.13.13,0,0,0,80.16,159.36Z"/><path d="M81.34,159.36a.14.14,0,0,0,0,.2.14.14,0,0,0,.17-.23A.14.14,0,0,0,81.34,159.36Z"/><path class="cls-11" d="M81.73,148.59a1.38,1.38,0,0,0-1.7,2.18,1.41,1.41,0,0,0,.85.29,1.38,1.38,0,0,0,.85-2.47Zm-.07,1.7a1,1,0,0,1-1.39.17,1,1,0,0,1,.61-1.77,1,1,0,0,1,.78,1.6Z"/><path d="M80.16,149.47a.14.14,0,1,0,.2,0A.14.14,0,0,0,80.16,149.47Z"/><path d="M81.34,149.47a.14.14,0,0,0,0,.2.14.14,0,0,0,.2,0,.15.15,0,0,0,0-.2A.14.14,0,0,0,81.34,149.47Z"/><rect class="cls-12" x="79.34" y="144.12" width="3.41" height="47.43"/><path class="cls-9" d="M73.75,147.78a.61.61,0,0,0,.92.52l3.12-1.85,3-1.77v.25a.4.4,0,0,0,.8,0v-.23l3.13,1.75,3.17,1.78a.62.62,0,0,0,.91-.55l0-3.63,0-2.61v-1a.61.61,0,0,0-.92-.51l-3.12,1.86-.83.49-.2.12-2,1.22v-.25a.4.4,0,1,0-.8,0v.12l-1.53-.87-.19-.1-1.31-.74L74.58,140a.6.6,0,0,0-.91.53l0,1.51v.1l0,2Z"/><polygon class="cls-13" points="49.14 187.55 49.14 196.71 37.7 166.94 49.14 176.87 49.14 187.55"/><polygon class="cls-13" points="120.1 170.39 123.24 166.66 113.7 194.13 113.38 178.21 120.1 170.39"/><polygon class="cls-3" points="35.15 168.08 51.08 178.91 50.44 158.45 52.7 145.18 35.15 168.08"/><polygon class="cls-3" points="125.69 163.66 108.74 144.54 113.36 163.61 113.25 178.39 125.69 163.66"/><polygon class="cls-14" points="56.34 199.85 49.09 200.78 49.52 191.84 56.34 191.84 56.34 199.85"/><rect class="cls-2" x="107.06" y="191.56" width="6.87" height="8.02"/><rect x="62.44" y="139.43" width="0.85" height="52.55" transform="translate(125.74 331.41) rotate(180)"/><rect x="50.8" y="166.06" width="0.39" height="11.53" transform="translate(33.56 350.21) rotate(-157.89)"/><polygon points="113.76 178.13 113.41 178.33 108.81 167.29 109.16 167.09 113.76 178.13"/><path class="cls-4" d="M17.2,61.54c3.18-1.1,8.67,4.79,10.72,10.73,2.21,6.37,1.15,14.84-2.13,15.84S17,82.57,15.16,76.18C13.49,70.48,14,62.63,17.2,61.54Z"/><path class="cls-15" d="M26.19,85.06c-3.12,2.15-7.56-2.48-9.2-7.45-2.07-6.31-.45-16.89,4.25-11.69"/><path class="cls-15" d="M22.31,80.65c-4.87-1-4.85-14.21-1.17-9.22"/><rect x="98.23" y="139.43" width="0.85" height="52.55" transform="translate(197.32 331.41) rotate(180)"/></g></g></svg>
