<svg xmlns="http://www.w3.org/2000/svg" viewBox="0 0 150 220"><defs><style>.cls-1{fill:#ffffbd;}.cls-2{fill:#a6d9ac;}</style></defs><title>Pause</title><g id="UI"><g id="Knapper"><g id="Pause"><path class="cls-1" d="M117.7,5.18H31.3a28,28,0,0,0-27.93,28V186.78a28,28,0,0,0,27.93,28h86.4a28,28,0,0,0,27.93-28V33.22A28,28,0,0,0,117.7,5.18ZM58.58,154a11.06,11.06,0,1,1-22.11,0V70.85a11.06,11.06,0,1,1,22.11,0Zm47.35-.28a11.06,11.06,0,1,1-22.11,0V70.57a11.06,11.06,0,1,1,22.11,0Z"/><path d="M117.7,5H31.3A28.2,28.2,0,0,0,3.19,33.22V186.78A28.2,28.2,0,0,0,31.3,215h86.4a28.2,28.2,0,0,0,28.11-28.22V33.22A28.2,28.2,0,0,0,117.7,5Zm27.93,181.78a28,28,0,0,1-27.93,28H31.3a28,28,0,0,1-27.93-28V33.22a28,28,0,0,1,27.93-28h86.4a28,28,0,0,1,27.93,28Z"/><path class="cls-2" d="M47.53,60.32A10.52,10.52,0,0,0,37,70.85V154a10.49,10.49,0,1,0,21,0V70.85A10.53,10.53,0,0,0,47.53,60.32Z"/><path d="M47.53,59.75a11.09,11.09,0,0,0-11.06,11.1V154a11.06,11.06,0,1,0,22.11,0V70.85A11.09,11.09,0,0,0,47.53,59.75ZM58,154a10.49,10.49,0,1,1-21,0V70.85a10.49,10.49,0,1,1,21,0Z"/><path class="cls-2" d="M94.88,60A10.52,10.52,0,0,0,84.39,70.57v83.11a10.49,10.49,0,1,0,21,0V70.57A10.52,10.52,0,0,0,94.88,60Z"/><path d="M94.88,59.47a11.09,11.09,0,0,0-11.06,11.1v83.11a11.06,11.06,0,1,0,22.11,0V70.57A11.09,11.09,0,0,0,94.88,59.47Zm10.49,94.21a10.49,10.49,0,1,1-21,0V70.57a10.49,10.49,0,1,1,21,0Z"/></g></g></g></svg>
