<svg xmlns="http://www.w3.org/2000/svg" viewBox="0 0 940 340"><defs><style>.cls-1{fill:#fbb08d;}.cls-2{fill:#a6d9ac;}</style></defs><title>Play-knapp</title><g id="Spillskjerm"><g id="Play"><path class="cls-1" d="M351.5,302.5s-136.78-60.56-100-179.91S435.46,30,435.46,30c-119.39-36.79-235-5.62-258.15,69.62S232.11,265.71,351.5,302.5Z"/><path d="M68.13,182.87,66.41,144.7l.46-.21A170.36,170.36,0,0,1,94,135.1c10.33-2.72,18.93-4.1,25.56-4.1h0c7.06,0,10.64,1.86,10.64,5.53,0,5.84-7,13.95-21.54,24.79C94.49,171.93,81.16,179.09,69,182.61Zm-.2-37.25,1.59,35.31c11.71-3.56,24.58-10.55,38.26-20.78,13.9-10.41,20.95-18.35,20.95-23.62,0-2.69-3.08-4.06-9.17-4.06-6.51,0-15,1.37-25.18,4.06A170,170,0,0,0,67.93,145.62Z"/><path class="cls-1" d="M235.5,226l-17.34-96.81c0-.43-1.44-1.41-4.33-3a11.27,11.27,0,0,1-4-3,107.85,107.85,0,0,0-3.05,13.24c-5.32,32.48,4.43,64.85,25.22,93C234.53,228.18,235.72,227,235.5,226Z"/><path d="M231.78,230.43l-.37-.51c-21.78-29.5-30.55-61.86-25.35-93.56A109.38,109.38,0,0,1,209.12,123l.45-1.52.87,1.32c.35.53,1.28,1.43,3.74,2.74,4.37,2.34,4.72,3,4.72,3.61l17.32,96.67c.38,1.86-2,3.34-3.89,4.29ZM210.17,124.7a107.38,107.38,0,0,0-2.66,11.9c-5.1,31.12,3.44,62.9,24.7,91.94,2-1.12,2.66-2,2.57-2.4v0l-17.33-96.76c-.14-.17-.83-.8-4-2.48A17.37,17.37,0,0,1,210.17,124.7Zm7.27,4.61s0,0,0,0Z"/><path class="cls-1" d="M460.75,205.21l56.94-3.84q-7-10.06-22.29-38.66Q466.11,187.48,460.75,205.21Z"/><path d="M459.74,206l.31-1c3.59-11.9,15.33-26.31,34.88-42.84l.69-.59.43.81c10.11,18.94,17.59,31.92,22.24,38.58L519,202Zm35.44-42.15c-18.35,15.62-29.58,29.25-33.39,40.54l54.56-3.68C511.7,193.85,504.59,181.47,495.18,163.86Z"/><path class="cls-1" d="M725.21,236.19q2.06,7.35,2.06,6.07,0,5.43-16.09,7.5a103.86,103.86,0,0,1-14.85,1q-18.17,0-30.94-3.51-14.46-3.84-12-9.74,1.23-2.72,9.08-7c5-2.56,7.14-4.9,6.6-7L665,205.84l-61.07-70q-1.65-2.07-10.31-6.87c-4.41-2.66-6.6-4.79-6.6-6.39,0-1.06.68-2.08,2.06-3q5.36-4,33.41-4,18.15,0,22.7,1.12Q658.77,120,660,124.76t2.48,9.19l38.78,46.64,28.16-28.24C650,92.72,502.63,36.86,427.4,24.53,326.15,7.94,233.58,50.21,210.72,120.37a16.58,16.58,0,0,1,5-2.37q8.67-3,24.76-3a149.57,149.57,0,0,1,26.19,2.23q12.58,2.25,15.89,5.28c1.37,1.17,2.06,2.18,2.06,3s-1.24,1.92-3.71,2.88-3.58,1.86-3.3,2.71l14.86,88.18,24.75-3.83q7.85-1.44,15.89-2.8a83.83,83.83,0,0,1,13.4-1.36q14.86,0,28.47,10.23a5.44,5.44,0,0,1,2.48,4.31c0,2.66-2.14,5.22-6.39,7.67a41.18,41.18,0,0,1-14.86,4.87,183.56,183.56,0,0,1-24.13,1.2,225.84,225.84,0,0,0-22.69.8,54.17,54.17,0,0,0-16.09,4.95q-7.85,3.36-27.23,4.48a67,67,0,0,1-17.9-1.51c31.36,31.77,77.81,55.83,132,64.71,108.79,17.83,389.59-2.46,402.64-82.12,2.6-15.89-5.66-33-21.41-50.22l-40.28,39.24ZM616.7,213.51q-2.9,2.07-12.79,2.55l-17.74.32q2.88,7.2,21.46,17.89,10.73,3,10.72,8,0,7.83-24.75,7.83-23.52,0-32.18-4.63a7.33,7.33,0,0,1-3.71-4.31,17.8,17.8,0,0,0-.41-3.68Q553.58,236,535,218.94q-33.84,1.92-83.34,5.44A75,75,0,0,0,441,237.8a6.6,6.6,0,0,1,.83,3q0,4.32-7.43,6.63a59.73,59.73,0,0,1-17.74,2.32,66.61,66.61,0,0,1-21.45-3.35q-9.9-3.36-9.9-7.83,0-4,9.49-7.19,30.93-60.87,75.07-100.65a9.6,9.6,0,0,1-.82-3.83q0-8,14-10.55a95,95,0,0,1,14.85-.95,167.91,167.91,0,0,1,28.88,2.07q14.85,2.88,14.86,8.63,0,5.26-7.43,9.42Q542,162.71,568,198.17q2.47-.15,16.91-1.6c5.78-.63,10.17-1,13.2-1a32.39,32.39,0,0,1,8.67,1q14.43,4.32,14.44,10.55C621.24,209.35,619.72,211.48,616.7,213.51Z"/><path d="M472,319.81c-34.95,0-67.05-2-92-6.09-52.54-8.61-99.57-31.67-132.41-64.92L245.86,247l2.42.52A66.57,66.57,0,0,0,266,249.05c12.78-.74,21.86-2.22,27-4.41a55.35,55.35,0,0,1,16.29-5,225.08,225.08,0,0,1,22.78-.81,184.16,184.16,0,0,0,24-1.19,40.53,40.53,0,0,0,14.59-4.78c4-2.3,6-4.66,6-7a4.7,4.7,0,0,0-2.19-3.73c-8.89-6.68-18.32-10.07-28-10.07h0a82.57,82.57,0,0,0-13.28,1.35c-5.51.93-10.85,1.87-15.87,2.79l-25.49,4-15-88.9c-.54-1.63,1.89-2.8,3.76-3.52,3.09-1.19,3.25-2,3.25-2.19,0-.35-.24-1.13-1.81-2.47-2.11-1.94-7.33-3.65-15.53-5.11a149.33,149.33,0,0,0-26.07-2.22c-10.6,0-18.84,1-24.51,3a16.3,16.3,0,0,0-4.75,2.26l-1.92,1.52.76-2.33C233.3,48.72,326.8,7.3,427.52,23.81c79.65,13.05,225.87,70.54,302.35,128l.68.51-29.33,29.42-39.44-47.54c-.83-3-1.66-6.05-2.48-9.2-.52-2-3.42-4.85-14.32-7.54-3-.73-10.54-1.09-22.52-1.09-18.45,0-29.55,1.29-33,3.84-1.18.82-1.77,1.64-1.77,2.45s.81,2.47,6.25,5.76c5.88,3.26,9.33,5.56,10.51,7l61.16,70.08,4.17,17.75c.65,2.52-1.63,5.09-7,7.85-6.28,3.46-8.22,5.54-8.74,6.68a3.14,3.14,0,0,0,0,2.73c1.11,2.26,5,4.28,11.45,6,8.44,2.31,18.78,3.49,30.76,3.49a103.81,103.81,0,0,0,14.74-1c9.62-1.25,14.92-3.43,15.42-6.32a45.3,45.3,0,0,1-2-6.34h0l-4.23-16.71,41.13-40.07.51.56C778.74,198.6,786,215.71,783.5,231c-7.8,47.59-107.38,69.44-166,78.23A1016.57,1016.57,0,0,1,472,319.81ZM250.37,249.48c32.53,32.11,78.55,54.37,129.88,62.79,58.19,9.53,155.65,7.68,237-4.51,135.75-20.34,161.52-57,164.8-77,2.41-14.66-4.56-31.16-20.71-49.05L721.9,220.12l4,15.88a45.66,45.66,0,0,0,1.85,6l-.45.28H728c0,4.09-5.47,6.78-16.73,8.23a105,105,0,0,1-14.94,1c-12.11,0-22.59-1.19-31.14-3.54-7-1.86-11.07-4.07-12.39-6.76a4.62,4.62,0,0,1-.06-4c.91-2,4-4.41,9.4-7.39,4.53-2.34,6.68-4.48,6.24-6.2l-4.09-17.41-60.94-69.83c-.74-.92-3.07-2.81-10.12-6.71-4.77-2.88-7-5.11-7-7,0-1.32.8-2.54,2.38-3.64,3.72-2.77,14.79-4.13,33.83-4.13,12.27,0,19.75.37,22.87,1.14,9.45,2.33,14.48,5.14,15.39,8.6q1.21,4.62,2.43,9l38.17,45.9,27-27.07c-76.5-57.12-221.78-114.18-301-127.17C328.19,9,236.17,49.12,212.07,118.67a25,25,0,0,1,3.38-1.37c5.82-2,14.23-3.08,25-3.08a151.13,151.13,0,0,1,26.32,2.25c8.61,1.53,13.92,3.31,16.26,5.45,1.54,1.32,2.3,2.5,2.3,3.58,0,1.33-1.33,2.46-4.18,3.56s-2.87,1.8-2.87,1.8L293,218.43l24-3.72c5-.92,10.35-1.86,15.87-2.79a84.58,84.58,0,0,1,13.53-1.37h0c10,0,19.74,3.49,28.9,10.37a6.18,6.18,0,0,1,2.78,4.9c0,2.93-2.28,5.73-6.77,8.31a42.12,42.12,0,0,1-15.11,5A185.44,185.44,0,0,1,332,240.3a225.7,225.7,0,0,0-22.61.79A53.86,53.86,0,0,0,293.57,246c-5.3,2.27-14.55,3.79-27.5,4.54A66.92,66.92,0,0,1,250.37,249.48Zm343.21,1.35c-15.71,0-26.65-1.59-32.51-4.72a8.1,8.1,0,0,1-4.07-4.75l0-.21a17.1,17.1,0,0,0-.32-3.16c-2.87-1.39-10-7.39-21.9-18.3-22.2,1.26-50,3.08-82.76,5.4a75,75,0,0,0-10.19,12.76,7.07,7.07,0,0,1,.72,3c0,3.23-2.68,5.69-7.95,7.34a61.29,61.29,0,0,1-18,2.34,67.54,67.54,0,0,1-21.69-3.39c-7-2.37-10.4-5.16-10.4-8.52,0-3,3.18-5.55,9.71-7.79,20.45-40.18,45.59-73.91,74.71-100.25a10.32,10.32,0,0,1-.68-3.63c0-5.71,4.92-9.5,14.63-11.27a95.41,95.41,0,0,1,15-1,168.62,168.62,0,0,1,29,2.09c10.41,2,15.46,5.07,15.46,9.35,0,3.66-2.45,6.94-7.29,9.77,5.22,17.73,16.43,38.41,33.32,61.51,2-.15,7.28-.65,16.49-1.57a130.9,130.9,0,0,1,13.27-1,32.69,32.69,0,0,1,8.87,1c10.08,3,15,6.68,15,11.25,0,2.48-1.64,4.83-4.86,7-2.07,1.48-6.38,2.36-13.17,2.69-.56,0-6.14.1-16.63.3,2.4,4.44,9.32,10,20.6,16.49,7.52,2.14,11.17,5,11.17,8.67,0,3-2.25,5.17-6.7,6.57-4.18,1.33-10.5,2-18.79,2ZM558.44,241a6.54,6.54,0,0,0,3.34,3.78c5.63,3,16.35,4.58,31.82,4.54,8.14,0,14.31-.64,18.34-1.92,3.82-1.21,5.68-2.9,5.68-5.17,0-2.91-3.43-5.36-10.19-7.28l-.17-.07c-12.65-7.29-19.77-13.26-21.77-18.25l-.4-1,1.07,0c11.38-.22,17.19-.32,17.75-.32,6.39-.31,10.56-1.13,12.36-2.42l0,0c2.8-1.86,4.21-3.81,4.21-5.77,0-3.77-4.68-7.08-13.91-9.84a31.31,31.31,0,0,0-8.46-.93,128.76,128.76,0,0,0-13.12,1c-9.94,1-15.33,1.5-17,1.6l-.4,0-.24-.32c-17.3-23.61-28.73-44.76-33.95-62.85l-.16-.57.51-.28c4.68-2.62,7-5.57,7-8.78,0-3.42-4.8-6.08-14.26-7.91a168.46,168.46,0,0,0-28.74-2.06,93.39,93.39,0,0,0-14.73,1c-8.89,1.62-13.41,4.93-13.41,9.82a8.83,8.83,0,0,0,.77,3.54l.21.49-.4.35c-29.22,26.33-54.42,60.12-74.91,100.43l-.13.27-.29.1c-5.88,2-9,4.22-9,6.49,0,2.62,3.17,5,9.41,7.13A66,66,0,0,0,416.61,249a59.64,59.64,0,0,0,17.52-2.28c4.59-1.43,6.91-3.42,6.91-5.93a6,6,0,0,0-.74-2.7l-.2-.38.24-.36a75.9,75.9,0,0,1,10.83-13.55l.2-.18.26,0c33-2.34,61-4.17,83.34-5.43l.31,0,.23.21c15.26,14,20.41,17.75,22,18.38l.37.15.09.39A18.43,18.43,0,0,1,558.44,241Z"/><path class="cls-2" d="M181,125.35q-23.11-12.61-56.11-12.62a256.86,256.86,0,0,0-39,3.43q-22.08,3.45-24.55,3.44-20.22-1-23.1-1A113.44,113.44,0,0,0,21,119.92q-10.73,1.6-10.72,4.48a4.12,4.12,0,0,0,1.23,2.23c.83,1,1.24,1.6,1.24,1.92l7.44,103.52q0,.63-4.33,2.63c-2.89,1.34-4.33,2.8-4.33,4.4A5.53,5.53,0,0,0,11.9,241q2.05,4.16,15.68,6.71a129.9,129.9,0,0,0,25.58,2.4,72.32,72.32,0,0,0,13.2-1q10.73-2.08,10.72-5.11c0-.86-.69-2.13-2.06-3.84S73,237.28,73,236.54a98.85,98.85,0,0,1-2.89-22,29.57,29.57,0,0,1,1.23-9.26q3.3,2.86,9.9,2.87,26,0,66.84-30.52,39.18-28.9,39.19-42.81Q187.22,128.86,181,125.35Zm-72.82,35.38Q87,176.63,68.83,181.9l-1.66-36.74a170,170,0,0,1,27-9.35q15.48-4.06,25.37-4.07t9.91,4.79Q129.47,144.84,108.22,160.73Z"/><path d="M53.16,250.85a131.58,131.58,0,0,1-25.73-2.41c-9.4-1.76-14.7-4.08-16.19-7.1a6.36,6.36,0,0,1-.49-2.24c0-1.93,1.56-3.59,4.76-5.07a16.56,16.56,0,0,0,3.89-2.12L12,128.6a5.12,5.12,0,0,0-1.06-1.49A4.56,4.56,0,0,1,9.5,124.4c0-2.43,3.5-4,11.35-5.21a115.1,115.1,0,0,1,17.44-1.28c1.94,0,9.51.31,23.14,1,1.08,0,6.22-.59,24.4-3.42a258.24,258.24,0,0,1,39.1-3.45h0c22,0,41,4.28,56.45,12.71h0c4.35,2.47,6.56,5.85,6.56,10.06,0,9.6-12.91,23.8-39.49,43.41-27.22,20.34-49.85,30.66-67.27,30.66-4,0-7.21-.8-9.5-2.38a31,31,0,0,0-.9,8,98.89,98.89,0,0,0,2.87,21.88l0,.17c0,.26.19,1.09,1.9,3.21,1.52,1.88,2.23,3.25,2.23,4.3,0,2.48-3.6,4.33-11.32,5.83A74,74,0,0,1,53.16,250.85ZM38.29,119.38a113.47,113.47,0,0,0-17.22,1.27C12,122,11,123.72,11,124.4c0,.12.08.61,1.06,1.75,1.18,1.37,1.42,1.95,1.42,2.4L20.88,232c0,.69-.34,1.33-4.75,3.36-2.59,1.2-3.91,2.45-3.91,3.73a5.08,5.08,0,0,0,.37,1.66c.83,1.67,4.17,4.18,15.12,6.24a130.34,130.34,0,0,0,25.45,2.38,71.74,71.74,0,0,0,13.06-.95c9.14-1.77,10.13-3.66,10.13-4.38,0-.38-.25-1.32-1.9-3.38-1.47-1.81-2.18-3.1-2.23-4a99.81,99.81,0,0,1-2.89-22.14,30.22,30.22,0,0,1,1.28-9.5l.35-1,.83.72c2,1.79,5.22,2.7,9.41,2.7,17.09,0,39.43-10.22,66.4-30.37,25.8-19.05,38.89-33.25,38.89-42.23,0-3.69-1.9-6.56-5.81-8.78-15.23-8.31-34-12.52-55.74-12.52h0a257.78,257.78,0,0,0-38.88,3.42c-14.87,2.32-22.94,3.45-24.66,3.45C47.94,119.7,40.18,119.38,38.29,119.38Zm29.84,63.49L66.41,144.7l.46-.21A170.36,170.36,0,0,1,94,135.1c10.33-2.72,18.93-4.1,25.56-4.1,7.06,0,10.64,1.86,10.64,5.53,0,5.84-7,13.95-21.54,24.79h0C94.49,171.93,81.16,179.09,69,182.61Zm-.2-37.25,1.59,35.31c11.71-3.56,24.58-10.55,38.26-20.78h0c13.9-10.41,20.95-18.35,20.95-23.62,0-2.69-3.08-4.06-9.17-4.06-6.51,0-15,1.37-25.18,4.06A170,170,0,0,0,67.93,145.62Z"/><path class="cls-2" d="M266,249.79q19.38-1.12,27.23-4.48a54.17,54.17,0,0,1,16.09-4.95,225.84,225.84,0,0,1,22.69-.8,183.56,183.56,0,0,0,24.13-1.2A41.18,41.18,0,0,0,371,233.49c4.25-2.45,6.39-5,6.39-7.67a5.44,5.44,0,0,0-2.48-4.31q-13.6-10.23-28.47-10.23a83.83,83.83,0,0,0-13.4,1.36q-8.06,1.37-15.89,2.8l-24.75,3.83-14.86-88.18c-.28-.85.82-1.76,3.3-2.71s3.71-1.92,3.71-2.88-.69-1.86-2.06-3q-3.31-3-15.89-5.28A149.57,149.57,0,0,0,240.44,115q-16.09,0-24.76,3a16.58,16.58,0,0,0-5,2.37,2.63,2.63,0,0,0-1.22,1.94,1.7,1.7,0,0,0,.33.93,11.27,11.27,0,0,0,4,3c2.89,1.55,4.33,2.53,4.33,3L235.5,226c.22,1-1,2.19-3.5,3.5-.62.31-1.29.64-2.07,1-4,1.7-6,3.25-6,4.63a3.59,3.59,0,0,0,.82,2.08q4.54,5.6,16.92,9.42c2.16.67,4.3,1.23,6.44,1.69A67,67,0,0,0,266,249.79Z"/><path d="M262.64,250.61A69.08,69.08,0,0,1,248,249c-2.18-.47-4.37-1.05-6.5-1.7-8.36-2.59-14.17-5.85-17.27-9.67a4.31,4.31,0,0,1-1-2.54c0-1.75,2-3.43,6.43-5.31.76-.32,1.42-.64,2-.95,2.45-1.26,3.22-2.22,3.12-2.69l-17.34-96.79c-.14-.17-.83-.8-4-2.48a11.84,11.84,0,0,1-4.27-3.23,2.43,2.43,0,0,1-.45-1.33,3.29,3.29,0,0,1,1.5-2.51,17.5,17.5,0,0,1,5.19-2.5c5.82-2,14.23-3.08,25-3.08a151.13,151.13,0,0,1,26.32,2.25c8.61,1.53,13.92,3.31,16.26,5.45,1.54,1.32,2.3,2.5,2.3,3.58,0,1.33-1.33,2.46-4.18,3.56s-2.87,1.8-2.87,1.8L293,218.43l24-3.72c5-.92,10.35-1.86,15.87-2.79a84.58,84.58,0,0,1,13.53-1.37h0c10,0,19.74,3.49,28.9,10.37a6.18,6.18,0,0,1,2.78,4.9c0,2.93-2.28,5.73-6.77,8.31a42.12,42.12,0,0,1-15.11,5A185.44,185.44,0,0,1,332,240.3a225.7,225.7,0,0,0-22.61.79A53.86,53.86,0,0,0,293.57,246c-5.3,2.27-14.55,3.79-27.5,4.54h0C264.93,250.58,263.79,250.61,262.64,250.61ZM240.44,115.7c-10.6,0-18.84,1-24.51,3a16.3,16.3,0,0,0-4.75,2.26c-.43.34-1,.86-1,1.36a1.14,1.14,0,0,0,.21.52c.35.53,1.28,1.43,3.74,2.74,4.37,2.34,4.72,3,4.72,3.61l17.32,96.68c.39,1.84-2,3.33-3.89,4.28-.62.33-1.31.66-2.11,1-5,2.13-5.54,3.47-5.54,4a2.9,2.9,0,0,0,.68,1.64c2.9,3.57,8.47,6.66,16.55,9.16,2.08.65,4.23,1.21,6.37,1.67A66.54,66.54,0,0,0,266,249.05c12.78-.74,21.86-2.22,27-4.41a55.35,55.35,0,0,1,16.29-5,225.08,225.08,0,0,1,22.78-.81,184.16,184.16,0,0,0,24-1.19,40.53,40.53,0,0,0,14.59-4.78c4-2.3,6-4.66,6-7a4.7,4.7,0,0,0-2.19-3.73c-8.89-6.68-18.32-10.07-28-10.07h0a82.57,82.57,0,0,0-13.28,1.35c-5.51.93-10.85,1.87-15.87,2.79l-25.49,4-15-88.9c-.54-1.63,1.89-2.8,3.76-3.52,3.09-1.19,3.25-2,3.25-2.19,0-.35-.24-1.13-1.81-2.47-2.11-1.94-7.33-3.65-15.53-5.11A149.33,149.33,0,0,0,240.44,115.7Zm-23,13.61s0,0,0,0Z"/><path class="cls-2" d="M606.8,196.57a32.39,32.39,0,0,0-8.67-1c-3,0-7.42.33-13.2,1Q570.48,198,568,198.17q-26-35.46-33.84-62.62,7.43-4.16,7.43-9.42,0-5.76-14.86-8.63a167.91,167.91,0,0,0-28.88-2.07,95,95,0,0,0-14.85.95q-14,2.57-14,10.55a9.6,9.6,0,0,0,.82,3.83q-44.15,39.78-75.07,100.65-9.5,3.19-9.49,7.19,0,4.47,9.9,7.83a66.61,66.61,0,0,0,21.45,3.35,59.73,59.73,0,0,0,17.74-2.32q7.42-2.31,7.43-6.63a6.6,6.6,0,0,0-.83-3,75,75,0,0,1,10.73-13.42q49.5-3.52,83.34-5.44,18.56,17.1,22.28,18.53a17.8,17.8,0,0,1,.41,3.68,7.33,7.33,0,0,0,3.71,4.31q8.67,4.64,32.18,4.63,24.75,0,24.75-7.83,0-4.95-10.72-8-18.57-10.7-21.46-17.89l17.74-.32q9.9-.48,12.79-2.55c3-2,4.54-4.16,4.54-6.39Q621.24,200.88,606.8,196.57Zm-146,8.64q5.36-17.73,34.65-42.5,15.27,28.6,22.29,38.66Z"/><path d="M593.58,250.83c-15.71,0-26.65-1.59-32.51-4.72a8.1,8.1,0,0,1-4.07-4.75l0-.21a17.1,17.1,0,0,0-.32-3.16c-2.87-1.39-10-7.39-21.9-18.3-22.2,1.26-50,3.08-82.76,5.4a75,75,0,0,0-10.19,12.76,7.07,7.07,0,0,1,.72,3c0,3.23-2.68,5.69-7.95,7.34a61.29,61.29,0,0,1-18,2.34,67.54,67.54,0,0,1-21.69-3.39c-7-2.37-10.4-5.16-10.4-8.52,0-3,3.18-5.55,9.71-7.79,20.45-40.18,45.59-73.91,74.71-100.25a10.32,10.32,0,0,1-.68-3.63c0-5.71,4.92-9.5,14.63-11.27a95.41,95.41,0,0,1,15-1,168.62,168.62,0,0,1,29,2.09c10.41,2,15.46,5.07,15.46,9.35,0,3.66-2.45,6.94-7.29,9.77,5.22,17.73,16.43,38.41,33.32,61.51,2-.15,7.28-.65,16.49-1.57a130.9,130.9,0,0,1,13.27-1,32.69,32.69,0,0,1,8.87,1h0c10.07,3,15,6.68,15,11.25,0,2.48-1.64,4.84-4.87,7-2,1.47-6.36,2.35-13.16,2.68-.56,0-6.14.1-16.63.3,2.4,4.44,9.32,10,20.6,16.49,7.52,2.14,11.17,5,11.17,8.67,0,3-2.25,5.17-6.7,6.57-4.18,1.33-10.5,2-18.79,2ZM558.44,241a6.54,6.54,0,0,0,3.34,3.78c5.63,3,16.35,4.58,31.82,4.54,8.14,0,14.31-.64,18.34-1.92,3.82-1.21,5.68-2.9,5.68-5.17,0-2.91-3.43-5.36-10.19-7.28l-.17-.07c-12.65-7.29-19.77-13.26-21.77-18.25l-.4-1,1.07,0c11.38-.22,17.19-.32,17.75-.32,6.39-.31,10.56-1.13,12.36-2.42,2.82-1.88,4.23-3.83,4.23-5.79,0-3.77-4.68-7.08-13.91-9.84a31.36,31.36,0,0,0-8.46-.93,128.76,128.76,0,0,0-13.12,1c-9.94,1-15.33,1.5-17,1.6l-.4,0-.24-.32c-17.3-23.61-28.73-44.76-33.95-62.85l-.16-.57.51-.28c4.68-2.62,7-5.57,7-8.78,0-3.42-4.8-6.08-14.26-7.91a168.46,168.46,0,0,0-28.74-2.06,93.39,93.39,0,0,0-14.73,1c-8.89,1.62-13.41,4.93-13.41,9.82a8.83,8.83,0,0,0,.77,3.54l.21.49-.4.35c-29.22,26.33-54.42,60.12-74.91,100.43l-.13.27-.29.1c-5.88,2-9,4.22-9,6.49,0,2.62,3.17,5,9.41,7.13A66,66,0,0,0,416.61,249a59.64,59.64,0,0,0,17.52-2.28c4.59-1.43,6.91-3.42,6.91-5.93a6,6,0,0,0-.74-2.7l-.2-.38.24-.36a75.9,75.9,0,0,1,10.83-13.55l.2-.18.26,0c33-2.34,61-4.17,83.34-5.43l.31,0,.23.21c15.26,14,20.41,17.75,22,18.38l.37.15.09.39A18.43,18.43,0,0,1,558.44,241Zm-98.7-35,.31-1c3.59-11.9,15.33-26.31,34.88-42.84l.69-.59.43.81c10.11,18.94,17.59,31.92,22.24,38.58L519,202Zm35.44-42.15c-18.35,15.62-29.58,29.25-33.4,40.54l54.57-3.68C511.7,193.85,504.59,181.47,495.18,163.86Z"/><path class="cls-2" d="M816.37,118.61a104,104,0,0,0-26.82-3.2,88.12,88.12,0,0,0-15.68,1.28q-9.5,1.61-12,3.59t-10.31,9.83l-22.17,22.24-28.16,28.24L662.49,134q-1.25-4.47-2.48-9.19t-14.85-8.06q-4.54-1.12-22.7-1.12-28.05,0-33.41,4c-1.38,1-2.06,2-2.06,3,0,1.6,2.19,3.73,6.6,6.39q8.65,4.8,10.31,6.87l61.07,70,4.13,17.57c.54,2.13-1.65,4.47-6.6,7q-7.85,4.31-9.08,7-2.48,5.91,12,9.74,12.78,3.51,30.94,3.51a103.86,103.86,0,0,0,14.85-1q16.1-2.07,16.09-7.5,0,1.28-2.06-6.07l-4.13-16.3,40.28-39.24,38.1-37.12q2.88-2.88,18.15-8,12.38-4.15,11.55-8.95T816.37,118.61Z"/><path d="M696.33,251.46c-12.11,0-22.59-1.19-31.14-3.54-7-1.86-11.07-4.07-12.39-6.76a4.62,4.62,0,0,1-.06-4c.91-2,4-4.41,9.4-7.39,4.53-2.34,6.68-4.48,6.24-6.2l-4.09-17.41-60.94-69.83c-.74-.92-3.07-2.81-10.12-6.71-4.77-2.88-7-5.11-7-7,0-1.32.8-2.54,2.38-3.64,3.72-2.77,14.79-4.13,33.83-4.13,12.27,0,19.75.37,22.87,1.14,9.45,2.33,14.48,5.14,15.39,8.6q1.21,4.62,2.43,9l38.17,45.9,49.76-49.91c5.2-5.2,8.69-8.52,10.37-9.88s5.79-2.65,12.3-3.75a90.35,90.35,0,0,1,15.8-1.29,105.63,105.63,0,0,1,27,3.22h0c8.35,2.24,12.71,5,13.32,8.58s-3.31,6.84-12,9.77c-10,3.36-16,6-17.86,7.81L721.9,220.12l4,15.89a46.52,46.52,0,0,0,1.85,6l-.45.28H728c0,4.09-5.47,6.78-16.73,8.23A105,105,0,0,1,696.33,251.46ZM622.46,116.32c-18.45,0-29.55,1.29-33,3.84-1.18.82-1.77,1.64-1.77,2.45s.81,2.47,6.25,5.76c5.88,3.26,9.33,5.56,10.51,7l61.16,70.08,4.17,17.75c.65,2.52-1.63,5.09-7,7.85-6.28,3.46-8.22,5.54-8.74,6.68a3.14,3.14,0,0,0,0,2.73c1.11,2.26,5,4.28,11.45,6,8.44,2.31,18.78,3.49,30.76,3.49a103.81,103.81,0,0,0,14.74-1c9.62-1.25,14.92-3.43,15.42-6.32a45.3,45.3,0,0,1-2-6.34l-4.24-16.72L798.94,143c2-2,8-4.68,18.43-8.16,7.71-2.59,11.53-5.39,11.06-8.12s-4.62-5.36-12.25-7.4a103.62,103.62,0,0,0-26.63-3.17A88.48,88.48,0,0,0,774,117.41c-6.18,1-10.09,2.2-11.64,3.45s-5.09,4.61-10.25,9.77l-50.9,51.06-39.44-47.54c-.83-3-1.66-6.05-2.48-9.2-.52-2-3.42-4.85-14.32-7.54C642,116.68,634.44,116.32,622.46,116.32Z"/><path class="cls-2" d="M917.45,228.83a5.08,5.08,0,0,0-2.06-3.84q-7.85-6.86-35.89-6.86-15.27,0-18.57,3a2.32,2.32,0,0,0-.41,3.36,16.92,16.92,0,0,1,1.24,3.35,19.06,19.06,0,0,1-.41,6.55,41.47,41.47,0,0,0-.83,5.75,5.29,5.29,0,0,0,2.89,5q11.15,5.58,32.59,5.58,12.38,0,16.92-2.87,3.3-1.92,2.88-4.63-1.23-5.11-1.23-4.8a13.09,13.09,0,0,1,1.44-4.95A13.24,13.24,0,0,0,917.45,228.83Z"/><path d="M896,251.45c-14.35,0-25.43-1.91-32.92-5.67a6,6,0,0,1-3.29-5.61,43,43,0,0,1,.83-5.88A18.18,18.18,0,0,0,861,228a15.15,15.15,0,0,0-1.19-3.18,3,3,0,0,1,.61-4.2c2.34-2.16,8.58-3.22,19-3.22,19.06,0,31,2.31,36.38,7.05a5.76,5.76,0,0,1,2.31,4.39,13.6,13.6,0,0,1-1.51,4.93,12.89,12.89,0,0,0-1.38,4.59c.25.69.58,2.05,1.22,4.68.33,2.2-.76,4-3.23,5.44C910.13,250.47,904.47,251.45,896,251.45Zm-16.5-32.59c-12.38,0-16.66,1.55-18.07,2.84a1.61,1.61,0,0,0-.29,2.42c1.25,2.89,1.35,3.45,1.35,3.75a19.3,19.3,0,0,1-.42,6.7,39,39,0,0,0-.81,5.6,4.55,4.55,0,0,0,2.51,4.31C871,248.12,881.88,250,896,250c8.07,0,13.63-.93,16.52-2.76,2-1.14,2.78-2.41,2.56-3.91-.93-3.82-1.13-4.5-1.18-4.61l.68-.26v0h-.74l0-.66a16,16,0,0,1,1.47-4.59,12.21,12.21,0,0,0,1.38-4.33,4.31,4.31,0,0,0-1.81-3.28C909.84,221.11,897.92,218.86,879.5,218.86Z"/><path class="cls-2" d="M893.93,208.7a60.09,60.09,0,0,0,16.3-1.84c4.26-1.22,6.4-2.85,6.4-4.87,0-1.17-1-3.14-3.1-5.91s-3.09-5-3.09-6.55v-53q0-2.07,2.89-5.19t2.88-4.71a3.76,3.76,0,0,0-.82-2.24q-4.12-5.91-33.83-5.91-16.09,0-20.63,2.08-6.18,2.72-6.18,30.35a225.48,225.48,0,0,0,3.71,41.22,5.79,5.79,0,0,1-.41,3.59,10.33,10.33,0,0,0-.82,3c0,1.59,1.23,3,3.71,4.31Q872.48,208.7,893.93,208.7Z"/><path d="M893.93,209.44c-14.35,0-25.57-2-33.33-5.83-2.74-1.41-4.12-3.08-4.12-5a10.72,10.72,0,0,1,.87-3.22,5.19,5.19,0,0,0,.4-3.13A226.54,226.54,0,0,1,854,150.87c0-18.92,2.16-29.06,6.63-31,3.13-1.44,10-2.14,20.92-2.14,20.24,0,31.51,2,34.43,6.22a4.5,4.5,0,0,1,1,2.66c0,1.28-1,2.94-3.08,5.21s-2.69,3.87-2.69,4.69v53c0,1.43,1,3.48,3,6.11,2.21,3,3.24,5,3.24,6.35,0,2.42-2.26,4.24-6.93,5.58A61.19,61.19,0,0,1,893.93,209.44Zm-12.38-90.26c-10.57,0-17.41.68-20.32,2-2.64,1.16-5.76,7.24-5.76,29.68A224.91,224.91,0,0,0,859.18,192a6.5,6.5,0,0,1-.45,4,9.07,9.07,0,0,0-.78,2.7c0,1.29,1.12,2.52,3.32,3.66,7.54,3.76,18.54,5.66,32.66,5.66a59.54,59.54,0,0,0,16.1-1.81c2.67-.76,5.86-2.11,5.86-4.16,0-.69-.51-2.2-2.95-5.47-2.18-2.93-3.24-5.21-3.24-7v-53c0-1.59,1-3.45,3.09-5.69,2.34-2.53,2.69-3.73,2.69-4.21a3.07,3.07,0,0,0-.68-1.8C913,122.22,905.78,119.18,881.55,119.18Z"/></g></g></svg>
