<svg xmlns="http://www.w3.org/2000/svg" viewBox="0 0 410 220"><defs><style>.cls-1{fill:#ffffbd;}.cls-2{fill:#f9e8d8;}.cls-3{fill:#75272d;}.cls-4{fill:#ffffe2;}.cls-5{fill:#44210b;}.cls-6{fill:#390000;}.cls-7{fill:#d36609;}</style></defs><title>Poeng</title><g id="UI"><g id="Knapper"><path class="cls-1" d="M305.17,79c-.53-.27-1.11-.55-1.72-.83a5.76,5.76,0,0,1-1.69-1.15,4,4,0,0,1-.78-2.91,7.41,7.41,0,0,0-1.71.18c-.82.15-1.18.46-1.06.91a12.5,12.5,0,0,1,.58,1.31q.39.95.57,1.47c-2,.38-3.08,1-3.32,1.7a10.25,10.25,0,0,0-.14,3.66,11.86,11.86,0,0,0,2.2-.22c1.14-.17,2.29-.38,3.44-.61a27.44,27.44,0,0,0,3.11-.8c.91-.31,1.39-.57,1.41-.8C306,80,305.71,79.31,305.17,79Z"/><path class="cls-1" d="M319.42,78a3,3,0,0,0-1.16-.43l-.1,3.16-1,.08.17.68c1.11.1,1.83-.17,2.14-.81a5.47,5.47,0,0,0,.55-1.78Q320.09,78.38,319.42,78Z"/><path class="cls-1" d="M318,68.33a2.58,2.58,0,0,0-1.49.37,1.13,1.13,0,0,0-.62,1.28l2.19-.14Z"/><path class="cls-1" d="M323.93,69.53a1.5,1.5,0,0,0-.12,1.16l-.1,1A2.39,2.39,0,0,0,325,70.12a2.6,2.6,0,0,1,.75-1.43A3,3,0,0,0,323.93,69.53Z"/><polygon class="cls-1" points="337.3 77.91 337.49 78.42 338.45 78.51 338.26 77.99 337.3 77.91"/><polygon class="cls-1" points="352.89 78.97 353.03 79.98 354.23 80.09 354.09 79.08 352.89 78.97"/><path class="cls-1" d="M341.29,74.42c-.63,0-.94.17-.91.67s.36.79,1,.84a.94.94,0,0,0,.71-1C342.06,74.41,341.8,74.25,341.29,74.42Z"/><path class="cls-1" d="M350,74.7c-.8-.07-1.18.14-1.15.65s.44.79,1.24.86c.31,0,.46-.21.43-.71S350.28,74.73,350,74.7Z"/><path class="cls-1" d="M303.42,85.39c-.31-.13-.45,0-.4.3s.23.47.57.39.46-.21.4-.38S303.73,85.42,303.42,85.39Z"/><path class="cls-1" d="M287,78.25c-.64-.06-1,.16-1,.65s.24.78.88.84c.48,0,.74-.19.8-.69A.63.63,0,0,0,287,78.25Z"/><polygon class="cls-1" points="274.26 77.77 274.32 77.28 273.07 77.67 274.26 77.77"/><path class="cls-1" d="M277.41,76.55a7,7,0,0,0-1,2.5,15.24,15.24,0,0,0-.28,2.73c0,.89-.05,1.61-.11,2.16a2.66,2.66,0,0,1,.73-.1,1.26,1.26,0,0,0,.74-.1,3,3,0,0,1,.79-.6l1-.57.52-.29.7.23c.3.14.69.34,1.14.6s.67.51.65.73l.19-6.33-3.13-2.45A3.58,3.58,0,0,0,277.41,76.55Z"/><path class="cls-1" d="M298.63,71.19a1.26,1.26,0,0,0,.84-1l0-.5-.48,0-.48,0c-.16,0-.23-.07-.22-.18l-.46-.21a.86.86,0,0,0-.5.12l-.23,2.15A2.94,2.94,0,0,0,298.63,71.19Z"/><path class="cls-1" d="M293.94,72.19c-.65,0-1,.46-1.1,1.23a.55.55,0,0,0,.09.34.66.66,0,0,1,.08.35,1.46,1.46,0,0,0,1.12-1.41l-.21-.35Z"/><polygon class="cls-1" points="291.92 79.85 293.12 79.96 293.19 79.3 291.99 79.19 291.92 79.85"/><path class="cls-1" d="M378.37,77.91c-.46-.15-.63-.08-.5.21a.53.53,0,0,0,.69.31c.32,0,.44,0,.38-.14A1.39,1.39,0,0,0,378.37,77.91Z"/><polygon class="cls-1" points="364.75 113.1 365.78 112.52 364.58 112.42 364.75 113.1"/><path class="cls-1" d="M363.42,89.1a2.61,2.61,0,0,0-1,.57,8.82,8.82,0,0,0-.8.77l0,.16-.05.5c0,.11.13.26.43.45s.53.36.68.48c.66-.16,1-.43,1.05-.82s.07-.69.1-.91a1.5,1.5,0,0,0-.18-.6A1.5,1.5,0,0,1,363.42,89.1Z"/><path class="cls-1" d="M373,101q-.74.1-.69.78c0,.44.3.63.79.57s.94-.14.91-.59S373.68,101,373,101Z"/><path class="cls-1" d="M352.85,74.79a7.54,7.54,0,0,0,2.44-.2c.82-.2,1.27-.64,1.34-1.3l-3.6-.15Z"/><path class="cls-1" d="M376,5.66H38.56C21.77,5.66,8.11,18.24,8.11,33.71V187.26c0,15.46,13.66,28,30.45,28H376c16.79,0,30.45-12.58,30.45-28V33.71C406.41,18.24,392.75,5.66,376,5.66ZM254.3,60.76c-.44,2.48-2.28,4.8-5.48,6.9-4.66,3.06-12,5.43-20.56,6.67l-.23,0c0,.8-.08,1.59-.13,2.38a.65.65,0,0,1,.17.26.62.62,0,0,1,0,.48.61.61,0,0,1-.19.2c-2.22,33.29-12,64.09-27.92,87.44-17.22,25.3-39.86,39.24-63.73,39.24-12.45,0-24.52-3.74-35.89-11.11C89.32,186.14,79.47,176,71,163a160.12,160.12,0,0,1-19.74-44.9,197.47,197.47,0,0,1-5.32-26.21.67.67,0,0,1-.47-.18.6.6,0,0,1,0-.9l.3-.28A215.07,215.07,0,0,1,44,63.12v0c-4.56-3-7-6.37-7.1-9.67-.1-4.94,5.3-10.28,14.81-14.66a81.44,81.44,0,0,1,30.85-7,81.81,81.81,0,0,1,25.06,3.69c8.19-7.34,25.83-13.08,41.06-13.37h1.22c14.14,0,30.4,4.51,40,11.14A76.22,76.22,0,0,1,234,40c7.59,3.57,13.7,7.9,17.19,12.2C253.72,55.29,254.76,58.17,254.3,60.76ZM387,73.84l-.24,0a18.47,18.47,0,0,0-2.71-.66c-1.5-.3-2.41-.47-2.73-.5l-.48,0-.47,0a5.19,5.19,0,0,1-.6,1,3.53,3.53,0,0,0-.64,1.53l0,.33c.68,1.18,1.26,2.15,1.75,2.91a17.27,17.27,0,0,1,1.3,2.54,5.21,5.21,0,0,1,.46,2.55,1.28,1.28,0,0,1-.7-.23l-.48,0c-.16,0-.23-.08-.22-.19l-2-1.68-.5.12-.23,0L377.14,85c1.62-.07,2.62,0,3,.35a1.42,1.42,0,0,1,.46,1.3A8.35,8.35,0,0,1,379.41,91a8.35,8.35,0,0,0-1.18,4.32,6.56,6.56,0,0,0,1.81,3.5,5.21,5.21,0,0,1,1.58,3.31l-2.63-.23a4.44,4.44,0,0,1,.36,1.12,4.08,4.08,0,0,1,.13,1.09l-.52.29c-.17.1-.26.2-.27.31a4.28,4.28,0,0,0-.61,1.2c-.22.59-.45,1.21-.68,1.86s-.41,1.24-.55,1.79a10.24,10.24,0,0,0-.26,1.31l-5.62-4-1-.09c-.32,0-.66.47-1,1.5s-.79,2.18-1.33,3.47-1.11,2.52-1.72,3.69a3.89,3.89,0,0,1-2.16,2.14,8,8,0,0,0-1.59-.89q-1.15-.52-1.14-.69a6,6,0,0,0-1.21.06,4.8,4.8,0,0,1-1,.08,1.83,1.83,0,0,0,.34,1.37,1.77,1.77,0,0,1,.34,1.36,1.65,1.65,0,0,0-.49,0,1.13,1.13,0,0,1-.48,0,7.93,7.93,0,0,0-2.09-.85l-.72-.06-.71-.07c-.18.1-.27.2-.28.31-.17.1-.26.2-.27.31l0,.17a6.64,6.64,0,0,0-1.29,1.88,12.67,12.67,0,0,0-.77,1.6,10.79,10.79,0,0,0,.28,1.95,11.67,11.67,0,0,0,.7,2.48l.41.71c.27.47.49.71.65.73,0,.11,0,.16.1.17s.12.07.1.18.07.17.23.19a13.68,13.68,0,0,0-4.66.58,7.91,7.91,0,0,1-4.36.11c.13.35.33,1.06.62,2.14a7.72,7.72,0,0,1,.37,2.29c.14.13.44.37.88.75s.66.67.63.89c-.09.88-.73,1.58-1.91,2.08a4.45,4.45,0,0,0-2.39,2,2.64,2.64,0,0,0-2-1.68,17.36,17.36,0,0,0-3.93.57c-2,.44-3.15.86-3.52,1.27a2.15,2.15,0,0,0,1.82,1.08c.95.14,1.4.49,1.34,1l-.05.5a37.37,37.37,0,0,0-4.89.56c-1.64.3-2.45,1.06-2.42,2.29a9.89,9.89,0,0,0,.71,3.65,7.16,7.16,0,0,1,.47,3.47q-3.86,0-4.38,1.53a17.86,17.86,0,0,0-.77,3.85c-.08-.78-.26-2.11-.55-4a12.37,12.37,0,0,0-1.67-4.74c0-.11-.14-.24-.45-.38l-.92-.41c-.16,0-.33.08-.51.29a1.06,1.06,0,0,0-.3.47l.41.71c.26.58.47.87.63.89l-.07.66a7.49,7.49,0,0,1-1.53,4.2,10.72,10.72,0,0,1-3.63,3.52,21.28,21.28,0,0,0-1.8-1.25,5.56,5.56,0,0,0-2.31-1c-.64,0-1,.14-1,.58,0,.22,0,.72,0,1.5s0,1.28,0,1.5a10.92,10.92,0,0,0,.51,3.22,20.57,20.57,0,0,1,.74,3.24,9,9,0,0,1-1.46,4.71q-1.45,2.37-2.93,4.91a1.5,1.5,0,0,0-.28-.85,1.69,1.69,0,0,0-.76-.74l-.23-.19a2,2,0,0,0-1.64.69,8.82,8.82,0,0,0-.75,1.35,3.34,3.34,0,0,1-1,1.25,3.54,3.54,0,0,1-2.12.56,3.27,3.27,0,0,0-.22-1.35,1.48,1.48,0,0,0-1.46-1l-2.48.61a13.08,13.08,0,0,0-2.5.78l-.48,0q-1.2-.1-1.5-.72a2,2,0,0,1-.26-.94,36.49,36.49,0,0,1,.45-5.39,53.83,53.83,0,0,1,1.45-6.88,59.61,59.61,0,0,1,2.27-6.65,17.84,17.84,0,0,1,2.95-5,38.34,38.34,0,0,0,5.56-6.93q2.32-3.72,4.52-7.36c1.47-2.43,3-4.88,4.64-7.35a32.94,32.94,0,0,1,6.16-6.88c.37-.41,1.14-1.26,2.33-2.55a13.18,13.18,0,0,1,2.8-2.5c.15,0,.51.07,1.07.18s.91,0,1.1-.16l.55-.61.55-.62a8.59,8.59,0,0,1,2.62-2,27.17,27.17,0,0,1,3-1.32c1-.35,2-.74,3-1.15a9.5,9.5,0,0,0,2.58-1.52,5,5,0,0,0,1-1.08l1.41-1.88c.46-.63.89-1.23,1.27-1.81a3.48,3.48,0,0,0,.61-1.19c.56-.73,1.4-1.8,2.51-3.2s2-2.13,2.65-2.19V97.5a14.14,14.14,0,0,0,1.69,0c.81,0,1.66-.1,2.56-.18a17.45,17.45,0,0,0,2.33-.38c.66-.16,1-.41,1.05-.74l-.13-5.69a2.69,2.69,0,0,0-1.72.26A2.6,2.6,0,0,1,355,91l-.12-3.52a37.16,37.16,0,0,1-4.07-.28,28.23,28.23,0,0,0-3.6-.24l-.72-.07a3.83,3.83,0,0,1-1,.41l-1.23.23a8,8,0,0,1-2.4-1.3,22.72,22.72,0,0,1-2.77-2.34c-.88-.85-1.65-1.59-2.31-2.21a4,4,0,0,0-1.23-.94l-.48-.05q-.82,3.27-1.73,6.11A14.37,14.37,0,0,1,330,92.28a2.52,2.52,0,0,1-2.26.8A4.41,4.41,0,0,1,329,90.44a3.21,3.21,0,0,0,1-2.5.93.93,0,0,0-.07-.43.9.9,0,0,1-.08-.42,2.43,2.43,0,0,0-.36-1.12c-.27-.52-.47-.9-.61-1.14a6.4,6.4,0,0,1-3.11.89,8.49,8.49,0,0,0-2.7.43,2.66,2.66,0,0,0-1.63,1.69c-.33.86-.31,2.48.09,4.85a3.71,3.71,0,0,1-2-2.69,2.56,2.56,0,0,0-2.56-2.06.86.86,0,0,1-.5.12,2.13,2.13,0,0,1-.47,2.21,6.82,6.82,0,0,1-2.06,1.16c-.84.31-1.72.62-2.63.93a5.86,5.86,0,0,0-2.19,1.22,6.18,6.18,0,0,1-1.44-1.21q-1-1-1.95-2.1l-2.49-2.73a5.9,5.9,0,0,0-2.3,1.22c-1.22.84-2.6,1.71-4.15,2.63s-3.08,1.79-4.62,2.59a7.15,7.15,0,0,1-3.74,1.09l-.24,0a20.48,20.48,0,0,1-4-1,12.57,12.57,0,0,0-4.75-.76c-.13-.23-.46-.93-1-2.09s-.86-1.86-1-2.09a17.74,17.74,0,0,0-4-6,29.19,29.19,0,0,1-4.68-6,1.05,1.05,0,0,0-.08-.42,1.4,1.4,0,0,1-.06-.59l.05-.5a15.81,15.81,0,0,0,.69-3,8.17,8.17,0,0,0,.17-2.74c0-.1-.1-.28-.31-.52a4.67,4.67,0,0,0-.55-.55l0-.17a3.64,3.64,0,0,1,.93-3.09,5.21,5.21,0,0,1,4.16-1.63l.48,0a3.24,3.24,0,0,0,1.26,1.78c.74.63,1.47,1.28,2.21,2s1.43,1.29,2.1,1.85,1,1.07.93,1.51a1.32,1.32,0,0,1-.61,1.11,1.57,1.57,0,0,0-.61,1.28,3.65,3.65,0,0,1,1.55.14c.71.18,1.07.21,1.08.1.66-.16,1.1-.91,1.32-2.22s.49-2.71.8-4.19a14.08,14.08,0,0,1,1.52-4A3.08,3.08,0,0,1,289,61.56a2,2,0,0,1,2.1.69,2.69,2.69,0,0,0,2.07,1c.8.07,1.29,0,1.48-.29s.68-.41,1.5-.45l1.19.11a14.17,14.17,0,0,1,2,.76,13.8,13.8,0,0,0,2,.76c.63.06,2,.13,4.2.21s3.65.11,4.47.07a12.57,12.57,0,0,0,.83,2.41,2.4,2.4,0,0,0,2.17,1.2l0-2.51.5-.12a.93.93,0,0,0,.49-.12c0-.11.35-.22,1-.33a6.38,6.38,0,0,1,1.23-.14l.49-.12a1.28,1.28,0,0,1,1.23.94,2.16,2.16,0,0,0,1.43,1.3.94.94,0,0,0,.47.21,2.38,2.38,0,0,1,.7.23l.92.41a5.42,5.42,0,0,0,3.14-1.14,3.37,3.37,0,0,0,1.33-2.3c.12.35.38,1,.77,1.82A3.71,3.71,0,0,0,328,67.89a1,1,0,0,0,.19.51.63.63,0,0,0,.44.38,12.56,12.56,0,0,0,2.07-.15,6.87,6.87,0,0,0,2.11-.48,2,2,0,0,0,1.12-.32,2.05,2.05,0,0,1,1.12-.32,4.5,4.5,0,0,1,1,.43,1.92,1.92,0,0,0,1.3.28,14.62,14.62,0,0,1,1.39-.54q1.13-.41,2.49-.78c.91-.25,1.79-.51,2.62-.77a5.58,5.58,0,0,1,1.73-.34l1,.08a5.29,5.29,0,0,1,3.27,1,6.07,6.07,0,0,0,4,.94,6.29,6.29,0,0,0,.49,2.22c.26.58.87.86,1.84.83l.08-3a10.08,10.08,0,0,1,2.94.68,6.57,6.57,0,0,0,2.73.5,2.64,2.64,0,0,0,1.47-.2c.34-.2.73-.44,1.17-.74a6.69,6.69,0,0,1,1.65-.77,10.26,10.26,0,0,1,2.93-.32q.48,0,1.92.09a4.16,4.16,0,0,1,1.67.23c1.23.56,1.8,1.25,1.71,2.08s.5,1.41,1.75,1.74c-.68-1.17-.61-1.86.22-2.07a7.54,7.54,0,0,1,2.44-.2,12.53,12.53,0,0,1,5.41,1.41,7.21,7.21,0,0,1,3.48,3.57Z"/><path class="cls-1" d="M351.17,125.08c-.3-.25-.44,0-.43.63s.18,1,.51.88a1,1,0,0,0,.57-.79C351.85,125.47,351.64,125.23,351.17,125.08Z"/><path class="cls-1" d="M373.05,103.15c-.31-.13-.45.1-.44.72s.2.82.54.63c.32,0,.46-.15.42-.55A.9.9,0,0,0,373.05,103.15Z"/><path class="cls-1" d="M327.66,141.84l.71.07c0-.33.31-.64.83-.93l-.67-.56-1.61,1.52.48.05C327.56,142,327.65,142,327.66,141.84Z"/><path class="cls-1" d="M317.62,155.73c-.57,0-.78.07-.63.19,0,.22.13.32.45.29s.5-.15.53-.37C318.3,155.76,318.18,155.72,317.62,155.73Z"/><path class="cls-1" d="M340.77,134.33c-.48,0-.74.16-.79.6s.17.68.65.73c.65,0,1-.3,1.05-.74S341.42,134.28,340.77,134.33Z"/><polygon class="cls-1" points="308.33 169.34 309.58 168.95 308.38 168.84 308.33 169.34"/><path class="cls-1" d="M326.32,145.4l-.11,1a6.1,6.1,0,0,0,.78,2.91c.48.82,1.6,1.26,3.37,1.3a9.51,9.51,0,0,0-1.13-3.1A4.94,4.94,0,0,0,326.32,145.4Z"/><path class="cls-1" d="M332,137.31q-1.23.13-1.53.78a4,4,0,0,0,.85,1.08l.72.06a2.13,2.13,0,0,0,1.9-2A9.83,9.83,0,0,0,332,137.31Z"/><path d="M376,5.48H38.56c-16.9,0-30.64,12.66-30.64,28.23V187.26c0,15.56,13.74,28.22,30.64,28.22H376c16.9,0,30.64-12.66,30.64-28.22V33.71C406.6,18.14,392.86,5.48,376,5.48Zm30.45,181.78c0,15.46-13.66,28-30.45,28H38.56c-16.79,0-30.45-12.58-30.45-28V33.71c0-15.47,13.66-28,30.45-28H376c16.79,0,30.45,12.58,30.45,28.05Z"/><path d="M384.25,70.34a12.53,12.53,0,0,0-5.41-1.41,7.54,7.54,0,0,0-2.44.2c-.83.21-.9.9-.22,2.07-1.25-.33-1.83-.92-1.75-1.74s-.48-1.52-1.71-2.08a4.16,4.16,0,0,0-1.67-.23q-1.44,0-1.92-.09a10.26,10.26,0,0,0-2.93.32,6.69,6.69,0,0,0-1.65.77c-.44.3-.83.54-1.17.74a2.64,2.64,0,0,1-1.47.2,6.57,6.57,0,0,1-2.73-.5,10.08,10.08,0,0,0-2.94-.68l-.08,3c-1,0-1.58-.25-1.84-.83a6.29,6.29,0,0,1-.49-2.22,6.07,6.07,0,0,1-4-.94,5.29,5.29,0,0,0-3.27-1l-1-.08a5.58,5.58,0,0,0-1.73.34c-.83.26-1.71.52-2.62.77s-1.74.51-2.49.78a14.62,14.62,0,0,0-1.39.54,1.92,1.92,0,0,1-1.3-.28,4.5,4.5,0,0,0-1-.43,2.05,2.05,0,0,0-1.12.32,2,2,0,0,1-1.12.32,6.87,6.87,0,0,1-2.11.48,12.56,12.56,0,0,1-2.07.15.63.63,0,0,1-.44-.38,1,1,0,0,1-.19-.51,3.71,3.71,0,0,1-1.27-1.71c-.39-.87-.65-1.47-.77-1.82a3.37,3.37,0,0,1-1.33,2.3,5.42,5.42,0,0,1-3.14,1.14l-.92-.41a2.38,2.38,0,0,0-.7-.23.94.94,0,0,1-.47-.21,2.16,2.16,0,0,1-1.43-1.3,1.28,1.28,0,0,0-1.23-.94l-.49.12A6.38,6.38,0,0,0,315,65c-.65.11-1,.22-1,.33a.93.93,0,0,1-.49.12l-.5.12,0,2.51a2.4,2.4,0,0,1-2.17-1.2,12.57,12.57,0,0,1-.83-2.41c-.82,0-2.3,0-4.47-.07s-3.57-.15-4.2-.21a13.8,13.8,0,0,1-2-.76,14.17,14.17,0,0,0-2-.76l-1.19-.11q-1.23.06-1.5.45c-.19.26-.68.36-1.48.29a2.69,2.69,0,0,1-2.07-1,2,2,0,0,0-2.1-.69,3.08,3.08,0,0,0-3.19,1.63,14.08,14.08,0,0,0-1.52,4c-.31,1.48-.58,2.87-.8,4.19s-.66,2.06-1.32,2.22c0,.11-.37.08-1.08-.1a3.65,3.65,0,0,0-1.55-.14,1.57,1.57,0,0,1,.61-1.28,1.32,1.32,0,0,0,.61-1.11c0-.44-.27-1-.93-1.51s-1.37-1.18-2.1-1.85-1.47-1.33-2.21-2a3.24,3.24,0,0,1-1.26-1.78l-.48,0a5.21,5.21,0,0,0-4.16,1.63,3.64,3.64,0,0,0-.93,3.09l0,.17a4.67,4.67,0,0,1,.55.55c.21.24.32.42.31.52a8.17,8.17,0,0,1-.17,2.74,15.81,15.81,0,0,1-.69,3l-.05.5a1.4,1.4,0,0,0,.06.59,1.05,1.05,0,0,1,.08.42,29.19,29.19,0,0,0,4.68,6,17.74,17.74,0,0,1,4,6c.13.23.46.93,1,2.09s.85,1.86,1,2.09a12.57,12.57,0,0,1,4.75.76,20.48,20.48,0,0,0,4,1l.24,0A7.15,7.15,0,0,0,292.12,94c1.54-.8,3.08-1.67,4.62-2.59s2.93-1.79,4.15-2.63a5.9,5.9,0,0,1,2.3-1.22l2.49,2.73q1,1.1,1.95,2.1a6.18,6.18,0,0,0,1.44,1.21,5.86,5.86,0,0,1,2.19-1.22c.91-.31,1.79-.62,2.63-.93A6.82,6.82,0,0,0,316,90.27a2.13,2.13,0,0,0,.47-2.21.86.86,0,0,0,.5-.12A2.56,2.56,0,0,1,319.48,90a3.71,3.71,0,0,0,2,2.69c-.4-2.37-.42-4-.09-4.85A2.66,2.66,0,0,1,323,86.15a8.49,8.49,0,0,1,2.7-.43,6.4,6.4,0,0,0,3.11-.89c.14.24.34.62.61,1.14a2.43,2.43,0,0,1,.36,1.12.9.9,0,0,0,.08.42.93.93,0,0,1,.07.43,3.21,3.21,0,0,1-1,2.5,4.41,4.41,0,0,0-1.25,2.64,2.52,2.52,0,0,0,2.26-.8,14.37,14.37,0,0,0,3.35-5.46q.9-2.83,1.73-6.11l.48.05a4,4,0,0,1,1.23.94c.66.62,1.43,1.36,2.31,2.21a22.72,22.72,0,0,0,2.77,2.34,8,8,0,0,0,2.4,1.3l1.23-.23a3.83,3.83,0,0,0,1-.41l.72.07a28.23,28.23,0,0,1,3.6.24,37.16,37.16,0,0,0,4.07.28L355,91a2.6,2.6,0,0,0,1.71-.27,2.69,2.69,0,0,1,1.72-.26l.13,5.69c0,.33-.39.58-1.05.74a17.45,17.45,0,0,1-2.33.38c-.9.08-1.75.15-2.56.18a14.14,14.14,0,0,1-1.69,0v2.17c-.65.06-1.53.78-2.65,2.19s-1.95,2.47-2.51,3.2a3.48,3.48,0,0,1-.61,1.19c-.38.58-.81,1.18-1.27,1.81l-1.41,1.88a5,5,0,0,1-1,1.08,9.5,9.5,0,0,1-2.58,1.52c-1,.41-2,.8-3,1.15a27.17,27.17,0,0,0-3,1.32,8.59,8.59,0,0,0-2.62,2l-.55.62-.55.61c-.19.21-.55.26-1.1.16s-.92-.17-1.07-.18a13.18,13.18,0,0,0-2.8,2.5c-1.19,1.29-2,2.14-2.33,2.55a32.94,32.94,0,0,0-6.16,6.88c-1.63,2.47-3.17,4.92-4.64,7.35s-3,4.88-4.52,7.36a38.34,38.34,0,0,1-5.56,6.93,17.84,17.84,0,0,0-2.95,5,59.61,59.61,0,0,0-2.27,6.65,53.83,53.83,0,0,0-1.45,6.88,36.49,36.49,0,0,0-.45,5.39,2,2,0,0,0,.26.94q.3.62,1.5.72l.48,0a13.08,13.08,0,0,1,2.5-.78l2.48-.61a1.48,1.48,0,0,1,1.46,1,3.27,3.27,0,0,1,.22,1.35,3.54,3.54,0,0,0,2.12-.56,3.34,3.34,0,0,0,1-1.25,8.82,8.82,0,0,1,.75-1.35,2,2,0,0,1,1.64-.69l.23.19a1.69,1.69,0,0,1,.76.74,1.5,1.5,0,0,1,.28.85q1.47-2.53,2.93-4.91a9,9,0,0,0,1.46-4.71,20.57,20.57,0,0,0-.74-3.24,10.92,10.92,0,0,1-.51-3.22c0-.22,0-.72,0-1.5s0-1.28,0-1.5c0-.44.39-.63,1-.58a5.56,5.56,0,0,1,2.31,1,21.28,21.28,0,0,1,1.8,1.25,10.72,10.72,0,0,0,3.63-3.52,7.49,7.49,0,0,0,1.53-4.2l.07-.66c-.16,0-.37-.31-.63-.89l-.41-.71a1.06,1.06,0,0,1,.3-.47c.18-.21.35-.31.51-.29l.92.41c.31.14.46.27.45.38a12.37,12.37,0,0,1,1.67,4.74c.29,1.86.47,3.19.55,4a17.86,17.86,0,0,1,.77-3.85q.53-1.55,4.38-1.53a7.16,7.16,0,0,0-.47-3.47,9.89,9.89,0,0,1-.71-3.65c0-1.23.78-2,2.42-2.29a37.37,37.37,0,0,1,4.89-.56l.05-.5c.06-.55-.39-.9-1.34-1a2.15,2.15,0,0,1-1.82-1.08c.37-.41,1.54-.83,3.52-1.27a17.36,17.36,0,0,1,3.93-.57,2.64,2.64,0,0,1,2,1.68,4.45,4.45,0,0,1,2.39-2c1.18-.5,1.82-1.2,1.91-2.08,0-.22-.18-.52-.63-.89s-.74-.62-.88-.75a7.72,7.72,0,0,0-.37-2.29c-.29-1.08-.49-1.79-.62-2.14a7.91,7.91,0,0,0,4.36-.11,13.68,13.68,0,0,1,4.66-.58c-.16,0-.24-.08-.23-.19s0-.17-.1-.18-.11-.06-.1-.17c-.16,0-.38-.26-.65-.73l-.41-.71a11.67,11.67,0,0,1-.7-2.48,10.79,10.79,0,0,1-.28-1.95,12.67,12.67,0,0,1,.77-1.6,6.64,6.64,0,0,1,1.29-1.88l0-.17c0-.11.1-.21.27-.31,0-.11.1-.21.28-.31l.71.07.72.06a7.93,7.93,0,0,1,2.09.85,1.13,1.13,0,0,0,.48,0,1.65,1.65,0,0,1,.49,0,1.77,1.77,0,0,0-.34-1.36,1.83,1.83,0,0,1-.34-1.37,4.8,4.8,0,0,0,1-.08,6,6,0,0,1,1.21-.06q0,.16,1.14.69a8,8,0,0,1,1.59.89,3.89,3.89,0,0,0,2.16-2.14c.61-1.17,1.18-2.4,1.72-3.69s1-2.44,1.33-3.47.69-1.53,1-1.5l1,.09,5.62,4a10.24,10.24,0,0,1,.26-1.31c.14-.55.32-1.14.55-1.79s.46-1.27.68-1.86a4.28,4.28,0,0,1,.61-1.2c0-.11.1-.21.27-.31l.52-.29a4.08,4.08,0,0,0-.13-1.09,4.44,4.44,0,0,0-.36-1.12l2.63.23A5.21,5.21,0,0,0,380,98.77a6.56,6.56,0,0,1-1.81-3.5A8.35,8.35,0,0,1,379.41,91a8.35,8.35,0,0,0,1.18-4.32,1.42,1.42,0,0,0-.46-1.3c-.37-.31-1.37-.42-3-.35l1.35-3.55.23,0,.5-.12,2,1.68c0,.11.06.17.22.19l.48,0a1.28,1.28,0,0,0,.7.23,5.21,5.21,0,0,0-.46-2.55,17.27,17.27,0,0,0-1.3-2.54c-.49-.76-1.07-1.73-1.75-2.91l0-.33a3.53,3.53,0,0,1,.64-1.53,5.19,5.19,0,0,0,.6-1l.47,0,.48,0c.32,0,1.23.2,2.73.5a18.47,18.47,0,0,1,2.71.66l.24,0,.71.07A7.21,7.21,0,0,0,384.25,70.34Zm-110,7.43-1.19-.11,1.25-.38Zm8.06,6.07c0-.22-.19-.46-.65-.73s-.84-.46-1.14-.6l-.7-.23-.52.29-1,.57a3,3,0,0,0-.79.6,1.26,1.26,0,0,1-.74.1,2.66,2.66,0,0,0-.73.1c.06-.55.09-1.27.11-2.16a15.24,15.24,0,0,1,.28-2.73,7,7,0,0,1,1-2.5,3.58,3.58,0,0,1,2-1.49l3.13,2.45Zm4.54-4.1c-.64-.06-.93-.34-.88-.84s.4-.71,1-.65a.63.63,0,0,1,.64.8C287.6,79.55,287.34,79.78,286.86,79.74Zm6.26.22-1.2-.11.07-.66,1.2.11ZM293,74.11a.66.66,0,0,0-.08-.35.55.55,0,0,1-.09-.34c.08-.77.45-1.18,1.1-1.23l0,.16.21.35A1.46,1.46,0,0,1,293,74.11Zm4.37-4.79a.86.86,0,0,1,.5-.12l.46.21c0,.11.06.17.22.18l.48,0,.48,0,0,.5a1.26,1.26,0,0,1-.84,1,2.94,2.94,0,0,1-1.48.28Zm6.21,16.76c-.34.08-.52,0-.57-.39s.09-.43.4-.3.5.13.57.31S303.91,86,303.59,86.08Zm1.06-4.33a27.44,27.44,0,0,1-3.11.8c-1.15.23-2.3.44-3.44.61a11.86,11.86,0,0,1-2.2.22,10.25,10.25,0,0,1,.14-3.66c.24-.75,1.35-1.32,3.32-1.7q-.18-.52-.57-1.47a12.5,12.5,0,0,0-.58-1.31c-.12-.45.24-.76,1.06-.91a7.41,7.41,0,0,1,1.71-.18,4,4,0,0,0,.78,2.91,5.76,5.76,0,0,0,1.69,1.15c.61.28,1.19.56,1.72.83s.83.91.89,1.91C306,81.18,305.56,81.44,304.65,81.75ZM315.91,70a1.13,1.13,0,0,1,.62-1.28,2.58,2.58,0,0,1,1.49-.37l.08,1.51Zm3.59,10.67c-.31.64-1,.91-2.14.81l-.17-.68,1-.08.1-3.16a3,3,0,0,1,1.16.43q.68.41.63.9A5.47,5.47,0,0,1,319.5,80.65ZM325,70.12a2.39,2.39,0,0,1-1.25,1.56l.1-1a1.5,1.5,0,0,1,.12-1.16,3,3,0,0,1,1.78-.84A2.6,2.6,0,0,0,325,70.12Zm12.53,8.3-.19-.51,1,.08.19.52Zm3.89-2.49c-.64-.05-1-.33-1-.84s.28-.72.91-.67c.51-.17.77,0,.8.49A.94.94,0,0,1,341.38,75.93Zm8.67.28c-.8-.07-1.22-.36-1.24-.86s.35-.72,1.15-.65c.32,0,.49.29.52.8S350.36,76.24,350.05,76.21ZM353,80l-.14-1,1.2.11.14,1Zm2.26-5.39a7.54,7.54,0,0,1-2.44.2l.18-1.65,3.6.15C356.56,74,356.11,74.39,355.29,74.59Zm-47,94.75.05-.5,1.2.11Zm9.64-13.5c0,.22-.2.34-.53.37s-.47-.07-.45-.29c-.15-.12.06-.19.63-.19S318.3,155.76,318,155.84Zm10.56-15.42.67.56c-.52.29-.79.6-.83.93l-.71-.07c0,.11-.1.16-.26.15l-.48-.05ZM327,149.3a6.1,6.1,0,0,1-.78-2.91l.11-1a4.94,4.94,0,0,1,2.91,2.1,9.51,9.51,0,0,1,1.13,3.1C328.59,150.56,327.47,150.12,327,149.3ZM332,139.23l-.72-.06a4,4,0,0,1-.85-1.08q.3-.65,1.53-.78a9.83,9.83,0,0,1,1.94-.08A2.13,2.13,0,0,1,332,139.23Zm8.59-3.57c-.48,0-.69-.29-.65-.73s.31-.64.79-.6c.65-.05,1,.15.91.59S341.28,135.61,340.63,135.66Zm10.62-9.07c-.33.08-.5-.21-.51-.88s.13-.88.43-.63c.47.15.68.39.65.72A1,1,0,0,1,351.25,126.59Zm12.43-35.38c0,.39-.39.66-1.05.82-.15-.12-.38-.28-.68-.48s-.44-.34-.43-.45l.05-.5,0-.16a8.82,8.82,0,0,1,.8-.77,2.61,2.61,0,0,1,1-.57,1.5,1.5,0,0,0,.18.6,1.5,1.5,0,0,1,.18.6C363.75,90.52,363.72,90.82,363.68,91.21Zm1.07,21.89-.17-.68,1.2.1Zm8.4-8.6q-.51.28-.54-.63c0-.62.13-.85.44-.72a.9.9,0,0,1,.52.8C373.61,104.35,373.47,104.53,373.15,104.5Zm0-2.17c-.49.06-.75-.13-.79-.57s.2-.71.69-.78,1,.31,1,.76S373.77,102.38,373.14,102.33Zm5.42-23.9a.53.53,0,0,1-.69-.31c-.13-.29,0-.36.5-.21a1.39,1.39,0,0,1,.57.38C379,78.41,378.88,78.46,378.56,78.43Z"/><path class="cls-2" d="M227.07,77.74c-1.12-.56-3,1.69-8.07,9.64a18.76,18.76,0,0,1-4.61,5.75,12.2,12.2,0,0,1,1,4.71c0,9.14-10.43,16.58-23.25,16.58-9.06,0-16.93-3.72-20.76-9.13.11,3.33-3.2,6.89-8.15,8.43a16.15,16.15,0,0,1-4.71.73,12.67,12.67,0,0,1-3.19-.39,7.31,7.31,0,0,1-4.23-2.65c-.58,9.89-12.3,17.81-26.62,17.81-14.7,0-26.65-8.33-26.65-18.57v-.23a.66.66,0,0,1-.62-.56c-.55-4.52-17.73-15.67-27.83-20l-.08,0c-10-5.92-14.94-5.52-22.81,1.87a.64.64,0,0,1-.36.17,199.26,199.26,0,0,0,5.32,26.2A159.78,159.78,0,0,0,71.14,162.9c8.45,13,18.29,23.13,29.24,30.24,11.34,7.35,23.38,11.08,35.8,11.08,23.81,0,46.4-13.91,63.6-39.17,15.88-23.32,25.66-54.06,27.89-87.29A.74.74,0,0,1,227.07,77.74ZM110.81,143.81a1.59,1.59,0,0,1-.43.06,1.33,1.33,0,0,1-.65-.16,2.06,2.06,0,0,1-.67-2.6,1.94,1.94,0,0,1,1.16-1.14,1.35,1.35,0,0,1,1.08.1,2,2,0,0,1,.67,2.6A1.94,1.94,0,0,1,110.81,143.81Zm4,9.94a1.65,1.65,0,0,1-1.14.43,1.69,1.69,0,0,1-1.13-.41,1.43,1.43,0,0,1-.51-1.05,1.33,1.33,0,0,1,.44-1,1.71,1.71,0,0,1,2.27,0,1.38,1.38,0,0,1,.07,2.06Zm5.32-8.62a1.58,1.58,0,0,1-1.53,1,1.74,1.74,0,0,1-.45-.06,1.55,1.55,0,0,1-1-.7,1.28,1.28,0,0,1-.11-1.06,1.64,1.64,0,0,1,2-.95,1.55,1.55,0,0,1,1,.7A1.28,1.28,0,0,1,120.12,145.13ZM168,174.51l0-.07-3.42-9-.64.11-2.22,12.27-8.35-1.29,1.75-10.29a18.17,18.17,0,0,1-3.44-.38.65.65,0,0,1-.5-.78.64.64,0,0,1,.33-.39.72.72,0,0,1,.52-.07,31.19,31.19,0,0,0,10.5-.14c5.89-.89,9.27-2.38,9.9-2.92a.71.71,0,0,1,.5-.17.73.73,0,0,1,.48.2.61.61,0,0,1,0,.91,8.65,8.65,0,0,1-2.26,1.16l3.33,8.77ZM176.13,134a9.65,9.65,0,0,1-5.08,5,10.94,10.94,0,0,1-4.39.92,10.4,10.4,0,0,1-3-.43,8.68,8.68,0,0,1-5.39-4.28.32.32,0,0,1,0-.27.33.33,0,0,1,.2-.2.41.41,0,0,1,.29,0,.35.35,0,0,1,.22.19,8,8,0,0,0,4.93,3.9,9.89,9.89,0,0,0,6.81-.46,8.87,8.87,0,0,0,4.69-4.58,6.92,6.92,0,0,0-.19-6,.32.32,0,0,1,0-.27.36.36,0,0,1,.19-.21.42.42,0,0,1,.52.17A7.59,7.59,0,0,1,176.13,134Zm18-.88a1.15,1.15,0,0,1-.6-2,1.15,1.15,0,0,1,.8-.24,1.12,1.12,0,0,1,1,1.22,1.16,1.16,0,0,1-.44.81,1.13,1.13,0,0,1-.7.25Zm1.65,7a1.17,1.17,0,0,1-.45.09,1.06,1.06,0,0,1-1-.68A1.17,1.17,0,0,1,195,138a1.07,1.07,0,0,1,1.44.58A1.19,1.19,0,0,1,195.82,140Zm6.45-2.1a.94.94,0,0,1-.55.49,1.06,1.06,0,0,1-.31,0,1.78,1.78,0,0,1-1.48-1,1.48,1.48,0,0,1-.07-1.26.9.9,0,0,1,.54-.49,1.63,1.63,0,0,1,1.79,1A1.52,1.52,0,0,1,202.27,137.92Z"/><path class="cls-2" d="M70,88.71c8.83,3.8,24.9,13.73,28.05,19.52,1.7-9.1,12.9-16.15,26.42-16.15,14.08,0,25.65,7.66,26.58,17.31a.7.7,0,0,1,.72.42,5.32,5.32,0,0,0,3.93,3,13.14,13.14,0,0,0,7.07-.33c5-1.53,8.11-5.24,7-8.26a.65.65,0,0,1,.44-.82h0a12.29,12.29,0,0,1-1.36-5.58c0-9.14,10.43-16.58,23.25-16.58,9.87,0,18.32,4.41,21.69,10.62a18.1,18.1,0,0,0,4-5.11c5.75-9,7.64-11.32,10-10.15h0c.05-.75.08-1.5.12-2.25a90.89,90.89,0,0,1-12.66.88,81.83,81.83,0,0,1-12.94-1c-11.42-1.83-24.12-6.8-32.37-12.68A86.87,86.87,0,0,1,148,64a88.23,88.23,0,0,1-20.83-3.23c-8.48,7.69-28.36,13.36-45.29,12.91A86.87,86.87,0,0,1,52,67.28a48.59,48.59,0,0,1-7.81-4.09A213.76,213.76,0,0,0,45.9,90.38C54,82.9,59.53,82.55,70,88.71Z"/><path d="M227.66,76.74a2.16,2.16,0,0,0-1-.26c-1.86,0-3.92,2.78-8.74,10.36A18.08,18.08,0,0,1,213.86,92c.17.32.33.65.47,1a18.94,18.94,0,0,0,4.54-5.66c5.24-8.25,7-10.33,8.28-9.7a.56.56,0,0,0,.73-.2.47.47,0,0,0,0-.38A.48.48,0,0,0,227.66,76.74Z"/><path class="cls-2" d="M192.1,113.71c12.39,0,22.48-7.12,22.48-15.87S204.49,82,192.1,82s-22.48,7.12-22.48,15.87S179.71,113.71,192.1,113.71Zm3.09-20a3.57,3.57,0,1,1-4.09,3.53A3.84,3.84,0,0,1,195.19,93.7Z"/><path d="M192.1,114.28c12.73,0,23.1-7.38,23.1-16.44S204.83,81.4,192.1,81.4,169,88.78,169,97.84a12.25,12.25,0,0,0,1.37,5.56.69.69,0,0,1,.69.43,4.29,4.29,0,0,1,.25,1.17C175.06,110.48,183,114.28,192.1,114.28ZM169.47,97.84c0-8.83,10.15-16,22.63-16s22.63,7.18,22.63,16-10.15,16-22.63,16S169.47,106.67,169.47,97.84Z"/><path class="cls-3" d="M192.1,113.85c12.48,0,22.63-7.18,22.63-16s-10.15-16-22.63-16-22.63,7.18-22.63,16S179.62,113.85,192.1,113.85Zm0-31.88c12.39,0,22.48,7.12,22.48,15.87s-10.09,15.87-22.48,15.87-22.48-7.12-22.48-15.87S179.71,82,192.1,82Z"/><path class="cls-2" d="M124.44,92.79c-14.27,0-25.88,8-25.88,17.86s11.61,17.86,25.88,17.86,25.87-8,25.87-17.86S138.7,92.79,124.44,92.79Zm2.78,21.63c-2.6,0-4.72-1.82-4.72-4.06s2.12-4,4.72-4,4.71,1.82,4.71,4S129.81,114.42,127.22,114.42Z"/><path d="M150.86,109.41h0c-.92-9.59-12.41-17.19-26.42-17.19-13.55,0-24.74,7.1-26.31,16.24a4.26,4.26,0,0,1,.35.9c1-9.32,12.23-16.71,26-16.71,13.94,0,25.36,7.62,26,17.16A.65.65,0,0,1,150.86,109.41Z"/><path d="M97.94,110.65c0,10.16,11.89,18.43,26.5,18.43,14.35,0,26.06-8,26.47-17.9a5.37,5.37,0,0,1-.46-.89c0,.12,0,.24,0,.36,0,9.92-11.68,18-26,18s-26-8.08-26-18c0-.16,0-.32,0-.48v0a.74.74,0,0,1-.46.24C98,110.5,97.94,110.57,97.94,110.65Z"/><path d="M175.47,127.36a.23.23,0,0,0-.12.12.2.2,0,0,0,0,.17,7.08,7.08,0,0,1,.19,6.1,9,9,0,0,1-4.76,4.65,10.12,10.12,0,0,1-6.93.47,8.1,8.1,0,0,1-5-4,.24.24,0,0,0-.13-.11l-.08,0a.19.19,0,0,0-.1,0,.2.2,0,0,0-.12.12.22.22,0,0,0,0,.16,8.56,8.56,0,0,0,5.3,4.21,10.4,10.4,0,0,0,2.94.42,10.85,10.85,0,0,0,4.33-.91,9.44,9.44,0,0,0,5-4.89,7.45,7.45,0,0,0-.2-6.44A.25.25,0,0,0,175.47,127.36Z"/><path class="cls-3" d="M175.4,127.23a.36.36,0,0,0-.19.21.32.32,0,0,0,0,.27,6.92,6.92,0,0,1,.19,6,8.87,8.87,0,0,1-4.69,4.58,9.89,9.89,0,0,1-6.81.46,8,8,0,0,1-4.93-3.9.35.35,0,0,0-.22-.19.41.41,0,0,0-.29,0,.33.33,0,0,0-.2.2.32.32,0,0,0,0,.27,8.68,8.68,0,0,0,5.39,4.28,10.4,10.4,0,0,0,3,.43,10.94,10.94,0,0,0,4.39-.92,9.65,9.65,0,0,0,5.08-5,7.59,7.59,0,0,0-.21-6.55A.42.42,0,0,0,175.4,127.23Zm.58,6.67a9.44,9.44,0,0,1-5,4.89,10.85,10.85,0,0,1-4.33.91,10.4,10.4,0,0,1-2.94-.42,8.56,8.56,0,0,1-5.3-4.21.22.22,0,0,1,0-.16.2.2,0,0,1,.12-.12.19.19,0,0,1,.1,0l.08,0a.24.24,0,0,1,.13.11,8.1,8.1,0,0,0,5,4,10.12,10.12,0,0,0,6.93-.47,9,9,0,0,0,4.76-4.65,7.08,7.08,0,0,0-.19-6.1.2.2,0,0,1,0-.17.23.23,0,0,1,.12-.12.25.25,0,0,1,.31.1A7.45,7.45,0,0,1,176,133.9Z"/><path d="M155.34,113.92a12.17,12.17,0,0,0,3.14.39,15.83,15.83,0,0,0,4.66-.73c5.6-1.73,9.09-6.09,7.77-9.71a.54.54,0,0,0-.68-.31.49.49,0,0,0-.34.63c1.13,3.1-2.06,6.89-7.1,8.45a13.26,13.26,0,0,1-7.16.32,5.45,5.45,0,0,1-4-3.1.52.52,0,0,0-.51-.34l-.17,0a.49.49,0,0,0-.34.63C151.22,112,152.91,113.29,155.34,113.92Z"/><path d="M57.93,85.56c3.24,0,6.79,1.4,11.41,4.13l.07,0c10.12,4.35,27.36,15.56,27.92,20.13a.52.52,0,0,0,.53.44h.06a.56.56,0,0,0,.37-.19.44.44,0,0,0,.11-.36C97.75,104.39,79.52,93,69.9,88.83c-10.56-6.22-16-5.76-24.33,2.06a.47.47,0,0,0,0,.7.56.56,0,0,0,.38.14h0a.52.52,0,0,0,.38-.15C50.65,87.54,54.08,85.56,57.93,85.56Z"/><path d="M127.22,107c-2.18,0-3.94,1.5-3.94,3.34a3.68,3.68,0,0,0,3.94,3.35c2.17,0,3.94-1.5,3.94-3.35S129.39,107,127.22,107Z"/><path d="M127.22,106.45c-2.52,0-4.56,1.75-4.56,3.91s2,3.92,4.56,3.92,4.55-1.76,4.55-3.92S129.73,106.45,127.22,106.45Zm0,7.4c-2.26,0-4.1-1.57-4.1-3.49s1.84-3.48,4.1-3.48,4.09,1.56,4.09,3.48S129.47,113.85,127.22,113.85Z"/><path class="cls-3" d="M127.22,106.31c-2.6,0-4.72,1.82-4.72,4s2.12,4.06,4.72,4.06,4.71-1.82,4.71-4.06S129.81,106.31,127.22,106.31Zm0,8c-2.52,0-4.56-1.76-4.56-3.92s2-3.91,4.56-3.91,4.55,1.75,4.55,3.91S129.73,114.28,127.22,114.28Z"/><path class="cls-3" d="M127.22,106.88c-2.26,0-4.1,1.56-4.1,3.48s1.84,3.49,4.1,3.49,4.09-1.57,4.09-3.49S129.47,106.88,127.22,106.88Zm0,6.83a3.68,3.68,0,0,1-3.94-3.35c0-1.84,1.76-3.34,3.94-3.34s3.94,1.5,3.94,3.34S129.39,113.71,127.22,113.71Z"/><path d="M195.19,100.05a2.86,2.86,0,1,0-3.32-2.82A3.11,3.11,0,0,0,195.19,100.05Z"/><path d="M195.19,100.61a3.42,3.42,0,1,0-3.94-3.38A3.69,3.69,0,0,0,195.19,100.61Zm0-6.34a3,3,0,1,1-3.48,3A3.26,3.26,0,0,1,195.19,94.27Z"/><path class="cls-3" d="M195.19,100.76a3.57,3.57,0,1,0-4.09-3.53A3.85,3.85,0,0,0,195.19,100.76Zm0-6.92a3.42,3.42,0,1,1-3.94,3.39A3.7,3.7,0,0,1,195.19,93.84Z"/><path class="cls-3" d="M195.19,100.19a3,3,0,1,0-3.48-3A3.26,3.26,0,0,0,195.19,100.19Zm0-5.78a2.86,2.86,0,1,1-3.32,2.82A3.11,3.11,0,0,1,195.19,94.41Z"/><path class="cls-4" d="M156.3,166.28l-1,0-1.73,10.17,8.05,1.24,2.19-12.08-1,.17A43.66,43.66,0,0,1,156.3,166.28Z"/><path class="cls-4" d="M164.76,165.42l3.38,8.9,6.12-2L171,163.73A38.42,38.42,0,0,1,164.76,165.42Z"/><path class="cls-3" d="M173.39,162.51a.61.61,0,0,0,0-.91.73.73,0,0,0-.48-.2.71.71,0,0,0-.5.17c-.63.54-4,2-9.9,2.92a31.19,31.19,0,0,1-10.5.14.72.72,0,0,0-.52.07.64.64,0,0,0-.33.39.65.65,0,0,0,.5.78,18.17,18.17,0,0,0,3.44.38l-1.75,10.29,8.35,1.29L164,165.56l.64-.11,3.42,9,0,.07,6.42-2.07-3.33-8.77A8.65,8.65,0,0,0,173.39,162.51Zm-11.78,15.16-8.05-1.24,1.73-10.17,1,0a43.66,43.66,0,0,0,6.48-.52l1-.17Zm12.65-5.32-6.12,2-3.38-8.9a38.42,38.42,0,0,0,6.22-1.69Z"/><path class="cls-5" d="M200.45,135.79a.71.71,0,0,0-.45.4,1.38,1.38,0,0,0,.07,1.15,1.48,1.48,0,0,0,1.6.93.7.7,0,0,0,.45-.41,1.36,1.36,0,0,0-.07-1.14A1.47,1.47,0,0,0,200.45,135.79Z"/><path class="cls-3" d="M200.4,135.65a.9.9,0,0,0-.54.49,1.48,1.48,0,0,0,.07,1.26,1.78,1.78,0,0,0,1.48,1,1.06,1.06,0,0,0,.31,0,.94.94,0,0,0,.55-.49,1.52,1.52,0,0,0-.08-1.26A1.63,1.63,0,0,0,200.4,135.65Zm1.72,2.21a.7.7,0,0,1-.45.41,1.48,1.48,0,0,1-1.6-.93,1.38,1.38,0,0,1-.07-1.15.71.71,0,0,1,.45-.4,1.47,1.47,0,0,1,1.6.93A1.36,1.36,0,0,1,202.12,137.86Z"/><path class="cls-6" d="M194.35,130.93h-.07a.93.93,0,0,0-.6.21,1,1,0,0,0-.39.71,1,1,0,0,0,.9,1.07.91.91,0,0,0,.67-.2,1.08,1.08,0,0,0,.39-.72A1,1,0,0,0,194.35,130.93Z"/><path class="cls-3" d="M195.4,132a1.12,1.12,0,0,0-1-1.22,1.15,1.15,0,0,0-.8.24,1.15,1.15,0,0,0,.6,2h.09a1.13,1.13,0,0,0,.7-.25A1.16,1.16,0,0,0,195.4,132Zm-1.21.91a1,1,0,0,1-.9-1.07,1,1,0,0,1,.39-.71.93.93,0,0,1,.6-.21h.07a1,1,0,0,1,.9,1.07,1.08,1.08,0,0,1-.39.72A.91.91,0,0,1,194.19,132.92Z"/><path class="cls-5" d="M195.76,138.05a.85.85,0,0,0-.31-.06,1,1,0,0,0-.38.08,1,1,0,0,0-.55,1.31.92.92,0,0,0,.53.53.9.9,0,0,0,.7,0,1,1,0,0,0,.54-1.31A.87.87,0,0,0,195.76,138.05Z"/><path class="cls-3" d="M195.82,137.92a1.06,1.06,0,0,0-.82,0,1.17,1.17,0,0,0-.62,1.48,1.06,1.06,0,0,0,1,.68,1.17,1.17,0,0,0,.45-.09,1.19,1.19,0,0,0,.62-1.49A1.07,1.07,0,0,0,195.82,137.92Zm-.07,2a.9.9,0,0,1-.7,0,.92.92,0,0,1-.53-.53,1,1,0,0,1,.55-1.31,1,1,0,0,1,.38-.08.85.85,0,0,1,.31.06.87.87,0,0,1,.53.53A1,1,0,0,1,195.75,139.89Z"/><path class="cls-5" d="M111.22,140.19a1.15,1.15,0,0,0-.56-.15,1.32,1.32,0,0,0-.39.06,1.8,1.8,0,0,0-1.07,1.06,1.94,1.94,0,0,0,.61,2.43,1.16,1.16,0,0,0,1,.08,1.78,1.78,0,0,0,1.07-1A1.92,1.92,0,0,0,111.22,140.19Z"/><path class="cls-3" d="M111.3,140.07a1.35,1.35,0,0,0-1.08-.1,1.94,1.94,0,0,0-1.16,1.14,2.06,2.06,0,0,0,.67,2.6,1.33,1.33,0,0,0,.65.16,1.59,1.59,0,0,0,.43-.06,1.94,1.94,0,0,0,1.16-1.14A2,2,0,0,0,111.3,140.07Zm.53,2.55a1.78,1.78,0,0,1-1.07,1,1.16,1.16,0,0,1-1-.08,1.94,1.94,0,0,1-.61-2.43,1.8,1.8,0,0,1,1.07-1.06,1.32,1.32,0,0,1,.39-.06,1.15,1.15,0,0,1,.56.15A1.92,1.92,0,0,1,111.83,142.62Z"/><path class="cls-6" d="M112.57,151.8a1.22,1.22,0,0,0,.06,1.86,1.57,1.57,0,0,0,2.06,0,1.21,1.21,0,0,0,.39-.92,1.27,1.27,0,0,0-.46-.94A1.56,1.56,0,0,0,112.57,151.8Z"/><path class="cls-3" d="M112.46,151.71a1.33,1.33,0,0,0-.44,1,1.43,1.43,0,0,0,.51,1.05,1.69,1.69,0,0,0,1.13.41,1.65,1.65,0,0,0,1.14-.43,1.38,1.38,0,0,0-.07-2.06A1.71,1.71,0,0,0,112.46,151.71Zm2.23,1.94a1.57,1.57,0,0,1-2.06,0,1.22,1.22,0,0,1-.06-1.86,1.56,1.56,0,0,1,2.05,0,1.27,1.27,0,0,1,.46.94A1.21,1.21,0,0,1,114.69,153.65Z"/><path class="cls-5" d="M119,143.5a2,2,0,0,0-.41-.05,1.44,1.44,0,0,0-1.38.91,1.14,1.14,0,0,0,.1.95,1.42,1.42,0,0,0,.86.64,1.48,1.48,0,0,0,1.79-.86,1.14,1.14,0,0,0-.1-1A1.38,1.38,0,0,0,119,143.5Z"/><path class="cls-3" d="M119.05,143.37a1.64,1.64,0,0,0-2,.95,1.28,1.28,0,0,0,.11,1.06,1.55,1.55,0,0,0,1,.7,1.74,1.74,0,0,0,.45.06,1.58,1.58,0,0,0,1.53-1,1.28,1.28,0,0,0-.11-1.06A1.55,1.55,0,0,0,119.05,143.37Zm.92,1.72a1.48,1.48,0,0,1-1.79.86,1.42,1.42,0,0,1-.86-.64,1.14,1.14,0,0,1-.1-.95,1.44,1.44,0,0,1,1.38-.91,2,2,0,0,1,.41.05,1.38,1.38,0,0,1,.86.64A1.14,1.14,0,0,1,120,145.09Z"/><path class="cls-7" d="M234,40.15a76.07,76.07,0,0,0-44.07-6.81h0l0,0c-9.55-6.62-25.79-11.13-39.91-11.13h-1.22c-15.21.29-32.83,6-41,13.36l0,0h0a82.13,82.13,0,0,0-25.06-3.7,81.12,81.12,0,0,0-30.78,7C42.36,43.23,37,48.52,37.09,53.41c0,2.48,1.48,5,4.26,7.43a40.21,40.21,0,0,0,10.7,6.31,86.86,86.86,0,0,0,29.86,6.36c16.92.45,36.78-5.22,45.22-12.9l0,0,0,0A88.23,88.23,0,0,0,148,63.83a86.84,86.84,0,0,0,21.87-2.38h0l0,0c8.22,5.87,20.91,10.84,32.32,12.67a88.37,88.37,0,0,0,25.94,0c8.58-1.24,15.86-3.6,20.51-6.65,3.16-2.07,5-4.36,5.41-6.8s-.58-5.39-3.05-8.44C247.62,48,241.53,43.71,234,40.15Z"/><path class="cls-3" d="M234,40A76.22,76.22,0,0,0,189.9,33.2c-9.57-6.63-25.83-11.14-40-11.14h-1.22c-15.23.29-32.87,6-41.06,13.37a81.81,81.81,0,0,0-25.06-3.69,81.44,81.44,0,0,0-30.85,7c-9.51,4.38-14.91,9.72-14.81,14.66C37,56.71,39.47,60,44,63.08v0a215.07,215.07,0,0,0,1.73,27.39l-.3.28a.6.6,0,0,0,0,.9.67.67,0,0,0,.47.18,197.47,197.47,0,0,0,5.32,26.21A160.12,160.12,0,0,0,71,163c8.47,13,18.32,23.16,29.29,30.27,11.37,7.37,23.44,11.11,35.89,11.11,23.87,0,46.51-13.94,63.73-39.24,15.91-23.35,25.7-54.15,27.92-87.44a.61.61,0,0,0,.19-.2.62.62,0,0,0,0-.48.65.65,0,0,0-.17-.26c0-.79.09-1.58.13-2.38l.23,0c8.59-1.24,15.9-3.61,20.56-6.67,3.2-2.1,5-4.42,5.48-6.9s-.58-5.47-3.08-8.54C247.73,47.92,241.62,43.59,234,40ZM44.18,63.19A48.59,48.59,0,0,0,52,67.28a86.87,86.87,0,0,0,29.92,6.37c16.93.45,36.81-5.22,45.29-12.91A88.23,88.23,0,0,0,148,64,86.87,86.87,0,0,0,169.9,61.6c8.25,5.88,20.95,10.85,32.37,12.68a81.83,81.83,0,0,0,12.94,1,90.89,90.89,0,0,0,12.66-.88c0,.75-.07,1.5-.12,2.25h0c-2.32-1.17-4.21,1.12-10,10.15a18.1,18.1,0,0,1-4,5.11C210.42,85.67,202,81.26,192.1,81.26c-12.82,0-23.25,7.44-23.25,16.58a12.29,12.29,0,0,0,1.36,5.58h0a.65.65,0,0,0-.44.82c1.11,3-2,6.73-7,8.26a13.14,13.14,0,0,1-7.07.33,5.32,5.32,0,0,1-3.93-3,.7.7,0,0,0-.72-.42c-.93-9.65-12.5-17.31-26.58-17.31-13.52,0-24.72,7-26.42,16.15-3.15-5.79-19.22-15.72-28-19.52C59.53,82.55,54,82.9,45.9,90.38A213.76,213.76,0,0,1,44.18,63.19Zm80.26,29.46c-13.73,0-25,7.39-26,16.71a4.26,4.26,0,0,0-.35-.9c1.57-9.14,12.76-16.24,26.31-16.24,14,0,25.5,7.6,26.42,17.19h0a.65.65,0,0,0-.42.4C149.8,100.27,138.38,92.65,124.44,92.65Zm25.87,18c0,9.84-11.61,17.86-25.87,17.86s-25.88-8-25.88-17.86,11.61-17.86,25.88-17.86S150.31,100.8,150.31,110.65Zm-51.89-.48c0,.16,0,.32,0,.48,0,9.92,11.68,18,26,18s26-8.08,26-18c0-.12,0-.24,0-.36a5.37,5.37,0,0,0,.46.89c-.41,9.91-12.12,17.9-26.47,17.9-14.61,0-26.5-8.27-26.5-18.43,0-.08,0-.15,0-.22a.74.74,0,0,0,.46-.24Zm52.15,0a.49.49,0,0,1,.34-.63l.17,0a.52.52,0,0,1,.51.34,5.45,5.45,0,0,0,4,3.1,13.26,13.26,0,0,0,7.16-.32c5-1.56,8.23-5.35,7.1-8.45a.49.49,0,0,1,.34-.63.54.54,0,0,1,.68.31c1.32,3.62-2.17,8-7.77,9.71a15.83,15.83,0,0,1-4.66.73,12.17,12.17,0,0,1-3.14-.39C152.91,113.29,151.22,112,150.57,110.17Zm20.49-6.34a.69.69,0,0,0-.69-.43A12.25,12.25,0,0,1,169,97.84c0-9.06,10.36-16.44,23.1-16.44s23.1,7.38,23.1,16.44-10.37,16.44-23.1,16.44c-9.13,0-17-3.8-20.79-9.28A4.29,4.29,0,0,0,171.06,103.83ZM46,91.73a.56.56,0,0,1-.38-.14.47.47,0,0,1,0-.7c8.32-7.82,13.77-8.28,24.33-2.06,9.62,4.15,27.85,15.56,28.5,20.91a.44.44,0,0,1-.11.36.56.56,0,0,1-.37.19h-.06a.52.52,0,0,1-.53-.44c-.56-4.57-17.8-15.78-27.92-20.13l-.07,0c-4.62-2.73-8.17-4.13-11.41-4.13-3.85,0-7.28,2-11.59,6a.52.52,0,0,1-.38.15Zm153.82,73.32c-17.2,25.26-39.79,39.17-63.6,39.17-12.42,0-24.46-3.73-35.8-11.08C89.43,186,79.59,175.86,71.14,162.9a159.78,159.78,0,0,1-19.73-44.85,199.26,199.26,0,0,1-5.32-26.2.64.64,0,0,0,.36-.17c7.87-7.39,12.77-7.79,22.81-1.87l.08,0c10.1,4.34,27.28,15.49,27.83,20a.66.66,0,0,0,.62.56v.23c0,10.24,11.95,18.57,26.65,18.57,14.32,0,26-7.92,26.62-17.81a7.31,7.31,0,0,0,4.23,2.65,12.67,12.67,0,0,0,3.19.39,16.15,16.15,0,0,0,4.71-.73c4.95-1.54,8.26-5.1,8.15-8.43,3.83,5.41,11.7,9.13,20.76,9.13,12.82,0,23.25-7.44,23.25-16.58a12.2,12.2,0,0,0-1-4.71A18.76,18.76,0,0,0,219,87.38c5.06-7.95,6.95-10.2,8.07-9.64a.74.74,0,0,0,.6,0C225.44,111,215.66,141.73,199.78,165.05Zm28.14-88a.47.47,0,0,1,0,.38.56.56,0,0,1-.73.2c-1.25-.63-3,1.45-8.28,9.7A18.94,18.94,0,0,1,214.33,93c-.14-.32-.3-.65-.47-1a18.08,18.08,0,0,0,4.06-5.17c4.82-7.58,6.88-10.36,8.74-10.36a2.16,2.16,0,0,1,1,.26A.48.48,0,0,1,227.92,77Zm26.23-16.3c-.43,2.44-2.25,4.73-5.41,6.8-4.65,3-11.93,5.41-20.51,6.65a88.37,88.37,0,0,1-25.94,0c-11.41-1.83-24.1-6.8-32.32-12.67l0,0h0A86.84,86.84,0,0,1,148,63.83,88.23,88.23,0,0,1,127.2,60.6l0,0,0,0c-8.44,7.68-28.3,13.35-45.22,12.9a86.86,86.86,0,0,1-29.86-6.36,40.21,40.21,0,0,1-10.7-6.31c-2.78-2.45-4.21-5-4.26-7.43-.1-4.89,5.27-10.18,14.72-14.53a81.12,81.12,0,0,1,30.78-7,82.13,82.13,0,0,1,25.06,3.7h0l0,0c8.15-7.33,25.77-13.07,41-13.36h1.22c14.12,0,30.36,4.51,39.91,11.13l0,0h0A76.07,76.07,0,0,1,234,40.15c7.57,3.56,13.66,7.88,17.14,12.15C253.57,55.35,254.6,58.19,254.15,60.74Z"/></g></g></svg>
