<svg xmlns="http://www.w3.org/2000/svg" viewBox="0 0 130 170"><title>point-1</title><g id="UI"><g id="Knapper"><path d="M54.18,142.63A8.36,8.36,0,0,0,49.79,144a5.8,5.8,0,0,1-4.58.78q-1-.19-.78-1.47a18.09,18.09,0,0,0,.2-2.74,7.7,7.7,0,0,0-.49-2.74c-.33-.85-1.14-1.27-2.44-1.27h-.39a4.29,4.29,0,0,0-1.85,3.33c-.19,1.56-.29,2.48-.29,2.74a3.13,3.13,0,0,0-1.76-.49,1.93,1.93,0,0,0-1.07.58l-.88.89a1.16,1.16,0,0,1-1.17.19,3.72,3.72,0,0,1-3.21-2,15.55,15.55,0,0,1-1.95-4.4,32.37,32.37,0,0,1-1-5c-.19-1.7-.29-2.94-.29-3.72a20.43,20.43,0,0,1,1.07-3.14,11.21,11.21,0,0,0,.88-3.33l7.21.4a13,13,0,0,0,2.15,2A5.72,5.72,0,0,0,42.09,126a8.33,8.33,0,0,0,4.29-1.27,7,7,0,0,1,4.29-1.07c1,0,1.66.32,1.85,1s.81,1,1.86,1a4.48,4.48,0,0,0,2.34-.49,6.57,6.57,0,0,0,1.75-2,1.52,1.52,0,0,1-1.56-1c-.13-.26.2-.78,1-1.57a8.82,8.82,0,0,0,1.36-1.56q0-2.35-.29-6.17c-.2-2.55-.39-5.19-.59-7.93s-.29-5.38-.29-7.93a23.85,23.85,0,0,1,.59-6A9.19,9.19,0,0,1,59,89.28c.19-.85.42-1.83.68-2.94s.49-2.19.68-3.23.36-1.83.49-2.35a8.53,8.53,0,0,0-.1-3.92,11.26,11.26,0,0,1-.48-3.33c0-.26.06-1,.19-2.25s.26-2.25.39-3q.59-3.92,1.27-7.93a29.81,29.81,0,0,0,.29-7.93,3.93,3.93,0,0,0-.78-1.17c-.52-.66-.91-1-1.17-1A5.69,5.69,0,0,0,61,48a13.82,13.82,0,0,1,.39-2.25h-1a3.13,3.13,0,0,1-.58.79c-.27.26-.39.46-.39.58a12.06,12.06,0,0,0-2.25,1.28,12.84,12.84,0,0,0-1.65,1.27,5.6,5.6,0,0,0-1.08.29c-.58.2-1.2.39-1.85.59s-1.24.39-1.75.59-.78.36-.78.49A19.3,19.3,0,0,0,45.9,54q-2.25,1.66-4.68,3.14a27.88,27.88,0,0,1-4.88,2.35,7.08,7.08,0,0,1-4.78.09,10.27,10.27,0,0,0,0-7.44A24.76,24.76,0,0,0,30,48.85c-.66-1.18-1.37-2.55-2.15-4.12a7.68,7.68,0,0,1,.1-.88c.06-.45.1-.75.1-.88a10.69,10.69,0,0,1,.68-1.56c.32-.66.94-.72,1.85-.2a5,5,0,0,1,.59,1A4.3,4.3,0,0,0,32,43.36h.2a2.34,2.34,0,0,0,1.75-.48,23.2,23.2,0,0,0,2.44-1.67,17.16,17.16,0,0,0,2.24-2.05,3.08,3.08,0,0,0,1-1.67,2.67,2.67,0,0,0,.29-2.06,3.92,3.92,0,0,1,.1-2.25l2.34.59a15,15,0,0,1,2-4.4,1.58,1.58,0,0,1,1.56-.69c.52.13,1.13.33,1.85.59s1.66-.07,2.83-1a2.87,2.87,0,0,0,1-1.08c.13-.32.23-.59.29-.78a.39.39,0,0,1,.39-.3,7.12,7.12,0,0,1,1.47.4,2.11,2.11,0,0,1,1.56.58c-.27-.12-.75.07-1.47.59a4.37,4.37,0,0,0-1.26,1.18c-.27.13-.39.62-.39,1.46a6.32,6.32,0,0,1-.2,1.86,1.36,1.36,0,0,0,1.76-.49c.39-.58.84-1.23,1.36-1.95A6.21,6.21,0,0,1,56.91,28a3.92,3.92,0,0,1,3.32.09L62,21.83c.13-.26.45-.42,1-.49a1.32,1.32,0,0,1,1.17.29,30.74,30.74,0,0,1,5.76,4.31,21.62,21.62,0,0,1,4.19,4.7,5.48,5.48,0,0,0,1,1.17L76.21,33A9.38,9.38,0,0,1,78,39.06,66.84,66.84,0,0,1,77.48,47c-.33,2.67-.55,5.15-.68,7.44S77.06,58.24,78,59a23.54,23.54,0,0,1-.2,2.44c-.13,1.11-.29,2.29-.49,3.53s-.42,2.42-.68,3.52S76.15,70.45,76,71l-.39,1.17c-.26.79-.33,1.18-.2,1.18a3.28,3.28,0,0,0,1.37,1,3.22,3.22,0,0,1,1.36,1,12.72,12.72,0,0,1-.1,4.7c-.32,2.09-.74,4.3-1.26,6.65s-1,4.6-1.56,6.76a43.06,43.06,0,0,0-1,5,6.37,6.37,0,0,1,.59,1.86,19,19,0,0,1,.39,1.86q-.19,2.55-.39,3.72a13.23,13.23,0,0,0-.2,2.15,14.94,14.94,0,0,0,.2,2.25,29.36,29.36,0,0,0,1,3.82v.39c0,.14,0,.2-.1.2s-.09.07-.09.2v.39a2.91,2.91,0,0,0-.59.09,2.39,2.39,0,0,1-.58.1l-.2.39v.59L76,116a6.91,6.91,0,0,0-1.17,2.74,4.77,4.77,0,0,0-.2,2.94,2.1,2.1,0,0,0,1.46,1.66,15.13,15.13,0,0,0,3,.78,32.24,32.24,0,0,0,3.7.4c1.3.06,2.4.16,3.32.29a2.06,2.06,0,0,0,1.46-.1,6.73,6.73,0,0,0,1.46-1.66l-.19,2.74a9,9,0,0,1,1.46-.49,6.43,6.43,0,0,1,1.46-.29.17.17,0,0,0,.19.19h.39a.79.79,0,0,1,.78.39,2.17,2.17,0,0,0,1.17.79,2.89,2.89,0,0,0,1.17-.4c.52-.26.78-.58.78-1v-.4a11.46,11.46,0,0,1-1.26-.78,2.9,2.9,0,0,0-1.27-.59c.13,0,.29-.19.49-.58s.35-.59.48-.59v-.2l.39.2h.39a20.82,20.82,0,0,0,5.95,1.76,6.66,6.66,0,0,1,3.31,1,4,4,0,0,1,1.27,3,56.73,56.73,0,0,1-.19,7.74c0,.78-.07,2.12-.2,4a8.23,8.23,0,0,1-1.36,4.41l-.78-1.18.39-7a4.94,4.94,0,0,0-.88.1,4.23,4.23,0,0,1-.88.1.62.62,0,0,1-.58-.39,2.35,2.35,0,0,1,0-1.37,6.06,6.06,0,0,0-1.66,2.25c-.46,1-.94,2-1.46,3l-1.37,2.74q-.58,1.19-1.17,1.38c0-.13-.13-.3-.39-.49s-.39-.36-.39-.49h-.58l-.39-.4a6.49,6.49,0,0,1-1.17.89,2.63,2.63,0,0,0-1,.88v-2.55a9.06,9.06,0,0,0-2.24,1.76,29.84,29.84,0,0,0-1.85,2.35,4.54,4.54,0,0,1-.78-1.17,5.22,5.22,0,0,0-1-1.37c.25.65.19,1.07-.2,1.27a2.53,2.53,0,0,1-1.17.29c-.52,0-.85-.16-1-.49a5.38,5.38,0,0,1-.3-1.07,5,5,0,0,0-.29-1.08c-.13-.32-.46-.49-1-.49h-.59a.57.57,0,0,0-.39.2A4.61,4.61,0,0,1,80,145.37a6.32,6.32,0,0,1-3.21,2v-2.16a2,2,0,0,0-1.47.49,13.26,13.26,0,0,0-1.07,1.27A8.76,8.76,0,0,1,73,148.3a2.73,2.73,0,0,1-1.86.59H71l-1-.78a2.07,2.07,0,0,0-1.56.59A5.7,5.7,0,0,0,67,146.44a5.15,5.15,0,0,0-2.24-.68c-1.69-.39-3.06.45-4.1,2.54a5.63,5.63,0,0,0-.77-1.07,3.4,3.4,0,0,0-1-.88h-1c-.53,0-.78-.07-.78-.2a4.83,4.83,0,0,1-.78-1.37,8.14,8.14,0,0,1-.3-1.08,1.45,1.45,0,0,0-.39-.78C55.45,142.72,55,142.63,54.18,142.63ZM49.31,32.4c-.27-.13-.49.1-.69.69a1,1,0,0,0,.3,1.27c.39.13.61-.13.68-.78S49.57,32.53,49.31,32.4Zm.39,2.15a17,17,0,0,1-.3,2.06c-.19,1.11,0,1.86.69,2.25a3,3,0,0,0,1.65-.68,4.72,4.72,0,0,0,.88-1.28,1.05,1.05,0,0,0-.49-1.47,7.13,7.13,0,0,0-1.65-.68.78.78,0,0,1-.39-.1A1,1,0,0,0,49.7,34.55Zm19.1,102.2a.55.55,0,0,0,.2.39l.39.4.19-.4-.19-.39c0-.52-.2-.78-.59-.78l-.19.2Zm3.71-3.52a1,1,0,0,0-.78,1.08c0,.58.26.81.78.68.39.13.58-.1.58-.68S72.9,133.36,72.51,133.23Zm.78,9.59a1.19,1.19,0,0,0-.78,1.08,4,4,0,0,1-.2,1.27l1,.39Zm.39-5.09h1l.2-.78Zm.78,2.55c-.52,0-.78.32-.78,1s.26,1,.78,1,.58-.12.58-.78S74.85,140.41,74.46,140.28Zm2.73,1.17q-.39-.19-.39.39c0,.39.13.59.39.59C77.84,142.43,77.84,142.11,77.19,141.45Zm1.36-9.4a2.43,2.43,0,0,0-1,2v.78a1.43,1.43,0,0,0,.68-1,7,7,0,0,0,.1-1A1.2,1.2,0,0,0,78.55,132.05Zm3.12,3.33a2.56,2.56,0,0,0-1.17,2,16.2,16.2,0,0,0-.19,1.76l1.17-.19Z"/></g></g></svg>
