<svg xmlns="http://www.w3.org/2000/svg" viewBox="0 0 130 170"><title>point-9</title><g id="UI"><g id="Knapper"><path d="M57.5,150a2.43,2.43,0,0,1-2.33-.39,5.52,5.52,0,0,1-1.56-2.06,7,7,0,0,1-.59-2.94,6,6,0,0,1,.78-3c-1,1.31-2.08,2-3.12,2a12.76,12.76,0,0,1,.68-3.72,5.21,5.21,0,0,1,2.44-3.13l1.76,3.91h1q-2.34-5.09,1.46-8.52a24.84,24.84,0,0,1,10-5.18,13.16,13.16,0,0,1,.1-4.8,16.13,16.13,0,0,1,1.66-4.6h.39c.13,0,.19,0,.19-.1s.07-.1.2-.1l.39.2a3.23,3.23,0,0,1,.49.88,3.11,3.11,0,0,1,.29,1.08q.78-1.57,1.56-2.94c.39-.78.81-1.57,1.26-2.35a9.34,9.34,0,0,1,1.08-1.57,26,26,0,0,1,3.9-2.74A53.11,53.11,0,0,0,84,106.91a17.06,17.06,0,0,0,3.61-3.53,7.65,7.65,0,0,0,1.46-4.7v-.39l-1-1a13.67,13.67,0,0,1,1.47-6,13.73,13.73,0,0,0,1.46-6V85c-.13-.26-.33-.62-.59-1.08a5.18,5.18,0,0,0-.58-.88V81.85a5,5,0,0,0,.58-1.37A4.7,4.7,0,0,1,91,79.11l-.2-.4v-.19a3.44,3.44,0,0,0-2.63.78,2.83,2.83,0,0,1-2.24.78,3.94,3.94,0,0,1-2.24-.58,3.32,3.32,0,0,0-1.85-.59c-.53,0-.82.59-.88,1.76a25.75,25.75,0,0,1-.59,4,20,20,0,0,1-1.56,4.51,6.34,6.34,0,0,1-4,3.23c0,.13-.07.19-.2.19h-.58l-.39-.19A4.89,4.89,0,0,1,73,90.36a2,2,0,0,0-1.26-1.66,5.06,5.06,0,0,1-1.66,2,4.28,4.28,0,0,1-2.63,1l-.39-.2a7.7,7.7,0,0,1-1.46-1.27L64.13,88.7A1.75,1.75,0,0,0,63,90c-.13.59-.26,1.24-.39,2a11.35,11.35,0,0,1-.48,1.86q-.3.78-1.47.78h-.39A8.79,8.79,0,0,1,59.75,93a8.2,8.2,0,0,1-.3-1.57H56.53a7,7,0,0,0-3.12.59,9.52,9.52,0,0,0-2,1.37c-.58.52-1.14,1-1.65,1.37a2.87,2.87,0,0,1-1.76.59H47c-.13-.13-.46-.49-1-1.08s-.84-.88-1-.88-1,0-2.34.1a7,7,0,0,1-2.34-.1c-.26,0-.78-.42-1.56-1.28l-1.37-1.46h-.58a.75.75,0,0,1-.49-.1.38.38,0,0,0-.29-.1,5.56,5.56,0,0,0-4.29,2,10.28,10.28,0,0,0-1.07-2,2.17,2.17,0,0,0-1.86-1A3.6,3.6,0,0,0,26.9,90,18.67,18.67,0,0,0,25,91.44,17.49,17.49,0,0,1,23.29,89,6.86,6.86,0,0,1,22,85.76v-.39a.53.53,0,0,1,.2-.39,3.21,3.21,0,0,0,.78.49,2.35,2.35,0,0,0,1,.29c.65,0,1-.26,1-.78a3.74,3.74,0,0,0-.88-2.15A16.56,16.56,0,0,0,22,80.57a14.32,14.32,0,0,0-2.34-1.76,4.17,4.17,0,0,0-1.95-.68h-.39a2.69,2.69,0,0,0-.88.39c-.45.26-.81.46-1.07.59a28.23,28.23,0,0,0-.29-7.74,44.5,44.5,0,0,1-.68-7.93,11.66,11.66,0,0,1,.48-3.72,9.18,9.18,0,0,0,.49-3.13c0-.78-.16-1.27-.49-1.47s-.48-.81-.48-1.86a11,11,0,0,1,1.26-4.89c.85-1.7,2-2.55,3.42-2.55A9.7,9.7,0,0,0,18.71,43a9.29,9.29,0,0,1-.39-2.84v-.39c.26-.52.58-.78,1-.78,0,.13.36-.2,1.07-1s1.14-1.11,1.27-1l1.17-2.54q3.51,0,4.29-1.86a8.92,8.92,0,0,0,.78-3.43.53.53,0,0,0,.39-.2,1.59,1.59,0,0,1,1.46,1.18,1.88,1.88,0,0,1,.1,1.76c.26.26.65-.06,1.17-1s.91-1.24,1.17-1l1,2c.52,1.31.85,2,1,2h.39c-.13-1.18-.23-2.09-.29-2.74s-.17-1.57-.3-2.74q.78,0,1.47,1.86c.45,1.24.87,2.58,1.26,4s.81,2.84,1.27,4.21.94,2.12,1.46,2.25c.65-.13,1-.45,1-1V38.19a7.67,7.67,0,0,0-1.46-4.31,7.37,7.37,0,0,1-1.47-4.11,1.16,1.16,0,0,1,.49-1.08,6.89,6.89,0,0,1,1-.49,3.13,3.13,0,0,0,1-.68,3.07,3.07,0,0,0,.49-2.06,11.65,11.65,0,0,1,2.53-.29,18.47,18.47,0,0,0,3.8-.59,9.62,9.62,0,0,0,3.22-1.47,2.2,2.2,0,0,0,.78-2.74,4.23,4.23,0,0,0,1.56.78,5.93,5.93,0,0,0,1.56.39c.26-.12,1-.42,2.24-.88a7.54,7.54,0,0,0,2.24-1.07A19.06,19.06,0,0,0,61.4,28.2a5.94,5.94,0,0,0,3.51-2.45,3.62,3.62,0,0,0,.39-4.21A8.48,8.48,0,0,0,67,23.41l.78.48a1.51,1.51,0,0,1,.49.79c.13.39.39,1.3.78,2.74a1.59,1.59,0,0,0,1.27,1.27,8.24,8.24,0,0,0,2.24.29,14.22,14.22,0,0,1,2.34.2,2.62,2.62,0,0,1,1.75,1l1.76,2.64c.9,1.37,1.85,2.78,2.82,4.21s1.86,2.78,2.64,4a15.57,15.57,0,0,1,1.36,2.44,2.27,2.27,0,0,1,1.36,1.47,8.19,8.19,0,0,1,.2,1.76A4.07,4.07,0,0,0,87,48.27c.2.46.81.68,1.85.68a5.26,5.26,0,0,0,1.17-.19,2.43,2.43,0,0,0,1-.39l.78-2a1.89,1.89,0,0,1,1,.88,5.53,5.53,0,0,1,.3,1.27A5,5,0,0,0,93.48,50a2.87,2.87,0,0,0,1.26,1.27c.13-.26.3-.61.49-1.07a3.23,3.23,0,0,1,.49-.88h.19c.13,0,.2,0,.2-.1s.06-.1.19-.1l.39.2a19.08,19.08,0,0,1,2.93,3.72q1.17,1.95,2.14,4a35.2,35.2,0,0,0,2.24,4,18.75,18.75,0,0,0,3.22,3.72,2.83,2.83,0,0,0-.88,1.57,15.52,15.52,0,0,0-.09,1.76,6.68,6.68,0,0,0,2,4.41q2.05,2.25,3.61,3.81V88.7a15.56,15.56,0,0,0-2.53,5c-.66,2-1.27,4.08-1.86,6.17s-1.14,4-1.65,5.68a8.85,8.85,0,0,1-1.56,3.32h-1.76a2.56,2.56,0,0,0-2,2.16,19,19,0,0,0-.09,3.42,12.71,12.71,0,0,1-.3,3.53,3.55,3.55,0,0,1-2.53,2.45,4.64,4.64,0,0,1-1.46-.49,4.48,4.48,0,0,0-1.47-.49,1.12,1.12,0,0,0-.58.29.86.86,0,0,0-.39.69,3,3,0,0,0,.49,1,3.28,3.28,0,0,1,.48,1v.39a.39.39,0,0,0,.1.3.38.38,0,0,1,.1.29,7.67,7.67,0,0,1-.68,2.25,21.91,21.91,0,0,1-1.66,3.23,18.39,18.39,0,0,1-2.15,2.84c-.78.85-1.43,1.28-2,1.28l-.39-.2a4.18,4.18,0,0,1-1-.78A1.66,1.66,0,0,0,86,133.73a6.57,6.57,0,0,0,.2,2l-4.88,5.87c0-.26-.23-.62-.68-1.08a5.15,5.15,0,0,0-1.07-.88H79a2.49,2.49,0,0,0-1.46.79,14,14,0,0,0-1.66,1.76l-1.56,2a5.66,5.66,0,0,0-1,1.56,2,2,0,0,1-.2-1.17v-2.06a27,27,0,0,0-.19-2.84h-.59a1.94,1.94,0,0,0-1.65,1.08,15.41,15.41,0,0,0-1.27,2.54c-.39,1-.72,1.93-1,2.84s-.45,1.57-.58,2c-.65-.52-1.37-1.11-2.15-1.76a3.49,3.49,0,0,0-2.14-1c.13.91.22,1.92.29,3a7.69,7.69,0,0,1-.39,3,2.64,2.64,0,0,1-1.85,1.76c-.91.26-2.28,0-4.1-.78a1.71,1.71,0,0,1-.48-.1,1.51,1.51,0,0,0-.49-.1c.13-.26.32-.62.58-1.07A2.44,2.44,0,0,0,57.5,150ZM25.92,62.86h1v-1h-1Zm6.43,3.72A4.56,4.56,0,0,1,32,68a1.88,1.88,0,0,0-.19,1.37,6.14,6.14,0,0,0,2.63,2.84,37.32,37.32,0,0,0,3.9,2c1.37.59,2.66,1.18,3.9,1.77A7,7,0,0,1,45,78.13L47,76.36h8.58l1,1.77a15.34,15.34,0,0,1,10.92-4.7H68a8.14,8.14,0,0,1,1.37.39,14,14,0,0,1,1.56.59h.78a4.38,4.38,0,0,1,1-.59,2.31,2.31,0,0,0,.59-.39V68.92a2.76,2.76,0,0,1,1.85.59,12.69,12.69,0,0,1,1.27,1.27,8.32,8.32,0,0,0,1.36,1.28,3.16,3.16,0,0,0,2,.58,9.11,9.11,0,0,0-1.07-4.21c-.72-1.37-1.5-2.7-2.34-4S74.69,61.81,74,60.51a8,8,0,0,1-1.07-3.92,9.13,9.13,0,0,1,1-4.11,9.11,9.11,0,0,0,1-4.11,5.77,5.77,0,0,0-1-3.72,7.17,7.17,0,0,0-2.34-1.86l-2.92-1.47A6.23,6.23,0,0,1,66.08,39a6.41,6.41,0,0,1-.68-2.06c-.07-.58-.13-1.14-.19-1.66a1.58,1.58,0,0,0-.69-1.17,4.67,4.67,0,0,0-2.34-.4v5.68a4.45,4.45,0,0,0-.87.2,4.21,4.21,0,0,1-1.08.19,5,5,0,0,0-.87-.58,1.19,1.19,0,0,0-1.08-.2q-.2,0-.87.69a4.62,4.62,0,0,0-.88,1.07l-1-1A25.33,25.33,0,0,1,55,36.52a31,31,0,0,1-.39-3.42c-.13,0-.19,0-.19-.1s-.07-.1-.2-.1l-.39.2A2.1,2.1,0,0,0,53,34a2.69,2.69,0,0,0-.39.88,10.62,10.62,0,0,0,.49,2A16.62,16.62,0,0,0,53.8,39v.2c0,.52-.75,1.3-2.24,2.34s-3.22,2.19-5.17,3.43-3.8,2.45-5.55,3.62a16.9,16.9,0,0,0-3.42,2.74c-.39-2.08-1.36-3.13-2.92-3.13a.94.94,0,0,0-.39.1.81.81,0,0,1-.39.1c-.78,1.7-1.34,3-1.66,3.91a10.87,10.87,0,0,0-.49,3.53,24.83,24.83,0,0,0,.39,4.6,24.75,24.75,0,0,1,.39,4.6,3.6,3.6,0,0,1-1.46-.3c-.45-.19-.81.1-1.07.89.26.78.55,1.14.88,1.07A10.27,10.27,0,0,1,32.35,66.58ZM29.82,50.33h1v-1h-1Zm6-10.19c-1.82,0-2.86.66-3.12,2a21.07,21.07,0,0,0-.39,4.11c1.82,0,2.86-.68,3.12-2.05A21.53,21.53,0,0,0,35.86,40.14Zm3.51,38c-.26,0-.39.16-.39.49s.13.49.39.49a.63.63,0,0,0,.39-.59A.34.34,0,0,0,39.37,78.13ZM42.3,88.7h1a2.41,2.41,0,0,0-1-2ZM47,28.2h1l-1-.78ZM49.9,89.48a1,1,0,0,0,0,2c.39,0,.59-.32.59-1S50.29,89.48,49.9,89.48Zm2.73-60.3c-.39,0-.58.33-.58,1s.19,1,.58,1a1,1,0,0,0,0-2Zm3.9-4.89c-.26-.13-.39,0-.39.49s.13.68.39.68a1.12,1.12,0,0,0,.39-.78A.34.34,0,0,0,56.53,24.29ZM60.23,132c-.39,0-.58.32-.58,1s.19,1,.58,1a1,1,0,1,0,0-1.95Zm0-44.25H61.6a10.11,10.11,0,0,0-.2-2,4,4,0,0,0-1.17-2ZM65.3,130a1,1,0,0,0,0,2c.39,0,.59-.33.59-1S65.69,130,65.3,130Zm4.49-8.81a10.57,10.57,0,0,0,.68,2.35,1.69,1.69,0,0,0,1.66,1.17,17.27,17.27,0,0,0-.2-2.35c-.13-.91-.58-1.37-1.36-1.37a.94.94,0,0,0-.39.1A.81.81,0,0,1,69.79,121.2ZM71,85c-.65,0-1,.29-1,.88s.33.88,1,.88c.39,0,.58-.29.58-.88S71.35,85,71,85Zm5.65-4.9A4.31,4.31,0,0,0,75,82.24,8.24,8.24,0,0,0,74.47,85h1.17c.12,0,.29-.52.48-1.57s.36-1.89.49-2.54v-.79Zm0-2c0-.26-.16-.4-.49-.4s-.48.14-.48.4a.61.61,0,0,0,.58.39A.34.34,0,0,0,76.61,78.13Zm0,9.59c-.26-.13-.39,0-.39.49s.13.62.39.49a.63.63,0,0,0,.39-.59A.34.34,0,0,0,76.61,87.72ZM80.32,131a1.78,1.78,0,0,0-1,1.27,7.69,7.69,0,0,0-.19,1.66h2.53a8.37,8.37,0,0,0-.19-1.66A1.79,1.79,0,0,0,80.32,131Zm0-6.85c-.27,0-.39.16-.39.48s.12.49.39.49a.57.57,0,0,0,.39-.49C80.71,124.43,80.57,124.27,80.32,124.14Zm0-64a11.23,11.23,0,0,0,1,4.7,4.85,4.85,0,0,0,2.15-4.11,2.41,2.41,0,0,0-.39-1.47,11.14,11.14,0,0,0-1.76-1.47,1.51,1.51,0,0,0-.88,1.18A11.19,11.19,0,0,0,80.32,60.11Zm2,75.58c-.14-.26-.39-.23-.78.09s-.46.63-.2.89a.9.9,0,0,0,1-.2A.5.5,0,0,0,82.27,135.69ZM85.19,54c-.52,0-.78.33-.78,1s.26,1,.78,1,.78-.32.78-1S85.71,54,85.19,54Zm2,72.05A2.53,2.53,0,0,0,86,127.37c-.26.58-.52,1.14-.78,1.66h3.9ZM96.69,54c-.52,0-.78.33-.78,1s.26,1,.78,1,.78-.32.78-1S97.21,54,96.69,54Zm12.48,27.81c0,.13.13.32.39.58s.46.46.59.59h1a1.41,1.41,0,0,1-.29-.39,2,2,0,0,0-.29-.39l-.39-.39h-1Z"/></g></g></svg>
