<svg xmlns="http://www.w3.org/2000/svg" viewBox="0 0 150 170"><title>point-4</title><g id="UI"><g id="Knapper"><path d="M93.65,156.16a2.85,2.85,0,0,0-2.83-1.76,3.7,3.7,0,0,1-3-1.17c-.13-.27-.59-1-1.37-2.26a19.79,19.79,0,0,1-1.56-2.83L82,142.26c0-.52,0-1.5.1-2.93s.09-2.94.09-4.51,0-3-.09-4.4-.1-2.38-.1-3a4.64,4.64,0,0,0-.2-.88,8.9,8.9,0,0,1-.29-1.47,14.24,14.24,0,0,0-.29-1.56,6.13,6.13,0,0,1-.2-1v-8.81c-.13-.65-.29-1.86-.48-3.62a34.54,34.54,0,0,0-.49-3.43,29.86,29.86,0,0,1-3.61-.39,27.53,27.53,0,0,1-3.22-.59,11.3,11.3,0,0,1-3.89-1.27A3.11,3.11,0,0,1,68,102.81c-.2-.59-.43-1.24-.68-2a5.39,5.39,0,0,0-2.15-2.25,3,3,0,0,0-1.27,1.57,10.62,10.62,0,0,0-.68,2.64,23.08,23.08,0,0,0-.19,3v2.35a11.44,11.44,0,0,1-5-1.18c-1.62-.78-3.15-1.57-4.58-2.35-.13,0-.32-.16-.58-.49s-.46-.49-.59-.49h-.19a.55.55,0,0,1-.39-.19,3.8,3.8,0,0,0-1.56.88c-.78.58-1.37,1-1.76,1.27a10.37,10.37,0,0,1-2.53.88c-.91.2-1.37.88-1.37,2.06H24.82A4.83,4.83,0,0,0,24,108a2.44,2.44,0,0,0-1.08-.39H16.05a11.6,11.6,0,0,1-2.54-1,11.62,11.62,0,0,0-2.53-1,5.1,5.1,0,0,0-2-.1c-1,.07-1.69.1-1.95.1l-1.95-2c0-.13-.13-.16-.39-.1a2.47,2.47,0,0,1-.58.1,5.83,5.83,0,0,1-1.66-3.42A7.88,7.88,0,0,0,1,96.64a5.12,5.12,0,0,1-1-2.44V90.77c0-.26,0-.88.1-1.86s.1-1.66.1-2A4.16,4.16,0,0,1,3,85.68c2.07,0,3.44.56,4.09,1.66S8.25,89,8.64,89a4.44,4.44,0,0,0,3.12-1.27,10.39,10.39,0,0,0,2.24-3,35.24,35.24,0,0,0,1.56-3.62,32.92,32.92,0,0,1,1.27-3c.13-.12.49-.42,1.07-.88s.88-.81.88-1.07a2.94,2.94,0,0,0,0-2.16A1.42,1.42,0,0,1,20,72a8,8,0,0,1,1.36.19,8.43,8.43,0,0,0,1.37.2,3.55,3.55,0,0,0-.49-2.16,4.34,4.34,0,0,0-2.24-1,7.72,7.72,0,0,1,1.95-1.07c1-.46,1.69-.75,2-.88a9.4,9.4,0,0,1,1.95-.49,4.15,4.15,0,0,0,1.95-.69,4.53,4.53,0,0,0,0-2,4.49,4.49,0,0,1,0-2,2.9,2.9,0,0,1,1.17-1.28c.65-.45,1.33-.91,2-1.37A5.44,5.44,0,0,0,32.62,58a1.34,1.34,0,0,0,0-1.67,6,6,0,0,1,2.05-.68,12.79,12.79,0,0,1,1.85-.3,5.56,5.56,0,0,1,1.56.49,5.22,5.22,0,0,0,1.56.49h.59c1.16,0,1.59-.55,1.26-1.66a2.8,2.8,0,0,1,.1-2.45,4.23,4.23,0,0,1,1.56-.78c.78-.26,1.66-.52,2.63-.78a16.89,16.89,0,0,0,2.73-1,4.88,4.88,0,0,0,1.85-1.37,4.54,4.54,0,0,0,.59-1,4.65,4.65,0,0,1,.58-1c0-.13.3-.3.88-.49a5.36,5.36,0,0,1,1.07-.3c.13-.12.1-.32-.09-.58a1.18,1.18,0,0,1-.3-.59H51.53V41c.26,0,.88,0,1.86.1a9.64,9.64,0,0,1,2,.29l.78,1a3.1,3.1,0,0,1,.59.1,2.39,2.39,0,0,0,.58.1A2.48,2.48,0,0,0,59,42a11.71,11.71,0,0,0,1.27-1.27c.39-.46.81-.91,1.26-1.37a3.16,3.16,0,0,1,1.66-.88c.39,0,1.2.06,2.44.19s2,.2,2.44.2V35.76a12.36,12.36,0,0,0-1.86.09c-.32.07-.52.17-.58.3a1,1,0,0,1-.2.29c-.06.07-.29.1-.68.1a1.87,1.87,0,0,1-2-1.66c-.26-1.11-.46-1.93-.58-2.45v-.79a3.12,3.12,0,0,0,.48-.88c.2-.45.36-.81.49-1.07.26-.52.62-1.14,1.07-1.86a12.75,12.75,0,0,1,.88-1.28,13.14,13.14,0,0,1,2.44-.49,11.84,11.84,0,0,0,2.43-.48c.26-.13.59-.92,1-2.35a7.56,7.56,0,0,1,1-2.55,3.44,3.44,0,0,1,1.08-.49c.58-.19.87-.36.87-.49A7.7,7.7,0,0,0,75,17.84c.45-1,.74-1.66.87-2.05h.59a6.11,6.11,0,0,1,3.22.88c1,.58,2,1.21,2.92,1.86s2,1.27,2.92,1.86a6.59,6.59,0,0,0,3.42.88,9.58,9.58,0,0,1-.78,3.33,32.62,32.62,0,0,1-2,4q-1.17,2.05-2.34,3.92t-2,3a3.61,3.61,0,0,1-2.15,1.27,2.19,2.19,0,0,0-1.75,1.67v2a44.62,44.62,0,0,1-5.46,8.23Q69.08,53,66.16,56.31c-.27.27-.72.76-1.37,1.47s-1.33,1.44-2.05,2.15L60.7,62a7.22,7.22,0,0,1-1.37,1.18,3,3,0,0,0-1,.49,3.06,3.06,0,0,1-1,.48,4.14,4.14,0,0,1-.58.49,2,2,0,0,0-.59.69,3,3,0,0,1-.49,1,10.1,10.1,0,0,0-.87,1.86,14.25,14.25,0,0,1-.88,2,3.63,3.63,0,0,0-.49,1.07,10.33,10.33,0,0,1-2.53.39,11.39,11.39,0,0,0-2.54.4,9.63,9.63,0,0,0-.87,1.46,3.9,3.9,0,0,1-1.08,1.47,1.51,1.51,0,0,1-.58.2H45.1a8.64,8.64,0,0,1-2.73-.39,8,8,0,0,0-2.53-.39,2.4,2.4,0,0,0,.58,1.76,6.36,6.36,0,0,1,1.17,2,2.75,2.75,0,0,0-1.66.2c-.71.26-1.2.46-1.46.59a3,3,0,0,0,0,1.56,3,3,0,0,1,0,1.57c0,.13-.13.33-.39.59l-.39.39v1a1.71,1.71,0,0,1-1.46,1,17,17,0,0,1-1.85-.1,8.6,8.6,0,0,0-1.76,0c-.52.07-.85.42-1,1.08a7.43,7.43,0,0,0,2,1.07c1.11.46,1.79.76,2.05.88s.42,0,.88-.09a7.27,7.27,0,0,1,1.07-.1v-2a1.69,1.69,0,0,1,2,1.57,6.51,6.51,0,0,0,.78,2.54c.13.13.32.1.58-.1a1.23,1.23,0,0,1,.59-.29V87.64a7.73,7.73,0,0,1,3.51.88c1.17.59,1.62,1.73,1.36,3.43.65-.13,1-.43,1.08-.89a6.75,6.75,0,0,0,0-1.56,13.35,13.35,0,0,1-.1-1.57c0-.45.32-.81,1-1.07a12.29,12.29,0,0,0,1.56-.2l2.44-.39q1.26-.19,2.34-.3c.71-.06,1.2-.09,1.46-.09.91,0,2.57-.07,5-.2s4.91-.23,7.51-.29,5.07-.17,7.41-.3,4-.19,4.87-.19l1-1a3.43,3.43,0,0,0,.39-1.37c.13-.79.29-1.7.49-2.74s.39-2.09.58-3.14.36-1.89.49-2.54V67.28a6.42,6.42,0,0,1,.39-1.57,16.12,16.12,0,0,1,.58-1.57q.78-3.12,1.27-5.48t.78-4.5c.19-1.44.36-2.94.49-4.5S87.73,46.2,88,44c.26-.65.62-1,1.07-1.08a11.32,11.32,0,0,1,1.47-.1c.26,0,.71,0,1.36.1a1,1,0,0,1,1,1.08c0,.39.06.26.19-.39s0-.72-.39-.2a7.41,7.41,0,0,0,4.1,3.13,16.74,16.74,0,0,0,5.06.79,4.64,4.64,0,0,1-.48,1.47,5.46,5.46,0,0,1-.88,1.46,1.27,1.27,0,0,0-.1-1.07,1.62,1.62,0,0,0-.68-.88c-.26-.13-.72,0-1.36.29a3.79,3.79,0,0,1-1.37.49.17.17,0,0,1-.19.19.18.18,0,0,0-.2.2,9.06,9.06,0,0,1,1.56,1.37,9.06,9.06,0,0,0,1.56,1.37c.13.26.55,1,1.27,2.35s1.39,2,2,2a.4.4,0,0,0,.3-.1.4.4,0,0,1,.29-.1c-.39-.65-.72-1.2-1-1.66a3.78,3.78,0,0,1-.39-1.86,16.57,16.57,0,0,1,1.66.19,7.11,7.11,0,0,1,1.66.4A2.21,2.21,0,0,1,107,55.24a2.76,2.76,0,0,0,1.46,2,5.44,5.44,0,0,1,1.47.39c.71.27,1.2.46,1.46.59v.2a.55.55,0,0,0,.19.39l-.19.39c-.26.13-.75.33-1.46.59a5.44,5.44,0,0,1-1.47.39.87.87,0,0,0,1,1c.39,0,1.27.06,2.63.19s2.31.2,2.83.2a17.3,17.3,0,0,1-.2,1.76,12.4,12.4,0,0,1-.39,2c-.13.78-.55,1.08-1.26.88s-1.27.17-1.66,1.08-.65,1.34-.78,1.66-.85.69-2.15,1.08h5.07A8.56,8.56,0,0,1,112,75a8.58,8.58,0,0,0-1.56,5,13.09,13.09,0,0,0,.49,2.94c.32,1.31.81,2,1.46,2a3,3,0,0,0,1-.49,3,3,0,0,1,1-.49,17.51,17.51,0,0,1,4.68-1H130.1a6.38,6.38,0,0,1,1.56.39,4.85,4.85,0,0,1,1.37.59c.39.13,1.1.33,2.14.59a11.73,11.73,0,0,0,2,.39h.78a5.22,5.22,0,0,0,1.56-.49,5.22,5.22,0,0,1,1.56-.49,15.44,15.44,0,0,1,2.44.39c1.23.26,2,.46,2.44.59s.65.62,1.17,1.07.78.76.78.89a3.93,3.93,0,0,1-.88,1.56c-.59.78-.94,1.24-1.07,1.37v.59A1.78,1.78,0,0,0,147.07,92a15.05,15.05,0,0,0,1.75.78,5,5,0,0,0-2.14,3.91v.79a.55.55,0,0,0,.19.39,6.41,6.41,0,0,0,.88,2c.58,1,.94,1.69,1.07,2v1A5.81,5.81,0,0,0,145,100a26.71,26.71,0,0,0-4.58-.39c-.26,0-.82,0-1.66.1s-1.4.1-1.66.1a4.07,4.07,0,0,0-1.56,2.25c-.39,1.11-.91,1.66-1.56,1.66l-.78-.39a4.44,4.44,0,0,0-.68-.29,1.35,1.35,0,0,1-.49-.3l-1-1h-.59a1.51,1.51,0,0,0-.58.2c0,1.57-.23,2.52-.68,2.84a3.3,3.3,0,0,1-1.56.59,5.1,5.1,0,0,0-1.56.39c-.46.19-.68.88-.68,2-.14,0-.17,0-.1-.09s0-.1-.1-.1c-.65-.26-1.72-.75-3.22-1.47a13.69,13.69,0,0,1-2.63-1.47,2.1,2.1,0,0,1-.78-.88,2.4,2.4,0,0,1-.39-1.08h-8.77c.13-1.3-.56-2.12-2-2.44a17.11,17.11,0,0,0-3.41-.49h-.39a4.66,4.66,0,0,0-.59.88c-.26.46-.45.81-.58,1.07H96.57c-.26,0-.46.23-.58.69a9.13,9.13,0,0,0-.3,1.57c-.06.58-.09,1.4-.09,2.44v2.16a11.82,11.82,0,0,0,1.07,1.56,15.19,15.19,0,0,1,1.07,1.57,13,13,0,0,0,.78,2,5,5,0,0,0,1.17,2,4.49,4.49,0,0,0,2,0,4.49,4.49,0,0,1,2,0c.13,0,.32.13.58.39a.57.57,0,0,1,.2.39,3.76,3.76,0,0,1-2,1.56,15.22,15.22,0,0,1-2.24.59,5,5,0,0,0-1.85.69,2,2,0,0,0-.78,1.86v2.35a21.61,21.61,0,0,0,.19,2.84,10.73,10.73,0,0,0,.68,2.64,2.08,2.08,0,0,0,1.27,1.37l-1.56.78c-1,.52-1.56.92-1.56,1.18a3,3,0,0,0,.49,1,5.85,5.85,0,0,0,.68,1v1.18A4.06,4.06,0,0,1,94.62,137a22.5,22.5,0,0,0-2.92.39,2.87,2.87,0,0,0,2.24,1.47c1.1.19,2.27.42,3.51.68a10.76,10.76,0,0,1,3.21,1.18,2.71,2.71,0,0,1,1.37,2.54H97.94a.53.53,0,0,0-.2.39v.59c0,.13.29.32.88.59a4.27,4.27,0,0,0,1.07.39,3.73,3.73,0,0,1,.39,1.47,3.86,3.86,0,0,0,.39,1.47h2a9,9,0,0,1,1.17,2,7,7,0,0,1,.78,2c-.13.65-.36,1-.68,1.08a7.17,7.17,0,0,1-1.27.1,2.77,2.77,0,0,1-2.73-2c-.65.26-1,.52-1.07.78a3.89,3.89,0,0,0-.1,1ZM16.83,103.5a2.19,2.19,0,0,0-1.46.58,2,2,0,0,0-.69,1.57h2.15Zm0-22.52c-.39,0-.59.33-.59,1s.2,1,.59,1a1,1,0,0,0,0-2Zm7-2.15q-.78,0-.78,1.08c0,.71.26,1.07.78,1.07s.78-.36.78-1.07S24.37,78.83,23.85,78.83Zm1-3.33a2.42,2.42,0,0,0,1,2,3.12,3.12,0,0,0,1.95.78h.58a.53.53,0,0,0,.39-.2,7.59,7.59,0,0,0-3.9-3.13Zm11.31,3.13A2,2,0,0,0,34,80.2a11.73,11.73,0,0,0-.39,2.94c1.29,0,2-.49,2.24-1.47A15.91,15.91,0,0,0,36.13,78.63ZM34.57,62c1.43,0,2.31-.52,2.63-1.57a10.27,10.27,0,0,0,.49-3.13H34.57Zm2,2.15q.19-.39-.39-.39t-.39.39c.13.27.29.4.49.4S36.52,64.41,36.52,64.14Zm3.9-2.93c.26-.26,0-.39-.88-.39s-1.2.13-1.07.39a1.59,1.59,0,0,0,1.17.39Q40.42,61.6,40.42,61.21Zm-1,4.7a18.7,18.7,0,0,0,.48,3.81A2.61,2.61,0,0,0,42.76,72a15.63,15.63,0,0,0-.59-3.82A2.63,2.63,0,0,0,39.45,65.91Zm3.11-2.74h1v-1Zm1-7.84h2.92v-1H43.54Zm0,35.44h1v-1h-1ZM65.18,34.39c.13-.27,0-.4-.39-.4s-.58.13-.58.4.29.58.48.58S65.05,34.78,65.18,34.39Zm1-5.88h2l-2-.78Zm9-6.85h1.95l-1.95-1ZM89.75,63.17h1v-1Zm1,2.93c-.52,0-.78.33-.78,1s.26,1,.78,1,.78-.32.78-1S91.24,66.1,90.72,66.1Zm2.93,47.58h1V112.5h-1ZM95.4,82.74a5,5,0,0,0,.49,2.45,2.12,2.12,0,0,0,2,.88,5.33,5.33,0,0,0-.49-2.35A2.07,2.07,0,0,0,95.4,82.74Zm4.29,25.46a5.34,5.34,0,0,1,2-3.82c1.3-1.24,2.21-2.12,2.73-2.65l.58-.19.39.19h.2a4.94,4.94,0,0,1,.58,1.28,5.34,5.34,0,0,1,.39,1.66c0,.26,0,.43.1.49a.75.75,0,0,1,.1.49v.59h-5.27V107a.81.81,0,0,0,.2.59,3.36,3.36,0,0,0-.49,1,3.19,3.19,0,0,1-.68,1.17,5.39,5.39,0,0,1-.49-.59,1.21,1.21,0,0,1-.29-.58Zm2.73-17.43c-.13-.26-.36-.19-.68.2s-.36.72-.1,1a.64.64,0,0,0,.78-.2C102.68,91.49,102.68,91.16,102.42,90.77Zm6.82,7c0,1.3.72,2,2.15,2a.83.83,0,0,0,.68-.39,1.29,1.29,0,0,0,.29-.79,3.72,3.72,0,0,0-1.17-1.07,11.44,11.44,0,0,0-1.75-.89,3,3,0,0,1-.1.59A2.53,2.53,0,0,0,109.24,97.82Zm1.17-24.67c-.52,0-.78.29-.78.88s.26.88.78.88.78-.29.78-.88S110.93,73.15,110.41,73.15Zm8,21.34a3.59,3.59,0,0,0-3.12,1.76,6.35,6.35,0,0,0-1.17,3.53q2.73,0,3.51-1.47A8.25,8.25,0,0,0,118.41,94.49Zm2.92,8.22.78-1-.78-1-1.17,1Zm2-4.11c-.65,0-1,.36-1,1.08s.32,1.08,1,1.08.78-.36.78-1.08S123.8,98.6,123.28,98.6Zm0,4.11a.85.85,0,0,0,.39.69,1.19,1.19,0,0,0,.59.29,7.32,7.32,0,0,0,1.46-.29,3.35,3.35,0,0,0,1.46-.69c-.26-.13-.62-.32-1.07-.58a2.82,2.82,0,0,0-.88-.4h-1c-.14,0-.33.14-.59.4S123.28,102.58,123.28,102.71Z"/></g></g></svg>
