<svg xmlns="http://www.w3.org/2000/svg" viewBox="0 0 130 170"><title>point-7</title><g id="UI"><g id="Knapper"><path d="M44.46,147.16l-2,1a9,9,0,0,0-1.95,1.17h-.39a1.24,1.24,0,0,1-1.27-.68,3.11,3.11,0,0,1-.29-1.08q-.2-2.36-.1-6.37c.07-2.67.26-5.41.59-8.22s.75-5.48,1.27-8a25,25,0,0,1,2-6.16,51,51,0,0,0,3.9-8.71q1.55-4.61,3-9.11t3.12-9.1a40.18,40.18,0,0,1,4.38-8.71c.26-.52.81-1.6,1.66-3.23a14.52,14.52,0,0,1,2.05-3.24c.13,0,.42,0,.88.1s.74,0,.87-.29l.39-.78.39-.79a9.06,9.06,0,0,1,2-2.64,19,19,0,0,1,2.34-1.86c.78-.52,1.56-1.08,2.34-1.66a8.46,8.46,0,0,0,2-2.06,5.89,5.89,0,0,0,.68-1.37c.33-.78.65-1.57,1-2.35s.61-1.53.88-2.25a5.87,5.87,0,0,0,.39-1.47c.39-.91,1-2.25,1.75-4s1.43-2.71,2-2.84L78,49.85a8.14,8.14,0,0,0,1.36-.19c.65-.13,1.33-.3,2-.49a9.84,9.84,0,0,0,1.85-.69c.52-.26.78-.59.78-1l-.59-6.65a1.63,1.63,0,0,0-1.36.49,1.69,1.69,0,0,1-1.37.49l-.39-4.12a19.86,19.86,0,0,1-3.31.1,16,16,0,0,0-2.92.1h-.59a3.08,3.08,0,0,1-.78.59l-1,.39a5.85,5.85,0,0,1-2.05-1.27,21.73,21.73,0,0,1-2.44-2.45c-.78-.91-1.46-1.7-2-2.35s-.94-1-1.07-1h-.39q-.39,3.92-.87,7.34a20.8,20.8,0,0,1-2.25,6.76,1.87,1.87,0,0,1-1.75,1.17,6.79,6.79,0,0,1,.78-3.23,5,5,0,0,0,.58-3,1.71,1.71,0,0,0-.09-.49,1.51,1.51,0,0,1-.1-.49,3.76,3.76,0,0,0-.39-1.28c-.26-.58-.46-1-.59-1.27a4.38,4.38,0,0,1-2.43,1.37,5.15,5.15,0,0,0-2.15.79,3.18,3.18,0,0,0-1.17,2.15,18.38,18.38,0,0,0,.49,5.68A4.21,4.21,0,0,1,52,44.37c-.33-1.43-1.08-2.15-2.24-2.15a.59.59,0,0,1-.39.19,3.5,3.5,0,0,1-.2,2.65,5.93,5.93,0,0,1-1.56,1.56c-.65.46-1.33.92-2,1.37a5.06,5.06,0,0,0-1.65,1.67,5.2,5.2,0,0,1-1.27-1.28c-.59-.71-1.17-1.46-1.76-2.25s-1.33-1.76-2.24-2.93c-.26,0-.84.55-1.75,1.66s-2,2.28-3.12,3.52-2.34,2.42-3.51,3.53a4.85,4.85,0,0,1-2.93,1.66h-.19a12.43,12.43,0,0,1-3.32-.78,7.09,7.09,0,0,0-3.89-.39c-.14-.26-.46-1-1-2.35S18.07,48,18,47.7a21.62,21.62,0,0,0-3.71-6.56A33.56,33.56,0,0,1,10,34.58a1.51,1.51,0,0,0-.1-.49,2.29,2.29,0,0,1-.09-.68v-.59a30.13,30.13,0,0,0,.29-3.62A13.5,13.5,0,0,0,10,26a1.23,1.23,0,0,0-.29-.59,6.58,6.58,0,0,0-.49-.59V24.6a5.82,5.82,0,0,1,.49-3.72,4,4,0,0,1,3.22-2.35h.39a3.78,3.78,0,0,0,1.17,1.95c.64.66,1.29,1.34,2,2.06s1.26,1.37,1.85,2a2.5,2.5,0,0,1,.88,1.66,2,2,0,0,1-.39,1.37,2.25,2.25,0,0,0-.39,1.57,2,2,0,0,1,1.26,0c.59.13.88.13.88,0,.52-.26.81-1.18.88-2.74s.16-3.23.29-5a22.22,22.22,0,0,1,.88-4.9q.67-2.25,2.43-2.25a1.35,1.35,0,0,1,1.76.59,1.91,1.91,0,0,0,1.75,1c.65,0,1-.17,1.17-.49s.52-.56,1.17-.69h1a9.2,9.2,0,0,1,1.66.69A9.33,9.33,0,0,0,35.1,16c.52,0,1.66-.06,3.41-.19a31.57,31.57,0,0,0,3.61-.4A18.46,18.46,0,0,0,43,18.13a1.82,1.82,0,0,0,1.85,1.18l-.19-2.94.39-.19a.61.61,0,0,0,.39-.2c0-.13.25-.29.78-.49a4.24,4.24,0,0,1,1-.29l.39-.2c.52,0,.88.33,1.07,1a2,2,0,0,0,1.27,1.37.57.57,0,0,0,.39.2,1.64,1.64,0,0,1,.58.19l.78.39a4,4,0,0,0,2.44-1.66A4.85,4.85,0,0,0,55,13.63c.13.39.39,1.08.78,2.06a4.09,4.09,0,0,0,1.17,1.86,1.41,1.41,0,0,0,.19.58c.13.27.26.4.39.4a7.24,7.24,0,0,0,1.66-.4,4.1,4.1,0,0,0,1.66-.78,1.34,1.34,0,0,0,.88-.49,1.35,1.35,0,0,1,.87-.49,2.69,2.69,0,0,1,.88.39,1.14,1.14,0,0,0,1.07.2,9.73,9.73,0,0,1,1.07-.78c.59-.39,1.24-.79,2-1.18s1.4-.78,2-1.17A3.38,3.38,0,0,1,71,13.24h.78a3.28,3.28,0,0,1,2.73.88,3.67,3.67,0,0,0,3.31.69,10,10,0,0,0,.59,2.54,1.23,1.23,0,0,0,1.55.78l-.19-3.52a5.94,5.94,0,0,1,2.44.49,3.67,3.67,0,0,0,2.24.29A1.55,1.55,0,0,0,85.6,15c.26-.26.55-.58.88-1A5,5,0,0,1,87.74,13a5.81,5.81,0,0,1,2.34-.69c.26,0,.78,0,1.56-.1s1.24,0,1.37.1a2.45,2.45,0,0,1,1.56,2.25,1.79,1.79,0,0,0,1.56,1.86c-.65-1.3-.65-2.12,0-2.44a4.27,4.27,0,0,1,2-.49,7.44,7.44,0,0,1,4.48,1.07,7.35,7.35,0,0,1,3.12,3.82h-.78a11.4,11.4,0,0,0-2.24-.49c-1.24-.19-2-.29-2.24-.29h-.78a6.81,6.81,0,0,1-.39,1.27,5.38,5.38,0,0,0-.39,1.86v.39c.65,1.31,1.2,2.39,1.65,3.23a22.8,22.8,0,0,1,1.27,2.84,8.49,8.49,0,0,1,.59,2.94.79.79,0,0,1-.59-.2h-.39a.17.17,0,0,1-.19-.19l-1.76-1.77-.39.2h-.19l-.78,4.31c1.29-.26,2.11-.23,2.43.1A2,2,0,0,1,101,34a13.93,13.93,0,0,1-.58,5.19,13.75,13.75,0,0,0-.59,5.19,8.93,8.93,0,0,0,1.76,3.92A7.23,7.23,0,0,1,103.15,52H101a5.9,5.9,0,0,1,.39,1.27,6.87,6.87,0,0,1,.2,1.27l-.39.39a.59.59,0,0,0-.2.39,6.56,6.56,0,0,0-.39,1.47q-.19,1.08-.39,2.25c-.13.79-.23,1.51-.29,2.16a15.07,15.07,0,0,0-.1,1.56L95,58.66h-.78c-.26,0-.49.62-.68,1.86s-.46,2.65-.78,4.21-.69,3.07-1.08,4.5A4.5,4.5,0,0,1,90.08,72a5.55,5.55,0,0,0-1.36-.89c-.65-.32-1-.55-1-.68a3.21,3.21,0,0,0-1,.2,3.1,3.1,0,0,1-.78.19,2.79,2.79,0,0,0,.39,1.57,2.77,2.77,0,0,1,.39,1.56.94.94,0,0,0-.39.1.81.81,0,0,1-.39.1,3.23,3.23,0,0,0-.88-.49,3,3,0,0,0-.88-.29H83.06a.55.55,0,0,0-.19.39.57.57,0,0,0-.2.39v.2a9.19,9.19,0,0,0-.87,2.34,17.34,17.34,0,0,0-.49,2,17.15,17.15,0,0,0,.39,2.25,17.83,17.83,0,0,0,.78,2.84l.39.79c.26.52.45.78.58.78s0,.19.1.19.1.07.1.2.06.2.19.2a8.28,8.28,0,0,0-3.7,1.17,4.62,4.62,0,0,1-3.51.59c.13.39.36,1.21.68,2.45a11.91,11.91,0,0,1,.49,2.64l.78.78a1.62,1.62,0,0,1,.59,1,3.24,3.24,0,0,1-1.37,2.64,4.72,4.72,0,0,0-1.75,2.65A2.46,2.46,0,0,0,74.29,98a10.22,10.22,0,0,0-3.12,1.08q-2.34,1.08-2.73,1.86A1.68,1.68,0,0,0,70,102c.78.07,1.17.42,1.17,1.08v.58a23.17,23.17,0,0,0-3.9,1.18,2.61,2.61,0,0,0-1.75,2.93,16.24,16.24,0,0,0,.87,4.21,11.47,11.47,0,0,1,.69,4c-2.08.26-3.22,1-3.41,2.25a29.55,29.55,0,0,0-.3,4.6c-.13-.91-.39-2.45-.78-4.6a18.15,18.15,0,0,0-1.75-5.39c0-.12-.13-.26-.39-.39l-.78-.39q-.2,0-.39.39a1.6,1.6,0,0,0-.2.59l.39.78c.26.66.46,1,.59,1v.79a12.09,12.09,0,0,1-.88,5.09,12.22,12.22,0,0,1-2.63,4.5A16,16,0,0,0,55,124a3.53,3.53,0,0,0-2-.88.69.69,0,0,0-.78.78c0,.26,0,.85.1,1.76s.09,1.5.09,1.76a17.66,17.66,0,0,0,.69,3.72,33.43,33.43,0,0,1,.87,3.72,14.64,14.64,0,0,1-.78,5.68q-1,2.94-1.95,6.07a2.24,2.24,0,0,0-.29-1,1.62,1.62,0,0,0-.68-.78l-.2-.2a1.55,1.55,0,0,0-1.26,1,11.88,11.88,0,0,0-.49,1.66,4.36,4.36,0,0,1-.68,1.57,2.42,2.42,0,0,1-1.66.88,5.94,5.94,0,0,0-.29-1.56A1.22,1.22,0,0,0,44.46,147.16Zm-31-112.38h1v-.59Zm4.88-3.72A3.54,3.54,0,0,0,16.87,33a11,11,0,0,0-.58,3,24.86,24.86,0,0,0,0,3.23c.06,1,.1,1.89.1,2.55a1.46,1.46,0,0,1,.58-.2.78.78,0,0,0,.59-.2,2.81,2.81,0,0,1,.58-.78l.78-.78.39-.39.59.19a11.05,11.05,0,0,1,1,.59c.39.26.58.52.58.78l-.39-7.44ZM24.77,34c-.52,0-.78.3-.78.89s.26.88.78.88.58-.3.58-.88S25.16,34,24.77,34Zm4.09,1.37h1v-.78h-1Zm1-9.2c-.52.13-.78.66-.78,1.57a.81.81,0,0,0,.1.39.92.92,0,0,1,.09.39c.52-.26.78-.85.78-1.76l-.19-.39Zm4.87,6.27c-1.56.65-2.4,1.44-2.53,2.35a17.43,17.43,0,0,0,.19,4.3,7.11,7.11,0,0,0,1.76-.49c.91-.32,1.82-.68,2.73-1.07a17.18,17.18,0,0,0,2.43-1.27q1.08-.69,1.08-1.08c-.13-1.18-.43-1.89-.88-2.16s-1-.51-1.46-.78a4.92,4.92,0,0,1-1.47-1.17,6.28,6.28,0,0,1-.87-3.33,4.49,4.49,0,0,0-1.37.39q-1,.39-.78,1.17c.13.27.33.76.59,1.47S34.58,32,34.71,32.43ZM32.37,25a1.81,1.81,0,0,0,1.17-.49,1.59,1.59,0,0,0,.59-1.27v-.59h-.78a.18.18,0,0,1-.2-.2l-.39-.19a.55.55,0,0,0-.39.19Zm6.24,15.66c-.26-.13-.36,0-.29.39s.22.53.49.39.35-.29.29-.49A.46.46,0,0,0,38.61,40.65ZM49,19.11a1.69,1.69,0,0,0-1.17.59,1.62,1.62,0,0,0-.39,1.57l1.75-.39Zm.58,15.47a1.51,1.51,0,0,0,1.66-1.17,9.26,9.26,0,0,0,.29-2.16,1.17,1.17,0,0,0-.59-1,1.88,1.88,0,0,0-1-.39l.19,3.72-.77.2Zm.2,104,1-.59h-1ZM55.18,18.72a2.52,2.52,0,0,0-1.36,1.18,2.44,2.44,0,0,0,0,1.37v1.17a3,3,0,0,0,.88-2A3.74,3.74,0,0,1,55.18,18.72Zm1.17,103c.26-.12.17-.16-.29-.09s-.62.16-.49.29.13.36.39.29A.45.45,0,0,0,56.35,121.7Zm5.85-11.94a9.43,9.43,0,0,0,.88,3.33c.45.91,1.4,1.31,2.83,1.17a14.13,14.13,0,0,0-1.17-3.52,4.2,4.2,0,0,0-2.54-2.15Zm.2-5.28h.39c.13,0,.19-.07.19-.2h.59a1.68,1.68,0,0,1,.58-1.17l-.58-.59Zm2.53-4.9a4.62,4.62,0,0,0,.78,1.18h.59a2.47,2.47,0,0,0,1.36-2.55,5.94,5.94,0,0,0-1.56.29A1.54,1.54,0,0,0,64.93,99.58Zm.59-70.68h.78l-.2-.58h-.78Zm2.73-5.09c-.52,0-.75.3-.69.88s.36.89.88.89a1.26,1.26,0,0,0,.49-1.28C68.86,23.71,68.64,23.55,68.25,23.81ZM72.93,94.1c-.39,0-.59.26-.59.78s.2.79.59.79a.93.93,0,0,0,.78-1C73.71,94.17,73.44,94,72.93,94.1Zm2.34-70.87c-.66,0-1,.29-.88.88a.93.93,0,0,0,1.07.88c.26,0,.36-.3.29-.88S75.52,23.23,75.27,23.23Zm2.34-.2a4.26,4.26,0,0,0,1.94-.49,1.71,1.71,0,0,0,1-1.66l-2.92.19Zm.58,6.07h1L79,27.92H78Zm2.34,53.06c-.26-.26-.36,0-.29.78s.22,1.11.48,1a1.33,1.33,0,0,0,.39-1A.76.76,0,0,0,80.53,82.16ZM86,41.24c0,.13.13.29.39.49a5,5,0,0,1,.58.49,1.19,1.19,0,0,0,.78-1.08V40.06a2.21,2.21,0,0,0-.19-.68,2.36,2.36,0,0,1-.2-.69,2.17,2.17,0,0,0-.78.79,9.37,9.37,0,0,0-.58,1v.79Zm4.48,25.45.78-.78h-1Zm5.66-15.08c-.39.14-.56.46-.49,1s.29.72.68.59.75-.26.68-.78A.79.79,0,0,0,96.13,51.61Zm.19,2.55c-.26-.13-.36.16-.29.88s.23,1,.49.69c.26,0,.35-.23.29-.69A1.08,1.08,0,0,0,96.32,54.16ZM98.47,24c-.39-.13-.52,0-.39.29s.32.43.58.3.36-.07.29-.2A1,1,0,0,0,98.47,24Z"/></g></g></svg>
