<svg xmlns="http://www.w3.org/2000/svg" viewBox="0 0 250 170"><title>point-10</title><g id="UI"><g id="Knapper"><path d="M45.18,142.63A8.36,8.36,0,0,0,40.79,144a5.8,5.8,0,0,1-4.58.78q-1-.19-.78-1.47a18.09,18.09,0,0,0,.2-2.74,7.7,7.7,0,0,0-.49-2.74c-.33-.85-1.14-1.27-2.44-1.27h-.39a4.29,4.29,0,0,0-1.85,3.33c-.19,1.56-.29,2.48-.29,2.74a3.13,3.13,0,0,0-1.76-.49,1.93,1.93,0,0,0-1.07.58l-.88.89a1.16,1.16,0,0,1-1.17.19,3.72,3.72,0,0,1-3.21-2,15.55,15.55,0,0,1-1.95-4.4,32.37,32.37,0,0,1-1-5c-.19-1.7-.29-2.94-.29-3.72a20.43,20.43,0,0,1,1.07-3.14,11.21,11.21,0,0,0,.88-3.33l7.21.4a13,13,0,0,0,2.15,2A5.72,5.72,0,0,0,33.09,126a8.33,8.33,0,0,0,4.29-1.27,7,7,0,0,1,4.29-1.07c1,0,1.66.32,1.85,1s.81,1,1.86,1a4.48,4.48,0,0,0,2.34-.49,6.57,6.57,0,0,0,1.75-2,1.52,1.52,0,0,1-1.56-1c-.13-.26.2-.78,1-1.57a8.82,8.82,0,0,0,1.36-1.56q0-2.35-.29-6.17c-.2-2.55-.39-5.19-.59-7.93s-.29-5.38-.29-7.93a23.85,23.85,0,0,1,.59-6A9.19,9.19,0,0,1,50,89.28c.19-.85.42-1.83.68-2.94s.49-2.19.68-3.23.36-1.83.49-2.35a8.53,8.53,0,0,0-.1-3.92,11.26,11.26,0,0,1-.48-3.33c0-.26.06-1,.19-2.25s.26-2.25.39-3q.59-3.92,1.27-7.93a29.81,29.81,0,0,0,.29-7.93,3.93,3.93,0,0,0-.78-1.17c-.52-.66-.91-1-1.17-1A5.69,5.69,0,0,0,52,48a13.82,13.82,0,0,1,.39-2.25h-1a3.13,3.13,0,0,1-.58.79c-.27.26-.39.46-.39.58a12.06,12.06,0,0,0-2.25,1.28,12.84,12.84,0,0,0-1.65,1.27,5.6,5.6,0,0,0-1.08.29c-.58.2-1.2.39-1.85.59s-1.24.39-1.75.59-.78.36-.78.49A19.3,19.3,0,0,0,36.9,54q-2.25,1.66-4.68,3.14a27.88,27.88,0,0,1-4.88,2.35,7.08,7.08,0,0,1-4.78.09,10.27,10.27,0,0,0,0-7.44A24.76,24.76,0,0,0,21,48.85c-.66-1.18-1.37-2.55-2.15-4.12a7.68,7.68,0,0,1,.1-.88c.06-.45.1-.75.1-.88a10.69,10.69,0,0,1,.68-1.56c.32-.66.94-.72,1.85-.2a5,5,0,0,1,.59,1A4.3,4.3,0,0,0,23,43.36h.2a2.34,2.34,0,0,0,1.75-.48,23.2,23.2,0,0,0,2.44-1.67,17.16,17.16,0,0,0,2.24-2.05,3.08,3.08,0,0,0,1-1.67,2.67,2.67,0,0,0,.29-2.06,3.92,3.92,0,0,1,.1-2.25l2.34.59a15,15,0,0,1,2-4.4,1.58,1.58,0,0,1,1.56-.69c.52.13,1.13.33,1.85.59s1.66-.07,2.83-1a2.87,2.87,0,0,0,1-1.08c.13-.32.23-.59.29-.78a.39.39,0,0,1,.39-.3,7.12,7.12,0,0,1,1.47.4,2.11,2.11,0,0,1,1.56.58c-.27-.12-.75.07-1.47.59a4.37,4.37,0,0,0-1.26,1.18c-.27.13-.39.62-.39,1.46a6.32,6.32,0,0,1-.2,1.86,1.36,1.36,0,0,0,1.76-.49c.39-.58.84-1.23,1.36-1.95A6.21,6.21,0,0,1,47.91,28a3.92,3.92,0,0,1,3.32.09L53,21.83c.13-.26.45-.42,1-.49a1.32,1.32,0,0,1,1.17.29,30.74,30.74,0,0,1,5.76,4.31,21.62,21.62,0,0,1,4.19,4.7,5.48,5.48,0,0,0,1,1.17L67.21,33A9.38,9.38,0,0,1,69,39.06,66.84,66.84,0,0,1,68.48,47c-.33,2.67-.55,5.15-.68,7.44S68.06,58.24,69,59a23.54,23.54,0,0,1-.2,2.44c-.13,1.11-.29,2.29-.49,3.53s-.42,2.42-.68,3.52S67.15,70.45,67,71l-.39,1.17c-.26.79-.33,1.18-.2,1.18a3.28,3.28,0,0,0,1.37,1,3.22,3.22,0,0,1,1.36,1,12.72,12.72,0,0,1-.1,4.7c-.32,2.09-.74,4.3-1.26,6.65s-1,4.6-1.56,6.76a43.06,43.06,0,0,0-1,5,6.37,6.37,0,0,1,.59,1.86,19,19,0,0,1,.39,1.86q-.19,2.55-.39,3.72a13.23,13.23,0,0,0-.2,2.15,14.94,14.94,0,0,0,.2,2.25,29.36,29.36,0,0,0,1,3.82v.39c0,.14,0,.2-.1.2s-.09.07-.09.2v.39a2.91,2.91,0,0,0-.59.09,2.39,2.39,0,0,1-.58.1l-.2.39v.59L67,116a6.91,6.91,0,0,0-1.17,2.74,4.77,4.77,0,0,0-.2,2.94,2.1,2.1,0,0,0,1.46,1.66,15.13,15.13,0,0,0,3,.78,32.24,32.24,0,0,0,3.7.4c1.3.06,2.4.16,3.32.29a2.06,2.06,0,0,0,1.46-.1,6.73,6.73,0,0,0,1.46-1.66l-.19,2.74a9,9,0,0,1,1.46-.49,6.43,6.43,0,0,1,1.46-.29.17.17,0,0,0,.19.19h.39a.79.79,0,0,1,.78.39,2.17,2.17,0,0,0,1.17.79,2.89,2.89,0,0,0,1.17-.4c.52-.26.78-.58.78-1v-.4a11.46,11.46,0,0,1-1.26-.78,2.9,2.9,0,0,0-1.27-.59c.13,0,.29-.19.49-.58s.35-.59.48-.59v-.2l.39.2h.39a20.82,20.82,0,0,0,5.95,1.76,6.66,6.66,0,0,1,3.31,1,4,4,0,0,1,1.27,3,56.73,56.73,0,0,1-.19,7.74c0,.78-.07,2.12-.2,4A8.23,8.23,0,0,1,95.29,144l-.78-1.18.39-7a4.94,4.94,0,0,0-.88.1,4.23,4.23,0,0,1-.88.1.62.62,0,0,1-.58-.39,2.35,2.35,0,0,1,0-1.37,6.06,6.06,0,0,0-1.66,2.25c-.46,1-.94,2-1.46,3l-1.37,2.74q-.58,1.19-1.17,1.38c0-.13-.13-.3-.39-.49s-.39-.36-.39-.49h-.58l-.39-.4a6.49,6.49,0,0,1-1.17.89,2.63,2.63,0,0,0-1,.88v-2.55a9.06,9.06,0,0,0-2.24,1.76,29.84,29.84,0,0,0-1.85,2.35,4.54,4.54,0,0,1-.78-1.17,5.22,5.22,0,0,0-1-1.37c.25.65.19,1.07-.2,1.27a2.53,2.53,0,0,1-1.17.29c-.52,0-.85-.16-1-.49a5.38,5.38,0,0,1-.3-1.07,5,5,0,0,0-.29-1.08c-.13-.32-.46-.49-1-.49h-.59a.57.57,0,0,0-.39.2A4.61,4.61,0,0,1,71,145.37a6.32,6.32,0,0,1-3.21,2v-2.16a2,2,0,0,0-1.47.49,13.26,13.26,0,0,0-1.07,1.27A8.76,8.76,0,0,1,64,148.3a2.73,2.73,0,0,1-1.86.59H62l-1-.78a2.07,2.07,0,0,0-1.56.59A5.7,5.7,0,0,0,58,146.44a5.15,5.15,0,0,0-2.24-.68c-1.69-.39-3.06.45-4.1,2.54a5.63,5.63,0,0,0-.77-1.07,3.4,3.4,0,0,0-1-.88h-1c-.53,0-.78-.07-.78-.2a4.83,4.83,0,0,1-.78-1.37,8.14,8.14,0,0,1-.3-1.08,1.45,1.45,0,0,0-.39-.78C46.45,142.72,46,142.63,45.18,142.63ZM40.31,32.4c-.27-.13-.49.1-.69.69a1,1,0,0,0,.3,1.27c.39.13.61-.13.68-.78S40.57,32.53,40.31,32.4Zm.39,2.15a17,17,0,0,1-.3,2.06c-.19,1.11,0,1.86.69,2.25a3,3,0,0,0,1.65-.68,4.72,4.72,0,0,0,.88-1.28,1.05,1.05,0,0,0-.49-1.47,7.13,7.13,0,0,0-1.65-.68.78.78,0,0,1-.39-.1A1,1,0,0,0,40.7,34.55Zm19.1,102.2a.55.55,0,0,0,.2.39l.39.4.19-.4-.19-.39c0-.52-.2-.78-.59-.78l-.19.2Zm3.71-3.52a1,1,0,0,0-.78,1.08c0,.58.26.81.78.68.39.13.58-.1.58-.68S63.9,133.36,63.51,133.23Zm.78,9.59a1.19,1.19,0,0,0-.78,1.08,4,4,0,0,1-.2,1.27l1,.39Zm.39-5.09h1l.2-.78Zm.78,2.55c-.52,0-.78.32-.78,1s.26,1,.78,1,.58-.12.58-.78S65.85,140.41,65.46,140.28Zm2.73,1.17q-.39-.19-.39.39c0,.39.13.59.39.59C68.84,142.43,68.84,142.11,68.19,141.45Zm1.36-9.4a2.43,2.43,0,0,0-1,2v.78a1.43,1.43,0,0,0,.68-1,7,7,0,0,0,.1-1A1.2,1.2,0,0,0,69.55,132.05Zm3.12,3.33a2.56,2.56,0,0,0-1.17,2,16.2,16.2,0,0,0-.19,1.76l1.17-.19Z"/><path d="M170.15,130.68h-6.23a4.75,4.75,0,0,0-1.66-2.84,6.28,6.28,0,0,0-2.54-.88,23.56,23.56,0,0,0-3.12-.19,7,7,0,0,1-3.21-.79,3.44,3.44,0,0,1-1.37-2.34,1.91,1.91,0,0,0-2-1.77.57.57,0,0,0-.39.2,6.35,6.35,0,0,1-2,1.47,7.78,7.78,0,0,1-1.46.39,3.86,3.86,0,0,0-1.36.49,4.85,4.85,0,0,0-1.47,1.56v-3.72a.82.82,0,0,0-.58-.19h-1l-1.85,1-1.85,1h-1c-.13-.26-.42-.91-.87-2s-.75-1.7-.88-2a22.23,22.23,0,0,1-1.27-3.62q-.68-2.44-1.56-4.8a8.39,8.39,0,0,0-2.24-3.52q-1.37-1.17-3.7.39a9.07,9.07,0,0,1-.49-1.37,10.36,10.36,0,0,0-.49-1.37c0-.26,0-.91.1-2a5.19,5.19,0,0,0-.1-2c-.13-.26-.75-.45-1.85-.58a4.77,4.77,0,0,1-1.85-.4,4.43,4.43,0,0,1-1.66-2.15,13.41,13.41,0,0,1-1-3.43,33,33,0,0,1-.39-3.62c-.07-1.17-.1-2.15-.1-2.93a5,5,0,0,1,.78-2.65c.52-.84,1.1-1.69,1.75-2.54a29.92,29.92,0,0,0,1.76-2.55,5,5,0,0,0,.78-2.64V78a13.13,13.13,0,0,0-1.66.78,3.31,3.31,0,0,1-1.66.39,14.28,14.28,0,0,1,1.46-5.28c1-2.22,2.21-4.67,3.71-7.35s3.18-5.38,5.07-8.12,3.73-5.22,5.56-7.44a61.64,61.64,0,0,1,5-5.48c1.49-1.44,2.63-2.16,3.41-2.16a1.06,1.06,0,0,1,1.17.89q.2.87.39,1.86a3.16,3.16,0,0,0,.88,1.66,2.9,2.9,0,0,0,2.43.49v-7a1.69,1.69,0,0,1,1.47.69,2.14,2.14,0,0,0,1.85.68,3,3,0,0,0,2-.59,6.63,6.63,0,0,0,1.17-1.27,7.73,7.73,0,0,1,1.17-1.27,3.78,3.78,0,0,1,1.86-.78,22.88,22.88,0,0,1,2.82-.2,13.78,13.78,0,0,0,2.44-.2,7.06,7.06,0,0,0,2.14-.68,7.57,7.57,0,0,0,2.15-1.86,6.65,6.65,0,0,1,2.44-2.15,9.08,9.08,0,0,1,2.73-.79c1-.13,1.95-.22,2.92-.29a13.24,13.24,0,0,0,3.22-.69,4.22,4.22,0,0,0,1.07-1c.45-.52.75-.84.88-1s.19-.2.58-.2h1a2.6,2.6,0,0,1,2.63,1.76,11.2,11.2,0,0,1,.68,4,23,23,0,0,1-.39,4.31,19,19,0,0,0-.39,2.65c2.08,0,3.54-.43,4.39-1.28a46.16,46.16,0,0,1,4-3.42h1a8.74,8.74,0,0,1,2.34.39c.91.26,1.36.46,1.36.59.26.13.33.55.2,1.27a10.37,10.37,0,0,0-.2,1.47,4.26,4.26,0,0,0,1.47,2c.58.4,1.17.82,1.75,1.28a7.64,7.64,0,0,1,1.66,1.86,8,8,0,0,1,1,3.72h1A27.73,27.73,0,0,1,207,46c.52-1.76,1.5-2.65,2.93-2.65a5.53,5.53,0,0,1,1.36.3,3.27,3.27,0,0,1,1.37.68,5,5,0,0,0-.59.88,2.44,2.44,0,0,0-.39,1.08v.39a7.31,7.31,0,0,0,1.66,4.9,6.15,6.15,0,0,0,5,1.95v4.51c0,.91,0,1.79.1,2.64s.1,1.47.1,1.86,0,.92.09,2,.13,2.15.2,3.33.16,2.28.29,3.33.2,1.69.2,2,0,.46-.1,1,0,.85.1,1a11.68,11.68,0,0,0,1.07,1.37c.45.52.74.66.88.39l4.87-3.72v.39a13.39,13.39,0,0,1-1,4.7,13.49,13.49,0,0,0-1,4.9v1.56l2.92-2v1q-.2,1-.48,3.81c-.2,1.9-.36,3.17-.49,3.82-.13,0-.33.13-.59.39s-.38.46-.38.59a.18.18,0,0,0-.2.2v.39a.53.53,0,0,0,.2.39,3.12,3.12,0,0,0,1,.49,3,3,0,0,1,1,.49,1.12,1.12,0,0,1,.39.78v.59H222.8q0,3.33.19,6.26a15.31,15.31,0,0,1-.78,5.88c0,.13-.13.29-.39.49a1.25,1.25,0,0,1-.58.29,3.06,3.06,0,0,1-1.08-.29,3.12,3.12,0,0,1-.87-.49,4.1,4.1,0,0,0-1,2.74v.59a.57.57,0,0,0,.2.39l1.75-1v.59a7.22,7.22,0,0,1-2.83,5.57,8.73,8.73,0,0,1-5.75,2.45,6.66,6.66,0,0,1-1.36-.49c-.78-.32-1.3-.42-1.56-.29s-.46.26-1,.78-.78.85-.78,1l-.58.2-.39-.2a6.58,6.58,0,0,0-.59-.49c-.26-.19-.39-.36-.39-.49q-3.31,1.77-4.29,3.62a19.34,19.34,0,0,0-1.46,3.53,6.7,6.7,0,0,1-1.36,2.64c-.59.66-1.92,1-4,1h-.39a20.59,20.59,0,0,0-2.34-1.66,15.8,15.8,0,0,0-2.53-1.47h-1a2,2,0,0,0-1.75.78,5.49,5.49,0,0,0-.88,1.76c-.2.66-.39,1.24-.59,1.77s-.48.78-.87.78a4.92,4.92,0,0,1-2.54-.69,5.37,5.37,0,0,0-2.73-.68c-.26,0-.75,0-1.46.1s-1.2.09-1.46.09a5.27,5.27,0,0,1-.39,1.47,15.67,15.67,0,0,1-.59,1.47c0,.13-.06.2-.19.2h-.2c-.39,0-.58-.07-.58-.2l-3.32-5.68Zm-38.21-26c-.13,0-.19,0-.19.1s-.07.1-.2.1h-.19l-1,1h1c.64-.26,1-.59,1-1Zm13.26-2h1c.39,0,.59.06.59.19a10.84,10.84,0,0,1,1.85,1.86c1,1.11,1.59,1.8,1.85,2.06.26,0,.94,0,2-.1s1.66,0,1.66.1a16.45,16.45,0,0,1,3.6,1.47c1.37.72,2.73,1.46,4.1,2.25a44.58,44.58,0,0,0,4,2,8.34,8.34,0,0,0,3.32.88h.58l.78-.39a2.31,2.31,0,0,0,.59-.39.55.55,0,0,1,.39-.19c.13,0,.32.16.58.48s.46.49.59.49a5.71,5.71,0,0,0,3.31-1.27,9.81,9.81,0,0,1,3.32-1.66h7.6a11.2,11.2,0,0,0,3.8-1.57l3.71-2.35a18.81,18.81,0,0,1,3.8-1.86,6,6,0,0,1,4.09.1,8.18,8.18,0,0,1,1.76-3.23c.78-.85,1.62-1.69,2.53-2.55A15,15,0,0,0,209,96.32a6.39,6.39,0,0,0,1-3.62,10,10,0,0,0-.1-1.27c-.07-.46-.42-.81-1.07-1.08a6.92,6.92,0,0,0,.19-2V82.72a6.92,6.92,0,0,0-.19-2,6.81,6.81,0,0,0-.39-1.27c-.26-.72-.56-1.44-.88-2.16s-.65-1.4-1-2A4.68,4.68,0,0,1,206,74.1a14.45,14.45,0,0,0-3.9-6.46,18.54,18.54,0,0,0-5.07-3q-2.73-1.08-5.85-2.16A20.37,20.37,0,0,1,185,58.83l-.58-.59a1.87,1.87,0,0,1-.39-.58c-.27-.13-.62-.3-1.08-.49a3.05,3.05,0,0,0-.87-.3,3.43,3.43,0,0,0-1,.39,3.26,3.26,0,0,1-1,.4.77.77,0,0,1-.78-.49,3.2,3.2,0,0,1-.2-1.18,8.43,8.43,0,0,0-.09-1.27,1,1,0,0,0-.69-.78q-.78,3.72-2.92,4.6c-1.43.58-3.32,1.34-5.66,2.25a5.48,5.48,0,0,0-.48-.78c-.2-.26-.36-.4-.49-.4h-.2a.55.55,0,0,1-.39-.19.6.6,0,0,0-.39.19,26.33,26.33,0,0,1-5.65,5.29,36.52,36.52,0,0,1-6.82,3.52,10,10,0,0,0-1.76,1.86q-1.37,1.66-2.82,3.63c-1,1.3-1.89,2.48-2.73,3.52S146.63,79,146.37,79q-1.17,0-1.17-1.08T144,76.84a9.72,9.72,0,0,0-3,.79c-1.37.52-2,1.11-2,1.76v.39c0,.13.06.2.19.2a5.62,5.62,0,0,0,1,1.17c.52.52.84.78,1,.78a3.52,3.52,0,0,0,1.47-.78A4.54,4.54,0,0,0,143.83,80v.78a4.82,4.82,0,0,1-.39,2.25,4.1,4.1,0,0,1-1,1.17c-.39.33-.81.66-1.27,1a4.82,4.82,0,0,0-1.27,1.47,3,3,0,0,1,1.08.3,3,3,0,0,1,.87.49v.19c0,.13,0,.2.1.2s.1.06.1.19a9.06,9.06,0,0,1-1.27,3.62,28,28,0,0,0-1.66,3.63v.39a7.38,7.38,0,0,0,1.27,4.11,10.41,10.41,0,0,1,1.46,5.09h.59q1.17,0,1.17-1.08C143.64,103.05,144.16,102.69,145.2,102.69Zm-3.32,14.68a4.89,4.89,0,0,0-1.46,1.17,2.62,2.62,0,0,0-.68,1.77c1.56,0,2.34-.65,2.34-2a.37.37,0,0,0-.1-.29.4.4,0,0,1-.1-.3Zm-.78-44.25A2.45,2.45,0,0,0,142.27,71a2.29,2.29,0,0,0-2.34,1.37Zm.78,1q-.39-.19-.39.39c0,.4.13.59.39.59s.59-.29.59-.49S142.27,74.23,141.88,74.1Zm2.93-1v-2l-1,1.17Zm0-4.7h1V67.25h-1Zm5.65-10.18a3.63,3.63,0,0,0-3.21,1.57,6.39,6.39,0,0,0-1.08,3.72h4.29Zm5.85,8.42c1.3,0,1.95-.71,1.95-2.15h-1.95Zm20.08,55.41v-1h-1Zm5.66-81.45q-.2-.39-.78,0c-.39.27-.39.53,0,.79a.71.71,0,0,0,.78-.1C182.31,41.11,182.31,40.89,182.05,40.62Zm4.87,7.64q-.39-.19-.39.39c0,.39.13.59.39.59a1.07,1.07,0,0,0,.39-.69C187.31,48.36,187.18,48.26,186.92,48.26Zm8.58,78.51c-.52,0-.78.32-.78,1s.26,1,.78,1,.78-.33.78-1S196,126.77,195.5,126.77Zm3.7-8.42c-.39,0-.58.29-.58.88s.19.88.58.88.78-.29.78-.88S199.72,118.35,199.2,118.35Zm14.43-57.56c.13-.39,0-.59-.39-.59a.52.52,0,0,0-.58.59.61.61,0,0,0,.58.39A.34.34,0,0,0,213.63,60.79Zm6.63,21.14a1.67,1.67,0,0,0-1.17,1.77h1.17Z"/></g></g></svg>
