<svg xmlns="http://www.w3.org/2000/svg" viewBox="0 0 250 170"><title>point-11</title><g id="UI"><g id="Knapper"><path d="M57.18,140.63A8.36,8.36,0,0,0,52.79,142a5.8,5.8,0,0,1-4.58.78q-1-.19-.78-1.47a18.09,18.09,0,0,0,.2-2.74,7.7,7.7,0,0,0-.49-2.74c-.33-.85-1.14-1.27-2.44-1.27h-.39a4.29,4.29,0,0,0-1.85,3.33c-.19,1.56-.29,2.48-.29,2.74a3.13,3.13,0,0,0-1.76-.49,1.93,1.93,0,0,0-1.07.58l-.88.89a1.16,1.16,0,0,1-1.17.19,3.72,3.72,0,0,1-3.21-2,15.55,15.55,0,0,1-1.95-4.4,32.37,32.37,0,0,1-1-5c-.19-1.7-.29-2.94-.29-3.72a20.43,20.43,0,0,1,1.07-3.14,11.21,11.21,0,0,0,.88-3.33l7.21.4a13,13,0,0,0,2.15,2A5.72,5.72,0,0,0,45.09,124a8.33,8.33,0,0,0,4.29-1.27,7,7,0,0,1,4.29-1.07c1,0,1.66.32,1.85,1s.81,1,1.86,1a4.48,4.48,0,0,0,2.34-.49,6.57,6.57,0,0,0,1.75-2,1.52,1.52,0,0,1-1.56-1c-.13-.26.2-.78,1-1.57a8.82,8.82,0,0,0,1.36-1.56q0-2.35-.29-6.17c-.2-2.55-.39-5.19-.59-7.93s-.29-5.38-.29-7.93a23.85,23.85,0,0,1,.59-6A9.19,9.19,0,0,1,62,87.28c.19-.85.42-1.83.68-2.94s.49-2.19.68-3.23.36-1.83.49-2.35a8.53,8.53,0,0,0-.1-3.92,11.26,11.26,0,0,1-.48-3.33c0-.26.06-1,.19-2.25s.26-2.25.39-3q.59-3.92,1.27-7.93a29.81,29.81,0,0,0,.29-7.93,3.93,3.93,0,0,0-.78-1.17c-.52-.66-.91-1-1.17-1A5.69,5.69,0,0,0,64,46a13.82,13.82,0,0,1,.39-2.25h-1a3.13,3.13,0,0,1-.58.79c-.27.26-.39.46-.39.58a12.06,12.06,0,0,0-2.25,1.28,12.84,12.84,0,0,0-1.65,1.27,5.6,5.6,0,0,0-1.08.29c-.58.2-1.2.39-1.85.59s-1.24.39-1.75.59-.78.36-.78.49A19.3,19.3,0,0,0,48.9,52q-2.25,1.66-4.68,3.14a27.88,27.88,0,0,1-4.88,2.35,7.08,7.08,0,0,1-4.78.09,10.27,10.27,0,0,0,0-7.44A24.76,24.76,0,0,0,33,46.85c-.66-1.18-1.37-2.55-2.15-4.12a7.68,7.68,0,0,1,.1-.88c.06-.45.1-.75.1-.88a10.69,10.69,0,0,1,.68-1.56c.32-.66.94-.72,1.85-.2a5,5,0,0,1,.59,1A4.3,4.3,0,0,0,35,41.36h.2a2.34,2.34,0,0,0,1.75-.48,23.2,23.2,0,0,0,2.44-1.67,17.16,17.16,0,0,0,2.24-2.05,3.08,3.08,0,0,0,1-1.67,2.67,2.67,0,0,0,.29-2.06,3.92,3.92,0,0,1,.1-2.25l2.34.59a15,15,0,0,1,2-4.4,1.58,1.58,0,0,1,1.56-.69c.52.13,1.13.33,1.85.59s1.66-.07,2.83-1a2.87,2.87,0,0,0,1-1.08c.13-.32.23-.59.29-.78a.39.39,0,0,1,.39-.3,7.12,7.12,0,0,1,1.47.4,2.11,2.11,0,0,1,1.56.58c-.27-.12-.75.07-1.47.59a4.37,4.37,0,0,0-1.26,1.18c-.27.13-.39.62-.39,1.46a6.32,6.32,0,0,1-.2,1.86,1.36,1.36,0,0,0,1.76-.49c.39-.58.84-1.23,1.36-1.95A6.21,6.21,0,0,1,59.91,26a3.92,3.92,0,0,1,3.32.09L65,19.83c.13-.26.45-.42,1-.49a1.32,1.32,0,0,1,1.17.29,30.74,30.74,0,0,1,5.76,4.31,21.62,21.62,0,0,1,4.19,4.7,5.48,5.48,0,0,0,1,1.17L79.21,31A9.38,9.38,0,0,1,81,37.06,66.84,66.84,0,0,1,80.48,45c-.33,2.67-.55,5.15-.68,7.44S80.06,56.24,81,57a23.54,23.54,0,0,1-.2,2.44c-.13,1.11-.29,2.29-.49,3.53s-.42,2.42-.68,3.52S79.15,68.45,79,69l-.39,1.17c-.26.79-.33,1.18-.2,1.18a3.28,3.28,0,0,0,1.37,1,3.22,3.22,0,0,1,1.36,1,12.72,12.72,0,0,1-.1,4.7c-.32,2.09-.74,4.3-1.26,6.65s-1,4.6-1.56,6.76a43.06,43.06,0,0,0-1,5,6.37,6.37,0,0,1,.59,1.86,19,19,0,0,1,.39,1.86q-.19,2.55-.39,3.72a13.23,13.23,0,0,0-.2,2.15,14.94,14.94,0,0,0,.2,2.25,29.36,29.36,0,0,0,1,3.82v.39c0,.14,0,.2-.1.2s-.09.07-.09.2v.39a2.91,2.91,0,0,0-.59.09,2.39,2.39,0,0,1-.58.1l-.2.39v.59L79,114a6.91,6.91,0,0,0-1.17,2.74,4.77,4.77,0,0,0-.2,2.94,2.1,2.1,0,0,0,1.46,1.66,15.13,15.13,0,0,0,3,.78,32.24,32.24,0,0,0,3.7.4c1.3.06,2.4.16,3.32.29a2.06,2.06,0,0,0,1.46-.1,6.73,6.73,0,0,0,1.46-1.66l-.19,2.74a9,9,0,0,1,1.46-.49,6.43,6.43,0,0,1,1.46-.29.17.17,0,0,0,.19.19h.39a.79.79,0,0,1,.78.39,2.17,2.17,0,0,0,1.17.79,2.89,2.89,0,0,0,1.17-.4c.52-.26.78-.58.78-1v-.4a11.46,11.46,0,0,1-1.26-.78,2.9,2.9,0,0,0-1.27-.59c.13,0,.29-.19.49-.58s.35-.59.48-.59v-.2l.39.2h.39a20.82,20.82,0,0,0,5.95,1.76,6.66,6.66,0,0,1,3.31,1,4,4,0,0,1,1.27,3,56.73,56.73,0,0,1-.19,7.74c0,.78-.07,2.12-.2,4a8.23,8.23,0,0,1-1.36,4.41l-.78-1.18.39-7a4.94,4.94,0,0,0-.88.1,4.23,4.23,0,0,1-.88.1.62.62,0,0,1-.58-.39,2.35,2.35,0,0,1,0-1.37,6.06,6.06,0,0,0-1.66,2.25c-.46,1-.94,2-1.46,3l-1.37,2.74q-.58,1.19-1.17,1.38c0-.13-.13-.3-.39-.49s-.39-.36-.39-.49h-.58l-.39-.4a6.49,6.49,0,0,1-1.17.89,2.63,2.63,0,0,0-1,.88v-2.55a9.06,9.06,0,0,0-2.24,1.76,29.84,29.84,0,0,0-1.85,2.35,4.54,4.54,0,0,1-.78-1.17,5.22,5.22,0,0,0-1-1.37c.25.65.19,1.07-.2,1.27a2.53,2.53,0,0,1-1.17.29c-.52,0-.85-.16-1-.49a5.38,5.38,0,0,1-.3-1.07,5,5,0,0,0-.29-1.08c-.13-.32-.46-.49-1-.49h-.59a.57.57,0,0,0-.39.2A4.61,4.61,0,0,1,83,143.37a6.32,6.32,0,0,1-3.21,2v-2.16a2,2,0,0,0-1.47.49,13.26,13.26,0,0,0-1.07,1.27A8.76,8.76,0,0,1,76,146.3a2.73,2.73,0,0,1-1.86.59H74l-1-.78a2.07,2.07,0,0,0-1.56.59A5.7,5.7,0,0,0,70,144.44a5.15,5.15,0,0,0-2.24-.68c-1.69-.39-3.06.45-4.1,2.54a5.63,5.63,0,0,0-.77-1.07,3.4,3.4,0,0,0-1-.88h-1c-.53,0-.78-.07-.78-.2a4.83,4.83,0,0,1-.78-1.37,8.14,8.14,0,0,1-.3-1.08,1.45,1.45,0,0,0-.39-.78C58.45,140.72,58,140.63,57.18,140.63ZM52.31,30.4c-.27-.13-.49.1-.69.69a1,1,0,0,0,.3,1.27c.39.13.61-.13.68-.78S52.57,30.53,52.31,30.4Zm.39,2.15a17,17,0,0,1-.3,2.06c-.19,1.11,0,1.86.69,2.25a3,3,0,0,0,1.65-.68,4.72,4.72,0,0,0,.88-1.28,1.05,1.05,0,0,0-.49-1.47,7.13,7.13,0,0,0-1.65-.68.78.78,0,0,1-.39-.1A1,1,0,0,0,52.7,32.55Zm19.1,102.2a.55.55,0,0,0,.2.39l.39.4.19-.4-.19-.39c0-.52-.2-.78-.59-.78l-.19.2Zm3.71-3.52a1,1,0,0,0-.78,1.08c0,.58.26.81.78.68.39.13.58-.1.58-.68S75.9,131.36,75.51,131.23Zm.78,9.59a1.19,1.19,0,0,0-.78,1.08,4,4,0,0,1-.2,1.27l1,.39Zm.39-5.09h1l.2-.78Zm.78,2.55c-.52,0-.78.32-.78,1s.26,1,.78,1,.58-.12.58-.78S77.85,138.41,77.46,138.28Zm2.73,1.17q-.39-.19-.39.39c0,.39.13.59.39.59C80.84,140.43,80.84,140.11,80.19,139.45Zm1.36-9.4a2.43,2.43,0,0,0-1,2v.78a1.43,1.43,0,0,0,.68-1,7,7,0,0,0,.1-1A1.2,1.2,0,0,0,81.55,130.05Zm3.12,3.33a2.56,2.56,0,0,0-1.17,2,16.2,16.2,0,0,0-.19,1.76l1.17-.19Z"/><path d="M163.83,140.63a8.33,8.33,0,0,0-4.39,1.37,5.81,5.81,0,0,1-4.58.78q-1-.19-.78-1.47a18.14,18.14,0,0,0,.19-2.74,7.7,7.7,0,0,0-.48-2.74c-.33-.85-1.14-1.27-2.44-1.27H151a4.27,4.27,0,0,0-1.85,3.33c-.2,1.56-.3,2.48-.3,2.74a3.1,3.1,0,0,0-1.75-.49,1.93,1.93,0,0,0-1.07.58l-.88.89a1.16,1.16,0,0,1-1.17.19,3.74,3.74,0,0,1-3.22-2,16.13,16.13,0,0,1-1.95-4.4,32.35,32.35,0,0,1-1-5,35,35,0,0,1-.29-3.72,19.41,19.41,0,0,1,1.07-3.14,11.52,11.52,0,0,0,.88-3.33l7.21.4a12.88,12.88,0,0,0,2.14,2,5.75,5.75,0,0,0,2.93,1.27,8.33,8.33,0,0,0,4.29-1.27,7,7,0,0,1,4.29-1.07c1,0,1.66.32,1.85,1s.81,1,1.85,1a4.43,4.43,0,0,0,2.34-.49,6.57,6.57,0,0,0,1.76-2,1.52,1.52,0,0,1-1.56-1c-.13-.26.19-.78,1-1.57a9.06,9.06,0,0,0,1.37-1.56q0-2.35-.3-6.17c-.19-2.55-.39-5.19-.58-7.93s-.29-5.38-.29-7.93a23.92,23.92,0,0,1,.58-6,10.25,10.25,0,0,1,.29-1.66c.2-.85.42-1.83.69-2.94s.48-2.19.68-3.23.36-1.83.49-2.35a8.67,8.67,0,0,0-.1-3.92,11,11,0,0,1-.49-3.33c0-.26.07-1,.2-2.25s.26-2.25.39-3q.58-3.92,1.26-7.93a29.81,29.81,0,0,0,.3-7.93,4.18,4.18,0,0,0-.78-1.17c-.52-.66-.91-1-1.17-1a5.69,5.69,0,0,0,.58-2.26,13.82,13.82,0,0,1,.39-2.25h-1a3,3,0,0,1-.59.79c-.26.26-.39.46-.39.58a12,12,0,0,0-2.24,1.28,13.19,13.19,0,0,0-1.66,1.27,5.58,5.58,0,0,0-1.07.29c-.59.2-1.2.39-1.85.59s-1.24.39-1.76.59-.78.36-.78.49A19.3,19.3,0,0,0,155.54,52q-2.23,1.66-4.68,3.14A27.8,27.8,0,0,1,146,57.52a7.08,7.08,0,0,1-4.78.09,10.41,10.41,0,0,0,0-7.44,24.89,24.89,0,0,0-1.56-3.32q-1-1.77-2.14-4.12c0-.12,0-.42.09-.88a7.23,7.23,0,0,0,.1-.88,13.49,13.49,0,0,1,.68-1.56c.33-.66,1-.72,1.86-.2a5.15,5.15,0,0,1,.58,1,4.54,4.54,0,0,0,.78,1.17h.2a2.34,2.34,0,0,0,1.75-.48A23.2,23.2,0,0,0,146,39.21a17.83,17.83,0,0,0,2.24-2.05,3,3,0,0,0,1-1.67,2.72,2.72,0,0,0,.3-2.06,3.82,3.82,0,0,1,.09-2.25l2.34.59a15,15,0,0,1,1.95-4.4,1.58,1.58,0,0,1,1.56-.69c.52.13,1.14.33,1.86.59s1.65-.07,2.82-1a2.83,2.83,0,0,0,1-1.08c.13-.32.22-.59.29-.78a.38.38,0,0,1,.39-.3,7.1,7.1,0,0,1,1.46.4,2.11,2.11,0,0,1,1.56.58c-.26-.12-.75.07-1.46.59a4.46,4.46,0,0,0-1.27,1.18c-.26.13-.39.62-.39,1.46a6.4,6.4,0,0,1-.19,1.86,1.35,1.35,0,0,0,1.75-.49c.39-.58.85-1.23,1.37-1.95A6.1,6.1,0,0,1,166.56,26a3.9,3.9,0,0,1,3.31.09l1.76-6.26c.12-.26.45-.42,1-.49a1.32,1.32,0,0,1,1.17.29,30.4,30.4,0,0,1,5.75,4.31,21.34,21.34,0,0,1,4.19,4.7,5.62,5.62,0,0,0,1,1.17L185.86,31a9.38,9.38,0,0,1,1.75,6.07,66.8,66.8,0,0,1-.48,7.93q-.49,4-.69,7.44t1.17,4.6a22.86,22.86,0,0,1-.19,2.44c-.13,1.11-.29,2.29-.49,3.53s-.42,2.42-.68,3.52-.46,1.93-.59,2.45l-.39,1.17c-.26.79-.32,1.18-.19,1.18a3.22,3.22,0,0,0,1.36,1,3.28,3.28,0,0,1,1.37,1,12.94,12.94,0,0,1-.1,4.7c-.33,2.09-.75,4.3-1.27,6.65s-1,4.6-1.56,6.76a42.6,42.6,0,0,0-1,5,6.53,6.53,0,0,1,.58,1.86,19,19,0,0,1,.39,1.86q-.19,2.55-.39,3.72a13.14,13.14,0,0,0-.19,2.15,14.82,14.82,0,0,0,.19,2.25,29.78,29.78,0,0,0,1,3.82v.39c0,.14,0,.2-.1.2s-.1.07-.1.2v.39a2.84,2.84,0,0,0-.58.09,2.46,2.46,0,0,1-.59.1l-.19.39v.59l1.75-.39a6.91,6.91,0,0,0-1.17,2.74,4.74,4.74,0,0,0-.19,2.94,2.08,2.08,0,0,0,1.46,1.66,14.84,14.84,0,0,0,3,.78,32.42,32.42,0,0,0,3.71.4c1.3.06,2.4.16,3.31.29a2,2,0,0,0,1.46-.1,6.7,6.7,0,0,0,1.47-1.66l-.2,2.74a9.82,9.82,0,0,1,1.46-.49,6.48,6.48,0,0,1,1.47-.29.17.17,0,0,0,.19.19H202a.79.79,0,0,1,.78.39,2.17,2.17,0,0,0,1.17.79,2.89,2.89,0,0,0,1.17-.4c.52-.26.78-.58.78-1v-.4a12.34,12.34,0,0,1-1.27-.78,2.88,2.88,0,0,0-1.26-.59c.12,0,.29-.19.48-.58s.36-.59.49-.59v-.2l.39.2h.39a20.82,20.82,0,0,0,6,1.76,6.66,6.66,0,0,1,3.31,1,4,4,0,0,1,1.27,3,57.2,57.2,0,0,1-.2,7.74c0,.78-.06,2.12-.19,4a8.23,8.23,0,0,1-1.37,4.41l-.78-1.18.39-7a4.84,4.84,0,0,0-.87.1,4.23,4.23,0,0,1-.88.1.63.63,0,0,1-.59-.39,2.35,2.35,0,0,1,0-1.37,6,6,0,0,0-1.65,2.25q-.69,1.47-1.47,3l-1.36,2.74q-.58,1.19-1.17,1.38c0-.13-.13-.3-.39-.49s-.39-.36-.39-.49h-.58l-.39-.4a7.3,7.3,0,0,1-1.17.89,2.55,2.55,0,0,0-1,.88v-2.55a8.88,8.88,0,0,0-2.24,1.76,27.66,27.66,0,0,0-1.85,2.35,4.3,4.3,0,0,1-.78-1.17,5.49,5.49,0,0,0-1-1.37c.26.65.2,1.07-.19,1.27a2.53,2.53,0,0,1-1.17.29c-.52,0-.85-.16-1-.49a4.78,4.78,0,0,1-.29-1.07,5.68,5.68,0,0,0-.29-1.08c-.13-.32-.46-.49-1-.49h-.58a.57.57,0,0,0-.39.2,4.61,4.61,0,0,1-1.27,3.72,6.35,6.35,0,0,1-3.22,2v-2.16a2,2,0,0,0-1.46.49,13.26,13.26,0,0,0-1.07,1.27,8.35,8.35,0,0,1-1.27,1.37,2.71,2.71,0,0,1-1.85.59h-.2l-1-.78a2.07,2.07,0,0,0-1.56.59,5.81,5.81,0,0,0-1.46-2.26,5.2,5.2,0,0,0-2.24-.68c-1.7-.39-3.06.45-4.1,2.54a5.79,5.79,0,0,0-.78-1.07,3.39,3.39,0,0,0-1-.88h-1c-.52,0-.78-.07-.78-.2a5.09,5.09,0,0,1-.78-1.37,8,8,0,0,1-.29-1.08,1.6,1.6,0,0,0-.39-.78A2.29,2.29,0,0,0,163.83,140.63ZM159,30.4c-.26-.13-.48.1-.68.69a1,1,0,0,0,.29,1.27q.58.2.69-.78C159.31,30.92,159.21,30.53,159,30.4Zm.39,2.15a16.13,16.13,0,0,1-.29,2.06c-.19,1.11,0,1.86.68,2.25a3.1,3.1,0,0,0,1.66-.68,5,5,0,0,0,.88-1.28,1.06,1.06,0,0,0-.49-1.47,7,7,0,0,0-1.66-.68.81.81,0,0,1-.39-.1A.94.94,0,0,0,159.34,32.55Zm19.11,102.2a.54.54,0,0,0,.19.39l.39.4.2-.4-.2-.39c0-.52-.19-.78-.58-.78l-.2.2Zm3.7-3.52a1,1,0,0,0-.78,1.08c0,.58.26.81.78.68.39.13.59-.1.59-.68S182.54,131.36,182.15,131.23Zm.78,9.59a1.19,1.19,0,0,0-.78,1.08,4,4,0,0,1-.19,1.27l1,.39Zm.39-5.09h1l.19-.78Zm.78,2.55c-.52,0-.78.32-.78,1s.26,1,.78,1,.59-.12.59-.78S184.49,138.41,184.1,138.28Zm2.73,1.17q-.39-.19-.39.39c0,.39.13.59.39.59C187.48,140.43,187.48,140.11,186.83,139.45Zm1.37-9.4a2.44,2.44,0,0,0-1,2v.78a1.44,1.44,0,0,0,.69-1,6.8,6.8,0,0,0,.09-1A1.14,1.14,0,0,0,188.2,130.05Zm3.12,3.33a2.56,2.56,0,0,0-1.17,2,17.3,17.3,0,0,0-.2,1.76l1.17-.19Z"/></g></g></svg>
