<svg xmlns="http://www.w3.org/2000/svg" viewBox="0 0 130 170"><title>point-5</title><g id="UI"><g id="Knapper"><path d="M44.85,152.31c-.13,0-.2,0-.2.1s-.06.09-.19.09h-.2a2.59,2.59,0,0,0-.87.39,4.66,4.66,0,0,0-.88.59h-.78A8,8,0,0,1,39,152a21.76,21.76,0,0,1-2.54-2.35,31,31,0,0,1-2-2.44A18.17,18.17,0,0,0,33,145.45Q31.39,139.78,30,134.1a50.92,50.92,0,0,1-1.36-11.94,6,6,0,0,1,.39-2.45l.78-1.86a10.83,10.83,0,0,0,.58-2.25,16.49,16.49,0,0,0,0-3.62q1,.39,1.17,2.25c.13,1.24.59,1.86,1.36,1.86a1.91,1.91,0,0,0,1-.39,2.09,2.09,0,0,1,.78-.4v-.19c0-.13,0-.2.1-.2s.09-.06.09-.19l-.19-.39a14.07,14.07,0,0,1-.88-1.18A11.36,11.36,0,0,0,33,112a2.23,2.23,0,0,1,.49-1.77,11.43,11.43,0,0,1,1.66-1.86,8.25,8.25,0,0,1,2-1.37,2.87,2.87,0,0,1,1.85-.29,2.4,2.4,0,0,1,2.24,1.57,14.08,14.08,0,0,1,.68,3.13,19.88,19.88,0,0,1,.1,3.33,2.76,2.76,0,0,0,.49,2.15,4.59,4.59,0,0,0,2.44.88c1.23.2,2.53.43,3.89.69a17.13,17.13,0,0,1,3.61,1.07A2.47,2.47,0,0,1,54,122a4.56,4.56,0,0,0-2.24.29c-.2.2-.29.82-.29,1.86a8.86,8.86,0,0,0,2.43-.19c.33-.13.49-.3.49-.49a.66.66,0,0,1,.2-.49,3.17,3.17,0,0,1,1.56-.2,1.27,1.27,0,0,1,1.26.59A14.38,14.38,0,0,1,58,124.7a4.49,4.49,0,0,0,.78,1.37,2.63,2.63,0,0,0,2.05.59,2.26,2.26,0,0,0,2-1.08c.46-.71.94-1.5,1.46-2.35a8.52,8.52,0,0,1,2-2.25,4.91,4.91,0,0,1,3.8-.59q.39,0,1.08.69c.45.46.68.82.68,1.08.13-.26.39-.72.78-1.37a3.15,3.15,0,0,1,1-1.18h.59a3.42,3.42,0,0,1,1,.39l.78.39A4.94,4.94,0,0,0,79.36,119q1.56-1.36,3.31-2.93a14.37,14.37,0,0,1,3.71-2.45,5.7,5.7,0,0,1,4.29-.1L91.83,112a.52.52,0,0,1,.59.58,5.72,5.72,0,0,1,0,2.16,21.28,21.28,0,0,0-.2,2.15c1.43,0,2.37-.36,2.83-1.08a5.44,5.44,0,0,0,.78-2.64,18.92,18.92,0,0,0-.1-3.33,8.13,8.13,0,0,1,.2-3.13,11.42,11.42,0,0,1,1.75-1.86,13.73,13.73,0,0,1,1.95-1.66,11.76,11.76,0,0,0-.39-2,12,12,0,0,1-.39-2A4.29,4.29,0,0,0,97,100c-.85.53-1.46.66-1.85.39a4.31,4.31,0,0,1-.39-1.66,3.56,3.56,0,0,0-.59-1.86,1.2,1.2,0,0,0-1.46-.49,5.1,5.1,0,0,1-1.66.29c-.52,0-1-.35-1.36-1.07s-.58-2.25-.58-4.6H87.35v1.56a4.11,4.11,0,0,1-2.63-1.37,3,3,0,0,0-2-1.17h-.58l-1.56,1a26.32,26.32,0,0,1-5.36-.69,12.14,12.14,0,0,1-5-2A10.06,10.06,0,0,0,69,92.79a8.5,8.5,0,0,1-4-1.08,9,9,0,0,0-4.19-1.07V90a1,1,0,0,0-.2-.69c-.13-.26-.33-.58-.58-1a1.85,1.85,0,0,1-.39-1l.39-.79a1,1,0,0,1,.39-.49.31.31,0,0,0,.19-.29,16.17,16.17,0,0,0-.1-3.91c-.19-2-.29-3.27-.29-3.92h-1l-.39,2a3.56,3.56,0,0,0-.1,1.47,1,1,0,0,0,.88.88,2.46,2.46,0,0,0-2.34,2.25,23.94,23.94,0,0,0-.1,3.91A15.88,15.88,0,0,1,57,92c-.19,1-1.07,1.56-2.63,1.56a35,35,0,0,1-8.67-1.07,28.37,28.37,0,0,0-9.27-.69l-1.75-1.76-.78,1.76a4.64,4.64,0,0,0-.88.2A4.08,4.08,0,0,1,32,92.2c-.39,0-1.11-.45-2.14-1.37a44.31,44.31,0,0,1-3.22-3.13,26.52,26.52,0,0,1-2.83-3.53,5.7,5.7,0,0,1-1.17-2.54v-.2c0-.13.07-.19.2-.19a.59.59,0,0,0,.39-.2l.39-.39A8.24,8.24,0,0,0,27,83.2a9.86,9.86,0,0,0,3.8,1A7.32,7.32,0,0,1,28.08,81a2.63,2.63,0,0,1,.1-2.54,3,3,0,0,1,2.24-1.18,7,7,0,0,1,3.7.79,2.84,2.84,0,0,0-.48-1.67c-.33-.45-1.14-.55-2.44-.29-.13-.39-.39-1.27-.78-2.65a21.55,21.55,0,0,0-.78-2.44.6.6,0,0,0-.19-.39c0-.52.64-.92,1.95-1.18l4.28-.88A25.15,25.15,0,0,0,40,67.34c1.3-.52,1.89-1.31,1.76-2.35A7.59,7.59,0,0,1,39,63.23a9.6,9.6,0,0,0,3.41-3.82c.71-1.5,1.4-3,2.05-4.41a15.77,15.77,0,0,1,2.63-4,8.35,8.35,0,0,1,5-2.45c.26.26.59.13,1-.39s.81-1.11,1.26-1.76.88-1.24,1.27-1.76.65-.59.78-.2l2.15,4.7c.25-.13.51.07.78.59a2.31,2.31,0,0,1,.19,1v1c-.13.27-.55,1-1.27,2.35a14.12,14.12,0,0,0-1.07,2.16c0,.13.23.46.68,1s.81.78,1.08.78h.78c.25,0,.61-.69,1.07-2.06s.74-2.05.87-2.05c.65,0,1.11.75,1.37,2.25a23.46,23.46,0,0,1,.39,2.84,2.66,2.66,0,0,1-.29,1.17,1.11,1.11,0,0,1-1.08.59h-.39a4.82,4.82,0,0,0-1-.59,3.53,3.53,0,0,0-1-.39h-.78c-.53,0-.78.33-.78,1,.25,1,.78,1.6,1.56,1.66s1.56.1,2.33.1,1.37,0,2.15-.1,1.3-.61,1.56-1.66c.78.65,1.56,1.37,2.34,2.15A23.43,23.43,0,0,0,70.49,65a17.07,17.07,0,0,0,2.82,1.76,8.68,8.68,0,0,0,3.9.78,18.66,18.66,0,0,0,2.05-.29,6.4,6.4,0,0,0,2.24-.69,3.56,3.56,0,0,0,.59,1.77,1.75,1.75,0,0,0,1.56,1h.19c.26-.12.59-.25,1-.39a2.21,2.21,0,0,0,.78-.39,22.46,22.46,0,0,0,.58,4,14.08,14.08,0,0,0,1,2.64,1.75,1.75,0,0,0,1.56,1.17l.39-.19.78-.39.78-.4c.38,0,.71.3,1,.89a14,14,0,0,1,.68,1.86c.2.65.39,1.34.59,2a3.66,3.66,0,0,0,.48,1.27,2.67,2.67,0,0,0,.88-.88,2.77,2.77,0,0,1,.88-.88h.78l1.95,3.72h.19c1,0,1.63-.16,1.76-.49a1.51,1.51,0,0,0,0-1.07,7.05,7.05,0,0,1-.29-1.28c-.07-.45.29-.81,1.07-1.07a6.6,6.6,0,0,0,1.07,1.27,2.4,2.4,0,0,1,.88,1.47,1.56,1.56,0,0,1-.39,1.27,4.41,4.41,0,0,0-1,1.47,2.8,2.8,0,0,1,1.27.58c.59.4,1.17.82,1.76,1.28a4.91,4.91,0,0,1,1.26,1.37c.26.46.26.81,0,1.07l-.78.79a19.37,19.37,0,0,0,1.66,2,2,2,0,0,0,2.63.58l1,3.53a4.5,4.5,0,0,0-2.83,2.35,8.64,8.64,0,0,0-.68,3.52,13.19,13.19,0,0,0,.48,4.11,8.34,8.34,0,0,0,2,2.94v1.17c-.26,0-1,.07-2.34.2s-2,.72-2,1.76v.39a4.51,4.51,0,0,0,1.47,1.57,2.35,2.35,0,0,1,1.07,2,2.69,2.69,0,0,1-.39.88,2.69,2.69,0,0,0-.39.88v2.54a3.5,3.5,0,0,0-.78-.48,2.27,2.27,0,0,0-1-.3c-.26,0-.52.33-.78,1a18.15,18.15,0,0,0-.68,2.15c-.19.79-.39,1.54-.58,2.26a9.82,9.82,0,0,1-.49,1.46,18.35,18.35,0,0,1-3.32,3.63q-2.14,1.86-3.7,3.42h-1a8.11,8.11,0,0,0-1.07-1.37c-.58-.65-1-1.11-1.27-1.37a1.33,1.33,0,0,0-.78.29.85.85,0,0,0-.38.69,3.85,3.85,0,0,0,.48,1.37,5.93,5.93,0,0,0,.68,1.17l.2.4a4.59,4.59,0,0,0-2.24.58,3.07,3.07,0,0,0-1.46,1.57,1.69,1.69,0,0,0-1.76-1,7.16,7.16,0,0,0-3,.78,20,20,0,0,1-3,1.18v.78a4.26,4.26,0,0,0,2.92,1.08,8.64,8.64,0,0,0,3.12-.29,5,5,0,0,1-2.63,2.15,10.19,10.19,0,0,1-3.41.59H78.77a21.27,21.27,0,0,0-1.46-3.82,3.44,3.44,0,0,0-3.22-2.25,1.46,1.46,0,0,0-1.56,1.47,3.65,3.65,0,0,1-.58,1.86l-.39.19h-.39c-.13,0-.2-.06-.2-.19s-.26-.1-.39-.3a3.49,3.49,0,0,0-.39-.49,6.65,6.65,0,0,0-1.36,1.28c-.65.71-1.11,1.2-1.37,1.46v.2a3.19,3.19,0,0,0,.59,2,2.86,2.86,0,0,1,.58,1.76,3.52,3.52,0,0,1-.58,2.15L66.88,149a20.67,20.67,0,0,0-1.17,1.76,5.36,5.36,0,0,0-.59,2.74,4.83,4.83,0,0,0-.87-.59,2.69,2.69,0,0,0-.88-.39A8.26,8.26,0,0,1,62,151.43c-.65-.59-1.1-.89-1.36-.89s-.42.2-.88.59a2.38,2.38,0,0,1-.87.59c-.14,0-.27-.2-.39-.59a1.88,1.88,0,0,1-.39-.59h-1c-.26,0-.75.33-1.46,1s-1.46,1.4-2.24,2.26-1.53,1.59-2.25,2.25a4.74,4.74,0,0,1-1.26,1l-.59-.2-4.09-4.31Zm-2.34-25.85a10.86,10.86,0,0,1,3.31,4,24.9,24.9,0,0,1,2,4.79,2.62,2.62,0,0,0,.88-1.17,17.17,17.17,0,0,0,.88-2.15,16.73,16.73,0,0,0,.58-2.26,10.11,10.11,0,0,0,.2-1.46,3.08,3.08,0,0,0-1.17-2A8.3,8.3,0,0,0,46.9,125c-.85-.33-1.7-.62-2.54-.89a4.42,4.42,0,0,1-1.85-1v.58c0,1,.32,1.64,1,1.76Zm1.75,12.14h1l-1-.78Zm1.37-78.31c0,1.44.52,2.15,1.56,2.15h.58c0-.13.13-.32.39-.58s.46-.4.59-.4a1.52,1.52,0,0,0-1.27-1.07A15.53,15.53,0,0,0,45.63,60.29Zm2.14,10a3.48,3.48,0,0,0-1,2.55A3.86,3.86,0,0,0,48,72.53a1.09,1.09,0,0,0,.78-1.08v-.39l-.59-.59A.57.57,0,0,0,47.77,70.27Zm0,73.62h1c0-1-.33-1.63-1-1.76Zm1-25.26c-.52,0-.78.3-.78.88s.26.88.78.88c.26,0,.39-.29.39-.88S49,118.63,48.75,118.63Zm.58-66.56q-.39,0-.39.78t.39.78a.78.78,0,0,0,0-1.56Zm0,94.36q-.39-.19-.39.3c0,.32.13.49.39.49s.39-.1.39-.3S49.59,146.56,49.33,146.43Zm3.12-13.51c0,.27.07.92.2,2s.19,1.7.19,2a1.45,1.45,0,0,0,.49.59c.19.13.29.26.29.39.65-.26,1-.59,1-1v-.78c-.13-.65-.27-1.34-.39-2.06S53.49,132.92,52.45,132.92Zm1.17-4.69a1.91,1.91,0,0,0-1,1.76h1Zm-.78,21.53h.78V148.2h-.78Zm2.54-26c-.39,0-.59.3-.59.88s.2.88.59.88.78-.29.78-.88S55.89,123.72,55.38,123.72ZM56.16,64v1.76a4.88,4.88,0,0,0,.19,1.76.81.81,0,0,0,.29.49l.49.49a3,3,0,0,0,1.95-2.74,1.4,1.4,0,0,0-1-1.37A5.29,5.29,0,0,0,56.16,64Zm.19,67.15a3.32,3.32,0,0,0,1.76,3.13c.64-.12,1-.45,1-1v-1.18a5.42,5.42,0,0,0-.19-1.56c-.14-.4-.72-.59-1.76-.59l-.78.78ZM83.06,46.78a6.58,6.58,0,0,1-.39,1.27c-.26.72-.46,1.21-.58,1.47H81.5c-.26-.13-.75-.32-1.46-.59a6.81,6.81,0,0,0-1.27-.39h-1a3.07,3.07,0,0,1-.3.88,3.51,3.51,0,0,0-.29.88,5,5,0,0,1-1.46-.39,5.4,5.4,0,0,0-1.46-.39H73.7c-.26,0-.42,0-.48-.1a.45.45,0,0,0-.3-.09,2.51,2.51,0,0,0-1.85,1c-.58.66-1.17,1.34-1.75,2.06s-1.14,1.4-1.66,2.06-1,1-1.37,1l-.19-.19-2.34-.78c-.65-.26-1.27-.52-1.85-.79a1.75,1.75,0,0,1-1.07-1c0-.13-.14-.32-.39-.58a2.37,2.37,0,0,1-.59-1,2.5,2.5,0,0,1-.1-1.18c.07-.39.42-.78,1.08-1.17a3.68,3.68,0,0,1-2.54-3A6.64,6.64,0,0,1,59,41.4,7.33,7.33,0,0,1,68.05,38V31.12a8.6,8.6,0,0,0,5.26-2.35v5.68A7.18,7.18,0,0,1,77.8,32.1a7.68,7.68,0,0,0-1.47-2.94,13,13,0,0,0-2-2.15c.26-.66.91-1,1.95-1a1.4,1.4,0,0,1,1.17.49,5.22,5.22,0,0,1,.68,1.17,4.94,4.94,0,0,0,.68,1.18,1.67,1.67,0,0,0,1.37.49,4.32,4.32,0,0,0,2.53-1.47q1.56-1.47,3.32-3.33a34.64,34.64,0,0,1,3.6-3.33A5.68,5.68,0,0,1,93,19.76a2.87,2.87,0,0,1,1.76.59,5,5,0,0,1,1.17,1.17c.52-.26,1.56-.68,3.12-1.27s2.6-.94,3.12-1.08h.19c.13,0,.2,0,.2-.09s.06-.1.19-.1a.57.57,0,0,0,.39-.2,3.64,3.64,0,0,1-.39,2.06,3.62,3.62,0,0,0-.39,2.05,3.44,3.44,0,0,0,2.34-.68,3.14,3.14,0,0,1,2.15-.69h.39c0,.14.13.33.39.59s.45.39.58.39a2,2,0,0,0,.78-.39,10.54,10.54,0,0,1,1-.59h1.17V26c.26-.91.58-1.44,1-1.57a7.14,7.14,0,0,1,1.17-.29,4.07,4.07,0,0,0,1.27-.49,3.94,3.94,0,0,0,1.27-2.16.59.59,0,0,0,.39-.19c.25-.26.45-.39.58-.39a3.35,3.35,0,0,1,1.66,1.86,5,5,0,0,0,1.85,2.25c-.65.26-1,.91-1,2v.58L121.08,26c.65.26,1.23,1.07,1.75,2.44a9.78,9.78,0,0,1,.78,3,10.88,10.88,0,0,1-1.56,6,34.27,34.27,0,0,1-3.31,4.41c-1.17,1.3-2.28,2.54-3.31,3.72a5.71,5.71,0,0,0-1.56,3.91,6.09,6.09,0,0,1-3.32-1,25.74,25.74,0,0,1-3.61,1.86c-1.36.59-2.69,1.15-4,1.67h-.78a3.12,3.12,0,0,0-.88-.49,3.23,3.23,0,0,1-.88-.49h-.58a3.69,3.69,0,0,0-1.85.49,4.23,4.23,0,0,1-2,.49,2.11,2.11,0,0,1-1.56-.59,2.11,2.11,0,0,0-1.56-.59l-.39.2-2.34,3.52H89.5c-.39,0-.72-.39-1-1.17s-.58-1.67-1-2.65A11.82,11.82,0,0,0,86,48.05a3.09,3.09,0,0,0-2.54-1.27ZM62.2,75.36c-.26,0-.39.27-.39.79s.13.78.39.78c.65,0,1-.26,1-.78S62.85,75.36,62.2,75.36Zm1-24.27q-.39,0-.39.78t.39.78c.65,0,1-.26,1-.78S63.82,51.09,63.17,51.09ZM64,149.76c-.26,0-.39.33-.39,1s.13,1,.39,1a1,1,0,1,0,0-2Zm0-81.25a2,2,0,0,0,.39.78,6,6,0,0,0,.78,1,4,4,0,0,0,1.17-1.66,5.28,5.28,0,0,0,.59-2.06l-.39-.39A.55.55,0,0,0,66.1,66a.57.57,0,0,1-.39-.2h-.59a4.22,4.22,0,0,0-.78,1.37A4.56,4.56,0,0,0,64,68.51Zm7.61,63c-1.56,0-3,.92-4.19,2.74a9,9,0,0,0-1.86,4.9,5,5,0,0,0,4.39-2.55A9.29,9.29,0,0,0,71.56,131.55Zm-4.68-8.41c-.39-.26-.59-.2-.59.19s.2.52.59.39C67.27,123.33,67.27,123.14,66.88,123.14Zm5.07.58a1.87,1.87,0,0,0-1.85,1,4.73,4.73,0,0,0-.49,2.16,3.13,3.13,0,0,0,2.92-2,1.79,1.79,0,0,0-.19-.79Q72.14,123.72,72,123.72ZM70,70.27a1.76,1.76,0,0,0,1,1.57V70.27Zm3.51.2a.37.37,0,0,0,.1.29.45.45,0,0,1,.09.3,2.12,2.12,0,0,1,.39.78,3.27,3.27,0,0,1,.2,1V70.27h-.78Zm1.95,53.25H76v-.58Zm3.31,11.55a3.93,3.93,0,0,0,1-.78,4.19,4.19,0,0,0,.78-1v-1a14.5,14.5,0,0,0-.78-1.27,8.49,8.49,0,0,0-1-1.27L76,132.53ZM77.21,46.78c-.65,0-1,.29-1,.88s.32.88,1,.88c.26,0,.39-.29.39-.88S77.47,46.78,77.21,46.78Zm.59,25.06a1.91,1.91,0,0,0,.39,1,5.91,5.91,0,0,0,.58.78c0-.13.13-.29.39-.49a1.23,1.23,0,0,1,.59-.29v-1c-.13,0-.33-.13-.59-.39l-.39-.39a1.21,1.21,0,0,0-.58.29C77.93,71.55,77.8,71.71,77.8,71.84Zm2.73,49.53h1l-1-1Zm5.07,12.92h1.17a1.88,1.88,0,0,0-1.17-1.76Zm1.75-104a1.76,1.76,0,0,0,1.17-1.56H87.35Zm5.07-9.39q-.39,0-.39.78t.39.78a.78.78,0,1,0,0-1.56Zm0,13.51L93,35l.39.39H94a4.59,4.59,0,0,0,2.24-.58,5.41,5.41,0,0,1,2.63-.59,6.53,6.53,0,0,0-.29-1.66,19,19,0,0,0-.78-2.26,10.82,10.82,0,0,0-1.17-2.15A2.68,2.68,0,0,0,95.15,27c-.26,0-.72.32-1.37,1l-1.36,1.38v.39a1,1,0,0,0,1,1.07c.65.07,1,.49,1,1.28s-.33,1.14-1,1.07-1,.3-1,1.08Zm3.51,90.45c-.26-.13-.39,0-.39.29s.13.43.39.29.39-.26.39-.39S96.19,124.9,95.93,124.9Zm1.95-36.61c-.26,0-.39.16-.39.49s.13.48.39.48C98.53,88.61,98.53,88.29,97.88,88.29Zm1.75-63.44a1.43,1.43,0,0,0-1.36.69A2.94,2.94,0,0,0,97.88,27h1.75Zm-1,83.41a.39.39,0,0,0,0,.78Q99.44,108.65,98.66,108.26Zm1.75,8.61q-.19,0-.48.69a2.87,2.87,0,0,0-.3,1.07v1a3.93,3.93,0,0,0,.88-1.27c.2-.46.42-1,.68-1.47h-.78Zm.39-71.26c0,.26,0,.91.1,2a1.94,1.94,0,0,0,1.27,2c.13-.26.29-.59.49-1a2.45,2.45,0,0,0,.29-.78A1.9,1.9,0,0,0,100.8,45.61ZM103,102.19q-.39-.39-.39.39c0,.52.13.72.39.59a.63.63,0,0,0,.39-.59A.34.34,0,0,0,103,102.19Zm.78,13.9v-.79H103Zm1.75-21a3,3,0,0,0-1,2.15,2.66,2.66,0,0,0,1.95-1.17Zm0-50.12c-.39,0-.58.29-.58.88s.19.88.58.88.78-.29.78-.88S106,45,105.48,45ZM109,46.78,110.55,45H109Zm5.07-9.4c0,.13.13.27.39.39a1.38,1.38,0,0,0,.59.2V35.42a2.08,2.08,0,0,1-.59.4q-.39.2-.39.39v1.17Zm1-8.61c-.27-.26-.39-.23-.39.1s.12.49.39.49.39-.27.39-.4S115.29,28.77,115,28.77Zm4.29,1.56c.12-.26,0-.39-.39-.39s-.53.13-.39.39.29.4.48.4S119.33,30.6,119.33,30.33Z"/></g></g></svg>
