<svg xmlns="http://www.w3.org/2000/svg" viewBox="0 0 260 220"><defs><style>.cls-1{fill:#f9e8d8;}.cls-2{fill:#75272d;}.cls-3{fill:#ffffe2;}.cls-4{fill:#44210b;}.cls-5{fill:#390000;}.cls-6{fill:#d36609;}</style></defs><title>Point</title><g id="UI"><g id="Knapper"><path class="cls-1" d="M212.07,77.74c-1.12-.56-3,1.69-8.07,9.64a18.76,18.76,0,0,1-4.61,5.75,12.2,12.2,0,0,1,1,4.71c0,9.14-10.43,16.58-23.25,16.58-9.06,0-16.93-3.72-20.76-9.13.11,3.33-3.2,6.89-8.15,8.43a16.15,16.15,0,0,1-4.71.73,12.67,12.67,0,0,1-3.19-.39,7.31,7.31,0,0,1-4.23-2.65c-.58,9.89-12.3,17.81-26.62,17.81-14.7,0-26.65-8.33-26.65-18.57v-.23a.66.66,0,0,1-.62-.56c-.55-4.52-17.73-15.67-27.83-20l-.08,0c-10-5.92-14.94-5.52-22.81,1.87a.64.64,0,0,1-.36.17,199.26,199.26,0,0,0,5.32,26.2A159.78,159.78,0,0,0,56.14,162.9c8.45,13,18.29,23.13,29.24,30.24,11.34,7.35,23.38,11.08,35.8,11.08,23.81,0,46.4-13.91,63.6-39.17,15.88-23.32,25.66-54.06,27.89-87.29A.74.74,0,0,1,212.07,77.74ZM95.81,143.81a1.59,1.59,0,0,1-.43.06,1.33,1.33,0,0,1-.65-.16,2.06,2.06,0,0,1-.67-2.6A1.94,1.94,0,0,1,95.22,140a1.35,1.35,0,0,1,1.08.1,2,2,0,0,1,.67,2.6A1.94,1.94,0,0,1,95.81,143.81Zm4,9.94a1.65,1.65,0,0,1-1.14.43,1.69,1.69,0,0,1-1.13-.41,1.43,1.43,0,0,1-.51-1.05,1.33,1.33,0,0,1,.44-1,1.71,1.71,0,0,1,2.27,0,1.38,1.38,0,0,1,.07,2.06Zm5.32-8.62a1.58,1.58,0,0,1-1.53,1,1.74,1.74,0,0,1-.45-.06,1.55,1.55,0,0,1-1-.7,1.28,1.28,0,0,1-.11-1.06,1.64,1.64,0,0,1,2-.95,1.55,1.55,0,0,1,1,.7A1.28,1.28,0,0,1,105.12,145.13ZM153,174.51l0-.07-3.42-9-.64.11-2.22,12.27-8.35-1.29,1.75-10.29a18.17,18.17,0,0,1-3.44-.38.65.65,0,0,1-.5-.78.64.64,0,0,1,.33-.39.72.72,0,0,1,.52-.07,31.19,31.19,0,0,0,10.5-.14c5.89-.89,9.27-2.38,9.9-2.92a.71.71,0,0,1,.5-.17.73.73,0,0,1,.48.2.61.61,0,0,1,0,.91,8.65,8.65,0,0,1-2.26,1.16l3.33,8.77ZM161.13,134a9.65,9.65,0,0,1-5.08,5,10.94,10.94,0,0,1-4.39.92,10.4,10.4,0,0,1-3-.43,8.68,8.68,0,0,1-5.39-4.28.32.32,0,0,1,0-.27.33.33,0,0,1,.2-.2.41.41,0,0,1,.29,0,.35.35,0,0,1,.22.19,8,8,0,0,0,4.93,3.9,9.89,9.89,0,0,0,6.81-.46,8.87,8.87,0,0,0,4.69-4.58,6.92,6.92,0,0,0-.19-6,.32.32,0,0,1,0-.27.36.36,0,0,1,.19-.21.42.42,0,0,1,.52.17A7.59,7.59,0,0,1,161.13,134Zm18-.88a1.15,1.15,0,0,1-.6-2,1.15,1.15,0,0,1,.8-.24,1.12,1.12,0,0,1,1,1.22,1.16,1.16,0,0,1-.44.81,1.13,1.13,0,0,1-.7.25Zm1.65,7a1.17,1.17,0,0,1-.45.09,1.06,1.06,0,0,1-1-.68A1.17,1.17,0,0,1,180,138a1.07,1.07,0,0,1,1.44.58A1.19,1.19,0,0,1,180.82,140Zm6.45-2.1a.94.94,0,0,1-.55.49,1.06,1.06,0,0,1-.31,0,1.78,1.78,0,0,1-1.48-1,1.48,1.48,0,0,1-.07-1.26.9.9,0,0,1,.54-.49,1.63,1.63,0,0,1,1.79,1A1.52,1.52,0,0,1,187.27,137.92Z"/><path class="cls-1" d="M55,88.71c8.83,3.8,24.9,13.73,28.05,19.52,1.7-9.1,12.9-16.15,26.42-16.15,14.08,0,25.65,7.66,26.58,17.31a.7.7,0,0,1,.72.42,5.32,5.32,0,0,0,3.93,3,13.14,13.14,0,0,0,7.07-.33c5-1.53,8.11-5.24,7-8.26a.65.65,0,0,1,.44-.82h0a12.29,12.29,0,0,1-1.36-5.58c0-9.14,10.43-16.58,23.25-16.58,9.87,0,18.32,4.41,21.69,10.62a18.1,18.1,0,0,0,4-5.11c5.75-9,7.64-11.32,10-10.15h0c.05-.75.08-1.5.12-2.25a90.89,90.89,0,0,1-12.66.88,81.83,81.83,0,0,1-12.94-1c-11.42-1.83-24.12-6.8-32.37-12.68A86.87,86.87,0,0,1,133,64a88.23,88.23,0,0,1-20.83-3.23c-8.48,7.69-28.36,13.36-45.29,12.91A86.87,86.87,0,0,1,37,67.28a48.59,48.59,0,0,1-7.81-4.09A213.76,213.76,0,0,0,30.9,90.38C39,82.9,44.53,82.55,55,88.71Z"/><path d="M212.66,76.74a2.16,2.16,0,0,0-1-.26c-1.86,0-3.92,2.78-8.74,10.36A18.08,18.08,0,0,1,198.86,92c.17.32.33.65.47,1a18.94,18.94,0,0,0,4.54-5.66c5.24-8.25,7-10.33,8.28-9.7a.56.56,0,0,0,.73-.2.47.47,0,0,0,0-.38A.48.48,0,0,0,212.66,76.74Z"/><path class="cls-1" d="M177.1,113.71c12.39,0,22.48-7.12,22.48-15.87S189.49,82,177.1,82s-22.48,7.12-22.48,15.87S164.71,113.71,177.1,113.71Zm3.09-20a3.57,3.57,0,1,1-4.09,3.53A3.84,3.84,0,0,1,180.19,93.7Z"/><path d="M177.1,114.28c12.73,0,23.1-7.38,23.1-16.44S189.83,81.4,177.1,81.4,154,88.78,154,97.84a12.25,12.25,0,0,0,1.37,5.56.69.69,0,0,1,.69.43,4.29,4.29,0,0,1,.25,1.17C160.06,110.48,168,114.28,177.1,114.28ZM154.47,97.84c0-8.83,10.15-16,22.63-16s22.63,7.18,22.63,16-10.15,16-22.63,16S154.47,106.67,154.47,97.84Z"/><path class="cls-2" d="M177.1,113.85c12.48,0,22.63-7.18,22.63-16s-10.15-16-22.63-16-22.63,7.18-22.63,16S164.62,113.85,177.1,113.85Zm0-31.88c12.39,0,22.48,7.12,22.48,15.87s-10.09,15.87-22.48,15.87-22.48-7.12-22.48-15.87S164.71,82,177.1,82Z"/><path class="cls-1" d="M109.44,92.79c-14.27,0-25.88,8-25.88,17.86s11.61,17.86,25.88,17.86,25.87-8,25.87-17.86S123.7,92.79,109.44,92.79Zm2.78,21.63c-2.6,0-4.72-1.82-4.72-4.06s2.12-4,4.72-4,4.71,1.82,4.71,4S114.81,114.42,112.22,114.42Z"/><path d="M135.86,109.41h0c-.92-9.59-12.41-17.19-26.42-17.19-13.55,0-24.74,7.1-26.31,16.24a4.26,4.26,0,0,1,.35.9c1-9.32,12.23-16.71,26-16.71,13.94,0,25.36,7.62,26,17.16A.65.65,0,0,1,135.86,109.41Z"/><path d="M82.94,110.65c0,10.16,11.89,18.43,26.5,18.43,14.35,0,26.06-8,26.47-17.9a5.37,5.37,0,0,1-.46-.89c0,.12,0,.24,0,.36,0,9.92-11.68,18-26,18s-26-8.08-26-18c0-.16,0-.32,0-.48v0a.74.74,0,0,1-.46.24C83,110.5,82.94,110.57,82.94,110.65Z"/><path d="M160.47,127.36a.23.23,0,0,0-.12.12.2.2,0,0,0,0,.17,7.08,7.08,0,0,1,.19,6.1,9,9,0,0,1-4.76,4.65,10.12,10.12,0,0,1-6.93.47,8.1,8.1,0,0,1-5-4,.24.24,0,0,0-.13-.11l-.08,0a.19.19,0,0,0-.1,0,.2.2,0,0,0-.12.12.22.22,0,0,0,0,.16,8.56,8.56,0,0,0,5.3,4.21,10.4,10.4,0,0,0,2.94.42,10.85,10.85,0,0,0,4.33-.91,9.44,9.44,0,0,0,5-4.89,7.45,7.45,0,0,0-.2-6.44A.25.25,0,0,0,160.47,127.36Z"/><path class="cls-2" d="M160.4,127.23a.36.36,0,0,0-.19.21.32.32,0,0,0,0,.27,6.92,6.92,0,0,1,.19,6,8.87,8.87,0,0,1-4.69,4.58,9.89,9.89,0,0,1-6.81.46,8,8,0,0,1-4.93-3.9.35.35,0,0,0-.22-.19.41.41,0,0,0-.29,0,.33.33,0,0,0-.2.2.32.32,0,0,0,0,.27,8.68,8.68,0,0,0,5.39,4.28,10.4,10.4,0,0,0,3,.43,10.94,10.94,0,0,0,4.39-.92,9.65,9.65,0,0,0,5.08-5,7.59,7.59,0,0,0-.21-6.55A.42.42,0,0,0,160.4,127.23Zm.58,6.67a9.44,9.44,0,0,1-5,4.89,10.85,10.85,0,0,1-4.33.91,10.4,10.4,0,0,1-2.94-.42,8.56,8.56,0,0,1-5.3-4.21.22.22,0,0,1,0-.16.2.2,0,0,1,.12-.12.19.19,0,0,1,.1,0l.08,0a.24.24,0,0,1,.13.11,8.1,8.1,0,0,0,5,4,10.12,10.12,0,0,0,6.93-.47,9,9,0,0,0,4.76-4.65,7.08,7.08,0,0,0-.19-6.1.2.2,0,0,1,0-.17.23.23,0,0,1,.12-.12.25.25,0,0,1,.31.1A7.45,7.45,0,0,1,161,133.9Z"/><path d="M140.34,113.92a12.17,12.17,0,0,0,3.14.39,15.83,15.83,0,0,0,4.66-.73c5.6-1.73,9.09-6.09,7.77-9.71a.54.54,0,0,0-.68-.31.49.49,0,0,0-.34.63c1.13,3.1-2.06,6.89-7.1,8.45a13.26,13.26,0,0,1-7.16.32,5.45,5.45,0,0,1-4-3.1.52.52,0,0,0-.51-.34l-.17,0a.49.49,0,0,0-.34.63C136.22,112,137.91,113.29,140.34,113.92Z"/><path d="M42.93,85.56c3.24,0,6.79,1.4,11.41,4.13l.07,0c10.12,4.35,27.36,15.56,27.92,20.13a.52.52,0,0,0,.53.44h.06a.56.56,0,0,0,.37-.19.44.44,0,0,0,.11-.36C82.75,104.39,64.52,93,54.9,88.83c-10.56-6.22-16-5.76-24.33,2.06a.47.47,0,0,0,0,.7.56.56,0,0,0,.38.14h0a.52.52,0,0,0,.38-.15C35.65,87.54,39.08,85.56,42.93,85.56Z"/><path d="M112.22,107c-2.18,0-3.94,1.5-3.94,3.34a3.68,3.68,0,0,0,3.94,3.35c2.17,0,3.94-1.5,3.94-3.35S114.39,107,112.22,107Z"/><path d="M112.22,106.45c-2.52,0-4.56,1.75-4.56,3.91s2,3.92,4.56,3.92,4.55-1.76,4.55-3.92S114.73,106.45,112.22,106.45Zm0,7.4c-2.26,0-4.1-1.57-4.1-3.49s1.84-3.48,4.1-3.48,4.09,1.56,4.09,3.48S114.47,113.85,112.22,113.85Z"/><path class="cls-2" d="M112.22,106.31c-2.6,0-4.72,1.82-4.72,4s2.12,4.06,4.72,4.06,4.71-1.82,4.71-4.06S114.81,106.31,112.22,106.31Zm0,8c-2.52,0-4.56-1.76-4.56-3.92s2-3.91,4.56-3.91,4.55,1.75,4.55,3.91S114.73,114.28,112.22,114.28Z"/><path class="cls-2" d="M112.22,106.88c-2.26,0-4.1,1.56-4.1,3.48s1.84,3.49,4.1,3.49,4.09-1.57,4.09-3.49S114.47,106.88,112.22,106.88Zm0,6.83a3.68,3.68,0,0,1-3.94-3.35c0-1.84,1.76-3.34,3.94-3.34s3.94,1.5,3.94,3.34S114.39,113.71,112.22,113.71Z"/><path d="M180.19,100.05a2.86,2.86,0,1,0-3.32-2.82A3.11,3.11,0,0,0,180.19,100.05Z"/><path d="M180.19,100.61a3.42,3.42,0,1,0-3.94-3.38A3.69,3.69,0,0,0,180.19,100.61Zm0-6.34a3,3,0,1,1-3.48,3A3.26,3.26,0,0,1,180.19,94.27Z"/><path class="cls-2" d="M180.19,100.76a3.57,3.57,0,1,0-4.09-3.53A3.85,3.85,0,0,0,180.19,100.76Zm0-6.92a3.42,3.42,0,1,1-3.94,3.39A3.7,3.7,0,0,1,180.19,93.84Z"/><path class="cls-2" d="M180.19,100.19a3,3,0,1,0-3.48-3A3.26,3.26,0,0,0,180.19,100.19Zm0-5.78a2.86,2.86,0,1,1-3.32,2.82A3.11,3.11,0,0,1,180.19,94.41Z"/><path class="cls-3" d="M141.3,166.28l-1,0-1.73,10.17,8.05,1.24,2.19-12.08-1,.17A43.66,43.66,0,0,1,141.3,166.28Z"/><path class="cls-3" d="M149.76,165.42l3.38,8.9,6.12-2L156,163.73A38.42,38.42,0,0,1,149.76,165.42Z"/><path class="cls-2" d="M158.39,162.51a.61.61,0,0,0,0-.91.73.73,0,0,0-.48-.2.71.71,0,0,0-.5.17c-.63.54-4,2-9.9,2.92a31.19,31.19,0,0,1-10.5.14.72.72,0,0,0-.52.07.64.64,0,0,0-.33.39.65.65,0,0,0,.5.78,18.17,18.17,0,0,0,3.44.38l-1.75,10.29,8.35,1.29L149,165.56l.64-.11,3.42,9,0,.07,6.42-2.07-3.33-8.77A8.65,8.65,0,0,0,158.39,162.51Zm-11.78,15.16-8.05-1.24,1.73-10.17,1,0a43.66,43.66,0,0,0,6.48-.52l1-.17Zm12.65-5.32-6.12,2-3.38-8.9a38.42,38.42,0,0,0,6.22-1.69Z"/><path class="cls-4" d="M185.45,135.79a.71.71,0,0,0-.45.4,1.38,1.38,0,0,0,.07,1.15,1.48,1.48,0,0,0,1.6.93.7.7,0,0,0,.45-.41,1.36,1.36,0,0,0-.07-1.14A1.47,1.47,0,0,0,185.45,135.79Z"/><path class="cls-2" d="M185.4,135.65a.9.9,0,0,0-.54.49,1.48,1.48,0,0,0,.07,1.26,1.78,1.78,0,0,0,1.48,1,1.06,1.06,0,0,0,.31,0,.94.94,0,0,0,.55-.49,1.52,1.52,0,0,0-.08-1.26A1.63,1.63,0,0,0,185.4,135.65Zm1.72,2.21a.7.7,0,0,1-.45.41,1.48,1.48,0,0,1-1.6-.93,1.38,1.38,0,0,1-.07-1.15.71.71,0,0,1,.45-.4,1.47,1.47,0,0,1,1.6.93A1.36,1.36,0,0,1,187.12,137.86Z"/><path class="cls-5" d="M179.35,130.93h-.07a.93.93,0,0,0-.6.21,1,1,0,0,0-.39.71,1,1,0,0,0,.9,1.07.91.91,0,0,0,.67-.2,1.08,1.08,0,0,0,.39-.72A1,1,0,0,0,179.35,130.93Z"/><path class="cls-2" d="M180.4,132a1.12,1.12,0,0,0-1-1.22,1.15,1.15,0,0,0-.8.24,1.15,1.15,0,0,0,.6,2h.09a1.13,1.13,0,0,0,.7-.25A1.16,1.16,0,0,0,180.4,132Zm-1.21.91a1,1,0,0,1-.9-1.07,1,1,0,0,1,.39-.71.93.93,0,0,1,.6-.21h.07a1,1,0,0,1,.9,1.07,1.08,1.08,0,0,1-.39.72A.91.91,0,0,1,179.19,132.92Z"/><path class="cls-4" d="M180.76,138.05a.85.85,0,0,0-.31-.06,1,1,0,0,0-.38.08,1,1,0,0,0-.55,1.31.92.92,0,0,0,.53.53.9.9,0,0,0,.7,0,1,1,0,0,0,.54-1.31A.87.87,0,0,0,180.76,138.05Z"/><path class="cls-2" d="M180.82,137.92a1.06,1.06,0,0,0-.82,0,1.17,1.17,0,0,0-.62,1.48,1.06,1.06,0,0,0,1,.68,1.17,1.17,0,0,0,.45-.09,1.19,1.19,0,0,0,.62-1.49A1.07,1.07,0,0,0,180.82,137.92Zm-.07,2a.9.9,0,0,1-.7,0,.92.92,0,0,1-.53-.53,1,1,0,0,1,.55-1.31,1,1,0,0,1,.38-.08.85.85,0,0,1,.31.06.87.87,0,0,1,.53.53A1,1,0,0,1,180.75,139.89Z"/><path class="cls-4" d="M96.22,140.19a1.15,1.15,0,0,0-.56-.15,1.32,1.32,0,0,0-.39.06,1.8,1.8,0,0,0-1.07,1.06,1.94,1.94,0,0,0,.61,2.43,1.16,1.16,0,0,0,1,.08,1.78,1.78,0,0,0,1.07-1A1.92,1.92,0,0,0,96.22,140.19Z"/><path class="cls-2" d="M96.3,140.07a1.35,1.35,0,0,0-1.08-.1,1.94,1.94,0,0,0-1.16,1.14,2.06,2.06,0,0,0,.67,2.6,1.33,1.33,0,0,0,.65.16,1.59,1.59,0,0,0,.43-.06A1.94,1.94,0,0,0,97,142.67,2,2,0,0,0,96.3,140.07Zm.53,2.55a1.78,1.78,0,0,1-1.07,1,1.16,1.16,0,0,1-1-.08,1.94,1.94,0,0,1-.61-2.43,1.8,1.8,0,0,1,1.07-1.06,1.32,1.32,0,0,1,.39-.06,1.15,1.15,0,0,1,.56.15A1.92,1.92,0,0,1,96.83,142.62Z"/><path class="cls-5" d="M97.57,151.8a1.22,1.22,0,0,0,.06,1.86,1.57,1.57,0,0,0,2.06,0,1.21,1.21,0,0,0,.39-.92,1.27,1.27,0,0,0-.46-.94A1.56,1.56,0,0,0,97.57,151.8Z"/><path class="cls-2" d="M97.46,151.71a1.33,1.33,0,0,0-.44,1,1.43,1.43,0,0,0,.51,1.05,1.69,1.69,0,0,0,1.13.41,1.65,1.65,0,0,0,1.14-.43,1.38,1.38,0,0,0-.07-2.06A1.71,1.71,0,0,0,97.46,151.71Zm2.23,1.94a1.57,1.57,0,0,1-2.06,0,1.22,1.22,0,0,1-.06-1.86,1.56,1.56,0,0,1,2.05,0,1.27,1.27,0,0,1,.46.94A1.21,1.21,0,0,1,99.69,153.65Z"/><path class="cls-4" d="M104,143.5a2,2,0,0,0-.41-.05,1.44,1.44,0,0,0-1.38.91,1.14,1.14,0,0,0,.1.95,1.42,1.42,0,0,0,.86.64,1.48,1.48,0,0,0,1.79-.86,1.14,1.14,0,0,0-.1-1A1.38,1.38,0,0,0,104,143.5Z"/><path class="cls-2" d="M104.05,143.37a1.64,1.64,0,0,0-2,.95,1.28,1.28,0,0,0,.11,1.06,1.55,1.55,0,0,0,1,.7,1.74,1.74,0,0,0,.45.06,1.58,1.58,0,0,0,1.53-1,1.28,1.28,0,0,0-.11-1.06A1.55,1.55,0,0,0,104.05,143.37Zm.92,1.72a1.48,1.48,0,0,1-1.79.86,1.42,1.42,0,0,1-.86-.64,1.14,1.14,0,0,1-.1-.95,1.44,1.44,0,0,1,1.38-.91,2,2,0,0,1,.41.05,1.38,1.38,0,0,1,.86.64A1.14,1.14,0,0,1,105,145.09Z"/><path class="cls-6" d="M219,40.15a76.07,76.07,0,0,0-44.07-6.81h0l0,0c-9.55-6.62-25.79-11.13-39.91-11.13h-1.22c-15.21.29-32.83,6-41,13.36l0,0h0a82.13,82.13,0,0,0-25.06-3.7,81.12,81.12,0,0,0-30.78,7C27.36,43.23,22,48.52,22.09,53.41c.05,2.48,1.48,5,4.26,7.43a40.21,40.21,0,0,0,10.7,6.31,86.86,86.86,0,0,0,29.86,6.36c16.92.45,36.78-5.22,45.22-12.9l0,0,0,0A88.23,88.23,0,0,0,133,63.83a86.84,86.84,0,0,0,21.87-2.38h0l0,0c8.22,5.87,20.91,10.84,32.32,12.67a88.37,88.37,0,0,0,25.94,0c8.58-1.24,15.86-3.6,20.51-6.65,3.16-2.07,5-4.36,5.41-6.8s-.58-5.39-3.05-8.44C232.62,48,226.53,43.71,219,40.15Z"/></g></g></svg>
