<svg xmlns="http://www.w3.org/2000/svg" viewBox="0 0 250 170"><title>point-12</title><g id="UI"><g id="Knapper"><path d="M65.18,145.63A8.36,8.36,0,0,0,60.79,147a5.8,5.8,0,0,1-4.58.78q-1-.19-.78-1.47a18.09,18.09,0,0,0,.2-2.74,7.7,7.7,0,0,0-.49-2.74c-.33-.85-1.14-1.27-2.44-1.27h-.39a4.29,4.29,0,0,0-1.85,3.33c-.19,1.56-.29,2.48-.29,2.74a3.13,3.13,0,0,0-1.76-.49,1.93,1.93,0,0,0-1.07.58l-.88.89a1.16,1.16,0,0,1-1.17.19,3.72,3.72,0,0,1-3.21-2,15.55,15.55,0,0,1-1.95-4.4,32.37,32.37,0,0,1-1-5c-.19-1.7-.29-2.94-.29-3.72a20.43,20.43,0,0,1,1.07-3.14,11.21,11.21,0,0,0,.88-3.33l7.21.4a13,13,0,0,0,2.15,2A5.72,5.72,0,0,0,53.09,129a8.33,8.33,0,0,0,4.29-1.27,7,7,0,0,1,4.29-1.07c1,0,1.66.32,1.85,1s.81,1,1.86,1a4.48,4.48,0,0,0,2.34-.49,6.57,6.57,0,0,0,1.75-2,1.52,1.52,0,0,1-1.56-1c-.13-.26.2-.78,1-1.57a8.82,8.82,0,0,0,1.36-1.56q0-2.35-.29-6.17c-.2-2.55-.39-5.19-.59-7.93s-.29-5.38-.29-7.93a23.85,23.85,0,0,1,.59-6A9.19,9.19,0,0,1,70,92.28c.19-.85.42-1.83.68-2.94s.49-2.19.68-3.23.36-1.83.49-2.35a8.53,8.53,0,0,0-.1-3.92,11.26,11.26,0,0,1-.48-3.33c0-.26.06-1,.19-2.25s.26-2.25.39-3q.59-3.92,1.27-7.93a29.81,29.81,0,0,0,.29-7.93,3.93,3.93,0,0,0-.78-1.17c-.52-.66-.91-1-1.17-1A5.69,5.69,0,0,0,72,51a13.82,13.82,0,0,1,.39-2.25h-1a3.13,3.13,0,0,1-.58.79c-.27.26-.39.46-.39.58a12.06,12.06,0,0,0-2.25,1.28,12.84,12.84,0,0,0-1.65,1.27,5.6,5.6,0,0,0-1.08.29c-.58.2-1.2.39-1.85.59s-1.24.39-1.75.59-.78.36-.78.49A19.3,19.3,0,0,0,56.9,57q-2.25,1.66-4.68,3.14a27.88,27.88,0,0,1-4.88,2.35,7.08,7.08,0,0,1-4.78.09,10.27,10.27,0,0,0,0-7.44A24.76,24.76,0,0,0,41,51.85c-.66-1.18-1.37-2.55-2.15-4.12a7.68,7.68,0,0,1,.1-.88c.06-.45.1-.75.1-.88a10.69,10.69,0,0,1,.68-1.56c.32-.66.94-.72,1.85-.2a5,5,0,0,1,.59,1A4.3,4.3,0,0,0,43,46.36h.2a2.34,2.34,0,0,0,1.75-.48,23.2,23.2,0,0,0,2.44-1.67,17.16,17.16,0,0,0,2.24-2.05,3.08,3.08,0,0,0,1-1.67,2.67,2.67,0,0,0,.29-2.06,3.92,3.92,0,0,1,.1-2.25l2.34.59a15,15,0,0,1,2-4.4,1.58,1.58,0,0,1,1.56-.69c.52.13,1.13.33,1.85.59s1.66-.07,2.83-1a2.87,2.87,0,0,0,1-1.08c.13-.32.23-.59.29-.78a.39.39,0,0,1,.39-.3,7.12,7.12,0,0,1,1.47.4,2.11,2.11,0,0,1,1.56.58c-.27-.12-.75.07-1.47.59a4.37,4.37,0,0,0-1.26,1.18c-.27.13-.39.62-.39,1.46a6.32,6.32,0,0,1-.2,1.86,1.36,1.36,0,0,0,1.76-.49c.39-.58.84-1.23,1.36-2a6.21,6.21,0,0,1,2-1.76,3.92,3.92,0,0,1,3.32.09L73,24.83c.13-.26.45-.42,1-.49a1.32,1.32,0,0,1,1.17.29,30.74,30.74,0,0,1,5.76,4.31,21.62,21.62,0,0,1,4.19,4.7,5.48,5.48,0,0,0,1,1.17L87.21,36A9.38,9.38,0,0,1,89,42.06,66.84,66.84,0,0,1,88.48,50c-.33,2.67-.55,5.15-.68,7.44S88.06,61.24,89,62a23.54,23.54,0,0,1-.2,2.44c-.13,1.11-.29,2.29-.49,3.53s-.42,2.42-.68,3.52S87.15,73.45,87,74l-.39,1.17c-.26.79-.33,1.18-.2,1.18a3.28,3.28,0,0,0,1.37,1,3.22,3.22,0,0,1,1.36,1,12.72,12.72,0,0,1-.1,4.7c-.32,2.09-.74,4.3-1.26,6.65s-1,4.6-1.56,6.76a43.06,43.06,0,0,0-1,5,6.37,6.37,0,0,1,.59,1.86,19,19,0,0,1,.39,1.86q-.19,2.55-.39,3.72a13.23,13.23,0,0,0-.2,2.15,14.94,14.94,0,0,0,.2,2.25,29.36,29.36,0,0,0,1,3.82v.39c0,.14,0,.2-.1.2s-.09.07-.09.2v.39a2.91,2.91,0,0,0-.59.09,2.39,2.39,0,0,1-.58.1l-.2.39v.59L87,119a6.91,6.91,0,0,0-1.17,2.74,4.77,4.77,0,0,0-.2,2.94,2.1,2.1,0,0,0,1.46,1.66,15.13,15.13,0,0,0,3,.78,32.24,32.24,0,0,0,3.7.4c1.3.06,2.4.16,3.32.29a2.06,2.06,0,0,0,1.46-.1,6.73,6.73,0,0,0,1.46-1.66l-.19,2.74a9,9,0,0,1,1.46-.49,6.43,6.43,0,0,1,1.46-.29.17.17,0,0,0,.19.19h.39a.79.79,0,0,1,.78.39,2.17,2.17,0,0,0,1.17.79,2.89,2.89,0,0,0,1.17-.4c.52-.26.78-.58.78-1v-.4a11.46,11.46,0,0,1-1.26-.78,2.9,2.9,0,0,0-1.27-.59c.13,0,.29-.19.49-.58s.35-.59.48-.59v-.2l.39.2h.39a20.82,20.82,0,0,0,5.95,1.76,6.66,6.66,0,0,1,3.31,1,4,4,0,0,1,1.27,3,56.73,56.73,0,0,1-.19,7.74c0,.78-.07,2.12-.2,4a8.23,8.23,0,0,1-1.36,4.41l-.78-1.18.39-7a4.94,4.94,0,0,0-.88.1,4.23,4.23,0,0,1-.88.1.62.62,0,0,1-.58-.39,2.35,2.35,0,0,1,0-1.37,6.06,6.06,0,0,0-1.66,2.25c-.46,1-.94,2-1.46,3l-1.37,2.74q-.58,1.19-1.17,1.38c0-.13-.13-.3-.39-.49s-.39-.36-.39-.49h-.58l-.39-.4a6.49,6.49,0,0,1-1.17.89,2.63,2.63,0,0,0-1,.88v-2.55a9.06,9.06,0,0,0-2.24,1.76,29.84,29.84,0,0,0-1.85,2.35,4.54,4.54,0,0,1-.78-1.17,5.22,5.22,0,0,0-1-1.37c.25.65.19,1.07-.2,1.27a2.53,2.53,0,0,1-1.17.29c-.52,0-.85-.16-1-.49a5.38,5.38,0,0,1-.3-1.07,5,5,0,0,0-.29-1.08c-.13-.32-.46-.49-1-.49h-.59a.57.57,0,0,0-.39.2A4.61,4.61,0,0,1,91,148.37a6.32,6.32,0,0,1-3.21,2v-2.16a2,2,0,0,0-1.47.49,13.26,13.26,0,0,0-1.07,1.27A8.76,8.76,0,0,1,84,151.3a2.73,2.73,0,0,1-1.86.59H82l-1-.78a2.07,2.07,0,0,0-1.56.59A5.7,5.7,0,0,0,78,149.44a5.15,5.15,0,0,0-2.24-.68c-1.69-.39-3.06.45-4.1,2.54a5.63,5.63,0,0,0-.77-1.07,3.4,3.4,0,0,0-1-.88h-1c-.53,0-.78-.07-.78-.2a4.83,4.83,0,0,1-.78-1.37,8.14,8.14,0,0,1-.3-1.08,1.45,1.45,0,0,0-.39-.78C66.45,145.72,66,145.63,65.18,145.63ZM60.31,35.4c-.27-.13-.49.1-.69.69a1,1,0,0,0,.3,1.27c.39.13.61-.13.68-.78S60.57,35.53,60.31,35.4Zm.39,2.15a17,17,0,0,1-.3,2.06c-.19,1.11,0,1.86.69,2.25a3,3,0,0,0,1.65-.68,4.72,4.72,0,0,0,.88-1.28,1.05,1.05,0,0,0-.49-1.47,7.13,7.13,0,0,0-1.65-.68.78.78,0,0,1-.39-.1A1,1,0,0,0,60.7,37.55Zm19.1,102.2a.55.55,0,0,0,.2.39l.39.4.19-.4-.19-.39c0-.52-.2-.78-.59-.78l-.19.2Zm3.71-3.52a1,1,0,0,0-.78,1.08c0,.58.26.81.78.68.39.13.58-.1.58-.68S83.9,136.36,83.51,136.23Zm.78,9.59a1.19,1.19,0,0,0-.78,1.08,4,4,0,0,1-.2,1.27l1,.39Zm.39-5.09h1l.2-.78Zm.78,2.55c-.52,0-.78.32-.78,1s.26,1,.78,1,.58-.12.58-.78S85.85,143.41,85.46,143.28Zm2.73,1.17q-.39-.19-.39.39c0,.39.13.59.39.59C88.84,145.43,88.84,145.11,88.19,144.45Zm1.36-9.4a2.43,2.43,0,0,0-1,2v.78a1.43,1.43,0,0,0,.68-1,7,7,0,0,0,.1-1A1.2,1.2,0,0,0,89.55,135.05Zm3.12,3.33a2.56,2.56,0,0,0-1.17,2,16.2,16.2,0,0,0-.19,1.76l1.17-.19Z"/><path d="M192.3,154.83a3.38,3.38,0,0,0,0-1.67,2.33,2.33,0,0,0-.78-1.66,9.77,9.77,0,0,0-1.75-.49,13.7,13.7,0,0,0-1.56-.29,2.32,2.32,0,0,1-.78-.3,1.62,1.62,0,0,1-.78-.68,19.57,19.57,0,0,1-1.76-1.18,15.22,15.22,0,0,1-1.75-1.37,8.86,8.86,0,0,1-1.27-.29c-.72-.2-1.46-.39-2.24-.59s-1.5-.39-2.15-.59a3.2,3.2,0,0,1-1.17-.49,12.17,12.17,0,0,1-4.38-2.54,31,31,0,0,0-4-3.13h-.39c-.65,0-1.11.49-1.36,1.47a15,15,0,0,1-.59,1.86c-1.17-.27-1.85-.75-2.05-1.47a3.27,3.27,0,0,0-1.46-1.86l-.39.39-.39.39a4.17,4.17,0,0,0,0,3.52,2.81,2.81,0,0,1-1.07-.29,1.62,1.62,0,0,1-.88-.68,2.29,2.29,0,0,1,.1-2c.32-.65,0-1.11-.88-1.37a.37.37,0,0,0-.29.1.44.44,0,0,1-.29.09.81.81,0,0,1-.59.2v5.28a4.76,4.76,0,0,0-2.34,1.57,3.67,3.67,0,0,1-2.34,1.37h-4.87a1.79,1.79,0,0,1-.29.88,3.94,3.94,0,0,1-.49.69H145.7a28.71,28.71,0,0,1-3.12-.2,8.08,8.08,0,0,1-2.53-.59,5.74,5.74,0,0,1-.68-1.17,5.68,5.68,0,0,0-.88-1.37,13,13,0,0,1-1.85-6.46q-.1-3.52-.1-6.66a37.65,37.65,0,0,1,.49-5.58,67.17,67.17,0,0,1,1.36-6.65q.88-3.44,2-6.66a34.47,34.47,0,0,1,2.24-5.39,5.64,5.64,0,0,1,2.93-2.54,5.59,5.59,0,0,0,2.92-2.55c.26-.12.62-.78,1.08-2s.74-1.89.87-2.16c.13,0,.39-.32.78-1a.53.53,0,0,0,.39.2c.26,0,.39-.06.39-.2a3.4,3.4,0,0,0,1-.88,2.22,2.22,0,0,0,.58-.88.64.64,0,0,0,.2-.78,1.74,1.74,0,0,1-.2-.78l.69-.69a3.58,3.58,0,0,1,.87-.68c.13.52.23.88.3,1.07s.42.3,1.07.3c.39,0,.81-.33,1.26-1A16,16,0,0,0,159,92.37a23.32,23.32,0,0,0,1-2.25,5.27,5.27,0,0,0,.39-1.47c.51,0,1.2,0,2-.09a14.62,14.62,0,0,0,2.44-.4,5.35,5.35,0,0,0,2.05-1,2.85,2.85,0,0,0,1.07-1.85H172a2.34,2.34,0,0,1,.3-.79,3.78,3.78,0,0,1,.68-1c.26,0,.81,0,1.66.1a3.67,3.67,0,0,0,1.65-.1q2.73-2.15,4.29-3.33c1-.78,2-1.53,2.93-2.25a6.89,6.89,0,0,1,1.56-1.07,4.32,4.32,0,0,0-.2-1.08c-.13-.46-.06-.75.2-.88,0-.13.32-.39,1-.78s1.11-.66,1.37-.79a2.12,2.12,0,0,0,.39-.78,2.12,2.12,0,0,1,.39-.78,3.48,3.48,0,0,1,.87-1c.46-.39.75-.65.88-.79.26-.52.68-1.43,1.27-2.74s.94-2.08,1.07-2.35a10.28,10.28,0,0,1,.2-1.17c.12-.65.22-1.37.29-2.15a22.1,22.1,0,0,1,.29-2.26,12.71,12.71,0,0,0,.2-1.27,1.87,1.87,0,0,1,.39-.78,2,2,0,0,0,.39-.79,10.21,10.21,0,0,0,.78-1.56,5.91,5.91,0,0,0,.39-1.18.52.52,0,0,1-.39-.19,1.16,1.16,0,0,0-.78-.39,22.19,22.19,0,0,0-3.32-1.08c-1.69-.46-2.79-.75-3.31-.88V49.11a7.47,7.47,0,0,0-1.66.39,7.59,7.59,0,0,1-1.66.39,15.6,15.6,0,0,1-1.26-1.57c-.59-.78-.95-1.24-1.08-1.37-.65-.26-1.85-.68-3.6-1.27s-2.9-1-3.42-1.08h-2.34A33,33,0,0,0,163.35,46,12.49,12.49,0,0,0,156,51.26v1a3.49,3.49,0,0,0,.78,2.54l3.51,1.76a26.13,26.13,0,0,1,5.07,3.82,59,59,0,0,1,4.29,4.6,4.57,4.57,0,0,0,.09.69,3.85,3.85,0,0,1,.1.68,8.21,8.21,0,0,1-1,2.55c-.66,1.31-1.11,2-1.37,2-.65,0-1.11-.42-1.36-1.28a20,20,0,0,1-.59-2.25,9.22,9.22,0,0,1-4.87,1.18c0-.91.39-1.37,1.17-1.37a1,1,0,0,0,1.17-1.18V65a14.07,14.07,0,0,1-3.22,1.37,12.87,12.87,0,0,1-3.41.4h-2q0-1.77-1.17-1.86a3.89,3.89,0,0,1-2.15-.89,6.39,6.39,0,0,1-2.82-3.62,9.13,9.13,0,0,0-2.25-3.82,5.58,5.58,0,0,0-1.85-.88c-1-.32-2-.61-2.92-.88s-1.85-.52-2.63-.78-1.17-.52-1.17-.78V37.75a1.48,1.48,0,0,1-.88-1,3.58,3.58,0,0,1-.29-1.17,3.72,3.72,0,0,0,3.21-1.47c.72-1,1.4-2,2.05-3,.39,0,1,0,1.75-.09s1.66-.17,2.64-.3,1.85-.26,2.63-.39a12.33,12.33,0,0,0,1.75-.39,3.41,3.41,0,0,0,1.08-.69,2.66,2.66,0,0,1,1.26-.68,7.53,7.53,0,0,1,2.93-1c.65,0,1.43-.52,2.34-1.57h7.21a3.42,3.42,0,0,1,.29-1.86c.2-.19-.09-.75-.87-1.66h1a43.38,43.38,0,0,1,6.92,2.84,10.2,10.2,0,0,1,4.78,5.77h.58q1,0,1.17-1.47a1.46,1.46,0,0,1,1.56-1.46,1.48,1.48,0,0,1,.59.19,1.51,1.51,0,0,0,.58.2c.13,0,.65.1,1.56.29a9.7,9.7,0,0,1,1.76.49h3.41a4.78,4.78,0,0,1,1.95.39,1.82,1.82,0,0,1,1.07,1.37,12.2,12.2,0,0,1,.49,2.35A24,24,0,0,1,192.3,36a17.34,17.34,0,0,1,4.58,2.74q2.84,2.16,3.22,4.11a14.06,14.06,0,0,1-.19,1.57,10.62,10.62,0,0,0-.2,1.56,4.34,4.34,0,0,0,1.95-.39,3.85,3.85,0,0,1,1.75-.39.81.81,0,0,1,.39.1.94.94,0,0,0,.39.1l1.47.49a5.58,5.58,0,0,0,1.07.29c.13.13.13.59,0,1.37s-.13,1.24,0,1.37A11.48,11.48,0,0,0,208,50.57a7.2,7.2,0,0,1,1.26,1.86,8.92,8.92,0,0,1,.69,3.43c.06,1.5.09,2.77.09,3.82a28.75,28.75,0,0,1-.39,4.7,29.8,29.8,0,0,0-.39,4.89v4.21a11.79,11.79,0,0,0,.78,4A14.51,14.51,0,0,1,208,79c-1.11.72-1.79,1.15-2.05,1.27s-.72-.19-1.76-1a5.63,5.63,0,0,0-1.95-1.18,6.13,6.13,0,0,0,.2,1c.13.52.26,1.08.39,1.66l.39,1.77a7.17,7.17,0,0,1,.19,1.07,1.88,1.88,0,0,0,.39,1,2,2,0,0,1,.39.79v1.56a5.8,5.8,0,0,1-.48,2.55,1.89,1.89,0,0,1-1.86,1A1.65,1.65,0,0,1,200,89.14c-.19-.84-.62-1.27-1.26-1.27h-.2a5.73,5.73,0,0,1-.78,3c-.52.84-1.07,1.66-1.66,2.44s-1.17,1.6-1.75,2.45a6.36,6.36,0,0,0-1.07,3,4.56,4.56,0,0,0-.39-1.37,4.79,4.79,0,0,0-.59-1.17l-.39-.2a2.77,2.77,0,0,0-1.56.39,4,4,0,0,1-2.14.4v4.5c0,.13-.2.29-.59.49a2.35,2.35,0,0,1-1,.29,4.11,4.11,0,0,1-1.76.1c-.91-.06-1.49-.1-1.75-.1l-1.37,1.18a1.38,1.38,0,0,1-1.17-1.18,3.08,3.08,0,0,0,.59-.78,3,3,0,0,1,.58-.78v-.79c-.52,0-.91-.32-1.17-1l-.39-.19a.6.6,0,0,0-.39.19,2.84,2.84,0,0,1-.78.88,3.09,3.09,0,0,0-.78.89v.78a3.43,3.43,0,0,0,.39,1,3.43,3.43,0,0,1,.39,1,40.1,40.1,0,0,1-3.31,2.35l-2.44,1.76a4.55,4.55,0,0,1-1.27.78l1,.78-1.95,3.72a11.53,11.53,0,0,0-2,2.26c-.91,1.24-1.5,2.05-1.75,2.44.25.53.9.56,2,.1a6.76,6.76,0,0,1,2.14-.68H172a1.34,1.34,0,0,0,.59-.89,2.36,2.36,0,0,1,.39-.88c0-.12.19-.09.58.1a2.32,2.32,0,0,0,.78.3l.39-1.37h.59a1.53,1.53,0,0,1,1,.19c.13.13.17.07.1-.19s-.1-.33-.1-.2a2.71,2.71,0,0,0,2.64,1.57,7.92,7.92,0,0,1,2.82.39,3.08,3.08,0,0,0,.59.78l.78.78a5.16,5.16,0,0,0,3.8,1.47c1.36-.06,2.7-.1,4-.1a3.15,3.15,0,0,0,.19,1v.79a.57.57,0,0,0,.2.39,5.69,5.69,0,0,1-2,.88,5.5,5.5,0,0,0-1.95.88v9.2c0,.66.26,1,.78,1,.26,0,.45-.62.58-1.86s.32-2.58.59-4a18.64,18.64,0,0,1,1.07-3.82c.45-1.11,1.14-1.6,2.05-1.47l2.34,3.33a8.49,8.49,0,0,0,.19,1.57,1.08,1.08,0,0,0,1.17,1,2.69,2.69,0,0,0,1.56-.39,2.4,2.4,0,0,1,1.37-.39,2.14,2.14,0,0,1,1.85.69,8.28,8.28,0,0,1,.87,1.66H206a3.44,3.44,0,0,1-1.37-.59,3.08,3.08,0,0,1-1.17-1l-.19-.39.19-.39a2.14,2.14,0,0,0,.39-.59q.19-.39.39-.39a17.91,17.91,0,0,0,2.73,1c1.3.39,2.08.66,2.34.78a8,8,0,0,0,2.64.1l2.63-.1a2,2,0,0,0,.78.4,7.47,7.47,0,0,1,1,.39,7.25,7.25,0,0,0,.29,1.47,3.92,3.92,0,0,0,.49,1.27c.26.26.65.19,1.17-.2a2.8,2.8,0,0,1,1-.58c0-.27.06-.33.19-.2s.13.2,0,.2a2.4,2.4,0,0,0-.39-1.08,2.69,2.69,0,0,1-.39-.88l-.19-.39v-.4h1l1.46.49a5.37,5.37,0,0,0,1.08.3l.19.39a3.94,3.94,0,0,1-1.27,3.33,10.91,10.91,0,0,0-2.24,2.35v1a3.22,3.22,0,0,1-1.17,2.05,3,3,0,0,1-1.66.49,12.4,12.4,0,0,1-1.65-.1,12.43,12.43,0,0,0-1.37-.1l1.76,2.55c.13.13.1.29-.1.49a.9.9,0,0,1-.68.29c-.91,0-1.5-.26-1.76-.78a4.81,4.81,0,0,1-.48-1.66,13.78,13.78,0,0,0-.3-1.67,1,1,0,0,0-1.17-.78c-.39,0-.52.46-.39,1.37a7.29,7.29,0,0,1-.09,2.64,2.16,2.16,0,0,1-1.56,1.67q-1.27.39-4.59-1.57v-5.29a.55.55,0,0,1-.39-.19l-.39-.39c-.13.26-.29.58-.48,1a2.32,2.32,0,0,0-.3.78,13.54,13.54,0,0,0,.1,3.52c.2,1.83.29,3.07.29,3.72l.39.39c.13-.26.3-.58.49-1a2.27,2.27,0,0,0,.29-1,9.47,9.47,0,0,1,1.76,1.86,3.54,3.54,0,0,1,.78,2c0,.66-.13,1.08-.39,1.27s-.39.69-.39,1.47c0,.52,0,.65.1.39s.16-.68.29-1.27a7.1,7.1,0,0,1,.58-1.66,1.26,1.26,0,0,1,1.17-.79l2.34-1.37a10.2,10.2,0,0,1,1.56-1c1-.52,1.56-.66,1.56-.4l-1.56,10a11.4,11.4,0,0,0-6.53,1.66,10.3,10.3,0,0,1-5.94,1.67c-1.31,0-2.38,0-3.22-.1A11.65,11.65,0,0,1,192.3,154.83Zm-48.94-40.92h.39a14.78,14.78,0,0,1,.2-1.66,2,2,0,0,1,1.17-1.67l-.39-.39-.39-.39-.59-.2-.39.2Zm3.71-6.66c-.52,0-.78.3-.78.88s.26.88.78.88.58-.29.58-.88S147.46,107.25,147.07,107.25Zm2.34,3.33c-.52,0-.78.3-.78.88s.26.88.78.88.78-.29.78-.88S149.93,110.58,149.41,110.58Zm1-4.11h.78l-.78-.78Zm.78-4.31c.91.27,1.76.53,2.54.79a7.94,7.94,0,0,0,2.53.39c0-.91-.26-1.47-.78-1.67a5.73,5.73,0,0,0-1.95-.29h-1.26A1,1,0,0,0,151.16,102.16Zm.78,34.85c-.39,0-.58.3-.58.88s.19.88.58.88.59-.29.59-.88S152.33,137,151.94,137Zm1.56-87.12c-.39,0-.58.23-.58.68s.19.69.58.69.78-.23.78-.69S154,49.89,153.5,49.89Zm4.88,67.94a7,7,0,0,0,.68,3,2.31,2.31,0,0,0,2.24,1.47h.39a.57.57,0,0,0,.39-.2,5.39,5.39,0,0,0,.49-.59c.19-.25.61-.84,1.27-1.76l.19-.58a.64.64,0,0,0-.19-.4c-.91-.26-1.79-.49-2.64-.68A12.22,12.22,0,0,0,158.38,117.83Zm2.34-21.54c0,.13.12.33.39.59l.19.19v1.57c0,.78,0,1.63.1,2.54s.1,1.74.1,2.45v1.47c.39,0,.58-.13.58-.39.26-.13.46-.52.59-1.18a5.76,5.76,0,0,1,.39-1.37l.78-.39.78-.39V99.81A8.62,8.62,0,0,1,165.1,98a11.14,11.14,0,0,0,.49-1.66,1.09,1.09,0,0,0-.68-1.08,5.93,5.93,0,0,0-1.46-.39,3.87,3.87,0,0,1-1.47-.49A1.44,1.44,0,0,1,161.3,93c-.26.13-.49.52-.68,1.18a5.42,5.42,0,0,0-.29,1.37Zm1.36,41.5c.26-.25.13-.39-.39-.39s-.65.14-.39.39c.13.4.29.59.49.59S162.08,138.19,162.08,137.79Zm1.76-48.35a.69.69,0,0,0-.78.78V91l.78-.78v-.78Zm-.2-61.68a1.35,1.35,0,0,0,.88,1.47,5.65,5.65,0,0,0,1.85.3V26.59a5.77,5.77,0,0,0-1.36.29,3.62,3.62,0,0,0-1.17.49Zm.2,109.25c.12.26.39.72.78,1.37a3.15,3.15,0,0,0,1,1.18,3.4,3.4,0,0,0,.49-.88,3.3,3.3,0,0,0,.29-.89V137a2.38,2.38,0,0,0-.29-1c-.2-.39-.36-.58-.49-.58h-.19a.53.53,0,0,1-.39-.2l-.39.2a.69.69,0,0,0-.78.78l-.2.39Zm.78-17.62a3.91,3.91,0,0,0,.87-1.56,9.51,9.51,0,0,0,.1-1.57v-1.18c0-.52-.33-.91-1-1.17l-.78,1.17Zm1-14.68c-.52,0-.78.29-.78.88s.26.88.78.88.59-.29.59-.88S166,104.71,165.59,104.71Zm0,7.63a1.68,1.68,0,0,0,1-1.76h-1ZM175.73,119a1.52,1.52,0,0,0-1.56,1,4.81,4.81,0,0,0-.39,1.76c.91,0,1.46-.29,1.66-.88A6,6,0,0,0,175.73,119Zm1.17,23.89a1.65,1.65,0,0,0,1.75,1.86c1.17.06,2.28.09,3.32.09,0-1-.62-1.63-1.85-1.76A31.26,31.26,0,0,0,176.9,142.89ZM179,117.43c-.26,1.18-.45,2.13-.58,2.84s-.26,1.47-.39,2.25a12.74,12.74,0,0,1-.39,1.77v1.56c.13,0,.39.3.78.88a6.87,6.87,0,0,0,1.27,1.47c.45.39.81.39,1.07,0s.39-1.69.39-3.91c0-.13.13-.33.39-.59l.39-.39c0-.13,0-.49-.1-1.08s-.16-1.21-.29-1.86-.23-1.27-.29-1.86-.1-.94-.1-1.08Zm2.34-29.56a1.79,1.79,0,0,0,1,1.57V87.87Zm1.76,47.58,1-1-1-.79Zm6.63-1.57q0,1,.48,1.08c.33.06.75.16,1.27.29a3.09,3.09,0,0,1,1.46.88,5.4,5.4,0,0,1,1.08,2.64,4.27,4.27,0,0,1,.39-1.37,2.11,2.11,0,0,1,.78-1.17c0-.13.12-.1.39.1a1.17,1.17,0,0,0,.58.29v1.66q0,.69,1.56.69c0-.91-.07-2.22-.19-3.92s-.72-2.74-1.76-3.13a3.29,3.29,0,0,0-.78.2,3.21,3.21,0,0,1-1,.19v-3.13l-4.1,4.5Zm3.51-45.23.78,2.35.58.39.59-.39a1.45,1.45,0,0,1,.19-.58,3.43,3.43,0,0,0,.39-1l.59-3.14c0-.52-.43-.42-1.27.3a3.62,3.62,0,0,1-2,1.07Zm3.51,40.53c-.27,0-.39.2-.39.59s.12.59.39.59C197.3,129.57,197.3,129.18,196.79,129.18Zm1,1.18a.78.78,0,1,0,0,1.56c.39,0,.59-.26.59-.78S198.15,130.36,197.76,130.36Zm.78.78c-.39,0-.58.29-.58.88s.19.88.58.88.39-.29.39-.88S198.8,131.14,198.54,131.14Zm.59,2.54,1-.78h-1Zm2.33-61.47c-.26,0-.55.29-.87.88a8.93,8.93,0,0,0-.78,1.86,9.67,9.67,0,0,0-.39,1.86c-.07.59,0,.88.29.88s.55-.29.88-.88a10.15,10.15,0,0,0,.78-1.86,11.46,11.46,0,0,0,.39-1.86C201.82,72.5,201.72,72.21,201.46,72.21Zm3.71,64.8.78-.78h-.78Z"/></g></g></svg>
