<svg xmlns="http://www.w3.org/2000/svg" viewBox="0 0 130 170"><title>point-8</title><g id="UI"><g id="Knapper"><path d="M51.36,151a7,7,0,0,0-1.46.58,5.31,5.31,0,0,1-1.66.59,5.88,5.88,0,0,1-1.36-1.66,6,6,0,0,0-1.37-1.67,15.14,15.14,0,0,0-2.14-1.07,7.41,7.41,0,0,0-1.95-.69,2.69,2.69,0,0,0-.88.39,2.42,2.42,0,0,1-1.07.4,13,13,0,0,1-4.39-.89,8.29,8.29,0,0,1-2.34-1.56,16,16,0,0,1-1.65-2,9.88,9.88,0,0,0-2.54-2.25,1,1,0,0,0-1.17,1.17c0,.79,0,1.6.1,2.45a9.46,9.46,0,0,1-.1,2.35q-.19,1.08-1.56,1.08a4.42,4.42,0,0,0-.09-.69c-.07-.33-.17-.49-.3-.49l-1-1a6,6,0,0,1-.78-1v-.58a6.4,6.4,0,0,1,.78-3A7.09,7.09,0,0,1,26.6,139H26c-1.95,0-3.16.43-3.61,1.28a6.06,6.06,0,0,0-.68,2.93c0,1.11,0,2.13.1,3s-.3,1.43-1.08,1.57a3.4,3.4,0,0,1-1.95-2.16,18.45,18.45,0,0,1-.19-2.94v-1.56a2.2,2.2,0,0,1,.19-1,3.08,3.08,0,0,1,.39-1.18,2.94,2.94,0,0,0,.39-1.17c-.13-.13-.65-.55-1.56-1.27a7,7,0,0,1-1.56-1.47,4.4,4.4,0,0,1,1-1.67A6.15,6.15,0,0,1,18.8,132,10.5,10.5,0,0,0,20,127.66a25.33,25.33,0,0,1,.78-4.7c1.43.66,2.34.36,2.73-.88a11.5,11.5,0,0,0,.59-3.43H26.6L28.55,111h3.71a4.11,4.11,0,0,0-.59-1.47c-.39-.72-.46-1.14-.19-1.27a8.07,8.07,0,0,1,1.85-2.45c1-1,1.72-1.47,2.24-1.47v.78A5.4,5.4,0,0,0,35,106c-.27.45-.46.81-.59,1.07v1.18a10.08,10.08,0,0,0,2.83-2.74,26.91,26.91,0,0,0,2.63-4.41,41,41,0,0,0,2-4.8,12.89,12.89,0,0,0,.78-3.91h2.53a14.06,14.06,0,0,1,.2-1.86c.13-.85.22-1.73.29-2.64a12.67,12.67,0,0,0-.1-2.75,2.81,2.81,0,0,0-1-2A8.31,8.31,0,0,1,43,84.29a4.27,4.27,0,0,1-1.56.69l-.39.19q-1,0-3.8-2.34c-1.89-1.57-3.84-3.36-5.85-5.39l-5.75-5.77-3.51-3.53-2.93-2H18.8l-1.17.59-1.17.59a29,29,0,0,1-6.14-6.56A31.71,31.71,0,0,1,7,54.44a15.69,15.69,0,0,1-1.07-5.39,5.59,5.59,0,0,1,1-3.62c-.26.13-.65.29-1.17.49a3.58,3.58,0,0,1-1.17.29.57.57,0,0,1-.39.2H3.6V42.49a20.7,20.7,0,0,0,3.7-.19,1.44,1.44,0,0,0,1-.59,3.21,3.21,0,0,0,.19-1.27,3.24,3.24,0,0,1,1.17-2.06,9.61,9.61,0,0,1,2.24-1.56c1-.52,1.53-.66,1.66-.4l1.17.79,7.21-6.85-.39,11H22.7a16.3,16.3,0,0,0,1.17-2.64q.78-2.05,1.86-4.41t2-4.11C28.42,29,29,28.4,29.53,28.4a1.72,1.72,0,0,0,.19.78,2,2,0,0,1,.2.88,1.93,1.93,0,0,0,.19.88l.39,2.35A9.68,9.68,0,0,1,31,34.86a8.56,8.56,0,0,0,.49,1.56l.39.2a2,2,0,0,0,1.46-.78A7.76,7.76,0,0,0,34.5,34a17.77,17.77,0,0,0,.78-2.06,5.94,5.94,0,0,0,.29-1.56c0-.13-.62-.49-1.85-1.08a5.68,5.68,0,0,1-2-1.27l1.76-.79h1a4.25,4.25,0,0,1,1-1.07c.51-.46.84-.75,1-.89a12.41,12.41,0,0,1,1.56,2.84c.52,1.25,1,2.48,1.46,3.72s.91,2.35,1.37,3.33.87,1.47,1.26,1.47l.39-.2.59-.58a2.23,2.23,0,0,1,.58-.39A9.46,9.46,0,0,0,43,33.39a9.6,9.6,0,0,1-.59-2.06,2.94,2.94,0,0,0-.09-.58,2.46,2.46,0,0,1-.1-.59,2.32,2.32,0,0,1,1.85.59,1.79,1.79,0,0,0,1.46.58h.78c.13-.12.07-.61-.19-1.46s-.52-1.83-.78-2.94-.52-2.09-.78-2.94a9.62,9.62,0,0,1-.39-1.47c.13-.12.49.1,1.07.69s1.24,1.27,2,2.05S48.83,27.09,50,28.4a8.61,8.61,0,0,1,.29-1.57,2.66,2.66,0,0,0,.1-1.57c-.13-.12-.78-.61-2-1.46a22.52,22.52,0,0,1-2.15-1.67,4.87,4.87,0,0,1,2.05-1.27,8.33,8.33,0,0,1,2-.69v1.57a2.51,2.51,0,0,1,1.27.29,3.28,3.28,0,0,0,.87.4.81.81,0,0,0,.78-.3,11.62,11.62,0,0,0,1.17-1.56,13.18,13.18,0,0,0,1.66,3c.84,1.24,1.72,1.86,2.63,1.86a11.27,11.27,0,0,0,1.76-.68L64,23.21c1.29-.59,2.5-1.14,3.6-1.67a6.92,6.92,0,0,1,2.25-.78,11.5,11.5,0,0,0,.78,4.8c.51,1.11,1.88,1.66,4.09,1.66h.39c.13,0,.32-.13.58-.39l.39-.39a3.06,3.06,0,0,0-.48-1,3,3,0,0,1-.49-1,4.58,4.58,0,0,1,2.53-3.42,9.83,9.83,0,0,1,4.1-.89A11.7,11.7,0,0,0,82,22.82a1.58,1.58,0,0,0,.69,1,4.78,4.78,0,0,0,1.36.49,8.84,8.84,0,0,1,2.24,1,4.5,4.5,0,0,1,1.07,2.45c.2,1.11,1,1.67,2.44,1.67,1,0,1.92,0,2.63-.1A7.94,7.94,0,0,0,95,28.4V29a10.52,10.52,0,0,1-1.66,5.19,17,17,0,0,1-3.22,4.21H89a11.87,11.87,0,0,1-1.46-1,12.87,12.87,0,0,1-1.27-1h-.58a.82.82,0,0,1-.49-.09.38.38,0,0,0-.29-.1,3.31,3.31,0,0,0-1.27.29A1.23,1.23,0,0,0,83,37.79l.19.59a3.41,3.41,0,0,0,.69,1.08c.45.59.81.88,1.07.88a.57.57,0,0,1-.39.2h-.39a3.16,3.16,0,0,1-2-.59,5.87,5.87,0,0,1-1.27-1.27c-.33-.46-.68-.92-1.07-1.37a2.72,2.72,0,0,0-1.56-.89c-.26,0-.68,0-1.27.1l-1.85.2A16.67,16.67,0,0,0,73.3,37a8.17,8.17,0,0,1-1.08.2H71.05a5.7,5.7,0,0,1-2.43-.49,5.29,5.29,0,0,0-2.24-.49,14.41,14.41,0,0,0-5,1,18.83,18.83,0,0,1-5,1.17,4.52,4.52,0,0,1-.48-.59c-.2-.25-.36-.45-.49-.58h-1a1.82,1.82,0,0,0-.68,1.07,3.22,3.22,0,0,1-.49,1.08c-.39.66-.78,1-1.17,1L51.36,40c-.13,0-.32-.13-.58-.39a.57.57,0,0,0-.39-.2,8.58,8.58,0,0,0-3.51.78c-1.17.53-2.34,1.11-3.51,1.77s-2.28,1.24-3.31,1.76a7,7,0,0,1-3.12.78h-.59c0-.13-.29-.49-.88-1.07L34.4,42.3H34a4.64,4.64,0,0,0-2,1.08,26.87,26.87,0,0,0-5.45,5.48,4.49,4.49,0,0,0-1.08,2.25c0,.78,0,1.86.1,3.23a1.86,1.86,0,0,0,2,2h1V55.22a13.23,13.23,0,0,1,.2-2.15,15.21,15.21,0,0,1,.58-2.35,2.51,2.51,0,0,1,1.17-1.57h1a28.48,28.48,0,0,0-.78,3A16.56,16.56,0,0,0,30.5,55a14.31,14.31,0,0,0,.2,2.06,1.28,1.28,0,0,0,1.36,1.27l.39-.19a.61.61,0,0,1,.2-.4,2.87,2.87,0,0,1,.78-.58,7,7,0,0,1,1-.79h.2c.12,0,.19,0,.19-.09s.07-.1.2-.1a1.57,1.57,0,0,0,.58-.2,6,6,0,0,1-.49,2.35,4.75,4.75,0,0,1-1.46,2q3.51-1.17,5.07,1.08A8,8,0,0,1,40.25,66a.79.79,0,0,0,.59.19h.58c.13-.13.45-.52,1-1.17s.91-1,1.17-1a3.94,3.94,0,0,1,3.51,1.76,44.24,44.24,0,0,1,2.25,3.82A19,19,0,0,0,52,73.43a6.19,6.19,0,0,0,4.87,1.76,3,3,0,0,0,2.24-.69,6.2,6.2,0,0,0,1.27-2.25,4.38,4.38,0,0,0,2.93,1.18c.78,0,1.26-.23,1.46-.69a10.27,10.27,0,0,0,.49-1.56c.12-.59.25-1.14.39-1.67a1.85,1.85,0,0,1,.78-1.17A2.83,2.83,0,0,1,68.23,68a3.92,3.92,0,0,1,2,.39,11.69,11.69,0,0,1,2.24-7.15,15.94,15.94,0,0,1,5.75-4.8,3.59,3.59,0,0,1,1,.4l1.17.58h.78a7.86,7.86,0,0,0,1-.58,1.91,1.91,0,0,1,1-.4A7.85,7.85,0,0,0,83,58.74a10.27,10.27,0,0,0,.19,2.55.83.83,0,0,0,.39.68,1.18,1.18,0,0,0,.59.3,3.18,3.18,0,0,0,1.95-2.65,18.38,18.38,0,0,0,.39-3.23,4.59,4.59,0,0,0,2.63-1.07,3,3,0,0,0,1.07-3.23A2.4,2.4,0,0,0,93,54.34,9.17,9.17,0,0,0,94.74,54a5.71,5.71,0,0,1,1.86-.3,20.89,20.89,0,0,1-1.66-4.89c-.07-.78.19-1.11.78-1a12.94,12.94,0,0,1,2.63,1.08,10.93,10.93,0,0,0,3.9,1.07c0-.26,0-.88-.1-1.86s-.1-1.59-.1-1.86a23.4,23.4,0,0,1,.39-2.83c.26-1.5.46-2.52.59-3a3.14,3.14,0,0,1,2,2.94,1.76,1.76,0,0,1-.59,1.56,1.54,1.54,0,0,0-.58,1.37c0,1,.32,1.67,1,1.86a8,8,0,0,0,2.34.3c.52,0,.85-.42,1-1.28a18.72,18.72,0,0,0,.19-2.83V41.42c0-.85.26-1.28.78-1.28s1.11.4,1.76,1.18,1.33,1.6,2,2.45l2,2.44c.65.79,1.17,1.18,1.56,1.18.78-.13.91-.82.39-2.06a10.53,10.53,0,0,1-.78-4.11,6.09,6.09,0,0,1,2-4.31c1.36-1.37,4.26-2.18,8.68-2.44l1.17,1c-.66.13-1,.42-1.08.88a11.22,11.22,0,0,0-.09,1.46,12.1,12.1,0,0,0,.39,2.84,1.87,1.87,0,0,0,2,1.67h.58a3.84,3.84,0,0,0,.88-1.86,18.72,18.72,0,0,0,.39-2.55q.09-1.26.09-2.25V34.27c1.69,0,2.6.46,2.73,1.37A24.18,24.18,0,0,1,134,39v1.47c0,.59-.07.88-.2.88l-8,7.83a.18.18,0,0,1-.19.2.59.59,0,0,1-.39.19c-.14,0-.2-.06-.2-.19l-.19-.2a3.74,3.74,0,0,1-1.56-.88,3.8,3.8,0,0,0-1.56-.88c-1-.26-1.66-.1-1.86.49a6,6,0,0,0-.29,1.86,7.45,7.45,0,0,0,.29,2.25,16.55,16.55,0,0,0,.88,2,3.9,3.9,0,0,0-3.31.79,12.51,12.51,0,0,0-2.73,2.84,31.77,31.77,0,0,0-2.15,3.52A18.39,18.39,0,0,1,110.83,64,11,11,0,0,1,107.71,68,31.62,31.62,0,0,0,104,71.47h-.39a5,5,0,0,1-2.63-.78,5.28,5.28,0,0,0-2.82-.79,3.93,3.93,0,0,0-3.51,1.77,13,13,0,0,0-1.76,4.11c-.39,1.56-.75,3.16-1.07,4.79a7,7,0,0,1-1.66,3.63c-.26.26-.68.65-1.27,1.17s-1.2,1.11-1.85,1.76L85.19,89l-1.07,1.08c-.26-.91-1-1.24-2.15-1a13.31,13.31,0,0,1-2.53.39,9,9,0,0,1-.2,2.25,3.41,3.41,0,0,1-.48,1.08,4.78,4.78,0,0,0-.49.78,2.79,2.79,0,0,0-.2,1.18c0,.78.69,1.3,2.05,1.56a25.51,25.51,0,0,1,4.49,1.37A12.06,12.06,0,0,1,89.09,101c1.36,1.57,2,4,2,7.25V111a2.14,2.14,0,0,1-.49,1.07,2.39,2.39,0,0,0-.49.89q0,1.36.78,1.17a5.8,5.8,0,0,1,1.37-.2v-2c.78-.13,1.72-.33,2.82-.59a11.05,11.05,0,0,0,3-1.18v2.16c0,2.22-.07,4.08-.2,5.58a55.09,55.09,0,0,1-1,6,2.06,2.06,0,0,1-1.37,1.27,5.63,5.63,0,0,1-1.56.3v-4.7a8.61,8.61,0,0,0-3.9.58,8.54,8.54,0,0,0-1.56,1.18,7.88,7.88,0,0,1-1.36,1.08,5.79,5.79,0,0,1-3.12.29v.59a7.69,7.69,0,0,0,.68,3.13,2.44,2.44,0,0,0,2.44,1.57,2,2,0,0,0,2-1.08,14.24,14.24,0,0,0,.88-3,5,5,0,0,0,5.07,5.09L95,130c-.27.26-.78.75-1.56,1.47s-1.17,1.21-1.17,1.47a23.32,23.32,0,0,1,.19,2.44,4.84,4.84,0,0,1-.29,1.67,1.08,1.08,0,0,1-1.07.78c-.13-.13-.46-.42-1-.88s-.91-.81-1.17-1.08H88.6a2.6,2.6,0,0,0-2,1.08,18.67,18.67,0,0,0-1.65,2.45c-.52.91-1.07,1.79-1.66,2.64a5.46,5.46,0,0,1-2,1.86l-.39.2-.39-.2a18.42,18.42,0,0,1-1.07-2,8,8,0,0,0-1.07-1.76c-.26-.26-.72-.23-1.37.1a3.91,3.91,0,0,1-1.36.49c0,.52,0,1.24.1,2.15a19.37,19.37,0,0,1,0,2.64,4.6,4.6,0,0,1-.78,2.26,2.56,2.56,0,0,1-2.25,1c-.26,0-.65-.55-1.17-1.66a3.51,3.51,0,0,0-2.33-2.06h-.78a5.51,5.51,0,0,0-2,.79L64,147a11,11,0,0,1-.69-2.54c-.06-.66-.09-1.44-.09-2.35a23.66,23.66,0,0,1,.48-5.88,2.49,2.49,0,0,1,1.56-1.86,6.54,6.54,0,0,1,2.73,0,9,9,0,0,0,4.19-.49,4.18,4.18,0,0,0,1.17-.58c.65-.39,1.34-.82,2-1.28s1.37-.88,2-1.27.88-.65.88-.78v-8a3.26,3.26,0,0,1,1-.49,11.61,11.61,0,0,0,1.17-.49v-.39c0-1.3-.58-1.79-1.75-1.47a3.78,3.78,0,0,1-2.54.1c-.13-.26-.45-.94-1-2.06s-.85-1.79-1-2.05a4.38,4.38,0,0,0-1-.59,3.43,3.43,0,0,0-1-.39c-.13,0-.32-.13-.58-.39a1.12,1.12,0,0,1-.39-.78,7.65,7.65,0,0,0,1.07-1.86,5.91,5.91,0,0,0,.68-2.06,2.35,2.35,0,0,0,0-1.37,9,9,0,0,1-.19-1.18c-.13,0-.23-.09-.29-.29s-.17-.22-.3-.1a16.32,16.32,0,0,0-2,2,20.4,20.4,0,0,0-1.85,2.15q0-1.17.09-3a11.8,11.8,0,0,0-.39-3.72,8.64,8.64,0,0,0-1.46-3.13,3.45,3.45,0,0,0-2.92-1.27c-.39,0-1.11.78-2.15,2.34s-2.18,3.37-3.41,5.39-2.47,4-3.7,5.77a13.79,13.79,0,0,1-3,3.53q-1,.58-3.21,2.25t-4.68,3.72a36.51,36.51,0,0,0-4.29,4.21c-1.24,1.44-1.85,2.61-1.85,3.52s1,1.57,2.92,2.35a38.58,38.58,0,0,0,6.73,2c2.53.52,5,.95,7.41,1.27a43,43,0,0,0,5.16.49c0,.39,0,1,.1,1.67s.13,1.5.19,2.35.17,1.66.3,2.44a14.06,14.06,0,0,1,.19,1.57c0,.13,0,.49.1,1.08s.1.94.1,1.07h-1l-1.66-.58a5.46,5.46,0,0,0-1.46-.4.59.59,0,0,0-.19.4v.58a2.5,2.5,0,0,0,.58,1.67,2.46,2.46,0,0,1,.59,1.66v.39c-.65,1.18-1.08,2-1.27,2.45s-.75.69-1.66.69H53.31a3.32,3.32,0,0,1-1-1.08C52,151.25,51.62,151,51.36,151Zm-40-95.54a6.79,6.79,0,0,0,1.36,3.91V55.42Zm1.36-17c-.26-.13-.39,0-.39.49s.13.62.39.49a.62.62,0,0,0,.39-.59A.34.34,0,0,0,12.76,38.38Zm2,20.95c-.13,0-.33.13-.59.39l-.58.59v1Zm6,75.77c-.39-.13-.58,0-.58.39s.19.52.58.39.39-.1.39-.29S21,135.23,20.75,135.1Zm20.67-56a1,1,0,0,0,0,2c.52,0,.78-.32.78-1S41.94,79.11,41.42,79.11Zm0,22.9a3.91,3.91,0,0,0,.29,1.18,3.34,3.34,0,0,0,.68,1.17h.39c.91,0,1.43-.55,1.56-1.66a24.19,24.19,0,0,0,.2-2.65v-1c-.26.26-.78.75-1.56,1.46S41.68,101.75,41.42,102Zm1-21.73c-.52,0-.78.33-.78,1s.26,1,.78,1a1,1,0,1,0,0-2ZM60.33,34.47q-.39-.19-.39.39c0,.39.13.59.39.59C61,35.05,61,34.73,60.33,34.47Zm2-5.09c-.52,0-.78.32-.78,1s.26,1,.78,1,.78-.32.78-1S62.8,29.38,62.28,29.38ZM64,34.47H65.4v-2H64Zm4.29-8c0-.26-.2-.39-.59-.39s-.58.13-.58.39a.61.61,0,0,0,.58.39A.64.64,0,0,0,68.33,26.44Zm6.82,64.61c.13.13.32.36.58.68a1.53,1.53,0,0,1,.39.69V89.09l-1,1v1Zm1-8.81c0,.13.13.29.39.49a5.22,5.22,0,0,1,.59.49h1.17c.13-.13.29-.3.49-.49a.84.84,0,0,0,.29-.49V81.06a.69.69,0,0,0-.78-.78h-.2a.53.53,0,0,1-.39-.2c-.13,0-.19,0-.19.1s-.07.1-.2.1H77.1a4.54,4.54,0,0,0-.59,1A3.43,3.43,0,0,0,76.12,82.24ZM79.05,101A6.62,6.62,0,0,1,77.39,104a4.46,4.46,0,0,0-1.27,3.13v1.18a5.72,5.72,0,0,0,2.64-2.35,7.25,7.25,0,0,0,.48-2.74,8.89,8.89,0,0,0-.09-1.08A7.39,7.39,0,0,1,79.05,101Zm1.36-24.86a.49.49,0,0,0,0,.78,1.12,1.12,0,0,0,.78.39,5,5,0,0,1,.88.1,4.16,4.16,0,0,0,.88.1,6.83,6.83,0,0,1,.68-3.13,6.55,6.55,0,0,0,.68-2.94H82.17Zm0,39.16c1.3,0,2-.79,2-2.35h-2ZM83,103.58a1.13,1.13,0,0,0,.19.78,15.48,15.48,0,0,1,1.56,2.74l1.56,3.13a5.53,5.53,0,0,0,1.17-3.72v-3.32H83Zm0,14.29a4.82,4.82,0,0,0,.78,2.74A3.28,3.28,0,0,0,86.26,122a1.51,1.51,0,0,1,.1-.49,1.77,1.77,0,0,0,.1-.49,2.8,2.8,0,0,0-1.17-2.15A3.67,3.67,0,0,0,83,117.87Zm.19,19.19,1-1.18h-1Zm.78-105.73a1.89,1.89,0,0,0,1.76,2.06,17.72,17.72,0,0,0,2.92.29A1.54,1.54,0,0,0,88,32.31a3.21,3.21,0,0,0-1.37-.49,6.37,6.37,0,0,1-1.56-.39,1.46,1.46,0,0,1-1-1.07,1.71,1.71,0,0,1-.1.48A1.57,1.57,0,0,0,83.92,31.33Zm2.34,42.88a2.31,2.31,0,0,1,.39.59q.19.39.39.39a1.62,1.62,0,0,0,.68-.88,2.91,2.91,0,0,0,.3-1.08,1.22,1.22,0,0,0-.3-.59.83.83,0,0,0-.68-.39,2.31,2.31,0,0,0-.39.59q-.2.39-.39.39l-.19.39Zm0,6.85H87l-.78-.78Zm7.8-17.81c-.13.26-.46.91-1,2a6.24,6.24,0,0,0-.78,2.16c-.27,0-.39.33-.39,1H95A13.12,13.12,0,0,0,94.06,63.25Zm13.06-3.92c-.39-.26-.58-.13-.58.39s.19.72.58.59a.62.62,0,0,0,.39-.59A.34.34,0,0,0,107.12,59.33Zm.78,2a2.82,2.82,0,0,0-1,2.35,2,2,0,0,0,1.95-1.37Z"/></g></g></svg>
