<svg xmlns="http://www.w3.org/2000/svg" viewBox="0 0 130 170"><title>point-6</title><g id="UI"><g id="Knapper"><path d="M90.78,146a10.15,10.15,0,0,1-1.47,1.08,9.33,9.33,0,0,0-1.46,1.07,1.23,1.23,0,0,1-.58-.59,2.87,2.87,0,0,0-.39-.58,12.18,12.18,0,0,1-1-1.37,17.08,17.08,0,0,1-1-1.57c-.13,0-.33-.13-.59-.39l-.39-.39a4.24,4.24,0,0,0-1,.29,3.36,3.36,0,0,0-1,.49,2.38,2.38,0,0,0-.29-1,1.67,1.67,0,0,0-.68-.78l-.39-.2a9.56,9.56,0,0,0-3.9,1,9.93,9.93,0,0,1-4.1,1H71.47c-1.3-.13-2.53-.19-3.7-.19a12.51,12.51,0,0,1-3.22-.4A4.41,4.41,0,0,1,62.21,142a6.63,6.63,0,0,1-1.07-3.62H61a.52.52,0,0,1-.39-.19c-.14,0-.2,0-.2.1s-.07.09-.19.09H60a1.23,1.23,0,0,1-.29.59,6.58,6.58,0,0,1-.49.59H58c.39-1.57.26-2.61-.39-3.13A12.65,12.65,0,0,0,55.49,135a4.78,4.78,0,0,1-1.76-1.37c-.39-.52-.19-1.49.59-2.93-1,.65-1.56,1.34-1.56,2s-.78,1.08-2.34,1.08a7.5,7.5,0,0,1-1.08-.1c-.45-.06-.74-.1-.87-.1s-.1-.75.09-1.86.17-1.79-.09-2.05A6.84,6.84,0,0,0,46,128.26a5.58,5.58,0,0,1-1.75-.78,3.19,3.19,0,0,1-1.08-1.57,12.68,12.68,0,0,1-.39-3.82,1.88,1.88,0,0,1-.39,1,9.34,9.34,0,0,0-.58,1h-.39A3.1,3.1,0,0,1,38,121.6a7.91,7.91,0,0,1-.3-2.15v-1.86a17.42,17.42,0,0,0-2.24.39,4.87,4.87,0,0,1-2.24.2c-.26,0-.58-.3-1-.88s-.72-.88-1-.88A4,4,0,0,0,29,116a5.22,5.22,0,0,0-2.53.4l-1.76-8.62-1.17-1.17q0,.2,1.17,0c.78-.13,1.66-.33,2.63-.59s1.82-.52,2.54-.78,1-.4.88-.4a4,4,0,0,1-2.44-.39A10.49,10.49,0,0,1,26,103a11.2,11.2,0,0,1-1.85-1.86,2.86,2.86,0,0,1-.78-1.56,4.72,4.72,0,0,1,.29-1.47c.19-.59.42-1.21.68-1.86a10.7,10.7,0,0,1,.88-1.76,2.13,2.13,0,0,1,1.07-1V86.66c0-.13.36-.43,1.07-.88a19.73,19.73,0,0,1,1.86-1.08c-1.05.52-2,1-2.93,1.37a27.28,27.28,0,0,1-2.92,1.37h.19c.13,0,.32.16.59.49s.45.49.58.49.07.19.2.19h.39l.19-.19c.13,0,.62-.07,1.46-.2s1.82-.26,2.93-.39L33,87.44a3.46,3.46,0,0,0,1.85-.59,16.91,16.91,0,0,0-1.76-1.56,11.26,11.26,0,0,1-1.75-1.77l-1-.78a4.11,4.11,0,0,1-1.17,1.08,12,12,0,0,1-1.76.88V81.76a19.68,19.68,0,0,1,.49-4.21,17.76,17.76,0,0,1,1.46-4.21A10.76,10.76,0,0,1,31.9,70a5.41,5.41,0,0,1,3.7-1.37,7.47,7.47,0,0,1-.39-1,3.8,3.8,0,0,1-.2-1.18q.39-.78,1.47-3a29.22,29.22,0,0,1,1.46-2.84,1.75,1.75,0,0,1,1.17,1.17,13.81,13.81,0,0,1,.29,1.67,3.32,3.32,0,0,0,.49,1.46c.26.4.84.59,1.75.59a2.54,2.54,0,0,0,2.15-.78,8.45,8.45,0,0,0,1-1.67,13.1,13.1,0,0,1,.88-1.66,2,2,0,0,1,1.85-.78,2.31,2.31,0,0,1-1.56-1.57,7,7,0,0,1-.09-2c.06-.72.09-1.38.09-2s-.39-1-1.17-1.28L43.2,55.33a8.74,8.74,0,0,0-1.36,1.57v.78a3.26,3.26,0,0,0,1,.49,1.7,1.7,0,0,1,1,.69v.78a5.44,5.44,0,0,1-.39,1.47,15.67,15.67,0,0,1-.59,1.47,4.49,4.49,0,0,1-2.24-2.45,4.44,4.44,0,0,0-2.63-2.45c-.26-1.3-.49-2.51-.68-3.62a21.69,21.69,0,0,1-.3-3.82V49.07a13.43,13.43,0,0,1,1.86-2,20.15,20.15,0,0,1,2-1.76l1,.78c-.13.65-.46,2-1,3.91s-.84,3.21-1,3.72a1.42,1.42,0,0,0,.1.49,1.83,1.83,0,0,1,.09.49A2.25,2.25,0,0,0,41.64,54,21.38,21.38,0,0,0,43.2,52.2,6.87,6.87,0,0,0,44.37,50a6.42,6.42,0,0,0,.39-1.95c-.13-.39-.42-1.18-.87-2.35a14.27,14.27,0,0,0-1.08-2.35c0-.13.42-.33,1.27-.59a9.65,9.65,0,0,1,1.46-.39h1l-.39.39c-.39.39-.52.59-.39.59h.78a26.24,26.24,0,0,1,2.53-1.86,2.49,2.49,0,0,0,1.37-2.06,1.54,1.54,0,0,0-.59-1.37,1.51,1.51,0,0,1-.58-1.37,13.59,13.59,0,0,1,.29-2.35,26,26,0,0,1,.78-3.13,7.8,7.8,0,0,1,1.27-2.55,1.73,1.73,0,0,1,1.75-.78q1.95-2.15,3.51-3.72a12.5,12.5,0,0,1,6.92-3.72,25.87,25.87,0,0,1,4.78-.39h4a43.52,43.52,0,0,1,5.75.39A18.55,18.55,0,0,1,83.56,22a3.46,3.46,0,0,1,2.34,3.23V26a41.52,41.52,0,0,0-6.34,8.91q-2.24,4.41-5,9.5a4.25,4.25,0,0,0-1.07,1c-.46.52-.75.78-.88.78a10.46,10.46,0,0,1-2,.49c-1.11.19-1.73.42-1.86.68l-2.82,8.52Q64.84,59,64,62a24.66,24.66,0,0,0-.88,3.33,6.69,6.69,0,0,0,0,2.35c.13,1.17.19,1.89.19,2.15A5.14,5.14,0,0,1,66.89,71a19.56,19.56,0,0,1,2.24,2.45,24.64,24.64,0,0,0,2.15,2.45,4.77,4.77,0,0,0,3.51,1.17h.39a.17.17,0,0,0,.19-.19c.13-.13.46-.42,1-.88a4.32,4.32,0,0,0,1-1.08h1c0,.13.26.33.78.59a9.37,9.37,0,0,1,1,.58q.39,0,1.17-.78T82,74.13c.13-.13,0-.46-.29-1a8.81,8.81,0,0,0-.68-1V71a7.05,7.05,0,0,1,5.36,2.45A9,9,0,0,1,88.83,79a2.82,2.82,0,0,0,.87-1.66,15,15,0,0,0,.1-1.77,15,15,0,0,1,.1-1.76,2.73,2.73,0,0,1,.88-1.66l.77,1v7.63c0,.27.26.59.78,1s1.08.78,1.66,1.18,1.4,1,2.44,1.76c.52-.13.88-.65,1.07-1.57A20.54,20.54,0,0,0,97.89,80c.07-1.17.1-2.32.1-3.43a5.76,5.76,0,0,1,.39-2.44,9.48,9.48,0,0,1,2.83,2.93,3.87,3.87,0,0,0,3.41,2H105a8.14,8.14,0,0,0,1-.59,9.34,9.34,0,0,1,1-.58V79a14.64,14.64,0,0,1-.49,1.76,9.57,9.57,0,0,0-.49,2c0,.26.1,1,.29,2.25a7.14,7.14,0,0,0,.69,2.45c0,.13.13.33.39.59s.45.39.58.39c.91-.39,1.37-.78,1.37-1.18V86A2.32,2.32,0,0,1,110,84.5a9.53,9.53,0,0,1,3.61-1.76,5.85,5.85,0,0,1,1-.68q.78-.5.78-.3A4.58,4.58,0,0,1,117.58,83a9,9,0,0,1,.78,1.28,4.25,4.25,0,0,0,.78,1.07,6.21,6.21,0,0,0,2,1.08,22.94,22.94,0,0,0,2.73,1,1.81,1.81,0,0,1,1.36,2V90a.79.79,0,0,1-.19.59l-4.68,4.51a1.21,1.21,0,0,0,.29.58,5.39,5.39,0,0,0,.49.59h.58a1.26,1.26,0,0,0,1.17-.69,13.51,13.51,0,0,0,.69-1.37,13.39,13.39,0,0,1,.68-1.37,1.44,1.44,0,0,1,1.36-.68l.39.19a8,8,0,0,1,1.08,2c.45,1,.74,1.7.87,2l.2.39c0,.26-.62.82-1.85,1.67a22.1,22.1,0,0,0-2.25,1.66,1,1,0,0,0,.2.49,1,1,0,0,1,.19.49h2a4.68,4.68,0,0,1-1.17,3.13,4.7,4.7,0,0,0-1.17,3.13v.59l1.37,1.37,1.36,1.37-.39.39a.59.59,0,0,0-.19.4c0,.13-.07.19-.2.19a29.22,29.22,0,0,0-1.46,2.84,29.22,29.22,0,0,1-1.46,2.84v.59a7.58,7.58,0,0,0,1.56,4.5,7.85,7.85,0,0,1,1.56,4.7c0,1.44-.2,2.35-.59,2.74s-1.49.72-3.31,1a2.87,2.87,0,0,1-1.07-.3,1.62,1.62,0,0,1-.88-.68,20.82,20.82,0,0,1-6.82,10.57,3.06,3.06,0,0,1-1.08-1.76c-.19-.78-.61-1.18-1.26-1.18-.91,0-1.37.66-1.37,2v1a14.06,14.06,0,0,0,.29,1.86,4,4,0,0,0,.69,1.86h-5.07a3.17,3.17,0,0,1-.39,1.86c-.26.33-.91.49-2,.49a5.61,5.61,0,0,0-.39-2.25c-.26-.59-.91-.88-2-.88h-.78A12.18,12.18,0,0,1,98,147.45a5.33,5.33,0,0,1-4.1,1.47H93.5a7.81,7.81,0,0,1-.78-1.77A1.53,1.53,0,0,0,91.17,146ZM25.46,102.12a3.64,3.64,0,0,0,1,.69,2.35,2.35,0,0,0,1,.29V100Zm1.95,7.44c-.26,0-.26.2,0,.59a8.59,8.59,0,0,0,1.07,1.27A13.9,13.9,0,0,0,30,112.7a2.27,2.27,0,0,0,1.17.58c.25,0,.25-.19,0-.58A8.75,8.75,0,0,0,30,111.42a13.7,13.7,0,0,0-1.46-1.27A2.39,2.39,0,0,0,27.41,109.56ZM29.17,79a1.88,1.88,0,0,0,1.17,1.76V79Zm2.14,32.5q-.39-.19-.39.39c0,.39.13.59.39.59a.62.62,0,0,0,.39-.59A.34.34,0,0,0,31.31,111.52ZM32.87,98a11.92,11.92,0,0,0,.19,1.57c.13.78.3,1.6.49,2.45a21.27,21.27,0,0,0,.68,2.35,4.7,4.7,0,0,0,.59,1.27l2.34-3.14L38.72,100ZM44.76,68.45a4.36,4.36,0,0,0-1.85,1.76,4.29,4.29,0,0,0-.68,2.15A1.61,1.61,0,0,0,43,73.83c.52.33,1.36.23,2.53-.29q.39,0,.39-.78T45.84,71a7.47,7.47,0,0,0-.39-1.76Q45.15,68.45,44.76,68.45Zm-1.95,43.07c-.39-.13-.58.2-.58,1s.19,1.11.58,1,.39-.46.39-1S43.07,111.65,42.81,111.52Zm.78-4.5a5.31,5.31,0,0,0,.1.78,7.63,7.63,0,0,1,.1.78A11.55,11.55,0,0,0,45.25,111c.71,1,1.14,1.47,1.27,1.47h1.36a6.62,6.62,0,0,0-1.17-3.72A3.59,3.59,0,0,0,43.59,107Zm4.88-38.57c-.26,0-.39.29-.39.88a12.79,12.79,0,0,0,.19,2.06,8.56,8.56,0,0,0,.59,2c.26.59.52.88.78.88S50,74,50,73.44a12.7,12.7,0,0,0-.2-2,8.52,8.52,0,0,0-.58-2.06C49,68.74,48.73,68.45,48.47,68.45Zm5.26-33.87H53a1.19,1.19,0,0,0-.78.19,9.65,9.65,0,0,1-1.17.49c-.52.2-.78.36-.78.49v4.7h1.17q.39,0,.78-.78c.26-.52.52-1.11.78-1.76a11.5,11.5,0,0,0,.59-2A9.31,9.31,0,0,0,53.73,34.58Zm2.54,52.86a5.6,5.6,0,0,0-3.12,2.64,10,10,0,0,0-.78,4.21v2a8,8,0,0,0,2.73-4A14.46,14.46,0,0,0,56.27,88Zm1,27a3.56,3.56,0,0,1,1,.88c.39.46.71.82,1,1.08a4.87,4.87,0,0,1,1.07.29c.59.2.88.36.88.49A33.84,33.84,0,0,1,64,121.9q1.26,2.53,2.82,5.09a25.11,25.11,0,0,0,3.61,4.6,10.84,10.84,0,0,0,5,2.84q.39.19,1.56-.3a7.4,7.4,0,0,1,1.37-.49q4.1-.58,7.6-1.17a28.93,28.93,0,0,0,6.53-1.86,21.61,21.61,0,0,0,5.66-3.52,24.82,24.82,0,0,0,5-6.17,29.92,29.92,0,0,1,2.83-4,11.2,11.2,0,0,0,2-4.41,4.38,4.38,0,0,1,2.54,1.76,3,3,0,0,0,2.53,1.37,3.14,3.14,0,0,0-.68-2.25,8.33,8.33,0,0,0-1.46-1.17,8.55,8.55,0,0,1-1.47-1.18,2.8,2.8,0,0,1-.68-2c0-1.18.36-1.77,1.07-1.77s1.08-.58,1.08-1.76a6.94,6.94,0,0,0-.59-2.74c-.39-.91-.81-1.83-1.27-2.74a16.32,16.32,0,0,1-1.07-2.74,5.63,5.63,0,0,1,0-2.94,3,3,0,0,1-1,.49,4.11,4.11,0,0,1-1,.3,2.57,2.57,0,0,1-1.75-.69q-.78-.69-1.56-1.47t-1.56-1.47a3.81,3.81,0,0,0-1.76-.88c-.26-.13-.65-.29-1.17-.49s-1.1-.42-1.75-.68-1.27-.49-1.85-.69a5.8,5.8,0,0,0-1.08-.29,9.39,9.39,0,0,0-2,.49,9.52,9.52,0,0,1-1.94.49H79.27c-.91,0-1.49-.23-1.75-.69a5.56,5.56,0,0,1-.59-1.56,5.62,5.62,0,0,0-.58-1.57,1.63,1.63,0,0,0-1.56-.69q0,3.52-1.85,4.61a10.45,10.45,0,0,1-5.17,1.07h-1v-2a14.41,14.41,0,0,0-.19-2.35,3.81,3.81,0,0,0-.88-2,2.34,2.34,0,0,0-1.85-.79h-.78a30.62,30.62,0,0,1-1.85,2.65Q60,87.84,58.61,89.79a32.25,32.25,0,0,0-2.34,3.82,6.89,6.89,0,0,0-1,3,31.72,31.72,0,0,0,1.17,8.52A26.92,26.92,0,0,1,57.24,114.46ZM58,126c-.39,0-.58.33-.58,1s.19,1,.58,1a1,1,0,1,0,0-2Zm1.17.78a1,1,0,0,0,0,2c.39,0,.59-.32.59-1S59.58,126.79,59.19,126.79Zm9.75-47.18c0,2.22.39,3.65,1.17,4.31s2.14,1,4.09,1a5.11,5.11,0,0,0-1.56-3.72A5.05,5.05,0,0,0,68.94,79.61Zm1.75-36.22q-.39-.2-.39.39c0,.39.13.59.39.59a.63.63,0,0,0,.39-.59A.34.34,0,0,0,70.69,43.39ZM78.3,81.76c0-.26-.2-.39-.59-.39s-.52.13-.39.39a.63.63,0,0,0,.59.39A.34.34,0,0,0,78.3,81.76Zm11.31-1c-.27-.13-.39,0-.39.39s.12.59.39.59.39-.29.39-.49S89.86,80.91,89.61,80.78Zm3.89,62.46,1-1-1-1Zm8.58-4.9a2.28,2.28,0,0,0,1.66,2.35,9.14,9.14,0,0,0,3,.59,3.2,3.2,0,0,0-1.46-2.64,5,5,0,0,0-3-1.08.57.57,0,0,0-.2.39Zm5.85-6.65a7.57,7.57,0,0,0-2.34,5.87,13,13,0,0,0,2-.2,1.39,1.39,0,0,0,1.27-1.56v-.2c-.13-.39-.33-1.07-.59-2A10.3,10.3,0,0,1,107.93,131.69Zm2.93-4.7a10.38,10.38,0,0,0,6.14-1.86,6.61,6.61,0,0,0,2.63-5.78,8.8,8.8,0,0,1-3.51-.59,9,9,0,0,0-3.51-.58h-1.75Zm1.75,6.65h1l-1-1.17Zm1-32.69c-.27-.26-.39,0-.39.88s.12,1.21.39,1.08a1.43,1.43,0,0,0,0-2Zm0,4.89c-.27-.13-.39,0-.39.39s.12.53.39.4a.4.4,0,0,0,0-.79Zm5.65.79c-.13.39-.42,1.2-.88,2.44a13.22,13.22,0,0,1-1.07,2.45v1.37c1.56,0,2.79-.88,3.71-2.64a10.25,10.25,0,0,0,1.36-4.41,6.21,6.21,0,0,0-1.36.69A1.85,1.85,0,0,1,119.24,106.63ZM120.41,126h.78v-1h-.78Zm3.7-23.89c-.52,0-.78.3-.78.88s.26.89.78.89.78-.3.78-.89S124.63,102.12,124.11,102.12Z"/></g></g></svg>
