<svg xmlns="http://www.w3.org/2000/svg" viewBox="0 0 130 170"><title>point-3</title><g id="UI"><g id="Knapper"><path d="M48.87,141.19A17.15,17.15,0,0,0,47.79,135a48.81,48.81,0,0,0-2.63-5.78,9.49,9.49,0,0,1-.49-2.84c-.06-1.24-.61-1.79-1.65-1.66v2.15a6.42,6.42,0,0,0,.68,2.94,27.25,27.25,0,0,0,1.56,2.74c.58.91,1.14,1.83,1.66,2.74a6.32,6.32,0,0,1,.78,3.13H42l-1.36-1.56a.57.57,0,0,0-.2.39v.39a1.7,1.7,0,0,0,.49,1.27,1.75,1.75,0,0,1,.49,1.27,2.89,2.89,0,0,1-.39,1.47,1.26,1.26,0,0,1-1.17.69l-.78-.2a23.61,23.61,0,0,1-2.54-.29,11.82,11.82,0,0,1-2.34-.49,6.76,6.76,0,0,0-1.65-.39c-.85-.13-1.73-.3-2.64-.49s-1.78-.36-2.63-.49a14.7,14.7,0,0,0-1.65-.2,6.94,6.94,0,0,1-1.86-.59c-1-.39-1.59-.65-1.85-.78s-.32-.13-.58-.39a.57.57,0,0,1-.2-.39v-10l1.37.79A10,10,0,0,0,23,127a6.8,6.8,0,0,0,.3-1.47c.39-.91.81-1.44,1.26-1.57a4.66,4.66,0,0,1,1.27-.19,5.06,5.06,0,0,0,1.07-.1c.33-.06.49-.49.49-1.27a1.66,1.66,0,0,0-1.36-1.86c-.92-.2-1.83-.36-2.73-.49v-.2A5.59,5.59,0,0,1,24.2,117a10.6,10.6,0,0,1,2.25-2.64,14.49,14.49,0,0,1,2.92-2,6.56,6.56,0,0,1,2.92-.78h1.17a14,14,0,0,0,1.56.59l1.17.39v4.7a4.16,4.16,0,0,1-2-.49,3.75,3.75,0,0,0-1.86-.49h-.58c0,.13-.23.36-.68.68a2.76,2.76,0,0,0-.88.88v.79l1.56-.79v2.94l-1.56-.78v.39c0,1.31.19,2.12.58,2.45a3.45,3.45,0,0,0,1.47.68L34,124c.59.13,1.07.66,1.46,1.57v-5.48a2.88,2.88,0,0,0,1.37-1.86,7.12,7.12,0,0,0,0-2.35,18.05,18.05,0,0,0-.59-2.55,5.27,5.27,0,0,1-.19-2.44c.13-.4.45-.49,1-.3l1.76.69c.65.26,1.33.55,2.05.88a4.3,4.3,0,0,0,1.65.49c.13,0,.3.13.49.39s.36.39.49.39c-.13-.78-.13-1.08,0-.88l.78,1.17a22.36,22.36,0,0,0,1.46,2,4.66,4.66,0,0,0,1.85,1.47,32.67,32.67,0,0,0,3.61.49c1.88.2,3.15.29,3.8.29h.59a1.25,1.25,0,0,0,1.07-.39c.19-.26.61-.39,1.27-.39h1c.26.13.42.49.49,1.08a2,2,0,0,0,.29,1.07,1.59,1.59,0,0,0,1.36.3,8.26,8.26,0,0,1,1.86,0,4.14,4.14,0,0,1,1.56.49,1.65,1.65,0,0,1,.68,1.56H58.81c-.39,0-.58.33-.58,1l.58,1.18v2.35c.26,1.7,1,2.64,2.14,2.84A4.58,4.58,0,0,1,63.49,130a2.92,2.92,0,0,1,.58,1.47,2.67,2.67,0,0,1,0,1.47h1.37v-4.89l1.75-.59v-1.76a.55.55,0,0,0,.39.19.57.57,0,0,0,.39.2c-.26.13-.68.32-1.26.58s-.95.33-1.08.2-.39-.36-.78-.69-.65-.55-.78-.68a12.52,12.52,0,0,0,2.44-2.15,2.85,2.85,0,0,0,.68-3.33,1.53,1.53,0,0,1,.69.39,1.47,1.47,0,0,0,.68.39L67,120.24a1.37,1.37,0,0,0,1.36-.88,1.54,1.54,0,0,1,1.56-.88q1.36,0,2.25,2.25a5.44,5.44,0,0,1,.48,3.43,9.39,9.39,0,0,1,2.24-2.25,4.84,4.84,0,0,1,2.83-.88v4.3a.53.53,0,0,0,.39.2h.78a4.46,4.46,0,0,0,2.34-1.66A3.24,3.24,0,0,1,84,122.59c.65,0,1.37,0,2.15.1a3.81,3.81,0,0,1,1.75.49c.26.13.42.52.49,1.18a2.32,2.32,0,0,0,.29,1.17c0,.13.06.2.19.2h.39a2.17,2.17,0,0,0,1.86-1,3.74,3.74,0,0,0,.68-2.16,2.53,2.53,0,0,0,1.07.88c.59.33.88.56.88.69h1l1-1a10.62,10.62,0,0,1,.58-1.37l.78-1.57a10.1,10.1,0,0,1,2.83-2c1.49-.85,2.5-1.4,3-1.67.26-.12.85-.35,1.76-.68a22,22,0,0,0,2.14-.88,6.38,6.38,0,0,0,1.56-.39,2.37,2.37,0,0,0,1.56-1.37c.13,0,.26-.46.39-1.37s.26-1.64.39-2.16v-.78a5.9,5.9,0,0,0-1.27-.39,2.62,2.62,0,0,1-1.07-.39l-1-1.57c0-.26-.46-.88-1.37-1.86s-1.36-1.6-1.36-1.86a6.77,6.77,0,0,1-.1-2.35c.06-1.3.1-2.09.1-2.35l-1.46-1.37a8,8,0,0,1-1.47-1.57,15,15,0,0,1-1.36-1.86c-.65-1-1-1.59-1.17-1.86-.52-.65-.88-.91-1.07-.78a4,4,0,0,1-1.66.2v2.93h-.39a.55.55,0,0,1-.39-.19,3,3,0,0,0-.88-.49,2.92,2.92,0,0,0-1.07-.3h-.59a.7.7,0,0,0-.78.79,6.66,6.66,0,0,0,.3,1.17A3.44,3.44,0,0,0,93.12,96v.78l-1.46,1.47L90.2,99.69l.78,1.56a.57.57,0,0,1-.39.2H90.2a5.68,5.68,0,0,1-1-.1c-.39-.06-.58-.36-.58-.88a1.82,1.82,0,0,1,.29-.88,4.38,4.38,0,0,1,.49-.69,2.77,2.77,0,0,1-1.75.2,4.24,4.24,0,0,1-1.56-.78A5.69,5.69,0,0,1,84.84,97,6.94,6.94,0,0,1,84.16,96a3,3,0,0,1-1.76,2.35,6.59,6.59,0,0,1-2.92.78c-.66,0-1-.2-1-.59a1.35,1.35,0,0,0-.39-1l-.78-.39-.78-.39v-.59a2.77,2.77,0,0,1,.1-1l.19-.39a3.5,3.5,0,0,0,.2-.49,5.26,5.26,0,0,0,.1-1.27,20.65,20.65,0,0,0-2.93.2,3.35,3.35,0,0,0-2.34,2,4.45,4.45,0,0,1-.29,1.28,5.58,5.58,0,0,0-.29,1.07,5.75,5.75,0,0,1-3.41,1.28,35.38,35.38,0,0,1-3.81.29,2.16,2.16,0,0,1-2.14-1.18,27.82,27.82,0,0,1-1.17-2.74,14,14,0,0,1-1.95,2.65,4.9,4.9,0,0,1-2.73.49,14.45,14.45,0,0,1-5.95-1.47q-3.21-1.47-3.21-4.41V90.68a2,2,0,0,1,.78-.39,7.47,7.47,0,0,0,1-.39,8,8,0,0,0,1.56-.3,3.72,3.72,0,0,0,1.37-.49A3.48,3.48,0,0,0,52,87.74,13.11,13.11,0,0,0,52.18,86a6.62,6.62,0,0,0,.2-2.15,6.7,6.7,0,0,0-.2-2.16,2.91,2.91,0,0,0,2.54-2.54,8.27,8.27,0,0,0,2.24.2,6.07,6.07,0,0,0,2-.2,2.82,2.82,0,0,0,1.76-1.57,4.84,4.84,0,0,0,.78-2L62.9,77q1.17-.39.69-1.47c-.33-.72,0-1.28.87-1.67a.69.69,0,0,0,.78.79,1.49,1.49,0,0,0,.69-.4,1.47,1.47,0,0,1,.68-.39l.58-.19A2.71,2.71,0,0,1,69.73,75a2.38,2.38,0,0,0,2.14,1.37,7.58,7.58,0,0,0,2.24-.49A3,3,0,0,0,76,74.63a3.21,3.21,0,0,1,.19-1l.39-1.37a1.74,1.74,0,0,0,.78-.2l.78-.39a.69.69,0,0,1,.78-.78v-.79c1.17-3,3-4.79,5.66-5.38a36.76,36.76,0,0,1,8.18-.88c.26,0,.75,0,1.47.1s1.2.09,1.46.09a15.6,15.6,0,0,1-2,1.47A18,18,0,0,0,91.76,67l-.78.2v-1H88.44a4.87,4.87,0,0,1-.29,1.07,4.91,4.91,0,0,0-.29,1.28l.88.88.68.68a2.21,2.21,0,0,0,.78-.29,3.44,3.44,0,0,0,.78-.49A13.79,13.79,0,0,1,93.32,69a13.79,13.79,0,0,0,2.34-.39,3.62,3.62,0,0,1-.1-2.16,3.7,3.7,0,0,1,.78-1.27,4.86,4.86,0,0,1,1-.78.83.83,0,0,0,.48-.69l-.19-.39A3.64,3.64,0,0,0,97,62.19a3.38,3.38,0,0,1-.58-1.07,1.31,1.31,0,0,0-.1-.59,1.28,1.28,0,0,1-.1-.59c0-.26.33-.65,1-1.17s1.36-1.05,2.14-1.57,1.53-1,2.25-1.56a3.3,3.3,0,0,0,1.26-1.38,9.52,9.52,0,0,0,.49-1.27,10.12,10.12,0,0,1,.49-1.27,2.86,2.86,0,0,0,.78-.59l.78-.78-.2-.39-.19-.2h-1.76V47.31a2.74,2.74,0,0,0-1-2.25.52.52,0,0,1-.29.39c-.2.14-.3.27-.3.4h-.58c-1,0-1.6-.46-1.66-1.37a1.86,1.86,0,0,0-1.07-1.77h-2a1.85,1.85,0,0,1-1.37-1.46,2.41,2.41,0,0,0-1.36-1.67,3.31,3.31,0,0,0-1.76.49,3.19,3.19,0,0,1-1.75.49h-.78A5.65,5.65,0,0,0,87.86,40a11.69,11.69,0,0,0-1.56-.39H76.55a3.66,3.66,0,0,1-.68.49,3.78,3.78,0,0,0-.68.49,66,66,0,0,1-7.51,1.27,29.89,29.89,0,0,0-6.92,1.67c-.13,0-.33.13-.59.39l-.39.39a2.23,2.23,0,0,1-.58.39,3.53,3.53,0,0,1-1,.39,2.54,2.54,0,0,1-1.08.39c-.58.14-.87.27-.87.4a11.9,11.9,0,0,0-2.54,1.56c-1,.79-1.56,1.31-1.56,1.57v.78a14.07,14.07,0,0,0,2-.19c.84-.13,1.27.26,1.27,1.17a1.37,1.37,0,0,1-.69,1.08,17.11,17.11,0,0,1-1.56,1,14.11,14.11,0,0,1-1.65.78c-.52.2-.78.42-.78.68V57.2a22.29,22.29,0,0,1-.3,2.25A20.09,20.09,0,0,1,50,61.9c-1.69.26-3,.46-4,.59a28.17,28.17,0,0,1-3.61.19,8.46,8.46,0,0,1-4.38-1c-1.11-.65-1.66-2.08-1.66-4.3v-.2l.19-.19c.13,0,.33-.13.59-.4l.78-.78a18.66,18.66,0,0,1,.29-2,10.61,10.61,0,0,1,.49-2.06l.78-.59V50a7,7,0,0,0-.39-2.16,8,8,0,0,1-.39-2.54v-.2a12.53,12.53,0,0,0,.39-1.76,3.43,3.43,0,0,1,.39-1.37,8.26,8.26,0,0,0,1.17-.2c.65-.12,1-.26,1-.39a3.43,3.43,0,0,0,.49-2,3.36,3.36,0,0,1,.49-2,3.85,3.85,0,0,1,1.75-.69,3.55,3.55,0,0,1,1.76-.1,1.27,1.27,0,0,1,1,1,12.69,12.69,0,0,1,.29,1.57,5.89,5.89,0,0,0,.39,1.47c.2.46.69.68,1.47.68s1-.45,1-1.37V38.41a3.09,3.09,0,0,0-.49-1.86,3.54,3.54,0,0,0-1.17-1.08,5.6,5.6,0,0,1-1.17-.88,1.74,1.74,0,0,1-.48-1.27q0-.6,1.17-1.47a20.5,20.5,0,0,1,2.63-1.67,29.48,29.48,0,0,1,2.92-1.37,7.16,7.16,0,0,1,1.86-.58,1.8,1.8,0,0,1,1.56.88,2,2,0,0,0,1.75.88h.58a.57.57,0,0,0,.39-.2,17.42,17.42,0,0,0,1.66-1.08,15.3,15.3,0,0,0,1.46-1.07c.26-.13.69,0,1.27.39a3.15,3.15,0,0,1,1.07,1V26.66a1.94,1.94,0,0,0,1.86-.88,8.85,8.85,0,0,0,.78-2.06c.19-.78.39-1.47.58-2a1.35,1.35,0,0,1,1.46-.88,10,10,0,0,0,1.27-.1c.45-.07.68.16.68.68a4.61,4.61,0,0,1-.58,1.57l-.78,1.57v.39a.17.17,0,0,0,.19.19,2.06,2.06,0,0,0,1.66-.58,5.29,5.29,0,0,0,.78-1.28c.19-.45.36-.88.49-1.27a.77.77,0,0,1,.78-.59,8.16,8.16,0,0,1,1.36.39,16.49,16.49,0,0,1,1.56.59,3.53,3.53,0,0,0-.68,1.27,6.44,6.44,0,0,0-.1,1.28,4.11,4.11,0,0,0,.88,2.25,2.48,2.48,0,0,0,2,1.27,7.8,7.8,0,0,0,1.46-1.86,8,8,0,0,1,1.66-2l-2.34-2.16c.9-.52,1.62-.91,2.14-1.17a3.86,3.86,0,0,1,1.76-.39h.58l.39.39a.55.55,0,0,0,.39.19h1.56A4.38,4.38,0,0,1,88.93,23a2.36,2.36,0,0,1,.49,2.25c1.43-.26,2.14-1,2.14-2.16a7.33,7.33,0,0,1,.78-3.32,5.5,5.5,0,0,1,2.25-1.37,8.18,8.18,0,0,1,2.63-.79h4a3.71,3.71,0,0,1,3.41,1.57,1.65,1.65,0,0,0,.29.69c.19.32.36.62.49.88l.78.39a1.45,1.45,0,0,0,.58.19v1.57a1.8,1.8,0,0,0,1.07,1,14.57,14.57,0,0,0,1.86.68c.65.2,1.26.36,1.85.49a6.64,6.64,0,0,0,1.27.2v.39a7.45,7.45,0,0,1-.39,2.45,6.34,6.34,0,0,0-.39,2.25c0,1.05.64,1.57,1.95,1.57h.58l-1-1.37q1-.39,2-.69a9.27,9.27,0,0,0,2-.88v.78a2.48,2.48,0,0,1-.69,1.86,2.29,2.29,0,0,0-.68,1.67c0,.13.06.19.2.19h.39a5.35,5.35,0,0,1,1.07-.68,2.68,2.68,0,0,0,1.07-.88h.78a10.25,10.25,0,0,0,.29,1.66,9.37,9.37,0,0,0,.49,1.66c.39.92.71,1.15,1,.69s.72-.42,1.37.1c.13,0,.36.29.68.88a5.35,5.35,0,0,0,.68,1.07c.26.27.72.69,1.37,1.28s1,1,1,1.27a7.67,7.67,0,0,1-.39,1l-.39,1.17c0,.13-.22.3-.68.49a3.18,3.18,0,0,1-.88.3c-.39,0-.58.26-.58.78,0,.13,0,.52-.1,1.17s-.1,1.12-.1,1.38a29.75,29.75,0,0,0,.1,3.13c.07.52.16.81.29.88a1.76,1.76,0,0,1,.3.19,3.08,3.08,0,0,1,.09,1.08c-.65,0-1-.06-1.17-.19a1.7,1.7,0,0,0-.39-.3l-.58-.29a3.36,3.36,0,0,0-1.37-.2c-.52,0-.81.53-.87,1.57s-.17,2.19-.3,3.42a13.79,13.79,0,0,1-.78,3.43,2.26,2.26,0,0,1-2.33,1.57c-.78,0-1.11-.3-1-.88a7.14,7.14,0,0,0,.2-1.47h-2.73V61.9a10.37,10.37,0,0,0,1.26-.2c.72-.12,1.08.14,1.08.79a7.86,7.86,0,0,1-.2,1.07,6,6,0,0,1-.39,1.28,2.81,2.81,0,0,0-.58.78,3,3,0,0,1-.39.59,2.56,2.56,0,0,0-.39,1.17,3.2,3.2,0,0,1-.39,1.18c-.14.26-.53.23-1.17-.1a3.79,3.79,0,0,0-1.37-.49c0,.26.07,1.11.2,2.54s.19,2.29.19,2.55a2.38,2.38,0,0,1-.29,1c-.2.39-.36.59-.49.59A5.44,5.44,0,0,1,108.53,72a14.35,14.35,0,0,1-.39-3.42q0-1.77.09-3.33c.07-1,.1-2,.1-2.74,0-.39-.26-.59-.78-.59h-2.14c0,.26.06,1,.19,2.15a8.92,8.92,0,0,0,.39,2.16l.78.78v1.57a3.19,3.19,0,0,1-1.17.68c-.52.2-.84.23-1,.1a14.67,14.67,0,0,1,1,5.29h-1.36V70.91l-1.95,1.37V70.12a7.32,7.32,0,0,1,.29-2.35,5.73,5.73,0,0,0,.29-2v-.4a10.9,10.9,0,0,0-.39-2.15,5.73,5.73,0,0,1-.19-1.37l-.39-.39a.57.57,0,0,1-.2-.39l-.19-.2a.55.55,0,0,1-.39-.19l-.39.39a.69.69,0,0,0-.78.78V78.15c.52,0,.78.07.78.2a5.3,5.3,0,0,0,1-.69c.39-.32.59-.55.59-.68h.58c.65.13,1.53.26,2.63.39l3.22.39q1.56.19,2.73.39c.78.13,1.23.2,1.37.2a15.38,15.38,0,0,0,2.53.88,17.06,17.06,0,0,1,2.15.68,25.09,25.09,0,0,1,2.33,1.86c1.3,1.11,2.08,1.8,2.34,2.06a2.31,2.31,0,0,0,.59.39l.78.39c.65.52.88,1,.68,1.37a6.27,6.27,0,0,0-.29,2.35h2.53l-1-.59a6.41,6.41,0,0,1,1.66,1.08,2.48,2.48,0,0,1,1.07,1.86,4.16,4.16,0,0,1-.88-.1,1.36,1.36,0,0,0-.88.1c-.65.13-1,.62-1,1.47v1.47h-.59l-2.14-4.51-.59-.19a3,3,0,0,0-2,.78,4.63,4.63,0,0,0-1.27,1.76,3.7,3.7,0,0,1,2.34,0c.13,0,.42.3.88.88s.94,1.28,1.46,2.06,1,1.54,1.46,2.25a4.83,4.83,0,0,1,.68,1.27v.2a6.11,6.11,0,0,1-1.07.69,2.6,2.6,0,0,0-1.07.88l-.2.39.2.39c.26.26.61.69,1.07,1.27a4.05,4.05,0,0,0,1.07,1.08,2.13,2.13,0,0,0,.78-1.47c.13-.72.46-1.08,1-1.08.13,0,.19,0,.19.1s.07.1.2.1H128c.13,0,.33.13.59.39a.55.55,0,0,1,.19.39,1.67,1.67,0,0,1-.48,1.37,6,6,0,0,1-1.08.69,4,4,0,0,0-1.07.78,1.71,1.71,0,0,0-.49,1.27v1.18l.39,1.17.39,1.18c0,.39-.39.72-1.17,1l-1.17.39-1.36,9.2c0,.52-.46.92-1.37,1.18a2.46,2.46,0,0,0-1.75,2,5.08,5.08,0,0,0-.49,2.25c-.06,1.12-.62,1.6-1.65,1.47v-1.37a6.08,6.08,0,0,0-1.86,1.47,4.46,4.46,0,0,0-.68,1.47l-.39,1.57a3.52,3.52,0,0,1-1,1.56,2.21,2.21,0,0,1-.78.39,2.93,2.93,0,0,1-.78.2,3.76,3.76,0,0,0-1.86,3.33,5.24,5.24,0,0,1-1.07,3.52,6,6,0,0,1-1.17-1.07,2.23,2.23,0,0,1-.58-1.47v-.4c0-.12.16-.26.48-.39s.49-.32.49-.58H106l-2.14,4.69c-.13-.65-.3-1.46-.49-2.44a1.68,1.68,0,0,0-1.85-1.47c-.91,0-1.4.39-1.46,1.17a10.17,10.17,0,0,0,.09,2.45,10.75,10.75,0,0,1,.1,2.45c-.07.78-.55,1.17-1.46,1.17,0-.26,0-.94-.1-2.05a7.42,7.42,0,0,0-.29-2.06c-.13-1-.59-1.56-1.37-1.56a1.35,1.35,0,0,0-1.46,1,18.73,18.73,0,0,0-.49,2.16,10.39,10.39,0,0,1-.58,2.15,1.68,1.68,0,0,1-1.76,1,4.59,4.59,0,0,1-3.6-1.66c-1-1.11-1.79-1.67-2.44-1.67a.57.57,0,0,0-.39.2,9.18,9.18,0,0,1-.29,1.27,3.81,3.81,0,0,1-.49,1.27.64.64,0,0,1-.78.2,1.74,1.74,0,0,0-.78-.2.61.61,0,0,0-.58.39,4.65,4.65,0,0,0-.2,1.77A12.77,12.77,0,0,1,80,144c-1.49-.46-2.37-.95-2.63-1.47l-2.92,1.18.78.78a5.68,5.68,0,0,0-1,.1,7.3,7.3,0,0,1-.78.1c-1.17,0-1.88-.2-2.14-.59a4.37,4.37,0,0,1-.59-1.37c-.13-.52-.26-1-.39-1.37s-.65-.59-1.56-.59a19,19,0,0,0,.39,1.86c.26,1.11-.06,1.73-1,1.86a1.47,1.47,0,0,0-.88.39,1.47,1.47,0,0,1-.88.39,33.81,33.81,0,0,1-5.65-.49q-2.92-.48-5.85-1.07a1.64,1.64,0,0,1-.68-.3,1.85,1.85,0,0,0-.68-.29,9.25,9.25,0,0,0-2.73-.1c-1.56.07-2.47.1-2.73.1s-.62-.33-1.08-.59a1.44,1.44,0,0,1-.68-1.37ZM26.45,125.53c-.14-.13-.2,0-.2.29s.06.49.2.49Q27.62,125.53,26.45,125.53Zm3.11-1c-.38,0-.58.29-.58.88s.2.88.58.88.39-.29.39-.88S29.82,124.55,29.56,124.55Zm6.63,10,.2-.79a1.23,1.23,0,0,0-.29-.88l-.69-.68Zm.78,6.07h2.15v-.79H37Zm2.15-13.71v-.78h-.78Zm0,3.13c-.39,0-.59.27-.59.79s.2.78.59.78.58-.26.58-.78S39.51,130,39.12,130Zm0-5.28h.78c.26-.13.61-.3,1.07-.49s.81-.36,1.07-.49c-.13,0-.36-.3-.68-.88s-.55-1-.68-1.28l-.39-.78-.39-.78h-.78Zm.78,7.44c-.39,0-.59.26-.59.78s.2.78.59.78.58-.26.58-.78S40.29,132.19,39.9,132.19Zm.19-78.9h1a1.77,1.77,0,0,0-1-1.57ZM42,133l.78,1.17a6,6,0,0,0,.78,1l1-.58a4.19,4.19,0,0,0-.78-1c-.39-.39-.65-.59-.78-.59H42Zm.39-89.67a10.38,10.38,0,0,0,.1,1.37,1.56,1.56,0,0,0,.68,1.18c.52-.26.78-.52.78-.79v-.19c0-.13,0-.2.1-.2s.1-.06.1-.19a1,1,0,0,0-.68-.89A3.11,3.11,0,0,0,42.43,43.3Zm.2,6.46a1.48,1.48,0,0,0,.19.59l.39.78H44L43.21,48a1.59,1.59,0,0,0-.58,1v.78Zm1.95-8.42A2.14,2.14,0,0,0,45.36,43a2.56,2.56,0,0,0,1.75.68V43.3l-.19-.39v-.2a4.76,4.76,0,0,0-.59-1.56l-.78-1.57C44.9,39.71,44.58,40.3,44.58,41.34Zm.58,99.85c.39,0,.59.33.59,1s-.2,1-.59,1-.39-.33-.39-1S44.9,141.19,45.16,141.19Zm.78-16a3.33,3.33,0,0,0,.59,1.86,16.08,16.08,0,0,0,1.26,1.66,8,8,0,0,1,1.08,1.57,2.54,2.54,0,0,1,0,2,3.44,3.44,0,0,0,2.34-1.37c-.13-.52-.36-1.47-.69-2.84a16.9,16.9,0,0,0-.68-2.45,2.88,2.88,0,0,0-2.05-1.27,9.91,9.91,0,0,1-1.85-.49Zm1.56-6.66a2.59,2.59,0,0,0,.2,1.27,1.27,1.27,0,0,0,.68.49c.32.14.68.27,1.07.4a2.58,2.58,0,0,1,1.17,1,5,5,0,0,1,.88,2.84,1.78,1.78,0,0,0,2,1.86h.39a.17.17,0,0,0,.19-.19,4.36,4.36,0,0,0,.59-2.16c.12-1.17.19-1.95.19-2.35,0-1.3-.94-2.15-2.83-2.54A23.7,23.7,0,0,0,47.5,118.48Zm.39-90.06,1.37.59-.59.78a.69.69,0,0,1-.78-.78l-.19-.2Zm0,24.87,2.93-.79a.93.93,0,0,0-.78-.68,5.68,5.68,0,0,0-1-.1H47.89ZM50,31.36c-.39,0-.59.23-.59.68s.2.69.59.69.58-.23.58-.69S50.43,31.36,50,31.36Zm.58,104.74a1.64,1.64,0,0,0,1.37,1v-1ZM53,41.93c-.39,0-.58.26-.58.78s.19.79.58.79.59-.26.59-.79S53.35,41.93,53,41.93Zm2.54,86.93a6.68,6.68,0,0,0,.78,3.23,14.37,14.37,0,0,1,1.17,3,.59.59,0,0,0,.39-.19l.39-.39a9.4,9.4,0,0,0-.39-1.37,6.06,6.06,0,0,1-.39-1.57c-.14-.52-.3-1.11-.49-1.76A1.35,1.35,0,0,0,55.5,128.86Zm2-2.74c0-.26-.33-.39-1-.39s-.91.13-.78.39a1.33,1.33,0,0,0,1,.39A.8.8,0,0,0,57.45,126.12Zm-.59-34.07h3.9v-1a7.36,7.36,0,0,1-2.34-.39,2.34,2.34,0,0,1-1.56-1.57Zm1.37,43.07c-.39,0-.59.3-.59.88s.2.89.59.89.38-.3.38-.89S58.48,135.12,58.23,135.12Zm.58-6.85c-.26,0-.39.29-.39.88s.13.88.39.88.58-.29.58-.88S59.2,128.27,58.81,128.27Zm.58,4.31a.57.57,0,0,0,.2.39,12.53,12.53,0,0,1,.39,1.76c.13.78.19,1.24.19,1.37a2.14,2.14,0,0,0,.88.39c.46.13.68.27.68.4.78.65,1.08,1.11.88,1.37s.23.39,1.27.39a5.39,5.39,0,0,0-.39-1.67,14.62,14.62,0,0,0-1.07-2.25,10.12,10.12,0,0,0-1.47-2,2.25,2.25,0,0,0-1.56-.78Zm.78-48.36A4.72,4.72,0,0,0,61,86.67a2.41,2.41,0,0,0,2.15,1.27,5.07,5.07,0,0,0-.68-2.55A2.41,2.41,0,0,0,60.17,84.22ZM61.54,32c-.39,0-.59.16-.59.48s.2.43.59.3S62.06,32.21,61.54,32Zm.19,85.94H61v-.78Zm2.73-92.6H62.9l.78-.78Zm-1,98.48c.26,0,.39.29.39.88s-.13.88-.39.88-.59-.29-.59-.88S63.1,123.77,63.49,123.77Zm.19-46.21c-.26,0-.39.3-.39.88s.13.82.39.69a.7.7,0,0,0,.39-.69A1.24,1.24,0,0,0,63.68,77.56Zm.78,5.29c0,.65.26,1,.78,1H66A22.75,22.75,0,0,1,67.1,81c.58-1.37.94-2.25,1.07-2.64q.19-.19.78-.69a5.69,5.69,0,0,1,1-.68h-.78a2.67,2.67,0,0,0-2.53,1.37,18.21,18.21,0,0,0-1.17,2.35C64.92,81.87,64.59,82.59,64.46,82.85ZM67.19,134c-.13-.13-.19,0-.19.39s.06.46.19.2c.52-.13.78-.26.78-.4S67.71,134,67.19,134ZM69,136.1a2.82,2.82,0,0,0,1,2.35l1.37-1.37a1.48,1.48,0,0,0-1.17-.88C69.6,136.14,69.21,136.1,69,136.1Zm7-42.48c.39.26.39.58,0,1-.26,0-.39-.2-.39-.59S75.71,93.49,76,93.62Zm.58-24.28c.39,0,.59.26.59.78s-.2.79-.59.79-.39-.26-.39-.79S76.29,69.34,76.55,69.34Zm0,16c-.26-.26-.39.07-.39,1s.13,1.25.39,1,.39-.45.39-1S76.81,85.53,76.55,85.39Zm0,45.62q-.39,0-.39.69c0,.46.13.68.39.68s.59-.22.59-.68S76.94,131,76.55,131Zm.78-63c.39,0,.59.23.59.69s-.2.68-.59.68-.58-.23-.58-.68S76.94,68,77.33,68Zm2.15,61.48c-.27,0-.39.26-.39.78s.12.78.39.78.58-.26.58-.78S79.87,129.45,79.48,129.45ZM82,71.69h2.15v-.78H82Zm2.15-45.81a5,5,0,0,0,.68,1c.32.39.55.65.68.78V23.33a1.07,1.07,0,0,0-1.07.78,4.39,4.39,0,0,0-.29,1.57Zm1.36-8.23,1.56,1.57H86.3a1.57,1.57,0,0,1-1.56-.78Zm2.34,54.63.19-.39-.19-.2a.69.69,0,0,0-.78-.78l-.78.78Zm-.78,18.4V89.11l-.78.79Zm.78-59.32a10.74,10.74,0,0,0,1-1.18A2.39,2.39,0,0,0,89.42,29c0-.39-.26-.59-.78-.59l-.39-.19-.39.19Zm1.56,55.4c-.13-.12-.2,0-.2.3s.07.42.2.29.39-.1.39-.29S89.68,86.76,89.42,86.76Zm.78-16.64c-.39,0-.59.27-.59.79s.2.78.59.78.58-.26.58-.78S90.59,70.12,90.2,70.12ZM91,89.9c-.39,0-.59.26-.59.78s.2.78.59.78.58-.26.58-.78S91.37,89.9,91,89.9Zm1.36-19c-1.17,0-1.75.65-1.75,2V75.8c.91,0,1.36-.29,1.36-.88a5,5,0,0,1,.39-1.86l.39-.2.39.2a.57.57,0,0,0,.2.39l.39.39a.94.94,0,0,1,.39.1,1.26,1.26,0,0,0,.58.1h.59Q95.27,70.91,92.34,70.91Zm-.58,13.7c-.39,0-.59.23-.59.69s.2.68.59.68.39-.23.39-.68S92,84.61,91.76,84.61Zm.39,2.15a2.76,2.76,0,0,0,1.36,2.45,5.29,5.29,0,0,0,2.93.88c0-1.43-.39-2.35-1.17-2.74A7,7,0,0,0,92.15,86.76Zm1.56-62.65c0,1.18.45,1.77,1.36,1.77h.59a4.82,4.82,0,0,0-.59-1.18A1.51,1.51,0,0,0,93.71,24.11Zm2,4.12q-1.95,0-2,1.56h2Zm0,54h.78a7.66,7.66,0,0,0-.2-1.66,4.3,4.3,0,0,0-.58-1.47Zm0,15.66c0-.91.39-1.37,1.17-1.37a3.59,3.59,0,0,0,.49,2c.32.53.94.66,1.85.39a7.17,7.17,0,0,1-.29,1.67,2.71,2.71,0,0,1-1.27,1.66,4.72,4.72,0,0,1-1.37-2.15,8.25,8.25,0,0,1-.58-2ZM97,93.62q.39,0,.39.78t-.39.78q-.39,0-.39-.78T97,93.62ZM97.61,67c.13-.26.06-.39-.2-.39A.34.34,0,0,0,97,67q.2.39.39.39C97.54,67.38,97.61,67.25,97.61,67Zm0-28.39a4.73,4.73,0,0,0,.19,1.28c.13.45.52.68,1.17.68h.2l.49-.49a.81.81,0,0,0,.29-.49,1.48,1.48,0,0,0-1.17-.88C98.26,38.64,97.87,38.6,97.61,38.6ZM99.17,96c.39,0,.58.26.58.78s-.19.78-.58.78-.59-.26-.59-.78S98.78,96,99.17,96ZM100,31.36q-.39-.2-.39.78c0,.66.13.85.39.59a.79.79,0,0,0,.39-.78C100.34,31.55,100.21,31.36,100,31.36Zm1.75,66.76q.39,0,.39.78c0,.53-.13.79-.39.79a.79.79,0,0,1,0-1.57Zm0-12.73c-.26-.12-.39,0-.39.3s.13.42.39.29.39-.26.39-.39S102,85.39,101.7,85.39Zm-.19-43.85a1.21,1.21,0,0,0,1.36,1.37V40.17A1.21,1.21,0,0,0,101.51,41.54Zm.19-18.6.59-.59h-.59ZM102.29,131c-.26-.26-.39-.19-.39.2s.13.52.39.39.39-.26.39-.39S102.55,131,102.29,131Zm.58-55.4c0,.39-.19.39-.58,0,0-.27.16-.4.48-.4S103.13,75.34,102.87,75.61Zm0-6.27q-.39,0-.39.78c0,.53.13.79.39.79a.79.79,0,0,0,0-1.57Zm1.76-36a2.17,2.17,0,0,0-1.76,1.17h1.76ZM102.87,58c0,1.05.46,1.57,1.37,1.57q.2,0,1.17-1.47a5.88,5.88,0,0,1,1.36-1.66L106,56a1.57,1.57,0,0,0-.58-.2l-.59-.19a1.68,1.68,0,0,0-1.36.78A2.6,2.6,0,0,0,102.87,58ZM106,38c-.26-.12-.39,0-.39.4s.13.52.39.39.39-.1.39-.3S106.25,38.15,106,38Zm0,45.82q-.39,0-.39.78t.39.78c.39,0,.59-.26.59-.78S106.38,83.83,106,83.83Zm0-29.57.78.79h.39A1.12,1.12,0,0,0,108.33,54a10.19,10.19,0,0,0,.2-1.47,16.38,16.38,0,0,0-1.66.1.94.94,0,0,0-.88,1.08Zm0,37.79a8.17,8.17,0,0,0,.2,1.08,4.26,4.26,0,0,0,.58,1.47l.59.58a2.63,2.63,0,0,1,.48,1.67c-.06.46.42.68,1.47.68a10.65,10.65,0,0,0-.59-3.33,9.3,9.3,0,0,0-1.36-2.74l-.2-.19a.55.55,0,0,0-.39.19c-.13,0-.32.13-.58.4Zm.78,8.42a.39.39,0,0,0-.78,0c.13.26.29.39.49.39S106.77,100.73,106.77,100.47Zm.59-49.93a11.33,11.33,0,0,0,1.46-.09,1.52,1.52,0,0,0,1.07-.69,2.25,2.25,0,0,0-1.56-.78h-1Zm2.34-4.11a2.2,2.2,0,0,0,.29,1c.19.39.42.59.68.59V46.43Zm1.75-18.79c0-.39-.33-.59-1-.59s-.85.2-.59.59a.7.7,0,0,0,.68.39A1.21,1.21,0,0,0,111.45,27.64ZM109.89,43.5h1.76a1.08,1.08,0,0,0-.69-1.08c-.45-.2-.81-.36-1.07-.49Zm0,11.55h.78v-.79Zm.78,9c-.26-.12-.39,0-.39.3s.13.49.39.49C111.19,64.32,111.19,64.05,110.67,64.05Zm0,23.3c-.26,0-.39.17-.39.49s.13.49.39.49a.34.34,0,0,0,.39-.39A.63.63,0,0,0,110.67,87.35ZM112,98.9a3.89,3.89,0,0,0,.58,2.35,2.8,2.8,0,0,1,.2,2.35,4.06,4.06,0,0,0,1.17-1.76,6.28,6.28,0,0,0,.58-1.76A3.63,3.63,0,0,0,114,98a2.71,2.71,0,0,1-.39-2A3.21,3.21,0,0,0,112,98.9Zm1.56-59.32c-.39,0-.59.3-.59.88s.2.88.59.88.78-.29.78-.88S114.11,39.58,113.6,39.58Zm1,94.37c.39,0,.39.19,0,.59s-.58.19-.58-.2S114.18,133.82,114.57,134ZM115,37a1.88,1.88,0,0,0,1,1.86,7.56,7.56,0,0,0,2.14.68v-.39c0-.13,0-.2.1-.2s.09-.06.09-.19c0-.91-.35-1.44-1.07-1.57A12.46,12.46,0,0,0,115,37Zm1,91.62c.39,0,.58.27.58.79s-.19.78-.58.78-.59-.26-.59-.78S115.55,128.66,115.94,128.66Zm0-60.69c.39-1.43.74-2.71,1.07-3.82s1.39-1.66,3.21-1.66q0,3.72-3.5,6.85l-.78-.78V68Zm.58,25.45c0,1.31.06,2.68.2,4.11a7,7,0,0,0,1.36,3.72l.39.2a.57.57,0,0,0,.39-.2q.19,0,.78-.78t.78-.78a2.67,2.67,0,0,1,1.27-.3c.71-.06,1.07-.22,1.07-.49v-.39a.38.38,0,0,1,.1-.29.43.43,0,0,0,.09-.3,3.51,3.51,0,0,0-2.14-3.62A11.16,11.16,0,0,0,116.52,93.42Zm.2-41.31a1.27,1.27,0,0,0,1.17-.88,4,4,0,0,0,.38-1.47h-1.55Zm.78,69.9a.51.51,0,0,0-.59.58.52.52,0,0,0,.59.59c.25,0,.39-.2.39-.59S117.75,122,117.5,122Zm-.2-77.73a1.23,1.23,0,0,0,1.07,1.37,11.55,11.55,0,0,0,2,.2V44.28h-.78a3.86,3.86,0,0,1-1.17-.29,3.12,3.12,0,0,1-1-.49.53.53,0,0,0-.2.39Zm1.56,59.32q-.39-.19-.39.3c0,.32.13.42.39.29s.39-.26.39-.39S119.12,103.6,118.86,103.6Zm.78-5.48v.78l-.78-.78Zm.78-51.69c-.39,0-.59.27-.59.79s.2.78.59.78.58-.26.58-.78S120.81,46.43,120.42,46.43Zm2.34,55.8q-.39,0-.39.69c0,.46.13.68.39.68s.58-.22.58-.68S123.15,102.23,122.76,102.23Zm1.36-67.74c.39,0,.59.26.59.78s-.2.79-.59.79-.39-.26-.39-.79S123.86,34.49,124.12,34.49Zm1.56,9.79c0,.26-.09.39-.29.39s-.36-.13-.49-.39.17-.39.49-.39S125.81,44,125.68,44.28Z"/></g></g></svg>
