<svg xmlns="http://www.w3.org/2000/svg" viewBox="0 0 130 170"><title>point-2</title><g id="UI"><g id="Knapper"><path d="M76.36,151.83a3.65,3.65,0,0,0,0-1.67,2.33,2.33,0,0,0-.78-1.66,9.7,9.7,0,0,0-1.76-.49,13.3,13.3,0,0,0-1.56-.29,2.32,2.32,0,0,1-.78-.3,1.62,1.62,0,0,1-.78-.68A20,20,0,0,1,69,145.56a15.65,15.65,0,0,1-1.76-1.37,8.87,8.87,0,0,1-1.26-.29c-.72-.2-1.47-.39-2.25-.59s-1.49-.39-2.14-.59a3.2,3.2,0,0,1-1.17-.49A12.3,12.3,0,0,1,56,139.69a30.16,30.16,0,0,0-4-3.13H51.6c-.66,0-1.11.49-1.37,1.47a15.68,15.68,0,0,1-.58,1.86c-1.17-.27-1.86-.75-2-1.47a3.31,3.31,0,0,0-1.46-1.86l-.39.39-.39.39a4.17,4.17,0,0,0,0,3.52,2.9,2.9,0,0,1-1.08-.29,1.63,1.63,0,0,1-.87-.68,2.29,2.29,0,0,1,.1-2c.32-.65,0-1.11-.88-1.37a.37.37,0,0,0-.29.1.45.45,0,0,1-.3.09.78.78,0,0,1-.58.2v5.28a4.76,4.76,0,0,0-2.34,1.57,3.67,3.67,0,0,1-2.34,1.37H31.9a1.69,1.69,0,0,1-.29.88,3.47,3.47,0,0,1-.49.69H29.76a28.71,28.71,0,0,1-3.12-.2,7.94,7.94,0,0,1-2.53-.59,5.59,5.59,0,0,1-.69-1.17,5.42,5.42,0,0,0-.87-1.37A13.15,13.15,0,0,1,20.69,137q-.09-3.52-.09-6.66a38.88,38.88,0,0,1,.48-5.58,67.29,67.29,0,0,1,1.37-6.65q.87-3.44,1.95-6.66A33.53,33.53,0,0,1,26.64,106a5.62,5.62,0,0,1,2.92-2.54,5.61,5.61,0,0,0,2.93-2.55c.26-.12.61-.78,1.07-2s.75-1.89.88-2.16c.13,0,.39-.32.78-1a.53.53,0,0,0,.39.2c.26,0,.39-.06.39-.2A3.39,3.39,0,0,0,37,95c.39-.45.59-.75.59-.88a.63.63,0,0,0,.19-.78,1.72,1.72,0,0,1-.19-.78l.68-.69a3.6,3.6,0,0,1,.88-.68c.13.52.22.88.29,1.07s.42.3,1.07.3c.39,0,.81-.33,1.27-1A17.07,17.07,0,0,0,43,89.37a20.92,20.92,0,0,0,1-2.25,5.27,5.27,0,0,0,.39-1.47c.52,0,1.2,0,2-.09a14.79,14.79,0,0,0,2.44-.4,5.23,5.23,0,0,0,2-1A2.82,2.82,0,0,0,52,82.33h4.09a2.48,2.48,0,0,1,.29-.79,3.81,3.81,0,0,1,.69-1c.25,0,.81,0,1.65.1a3.71,3.71,0,0,0,1.66-.1q2.73-2.15,4.29-3.33c1-.78,2-1.53,2.92-2.25a6.89,6.89,0,0,1,1.56-1.07A4.21,4.21,0,0,0,69,72.83c-.13-.46-.07-.75.19-.88,0-.13.33-.39,1-.78s1.1-.66,1.36-.79a2.12,2.12,0,0,0,.39-.78,2.12,2.12,0,0,1,.39-.78,3.56,3.56,0,0,1,.88-1c.45-.39.75-.65.88-.79.26-.52.68-1.43,1.26-2.74s1-2.08,1.08-2.35a9.24,9.24,0,0,1,.19-1.17,18.07,18.07,0,0,0,.29-2.15c.07-.79.17-1.54.3-2.26s.19-1.14.19-1.27a2,2,0,0,1,.39-.78,2,2,0,0,0,.39-.79A8.66,8.66,0,0,0,78.89,52a5.26,5.26,0,0,0,.39-1.18.55.55,0,0,1-.39-.19,1.12,1.12,0,0,0-.78-.39,22.35,22.35,0,0,0-3.31-1.08c-1.69-.46-2.8-.75-3.32-.88V46.11a7.43,7.43,0,0,0-1.65.39,7.59,7.59,0,0,1-1.66.39,16.79,16.79,0,0,1-1.27-1.57c-.58-.78-.94-1.24-1.07-1.37-.65-.26-1.85-.68-3.61-1.27s-2.89-1-3.41-1.08H56.47A33.09,33.09,0,0,0,47.4,43a12.52,12.52,0,0,0-7.31,5.29v1a3.49,3.49,0,0,0,.78,2.54l3.51,1.76a26.13,26.13,0,0,1,5.07,3.82A57.1,57.1,0,0,1,53.74,62a3.8,3.8,0,0,0,.1.69,5.17,5.17,0,0,1,.1.68,8.07,8.07,0,0,1-1,2.55c-.65,1.31-1.1,2-1.36,2-.66,0-1.11-.42-1.37-1.28a19.78,19.78,0,0,1-.58-2.25,9.26,9.26,0,0,1-4.88,1.18c0-.91.39-1.37,1.17-1.37a1,1,0,0,0,1.17-1.18V62a14,14,0,0,1-3.21,1.37,13,13,0,0,1-3.42.4H38.53q0-1.77-1.17-1.86A3.86,3.86,0,0,1,35.22,61a6.45,6.45,0,0,1-2.83-3.62,9,9,0,0,0-2.24-3.82,5.69,5.69,0,0,0-1.85-.88c-1-.32-1.95-.61-2.93-.88s-1.85-.52-2.63-.78-1.17-.52-1.17-.78V34.75a1.5,1.5,0,0,1-.88-1,3.86,3.86,0,0,1-.29-1.17,3.73,3.73,0,0,0,3.22-1.47c.71-1,1.39-2,2.05-3,.39,0,1,0,1.75-.09s1.66-.17,2.63-.3,1.85-.26,2.63-.39a12.53,12.53,0,0,0,1.76-.39,3.3,3.3,0,0,0,1.07-.69,2.73,2.73,0,0,1,1.27-.68,7.5,7.5,0,0,1,2.92-1c.65,0,1.43-.52,2.34-1.57h7.22c0-1,.09-1.66.29-1.86s-.1-.75-.88-1.66h1a44.16,44.16,0,0,1,6.92,2.84,10.23,10.23,0,0,1,4.77,5.77h.59q1,0,1.17-1.47a1.42,1.42,0,0,1,2.14-1.27,1.54,1.54,0,0,0,.59.2c.13,0,.65.1,1.56.29a9.51,9.51,0,0,1,1.75.49h3.42a4.7,4.7,0,0,1,1.94.39,1.81,1.81,0,0,1,1.08,1.37,11.72,11.72,0,0,1,.48,2.35,22.33,22.33,0,0,1,.3,2.55,17.5,17.5,0,0,1,4.58,2.74q2.82,2.16,3.22,4.11a12.59,12.59,0,0,1-.2,1.57A11.65,11.65,0,0,0,83.77,43a4.37,4.37,0,0,0,2-.39,3.82,3.82,0,0,1,1.75-.39.81.81,0,0,1,.39.1.94.94,0,0,0,.39.1l1.46.49a5.79,5.79,0,0,0,1.07.29c.13.13.13.59,0,1.37s-.13,1.24,0,1.37a12.33,12.33,0,0,0,1.27,1.66,7.32,7.32,0,0,1,1.27,1.86A8.94,8.94,0,0,1,94,52.86c.07,1.5.1,2.77.1,3.82a28.75,28.75,0,0,1-.39,4.7,29.8,29.8,0,0,0-.39,4.89v4.21a11.79,11.79,0,0,0,.78,4,14.85,14.85,0,0,1-2,1.47c-1.1.72-1.79,1.15-2,1.27s-.71-.19-1.75-1a5.63,5.63,0,0,0-2-1.18,5.11,5.11,0,0,0,.2,1c.12.52.25,1.08.39,1.66s.25,1.18.39,1.77a9,9,0,0,1,.19,1.07,1.88,1.88,0,0,0,.39,1,2,2,0,0,1,.39.79v1.56a5.65,5.65,0,0,1-.49,2.55,1.87,1.87,0,0,1-1.85,1,1.64,1.64,0,0,1-1.85-1.28c-.2-.84-.62-1.27-1.27-1.27H82.6a5.82,5.82,0,0,1-.78,3c-.52.84-1.08,1.66-1.66,2.44S79,92,78.4,92.8a6.58,6.58,0,0,0-1.07,3,4.56,4.56,0,0,0-.39-1.37,4.92,4.92,0,0,0-.58-1.17l-.39-.2a2.77,2.77,0,0,0-1.56.39,4.06,4.06,0,0,1-2.15.4v4.5c0,.13-.19.29-.58.49a2.38,2.38,0,0,1-1,.29,4.06,4.06,0,0,1-1.75.1c-.91-.06-1.5-.1-1.76-.1l-1.36,1.18a1.38,1.38,0,0,1-1.17-1.18,3,3,0,0,0,.58-.78,3.08,3.08,0,0,1,.59-.78v-.79c-.52,0-.91-.32-1.17-1l-.39-.19a.6.6,0,0,0-.39.19,2.84,2.84,0,0,1-.78.88,3.09,3.09,0,0,0-.78.89v.78a3.43,3.43,0,0,0,.39,1,3.43,3.43,0,0,1,.39,1,40.16,40.16,0,0,1-3.32,2.35l-2.43,1.76a4.71,4.71,0,0,1-1.27.78l1,.78-2,3.72a11.19,11.19,0,0,0-2,2.26c-.91,1.24-1.5,2.05-1.76,2.44.26.53.91.56,2,.1a6.86,6.86,0,0,1,2.15-.68h.58a1.37,1.37,0,0,0,.59-.89,2.08,2.08,0,0,1,.39-.88c0-.12.19-.09.58.1a2.32,2.32,0,0,0,.78.3l.39-1.37h.58a1.57,1.57,0,0,1,1,.19c.13.13.16.07.1-.19s-.1-.33-.1-.2A2.7,2.7,0,0,0,63,112.48a7.94,7.94,0,0,1,2.83.39,3,3,0,0,0,.58.78l.78.78A5.18,5.18,0,0,0,71,115.9c1.36-.06,2.69-.1,4-.1a3.21,3.21,0,0,0,.2,1v.79a.55.55,0,0,0,.19.39,5.59,5.59,0,0,1-1.95.88,5.59,5.59,0,0,0-2,.88v9.2c0,.66.26,1,.78,1,.26,0,.46-.62.59-1.86s.32-2.58.58-4a19.29,19.29,0,0,1,1.07-3.82c.46-1.11,1.14-1.6,2-1.47l2.34,3.33a8.66,8.66,0,0,0,.2,1.57,1.07,1.07,0,0,0,1.17,1,2.69,2.69,0,0,0,1.56-.39,2.39,2.39,0,0,1,1.36-.39,2.12,2.12,0,0,1,1.85.69,7.81,7.81,0,0,1,.88,1.66H90a3.42,3.42,0,0,1-1.36-.59,3.08,3.08,0,0,1-1.17-1l-.19-.39.19-.39a2.14,2.14,0,0,0,.39-.59q.19-.39.39-.39a17.91,17.91,0,0,0,2.73,1c1.3.39,2.08.66,2.34.78a8,8,0,0,0,2.63.1l2.63-.1a2,2,0,0,0,.78.4,7.67,7.67,0,0,1,1,.39,7.25,7.25,0,0,0,.29,1.47,3.92,3.92,0,0,0,.49,1.27c.26.26.65.19,1.17-.2a2.8,2.8,0,0,1,1-.58c0-.27.07-.33.2-.2s.13.2,0,.2a2.4,2.4,0,0,0-.39-1.08,2.69,2.69,0,0,1-.39-.88l-.2-.39v-.4h1l1.46.49a5.18,5.18,0,0,0,1.07.3l.2.39a4,4,0,0,1-1.27,3.33,10.67,10.67,0,0,0-2.24,2.35v1a3.22,3.22,0,0,1-1.17,2.05,3,3,0,0,1-1.66.49,12.55,12.55,0,0,1-1.66-.1,12.26,12.26,0,0,0-1.36-.1l1.75,2.55c.13.13.1.29-.09.49a.94.94,0,0,1-.69.29c-.91,0-1.49-.26-1.75-.78a5,5,0,0,1-.49-1.66,13.81,13.81,0,0,0-.29-1.67,1,1,0,0,0-1.17-.78c-.39,0-.52.46-.39,1.37a7.07,7.07,0,0,1-.1,2.64,2.13,2.13,0,0,1-1.56,1.67c-.85.26-2.37-.26-4.58-1.57v-5.29a.55.55,0,0,1-.39-.19l-.39-.39-.49,1a2.45,2.45,0,0,0-.29.78,13.08,13.08,0,0,0,.1,3.52c.19,1.83.29,3.07.29,3.72l.39.39.49-1a2.43,2.43,0,0,0,.29-1,9.42,9.42,0,0,1,1.75,1.86,3.54,3.54,0,0,1,.78,2c0,.66-.13,1.08-.39,1.27s-.39.69-.39,1.47c0,.52,0,.65.1.39s.16-.68.29-1.27A7.12,7.12,0,0,1,90.2,143a1.26,1.26,0,0,1,1.17-.79l2.34-1.37a10.2,10.2,0,0,1,1.56-1c1-.52,1.56-.66,1.56-.4l-1.56,10a11.38,11.38,0,0,0-6.53,1.66,10.31,10.31,0,0,1-5.95,1.67c-1.3,0-2.37,0-3.22-.1A11.6,11.6,0,0,1,76.36,151.83ZM27.42,110.91h.39a12.64,12.64,0,0,1,.2-1.66,1.92,1.92,0,0,1,1.17-1.67l-.39-.39-.39-.39-.59-.2-.39.2Zm3.7-6.66c-.52,0-.78.3-.78.88s.26.88.78.88.59-.29.59-.88S31.51,104.25,31.12,104.25Zm2.34,3.33c-.52,0-.78.3-.78.88s.26.88.78.88.78-.29.78-.88S34,107.58,33.46,107.58Zm1-4.11h.78l-.78-.78Zm.78-4.31c.91.27,1.75.53,2.53.79a8,8,0,0,0,2.54.39c0-.91-.26-1.47-.78-1.67a5.73,5.73,0,0,0-1.95-.29H36.29A1,1,0,0,0,35.22,99.16ZM36,134c-.39,0-.59.3-.59.88s.2.88.59.88.58-.29.58-.88S36.39,134,36,134Zm1.56-87.12c-.39,0-.59.23-.59.68s.2.69.59.69.78-.23.78-.69S38.08,46.89,37.56,46.89Zm4.87,67.94a7.06,7.06,0,0,0,.69,3,2.31,2.31,0,0,0,2.24,1.47h.39a.57.57,0,0,0,.39-.2,4.52,4.52,0,0,0,.48-.59c.2-.25.62-.84,1.27-1.76l.2-.58a.61.61,0,0,0-.2-.4c-.91-.26-1.79-.49-2.63-.68A12.37,12.37,0,0,0,42.43,114.83Zm2.34-21.54c0,.13.13.33.39.59l.2.19v1.57c0,.78,0,1.63.09,2.54s.1,1.74.1,2.45v1.47c.39,0,.59-.13.59-.39.26-.13.45-.52.58-1.18a6.28,6.28,0,0,1,.39-1.37l.78-.39.78-.39V96.81A8.28,8.28,0,0,1,49.16,95a12.76,12.76,0,0,0,.49-1.66A1.08,1.08,0,0,0,49,92.21a5.7,5.7,0,0,0-1.46-.39A3.77,3.77,0,0,1,46,91.33,1.43,1.43,0,0,1,45.36,90c-.26.13-.49.52-.69,1.18a5.92,5.92,0,0,0-.29,1.37Zm1.37,41.5c.26-.25.13-.39-.39-.39s-.65.14-.39.39c.13.4.29.59.48.59S46.14,135.19,46.14,134.79Zm1.75-48.35a.69.69,0,0,0-.78.78V88l.78-.78v-.78ZM47.7,24.76a1.35,1.35,0,0,0,.87,1.47,5.71,5.71,0,0,0,1.86.3V23.59a5.82,5.82,0,0,0-1.37.29,3.86,3.86,0,0,0-1.17.49ZM47.89,134c.13.26.39.72.78,1.37a3.06,3.06,0,0,0,1,1.18,3.47,3.47,0,0,0,.48-.88,3.1,3.1,0,0,0,.3-.89V134a2.27,2.27,0,0,0-.3-1c-.19-.39-.36-.58-.48-.58h-.2a.57.57,0,0,1-.39-.2l-.39.2a.69.69,0,0,0-.78.78l-.19.39Zm.78-17.62a4,4,0,0,0,.88-1.56,10.75,10.75,0,0,0,.1-1.57v-1.18c0-.52-.33-.91-1-1.17l-.78,1.17Zm1-14.68c-.52,0-.78.29-.78.88s.26.88.78.88.58-.29.58-.88S50,101.71,49.65,101.71Zm0,7.63a1.67,1.67,0,0,0,1-1.76h-1ZM59.78,116a1.5,1.5,0,0,0-1.55,1,4.62,4.62,0,0,0-.39,1.76c.9,0,1.46-.29,1.65-.88A5.75,5.75,0,0,0,59.78,116ZM61,139.89a1.66,1.66,0,0,0,1.76,1.86c1.17.06,2.27.09,3.31.09,0-1-.61-1.63-1.85-1.76A31.26,31.26,0,0,0,61,139.89Zm2.15-25.46c-.26,1.18-.46,2.13-.59,2.84s-.26,1.47-.39,2.25a12.74,12.74,0,0,1-.39,1.77v1.56c.13,0,.39.3.78.88a6.87,6.87,0,0,0,1.27,1.47c.46.39.81.39,1.07,0s.39-1.69.39-3.91c0-.13.13-.33.39-.59l.39-.39q0-.19-.09-1.08t-.3-1.86c-.13-.65-.22-1.27-.29-1.86s-.1-.94-.1-1.08Zm2.34-29.56a1.78,1.78,0,0,0,1,1.57V84.87Zm1.75,47.58,1-1-1-.79Zm6.63-1.57c0,.65.16,1,.49,1.08s.75.16,1.27.29a3.19,3.19,0,0,1,1.46.88,5.41,5.41,0,0,1,1.07,2.64,4.56,4.56,0,0,1,.39-1.37,2.22,2.22,0,0,1,.78-1.17c0-.13.13-.1.39.1a1.23,1.23,0,0,0,.59.29v1.66c0,.46.51.69,1.56.69,0-.91-.07-2.22-.2-3.92s-.71-2.74-1.75-3.13a3.29,3.29,0,0,0-.78.2,3.21,3.21,0,0,1-1,.19v-3.13L74,130.68Zm3.51-45.23L78.11,88l.59.39.58-.39a1.51,1.51,0,0,1,.2-.58,3.43,3.43,0,0,0,.39-1l.58-3.14c0-.52-.42-.42-1.27.3a3.6,3.6,0,0,1-2,1.07Zm3.51,40.53c-.26,0-.39.2-.39.59s.13.59.39.59C81.36,126.57,81.36,126.18,80.84,126.18Zm1,1.18a.78.78,0,0,0,0,1.56c.39,0,.58-.26.58-.78S82.21,127.36,81.82,127.36Zm.78.78c-.39,0-.59.29-.59.88s.2.88.59.88.39-.29.39-.88S82.85,128.14,82.6,128.14Zm.58,2.54,1-.78h-1Zm2.34-61.47c-.26,0-.55.29-.88.88A10.15,10.15,0,0,0,83.86,72a11.46,11.46,0,0,0-.39,1.86c-.06.59,0,.88.3.88s.55-.29.87-.88A8.93,8.93,0,0,0,85.42,72a9.67,9.67,0,0,0,.39-1.86C85.88,69.5,85.78,69.21,85.52,69.21Zm3.7,64.8.78-.78h-.78Z"/></g></g></svg>
