<svg xmlns="http://www.w3.org/2000/svg" viewBox="0 0 150 140"><defs><style>.cls-1{fill:#603813;}.cls-2{fill:#ffffe0;}</style></defs><title>Settings-knapp</title><g id="Spillskjerm"><path class="cls-1" d="M75.6,6.67c-34.28,0-62.07,28-62.07,62.6s27.79,62.59,62.07,62.59,62.07-28,62.07-62.59S109.88,6.67,75.6,6.67Zm47.23,67.49h-9.41A37.48,37.48,0,0,1,107,90l6.57,6.56a5.67,5.67,0,0,1,0,8l-1,1a5.66,5.66,0,0,1-8,0l-6.52-6.51a37.67,37.67,0,0,1-17.76,6.85v8.91a5.65,5.65,0,0,1-5.66,5.66H73.26a5.65,5.65,0,0,1-5.66-5.66v-9.64a37.66,37.66,0,0,1-13.11-5.82l-6.83,6.83a5.67,5.67,0,0,1-8,0l-1-1a5.67,5.67,0,0,1,0-8l6.75-6.75a37.57,37.57,0,0,1-6.71-16.28H29.42a5.66,5.66,0,0,1-5.66-5.67V67.1a5.65,5.65,0,0,1,5.66-5.66H38.9a37.78,37.78,0,0,1,7.52-16.52l-6.51-6.51a5.67,5.67,0,0,1,0-8l1-1a5.67,5.67,0,0,1,8,0l7,7a37.78,37.78,0,0,1,13-5.17V22a5.66,5.66,0,0,1,5.66-5.66h1.39A5.66,5.66,0,0,1,81.55,22v8.92a37.45,37.45,0,0,1,10.79,3.28l7.29-7.28a5.65,5.65,0,0,1,8,0l1,1a5.67,5.67,0,0,1,0,8l-5.76,5.76a37.8,37.8,0,0,1,10.37,19.75h9.6a5.65,5.65,0,0,1,5.66,5.66v1.39A5.66,5.66,0,0,1,122.83,74.16Z"/><path class="cls-2" d="M74.37,47A20.14,20.14,0,1,0,94.31,67.1,20.06,20.06,0,0,0,74.37,47Z"/><path class="cls-2" d="M122.83,61.44h-9.6a37.8,37.8,0,0,0-10.37-19.75l5.76-5.76a5.67,5.67,0,0,0,0-8l-1-1a5.65,5.65,0,0,0-8,0l-7.29,7.28a37.45,37.45,0,0,0-10.79-3.28V22a5.66,5.66,0,0,0-5.66-5.66H74.5A5.66,5.66,0,0,0,68.84,22v9.21a37.78,37.78,0,0,0-13,5.17l-7-7a5.67,5.67,0,0,0-8,0l-1,1a5.67,5.67,0,0,0,0,8l6.51,6.51A37.78,37.78,0,0,0,38.9,61.44H29.42a5.65,5.65,0,0,0-5.66,5.66v1.39a5.66,5.66,0,0,0,5.66,5.67h9.29a37.57,37.57,0,0,0,6.71,16.28l-6.75,6.75a5.67,5.67,0,0,0,0,8l1,1a5.67,5.67,0,0,0,8,0l6.83-6.83a37.66,37.66,0,0,0,13.11,5.82v9.64a5.65,5.65,0,0,0,5.66,5.66h1.39a5.65,5.65,0,0,0,5.66-5.66V105.9a37.67,37.67,0,0,0,17.76-6.85l6.52,6.51a5.66,5.66,0,0,0,8,0l1-1a5.67,5.67,0,0,0,0-8L107,90a37.48,37.48,0,0,0,6.41-15.85h9.41a5.66,5.66,0,0,0,5.66-5.67V67.1A5.65,5.65,0,0,0,122.83,61.44ZM74.37,95.91A28.82,28.82,0,1,1,103,67.1,28.74,28.74,0,0,1,74.37,95.91Z"/><path class="cls-1" d="M103,67.1A28.61,28.61,0,1,0,74.37,95.91,28.75,28.75,0,0,0,103,67.1ZM74.37,87.24A20.14,20.14,0,1,1,94.31,67.1,20.07,20.07,0,0,1,74.37,87.24Z"/></g></svg>
