<svg xmlns="http://www.w3.org/2000/svg" viewBox="0 0 240 220"><defs><style>.cls-1{fill:#f9e8d8;}.cls-2{fill:#f15a24;}.cls-3{fill:#231f20;}.cls-4{fill:#001300;}</style></defs><title>Strike-2</title><g id="UI"><g id="Knapper"><path class="cls-1" d="M155.05,91.81v-1H24.11c.07,1.85.17,3.69.31,5.54L25,94.67l24.8,8-1.87,5.82c.06.09.11.18.16.27s.14.21.19.31.13.25.19.38a2.59,2.59,0,0,1,.14.29c0,.13.1.25.14.37l.1.28.09.36L49,111c0,.12,0,.23,0,.35l0,.24c0,.11,0,.22,0,.34s0,.14,0,.2,0,.23,0,.35a.86.86,0,0,1,0,.16c0,.15,0,.29-.05.43v0a5.14,5.14,0,0,1-.27,1,2.33,2.33,0,0,1-.11.28c-.09.22-.2.43-.31.64a2.26,2.26,0,0,1-.16.26,5,5,0,0,1-.47.64l-.12.14a6.35,6.35,0,0,1-.7.67l-.22.17a5.47,5.47,0,0,1-.61.42l-.29.18a7.3,7.3,0,0,1-.68.36l-.25.13c-.32.14-.65.27-1,.39l-.21.07c-.28.1-.57.18-.86.26l-.36.09c-.26.07-.53.12-.8.18l-.34.06c-.38.07-.75.13-1.13.17h0c-.38,0-.76.08-1.13.1l-.37,0-.83,0H36.07l-.72,0-.47,0-.77-.08-.37,0L32.66,119l-1.09-.22-.35-.08-.87-.22-.41-.12-1-.3-.31-.1c-.43-.15-.86-.31-1.29-.49l-.08,0a166.2,166.2,0,0,0,14.6,42.46l4.91,1.74,8,2.84v0l5.4,1.92.22,0q.87-.08,1.74-.21a26.48,26.48,0,0,0,3.21-.74,14.82,14.82,0,0,0,4.91-2.27v0l.1-.12a.64.64,0,0,0,.1-.13l.28-.29.06-.06.18-.22.59-.43a5.7,5.7,0,0,1,1-.53l.31-.16.63-.15a5,5,0,0,1,.87-.11h0l.42-.08.94.16.51.13.12,0,.11,0,9.67-6-6,10.45,0,.18h0l0,.35.06.36-.15.9c-1.09,5.85-6.88,12.84-15.45,14.26a18,18,0,0,1-2.93.24c-.63,0-1.24,0-1.84-.09h-.12c-.57-.06-1.12-.16-1.66-.27l-.18,0c-.52-.11-1-.25-1.52-.39l-.2-.07c-.48-.15-.94-.32-1.39-.49l-.11,0c10.36,13.4,21.8,21.69,31.87,22.77,7.66.82,16.24-2.49,24.82-9.57,22.35-18.42,39.58-56.76,42.87-95.39l.06-.68.24-.63a11.88,11.88,0,0,0,.83-4.36v-1ZM63.91,138.29l-1.2,2.88L62,143a6,6,0,0,1-2.51,2.85,5.86,5.86,0,0,1-2.19.74,6.3,6.3,0,0,1-.75.05,5.9,5.9,0,0,1-2.62-.61,6,6,0,0,1-2.09-1.71l-1.23-1.62L49,140.56a5.73,5.73,0,0,1-1.16-3.45,4.6,4.6,0,0,1,.05-.74,5.63,5.63,0,0,1,4.89-4.88l5.44-.7h0a5.47,5.47,0,0,1,4.56,1.55,6.17,6.17,0,0,1,.48.54A5.49,5.49,0,0,1,63.91,138.29Zm31.68-28.64a6.49,6.49,0,0,1,1.91,4.87c0,.17,0,.35,0,.53s0,.19,0,.29l0,.15c-.81,4-5.17,5.93-9.52,6.85h0c-.55.11-1.09.21-1.62.29a29.37,29.37,0,0,1-3.63.37l-.78,0-.55,0h-.39l-1,0h0c-3.77-.2-9.85-1.37-13.27-4.31A6.66,6.66,0,0,1,64,113.53a6.48,6.48,0,0,1,2.09-4.66,9.89,9.89,0,0,1,1-.82l.2-.15c.34-.24.71-.47,1.09-.69l.08,0L67.05,103,98.34,92.51l3.34,10-11.45,3.84.38.15.3.13c.25.1.48.21.72.32l.15.07c.28.13.55.27.82.42l.23.13.55.33.27.17.46.32.26.19.44.36.21.17C95.22,109.27,95.41,109.46,95.59,109.65Z"/><path class="cls-2" d="M94.37,108.56l-.26-.19-.46-.32-.27-.17-.55-.33-.23-.13c-.27-.15-.54-.29-.82-.42l-.15-.07c-.24-.11-.47-.22-.72-.32l-.3-.13-.38-.15,11.45-3.84-3.34-10L67.05,103l1.39,4.16-.08,0c-.38.22-.75.45-1.09.69l-.2.15a9.89,9.89,0,0,0-1,.82A6.48,6.48,0,0,0,64,113.53a6.66,6.66,0,0,0,2.54,5.19C70,121.66,76,122.83,79.81,123h0l1,0h.39l.55,0,.78,0a29.37,29.37,0,0,0,3.63-.37c.53-.08,1.07-.18,1.62-.29h0c4.35-.92,8.71-2.9,9.52-6.85l0-.15c0-.1,0-.19,0-.29s0-.36,0-.53a6.49,6.49,0,0,0-1.91-4.87c-.18-.19-.37-.38-.57-.56l-.21-.17Z"/><path class="cls-3" d="M200.83,48c-12.12.6-27.16,3-42.86,7,.05.11.09.23.14.35.34.75.66,1.52,1,2.28l.15.35c.35.88.68,1.77,1,2.67l.24.72c.24.68.46,1.37.68,2.06l.24.79c.26.85.5,1.71.73,2.58,0,0,0,.11,0,.17.24.92.46,1.84.66,2.77.06.26.11.53.16.79.15.7.28,1.4.41,2.1.05.27.09.54.14.81q.24,1.41.42,2.82s0,.07,0,.1c.12.91.21,1.82.29,2.74,0,.11,0,.22,0,.33,15.63-4.62,30-10.18,40.77-15.86,13.07-6.87,16.54-11.59,16.83-12.94C221,49.54,215.57,47.23,200.83,48Z"/><path class="cls-2" d="M231.1,48c-1.93-7.08-11.31-10.24-28.67-9.66-13.68.46-31,3.25-49.06,7.9a75.07,75.07,0,0,0-138.88,35h0v.44c-.07,1.29-.11,2.6-.11,3.91V90.8h.25a179.43,179.43,0,0,0,17,69.83l-.84,3.9-13.37-2.62,1.89.85-3.48-.64L30,168.19l-1.2,5.59L40.08,176c13.65,21.76,30.19,35.13,45.59,36.78A30.68,30.68,0,0,0,89,213c9.29,0,19.09-4.06,28.55-11.86,24.07-19.85,42.6-60.48,46.23-101.28A21.25,21.25,0,0,0,165,92.7V89c18-5.18,34.28-11.56,46.29-18.11C226.55,62.61,233,55.12,231.1,48Zm-76.43,49-.24.63-.06.68c-3.29,38.63-20.52,77-42.87,95.39-8.58,7.08-17.16,10.39-24.82,9.57-10.07-1.08-21.51-9.37-31.87-22.77l.11,0c.45.17.91.34,1.39.49l.2.07c.49.14,1,.28,1.52.39l.18,0c.54.11,1.09.21,1.66.27H60c.6.06,1.21.09,1.84.09a18,18,0,0,0,2.93-.24c8.57-1.42,14.36-8.41,15.45-14.26l.15-.9-.06-.36,0-.35h0l0-.18,6-10.45-9.67,6-.11,0-.12,0-.51-.13-.94-.16-.42.08h0a5,5,0,0,0-.87.11l-.63.15-.31.16a5.7,5.7,0,0,0-1,.53l-.59.43-.18.22-.06.06-.28.29a.64.64,0,0,1-.1.13l-.1.12v0a14.82,14.82,0,0,1-4.91,2.27,26.48,26.48,0,0,1-3.21.74q-.87.14-1.74.21l-.22,0-5.4-1.92v0l-8-2.84-4.91-1.74a166.2,166.2,0,0,1-14.6-42.46l.08,0c.43.18.86.34,1.29.49l.31.1,1,.3.41.12.87.22.35.08,1.09.22,1.08.16.37,0,.77.08.47,0,.72,0H37.7l.83,0,.37,0c.37,0,.75-.06,1.13-.1h0c.38,0,.75-.1,1.13-.17l.34-.06c.27-.06.54-.11.8-.18l.36-.09c.29-.08.58-.16.86-.26l.21-.07c.35-.12.68-.25,1-.39l.25-.13a7.3,7.3,0,0,0,.68-.36l.29-.18a5.47,5.47,0,0,0,.61-.42l.22-.17a6.35,6.35,0,0,0,.7-.67l.12-.14a5,5,0,0,0,.47-.64,2.26,2.26,0,0,0,.16-.26c.11-.21.22-.42.31-.64a2.33,2.33,0,0,0,.11-.28,5.14,5.14,0,0,0,.27-1v0c0-.14,0-.28.05-.43a.86.86,0,0,0,0-.16c0-.12,0-.23,0-.35s0-.13,0-.2,0-.23,0-.34l0-.24c0-.12,0-.23,0-.35l-.06-.26-.09-.36-.1-.28c0-.12-.09-.24-.14-.37a2.59,2.59,0,0,0-.14-.29c-.06-.13-.12-.25-.19-.38s-.12-.2-.19-.31-.1-.18-.16-.27l1.87-5.82-24.8-8-.54,1.67c-.14-1.85-.24-3.69-.31-5.54H155.05v1l.45-.12v1A11.88,11.88,0,0,1,154.67,97.06ZM89.45,20.85a65,65,0,0,1,64.6,59.65H24.86A65,65,0,0,1,89.45,20.85ZM205.06,63.49c-10.82,5.68-25.14,11.24-40.77,15.86,0-.11,0-.22,0-.33-.08-.92-.17-1.83-.29-2.74,0,0,0-.07,0-.1q-.18-1.41-.42-2.82c-.05-.27-.09-.54-.14-.81-.13-.7-.26-1.4-.41-2.1,0-.26-.1-.53-.16-.79-.2-.93-.42-1.85-.66-2.77,0-.06,0-.12,0-.17-.23-.87-.47-1.73-.73-2.58l-.24-.79c-.22-.69-.44-1.38-.68-2.06l-.24-.72c-.32-.9-.65-1.79-1-2.67l-.15-.35c-.31-.76-.63-1.53-1-2.28-.05-.12-.09-.24-.14-.35,15.7-3.91,30.74-6.36,42.86-7,14.74-.73,20.13,1.58,21.06,2.59C221.6,51.9,218.13,56.62,205.06,63.49Z"/><path class="cls-3" d="M154.05,80.5a64.8,64.8,0,0,0-129.19,0Z"/><path class="cls-4" d="M56,137.13a3.69,3.69,0,0,0-1,.3,4.38,4.38,0,0,0,.64,1.23,4,4,0,0,0,.84.81,4,4,0,0,0,.51-.88,3.77,3.77,0,0,0,.29-1.4A3.73,3.73,0,0,0,56,137.13Z"/><path class="cls-2" d="M62.73,132.34a5.47,5.47,0,0,0-4.56-1.55h0l-5.44.7a5.63,5.63,0,0,0-4.89,4.88,4.6,4.6,0,0,0-.05.74A5.73,5.73,0,0,0,49,140.56l1.62,2.11,1.23,1.62A6,6,0,0,0,53.89,146a5.9,5.9,0,0,0,2.62.61,6.3,6.3,0,0,0,.75-.05,5.86,5.86,0,0,0,2.19-.74A6,6,0,0,0,62,143l.75-1.8,1.2-2.88a5.49,5.49,0,0,0-.7-5.41A6.17,6.17,0,0,0,62.73,132.34ZM57,138.59a4,4,0,0,1-.51.88,4,4,0,0,1-.84-.81,4.38,4.38,0,0,1-.64-1.23,3.69,3.69,0,0,1,1-.3,3.73,3.73,0,0,1,1.25.06A3.77,3.77,0,0,1,57,138.59Z"/></g></g></svg>
