<svg xmlns="http://www.w3.org/2000/svg" viewBox="0 0 930 300"><defs><style>.cls-1{fill:#fff;}.cls-2{fill:none;}.cls-3{fill:#fbb08d;}.cls-4{fill:#c9f2de;}</style></defs><title>Artboard 94</title><g id="UI"><g id="E"><path class="cls-1" d="M759.41,160.31a2.23,2.23,0,0,0-1.47.49c-.41.33-.61,1.06-.61,2.19h-.43a1,1,0,0,0-.17-.43.48.48,0,0,0-.38-.28l-.11-.14c-1.17,0-1.75.75-1.75,2.26a.33.33,0,0,0,0,.21.33.33,0,0,1,.06.21A1.65,1.65,0,0,1,756,164c.62,0,1.12-.07,1.48-.07v.85a4.53,4.53,0,0,1-.22.85,3.48,3.48,0,0,1-.32.84v.57a4.3,4.3,0,0,1,.76.84,4.71,4.71,0,0,1,.66,1v.7c0,.1,0,.15.11.15a4.12,4.12,0,0,1-.33,1.62,17.77,17.77,0,0,0-.66,1.9l-1.09-1c0,.1,0,.34-.06.71s0,.66,0,.85a2,2,0,0,0,.27,1.2,1.11,1.11,0,0,0,.6.42,2.08,2.08,0,0,1,.66.28,1.66,1.66,0,0,1,.55.92.45.45,0,0,1-.22.42,1.2,1.2,0,0,0-.33.28,5.31,5.31,0,0,0-1.42,3.95,2.76,2.76,0,0,0,.22.71.78.78,0,0,0,.33.42v.28a.66.66,0,0,0,.05.28.75.75,0,0,1,.06.29,2.59,2.59,0,0,1-.83,2.18,2.28,2.28,0,0,0-.82,1.91,5.28,5.28,0,0,0,.6,2.53,5.55,5.55,0,0,1,.61,2.68,6.54,6.54,0,0,1-.11.92,5.41,5.41,0,0,0-.11.78,14.88,14.88,0,0,1-.17,1.9c-.11.8-.22,1.58-.32,2.33s-.21,1.41-.28,2-.15.85-.22.85h-1.2v5.22c.51,0,.87.4,1.09,1.2a9.24,9.24,0,0,1,.33,2.46,1.65,1.65,0,0,0-.11.57.68.68,0,0,0-.11.42v.14q-.11-.29-.33-.84a1.48,1.48,0,0,0-.43-.71c0,.09-.11.14-.33.14a11.47,11.47,0,0,0,.22,2.26,1.23,1.23,0,0,0,1.31,1.13c0,.84,0,2.14.11,3.88a41.16,41.16,0,0,1-.11,5.21,21.1,21.1,0,0,1-.88,4.66c-.43,1.36-1.2,2-2.3,2v-1.55h-.32l-1.1,2.82a8.06,8.06,0,0,0-2.35-1.62,6.43,6.43,0,0,0-2.69-.63,3.82,3.82,0,0,0-1.69.7,6.72,6.72,0,0,0-1.81,1.55,11,11,0,0,0,.11-1.83,6.25,6.25,0,0,0-.11-1.55c0-.1-.15-.31-.44-.64s-.58-.68-.87-1.06a8.59,8.59,0,0,0-1.32-1.26c-.14,0-.4.26-.76.77s-.63.78-.77.78-.24-.19-.49-.57a1.79,1.79,0,0,1-.39-1l.88-.57v-4h-1.32v-1.27a3,3,0,0,0-1.14.14,1.81,1.81,0,0,1-.83.15.6.6,0,0,1-.6-.36,5,5,0,0,1-.27-.7c-.08-.24-.15-.47-.22-.71a.44.44,0,0,0-.44-.35c-.44,0-.73.56-.87,1.69s-.22,1.84-.22,2.12c-.15,0-.28-.24-.39-.71a5,5,0,0,1-.16-1v-7.2c0-.37-.15-.58-.44-.63a5.42,5.42,0,0,1-1-.28,2.4,2.4,0,0,1-1-1.06,7.64,7.64,0,0,1-.6-3.11h-.22v6.35l-.54.57a17.13,17.13,0,0,1-1.15-2.47,7.64,7.64,0,0,1-.39-2.61,4.36,4.36,0,0,1,.5-1.76c.32-.71.67-1.39,1-2.05a17.66,17.66,0,0,1,1-1.69c.32-.47.45-.75.38-.85L727.55,199v4.66a.87.87,0,0,0-1,.77,2.49,2.49,0,0,1-.87,1.48l-.77-1.41v-6.77c0-.47-.2-.7-.6-.7h-.82a2.85,2.85,0,0,0-1.81.56c-.48.38-.53,1.36-.16,3l-1.87-1v-.28a4.45,4.45,0,0,1,1-2.61,12.51,12.51,0,0,0,1.42-2.32,2.25,2.25,0,0,0-.76-1,5.82,5.82,0,0,0-1.21-.71,8.35,8.35,0,0,1-1.31-.7,2.64,2.64,0,0,1-1-1.13v3.53c-.65-.75-1.37-1.63-2.13-2.61s-1.45-1.91-2-2.75l-.87,1.27a1.88,1.88,0,0,0-.55.21,1.77,1.77,0,0,0-.55.35l-2.3,8.74v1.13a4.66,4.66,0,0,0,.27,1.77,4.84,4.84,0,0,1,.28,1.9,3,3,0,0,1-.28,1.48,13.75,13.75,0,0,1-1.15,1.62q.22,4.09.72,8a64.14,64.14,0,0,1,.49,8.11,36.28,36.28,0,0,1-.38,5.78,7.88,7.88,0,0,1-2.36,4.24v-.57l.88-1.83a1,1,0,0,0,0-.64,5.85,5.85,0,0,1,0-.63c-.59,0-1-.1-1.1-.28a1,1,0,0,0-.87-.29c0,.1,0,.14-.11.14s-.15.15-.22.15a33.74,33.74,0,0,1-.49,4.16,2.27,2.27,0,0,1-2.47,2h-.33a18.61,18.61,0,0,0-.93-2.82q-.5-1.12-.93-2a10.33,10.33,0,0,1-.71-2.12,15,15,0,0,1-.27-3.17,10.48,10.48,0,0,1,.32-2.89,8.92,8.92,0,0,0,.33-2.61,24,24,0,0,0-.76-5.86,24.93,24.93,0,0,1-.77-6.13,8.82,8.82,0,0,1,.33-2.61,8.87,8.87,0,0,0,.33-2.61c0-1,0-2.42-.11-4.16s-.19-3.5-.33-5.29-.31-3.43-.49-4.94a10.24,10.24,0,0,0-.72-3.1h.88a5.14,5.14,0,0,0-.44-2.11,5.56,5.56,0,0,1-.44-2.26c0-.56.19-.82.55-.78s.55-.3.55-1a2.3,2.3,0,0,0-.55-1.77,2.8,2.8,0,0,1-.55-2,8.08,8.08,0,0,1,.33-2.26,8,8,0,0,0,.33-2.26,1.21,1.21,0,0,0-.77-1.27,2.18,2.18,0,0,1-1.2-1.41,21.88,21.88,0,0,0-.6-4.58,17.12,17.12,0,0,1-.49-4.3c0-.57.09-.92.27-1.06A1.51,1.51,0,0,1,696,158a1.55,1.55,0,0,0,.54-.28c.19-.14.28-.45.28-.92v-.56a2.36,2.36,0,0,0-.28-.71,2.51,2.51,0,0,1-.27-.7,8.32,8.32,0,0,1,.33-1.2c.22-.71.45-1.41.71-2.12s.51-1.36.77-2,.42-.92.49-.92a2.41,2.41,0,0,1,.66,1.27c.07.47.4.7,1,.7a3,3,0,0,0,2.25-1,2.85,2.85,0,0,1,2.13-1h1c-.22,0-.33.24-.33.71a3.58,3.58,0,0,0,.27,1.62,2.19,2.19,0,0,0,.66.77,3.34,3.34,0,0,1,.66.64,2,2,0,0,1,.27,1.2,1.72,1.72,0,0,1-.44,1.27c0,.37.11.56.33.56l.44-.28.44-.28a.93.93,0,0,1,.38.14.44.44,0,0,1,.27.42l.44,2.68a1.21,1.21,0,0,0,.82,1,2.76,2.76,0,0,1,1.26.77,5.55,5.55,0,0,1,1.15,2.4,24.15,24.15,0,0,1,.5,5.85.61.61,0,0,0,.6-.49,5.15,5.15,0,0,0,.22-1.13,10.88,10.88,0,0,1,.16-1.2.61.61,0,0,1,.66-.56q.33,0,.66.84c.21.57.43,1.23.65,2s.4,1.48.55,2.19a8.1,8.1,0,0,1,.22,1.48,2.31,2.31,0,0,1,1.09-.07,4.11,4.11,0,0,1,1.48.42,3.51,3.51,0,0,1,1.26,1.06,2.64,2.64,0,0,1,.55,1.69l-.22.28-.22.28a.5.5,0,0,0-.11.29v1.12a4.12,4.12,0,0,1,2.14.36,1.55,1.55,0,0,1,.6,1.13c.07.51.13,1.17.16,2a7.15,7.15,0,0,0,.82,2.75c.66-.28,1.43.05,2.3,1a14.32,14.32,0,0,1,2.36,3.59,26,26,0,0,1,1.64,4.45,7.41,7.41,0,0,1,.28,3.52l1-1.55a10.33,10.33,0,0,1,1.32,1.83c.43.76.85,1.58,1.25,2.47s.75,1.74,1,2.54a9.76,9.76,0,0,1,.55,2.05,1.6,1.6,0,0,1,1.75.14,5.77,5.77,0,0,1,1.15,1.34l1,1.55a1.89,1.89,0,0,0,1.37.91v-.42a4.29,4.29,0,0,1-.11-1.13,9.57,9.57,0,0,0-.11-1.41c-.07-.47-.15-1-.22-1.55h-.66a3.22,3.22,0,0,1,.28-1,12.25,12.25,0,0,1,.71-1.48q.44-.77.87-1.41a3.19,3.19,0,0,1,.66-.77v-6.35a2.12,2.12,0,0,1,.17-.56,2.05,2.05,0,0,0,.16-.71c0-.19,0-.63-.11-1.34a6.88,6.88,0,0,0-.22-1.34v-1.41c0-1.6.06-3.1.17-4.51s.16-2.91.16-4.51v-.71c0-.19,0-.75-.11-1.69a9.12,9.12,0,0,0-.22-1.7q0-.42.33-.42a4.26,4.26,0,0,1,.6.07,1,1,0,0,1,.6.35,3.11,3.11,0,0,0,.39-1.26c.11-.66.2-1.37.27-2.12s.13-1.48.17-2.19,0-1.24,0-1.62v-.28a8,8,0,0,0-1.31-1.76,3.65,3.65,0,0,1-.77-2.61,1,1,0,0,1,.27-.71,3.06,3.06,0,0,1,.66-.49,2.11,2.11,0,0,0,.66-.57,2,2,0,0,0,.27-1.19H746c0-2-.06-3.86-.17-5.65s-.16-3.57-.16-5.35v-.57l.44-2c.36.19.61.75.76,1.69a16.55,16.55,0,0,1,.22,1.69h.88a16.55,16.55,0,0,0-.44-3.81,16.42,16.42,0,0,1-.44-3.81,2.31,2.31,0,0,1,2.52-2.82,1.11,1.11,0,0,1,1.15.71,6.56,6.56,0,0,1,.38,1.48c.07.52.15,1,.22,1.48s.26.71.55.71v6.06c0,.1.23.4.71.92a13.37,13.37,0,0,0,1,1.06h.11c.73,0,1.19-.22,1.37-.64a3.55,3.55,0,0,0,.27-1.41v-1.55a1.34,1.34,0,0,1,.66-1.2l.22-.14.11.14a13,13,0,0,1,.33,1.27c.14.66.31,1.36.49,2.12a15.8,15.8,0,0,0,.66,2.11,3.76,3.76,0,0,0,.82,1.41l-2.63,4v1.41a4,4,0,0,0,1.37.78,4.87,4.87,0,0,0,1.59.49ZM700,191.62c-.14-.1-.22,0-.22.21s.08.35.22.35C700.24,191.81,700.24,191.62,700,191.62Zm.44,37.23c-.15-.09-.22,0-.22.28s.07.43.22.43C700.54,229.08,700.54,228.85,700.39,228.85Zm1-74c-.15-.1-.22,0-.22.21s.07.35.22.35a.42.42,0,0,0,.22-.35A.19.19,0,0,0,701.38,154.81Zm7.11,68q-.54,0-.54.63c0,.42.18.64.54.64s.33-.22.33-.64S708.71,222.79,708.49,222.79Zm0-23.28a1.48,1.48,0,0,0,.55-1.26h-.55Zm1.21-9.3c.15-.19.13-.29-.06-.29s-.27.1-.27.29.15.28.22.28S709.7,190.4,709.7,190.21Zm0,4.79h.66v-1.55h-.66Zm1-11.7h.55v-.85Zm0,3.8v1a1.18,1.18,0,0,0,.55.85v-3.53a.68.68,0,0,0-.55.71Zm3.84-1.12a10.94,10.94,0,0,0,.27,2.25c.18.85.6,1.27,1.26,1.27.22,0,.33-.19.33-.56a15.11,15.11,0,0,0-.38-2.68c-.26-1.22-.57-1.93-.94-2.12a7.47,7.47,0,0,0-.43.85A2.89,2.89,0,0,0,714.52,186Zm1.53-6.77c-.15-.1-.22,0-.22.28s.07.42.22.42a.68.68,0,0,0,.11-.42C716.16,179.3,716.12,179.21,716.05,179.21Zm0-4.09.33.56v-1.83c-.07,0-.15.09-.22.28a1.43,1.43,0,0,0-.11.42v.57Zm3.61,15.09v-.71h-.43Zm2.41.56c-.14-.09-.22,0-.22.35s.08.5.22.5a.55.55,0,0,0,.22-.5C722.29,190.89,722.22,190.77,722.07,190.77Zm6.14,5.5c-.37,0-.55.24-.55.71s.18.7.55.7.43-.23.43-.7S728.5,196.27,728.21,196.27Zm0-2c-.15-.1-.22,0-.22.28s.07.42.22.42C728.57,194.53,728.57,194.3,728.21,194.3Zm1.42,3.95c-.37,0-.55.21-.55.63s.18.63.55.63.33-.21.33-.63S729.85,198.25,729.63,198.25Zm4.6,4.65a7.5,7.5,0,0,0-.93.85,2,2,0,0,0-.71,1.41h1.64Zm7.12,21.16h.43v-2h-.43Zm2.51,2.11.33-.14.77-.42h-1.1Zm.33-39.35c-.14,0-.22.19-.22.57s.08.56.22.56.44-.19.44-.56S744.48,186.82,744.19,186.82Zm1.87-21.15c-.22,0-.33.23-.33.7s.11.71.33.71.32-.24.32-.71S746.27,165.67,746.06,165.67Zm0,43.58q-.33,0-.33.63c0,.42.11.64.33.64s.32-.22.32-.64S746.27,209.25,746.06,209.25Zm.1,14a4.82,4.82,0,0,0,.39,2.4,1.82,1.82,0,0,0,1.59.56,4.85,4.85,0,0,0-.44-2A1.57,1.57,0,0,0,746.16,223.21Zm.88-26.94c-.29,0-.44.24-.44.71s.15.7.44.7.44-.23.44-.7S747.33,196.27,747,196.27Zm.55-10.86c-.29,0-.44.24-.44.71s.15.7.44.7c.14,0,.22-.23.22-.7S747.73,185.41,747.59,185.41Zm2.3,40.62c-.29,0-.44.26-.44.78s.15.77.44.77.22-.26.22-.77S750,226,749.89,226Zm0-49.36c-.15-.19-.22-.12-.22.21s.07.49.22.49A.68.68,0,0,0,750,177C750,176.76,750,176.67,749.89,176.67Zm.33-35.4c-.15,0-.22.23-.22.7s.07.71.22.71c.36,0,.54-.24.54-.71S750.58,141.27,750.22,141.27Zm.65,40h.77l-.44-.56Zm.33,2.82c-.15,0-.22.21-.22.64s.07.63.22.63.33-.21.33-.63S751.42,184.14,751.2,184.14Zm0,2.68.44-.84h-.44Zm1.42-18.62c-.14,0-.21.29-.21.85s.07.85.21.85c.3,0,.44-.29.44-.85S752.92,168.2,752.62,168.2Zm2.3,9.17q-.21,0-.21.57c0,.37.07.56.21.56s.33-.19.33-.56S755.14,177.37,754.92,177.37Zm.44-7.47c.15-.19.11-.29-.11-.29s-.33.1-.33.29.17.28.28.28S755.36,170.09,755.36,169.9Zm0,21.72c-.14-.19-.22,0-.22.56s.08.8.22.71a1,1,0,0,0,.33-.78C755.69,191.78,755.58,191.62,755.36,191.62Zm0-38.08a3.48,3.48,0,0,0,1.32-3h-1.32Zm0,13.54H756l-.66-.57Z"/><path class="cls-1" d="M782.08,231.67a5.9,5.9,0,0,0-.87-2.11c-.44-.66-.92-.94-1.43-.85a1.89,1.89,0,0,0-1.26.85,2,2,0,0,1-1.37.84,1.71,1.71,0,0,1-1.69-.28,2.81,2.81,0,0,1-.82-1.48,14.17,14.17,0,0,1-.33-2.19c-.08-.84-.15-1.64-.22-2.39a9.29,9.29,0,0,1-1.59.42c-.55.09-.79.66-.71,1.69a7.65,7.65,0,0,0-2.14-2.82,3.93,3.93,0,0,0-2.9-1.27q0-.71-.27-3a21.5,21.5,0,0,0-.5-3,14.79,14.79,0,0,0-.11-1.62q-.11-1.07-.21-2c-.08-.61-.15-1.43-.22-2.47q0-1.12-.06-4.23c0-2.07,0-4.25,0-6.56s0-4.49,0-6.56.06-3.52.06-4.37a36.7,36.7,0,0,0,.22-4.16,20,20,0,0,1,.32-3.88c-.07-.18.06-.49.39-.91a2.49,2.49,0,0,0,.49-.78,23.76,23.76,0,0,0,0-2.75c0-.8,0-1.55,0-2.26a8.44,8.44,0,0,1,.44-2.18,8.55,8.55,0,0,1,1.37-2.4v-.14c0-.09,0-.14.06-.14s.05,0,.05-.14l.44.28c.14,0,.31.16.49.49s.35.45.49.35a1.85,1.85,0,0,0,1,.08c.51-.05.8-.12.88-.22l1.64,4.09a1.34,1.34,0,0,0,.55.14.65.65,0,0,0,.33.15.29.29,0,0,1,.21.14l.11.14a.47.47,0,0,0,.11.28l-.11.14c0,.1,0,.31-.05.64a6.73,6.73,0,0,0-.06.77,2.9,2.9,0,0,1,1.59-.42,4.45,4.45,0,0,1,1.75.35,4,4,0,0,1,1.48,1.13,3.53,3.53,0,0,1,.77,2,1.81,1.81,0,0,1-.6,1.55,17.26,17.26,0,0,1-1.65,1.41c-.62.47-1.2.94-1.75,1.41a2.47,2.47,0,0,0-.93,1.27,1.29,1.29,0,0,0,.17,1.41,5.15,5.15,0,0,0,1.31,1,14.73,14.73,0,0,1,1.53,1.06,1.72,1.72,0,0,1,.71,1.41,1.36,1.36,0,0,1-.49,1.2,2.91,2.91,0,0,1-1,.49q-.56.15-1.2.36a1.62,1.62,0,0,0-1,1.05,1.93,1.93,0,0,0,.17,1.49,15.13,15.13,0,0,0,.82,1.48c.29.47.54.91.76,1.34a1.57,1.57,0,0,1-.43,2.11,7,7,0,0,1-.88.35,1.67,1.67,0,0,0-.77.57,2.29,2.29,0,0,0-.22,1.55,2.51,2.51,0,0,0,.39,1.34,1.1,1.1,0,0,0,.93.64c.51-.1.69-.31.55-.64a2.3,2.3,0,0,1,.21-1.62h.22l.22-.14c.07,0,.15.09.22.28a1.43,1.43,0,0,1,.11.42,4.92,4.92,0,0,1-.16,2.19,3.78,3.78,0,0,1-.66.85,2.89,2.89,0,0,0-.66.91,4.69,4.69,0,0,0-.05,2.26,3,3,0,0,1,1.31,0c.22.09.51-.09.88-.57v.15a8.74,8.74,0,0,1-.22,3.38,8,8,0,0,0-.22,3.24,4.33,4.33,0,0,0,.44,1.91,3.88,3.88,0,0,0,1.64,1.06,4.48,4.48,0,0,1,2.08-.92,20.77,20.77,0,0,0,2.36-.56,8.14,8.14,0,0,0,2.08-1,3.29,3.29,0,0,0,1.26-2l.6.43a1.11,1.11,0,0,0,.6.28h.11a2.39,2.39,0,0,0,1.26-.5,2.08,2.08,0,0,1,.93-.49l.44.14a.51.51,0,0,1,.22.07.56.56,0,0,0,.32.07.78.78,0,0,0,.44.14q.11,0,.06-.21c0-.14.45-.3,1.48-.49a1.74,1.74,0,0,1-.66.14H793l.11-.14a.82.82,0,0,1,.49.21.86.86,0,0,0,.39.21c.07-.19.2-.61.38-1.27s.31-1.08.38-1.27a1.46,1.46,0,0,0,.72-.42q.48-.42.6-.42a8.87,8.87,0,0,0,.27-1.06,8.06,8.06,0,0,0,.17-.92h.21c.73,0,1.1.33,1.1,1a.41.41,0,0,1-.05.21.33.33,0,0,0-.06.21v.43a7.82,7.82,0,0,0-.49.91c-.26.52-.35.87-.28,1.06s0,.49.06.92.07.91.11,1.48.09,1.08.16,1.55.15.85.22,1.13a1.48,1.48,0,0,1-.71,1.06,7.8,7.8,0,0,1-1,.35,2.12,2.12,0,0,0-.82.42c-.22.19-.29.57-.22,1.13s.37.94.88.85c.07,0,.11-.05.11-.15a10.6,10.6,0,0,0,1.59-1.12l1.37-1.13.32.7-.87,1.77c-.44.89-.92,1.83-1.43,2.82s-1,1.88-1.47,2.68-.82,1.2-1,1.2a1.74,1.74,0,0,1-.66.14c-.44,0-.66-.14-.66-.43a6.25,6.25,0,0,1,.11-.7,5.28,5.28,0,0,0,.11-.85v-.28a.92.92,0,0,0,0-.28,1.19,1.19,0,0,1-.06-.43,3,3,0,0,0-.38-1.41,2.69,2.69,0,0,0-.82-1l-1.32,2.11,1.21,1.13a1.42,1.42,0,0,1-.77,1.06,2.84,2.84,0,0,0-1.09,1.06,12.91,12.91,0,0,0-.72,2.32,14.87,14.87,0,0,1-.32,1.48,1.59,1.59,0,0,1-.72.92,4.8,4.8,0,0,1-2,.49,5.76,5.76,0,0,1-1.86.22A8.76,8.76,0,0,1,782.08,231.67Zm-9.74-72.49a1.94,1.94,0,0,0-.61.35,1.83,1.83,0,0,1-.6.35h-.33a.28.28,0,0,1-.38,0,.38.38,0,0,1-.17-.28,38.15,38.15,0,0,1-2.13-5.78A31.14,31.14,0,0,1,767,147.9a8.89,8.89,0,0,1,.44-1.63c.29-.89.64-1.81,1-2.75a28.89,28.89,0,0,1,1.26-2.61c.43-.79.76-1.2,1-1.2.07,0,.4.08,1,.22s1.22.3,1.91.49,1.39.35,2.09.49a9.54,9.54,0,0,0,1.36.22l.44.56c.15.19.29.38.44.56a4.4,4.4,0,0,0,.44.71q.21-.71.6-.78a3.21,3.21,0,0,0,.93-.35.74.74,0,0,1,.66.35,4.5,4.5,0,0,1,.38.85,8.47,8.47,0,0,0,.33.85.61.61,0,0,0,.6.35c.07-.09.22-.26.44-.5s.36-.35.44-.35a.29.29,0,0,0,.22-.14.19.19,0,0,0,.16-.07.19.19,0,0,1,.17-.07,6.09,6.09,0,0,1-.22,3l.87-.14c0,.19,0,.68-.11,1.48s-.11,1.34-.11,1.62a11.3,11.3,0,0,0,.55,1.41,6.59,6.59,0,0,0,.66,1.27,11.15,11.15,0,0,0-.33,1.27c-.15.66-.33,1.34-.55,2.05a15.22,15.22,0,0,1-.76,2c-.3.61-.63.92-1,.92a3.13,3.13,0,0,1-.49-.07,3.33,3.33,0,0,0-.6-.07,3.17,3.17,0,0,1-.88-.28,1.38,1.38,0,0,0-.55-.15,5.87,5.87,0,0,0-1.26.92l-1,1a5.26,5.26,0,0,1-1.1.84,4.2,4.2,0,0,1-1.59.5.94.94,0,0,1-1.31-.64A1,1,0,0,0,772.34,159.18Zm-1.32-15c-.15.09-.2.33-.16.7s.12.52.27.43.31-.19.27-.57S771.24,144.23,771,144.23Zm5,28.91c.22,0,.34.21.38.64s-.05.63-.27.63-.46-.21-.49-.63S775.77,173.14,776.06,173.14Zm5.47-25.67c.15-.19.11-.28-.11-.28s-.29.09-.21.28,0,.43.16.43S781.53,147.75,781.53,147.47Zm.11,79c-.14,0-.22.14-.22.43s.08.37.22.28A.61.61,0,0,0,781.64,226.45Zm.55-7.75v-.85l-.55.28Zm3.18,11.14a.25.25,0,0,0-.28-.28c-.18,0-.27.09-.27.28C785.18,230.31,785.37,230.31,785.37,229.84Zm2.52-7.76a3.19,3.19,0,0,0-1.65.71,2.07,2.07,0,0,0-.76,1.34,2,2,0,0,0,.38,1.48,3.38,3.38,0,0,0,1.7,1.13q.11,0,.27-.78a12,12,0,0,0,.22-1.69,10.9,10.9,0,0,0,0-1.62C788,222.18,788,222,787.89,222.08Zm9.85-16.36c.15-.09.24-.07.27.07a.38.38,0,0,1,0,.35c-.15.19-.26.17-.33-.07S797.59,205.72,797.74,205.72Z"/><path class="cls-1" d="M837.93,231a6.16,6.16,0,0,1-.22-1.34,7.61,7.61,0,0,0-.22-1.34.69.69,0,0,0-.55-.64,4.88,4.88,0,0,1-.88-.21,3.13,3.13,0,0,1-.76-.35c-.22-.14-.29-.45-.22-.92a12.73,12.73,0,0,1-1.21,1.34l-1.2,1.2v-1.83a1.1,1.1,0,0,0-.93.56,4.5,4.5,0,0,0-.6,1.27c-.15.47-.28.89-.39,1.27s-.2.56-.27.56c-.44,0-.66-.42-.66-1.27a3.46,3.46,0,0,1,.39-1.69,3.89,3.89,0,0,0,.38-1.83c0-1.51-.48-2.26-1.42-2.26a.29.29,0,0,0-.22.14c-.08,0-.2.14-.39.43s-.31.47-.38.56-.57,0-1.26-.07a2.85,2.85,0,0,0-1.26.07c-.07,0-.2.17-.38.49a6.15,6.15,0,0,1-.38.64l-1.54,1-.55-1h-.32a.94.94,0,0,1-.39-.07.67.67,0,0,0-.27-.07,2.39,2.39,0,0,0-1.31.35,2.37,2.37,0,0,1-1.32.35c-.36,0-.6-.09-.71-.28s-.38-.28-.82-.28h-.44a3.52,3.52,0,0,0-.71.91,7.85,7.85,0,0,0-.6,1.06,2.32,2.32,0,0,1-.28-.7,3.32,3.32,0,0,1-.16-.85,6,6,0,0,0,.44-1,3.93,3.93,0,0,0,.32-1.12l.11-.43c0-.75-.21-1.13-.65-1.13s-.57.22-.6.64-.06.82-.06,1.2c-.51,0-.71-.43-.6-1.27s.09-1.36-.06-1.55a.67.67,0,0,0-.43-.21l-.72-.15a1.42,1.42,0,0,1-.65-.28.9.9,0,0,1-.28-.77,3.81,3.81,0,0,1,.17-1.2,3.32,3.32,0,0,0,.16-1.06v-.7c0-.1-.11-.19-.33-.29a1.54,1.54,0,0,0-.44-.14c-.51,0-.84.12-1,.35a2.7,2.7,0,0,0-.33.78,4.47,4.47,0,0,1-.27.78c-.11.23-.39.35-.82.35v-1.13a1.84,1.84,0,0,0-.22-.56,1.62,1.62,0,0,1-.22-.57,1.82,1.82,0,0,1,.44-1.13l.32-.42a1.73,1.73,0,0,0,0-.92,6.44,6.44,0,0,1-.11-.91,1.09,1.09,0,0,0-.54.21,1.12,1.12,0,0,1-.55.21,2.24,2.24,0,0,0-.33-.7c-.22-.38-.36-.57-.44-.57h-.87a2.09,2.09,0,0,0-.28.57,1,1,0,0,0,0,.7c.07.47.22.75.44.85a1.83,1.83,0,0,0,.71.14,2,2,0,0,1,.6.07c.15.05.22.3.22.77h-2.74a6.2,6.2,0,0,0-.33-2.32,3.59,3.59,0,0,0-.76-1.2c-.3-.28-.55-.54-.77-.78a1.48,1.48,0,0,1-.33-1.06V210a.31.31,0,0,0,.22-.14c.15-.19.26-.28.33-.28v-.42a1,1,0,0,0-.49-1,1,1,0,0,1-.5-1,1.77,1.77,0,0,1,.06-.49,1.81,1.81,0,0,0,.05-.36,1.54,1.54,0,0,1,.17-.49,1.38,1.38,0,0,0,.16-.49c0-.19-.18-.4-.55-.64s-.54-.44-.54-.63c-.08,0-.11-.05-.11-.14v-.28a1.48,1.48,0,0,1,.54-1.34,3.7,3.7,0,0,1,1.26-.5c.48-.09,1-.21,1.43-.35a1.33,1.33,0,0,0,.93-.92c-.15-.47-.4-.7-.77-.7a.18.18,0,0,0-.16.07.19.19,0,0,1-.17.07h-.11c-.07,0-.27.16-.6.49s-.53.5-.6.5h-.55l-.33-.43a1.51,1.51,0,0,0-.43.14c-.22.1-.33.19-.33.29a1.15,1.15,0,0,1-.11-.64v-.63a4,4,0,0,1,.44-1.77,10.84,10.84,0,0,1,1-1.76c.4-.56.74-1.08,1-1.55a2.36,2.36,0,0,0,.43-1.13,3.81,3.81,0,0,0-.43-1.9,3.47,3.47,0,0,1-.44-1.77,3.21,3.21,0,0,1,.71-2,5.2,5.2,0,0,0,.93-2.47v-2.12q.11-.42.33-.42a1,1,0,0,0,.49-.14,1,1,0,0,0,.44-.56,5,5,0,0,0,.16-1.55h.77v2.67c.15-.18.38-.46.71-.84s.57-.57.71-.57a7.26,7.26,0,0,1,1.37.57l.93.56a1.63,1.63,0,0,0,.55.28.28.28,0,0,0,.22-.14l.11-.14a.45.45,0,0,0,.11-.28c-.29-.28-.71-.73-1.26-1.34a2.27,2.27,0,0,0-1.59-.92V178.5a5.59,5.59,0,0,0,.5.28,1.25,1.25,0,0,1,.38.29h.44a1.92,1.92,0,0,1,.16-.57,2,2,0,0,0,.16-.56h.44a5.92,5.92,0,0,0,.28,1.76,2.7,2.7,0,0,0,1,1.48A1.11,1.11,0,0,0,814,181a1.11,1.11,0,0,1,.38-.14v-4.66a8.23,8.23,0,0,1-1.42-1.05c-.73-.62-1.1-1-1.1-1.2v-.29a18.45,18.45,0,0,1,1-2.25,2,2,0,0,1,1.92-.85h.66a1,1,0,0,1,.33.5,2.13,2.13,0,0,1,.11.49,3,3,0,0,0,.6-1.06l.82-2a15.2,15.2,0,0,1,.88-1.84c.29-.51.54-.77.76-.77,0,.09,0,.54-.05,1.34s-.08,1.64-.11,2.54-.08,1.74-.11,2.53-.06,1.25-.06,1.34-.16.17-.49-.07a2.07,2.07,0,0,0-.6-.35,3.45,3.45,0,0,0-.44.85,3.93,3.93,0,0,1-.33.7c-.15.19-.15.33,0,.43a.47.47,0,0,0,.11.28h2.3a1,1,0,0,1-.16.42c-.11.19-.2.28-.28.28a.31.31,0,0,0,.11.5c.22.14.18.21-.11.21l1.43.42v-4.23h1.42l1.1.85a4.32,4.32,0,0,1,.76.63q.33.36.33.21c-.07-.09-.22-.3-.44-.63s-.45-.71-.71-1.13-.49-.8-.71-1.13-.37-.49-.44-.49c.07-.38.22-.47.44-.28s.42.35.6.49a.31.31,0,0,0,.49-.07,4.1,4.1,0,0,0,.22-1.83,4.77,4.77,0,0,0-.27-1.7,6.22,6.22,0,0,1-.27-2.11c0-.09.23,0,.71.21s.71.31.71.21a1,1,0,0,0,.38.28,1.31,1.31,0,0,1,.39.29h.32a.78.78,0,0,0,.28-.57c0-.28.09-.42.16-.42s.39-.45.93-1.06a3.87,3.87,0,0,1,1.26-1.06,3.15,3.15,0,0,0,1-.42,4.77,4.77,0,0,0,.71-.28.93.93,0,0,1,.38-.14,1.32,1.32,0,0,1,.44.14,2.86,2.86,0,0,0,1.1.28,6.05,6.05,0,0,0,1.53.42c.07,0,0,.12-.11.35l-.49.78c-.19.28-.35.52-.5.71s-.18.28-.11.28a1.94,1.94,0,0,0,1.37-.57,4.89,4.89,0,0,0,1-1.27,14.69,14.69,0,0,1,.77-1.27,1.1,1.1,0,0,1,.93-.56c.21,0,.45.17.71.49s.53.71.82,1.13a9.86,9.86,0,0,0,.88,1.13c.29.33.54.49.76.49a.28.28,0,0,0,.22-.14c.07-.18.16-.47.27-.84a3.45,3.45,0,0,0,.17-.85.33.33,0,0,0-.22-.35l-.49-.14a1.13,1.13,0,0,1-.5-.28,1.4,1.4,0,0,1-.21-.92c0-.28.16-.42.49-.42a3.32,3.32,0,0,1,1,.14,3,3,0,0,1,.72.28c.14.09,0,.05-.33-.14l2.3,3c.07.19.2.19.38,0a1.69,1.69,0,0,0,.38-.56,5.27,5.27,0,0,0,.22-.85,6,6,0,0,0,.11-.71h.55a3.29,3.29,0,0,0,1,.29,3.47,3.47,0,0,1,1,.28c0,.19,0,.7.11,1.55a7.21,7.21,0,0,0,.22,1.55.36.36,0,0,0,.16.28,2.51,2.51,0,0,1,.28.29,3.32,3.32,0,0,0,.27-.5,1.38,1.38,0,0,0,.16-.49v-5.36l.33.56,1.32,7.34L851.4,166l.11-.28c0-.47-.26-.71-.77-.71a.94.94,0,0,1-1-.7c.07-.47.39-.69.93-.64l.93.07h1a5.05,5.05,0,0,1,.38.92,11.34,11.34,0,0,1,.39,1.34v.14a2.51,2.51,0,0,1-.39,1.34,5.4,5.4,0,0,1-.82,1.06q.44-.44.66-.21a1.84,1.84,0,0,1,.38.63,8.45,8.45,0,0,1,.28.85c.07.28.18.42.32.42a1.51,1.51,0,0,0,.5-.21c.25-.14.38-.26.38-.36a.38.38,0,0,0,0,.5,3.06,3.06,0,0,0,.54.49l.72.5a1,1,0,0,1,.43.49,12.73,12.73,0,0,0,.17,1.34,11.42,11.42,0,0,1,.16,1.34v4.23c0,.47.09.75.28.85s.38.19.6.28l.65.28a1.13,1.13,0,0,1,.55.57.62.62,0,0,1-.16.35c-.11.14-.2.26-.28.35H858c-.37-.19-1-.54-1.76-1.06s-1.31-.87-1.53-1.05a.76.76,0,0,0-.6.77c0,.42-.06.78-.06,1.06a3,3,0,0,1-1.64-.57,5.47,5.47,0,0,1-1.42-1.26.93.93,0,0,0,.55-.85v-.85a3.7,3.7,0,0,0-.06-.63,3.11,3.11,0,0,1-.05-.5c0-.09-.19-.3-.55-.63a6.68,6.68,0,0,1-.77-.78H850a1.72,1.72,0,0,0-1.42.71c-.37.47-.77.94-1.21,1.41l-.22.14a.29.29,0,0,1-.21-.14,3.9,3.9,0,0,1-.39-.64c-.18-.32-.31-.49-.38-.49a2,2,0,0,0-1-.07c-.55.05-.9.07-1,.07l-.44-.56c-.22-.29-.37-.43-.44-.43h-.11c-.22,0-.43.17-.65.5s-.46.7-.72,1.13-.51.84-.76,1.27a1.58,1.58,0,0,1-.93.77,5.06,5.06,0,0,0-1,.21,16.24,16.24,0,0,1-1.7.36c-.62.09-1.18.18-1.69.28a8,8,0,0,1-1,.14,3.69,3.69,0,0,0-.77.28,3.51,3.51,0,0,1-.76.28h-2.85a2,2,0,0,1-.49.92,1.34,1.34,0,0,1-.82.21c-.59,0-.88-.28-.88-.85a.76.76,0,0,0-.87-.84.9.9,0,0,0-.77.28.92.92,0,0,1-.77.28.78.78,0,0,1-.76-.42.8.8,0,0,0-.77-.42,6.22,6.22,0,0,0,.27,2.11c.18.47.46,1.08.82,1.83a1.1,1.1,0,0,1,.17.29,1,1,0,0,0,.16.28,1.43,1.43,0,0,1,.11.42,1.64,1.64,0,0,1-.38,1.13,2.48,2.48,0,0,1-.93.63c-.37.15-.71.26-1,.36a3.26,3.26,0,0,1-.82.14l-.11.42a1.85,1.85,0,0,0,.16.78c.11.23.38.3.82.21a14.48,14.48,0,0,1-1,2.4,6.72,6.72,0,0,0-.71,2.39v3.11a8.34,8.34,0,0,1-.22,1.48c-.15.7-.27,1.43-.38,2.18a21.42,21.42,0,0,1-.6,2.68l-2.85-2.68c-.07-.09-.15,0-.22.14a1.48,1.48,0,0,0-.11.43,7.47,7.47,0,0,0,.16.84,7,7,0,0,1,.17.85v.57a8.09,8.09,0,0,1-.17.91c-.1.52-.16.83-.16.92a2.87,2.87,0,0,0,.33,1c.22.47.36.7.44.7V206c0,.1,0,.14-.11.14a2.08,2.08,0,0,0,1.31-.42,2.29,2.29,0,0,1,1.43-.42h.65l-.76,2.54h.76v2.82c.8,0,1.17.05,1.1.14a5.67,5.67,0,0,0-.11,1.69h.54c.15,0,.48.35,1,1.06s.88,1.25,1.1,1.62a5.18,5.18,0,0,1,.38.85c.18.47.31.7.38.7a1.93,1.93,0,0,0,1,.07l1-.07c.07,0,.28.19.61.57s.52.56.6.56.34.12.82.07l.82-.07a4.34,4.34,0,0,0,1.09.35,9.89,9.89,0,0,0,1,.21h1.64c.81,0,1.65,0,2.52.08s1.72.07,2.52.07H841v1.83a1.37,1.37,0,0,0,.93-1.41,2.42,2.42,0,0,1,.93-1.83,9.9,9.9,0,0,1,3.62-1.41,18.6,18.6,0,0,0,3.61-1l.93-.57a3.83,3.83,0,0,1,.82-.42h.22a.21.21,0,0,0,.17-.07.18.18,0,0,1,.16-.07c0,.09,0,.14.11.14H853a1.2,1.2,0,0,0,.33.28.73.73,0,0,0,.43.14h1.65a8.25,8.25,0,0,1,1.37.71l1.15.7a4.74,4.74,0,0,1,.49,1.41,9.15,9.15,0,0,1,.27,1.41h.55a.5.5,0,0,0-.11.29c0,.09,0,.14-.11.14s-.11.26-.33.49l-.44.49a4.93,4.93,0,0,0,.06.57.75.75,0,0,1-.06.56,2.08,2.08,0,0,1-.82,1.13,2,2,0,0,1-1.15.42l-.11-.14a.5.5,0,0,1,.11-.28c.07-.09.26-.37.55-.84a3,3,0,0,1,.66-.85v-.57a1.65,1.65,0,0,0-.88-1.41,1.34,1.34,0,0,0-.55.92c-.07.42-.14.78-.21,1.06a7.76,7.76,0,0,1-1.65.28,8.51,8.51,0,0,0-1.64.28,1.43,1.43,0,0,0-.66.29,1.87,1.87,0,0,1-.54.28v1a6.07,6.07,0,0,0,.11,1.27,1.17,1.17,0,0,0,.65.85c-.14-.09-.42-.07-.82.07a1.8,1.8,0,0,0-.82.49c-.07,0-.07.31,0,.92a2.35,2.35,0,0,1,0,1.06,1.53,1.53,0,0,1-1,1c-.51.19-.76.79-.76,1.83h-.11a11.51,11.51,0,0,0-.17-1.48,9,9,0,0,0-.27-1.34,1.06,1.06,0,0,1-.88-.42.67.67,0,0,0-.27.07.89.89,0,0,1-.27.07l.11.28a4.85,4.85,0,0,0-.22,1.06,6.55,6.55,0,0,1-.22,1.05h-.33a5,5,0,0,1-.82.64,2.5,2.5,0,0,1-.93.49c-.08.09-.26.12-.55.07a4.1,4.1,0,0,0-.66-.07,4.49,4.49,0,0,1-1,.57,4,4,0,0,1-1.1.42.29.29,0,0,1-.22.14h-.22a2.67,2.67,0,0,1-1.36-.35A1.89,1.89,0,0,0,837.93,231ZM804.2,202.62c-.29,0-.44.16-.44.49s.15.5.44.5.33-.17.33-.5S804.42,202.62,804.2,202.62Zm0-4.66c-.15-.09-.22,0-.22.21s.07.31.22.22a.19.19,0,0,0,.22-.22C804.42,198,804.35,198,804.2,198Zm2.41,4.8a.79.79,0,0,0,.77-.56h-.77ZM809,204a.68.68,0,0,0-.77.56h.33a1.22,1.22,0,0,0,.88-.56Zm.22-20.73a6.16,6.16,0,0,0,.16,1.41.78.78,0,0,0,.82.7,2.5,2.5,0,0,0,.55-.07q.33-.08.33-.63,0-1-.66-1.2A4,4,0,0,0,809.24,183.3Zm.22,5.07h.32v-1h-.32Zm1.2,19.89c.07-.09,0-.14-.16-.14s-.28,0-.28.14.07.28.22.28S810.66,208.45,810.66,208.26ZM812.3,199a1.61,1.61,0,0,0-1.15.78,2.44,2.44,0,0,0-.6,1.48,6.25,6.25,0,0,0,1.53-.28,1.22,1.22,0,0,0,1-1.27v-.29A1,1,0,0,0,812.3,199Zm-1.2-4.8c.07,0,.16-.11.27-.35a1.49,1.49,0,0,0,.17-.63c0-.38-.15-.57-.44-.57Zm1.2,20.6q-.33,0-.33.42t.33.42c.15,0,.22-.14.22-.42S812.45,214.75,812.3,214.75Zm.77-22.15q-.33,0-.33.57c0,.38.11.56.33.56s.44-.18.44-.56S813.36,192.6,813.07,192.6Zm0,2.68h.55v-.56h-.55Zm.88-22h.43v-.7Zm.87,13.54a3.32,3.32,0,0,1-.16.85,2.32,2.32,0,0,1-.28.7h.44a.41.41,0,0,1,.17-.28.38.38,0,0,0,.16-.28c0-.19,0-.61.05-1.27s.06-1.08.06-1.27a1.74,1.74,0,0,0-.66.14c-.22.1-.33.33-.33.71l.11.28Zm.33-3.67c-.07-.18-.18-.16-.33.08s-.15.35,0,.35c.07.19.17.21.28.07A.51.51,0,0,0,815.15,183.15Zm-.11,8.61a2.28,2.28,0,0,0,.06.42,3.21,3.21,0,0,1,0,.42,1.33,1.33,0,0,0,.33.57c.22.28.36.47.44.56a5.07,5.07,0,0,1,.38,1,2.14,2.14,0,0,0,.49,1,1.1,1.1,0,0,0,.44.28c.22.09.33.19.33.28s.16.17.27.49a3.15,3.15,0,0,1,.17.64,1.26,1.26,0,0,0,.93-.78,3.34,3.34,0,0,0,.27-1.34,15,15,0,0,0-.38-3c-.26-1.17-.82-1.76-1.7-1.76a7,7,0,0,0-1.42.14C815.26,190.72,815,191.1,815,191.76Zm.88,27.64c-.08,0-.15.07-.22.21s-.15.21-.22.21v.57a1.75,1.75,0,0,1,.27-.28.41.41,0,0,0,.17-.29v-.42Zm1.64-40.33-.33.42h1.2a.29.29,0,0,1-.21-.14l-.22-.28-.22-.15Zm1.09,8.74a5.06,5.06,0,0,0,.11.84,1.47,1.47,0,0,0,.44.85,1.71,1.71,0,0,0,.49-.85,3.31,3.31,0,0,0,.17-.84Zm7.56-14.95c.58,0,.88-.42.88-1.27h-.88Zm2-4.94q0,.57.33.57a1.12,1.12,0,0,0,.55-.21,1.75,1.75,0,0,0,.43-.36Zm2.41,1.13a1.32,1.32,0,0,1-.16.49,1.57,1.57,0,0,0-.17.64q-.1.7-.27,3c-.11,1.55-.17,2.56-.17,3h.44c.29-.84.57-1.64.82-2.39a8.28,8.28,0,0,0,.39-2.68,12,12,0,0,0-.06-1.27C831.37,169.52,831.1,169.24,830.59,169.05Zm1.2-1.41a3.7,3.7,0,0,0,.88,2.54,3.37,3.37,0,0,0,.77-1.69l1.64,1.12c.22,0,.33-.18.33-.56a5.19,5.19,0,0,0-.33-1.76c-.22-.61-.51-.92-.88-.92s-1,0-1.58.07S831.79,166.89,831.79,167.64Zm0,6.63a.39.39,0,0,0,.17.28,2.3,2.3,0,0,1,.27.28h.44a5,5,0,0,0,.22-.91c.07-.43.14-.64.22-.64a3.27,3.27,0,0,1,1-.7c.51-.29.84-.47,1-.57v-.42l-.6-.78a3,3,0,0,0-.61-.63,5.56,5.56,0,0,1-1.2,2A3.18,3.18,0,0,0,831.79,174.27Zm.88,2.68.44-.71h-.44Zm1.2-3.25c-.21,0-.32.2-.32.57s.11.56.32.56.22-.18.22-.56S834,173.7,833.87,173.7Zm.33,5.37v-.57h-.33Zm1.76-1.56a1.68,1.68,0,0,0,.43-1.27H836Zm.54-9.31a.5.5,0,0,0-.11.29c-.07,0-.11,0-.11.14v.28l.11.14.33-.56.11-.29a.5.5,0,0,0-.11-.28Zm.22-2.25c.07-.19,0-.28-.16-.28s-.24.09-.17.28.06.28.17.28S836.72,166.14,836.72,166Zm2.52,1.55c-.29.09-.44.42-.44,1h.44ZM838.8,230a3.4,3.4,0,0,0,1.65-.42,3.24,3.24,0,0,1,1.64-.43c0-.09,0-.35-.11-.77s-.17-.87-.28-1.34a10.48,10.48,0,0,0-.38-1.34c-.15-.43-.26-.64-.33-.64l-.22.14-.21.57a1.17,1.17,0,0,0-.11.42,1.92,1.92,0,0,0-.22.35c-.08.14-.15.22-.22.22a4,4,0,0,1-.61.28,1.92,1.92,0,0,1-.6.14Zm.44-54.72c-.22,0-.33.16-.33.49s.11.49.33.49.33-.16.33-.49S839.46,175.26,839.24,175.26Zm2.3-8.89a1.75,1.75,0,0,0-.22.57,1.67,1.67,0,0,1-.22.56.94.94,0,0,0-.33.42.86.86,0,0,0-.21.43l-.11.14a14.43,14.43,0,0,0-.28,1.62c-.11.8-.16,1.29-.16,1.48h.44l.11-.14a.88.88,0,0,1,.21-.42,1,1,0,0,1,.33-.43,3.24,3.24,0,0,1,.93-.28c.48-.09.75-.14.82-.14a3.09,3.09,0,0,1,.66-.28,1.21,1.21,0,0,0,.55-.29A14.2,14.2,0,0,1,843,168q-.54-.92-.87-1.62h-.55ZM840,173.7a3.33,3.33,0,0,0,.22,1.35c.14.33.33.72.54,1.19q.33,0,.33-.42a7.2,7.2,0,0,0,.17-1.55c0-.85.05-1.41.05-1.69a2,2,0,0,0-.87.21A.9.9,0,0,0,840,173.7Zm4.38,54c-.08-.09-.11.1-.11.57s0,.61.11.42a.55.55,0,0,0,.22-.49A.57.57,0,0,0,844.39,227.72Zm0-59.23h.44l-.44-.57Zm.44-3.67h.54v-1.13Zm5.69,53q-.1,0-.33.78a6.63,6.63,0,0,1-.44,1.19,5.12,5.12,0,0,1,0,.64,3.58,3.58,0,0,0-.06.49c.59,0,.84-.21.77-.63a3.53,3.53,0,0,1,.11-1.48l.44-.43a.72.72,0,0,1,0-.28.67.67,0,0,0,.06-.28Zm1.31-50.35c-.22,0-.32.16-.32.49s.1.5.32.5.22-.17.22-.5S852,167.5,851.83,167.5Zm.88,5.64c-.59,0-.88.47-.88,1.41v.28A2.09,2.09,0,0,0,852.71,173.14Zm.33,4.8c0-.19-.08-.29-.22-.29s-.22.1-.22.29.16.28.27.28S853,178.13,853,177.94Zm2.08,37.65q-.33,0-.33.57c0,.37.11.56.33.56s.22-.19.22-.56S855.26,215.59,855.12,215.59Z"/><path class="cls-1" d="M893.77,231a2.65,2.65,0,0,0-.38.91,4.57,4.57,0,0,0-.16.78q0-.57-.33-.57c-.15,0-.51,0-1.1.08a2.15,2.15,0,0,1-1.09-.08,7.05,7.05,0,0,1-1.1-.42c-.65-.28-1.17-.52-1.53-.7a.8.8,0,0,1-.33-.14l-.44-.29h-.43l-.22.29a.33.33,0,0,1-.22.14l-.22.14-.11-.14a2.07,2.07,0,0,0-.11-1.06,3.36,3.36,0,0,0-.44-1.06,2.37,2.37,0,0,0-1-.56,4.69,4.69,0,0,0-1-.29v-1.26l-1.75,1.55q0,.14-.33-.36a3.9,3.9,0,0,1-.44-.77,1.52,1.52,0,0,1-.05-1.13q.17-.84-.39-1a.83.83,0,0,0-.54.71v.84a1.48,1.48,0,0,1-.22.78c-.15.24-.51.35-1.1.35-1.31,0-2.15-.23-2.52-.7a2.72,2.72,0,0,1-.54-1.7c0-.65,0-1.29,0-1.9a1.07,1.07,0,0,0-.71-1.2,4.1,4.1,0,0,0-1.21-.28,12.06,12.06,0,0,0-1.42-.14l.55-1.27a3.27,3.27,0,0,1-1.86-.85,6.34,6.34,0,0,1-1.32-1.76c-.36-.7-.71-1.46-1-2.26s-.64-1.52-.93-2.18c-.07-.09-.25-.42-.55-1l-.65-1.27a12.08,12.08,0,0,1-1.75-3.81c-.22-1-.52-2.3-.88-3.8l-.22-.29-.22-.28c-.07-.37-.16-1.13-.27-2.26S863,199,863,198.67v-1a7.58,7.58,0,0,1,.22-1.83,7.78,7.78,0,0,0,.22-2v-.7a1.69,1.69,0,0,0-.22-.57A1.75,1.75,0,0,1,863,192V189.5c0-.37,0-1.06.11-2s.18-2,.33-3.11a14,14,0,0,1,.66-2.82c.29-.79.66-1.2,1.09-1.2a2.86,2.86,0,0,1-.22,1.2,2.71,2.71,0,0,0-.21,1.06,9.75,9.75,0,0,1,1.31.14,1,1,0,0,0,1.2-.56,9.46,9.46,0,0,0,.33-1.13,6.43,6.43,0,0,0,.22-1h.33v1.27a1.76,1.76,0,0,1,.66.21c.29.14.47.17.54.07l.22-.28.22-.28a4.27,4.27,0,0,0,.93-.21,2.07,2.07,0,0,0,.82-.35v-.71a7.66,7.66,0,0,0-.54-2.89,7.87,7.87,0,0,1-.55-3,2.53,2.53,0,0,1,1.2.28,2.6,2.6,0,0,0,1.21.28.69.69,0,0,0,.77-.56c-.15-.47-.39-.71-.72-.71a1.68,1.68,0,0,1-.93-.28l-.11-.28a3.7,3.7,0,0,1,.44-1.48,6.53,6.53,0,0,0,.55-1.49,5.56,5.56,0,0,0,.6-.07c.33,0,.57-.07.71-.07s.6.05,1.37.14,1.15.43,1.15,1a1.62,1.62,0,0,1-.22.57,1.84,1.84,0,0,0-.22.56v.42a9.13,9.13,0,0,0,2.08-.28,2.58,2.58,0,0,0,1.76-1.27,4.47,4.47,0,0,0,.38-1.62c.11-.89.34-1.34.71-1.34,0,.94.4,1.41,1.21,1.41a5.63,5.63,0,0,0,.82-.07.91.91,0,0,0,.71-.49,1.75,1.75,0,0,0,0-.85l-.22-.56h-1.53q.21,0,.33-.36a2,2,0,0,0,.1-.49,6.29,6.29,0,0,0-.1-.92q-.12-.63-.33-.63a.33.33,0,0,0,.22-.14l.21.14c.08,0,.28.14.61.42s.56.47.71.57A4.64,4.64,0,0,0,885,166a1.43,1.43,0,0,1,1.1.77c.14.76.25,1.51.33,2.26a4,4,0,0,0,.87,2.12.44.44,0,0,0,.22-.07.38.38,0,0,1,.22-.07V169.9l.22.14h.11l.49.63c.26.33.42.5.5.5h.32a5,5,0,0,0,1.15-.22,4,4,0,0,0,1-.35v-.28a.88.88,0,0,0-.71-.92,1.88,1.88,0,0,1-.93-.49l-.11-.14a.47.47,0,0,1,.11-.28,6.53,6.53,0,0,1,.38-.78c.19-.33.31-.49.39-.49a2.11,2.11,0,0,1,.87.56,11.06,11.06,0,0,0,.88.71h.11a1.27,1.27,0,0,0,1.42-1.06,3.23,3.23,0,0,1,1-1.76,10.68,10.68,0,0,1,.66,1.12,8.31,8.31,0,0,0,.65,1.13c.07,0,.15.14.22.43a1.67,1.67,0,0,0,.22.56l.22.14.11-.14c.07,0,.18-.09.33-.28a.27.27,0,0,1,.22-.14V164l.76-.42a10.71,10.71,0,0,0,.06,3.24,18.2,18.2,0,0,0,.82,3.25l.66-.43V164.4a.29.29,0,0,0,.22.14.35.35,0,0,1,.21.07.4.4,0,0,0,.22.07q.33,0,.33.42a4.07,4.07,0,0,1,.38,1.62c.11.9.17,1.48.17,1.77h.44l.44-.57a3.07,3.07,0,0,0,.43-.7h3.73a4.3,4.3,0,0,0-.5,1.2,5.7,5.7,0,0,0-.27,1.19c-.07.1-.05.26.06.5a2.45,2.45,0,0,0,.27.49,1.72,1.72,0,0,0,1,.43,8.62,8.62,0,0,0,1.15.14.49.49,0,0,1-.49.42,5,5,0,0,0-.83.07,2.82,2.82,0,0,0-.93.35,2.06,2.06,0,0,0-.71,1.41,8.34,8.34,0,0,0-.22-1.48,9.22,9.22,0,0,0-.33-1.34,4.17,4.17,0,0,0-.11-.84,5.48,5.48,0,0,0-.21-.85c-.22-.47-.39-.63-.5-.49s-.34.21-.71.21a7.67,7.67,0,0,0,.44,3,7.22,7.22,0,0,1,.44,2.82h-.77l-.22.56,1.32,1.7c.07.09.12.09.16,0s.09-.14.16-.14v-.43l-.21-.56a1.44,1.44,0,0,1-.11-.57.44.44,0,0,1,.11-.28l.21-.28h.33c.51,0,.84.35,1,1.06a3.71,3.71,0,0,1,0,1.76c.22-.94.51-1.5.87-1.69a4.05,4.05,0,0,1,1.76-.28v2.68a5.7,5.7,0,0,0,1.58-.14c.26-.1.72.09,1.37.56a1.11,1.11,0,0,0-.38.14,5.34,5.34,0,0,0-.49.28v.43a1.32,1.32,0,0,0,1.09,1.41,7.17,7.17,0,0,0,1.64.28c0,.09,0,.14-.1.14-.08.19-.17.42-.28.7s-.2.43-.27.43a.84.84,0,0,1-.44-.14,1.47,1.47,0,0,0-.44-.21.62.62,0,0,1-.33-.22l-.44-.28-.43-.28a1.12,1.12,0,0,0-.44.21,1.88,1.88,0,0,0-.44.35,16.79,16.79,0,0,1,2.19,3.39c-.44.47-.82.63-1.15.49a3.25,3.25,0,0,0-1.26-.21,1.43,1.43,0,0,0-.11.42V186c.07.18.2.47.39.84a5.68,5.68,0,0,0,.38.71,3.53,3.53,0,0,0,.71.91q.6.65.6.78a4,4,0,0,1-.33,1.27,2.48,2.48,0,0,1-.54,1,.79.79,0,0,0-.88-.71,1.68,1.68,0,0,0-.44.07c-.14,0-.25.26-.33.64a.64.64,0,0,1,.44.7v1a2,2,0,0,1-.33,1.34,1.75,1.75,0,0,1-.82.49,4,4,0,0,1-1.15.14,5,5,0,0,0-1.2.14c-.44.19-.57.57-.38,1.13s.05.94-.39,1.13a2.07,2.07,0,0,0-.6-1,1.92,1.92,0,0,0-.82-.14c-.81,0-1.3.24-1.48.71a1.64,1.64,0,0,1-.93,1l-.88-.56a5.11,5.11,0,0,1-.65-.56,6.18,6.18,0,0,0-.66-.57l-.33.57.33.56a5.1,5.1,0,0,0-.55,1.62c-.07.52-.15,1-.22,1.48a5.43,5.43,0,0,1-.38,1.34,2.21,2.21,0,0,1-1,1.06,2.82,2.82,0,0,0,0-1.9,1.22,1.22,0,0,0-1.21-.92.9.9,0,0,0-.82.49,6.92,6.92,0,0,0-.49,1.2,3.21,3.21,0,0,0,0-.42,2.28,2.28,0,0,1-.06-.42,1.85,1.85,0,0,1,.06-.5,1.72,1.72,0,0,0,0-.35,3.73,3.73,0,0,1,.22-.78,4.33,4.33,0,0,0,.22-.77c0-.38-.15-.57-.44-.57h-.66a3.09,3.09,0,0,0-1.47.57c-.63.38-.94.8-.94,1.27a.47.47,0,0,0,.11.28,1.66,1.66,0,0,0,.66.64,1.59,1.59,0,0,1,.66.63,4.79,4.79,0,0,1,0,1.55,5.31,5.31,0,0,0,0,1.69,1.16,1.16,0,0,0,.11.43l.22.56v.14a.4.4,0,0,0,.11.28c-.59.48-1.06.85-1.43,1.13a7.49,7.49,0,0,1-1.09.71,2.58,2.58,0,0,1-.66.28,2.31,2.31,0,0,1,.55-1.69,2.38,2.38,0,0,0,.55-1.7c0-.75-.13-1.12-.39-1.12h-1.15a4,4,0,0,0,.11.77,4.08,4.08,0,0,1,.11.78c-.07.37-.26,1-.55,2a6.37,6.37,0,0,0-.32,1.27h-.22a10.12,10.12,0,0,0-.17-1.41c-.11-.66-.42-.89-.93-.7a8.24,8.24,0,0,0-1.7.35,10.54,10.54,0,0,0-1.8.63,1.62,1.62,0,0,1-.33.29l-.44.28h-.66a3.7,3.7,0,0,0-1.09-2.68c0,.09-.15.14-.44.14v2.68c-.51,0-.82-.38-.93-1.13s-.42-1.13-.93-1.13c0,.28,0,.73-.11,1.34s-.11,1.06-.11,1.34a4,4,0,0,0,.33,1.13,2.37,2.37,0,0,0,.55,1l.65.28a2.79,2.79,0,0,0,1,.28l2.9.78a18.39,18.39,0,0,1,2.68.91,9.31,9.31,0,0,0,2.58.78,7.21,7.21,0,0,1,2.57.92c.22.09.55.26,1,.49s.65.4.65.49a2.53,2.53,0,0,1,.22.85,2.53,2.53,0,0,0,.22.85,3.69,3.69,0,0,1,.77.28,2.7,2.7,0,0,0,1,.28h.44a2.25,2.25,0,0,0,1.15-.28,2.25,2.25,0,0,1,1.15-.28,5.46,5.46,0,0,1,2.08.35,6,6,0,0,0,2.19.35c0,.75.15,1.2.44,1.34a2.24,2.24,0,0,0,1,.21c.59,0,.94-.11,1-.35s.34-.35.71-.35.47.09.54.28a1.61,1.61,0,0,1,.11.63,1.83,1.83,0,0,0,.11.64c.07.19.26.28.55.28.51,0,.71-.3.6-.92s.09-.91.6-.91a.67.67,0,0,1,.28.07.67.67,0,0,0,.27.07,1,1,0,0,0,.55.14,1.74,1.74,0,0,1,.66.14,2.64,2.64,0,0,0,.87.14,1.1,1.1,0,0,1,.44,1c0,.47.22.7.66.7h.11l2.19-2.68h3.83l-.33.57a1.44,1.44,0,0,0,1.37,1.06,1.89,1.89,0,0,1,1.59,1.05l-1,.71a13,13,0,0,1-.11,1.83c-.07.47-.12,1-.16,1.62s-.06,1.11-.06,1.49-.14.73-.21.77a1.69,1.69,0,0,1-.66.07v.71h1.2v2.82h-.11c-.14,0-.22-.05-.22-.14s-.14-.07-.21-.22-.15-.21-.22-.21a3.71,3.71,0,0,0-.88-.7l-.88-.57-.21.14a2,2,0,0,0,.1.85.37.37,0,0,0,.28.14.45.45,0,0,1,.27.07c.07.05.11.21.11.5a2,2,0,0,1-.38,1.2,1.18,1.18,0,0,1-.93.49h-.55a2.78,2.78,0,0,0-1.2-.28,4.35,4.35,0,0,1-1.32-.29h-.44l-.22.29a.44.44,0,0,0-.1.28,2.51,2.51,0,0,0-.66.14,2.51,2.51,0,0,1-.66.14v-2a7.07,7.07,0,0,0-3.83,1.69v-2.54A.33.33,0,0,0,908,230h-.22a2.85,2.85,0,0,0-.27.77,4.34,4.34,0,0,0-.17.92h-2.08l-.55,1a1.45,1.45,0,0,0-.32-.57,2.85,2.85,0,0,1-.88-.28,2.68,2.68,0,0,0-.77-.14c-.14-.19-.11-.45.11-.77a1.59,1.59,0,0,0,.33-.78c-.07,0-.29,0-.66-.07s-.58-.07-.65-.07l-.22.28-.22.28c-.15,0-.44,0-.88.07s-.73.07-.87.07v-1.41a1.55,1.55,0,0,0-.22.43c-.08.18-.15.28-.22.28h-.33c-.07,0-.18-.1-.33-.28a.81.81,0,0,1-.22-.43h-.44a2.27,2.27,0,0,0-.76,1.2c-.15.52-.28,1-.38,1.55a6.22,6.22,0,0,1-.39,1.27c-.14.33-.33.5-.55.5s-.58-.14-.65-.43a6,6,0,0,1-.17-1,6,6,0,0,0-.16-1c-.07-.28-.33-.42-.77-.42ZM864.32,183.3c-.22,0-.33.16-.33.49s.11.49.33.49.22-.16.22-.49S864.46,183.3,864.32,183.3Zm3.83,4.93c-.22,0-.33.17-.33.5s.11.49.33.49.22-.16.22-.49S868.3,188.23,868.15,188.23Zm.33-2.82a1.7,1.7,0,0,0-.44,1.27,1.05,1.05,0,0,0,1-.7Zm0,9.45c.07-.19,0-.28-.17-.28s-.23.09-.16.28.15.28.22.28S868.48,195.05,868.48,194.86Zm1.86-13.26c-.37,0-.62.33-.77,1a8.84,8.84,0,0,0-.22,1.27,2.69,2.69,0,0,0,1-.56c.51-.38.77-.66.77-.85v-.28a2.19,2.19,0,0,0-.44-.43A.8.8,0,0,0,870.34,181.6Zm.33,2.12c-.15-.09-.22.12-.22.63s.07.73.22.64a1,1,0,0,0,0-1.27Zm2.85,16.64a1.14,1.14,0,0,1-.17.57.59.59,0,0,0-.05.56c.07,0,.2.14.38.42a2,2,0,0,0,.49.57c.29-.1.44-.45.44-1.06v-1.2a4.15,4.15,0,0,0-.27-1.62,4,4,0,0,1-.28-1.62,2.37,2.37,0,0,1,.28-1.2.88.88,0,0,1,.82-.5h.22a1.57,1.57,0,0,0,.38.64c.26.33.42.49.49.49h.44a1.4,1.4,0,0,1,.33-.28l.44-.28a2.32,2.32,0,0,1,.93-.21c.47,0,.75-.17.82-.36a3.17,3.17,0,0,0,.22-1.05,3,3,0,0,1,.22-1.06,3,3,0,0,0,.71-.28,2.42,2.42,0,0,1,.93-.29h.44a2.83,2.83,0,0,1,.66.29,2.44,2.44,0,0,0,.65.28,2.92,2.92,0,0,0,1.81-1,7.94,7.94,0,0,1,1.59-1.27,7.14,7.14,0,0,0,.49,1.83,1.14,1.14,0,0,0,1.15.57c.14,0,.46,0,.93-.07a1,1,0,0,0,.93-.64l.77-4.37c.36-.19.89-.42,1.59-.7a4.51,4.51,0,0,1,1.58-.43h.22a7.82,7.82,0,0,1,.71.57,7.23,7.23,0,0,1,.61.56h.43c.08,0,.17-.09.28-.28a1,1,0,0,0,.16-.42,9.84,9.84,0,0,0,.28-1.55,16,16,0,0,0,.16-1.7,11.18,11.18,0,0,0,1.48-.21,9.19,9.19,0,0,0,1.48-.35,4.65,4.65,0,0,0,1.31-.28,2.66,2.66,0,0,1,.88-.14v-4.52q0,.57.33.57a8.13,8.13,0,0,0,1.09,1.13,1.73,1.73,0,0,0,.66.56l.44-.56a16.78,16.78,0,0,1-1.21-3.18,7,7,0,0,0-1.75-2.89c-.37-.37-1-.92-1.81-1.62a3.64,3.64,0,0,0-1.91-1.06,3,3,0,0,0-2.08.78c-.59.51-1.17,1.08-1.76,1.69a14.7,14.7,0,0,1-1.91,1.69,4.18,4.18,0,0,1-2.58.78h-.32a2.53,2.53,0,0,1-.94-.5,6.73,6.73,0,0,1-.82-.63h-.43a5.1,5.1,0,0,1-.17.77c-.11.43-.2.73-.27.92l-.88,1.13a1.2,1.2,0,0,1-.33.28.37.37,0,0,1-.33.14h-.11l-.43.64c-.22.33-.37.54-.44.63s-.44,0-.88-.07a1.49,1.49,0,0,0-.87.07c-.08,0-.17.24-.28.71a5.82,5.82,0,0,0-.16.84.41.41,0,0,1-.17.29,1.42,1.42,0,0,0-.27.28l-.33-.57a11.16,11.16,0,0,0-3.83,7.2c-.44-.38-.8-.29-1.1.28l-.65,1.27a6.37,6.37,0,0,1-.22,1.13,5.48,5.48,0,0,0-.22,1.12h-.77l-.87-2.68a4.93,4.93,0,0,1-.06.57,5,5,0,0,0,0,.7,5.22,5.22,0,0,0,.27,1.84,5.2,5.2,0,0,1,.27,1.83.66.66,0,0,1-.05.28.72.72,0,0,0,0,.28v.43a1.09,1.09,0,0,1-.66.49c-.37.14-.62.17-.77.07v3.81h-1.09v.71a2.28,2.28,0,0,0,1.15-.29A2.58,2.58,0,0,1,873.52,200.36Zm-1.21,3.25c.07-.19,0-.29-.16-.29s-.24.1-.17.29.15.28.22.28S872.31,203.79,872.31,203.61ZM872,176.67a.39.39,0,0,0,.17.28.38.38,0,0,1,.16.28,6.64,6.64,0,0,1,.93.14,5.64,5.64,0,0,0,.93.14c0-.94-.22-1.41-.65-1.41h-.22a1.71,1.71,0,0,0-.66.21C872.35,176.46,872.13,176.57,872,176.67Zm1.32,1.69c-.22,0-.33.16-.33.49s.11.5.33.5.22-.17.22-.5S873.44,178.36,873.3,178.36Zm.22-8a2.09,2.09,0,0,0,.65,1.69,2,2,0,0,0,1.32.57c0-1-.15-1.67-.44-1.91A2.55,2.55,0,0,0,873.52,170.32Zm1,36.53c-.15,0-.22.19-.22.56s.07.57.22.57.33-.19.33-.57S874.72,206.85,874.5,206.85Zm.88-6.63c-.22,0-.33.21-.33.64s.11.63.33.63.33-.21.33-.63S875.6,200.22,875.38,200.22Zm0-25.81c0,.38.14.56.44.56s.45-.35.49-.77.05-.73.05-.92a1.19,1.19,0,0,0-.65.21.86.86,0,0,0-.33.78Zm0,8.89c0,.28.14.42.44.42v-.42a.6.6,0,0,0-.22-.36c-.15-.14-.22-.25-.22-.35v.71Zm1.75,39.49c-.29,0-.44.19-.44.56v.56a10.74,10.74,0,0,1,1.15-.49q.6-.21.6-1.2c0-.09,0-.14-.05-.14s-.06-.05-.06-.14v-.14a4,4,0,0,0-.82-.71c-.4-.28-.67-.47-.82-.56l-.44.56-.11.29v.28c0,.09,0,.14.11.14a1.38,1.38,0,0,0,.33.56C876.8,222.65,877,222.79,877.13,222.79Zm-.44,2.25c-.22,0-.33.17-.33.5s.11.49.33.49.33-.16.33-.49S876.91,225,876.69,225Zm0-46.68h.44v-1.69h-.44Zm.44,19.74c.07-.18,0-.28-.16-.28a.25.25,0,0,0-.28.28c0,.19.06.29.17.29S877.06,198.29,877.13,198.1Zm0,27.93c-.15,0-.22.12-.22.35s.07.36.22.36C877.49,226.55,877.49,226.31,877.13,226Zm.33-51.06c.07-.18,0-.28-.17-.28s-.23.1-.16.28.14.29.22.29S877.46,175.16,877.46,175Zm-.33,44.43h.77V219h-.77Zm1.2,7.34c.08-.19,0-.29-.16-.29s-.27.1-.27.29a.33.33,0,0,0,.27.14C878.28,226.88,878.33,226.83,878.33,226.74Zm.44-2.4q-.33,0-.33.63c0,.43.11.64.33.64s.33-.21.33-.64S879,224.34,878.77,224.34Zm0-13.12h.44v-.56h-.44Zm.44-39.49c-.22,0-.33.19-.33.56s.11.57.33.57.33-.19.33-.57S879.43,171.73,879.21,171.73Zm.44.56q-.33,0-.33.57c0,.38.11.56.33.56s.33-.18.33-.56S879.87,172.29,879.65,172.29Zm.44,7.06c-.22,0-.33.19-.33.56s.11.57.33.57.32-.19.32-.57S880.31,179.35,880.09,179.35Zm0,42.87H881l-.22-.28a.29.29,0,0,0-.22-.14l-.21-.14a.29.29,0,0,0-.22.14Zm.87-50.49a1.44,1.44,0,0,0,.06.85c.11.37.2.66.27.84h.44l1.31-.56v-.28a3.39,3.39,0,0,0-.38-1.48,2.3,2.3,0,0,0-.93-1.06,5.88,5.88,0,0,1-.44.84A2,2,0,0,0,881,171.73ZM883,222.08a1.6,1.6,0,0,0-.93.28,1.14,1.14,0,0,0-.38,1H883Zm.88-.28v.63a1.62,1.62,0,0,0,.11.64l.22.84h.54v-3.52Q883.92,220.39,883.92,221.8Zm.33-50.07c-.15,0-.22.19-.22.56s.07.57.22.57.43-.19.43-.57S884.54,171.73,884.25,171.73Zm0,6.07c-.15,0-.22.16-.22.49s.07.49.22.49.43-.16.43-.49S884.54,177.8,884.25,177.8Zm.87-9q-.54,0-.87.84h.87Zm-.33,8.46q.23-.84.33-1.41a7,7,0,0,0,.11-1.41v-.85a.64.64,0,0,0-.44-.7Zm1.32,26.8.33-.42h-.88Zm1.2,13.82c-.22,0-.33.19-.33.56s.11.57.33.57.33-.19.33-.57S887.53,217.85,887.31,217.85Zm.44-15.94c.07-.18,0-.28-.16-.28a.25.25,0,0,0-.28.28C887.46,202.48,887.6,202.48,887.75,201.91Zm0,25.81c.07-.18,0-.28-.16-.28a.25.25,0,0,0-.28.28C887.46,228.29,887.6,228.29,887.75,227.72Zm0-54.3c.29.57.55,1.06.77,1.48a1.13,1.13,0,0,0,1.09.64h.66c.22,0,.36-.19.44-.57-.08,0-.15-.09-.22-.28s-.15-.28-.22-.28a2.58,2.58,0,0,1-.6-.21,1.72,1.72,0,0,1-.6-.35c-.08,0-.15-.17-.22-.5s-.15-.49-.22-.49h-.55l-.22.28A.5.5,0,0,0,887.75,173.42Zm1.64,46.69c.08-.19,0-.29-.38-.29s-.46.1-.38.29a.42.42,0,0,0,.44.28C889.28,220.39,889.39,220.3,889.39,220.11Zm1.32.56a1.18,1.18,0,0,0,.87-.56h-.87ZM892,192.6h.44V192H892Zm.88,3.81v-.56h-.44Zm-.33-7.9a9.57,9.57,0,0,0,.11,1.2,10.44,10.44,0,0,0,.33,1.55,6.9,6.9,0,0,0,.55,1.41,1,1,0,0,0,.87.64l.11-.14.22-.28.22-.29a5.29,5.29,0,0,0,.11-1.41v-1.41a1.24,1.24,0,0,0-1,.57,6.38,6.38,0,0,0-.54-1.27A1.07,1.07,0,0,0,892.57,188.51Zm1.86-19c0,.19,0,.5.06.92a.79.79,0,0,0,.49.78c.29,0,.44-.19.44-.57v-.28c0-.37-.11-.61-.33-.71A1.74,1.74,0,0,0,894.43,169.47Zm.11,25.39H895v-.71h-.44Zm.88,25.67a5.06,5.06,0,0,1,1.64,1.69.39.39,0,0,0,.33-.14l.22-.28c0-.19,0-.59,0-1.2s.06-1,.06-1.2a2,2,0,0,0-1.15.42A10.33,10.33,0,0,1,895.42,220.53Zm0,9.45H896a1.36,1.36,0,0,0-.54-1.13Zm1.2-6.77a12.67,12.67,0,0,0,.11,1.55.84.84,0,0,0,.88.85h.32a11.33,11.33,0,0,0-.32-1.62A1,1,0,0,0,896.62,223.21Zm.33-27.93c0,.19,0,.59,0,1.2s.24,1,.61,1.06c.36-.09.54-.44.54-1.06v-1.2Zm.66,4.52v-1.13l-.55.42Zm-.11-14.11a.44.44,0,0,0,.11.29.44.44,0,0,0,.11.28l.21.28c.15-.75.51-1.18,1.1-1.27a2.74,2.74,0,0,1,1.53.14c-.14-.37-.36-.56-.65-.56h-.66c-.15,0-.48,0-1,.07S897.5,185.22,897.5,185.69Zm3.39.85-.6.35a.67.67,0,0,0-.38.64h1.53Zm-.76-14.81h.76v-.56h-.76Zm.76,57.54c-.15,0-.22.22-.22.64s.07.63.22.63.44-.21.44-.63S901.18,229.27,900.89,229.27Zm1.32-33.42.54-.57h-.87Zm0-6.63c-.15,0-.22.19-.22.56s.07.57.22.57.43-.19.43-.57S902.5,189.22,902.21,189.22Zm.54-2.12a.27.27,0,1,0-.54,0c.07.19.16.29.27.29S902.68,187.29,902.75,187.1Zm-.54,6.63h.54v-.56h-.54Zm1.75,1.55a.25.25,0,0,0-.28-.28c-.18,0-.23.1-.16.28s.16.29.27.29S904,195.47,904,195.28Zm-.44-3.24H904v-.56Zm.44-8.74c-.22,0-.33.16-.33.49s.11.49.33.49.33-.16.33-.49S904.18,183.3,904,183.3Zm.33,2a4.84,4.84,0,0,0,.54,2.47,8.2,8.2,0,0,1,.88,2.18,1.24,1.24,0,0,0,.33-.7v-.42a4.24,4.24,0,0,0-.17-.92,5.67,5.67,0,0,1-.16-.78,13.18,13.18,0,0,1-.27-1.41C905.4,185.41,905,185.27,904.29,185.27Zm1.42,7.9c-.22,0-.33.16-.33.49s.11.49.33.49.22-.16.22-.49S905.86,193.17,905.71,193.17Zm.33-13.82c-.15,0-.22.21-.22.63s.07.59.22.5a.66.66,0,0,0,.22-.57A.63.63,0,0,0,906,179.35Zm.44-2.12q-.33,0-.33.57c0,.37.11.56.33.56s.33-.19.33-.56S906.7,177.23,906.48,177.23Zm1.75,9.87v-.56h-1.32Zm.66,34.7c-.81,0-1.21.38-1.21,1.13.51,0,1-.38,1.42-1.13Zm-.22-43c-.22,0-.33.21-.33.64s.11.63.33.63.32-.21.32-.63S908.89,178.78,908.67,178.78Zm.43.57c-.21,0-.32.19-.32.56s.11.57.32.57.33-.19.33-.57S909.32,179.35,909.1,179.35Zm1.65,45a.83.83,0,0,0,.22.42l.21.28a1.06,1.06,0,0,0,.72-.42c.25-.28.45-.52.6-.71l-.44-.56h-.44a1,1,0,0,1-.44.28,1.26,1.26,0,0,0-.43.28v.43Zm.87,4.93v-.42h-.44Zm.44-7.47c-.22,0-.33.16-.33.49s.11.5.33.5.33-.17.33-.5S912.28,221.8,912.06,221.8Zm1.32.42c-.3,0-.44.19-.44.57s.14.56.44.56c.14,0,.21-.19.21-.56S913.52,222.22,913.38,222.22Zm3,7.76c-.51,0-.8.19-.87.56h.43a1.19,1.19,0,0,1,.44-.28c.22-.09.33-.19.33-.28Z"/></g><g id="A"><path class="cls-2" d="M872.53,169.3v-4.84q-.36,1.56-.84,3.12Z"/><path class="cls-3" d="M680.81,151.79c-1.69,3.56-3.54,7.78-5.54,12.61-2.62,6.18-4.06,10-4.83,12.33,3.19-.69,8.13-1.6,14.92-2.75-1.29-4.73-2.08-7.86-2.41-9.54C682.05,160.36,681.34,156.12,680.81,151.79Z"/><path class="cls-3" d="M810.61,224.07l-.26-.08-.91-.26-.39-.12-.68-.21-.37-.12-.61-.2-.31-.1-.73-.26-.15-.05-.61-.23-.23-.1a3.52,3.52,0,0,1-.39-.16l-.23-.09-.33-.15-.18-.09a2.39,2.39,0,0,1-.32-.16l-.12-.06-.37-.2-.09-.06-.23-.14-.1-.07-.17-.13-.09-.06-.15-.13-.06-.05-.18-.18a5.79,5.79,0,0,1-.71-.85,5.28,5.28,0,0,1-1-3.21,8.05,8.05,0,0,1,1.42-4.1c.79-1.23,1.25-2,1.53-2.56.15-.28.24-.48.3-.62a1.6,1.6,0,0,0,.08-.2v-87a6.82,6.82,0,0,0-.45-1.87,5.84,5.84,0,0,1-.16-4,13.88,13.88,0,0,1,.62-1.35,12.74,12.74,0,0,1,7.88-6.24,17.31,17.31,0,0,1,4.67-.36,84.19,84.19,0,0,1,15.17,1.42c6.92,1.17,11.69,2.85,14.58,5.12,1.66,1.33,3.47,3.73,5.47,7.22a151.94,151.94,0,0,1,8.68,19.05c.47,1.23.94,2.42,1.41,3.59l.36.91c.34.87.68,1.72,1,2.56.13.33.27.66.4,1,.4,1,.79,1.95,1.18,2.89,0,.1.08.21.13.31l1.23,3c.13.3.26.59.38.88l.86,2,.39.9,1,2.21.19.43,0,0a41.81,41.81,0,0,0,.74-6.89c.31-14.68-7.36-30-22.81-45.52C787.69,49.87,631.88,3.32,499.57,5.58,437.57,6.65,369.5,18.3,307.9,38.39c-58.26,19-104.39,43.44-130.82,69.19h.79a43.34,43.34,0,0,1,6,.44,26.34,26.34,0,0,1,9.09,3.2c.4.23.78.47,1.17.72,2.88,1.88,5.64,3.76,8.22,5.6l1.65,1.18c7.25,5.15,8.66,6.23,9.06,6.59l0,0c.45.39.87.79,1.27,1.19.21.21.39.44.59.65s.36.39.52.58l.18.24a15.85,15.85,0,0,1,1.58,2.35,1.51,1.51,0,0,1,.09.18,13.83,13.83,0,0,1,1.06,2.56,13.3,13.3,0,0,1,.53,2.88c.36,5.28-2,11.08-7.06,17.47l-1.06,1.28c-.73.87-1.51,1.74-2.33,2.62-.42.45-.84.89-1.28,1.34-.88.89-1.8,1.8-2.78,2.72a173.72,173.72,0,0,1-20.62,16.16q3.88,2.76,10.45,7.69,8.42,6.31,21.18,16.16c.87.24,1.95.6,3.26,1.1l1.39.54a32.29,32.29,0,0,1,4.52,2.21l.38.22.26.36a3.63,3.63,0,0,1,.65,2.26,10.25,10.25,0,0,1-1.86,4.8,54.52,54.52,0,0,1-5.51,7l0,0c-.4.43-.78.86-1.17,1.27l-.37.39-.85.86-.37.37c-.36.36-.71.69-1.06,1l-.1.09-1.12,1-.12.1c32.91,18.86,76.74,35.4,127,47.91,51.36,12.78,104.61,20.16,154,21.36C606,297,735.05,268.25,810.69,224.09ZM346.15,123.39a10,10,0,0,1-1,4.56l-.12.21a8.32,8.32,0,0,1-4.2,3.63c-.2.09-.41.17-.61.24l-2.4.86c-7,8.17-16.37,22.58-27.82,42.85-13.46,24.06-16.66,32.15-17,34.69a7.63,7.63,0,0,0,.66,3,21,21,0,0,1,.63,2.4,10.74,10.74,0,0,1,.2,3,19.27,19.27,0,0,1-2.66,8.48c-.17.25-.34.49-.52.71a8.22,8.22,0,0,1-1.18,1.18,7.13,7.13,0,0,1-3.66,1.55,7,7,0,0,1-.89.05c-1.44,0-4.13-.29-10-1.56l-2.72-.6c-7.06-1.63-11.71-3-14.2-4.18-5-2.66-7.44-5.42-7.44-8.47a9.14,9.14,0,0,1,1.54-4.71c1.36-2.84,3.86-7.95,7.6-15.51q1.29-2.62,2.79-5.64c-9.88-15.28-16.67-26-20.17-31.91-7.12-12-12.26-22-15.26-29.72l-.05-.06a12.8,12.8,0,0,0-1.52-1.36c-1.7-1.33-2.52-2.66-2.52-4.07,0-2.3,2.38-4.61,8.22-8,10.71-6.2,18-9,22.3-8.6a10,10,0,0,1,1.81.35,10.87,10.87,0,0,1,4.85,3.21,11.77,11.77,0,0,1,2.51,3.53,6.47,6.47,0,0,1,.37,1.13l.05.44a50.32,50.32,0,0,0,1.06,8.05c2.58,10.41,7.85,21.81,15.67,33.93.67-1.24,1.31-2.41,1.92-3.52,4.73-8.63,7.43-13.45,8.21-14.65a157.5,157.5,0,0,1,15.85-22,44,44,0,0,1,2.6-5.63l.17-.33.29-.24a13.42,13.42,0,0,1,1.12-.87c2.74-1.86,6.21-2.62,10.36-2.25,3.24.3,7.92,2,14.31,5.06h0c8.36,4.06,10.3,6.12,10.63,8a17.29,17.29,0,0,1,.21,2.57A1.48,1.48,0,0,1,346.15,123.39Zm167.77,94.74c0,.1,0,.21,0,.35v.06c-.11.82-.28,2.25-.53,4.34,0,.36-.09.73-.13,1.12h0v0a8.08,8.08,0,0,1-1.26,4,5.54,5.54,0,0,1-.82,1l-.25.24-.32.15a10,10,0,0,1-4,.59,64.57,64.57,0,0,1-15.68-2.43c-6.88-1.56-11.53-3.43-14.15-5.71-.78-.66-1.73-2-2.82-6.09-.26-1-.52-2.06-.78-3.35a93.89,93.89,0,0,0-4-13.67c-4.54.55-10.85,1.77-18.82,3.61-8.18,1.89-13.74,3.49-16.54,4.76-1.79,3.81-4.16,8.51-7.05,14-.36,1.25-.76,2.48-1.19,3.63a4.78,4.78,0,0,1-.28.61,6.61,6.61,0,0,1-2.26,2.41,11.41,11.41,0,0,1-1.74.95,6,6,0,0,1-2.5.45,19.41,19.41,0,0,1-2.76-.22,78.16,78.16,0,0,1-12.78-3.35c-8.56-2.84-10.88-4.09-11.66-5a.44.44,0,0,1-.09-.11,1.35,1.35,0,0,1-.14-.22,2.1,2.1,0,0,1-.21-.52c-.53-1.38-.48-3.76,3.67-11.19,3.6-6.76,5.34-10.25,6.17-12.05-2.3-2-3.46-4.2-3.46-6.43a9.4,9.4,0,0,1,.23-2c.32-1.44,1.44-3,11.7-7.07L433,120.57a8,8,0,0,0,.22-2.16v-.1c0-.76,0-1.74-.14-3a14,14,0,0,1-.09-1.71v-.1c0-.26,0-.53.05-.81a7.59,7.59,0,0,1,.14-.9.11.11,0,0,1,0,0c0-.13.06-.26.1-.39s0-.06,0-.09a6.21,6.21,0,0,1,.37-.93h0a3.21,3.21,0,0,1,.19-.31.54.54,0,0,1,.07-.13l.22-.3.09-.11.21-.22.15-.15.2-.15a1.41,1.41,0,0,1,.23-.18h0l.06,0a6.09,6.09,0,0,1,2.76-.88l.24,0a23.07,23.07,0,0,1,2.53-.12c5.91,0,14.39,1.14,25.22,3.38,14.87,3.08,18.62,5.13,20.14,6.4l.65.54.06.85c.73,10.13,3.51,25.59,8.28,46,6.09,25,12.35,42.49,18.61,51.88l.43.65Zm96.91-34a5.52,5.52,0,0,0-.87.08c-4.72,13.48-8.36,22.36-11.1,27.12-5.15,9.19-12,15.29-20.35,18.14a21.52,21.52,0,0,1-7.12,1.21c-.19,0-.42,0-.68,0-1.58-.1-4.68-.59-12.05-2.51-1.27-.33-2.67-.71-4.21-1.13-3.4-.67-8.73-2-15.83-4.06l-.14,0c-7.67-2.78-13.67-9.18-17.82-19q-.69-1.63-1.29-3.36c-2.82-8-4.24-17.37-4.24-27.85A100.33,100.33,0,0,1,520.89,138c.88-2.41,1.87-4.76,3-7,6.44-13.63,15.17-21.4,25.94-23.08a30.87,30.87,0,0,1,3.27-.16c6.36,0,14.18,1.53,23.23,4.55,9.94,3.29,16.52,6.89,20.13,11a25.61,25.61,0,0,1,5.83,12.63c1,4.65,1.45,6.7,1.69,7.61,0,.08,0,.15.05.21s.1.34.13.42l.09.16.06.26c.37,1.58.86,3.48,1.46,5.62l.07.34c.18,1.78-.58,3.65-2.31,5.72a10.59,10.59,0,0,1-4.85,3.62c-1.45.42-4.41.51-15.46-2l-2.07-.47c-9.14-2.13-11.79-3.28-12.92-4l-.21-.11-.18-.1-.08-.05c-1.92-1.17-3.82-3.5-3.32-8.15a3.5,3.5,0,0,1,.07-.45c0-.09,0-.17,0-.26a3.33,3.33,0,0,1,.16-.4c0-.11.07-.21.12-.32a3.37,3.37,0,0,1,.19-.32,6.55,6.55,0,0,1,.85-1.18,1.92,1.92,0,0,0,.43-.62c0-4.84-.58-6.75-.93-7.47a2.65,2.65,0,0,0-.19-.32c-1.87.06-5.34,2.12-9,14.42a113.69,113.69,0,0,0-4.36,32.22c0,14.34,2.27,23.66,6.58,27.25a7.45,7.45,0,0,0,2,1.19s1.11-.07,3.63-3.68c.58-.83,1.23-1.86,2-3.11a43.47,43.47,0,0,0,5.56-14.26c-.25-.12-.53-.25-.82-.37-2.06-.89-5-2-8.89-3.17a33,33,0,0,1-5.9-2.31l-.52-.29a4.47,4.47,0,0,1-2.08-2.24,4.85,4.85,0,0,1-.28-1.63,7.56,7.56,0,0,1,.57-2.8,17.23,17.23,0,0,1,1.79-3.28,14.46,14.46,0,0,1,6.39-5.67,26.7,26.7,0,0,1,8.73-1.39c1.88,0,3.34,0,4.47,0a30.11,30.11,0,0,0,3.73-.2l.11,0a84.43,84.43,0,0,0,9.91-2.31,35.55,35.55,0,0,1,9.24-1.74,17,17,0,0,1,2.33.16c3.39.51,8.09,2.65,14.37,6.53,8.36,5.18,9.92,7.43,9.74,9.4h0c-.46,4.55-3.22,7.6-8,8.83l-.25,0a6.94,6.94,0,0,1-3.41-.55l-.21-.07a1.62,1.62,0,0,0-.28-.11l-.37-.15-.31-.09-.17-.05-.12,0A1.84,1.84,0,0,0,610.83,184.12Zm127.35,34c0,.08,0,.19,0,.3s0,.24,0,.38,0,.08,0,.12c-.13,1-.34,2.7-.62,5.07h0v0a8.18,8.18,0,0,1-1.26,4,5.54,5.54,0,0,1-.82,1l-.25.24-.32.15a10,10,0,0,1-4,.59,64.71,64.71,0,0,1-15.69-2.43c-6.87-1.56-11.52-3.43-14.14-5.71-1-.81-2.18-2.59-3.61-9.43a92.91,92.91,0,0,0-3.95-13.68c-4.54.55-10.86,1.77-18.82,3.61-8.18,1.89-13.74,3.49-16.54,4.76-1.57,3.34-3.58,7.35-6,12-.34.66-.7,1.33-1.06,2-.36,1.25-.76,2.47-1.19,3.63a6.5,6.5,0,0,1-2.77,3.18,12.55,12.55,0,0,1-1.51.79l-.26.09-.26.11-.1,0a6.56,6.56,0,0,1-1.89.23,19.52,19.52,0,0,1-2.76-.22,78.09,78.09,0,0,1-12.77-3.35c-6.78-2.25-9.65-3.5-10.93-4.38a2.81,2.81,0,0,1-.36-.27l-.27-.24a2.37,2.37,0,0,1-.55-1c-.52-1.38-.47-3.76,3.68-11.19,3.6-6.76,5.34-10.25,6.17-12.05a9.26,9.26,0,0,1-3.41-5.6,5.78,5.78,0,0,1-.05-.83,8.84,8.84,0,0,1,.23-2c.32-1.44,1.43-3,11.7-7.07l23.57-60.48c.1-.29.36-1.58.06-5.22l0-.25c-.12-1.39-.3-4.73,2-6.28a2.39,2.39,0,0,1,.41-.26c1-.56,2.65-.8,5.18-.8a114,114,0,0,1,19.38,2.23q2.79.53,5.84,1.15c3.72.77,6.74,1.47,9.21,2.12,7.4,1.93,9.79,3.32,10.93,4.28l.65.54.06.85c.73,10.13,3.51,25.6,8.28,46q2.85,11.73,5.75,21.23c4.25,13.92,8.55,24.2,12.86,30.65l.43.65Zm50.64-98.21c-.53,1.06-.86,1.72-1,2a47.73,47.73,0,0,0-2.06,8v85.14a2.56,2.56,0,0,0,.64,1.7A5.47,5.47,0,0,1,788,220.2a23.41,23.41,0,0,1-.6,5.67c-.88,3.48-2.73,5.45-5.53,5.89a4.23,4.23,0,0,1-.81.06h0a39.38,39.38,0,0,1-5.31-.58l-1-.15-2.27-.38c-1.24-.21-2.66-.47-4.28-.76-10.81-2-13.38-3.06-14.46-3.79-3.32-2.15-4.95-4.29-4.95-6.52a3.76,3.76,0,0,1,1.37-2.71h0a2.7,2.7,0,0,0,.11-.9v-98a1.29,1.29,0,0,0-.27-.58,4.89,4.89,0,0,1-1-2.9l0-.22c.35-3.2,3.21-5.29,8.5-6.19a59.72,59.72,0,0,1,8.94,0,100.64,100.64,0,0,1,11.58,1.19l.65.1.07,0,1.35.26c.78.16,1.62.34,2.45.57,2.79.76,5.6,1.94,6.76,4a4.28,4.28,0,0,1,.54,2.1A8.16,8.16,0,0,1,788.82,119.92Z"/><path d="M725,186.07q-2.89-9.48-5.75-21.23c-4.77-20.36-7.55-35.83-8.28-46l-.06-.85-.65-.54c-1.14-1-3.53-2.35-10.93-4.28-2.47-.65-5.49-1.35-9.21-2.12q-3-.63-5.84-1.15a114,114,0,0,0-19.38-2.23c-2.53,0-4.13.24-5.18.8a2.39,2.39,0,0,0-.41.26c-2.29,1.55-2.11,4.89-2,6.28l0,.25c.3,3.64,0,4.93-.06,5.22L633.73,181c-10.27,4.1-11.38,5.63-11.7,7.07a8.84,8.84,0,0,0-.23,2,5.78,5.78,0,0,0,.05.83,9.26,9.26,0,0,0,3.41,5.6c-.83,1.8-2.57,5.29-6.17,12.05-4.15,7.43-4.2,9.81-3.68,11.19a2.37,2.37,0,0,0,.55,1l.27.24a2.81,2.81,0,0,0,.36.27c1.28.88,4.15,2.13,10.93,4.38a78.09,78.09,0,0,0,12.77,3.35,19.52,19.52,0,0,0,2.76.22,6.56,6.56,0,0,0,1.89-.23l.1,0,.26-.11.26-.09a12.55,12.55,0,0,0,1.51-.79,6.5,6.5,0,0,0,2.77-3.18c.43-1.16.83-2.38,1.19-3.63.36-.69.72-1.36,1.06-2,2.41-4.62,4.42-8.63,6-12,2.8-1.27,8.36-2.87,16.54-4.76,8-1.84,14.28-3.06,18.82-3.61a92.91,92.91,0,0,1,3.95,13.68c1.43,6.84,2.64,8.62,3.61,9.43,2.62,2.28,7.27,4.15,14.14,5.71A64.71,64.71,0,0,0,730.83,230a10,10,0,0,0,4-.59l.32-.15.25-.24a5.54,5.54,0,0,0,.82-1,8.18,8.18,0,0,0,1.26-4v0h0c.28-2.37.49-4.05.62-5.07,0,0,0-.08,0-.12s0-.27,0-.38,0-.22,0-.3l.12-.76-.43-.65C733.56,210.27,729.26,200,725,186.07Zm7.83,39.76a10.07,10.07,0,0,1-2,.15,61,61,0,0,1-14.74-2.31c-6.19-1.41-10.38-3-12.48-4.86-.1-.09-1-1.12-2.3-7.24a91.16,91.16,0,0,0-4.75-15.78l-.57-1.36-1.47.15a179.22,179.22,0,0,0-20.8,3.86c-9.27,2.15-15.17,3.91-18.06,5.38l-.61.32-.29.62c-1.82,3.91-4.29,8.83-7.36,14.64l-.16.39c-.35,1.22-.74,2.41-1.15,3.53a4.07,4.07,0,0,1-2.24,1.75,2.94,2.94,0,0,1-.8.07c-2.73,0-7.53-1.13-14.27-3.37-6.52-2.16-8.78-3.21-9.56-3.65.09-.73.63-2.75,3.38-7.68,4-7.56,6.3-12.09,7-13.87l.52-1.4-1.19-.89c-1.41-1.06-3.09-2.66-3.09-4.24a4.93,4.93,0,0,1,.07-.81,10.13,10.13,0,0,1,1.81-1.15,81.33,81.33,0,0,1,8.33-3.69l.81-.32,24.24-62.19c.47-1.4.56-3.6.28-6.95-.23-2.33.23-2.86.27-2.89a9,9,0,0,1,3.3-.33c5.64,0,13.85,1.11,24.41,3.29,11.62,2.41,16.06,4.13,17.74,5.12.84,10.34,3.64,25.69,8.31,45.65,6.07,24.95,12.37,42.62,18.75,52.53-.14,1-.35,2.78-.65,5.36A4.33,4.33,0,0,1,732.84,225.83Z"/><path d="M782.57,110.27c-.83-.23-1.67-.41-2.45-.57l-1.35-.26-.07,0-.65-.1a100.64,100.64,0,0,0-11.58-1.19,59.72,59.72,0,0,0-8.94,0c-5.29.9-8.15,3-8.5,6.19l0,.22a4.89,4.89,0,0,0,1,2.9,1.29,1.29,0,0,1,.27.58v98a2.7,2.7,0,0,1-.11.9h0a3.76,3.76,0,0,0-1.37,2.71c0,2.23,1.63,4.37,4.95,6.52,1.08.73,3.65,1.76,14.46,3.79,1.62.29,3,.55,4.28.76l2.27.38,1,.15a39.38,39.38,0,0,0,5.31.58h0a4.23,4.23,0,0,0,.81-.06c2.8-.44,4.65-2.41,5.53-5.89a23.41,23.41,0,0,0,.6-5.67,5.47,5.47,0,0,0-1.58-3.45,2.56,2.56,0,0,1-.64-1.7V129.91a47.73,47.73,0,0,1,2.06-8c.11-.27.44-.93,1-2a8.16,8.16,0,0,0,1-3.54,4.28,4.28,0,0,0-.54-2.1C788.17,112.21,785.36,111,782.57,110.27Zm2.67,7.86c-.58,1.16-.93,1.88-1.08,2.23a51.67,51.67,0,0,0-2.33,9l0,.18v85.52a7.49,7.49,0,0,0,.1,1.17,6.6,6.6,0,0,0,1.48,3.11,3.56,3.56,0,0,1,.64.95c0,3.26-.49,7.18-2.76,7.53-.35,0-2.3,0-12.27-1.8-10.63-2-12.6-2.92-13-3.18-2.32-1.51-2.94-2.49-3.1-2.93l.05-.05a5,5,0,0,0,1.37-3.82v-98a4.94,4.94,0,0,0-1-2.91,1.44,1.44,0,0,1-.25-.49c.36-1.56,3.71-2.3,5.11-2.54l.17,0a62,62,0,0,1,8,0,91.55,91.55,0,0,1,13,1.49h0c6.27,1.28,6.55,2.75,6.55,2.76A4.63,4.63,0,0,1,785.24,118.13Z"/><path class="cls-3" d="M849.08,195.48l-1.06-2-1-1.82c-.51-.95-1-1.9-1.54-2.85l-.93-1.73c-.56-1-1.13-2.09-1.71-3.14l-.81-1.5c-.85-1.55-1.7-3.12-2.57-4.68v26.47C843,201.34,846.19,198.4,849.08,195.48Z"/><path class="cls-3" d="M183.83,132.09c0-.59,0-.78-1.14-.78-5.28,0-14.95,4.28-28.75,12.73V161.3c4.67-2.1,10.56-6.43,17.57-12.9C182.23,138.52,183.83,133.94,183.83,132.09Z"/><path class="cls-3" d="M456.55,151.79c-1.69,3.56-3.54,7.78-5.54,12.61-2.62,6.18-4.06,10-4.82,12.33,3.18-.69,8.12-1.6,14.91-2.75-1.29-4.72-2.08-7.86-2.41-9.54C457.79,160.36,457.08,156.12,456.55,151.79Z"/><path class="cls-4" d="M96.49,130.27a11.32,11.32,0,0,0,3.42.79c4.12-.1,4.89-.83,4.92-.86a6.83,6.83,0,0,0,.67-3.53,28.33,28.33,0,0,0-1.74-8.81c-1.15-3.54-2-5-2.47-5.67l0,0c-.87-1.17-2.82-2-5.64-2.26a10.87,10.87,0,0,0-4.53.61,39.36,39.36,0,0,1-5.7,1.74L21,124.6a21,21,0,0,1-5.2,0,13.86,13.86,0,0,0-4.19.1c-5.15,1.19-6.76,2.71-7.25,3.61,0,.28.3,2.23,6,8s9,7.39,10.63,7.72a4,4,0,0,0,2.35-.6A13.9,13.9,0,0,1,27,142.06l15.44-2.94v71.21c0,1.57-.84,3.54-2.74,6.39s-.91,3.68-.46,4.12,2.57,1.65,13.39,3.5a110.54,110.54,0,0,0,16.7,1.78c.67,0,1,0,1.18,0,.94-.55,1.72-1.93,2.26-4,.86-3,.55-3.82.53-3.85a20.44,20.44,0,0,1-2.82-9.69V133.79l20.68-4.22A10.69,10.69,0,0,1,96.49,130.27Z"/><path d="M104.47,109.75c-1.6-2.14-4.36-3.4-8.41-3.83a14.6,14.6,0,0,0-6.25.79,42.1,42.1,0,0,1-5.09,1.59l-64.4,12.36a16.67,16.67,0,0,1-4.12,0,17.78,17.78,0,0,0-5.45.19c-5.5,1.27-8.79,3.22-10.06,6L.61,127c-.94,2.68,1.14,6.31,7,12.15,5.28,5.29,9.43,8.18,12.72,8.82a7.76,7.76,0,0,0,4.86-.94,10.2,10.2,0,0,1,2.55-1L38.46,144v66.38c0,.18-.1,1.21-2.07,4.17-3.22,4.84-1.32,7.85.16,9.29,1.24,1.07,4.1,2.56,15.44,4.49a114,114,0,0,0,17.36,1.84,7.59,7.59,0,0,0,2.54-.26l.16-.07c2.16-1,3.72-3.27,4.6-6.68.92-3.23,1-5.31.2-6.8a16.46,16.46,0,0,1-2.35-7.79V137.05l17.4-3.55a7,7,0,0,1,3.27.54,14.87,14.87,0,0,0,4.78,1h0c4.57-.11,7.11-.94,8.21-2.67a10.44,10.44,0,0,0,1.33-5.72,32,32,0,0,0-2-10.07A23.74,23.74,0,0,0,104.47,109.75Zm-34,24v74.73a20.44,20.44,0,0,0,2.82,9.69s.33.81-.53,3.85c-.54,2.09-1.32,3.47-2.26,4-.16,0-.51,0-1.18,0a110.54,110.54,0,0,1-16.7-1.78c-10.82-1.85-13-3.2-13.39-3.5s-1.39-1.34.46-4.12,2.74-4.82,2.74-6.39V139.12L27,142.06a13.9,13.9,0,0,0-3.64,1.36A4,4,0,0,1,21,144c-1.67-.33-4.87-1.93-10.63-7.72s-6-7.68-6-8c.49-.9,2.1-2.42,7.25-3.61a13.86,13.86,0,0,1,4.19-.1,21,21,0,0,0,5.2,0l64.36-12.36a39.36,39.36,0,0,0,5.7-1.74,10.87,10.87,0,0,1,4.53-.61c2.82.31,4.77,1.09,5.64,2.26l0,0c.49.63,1.32,2.13,2.47,5.67a28.33,28.33,0,0,1,1.74,8.81,6.83,6.83,0,0,1-.67,3.53s-.8.76-4.92.86a11.32,11.32,0,0,1-3.42-.79,10.69,10.69,0,0,0-5.31-.7Z"/><path class="cls-4" d="M208.63,223.64a32.27,32.27,0,0,0,4.18-3.5c.88-.86,1.8-1.82,2.73-2.87h0c4.5-5.05,5.82-7.5,6.2-8.59a3.86,3.86,0,0,0,.12-.38,25.41,25.41,0,0,0-3.21-1.52,40.22,40.22,0,0,0-4.6-1.6l-.4-.1-.33-.26c-17.55-13.53-29-22.15-34.17-25.64l-2.45-1.66,2.47-1.65q14.88-10,23.61-18.41c.45-.43.88-.86,1.31-1.29.84-.85,1.64-1.69,2.38-2.52q1.69-1.86,3-3.64,5.85-7.69,5.44-13.76a10.39,10.39,0,0,0-2.64-6.07,18.13,18.13,0,0,0-1.86-1.86l-.11-.11c-.27-.22-1.26-1-4.44-3.25l-5.85-4.17c-.64-.45-1.28-.91-1.94-1.36-2-1.38-4-2.77-6.15-4.15a22.25,22.25,0,0,0-8.67-3.32,40.44,40.44,0,0,0-5.42-.39,33.31,33.31,0,0,0-5.78.56,59.43,59.43,0,0,0-10.46,3c-6.84,2.6-11.12,3.85-13.49,3.95s-6.23-.38-11.69-1.49c-6.57-1.34-8.74-1.39-9.44-1.3-2,.19-5.2.74-5.62,2.28l.13.19a4.82,4.82,0,0,1,.94,2.91v97a10.23,10.23,0,0,1-.6,3.71c-.12.32-.2.56-.25.74.69.42,3,1.44,10.1,2.61s12.49,1.77,16,1.51,5.37-1.08,5.37-2.6a7.18,7.18,0,0,0-1.24-2.36,9.4,9.4,0,0,1-1.91-5V187.72l42.44,29.74.17.2a20.26,20.26,0,0,1,3,4.29,9,9,0,0,0,13.1,1.69Zm-56.12-57.53-2.57.76V141.81l1.15-.7c.94-.59,1.86-1.15,2.76-1.69,11.76-7.06,20.42-11,26.31-11.9a16.68,16.68,0,0,1,2.53-.21c3.17,0,5.14,1.83,5.14,4.78,0,4.57-4.32,10.69-13.6,19.25C165.27,159.6,158.17,164.43,152.51,166.11Z"/><path d="M187.83,132.09c0-3-2-4.78-5.14-4.78a16.68,16.68,0,0,0-2.53.21c-5.89.92-14.55,4.84-26.31,11.9-.9.54-1.82,1.1-2.76,1.69l-1.15.7v25.06l2.57-.76c5.66-1.68,12.76-6.51,21.72-14.77C183.51,142.78,187.83,136.66,187.83,132.09ZM153.94,161.3V144c13.8-8.45,23.47-12.73,28.75-12.73,1.14,0,1.14.19,1.14.78,0,1.85-1.6,6.43-12.32,16.31C164.5,154.87,158.61,159.2,153.94,161.3Z"/><path class="cls-4" d="M342,121.42a8.33,8.33,0,0,0-2.2-1.77l-.58-.37c-.42-.26-.9-.54-1.45-.85-1.1-.62-2.49-1.35-4.23-2.19h0c-2.2-1.07-4.19-2-5.95-2.67-.59-.23-1.16-.45-1.7-.64a22.93,22.93,0,0,0-5.27-1.37,14.93,14.93,0,0,0-4.67.25,8.88,8.88,0,0,0-3.57,1.69c-.54,1-1,2-1.38,2.8a22.89,22.89,0,0,0-.89,2.24l-.13.38-.26.3A154.69,154.69,0,0,0,294,141l0,.09c-.57.85-3,5.16-11.58,20.83l-1.57,2.9L279,162.11c-9.1-13.57-15.18-26.36-18.06-38l0-.11a55.61,55.61,0,0,1-1.14-8.58,7.1,7.1,0,0,0-1.84-2.62c-.16-.18-.33-.35-.49-.51a6,6,0,0,0-3.64-1.82c-2.33-.23-7.68,1-19.92,8.08-4.72,2.72-5.88,4.09-6.16,4.53a4.44,4.44,0,0,0,.93.92,10.05,10.05,0,0,1,2.66,2.71l.1.23c2.91,7.55,8,17.41,15,29.3,3.55,6,10.51,17,20.7,32.73l.62,1-.51,1c-5.64,11.39-9.21,18.66-10.91,22.21l-.11.19a5.54,5.54,0,0,0-1,2.7c0,1.35,1.91,3.14,5.23,4.9a35.67,35.67,0,0,0,4.94,1.72c2.23.65,5,1.36,8.37,2.13,4.87,1.12,7.86,1.65,9.69,1.89a11.48,11.48,0,0,0,2.52.15c2.37-.31,3.91-3.14,4.52-8.39a9.48,9.48,0,0,0-.65-3.72,10.62,10.62,0,0,1-.81-4.85c.32-2.65,2.5-9.37,17.44-36.09,11.52-20.37,21-34.94,28.15-43.34.33-.8,1.5-1.21,4.23-2.18C340.71,127.61,342.72,126.25,342,121.42Z"/><path d="M346,120.61c-.33-1.85-2.27-3.91-10.63-8h0c-6.39-3.1-11.07-4.76-14.31-5.06-4.15-.37-7.62.39-10.36,2.25a13.42,13.42,0,0,0-1.12.87l-.29.24-.17.33a44,44,0,0,0-2.6,5.63,157.5,157.5,0,0,0-15.85,22c-.78,1.2-3.48,6-8.21,14.65-.61,1.11-1.25,2.28-1.92,3.52-7.82-12.12-13.09-23.52-15.67-33.93a50.32,50.32,0,0,1-1.06-8.05l-.05-.44a6.47,6.47,0,0,0-.37-1.13,11.77,11.77,0,0,0-2.51-3.53,10.87,10.87,0,0,0-4.85-3.21,10,10,0,0,0-1.81-.35c-4.29-.41-11.59,2.4-22.3,8.6-5.84,3.37-8.22,5.68-8.22,8,0,1.41.82,2.74,2.52,4.07a12.8,12.8,0,0,1,1.52,1.36l.05.06c3,7.74,8.14,17.74,15.26,29.72,3.5,5.9,10.29,16.63,20.17,31.91q-1.5,3-2.79,5.64c-3.74,7.56-6.24,12.67-7.6,15.51a9.14,9.14,0,0,0-1.54,4.71c0,3.05,2.41,5.81,7.44,8.47,2.49,1.19,7.14,2.55,14.2,4.18l2.72.6c5.85,1.27,8.54,1.56,10,1.56a7,7,0,0,0,.89-.05,7.13,7.13,0,0,0,3.66-1.55,8.22,8.22,0,0,0,1.18-1.18c.18-.22.35-.46.52-.71a19.27,19.27,0,0,0,2.66-8.48,10.74,10.74,0,0,0-.2-3,21,21,0,0,0-.63-2.4,7.63,7.63,0,0,1-.66-3c.32-2.54,3.52-10.63,17-34.69,11.45-20.27,20.81-34.68,27.82-42.85l2.4-.86c.2-.07.41-.15.61-.24a8.32,8.32,0,0,0,4.2-3.63l.12-.21a10,10,0,0,0,1-4.56,1.48,1.48,0,0,0,0-.21A17.29,17.29,0,0,0,346,120.61Zm-11.31,9.82c-7.17,8.4-16.63,23-28.15,43.34-14.94,26.72-17.12,33.44-17.44,36.09a10.62,10.62,0,0,0,.81,4.85,9.48,9.48,0,0,1,.65,3.72c-.61,5.25-2.15,8.08-4.52,8.39a11.48,11.48,0,0,1-2.52-.15c-1.83-.24-4.82-.77-9.69-1.89-3.34-.77-6.14-1.48-8.37-2.13a35.67,35.67,0,0,1-4.94-1.72c-3.32-1.76-5.23-3.55-5.23-4.9a5.54,5.54,0,0,1,1-2.7l.11-.19c1.7-3.55,5.27-10.82,10.91-22.21l.51-1-.62-1C257,173.21,250,162.19,246.44,156.22c-7.07-11.89-12.13-21.75-15-29.3l-.1-.23a10.05,10.05,0,0,0-2.66-2.71,4.44,4.44,0,0,1-.93-.92c.28-.44,1.44-1.81,6.16-4.53,12.24-7.08,17.59-8.31,19.92-8.08a6,6,0,0,1,3.64,1.82c.16.16.33.33.49.51a7.1,7.1,0,0,1,1.84,2.62A55.61,55.61,0,0,0,260.9,124l0,.11c2.88,11.66,9,24.45,18.06,38l1.84,2.74,1.57-2.9c8.54-15.67,11-20,11.58-20.83l0-.09a154.69,154.69,0,0,1,15.72-21.81l.26-.3.13-.38a22.89,22.89,0,0,1,.89-2.24c.38-.84.84-1.77,1.38-2.8a8.88,8.88,0,0,1,3.57-1.69,14.93,14.93,0,0,1,4.67-.25,22.93,22.93,0,0,1,5.27,1.37c.54.19,1.11.41,1.7.64,1.76.71,3.75,1.6,5.95,2.67h0c1.74.84,3.13,1.57,4.23,2.19.55.31,1,.59,1.45.85l.58.37a8.33,8.33,0,0,1,2.2,1.77c.69,4.83-1.32,6.19-3.16,6.83C336.14,129.22,335,129.63,334.64,130.43Z"/><path class="cls-4" d="M472.3,195.79a91.16,91.16,0,0,1,4.75,15.78c1.27,6.12,2.2,7.15,2.3,7.24a8.29,8.29,0,0,0,.89.68c2.29,1.55,6.17,2.95,11.59,4.18A61,61,0,0,0,506.57,226a10.07,10.07,0,0,0,2-.15,4.33,4.33,0,0,0,.63-2.17c.3-2.58.51-4.31.65-5.36-5.18-8.05-10.31-21.23-15.31-39.27q-1.73-6.24-3.44-13.26c-.58-2.49-1.14-4.92-1.66-7.27C486,143.22,483.87,131,483,122.12c-.07-.69-.13-1.35-.18-2-1.68-1-6.12-2.71-17.74-5.12-10.56-2.18-18.77-3.29-24.41-3.29a9,9,0,0,0-3.3.33s-.5.56-.27,2.89c.28,3.35.19,5.55-.28,6.95l0,.09-24.21,62.1-.81.32c-7.75,3.06-9.68,4.42-10.13,4.84a4.1,4.1,0,0,0-.08.81c0,1.58,1.68,3.18,3.09,4.24l1.19.89-.52,1.4c-.66,1.78-2.94,6.31-7,13.87-2.75,4.93-3.29,6.95-3.38,7.68.78.44,3,1.49,9.56,3.65,6.74,2.24,11.54,3.37,14.28,3.37a2.89,2.89,0,0,0,.79-.07,7.41,7.41,0,0,0,1.35-.74,2.35,2.35,0,0,0,.89-1c.41-1.12.8-2.3,1.15-3.53l.16-.39c3.07-5.81,5.55-10.73,7.36-14.64l.29-.62.61-.32.58-.28c.61-.28,1.33-.57,2.16-.88l.86-.31c3-1,7.23-2.2,12.76-3.51l1.7-.4,3.29-.74a157.75,157.75,0,0,1,17.52-3.12l1.46-.15ZM444,181.38l-2.95.93.36-3.06c.17-1.5,1-4.83,5.89-16.4a209.34,209.34,0,0,1,8.78-19.07l3.25-6,.51,6.79a136,136,0,0,0,2.73,19c0,.23.1.49.17.79.46,2,1.38,5.61,2.77,10.64l.59,2.14-2.19.37C453,179.39,446.26,180.68,444,181.38Z"/><path d="M495,164.84c-4.77-20.37-7.55-35.83-8.28-46l-.06-.85-.65-.54c-1.52-1.27-5.27-3.32-20.14-6.4-10.83-2.24-19.31-3.38-25.22-3.38a23.07,23.07,0,0,0-2.53.12l-.24,0a6.09,6.09,0,0,0-2.76.88l-.06,0h0a1.41,1.41,0,0,0-.23.18l-.2.15-.15.15-.21.22-.09.11-.22.3a.54.54,0,0,0-.07.13,3.21,3.21,0,0,0-.19.31h0a6.21,6.21,0,0,0-.37.93s0,.06,0,.09-.07.26-.1.39a.11.11,0,0,0,0,0,7.59,7.59,0,0,0-.14.9c0,.28,0,.55-.05.81v.1a14,14,0,0,0,.09,1.71c.11,1.27.14,2.25.14,3v.1a8,8,0,0,1-.22,2.16L409.47,181c-10.26,4.1-11.38,5.63-11.7,7.07a9.4,9.4,0,0,0-.23,2c0,2.23,1.16,4.39,3.46,6.43-.83,1.8-2.57,5.29-6.17,12.05-4.15,7.43-4.2,9.81-3.67,11.19a2.1,2.1,0,0,0,.21.52,1.35,1.35,0,0,0,.14.22.44.44,0,0,0,.09.11c.78.92,3.1,2.17,11.66,5A78.16,78.16,0,0,0,416,228.92a19.41,19.41,0,0,0,2.76.22,6,6,0,0,0,2.5-.45,11.41,11.41,0,0,0,1.74-.95,6.61,6.61,0,0,0,2.26-2.41,4.78,4.78,0,0,0,.28-.61c.43-1.15.83-2.38,1.19-3.63,2.89-5.48,5.26-10.18,7.05-14,2.8-1.27,8.36-2.87,16.54-4.76,8-1.84,14.28-3.06,18.82-3.61a93.89,93.89,0,0,1,4,13.67c.26,1.29.52,2.39.78,3.35,1.09,4.13,2,5.43,2.82,6.09,2.62,2.28,7.27,4.15,14.15,5.71A64.57,64.57,0,0,0,506.57,230a10,10,0,0,0,4-.59l.32-.15.25-.24a5.54,5.54,0,0,0,.82-1,8.08,8.08,0,0,0,1.26-4v0h0c0-.39.09-.76.13-1.12.25-2.09.42-3.52.53-4.34v-.06c0-.14,0-.25,0-.35l.12-.76-.43-.65C507.35,207.33,501.09,189.87,495,164.84ZM452.75,197.7l-3.29.74-1.7.4c-5.53,1.31-9.75,2.47-12.76,3.51l-.86.31c-.83.31-1.55.6-2.16.88l-.58.28-.61.32-.29.62c-1.81,3.91-4.29,8.83-7.36,14.64l-.16.39c-.35,1.23-.74,2.41-1.15,3.53a2.35,2.35,0,0,1-.89,1,7.41,7.41,0,0,1-1.35.74,2.89,2.89,0,0,1-.79.07c-2.74,0-7.54-1.13-14.28-3.37-6.52-2.16-8.78-3.21-9.56-3.65.09-.73.63-2.75,3.38-7.68,4-7.56,6.3-12.09,7-13.87l.52-1.4-1.19-.89c-1.41-1.06-3.09-2.66-3.09-4.24a4.1,4.1,0,0,1,.08-.81c.45-.42,2.38-1.78,10.13-4.84l.81-.32L436.77,122l0-.09c.47-1.4.56-3.6.28-6.95-.23-2.33.23-2.86.27-2.89a9,9,0,0,1,3.3-.33c5.64,0,13.85,1.11,24.41,3.29,11.62,2.41,16.06,4.13,17.74,5.12.05.65.11,1.31.18,2,.89,8.91,3,21.1,6.47,36.38.52,2.35,1.08,4.78,1.66,7.27q1.71,7,3.44,13.26c5,18,10.13,31.22,15.31,39.27-.14,1-.35,2.78-.65,5.36a4.33,4.33,0,0,1-.63,2.17,10.07,10.07,0,0,1-2,.15,61,61,0,0,1-14.74-2.31c-5.42-1.23-9.3-2.63-11.59-4.18a8.29,8.29,0,0,1-.89-.68c-.1-.09-1-1.12-2.3-7.24a91.16,91.16,0,0,0-4.75-15.78l-.57-1.36-1.46.15A157.75,157.75,0,0,0,452.75,197.7Z"/><path d="M466.13,177.19l-.59-2.14c-1.39-5-2.31-8.6-2.77-10.64-.07-.3-.12-.56-.17-.79a136,136,0,0,1-2.73-19l-.51-6.79-3.25,6a209.34,209.34,0,0,0-8.78,19.07c-4.92,11.57-5.72,14.9-5.89,16.4l-.36,3.06,2.95-.93c2.23-.7,8.93-2,19.91-3.82Zm-19.94-.46c.76-2.34,2.2-6.15,4.82-12.33,2-4.83,3.85-9.05,5.54-12.61.53,4.33,1.24,8.57,2.14,12.65.33,1.68,1.12,4.82,2.41,9.54C454.31,175.13,449.37,176,446.19,176.73Z"/><path class="cls-4" d="M614,180.9a3.57,3.57,0,0,0,1.46.35c2.92-.79,4.46-2.4,4.81-5a1.19,1.19,0,0,0-.17-.22c-.54-.67-2.27-2.33-7.65-5.66-5.73-3.55-10.06-5.56-12.86-6a11.6,11.6,0,0,0-1.74-.12,33,33,0,0,0-8.15,1.59,87.21,87.21,0,0,1-10.43,2.42c-.8.14-2.57.3-8.83.3a23,23,0,0,0-7.33,1.12,10.68,10.68,0,0,0-4.53,4.19c-.21.3-.39.59-.55.85-1.12,1.86-1.16,2.78-1.11,3.13.29.25,1.51,1.11,6,2.51,5.75,1.82,9.57,3.28,11.68,4.47l1.17.66-.16,1.33A45.77,45.77,0,0,1,569.32,204c-2.77,4.76-6.46,10-10.49,8.51-7.48-3-11.11-13.49-11.11-32.17a117.47,117.47,0,0,1,4.53-33.37c3.54-11.74,7.85-17.36,13.07-17.27,4.92,0,4.92,8.31,4.92,11.87a4.84,4.84,0,0,1-1.43,3.2,1.42,1.42,0,0,0-.17.21,2.24,2.24,0,0,0-.26.36v.07c-.22,1.92.11,3,.63,3.68a3,3,0,0,0,1,.83l.18.1c.79.5,3.62,1.69,13.81,4,10.7,2.41,13,2.17,13.45,2a4.39,4.39,0,0,0,1.54-.93,12.69,12.69,0,0,0,1.37-1.42,4.75,4.75,0,0,0,1.4-2.63c-.42-1.51-.79-2.91-1.1-4.16-.11-.41-.2-.82-.3-1.2-.07-.18-.16-.47-.3-1-.31-1.13-.82-3.35-1.79-8a23.28,23.28,0,0,0-3.22-8.52,17,17,0,0,0-1.69-2.23c-3.09-3.52-9.27-6.83-18.39-9.85-8.65-2.89-16-4.35-22-4.35a25.12,25.12,0,0,0-2.75.13c-9.28,1.45-17,8.46-22.84,20.82-5.53,11.63-8.33,25.09-8.33,40,0,1.43,0,2.84.08,4.22a73.29,73.29,0,0,0,5.13,25.44c.46,1.09.95,2.14,1.46,3.13,3.55,7,8.25,11.57,14,13.67,7,2,12.23,3.33,15.51,4l.15,0c10.65,2.93,14.55,3.54,15.95,3.54a17.43,17.43,0,0,0,5.81-1c7.41-2.53,13.52-8,18.19-16.33,2.65-4.62,6.4-13.86,11.15-27.48l.33-.93.94-.31a9.91,9.91,0,0,1,3-.51A8.32,8.32,0,0,1,614,180.9Z"/><path d="M611.5,184.24l.31.09.37.15a1.62,1.62,0,0,1,.28.11l.21.07a6.94,6.94,0,0,0,3.41.55l.25,0c4.76-1.23,7.52-4.28,8-8.83h0c.18-2-1.38-4.22-9.74-9.4-6.28-3.88-11-6-14.37-6.53a17,17,0,0,0-2.33-.16,35.55,35.55,0,0,0-9.24,1.74,84.43,84.43,0,0,1-9.91,2.31l-.11,0a30.11,30.11,0,0,1-3.73.2c-1.13,0-2.59,0-4.47,0a26.7,26.7,0,0,0-8.73,1.39,14.46,14.46,0,0,0-6.39,5.67,17.23,17.23,0,0,0-1.79,3.28,7.56,7.56,0,0,0-.57,2.8,4.85,4.85,0,0,0,.28,1.63,4.47,4.47,0,0,0,2.08,2.24l.52.29a33,33,0,0,0,5.9,2.31c3.85,1.22,6.83,2.28,8.89,3.17.29.12.57.25.82.37A43.47,43.47,0,0,1,565.86,202c-.73,1.25-1.38,2.28-2,3.11-2.52,3.61-3.65,3.67-3.63,3.68a7.45,7.45,0,0,1-2-1.19c-4.31-3.59-6.58-12.91-6.58-27.25a113.69,113.69,0,0,1,4.36-32.22c3.71-12.3,7.18-14.36,9-14.42a2.65,2.65,0,0,1,.19.32c.35.72.92,2.63.93,7.47a1.92,1.92,0,0,1-.43.62,6.55,6.55,0,0,0-.85,1.18,3.37,3.37,0,0,0-.19.32c0,.11-.08.21-.12.32a3.33,3.33,0,0,0-.16.4c0,.09,0,.17,0,.26a3.5,3.5,0,0,0-.07.45c-.5,4.65,1.4,7,3.32,8.15l.08.05.18.1.21.11c1.13.7,3.78,1.85,12.92,4l2.07.47c11.05,2.49,14,2.4,15.46,2a10.59,10.59,0,0,0,4.85-3.62c1.73-2.07,2.49-3.94,2.31-5.72l-.07-.34c-.6-2.14-1.09-4-1.46-5.62l-.06-.26-.09-.16c0-.08-.07-.21-.13-.42s0-.13-.05-.21c-.24-.91-.72-3-1.69-7.61a25.61,25.61,0,0,0-5.83-12.63c-3.61-4.11-10.19-7.71-20.13-11-9-3-16.87-4.55-23.23-4.55a30.87,30.87,0,0,0-3.27.16c-10.77,1.68-19.5,9.45-25.94,23.08-1.08,2.28-2.07,4.63-3,7a100.33,100.33,0,0,0-5.76,34.68c0,10.48,1.42,19.83,4.24,27.85q.6,1.72,1.29,3.36c4.15,9.85,10.15,16.25,17.82,19l.14,0c7.1,2,12.43,3.39,15.83,4.06,1.54.42,2.94.8,4.21,1.13,7.37,1.92,10.47,2.41,12.05,2.51.26,0,.49,0,.68,0a21.52,21.52,0,0,0,7.12-1.21c8.35-2.85,15.2-9,20.35-18.14,2.74-4.76,6.38-13.64,11.1-27.12a5.52,5.52,0,0,1,.87-.08,1.84,1.84,0,0,1,.38,0l.12,0Zm-4.63-3.3-.33.93c-4.75,13.62-8.5,22.86-11.15,27.48-4.67,8.31-10.78,13.8-18.19,16.33a17.43,17.43,0,0,1-5.81,1c-1.4,0-5.3-.61-15.95-3.54l-.15,0c-3.28-.64-8.49-2-15.51-4-5.73-2.1-10.43-6.69-14-13.67-.51-1-1-2-1.46-3.13a73.29,73.29,0,0,1-5.13-25.44c-.05-1.38-.08-2.79-.08-4.22,0-14.92,2.8-28.38,8.33-40,5.84-12.36,13.56-19.37,22.84-20.82a25.12,25.12,0,0,1,2.75-.13c5.93,0,13.32,1.46,22,4.35,9.12,3,15.3,6.33,18.39,9.85a17,17,0,0,1,1.69,2.23,23.28,23.28,0,0,1,3.22,8.52c1,4.69,1.48,6.91,1.79,8,.14.5.23.79.3,1,.1.38.19.79.3,1.2.31,1.25.68,2.65,1.1,4.16a4.75,4.75,0,0,1-1.4,2.63,12.69,12.69,0,0,1-1.37,1.42,4.39,4.39,0,0,1-1.54.93c-.45.13-2.75.37-13.45-2-10.19-2.29-13-3.48-13.81-4l-.18-.1a3,3,0,0,1-1-.83c-.52-.67-.85-1.76-.63-3.68v-.07a2.24,2.24,0,0,1,.26-.36,1.42,1.42,0,0,1,.17-.21,4.84,4.84,0,0,0,1.43-3.2c0-3.56,0-11.87-4.92-11.87-5.22-.09-9.53,5.53-13.07,17.27a117.47,117.47,0,0,0-4.53,33.37c0,18.68,3.63,29.2,11.11,32.17,4,1.51,7.72-3.75,10.49-8.51a45.77,45.77,0,0,0,6.28-17.16l.16-1.33-1.17-.66c-2.11-1.19-5.93-2.65-11.68-4.47-4.46-1.4-5.68-2.26-6-2.51-.05-.35,0-1.27,1.11-3.13.16-.26.34-.55.55-.85a10.68,10.68,0,0,1,4.53-4.19,23,23,0,0,1,7.33-1.12c6.26,0,8-.16,8.83-.3a87.21,87.21,0,0,0,10.43-2.42,33,33,0,0,1,8.15-1.59,11.6,11.6,0,0,1,1.74.12c2.8.42,7.13,2.43,12.86,6,5.38,3.33,7.11,5,7.65,5.66a1.19,1.19,0,0,1,.17.22c-.35,2.63-1.89,4.24-4.81,5a3.57,3.57,0,0,1-1.46-.35,8.32,8.32,0,0,0-3.19-.78,9.91,9.91,0,0,0-3,.51Z"/><path class="cls-4" d="M715.37,165.77c-4.67-20-7.47-35.31-8.31-45.65-1.68-1-6.12-2.71-17.74-5.12-10.56-2.18-18.77-3.29-24.41-3.29a9,9,0,0,0-3.3.33s-.5.56-.27,2.89c.28,3.35.19,5.55-.28,6.95l-24.24,62.19-.81.32a81.33,81.33,0,0,0-8.33,3.69,10.13,10.13,0,0,0-1.81,1.15,4.93,4.93,0,0,0-.07.81c0,1.58,1.68,3.18,3.09,4.24l1.19.89-.52,1.4c-.66,1.78-2.94,6.31-7,13.87-2.75,4.93-3.29,6.95-3.38,7.68.78.44,3,1.49,9.56,3.65,6.74,2.24,11.54,3.37,14.27,3.37a2.94,2.94,0,0,0,.8-.07,4.07,4.07,0,0,0,2.24-1.75c.41-1.12.8-2.31,1.15-3.53l.16-.39c3.07-5.81,5.54-10.73,7.36-14.64l.29-.62.61-.32c2.89-1.47,8.79-3.23,18.06-5.38a179.22,179.22,0,0,1,20.8-3.86l1.47-.15.57,1.36a91.16,91.16,0,0,1,4.75,15.78c1.27,6.12,2.2,7.15,2.3,7.24,2.1,1.82,6.29,3.45,12.48,4.86A61,61,0,0,0,730.83,226a10.07,10.07,0,0,0,2-.15,4.33,4.33,0,0,0,.63-2.17c.3-2.58.51-4.31.65-5.36C727.74,208.39,721.44,190.72,715.37,165.77ZM688.2,177.56c-11,1.83-17.68,3.12-19.91,3.82l-2.95.93.36-3.06c.17-1.5,1-4.83,5.88-16.4,3.35-8.08,6.31-14.5,8.79-19.07l3.25-6,.5,6.79a137.51,137.51,0,0,0,2.74,19c.37,1.84,1.35,5.67,2.94,11.43l.59,2.14Z"/><path d="M686.86,163.62a137.51,137.51,0,0,1-2.74-19l-.5-6.79-3.25,6c-2.48,4.57-5.44,11-8.79,19.07-4.91,11.57-5.71,14.9-5.88,16.4l-.36,3.06,2.95-.93c2.23-.7,8.93-2,19.91-3.82l2.19-.37-.59-2.14C688.21,169.29,687.23,165.46,686.86,163.62Zm-16.42,13.11c.77-2.34,2.21-6.15,4.83-12.33,2-4.83,3.85-9.05,5.54-12.61.53,4.33,1.24,8.57,2.14,12.65.33,1.68,1.12,4.81,2.41,9.54C678.57,175.13,673.63,176,670.44,176.73Z"/><path class="cls-4" d="M779.32,113.62h0a91.55,91.55,0,0,0-13-1.49,62,62,0,0,0-8,0l-.17,0c-1.4.24-4.75,1-5.11,2.54a1.44,1.44,0,0,0,.25.49,4.94,4.94,0,0,1,1,2.91v98a5,5,0,0,1-1.37,3.82l-.05.05c.16.44.78,1.42,3.1,2.93.39.26,2.36,1.19,13,3.18,10,1.84,11.92,1.84,12.27,1.8,2.27-.35,2.76-4.27,2.76-7.53a3.56,3.56,0,0,0-.64-.95,6.6,6.6,0,0,1-1.48-3.11,7.49,7.49,0,0,1-.1-1.17V129.53l0-.18a51.67,51.67,0,0,1,2.33-9c.15-.35.5-1.07,1.08-2.23a4.63,4.63,0,0,0,.63-1.75S785.59,114.9,779.32,113.62Z"/><path class="cls-4" d="M889.58,112.54a33.85,33.85,0,0,0-8.73.66c-4.91.9-5.52,2.11-5.57,2.24l-.1.22a1.18,1.18,0,0,0-.13.58,7.76,7.76,0,0,0,.62,2.44,11.44,11.44,0,0,1,.86,3.82v61.58l-3.7-5.9a100.47,100.47,0,0,1-5.09-9.57c-3.08-6.48-6.78-15.25-11-26.07-6.72-17.16-10.73-22.85-12.91-24.6s-6.61-3.26-12.78-4.31a80.44,80.44,0,0,0-14.48-1.36,16.42,16.42,0,0,0-3.5.19,8.64,8.64,0,0,0-5.94,5.21,2.67,2.67,0,0,0,.22,1.28,10.27,10.27,0,0,1,.66,3.13v87.14c0,.11,0,.23,0,.35-.11.87-.66,2.13-2.52,5-1.18,1.86-.79,2.63-.42,3.05l.15.16c.23.2,1.77,1.28,11.08,3.63l.59.15c7.68,1.8,13.7,2.72,17.84,2.72,4.31,0,4.67-1.84,4.67-3.56a8.29,8.29,0,0,0-.75-3.36h0c-.1-.17-.43-.67-1.47-2.15a7.16,7.16,0,0,1-1.66-4.07V162.33l3.75,6.72c4.93,8.86,9.66,17.55,14.06,25.84,3.61,6.81,7,13.33,10.05,19.4l.13.26,0,.28a29.42,29.42,0,0,1,.62,5.86c.52.58,2.62,2.17,10.84,4.09a82.7,82.7,0,0,0,15,2.59c9.63.69,12.82-.23,13.86-.84,1.42-.83,1.84-2.94,1.26-6.27-.65-3.9-.82-4.77-.86-4.95l1.92-.48v-.05h-2v-92l.06-.25a20.33,20.33,0,0,1,1.84-4.19,4.22,4.22,0,0,0,.5-1.69c-.29-.31-1.65-1.38-7.15-2.64A71.92,71.92,0,0,0,889.58,112.54Z"/><path d="M910.6,116.22c-.21-2.68-3.28-4.5-10.29-6.1a75.21,75.21,0,0,0-10.47-1.57,37.46,37.46,0,0,0-9.74.72c-4.84.88-7.55,2.35-8.5,4.6a5.16,5.16,0,0,0-.55,2.37,11.59,11.59,0,0,0,.86,3.82,7.88,7.88,0,0,1,.62,2.44v21c-2.81-12.17-10.41-24.54-22.75-36.93C821.25,77.91,769.69,51.19,704.6,31.32,638.09,11,565.26.44,499.5,1.58c-62.39,1.08-130.87,12.8-192.84,33-61.51,20.06-109.74,46.23-135.93,73.74a63.58,63.58,0,0,0-10.51,3c-7.79,3-11,3.64-12.25,3.7a52.82,52.82,0,0,1-10.72-1.42c-7.35-1.49-9.65-1.48-10.68-1.35-7.4.71-9.1,3.84-9.22,6.43a4,4,0,0,0,.94,2.36.91.91,0,0,1,.17.56v97a6.51,6.51,0,0,1-.32,2.25,7.22,7.22,0,0,0-.6,2.61c0,2.9,3.54,4.5,13.5,6.14a87.56,87.56,0,0,0,14.67,1.64c.82,0,1.57,0,2.28-.08,7.52-.44,9.1-3.82,9.1-6.59,0-1.18-.59-2.59-1.91-4.58a5.7,5.7,0,0,1-1.24-2.78V195.41l35.71,25a14.54,14.54,0,0,1,2.29,3.29l.1.25.17.22a13.62,13.62,0,0,0,11,5.51,12.46,12.46,0,0,0,6.62-2.07c33.4,19.42,78.16,36.43,129.57,49.22,51.64,12.85,105.2,20.28,154.88,21.48,4.86.11,9.73.17,14.65.17,110.46,0,234.71-29.29,307.2-73,8,1.88,14.13,2.79,18.6,2.79,5.51,0,8.67-2.75,8.67-7.56a12.13,12.13,0,0,0-1-4.77,16.42,16.42,0,0,0-2-3.07,4.16,4.16,0,0,1-.92-1.75V209.4A146.36,146.36,0,0,0,851,199.17c3.06,5.82,6,11.42,8.61,16.66a20.86,20.86,0,0,1,.48,5.15l0,.47.16.43c1,2.74,5.18,4.77,13.79,6.79a87,87,0,0,0,15.72,2.69c2.4.17,4.53.26,6.41.26,4.7,0,7.85-.54,9.74-1.64,3-1.75,4.08-5.26,3.19-10.39-.29-1.74-.52-3-.67-3.9-.07-.38-.14-.76-.23-1.13V123.34a18.1,18.1,0,0,1,1.42-3.08v0a8.13,8.13,0,0,0,1-3.86Zm-4.5,2.13a20.33,20.33,0,0,0-1.84,4.19l-.06.25v92h2v.05l-1.92.48c0,.18.21,1.05.86,4.95.58,3.33.16,5.44-1.26,6.27-1,.61-4.23,1.53-13.86.84a82.7,82.7,0,0,1-15-2.59c-8.22-1.92-10.32-3.51-10.84-4.09a29.42,29.42,0,0,0-.62-5.86l0-.28-.13-.26c-3.06-6.07-6.44-12.59-10.05-19.4-4.4-8.29-9.13-17-14.06-25.84l-3.75-6.72v48.83a7.16,7.16,0,0,0,1.66,4.07c1,1.48,1.37,2,1.47,2.15h0a8.29,8.29,0,0,1,.75,3.36c0,1.72-.36,3.56-4.67,3.56-4.14,0-10.16-.92-17.84-2.72l-.59-.15c-9.31-2.35-10.85-3.43-11.08-3.63l-.15-.16c-.37-.42-.76-1.19.42-3.05,1.86-2.9,2.41-4.16,2.52-5,0-.12,0-.24,0-.35V122.08a10.27,10.27,0,0,0-.66-3.13,2.67,2.67,0,0,1-.22-1.28,8.64,8.64,0,0,1,5.94-5.21,16.42,16.42,0,0,1,3.5-.19,80.44,80.44,0,0,1,14.48,1.36c6.17,1.05,10.48,2.5,12.78,4.31s6.19,7.44,12.91,24.6c4.22,10.82,7.92,19.59,11,26.07a100.47,100.47,0,0,0,5.09,9.57l3.7,5.9V122.5a11.44,11.44,0,0,0-.86-3.82,7.76,7.76,0,0,1-.62-2.44,1.18,1.18,0,0,1,.13-.58l.1-.22c.05-.13.66-1.34,5.57-2.24a33.85,33.85,0,0,1,8.73-.66,71.92,71.92,0,0,1,9.87,1.48c5.5,1.26,6.86,2.33,7.15,2.64A4.22,4.22,0,0,1,906.1,118.35Zm-64,64.1.81,1.5c.58,1.05,1.15,2.1,1.71,3.14l.93,1.73c.52,1,1,1.9,1.54,2.85l1,1.82,1.06,2c-2.89,2.92-6.1,5.86-9.59,8.76V177.77C840.36,179.33,841.21,180.9,842.06,182.45ZM494.36,294.33c-49.4-1.2-102.65-8.58-154-21.36-50.27-12.51-94.1-29.05-127-47.91l.12-.1,1.12-1,.1-.09c.35-.33.7-.66,1.06-1l.37-.37.85-.86.37-.39c.39-.41.77-.84,1.17-1.27l0,0a54.52,54.52,0,0,0,5.51-7,10.25,10.25,0,0,0,1.86-4.8,3.63,3.63,0,0,0-.65-2.26l-.26-.36-.38-.22a32.29,32.29,0,0,0-4.52-2.21l-1.39-.54c-1.31-.5-2.39-.86-3.26-1.1q-12.74-9.82-21.18-16.16-6.56-4.92-10.45-7.69a173.72,173.72,0,0,0,20.62-16.16c1-.92,1.9-1.83,2.78-2.72.44-.45.86-.89,1.28-1.34.82-.88,1.6-1.75,2.33-2.62l1.06-1.28c5.09-6.39,7.42-12.19,7.06-17.47a13.3,13.3,0,0,0-.53-2.88,13.83,13.83,0,0,0-1.06-2.56,1.51,1.51,0,0,0-.09-.18,15.85,15.85,0,0,0-1.58-2.35l-.18-.24c-.16-.19-.35-.38-.52-.58s-.38-.44-.59-.65c-.4-.4-.82-.8-1.27-1.19l0,0c-.4-.36-1.81-1.44-9.06-6.59l-1.65-1.18c-2.58-1.84-5.34-3.72-8.22-5.6-.39-.25-.77-.49-1.17-.72a26.34,26.34,0,0,0-9.09-3.2,43.34,43.34,0,0,0-6-.44h-.79c26.43-25.75,72.56-50.19,130.82-69.19C369.5,18.3,437.57,6.65,499.57,5.58,631.88,3.32,787.69,49.87,847,109.38c15.45,15.52,23.12,30.84,22.81,45.52a41.81,41.81,0,0,1-.74,6.89l0,0-.19-.43-1-2.21-.39-.9-.86-2c-.12-.29-.25-.58-.38-.88l-1.23-3c-.05-.1-.09-.21-.13-.31-.39-.94-.78-1.91-1.18-2.89-.13-.32-.27-.65-.4-1-.34-.84-.68-1.69-1-2.56l-.36-.91c-.47-1.17-.94-2.36-1.41-3.59A151.94,151.94,0,0,0,851.79,122c-2-3.49-3.81-5.89-5.47-7.22-2.89-2.27-7.66-4-14.58-5.12a84.19,84.19,0,0,0-15.17-1.42,17.31,17.31,0,0,0-4.67.36,12.74,12.74,0,0,0-7.88,6.24,13.88,13.88,0,0,0-.62,1.35,5.84,5.84,0,0,0,.16,4,6.82,6.82,0,0,1,.45,1.87v87a1.6,1.6,0,0,1-.08.2c-.06.14-.15.34-.3.62-.28.53-.74,1.33-1.53,2.56a8.05,8.05,0,0,0-1.42,4.1,5.28,5.28,0,0,0,1,3.21,5.79,5.79,0,0,0,.71.85l.18.18.06.05.15.13.09.06.17.13.1.07.23.14.09.06.37.2.12.06a2.39,2.39,0,0,0,.32.16l.18.09.33.15.23.09a3.52,3.52,0,0,0,.39.16l.23.1.61.23.15.05.73.26.31.1.61.2.37.12.68.21.39.12.91.26.26.08.08,0C735.05,268.25,606,297,494.36,294.33ZM195.53,222a20.26,20.26,0,0,0-3-4.29l-.17-.2-42.44-29.74v29.56a9.4,9.4,0,0,0,1.91,5,7.18,7.18,0,0,1,1.24,2.36q0,2.28-5.37,2.6c-3.52.26-8.89-.25-16-1.51s-9.41-2.19-10.1-2.61c0-.18.13-.42.25-.74a10.23,10.23,0,0,0,.6-3.71v-97a4.82,4.82,0,0,0-.94-2.91l-.13-.19c.42-1.54,3.62-2.09,5.62-2.28.7-.09,2.87,0,9.44,1.3,5.46,1.11,9.29,1.6,11.69,1.49s6.65-1.35,13.49-3.95a59.43,59.43,0,0,1,10.46-3,33.31,33.31,0,0,1,5.78-.56,40.44,40.44,0,0,1,5.42.39,22.25,22.25,0,0,1,8.67,3.32c2.12,1.38,4.18,2.77,6.15,4.15.66.45,1.3.91,1.94,1.36L205.9,125c3.18,2.29,4.17,3,4.44,3.25l.11.11a18.13,18.13,0,0,1,1.86,1.86,10.39,10.39,0,0,1,2.64,6.07q.42,6.06-5.44,13.76-1.35,1.78-3,3.64c-.74.83-1.54,1.67-2.38,2.52-.43.43-.86.86-1.31,1.29q-8.72,8.43-23.61,18.41l-2.47,1.65,2.45,1.66c5.13,3.49,16.62,12.11,34.17,25.64l.33.26.4.1a40.22,40.22,0,0,1,4.6,1.6,25.41,25.41,0,0,1,3.21,1.52,3.86,3.86,0,0,1-.12.38c-.38,1.09-1.7,3.54-6.2,8.59h0c-.93,1-1.85,2-2.73,2.87a32.27,32.27,0,0,1-4.18,3.5,9,9,0,0,1-13.1-1.69Zm677-52.65-.84-1.72q.48-1.56.84-3.12Z"/></g></g></svg>
