<svg xmlns="http://www.w3.org/2000/svg" viewBox="0 0 1370 880"><defs><style>.cls-1{fill:#ffffe0;}.cls-2{fill:#ed4f4e;}.cls-3{fill:#c9f2de;}.cls-4{fill:#603813;}</style></defs><title>Volume</title><g id="UI"><g id="Settings"><path class="cls-1" d="M1272.65,11H96.35A85.94,85.94,0,0,0,10.5,96.85v692.3A85.94,85.94,0,0,0,96.35,875h1176.3a85.94,85.94,0,0,0,85.85-85.85V96.85A85.94,85.94,0,0,0,1272.65,11ZM905.42,277.06q15.48-19.69,39.4-20.07,8.71-.19,21.1,3,15.2,3.93,25,10.69,2.53,1.68,4.78,10.13a58.79,58.79,0,0,1,2.82,17.63q0,12.76-6.19,17.63A319.36,319.36,0,0,1,933.28,323a45.32,45.32,0,0,0,3.38,19.32q3.93,10.14,8.16,10.32,5.63.19,13.5-6.19,7-5.43,8.72-9.19a72.93,72.93,0,0,1,5.35-11.63q4.5-.37,17.73,3t15.47,6q2.53,2.82-11,16.7-14.64,14.82-28.7,20.07a17,17,0,0,1-5.07.56q-11,0-28.7-4.5-18.84-4.5-24.76-9.75-16.32-14.07-16.32-39A64.92,64.92,0,0,1,905.42,277.06ZM659.93,357.15q3.24-2.62,3.24-3.37V266.55q0-1.5-2.25-3.94c-1.5-1.62-2-3-1.41-4.12q1.69-3.94,8.72-5.07,4.5-.75,21.11,2.07,18,3,19.69,6.19c.75,1.37.47,3.44-.84,6.19q-3.11,6.56-3.1,7.5a10.8,10.8,0,0,0,1.13,4.5A53.27,53.27,0,0,1,718,263.18q9.29-8.82,18.57-8.82,9,0,24.48,4.69,14.34,4.5,17.72,7.69,2.54,2.25,5.63,13.51Q796,266,797.66,263.93q9.57-9.57,18.29-9.57,9.57,0,24.76,4.41t17.45,8q7.88,12,7.88,88.73a13.24,13.24,0,0,1,2.25,7.12q0,5.64-6.47,7.69a29.22,29.22,0,0,1-7,.57,158.39,158.39,0,0,1-22.79-2q-13.23-2-16-3.85a3.14,3.14,0,0,1-1.4-2.44c0-1.37,1.4-3.59,4.22-6.66s4.22-5.28,4.22-6.65q.56-73.9-1.69-74.47-4.5-.94-18.29,14.81-15.19,17.26-15.19,30V356.4a17.87,17.87,0,0,1,2,6.76q0,4.68-7.32,7.12a29.12,29.12,0,0,1-7,.57,158.27,158.27,0,0,1-22.79-2q-13.23-2-16-3.85a2.2,2.2,0,0,1-1.13-1.87q0-1.87,4.08-6.76t4.08-7.12q.57-73.9-1.69-74.47-3.94-.94-19.41,16.88Q706.22,310.46,706.22,320v35.08q3.66,2.45,3.66,6c0,4.76-3.19,8-9.57,9.76a11.45,11.45,0,0,1-3.38.37q-7.59,0-22.22-2.34c-9.76-1.57-15.2-2.84-16.32-3.85a4.42,4.42,0,0,1-1.69-3.37Q656.7,359.79,659.93,357.15ZM315.12,256.61a25.52,25.52,0,0,1,8.44-1.12q5.63,0,22.23,2.43A243.08,243.08,0,0,1,373.65,260q15.47,4.88,23.91,19.69,7.6,13.51,7.6,31.89,0,25.32-12.94,43.9-14.36,19.88-35.74,18-7.87-1.31-23.63-3.19A178,178,0,0,1,312,367.47q-16-2.82-25.61-18.19-8.71-14.26-8.72-33.39a69.37,69.37,0,0,1,9-35.08A54.61,54.61,0,0,1,315.12,256.61Zm84.4,317.08a12.2,12.2,0,0,1-.78,3.73c-.58,1.66-1.14,2.57-1.66,2.74s-3.08-.29-7.5-1.4-6.77-1.91-7.06-2.39a1.57,1.57,0,0,1-.26-1,7.14,7.14,0,0,1,1.22-3.73,4.77,4.77,0,0,1,3.14-2.49q2-.25,7,1.15c3.32.94,5.26,1.89,5.85,2.84A1.23,1.23,0,0,1,399.52,573.69ZM262,611.7a1.78,1.78,0,0,0-.09.59,11,11,0,0,0,.31,2.09,12.48,12.48,0,0,1,.3,1.83,13.78,13.78,0,0,1-.26,2.62,2.22,2.22,0,0,1-1.83,1.57,16,16,0,0,1-3.05.2q-11.34,0-15.61-3a1.51,1.51,0,0,1-.52-1.63,4.74,4.74,0,0,0,0-1.9Q238,606.67,235.46,601q-6.11-13.62-7.94-16v26a6.23,6.23,0,0,0,.7,2.36,14.53,14.53,0,0,1,1,2.29,9.18,9.18,0,0,1,.18,3.14c-.12,1.48-.53,2.4-1.23,2.75a5.14,5.14,0,0,1-2,.26,41.38,41.38,0,0,1-7.67-.85q-4.8-.86-5.67-1.77a1.53,1.53,0,0,1-.43-1.11,4.94,4.94,0,0,1,.3-1.31,5,5,0,0,0,.31-1.44V569a2.92,2.92,0,0,1,.87-1.8,4.14,4.14,0,0,1,2-1.34q1.49-.47,11.42,1.57,10.38,2,11,3.53a2.74,2.74,0,0,1,.08,1.57,15.61,15.61,0,0,0-.26,1.64,2.08,2.08,0,0,0,.26,1l11.77,23.75q2.44-5.82,8.9-23.62,3.22-9.09,5.23-9.48a6.44,6.44,0,0,1,1.39-.13,34.33,34.33,0,0,1,5,.58,42.7,42.7,0,0,0,5.32.79c4.59.31,7.23.5,7.93.59q4.1.58,4.62,2.16a2.63,2.63,0,0,1,.18,1,6,6,0,0,1-.44,1.86,6.09,6.09,0,0,0-.44,1.8v40a3.84,3.84,0,0,0,1.09,2c.73.88,1,1.53.92,2-.41,1.87-1.1,2.9-2.09,3.07q-2.1.39-8-.85-6.29-1.3-7.15-2.62a1.87,1.87,0,0,1-.26-1,6.3,6.3,0,0,1,.21-1.27,6.15,6.15,0,0,0,.22-1.47V584.61Q268.58,590.64,262,611.7ZM165.15,361.47a8.27,8.27,0,0,1-2-4.88,18.77,18.77,0,0,0-.84-5.06q-32.09-67.72-38.55-121.37a12.82,12.82,0,0,0-1.41-3.94,7.72,7.72,0,0,1-.56-3.94q1.41-6.56,8.16-8.06,3.38-.75,23.64,3.56,21.38,4.5,23.63,7.69,1.13,1.88,0,7.88a10.33,10.33,0,0,1-2,3.28q-1.68,2.16-1.41,3.66,4.23,19.7,7.88,34.7,9,36,14.07,42.77,4.78-17.44,16.88-44.64t16.89-45.4a36.9,36.9,0,0,1,2.53-9.56,14.33,14.33,0,0,1,9.28-5.82q4.5-.93,21.11,3.19,18,4.69,22.51,9.76-14.64,24.94-33.21,75.78-16.87,46-16.6,52.14-.28.57.57,8.63a10.82,10.82,0,0,1-2,7.88,10.11,10.11,0,0,1-7.6,5.07q-8.16,1.13-32.78-4.13T165.15,361.47Zm78.6,399.8q-4.27,3.11-11.86,3.24a19.56,19.56,0,0,1-4.09-.46c-2.68-.56-4.07-.85-4.19-.85-1.39-.21-2.8-.44-4.23-.68a8.72,8.72,0,0,1-3.7-1.48,11,11,0,0,1-3.84-5.1,23.19,23.19,0,0,0-2.79-5.17,9.25,9.25,0,0,1-1.65-1.83,2.1,2.1,0,0,1,.48-1.93,3.27,3.27,0,0,1,1.78-1.21,9.12,9.12,0,0,1,1.92-.13,61.23,61.23,0,0,1,7.45.56c2.94.37,4.58.71,4.93,1s.81,1.88,1.4,4.71q.78,3.93,2.35,4.38a2.13,2.13,0,0,0,.78.13c1.11,0,2-.68,2.84-2.06a9.28,9.28,0,0,0,1.17-4.67q0-5.7-4.7-7.59Q217,737.76,212.63,734q-5.06-4.32-4.54-10.21.43-4.91,4.75-9.91t9.12-5.86q2-.33,12.2,2.88c1.69.48,3.38,1,5.1,1.51a10.19,10.19,0,0,1,4.14,2.28q2.44,2.29,2.44,7.92c0,.7,0,1.73-.09,3.08-.05,1.17-.08,2-.08,2.48a6.4,6.4,0,0,0,.61,1.51,2.27,2.27,0,0,1,.35,1.44c-.12,1.92-1.2,3-3.23,3.2a22,22,0,0,1-6.45-1q-5.23-1.25-6.63-2.68a2.8,2.8,0,0,1-.17-1.31c0-.65.1-2.14.31-4.45s.3-4,.3-5c0-1.87-.29-2.79-.87-2.74a5.55,5.55,0,0,0-4.49,2.91,11.43,11.43,0,0,0-1.79,6.31q0,5.89,4.62,8.37l10.46,5c3.32,1.61,5.61,3.23,6.89,4.84q2.44,3.13,2.44,8.77A9.44,9.44,0,0,1,243.75,761.27Zm46.55-2.78q-4.44,6.94-11.07,6.28-2.44-.45-7.32-1.11a48.92,48.92,0,0,1-6.45-1q-5-1-7.94-6.35a24,24,0,0,1-2.7-11.64,26.61,26.61,0,0,1,2.79-12.23,17.59,17.59,0,0,1,8.81-8.44,6.84,6.84,0,0,1,2.61-.4,54.24,54.24,0,0,1,6.89.85,67.23,67.23,0,0,1,8.63.72,13.25,13.25,0,0,1,7.41,6.87,24.6,24.6,0,0,1,2.35,11.12A28.5,28.5,0,0,1,290.3,758.49Zm8.88-141.75q-2.43-4.18-2.44-31a5.11,5.11,0,0,1-.7-2.49,2.71,2.71,0,0,1,2-2.74,8.15,8.15,0,0,1,2.18-.2,43.35,43.35,0,0,1,7.06.69c2.73.46,4.39.92,5,1.4a1.17,1.17,0,0,1,.44.85,4.78,4.78,0,0,1-1.31,2.33,4.81,4.81,0,0,0-1.31,2.32q-.18,25.77.52,26,1.23.33,6.15-6t4.93-9.71V585.92a2.52,2.52,0,0,1-1.14-2.09q0-2.55,3-3.47a3.06,3.06,0,0,1,1-.13,41.76,41.76,0,0,1,6.89.82c3,.54,4.68,1,5,1.27a2,2,0,0,1,.61,1.31,2.48,2.48,0,0,1-1,1.57c-.67.61-1,1-1,1.18V616.8a3.54,3.54,0,0,0,.57,1.38,3.38,3.38,0,0,1,.57,1.44c0,.78-.9,1.35-2.71,1.7q-1.4.25-6.53-.72-5.58-1.05-6.11-2.1a2.58,2.58,0,0,1,.27-2.29,6.56,6.56,0,0,0,.87-2.35,7.57,7.57,0,0,0-.26-1.7A19,19,0,0,1,318,618q-2.86,3-5.75,3a26.27,26.27,0,0,1-7.67-1.51Q299.88,618,299.18,616.74Zm41.64,144.44a3.38,3.38,0,0,1,.57,1.44c0,.78-.9,1.35-2.71,1.7q-1.4.25-6.53-.72-5.58-1.05-6.11-2.1a2.58,2.58,0,0,1,.27-2.29,6.56,6.56,0,0,0,.87-2.35,7.57,7.57,0,0,0-.26-1.7,19,19,0,0,1-3.67,5.82q-2.87,3-5.75,3a26.27,26.27,0,0,1-7.67-1.51q-4.71-1.5-5.41-2.74-2.43-4.18-2.44-31a5.1,5.1,0,0,1-.69-2.49,2.7,2.7,0,0,1,2-2.74,8.15,8.15,0,0,1,2.18-.2,43.45,43.45,0,0,1,7.06.69c2.73.46,4.39.92,5,1.4a1.17,1.17,0,0,1,.44.85,4.78,4.78,0,0,1-1.31,2.33,4.81,4.81,0,0,0-1.31,2.32q-.18,25.77.52,26,1.23.33,6.15-6t4.93-9.71V728.92a2.52,2.52,0,0,1-1.14-2.09q0-2.55,3-3.47a3.06,3.06,0,0,1,1-.13,41.76,41.76,0,0,1,6.89.82c3,.54,4.68,1,5,1.27a2,2,0,0,1,.61,1.31,2.48,2.48,0,0,1-1,1.57c-.67.61-1,1-1,1.18V759.8A3.54,3.54,0,0,0,340.82,761.18ZM347,615c-1-1.23-1.94-2.47-2.87-3.73a7.8,7.8,0,0,1-1.4-2.29c0-.61.58-1.07,1.75-1.38a6.63,6.63,0,0,1,1.56-.13,62.35,62.35,0,0,1,6.59.43c2.64.28,4.08.52,4.31.72s.55,1.45,1,3.76c.35,2,1,3,1.83,3q2,0,2-4.06,0-5.16-3.66-6.48-8.37-2.94-11-5.23c-2.15-1.87-3.22-4.71-3.22-8.5a11.18,11.18,0,0,1,2.61-7,10.18,10.18,0,0,1,6.19-4q1.57-.25,10.11,2.49.8.2,4.62.72a7.68,7.68,0,0,1,3.84,1.37,7,7,0,0,1,1.92,4.78c.05,1.61.08,3.23.08,4.84a17.18,17.18,0,0,1,.61,2.62c0,1.22-.78,1.92-2.35,2.09a17.52,17.52,0,0,1-4.79-.72q-3.93-1-5-2c-.18-.17-.35-1.81-.53-4.9-.17-2.92-.58-4.39-1.22-4.39-.87,0-1.68.85-2.44,2.56a13,13,0,0,0-1.13,5.29q0,3.48,2,4.39,4.28,1.77,8.5,3.56a16.59,16.59,0,0,1,5.89,3.7A9.78,9.78,0,0,1,375,613.2a6.65,6.65,0,0,1-3.18,5.76c-2.13,1.44-5.1,2.18-8.94,2.23a15.65,15.65,0,0,1-3.05-.33c-2-.39-3-.61-3.14-.66-1.05-.17-2.11-.36-3.18-.55a7.72,7.72,0,0,1-2.75-1A17.62,17.62,0,0,1,347,615Zm41.42,148.62a8.15,8.15,0,0,1-2.18.2,43.45,43.45,0,0,1-7.06-.69c-2.73-.46-4.39-.9-5-1.34a1.12,1.12,0,0,1-.43-.85,4.76,4.76,0,0,1,1.3-2.32,4.74,4.74,0,0,0,1.31-2.33q.18-25.77-.52-26-1.23-.33-6,5.89-5.06,6.54-5.05,9.88v12.23a2.56,2.56,0,0,1,1.13,2.1c0,1.65-1,2.79-3,3.4A3.16,3.16,0,0,1,362,764a41.76,41.76,0,0,1-6.89-.82c-3-.55-4.7-1-5.05-1.34a1.63,1.63,0,0,1-.53-1.18,2.48,2.48,0,0,1,1-1.57c.66-.61,1-1,1-1.18V727.48a2.44,2.44,0,0,0-.7-1.37c-.46-.57-.61-1.05-.43-1.44q.51-1.38,2.7-1.77,1.4-.25,6.54.72,5.58,1.05,6.1,2.16a2.79,2.79,0,0,1-.26,2.16,14.69,14.69,0,0,0-1,2.62,4,4,0,0,0,.35,1.57,18.9,18.9,0,0,1,3.66-5.83c1.92-2,3.83-3.07,5.75-3.07a25.77,25.77,0,0,1,7.67,1.54q4.71,1.53,5.41,2.78,2.44,4.19,2.44,30.94a5.11,5.11,0,0,1,.7,2.49A2.68,2.68,0,0,1,388.46,763.66Zm7.31-142.28a38.85,38.85,0,0,1-7.76-1q-5-1-5.84-2.22c-.29-.35,0-1,.79-2a6.06,6.06,0,0,0,.78-3.6V585.07a11.39,11.39,0,0,1-1-3.34c0-.56,1.07-.85,3.22-.85a31.46,31.46,0,0,1,7.28,1.21c3.11.81,5,1.52,5.63,2.13a.91.91,0,0,1,.26.66,4.83,4.83,0,0,1-1,2,4.6,4.6,0,0,0-1,2.16v26.3a2.7,2.7,0,0,0,1,1.63,3.69,3.69,0,0,1,1.09,1.44c.24,1.57-.49,2.55-2.18,3A9.42,9.42,0,0,1,395.77,621.38Zm41.77,141c.87,1.13,1.14,1.9.79,2.29s-1.05.52-2.27.52a46,46,0,0,1-6.1-.59c-3.08-.48-4.71-.72-4.88-.72a2.6,2.6,0,0,1-2.27-1.57,2.13,2.13,0,0,1-.09-.85,49,49,0,0,1,1-8q-2.08,3.15-4.1,6.28c-1.91,2.58-3.63,3.75-5.14,3.53q-17.18-2.61-17.17-15.83,0-7.51,5.49-15.31,5.31-7.52,11.68-9.81a4.67,4.67,0,0,1,1.66-.33q2.17,0,7.58,4.06V713.42a8.2,8.2,0,0,0-.78-1.87,4.94,4.94,0,0,1-.7-2c0-.92.81-1.38,2.44-1.38a31.48,31.48,0,0,1,6.28.92q2.61.66,5.14,1.24c1.45.31,2.3,1,2.53,2a5,5,0,0,1-.65,2.55,11.75,11.75,0,0,0-.83,2.16v42.66A5,5,0,0,0,437.54,762.42Zm2.26-152.16a27,27,0,0,1-4.19,5.56,16.53,16.53,0,0,1-9.85,4.65c-.81.08-1.6.13-2.35.13q-4.89,0-12-3.54-6.19-3.13-6.19-14.45a33.4,33.4,0,0,1,3.4-15.18q3.75-7.39,9.15-7.66a31.92,31.92,0,0,1,10.46,1.7q6.19,1.9,8.37,4.19a7,7,0,0,1,1.83,5c0,.57-.06,1.38-.17,2.45a10.56,10.56,0,0,0-.09,2.26c.12,1.18.18,1.72.18,1.63,0,1.4-.91,2.08-2.71,2a27.89,27.89,0,0,1-5.92-.72c-2.5-.65-4-1.55-4.54-2.68-.17-.39.07-.92.74-1.57s.95-1.2.83-1.64a8.36,8.36,0,0,0,.18-2.29c0-2.61-.61-4-1.84-4-1.86-.09-3.43,2-4.7,6.34A43,43,0,0,0,418.61,605c0,5.36.85,8.2,2.53,8.5q2,.33,5.23-3.27c1.8-2,2.78-3.43,2.92-4.15s.28-1.45.4-2.2c.4-1.22,1.45-1.79,3.13-1.7a26.8,26.8,0,0,1,5.5,1.51q3.92,1.37,4.14,2.06a4.08,4.08,0,0,1,.21,1.14C442.67,607.75,441.72,608.86,439.8,610.26ZM457,758.56a6.06,6.06,0,0,0-1.39,3.14,6.13,6.13,0,0,1,0,1.5c-.23,1.27-.7,2-1.4,2.23s-2.73-.14-5.75-1.21-4.71-1.87-5.06-2.39.12-1.61,1.22-3.66a26.91,26.91,0,0,1,2.44-3.93,2.37,2.37,0,0,1,1.92-.65c-.35,0,1.4.26,5.23.78,2.33.31,3.61.88,3.84,1.7Q458.21,756.79,457,758.56Zm0-30.1a6.09,6.09,0,0,0-1.39,3.14,6.69,6.69,0,0,1,0,1.57c-.23,1.27-.7,2-1.4,2.23s-2.73-.14-5.75-1.21-4.71-1.89-5.06-2.45c-.29-.4.12-1.62,1.22-3.67a27.26,27.26,0,0,1,2.44-3.92,2.34,2.34,0,0,1,1.92-.66c-.35,0,1.4.26,5.23.79,2.33.3,3.61.87,3.84,1.7C458.15,726.46,457.8,727.29,457,728.46Zm1.74-112.9a6.09,6.09,0,0,0-1.4,3.14,6.13,6.13,0,0,1,0,1.5c-.23,1.27-.7,2-1.39,2.23s-2.74-.14-5.76-1.21-4.71-1.87-5.05-2.39.11-1.61,1.22-3.66a26.06,26.06,0,0,1,2.44-3.93,2.36,2.36,0,0,1,1.92-.65q-.52,0,5.23.78c2.32.31,3.6.88,3.83,1.7C459.88,613.55,459.53,614.38,458.72,615.56Zm0-30.1a6.13,6.13,0,0,0-1.4,3.14,6.69,6.69,0,0,1,0,1.57c-.23,1.27-.7,2-1.39,2.23s-2.74-.14-5.76-1.21-4.71-1.89-5.05-2.45c-.3-.4.11-1.62,1.22-3.67a26.4,26.4,0,0,1,2.44-3.92,2.33,2.33,0,0,1,1.92-.66q-.52,0,5.23.79c2.32.3,3.6.87,3.83,1.7C459.88,583.46,459.53,584.29,458.72,585.46ZM479.58,225.1c-.84,1.5-1.36,2.44-1.55,2.81a62.29,62.29,0,0,0-3.37,11.63V354.71a5.7,5.7,0,0,0,1.69,4q1.68,1.78,1.68,2.91,0,12-6.75,12.94-2.53.38-17.87-2.53T435,367.47q-6.18-3.56-6.19-6.56c0-.5.38-1.07,1.13-1.69a4,4,0,0,0,1.13-3.19V223.78a3.76,3.76,0,0,0-1-2.34,3.75,3.75,0,0,1-1-2.35q.56-4.5,10.41-6a86.7,86.7,0,0,1,11.81,0,131.32,131.32,0,0,1,18,2.07q11.54,2.25,11.54,6.37A8,8,0,0,1,479.58,225.1ZM511.23,359q-7.87-12-7.88-88.73a13.24,13.24,0,0,1-2.25-7.12q0-5.82,6.48-7.88a29.21,29.21,0,0,1,7-.56,157.08,157.08,0,0,1,22.79,2q13.23,2,16,4a3.15,3.15,0,0,1,1.41,2.44q0,2.06-4.23,6.65t-4.22,6.66q-.55,73.92,1.69,74.47,3.95.94,19.84-17.35t15.9-27.85V270.68c-2.44-1.62-3.66-3.63-3.66-6q0-7.32,9.57-9.94a11.26,11.26,0,0,1,3.37-.38q7.6,0,22.23,2.35t16,3.65a5.34,5.34,0,0,1,2,3.75q0,1.89-3.24,4.51c-2.16,1.75-3.23,2.87-3.23,3.37v87.23c0,.75.6,2.06,1.83,3.94s1.82,3.25,1.82,4.12q0,3.38-8.72,4.88-4.5.75-21.1-2.06-18-3-19.7-6-1.41-2.43.85-6.56,2.8-4.87,2.81-6.75a19,19,0,0,0-.84-4.88A53.59,53.59,0,0,1,572,362.59q-9.28,8.63-18.57,8.63-9.57,0-24.76-4.31T511.23,359ZM1005.5,740a9,9,0,0,1-9,9h-124v16h-10V749h-332a9,9,0,0,1-9-9v-1a9,9,0,0,1,9-9h332V717h10v13h124a9,9,0,0,1,9,9Zm2-138a9,9,0,0,1-9,9h-280v16h-10V611h-176a9,9,0,0,1-9-9v-1a9,9,0,0,1,9-9h176V579h10v13h280a9,9,0,0,1,9,9Zm242.2-414.64-22.89-21.59-17.92,19-6.69-6.31,17.92-19-22.88-21.59,5.94-6.29,22.88,21.59,17.93-19,6.69,6.32-17.92,19L1255.64,181Z"/><path class="cls-1" d="M414.57,736.45q-4,5.55-4,10.33,0,5.57,5.76,6.09,3,.25,7.06-23.62Q418.53,730.89,414.57,736.45Z"/><path class="cls-1" d="M338.76,354.71q9,1.32,16-13.5a72.69,72.69,0,0,0,6.75-31.51,51.75,51.75,0,0,0-3.66-18.95q-5.07-13.87-15.76-13.88-7.59,0-14.06,12.29t-6.48,23.54a77.24,77.24,0,0,0,4.79,26.63Q331.72,353.6,338.76,354.71Z"/><path class="cls-1" d="M956.92,284.56c0-4.62-.48-7.06-1.41-7.32q-4.78-.36-13.37,10.13t-10,20.08q12.68-.37,20.26-4.13Q956.91,301.07,956.92,284.56Z"/><path class="cls-1" d="M274.78,731.08q-2.36,0-4.35,4.29a19.29,19.29,0,0,0-2,8.21,30,30,0,0,0,1.48,9.29c1.11,3.31,2.38,5.1,3.84,5.36,1.86.31,3.51-1.26,5-4.71a28.14,28.14,0,0,0,2.09-11,20.23,20.23,0,0,0-1.13-6.61C278.62,732.7,277,731.08,274.78,731.08Z"/><path d="M1272.65,9H96.35A88,88,0,0,0,8.5,96.85v692.3A88,88,0,0,0,96.35,877h1176.3a88,88,0,0,0,87.85-87.85V96.85A88,88,0,0,0,1272.65,9Zm85.85,780.15A85.94,85.94,0,0,1,1272.65,875H96.35A85.94,85.94,0,0,1,10.5,789.15V96.85A85.94,85.94,0,0,1,96.35,11h1176.3a85.94,85.94,0,0,1,85.85,85.85Z"/><path class="cls-2" d="M530.52,730a9,9,0,0,0-9,9v1a9,9,0,0,0,9,9h332V730Z"/><path class="cls-2" d="M996.48,730h-124v19h124a9,9,0,0,0,9-9v-1A9,9,0,0,0,996.48,730Z"/><polygon points="872.5 717 862.5 717 862.5 730 862.5 749 862.5 765 872.5 765 872.5 749 872.5 730 872.5 717"/><path class="cls-2" d="M998.48,592h-280v19h280a9,9,0,0,0,9-9v-1A9,9,0,0,0,998.48,592Z"/><path class="cls-2" d="M532.52,592a9,9,0,0,0-9,9v1a9,9,0,0,0,9,9h176V592Z"/><polygon points="718.5 579 708.5 579 708.5 592 708.5 611 708.5 627 718.5 627 718.5 611 718.5 592 718.5 579"/><path class="cls-3" d="M238.69,739.72l-10.46-5q-4.62-2.47-4.62-8.37a11.43,11.43,0,0,1,1.79-6.31,5.55,5.55,0,0,1,4.49-2.91c.58,0,.87.87.87,2.74q0,1.58-.3,5c-.21,2.31-.31,3.8-.31,4.45a2.8,2.8,0,0,0,.17,1.31q1.4,1.44,6.63,2.68a22,22,0,0,0,6.45,1c2-.22,3.11-1.28,3.23-3.2a2.27,2.27,0,0,0-.35-1.44,6.4,6.4,0,0,1-.61-1.51c0-.48,0-1.31.08-2.48.06-1.35.09-2.38.09-3.08q0-5.62-2.44-7.92a10.19,10.19,0,0,0-4.14-2.28c-1.72-.53-3.41-1-5.1-1.51q-10.2-3.21-12.2-2.88-4.8.86-9.12,5.86t-4.75,9.91q-.51,5.88,4.54,10.21,4.35,3.72,15.17,8.11,4.69,1.89,4.7,7.59a9.28,9.28,0,0,1-1.17,4.67c-.79,1.38-1.73,2.06-2.84,2.06a2.13,2.13,0,0,1-.78-.13q-1.58-.45-2.35-4.38c-.59-2.83-1.05-4.4-1.4-4.71s-2-.64-4.93-1a61.23,61.23,0,0,0-7.45-.56,9.12,9.12,0,0,0-1.92.13,3.27,3.27,0,0,0-1.78,1.21,2.1,2.1,0,0,0-.48,1.93,9.25,9.25,0,0,0,1.65,1.83,23.19,23.19,0,0,1,2.79,5.17,11,11,0,0,0,3.84,5.1,8.72,8.72,0,0,0,3.7,1.48c1.43.24,2.84.47,4.23.68.12,0,1.51.29,4.19.85a19.56,19.56,0,0,0,4.09.46q7.59-.13,11.86-3.24a9.44,9.44,0,0,0,4.27-7.94q0-5.64-2.44-8.77C244.3,743,242,741.33,238.69,739.72Z"/><path class="cls-3" d="M284.55,725.19a67.23,67.23,0,0,0-8.63-.72,54.24,54.24,0,0,0-6.89-.85,6.84,6.84,0,0,0-2.61.4,17.59,17.59,0,0,0-8.81,8.44,26.61,26.61,0,0,0-2.79,12.23,24,24,0,0,0,2.7,11.64q3,5.37,7.94,6.35a48.92,48.92,0,0,0,6.45,1q4.88.66,7.32,1.11,6.63.66,11.07-6.28a28.5,28.5,0,0,0,4-15.31A24.6,24.6,0,0,0,292,732.06,13.25,13.25,0,0,0,284.55,725.19Zm-5.84,28.33c-1.46,3.45-3.11,5-5,4.71-1.46-.26-2.73-2.05-3.84-5.36a30,30,0,0,1-1.48-9.29,19.29,19.29,0,0,1,2-8.21q2-4.29,4.35-4.29c2.21,0,3.84,1.62,4.89,4.84a20.23,20.23,0,0,1,1.13,6.61A28.14,28.14,0,0,1,278.71,753.52Z"/><path class="cls-3" d="M341.26,728.2a2.48,2.48,0,0,0,1-1.57,2,2,0,0,0-.61-1.31c-.29-.3-1.95-.73-5-1.27a41.76,41.76,0,0,0-6.89-.82,3.06,3.06,0,0,0-1,.13q-3,.92-3,3.47a2.52,2.52,0,0,0,1.14,2.09v12.24q0,3.33-4.93,9.71t-6.15,6q-.69-.2-.52-26a4.81,4.81,0,0,1,1.31-2.32,4.78,4.78,0,0,0,1.31-2.33,1.17,1.17,0,0,0-.44-.85c-.58-.48-2.24-.94-5-1.4a43.45,43.45,0,0,0-7.06-.69,8.15,8.15,0,0,0-2.18.2,2.7,2.7,0,0,0-2,2.74,5.1,5.1,0,0,0,.69,2.49q0,26.76,2.44,31,.7,1.25,5.41,2.74A26.27,26.27,0,0,0,317.5,764q2.88,0,5.75-3a19,19,0,0,0,3.67-5.82,7.57,7.57,0,0,1,.26,1.7,6.56,6.56,0,0,1-.87,2.35,2.58,2.58,0,0,0-.27,2.29q.52,1.05,6.11,2.1,5.13,1,6.53.72c1.81-.35,2.71-.92,2.71-1.7a3.38,3.38,0,0,0-.57-1.44,3.54,3.54,0,0,1-.57-1.38V729.38C340.25,729.21,340.59,728.81,341.26,728.2Z"/><path class="cls-3" d="M387.33,727.55q-.7-1.24-5.41-2.78a25.77,25.77,0,0,0-7.67-1.54c-1.92,0-3.83,1-5.75,3.07a18.9,18.9,0,0,0-3.66,5.83,4,4,0,0,1-.35-1.57,14.69,14.69,0,0,1,1-2.62,2.79,2.79,0,0,0,.26-2.16q-.52-1.11-6.1-2.16-5.14-1-6.54-.72-2.19.39-2.7,1.77c-.18.39,0,.87.43,1.44a2.44,2.44,0,0,1,.7,1.37V757.9c0,.18-.34.57-1,1.18a2.48,2.48,0,0,0-1,1.57,1.63,1.63,0,0,0,.53,1.18c.35.35,2,.79,5.05,1.34A41.76,41.76,0,0,0,362,764a3.16,3.16,0,0,0,1.05-.13c2-.61,3-1.75,3-3.4a2.56,2.56,0,0,0-1.13-2.1V746.13q0-3.35,5.05-9.88,4.8-6.21,6-5.89.69.2.52,26a4.74,4.74,0,0,1-1.31,2.33,4.76,4.76,0,0,0-1.3,2.32,1.12,1.12,0,0,0,.43.85c.58.44,2.24.88,5,1.34a43.45,43.45,0,0,0,7.06.69,8.15,8.15,0,0,0,2.18-.2,2.68,2.68,0,0,0,2-2.68,5.11,5.11,0,0,0-.7-2.49Q389.77,731.74,387.33,727.55Z"/><path class="cls-3" d="M437.94,714.92a5,5,0,0,0,.65-2.55c-.23-1-1.08-1.72-2.53-2q-2.54-.58-5.14-1.24a31.48,31.48,0,0,0-6.28-.92c-1.63,0-2.44.46-2.44,1.38a4.94,4.94,0,0,0,.7,2,8.2,8.2,0,0,1,.78,1.87v12.69q-5.4-4.07-7.58-4.06a4.67,4.67,0,0,0-1.66.33q-6.36,2.29-11.68,9.81-5.49,7.78-5.49,15.31,0,13.21,17.17,15.83c1.51.22,3.23-1,5.14-3.53q2-3.13,4.1-6.28a49,49,0,0,0-1,8,2.13,2.13,0,0,0,.09.85,2.6,2.6,0,0,0,2.27,1.57c.17,0,1.8.24,4.88.72a46,46,0,0,0,6.1.59c1.22,0,2-.17,2.27-.52s.08-1.16-.79-2.29a5,5,0,0,1-.43-2.68V717.08A11.75,11.75,0,0,1,437.94,714.92Zm-21.58,38q-5.76-.52-5.76-6.09,0-4.77,4-10.33t8.85-7.2Q419.42,753.13,416.36,752.87Z"/><path class="cls-3" d="M454.19,724.28c-3.83-.53-5.58-.79-5.23-.79a2.34,2.34,0,0,0-1.92.66,27.26,27.26,0,0,0-2.44,3.92c-1.1,2-1.51,3.27-1.22,3.67q.53.84,5.06,2.45t5.75,1.21c.7-.22,1.17-1,1.4-2.23a6.69,6.69,0,0,0,0-1.57,6.09,6.09,0,0,1,1.39-3.14c.82-1.17,1.17-2,1-2.48C457.8,725.15,456.52,724.58,454.19,724.28Z"/><path class="cls-3" d="M454.19,754.37c-3.83-.52-5.58-.78-5.23-.78a2.37,2.37,0,0,0-1.92.65,26.91,26.91,0,0,0-2.44,3.93c-1.1,2.05-1.51,3.27-1.22,3.66s2,1.32,5.06,2.39,4.94,1.47,5.75,1.21,1.17-1,1.4-2.23a6.13,6.13,0,0,0,0-1.5,6.06,6.06,0,0,1,1.39-3.14q1.23-1.77,1-2.49C457.8,755.25,456.52,754.68,454.19,754.37Z"/><path class="cls-3" d="M272.46,615.79a6.3,6.3,0,0,0-.21,1.27,1.87,1.87,0,0,0,.26,1q.87,1.32,7.15,2.62,5.93,1.25,8,.85c1-.17,1.68-1.2,2.09-3.07.12-.44-.19-1.09-.92-2a3.84,3.84,0,0,1-1.09-2v-40a6.09,6.09,0,0,1,.44-1.8,6,6,0,0,0,.44-1.86,2.63,2.63,0,0,0-.18-1q-.52-1.58-4.62-2.16c-.7-.09-3.34-.28-7.93-.59a42.7,42.7,0,0,1-5.32-.79,34.33,34.33,0,0,0-5-.58,6.44,6.44,0,0,0-1.39.13q-2,.39-5.23,9.48-6.47,17.8-8.9,23.62l-11.77-23.75a2.08,2.08,0,0,1-.26-1,15.61,15.61,0,0,1,.26-1.64,2.74,2.74,0,0,0-.08-1.57q-.62-1.5-11-3.53-9.93-2-11.42-1.57a4.14,4.14,0,0,0-2,1.34A2.92,2.92,0,0,0,213,569v46.38a5,5,0,0,1-.31,1.44,4.94,4.94,0,0,0-.3,1.31,1.53,1.53,0,0,0,.43,1.11q.87.91,5.67,1.77a41.38,41.38,0,0,0,7.67.85,5.14,5.14,0,0,0,2-.26c.7-.35,1.11-1.27,1.23-2.75a9.18,9.18,0,0,0-.18-3.14,14.53,14.53,0,0,0-1-2.29,6.23,6.23,0,0,1-.7-2.36V585q1.84,2.41,7.94,16,2.52,5.63,5.75,13.08a4.74,4.74,0,0,1,0,1.9,1.51,1.51,0,0,0,.52,1.63q4.28,3,15.61,3a16,16,0,0,0,3.05-.2,2.22,2.22,0,0,0,1.83-1.57,13.78,13.78,0,0,0,.26-2.62,12.48,12.48,0,0,0-.3-1.83,11,11,0,0,1-.31-2.09,1.78,1.78,0,0,1,.09-.59q6.63-21.06,10.72-27.09v29.71A6.15,6.15,0,0,1,272.46,615.79Z"/><path class="cls-3" d="M312.26,621q2.88,0,5.75-3a19,19,0,0,0,3.67-5.82,7.57,7.57,0,0,1,.26,1.7,6.56,6.56,0,0,1-.87,2.35,2.58,2.58,0,0,0-.27,2.29q.52,1.05,6.11,2.1,5.13,1,6.53.72c1.81-.35,2.71-.92,2.71-1.7a3.38,3.38,0,0,0-.57-1.44,3.54,3.54,0,0,1-.57-1.38V586.38c0-.17.34-.57,1-1.18a2.48,2.48,0,0,0,1-1.57,2,2,0,0,0-.61-1.31c-.29-.3-2-.73-5-1.27a41.76,41.76,0,0,0-6.89-.82,3.06,3.06,0,0,0-1,.13q-3,.92-3,3.47a2.52,2.52,0,0,0,1.14,2.09v12.24q0,3.33-4.93,9.71t-6.15,6q-.69-.2-.52-26a4.81,4.81,0,0,1,1.31-2.32,4.78,4.78,0,0,0,1.31-2.33,1.17,1.17,0,0,0-.44-.85c-.58-.48-2.24-.94-5-1.4a43.35,43.35,0,0,0-7.06-.69,8.15,8.15,0,0,0-2.18.2,2.71,2.71,0,0,0-2,2.74,5.11,5.11,0,0,0,.7,2.49q0,26.76,2.44,31,.7,1.25,5.41,2.74A26.27,26.27,0,0,0,312.26,621Z"/><path class="cls-3" d="M353.54,619.65c1.07.19,2.13.38,3.18.55.12,0,1.16.27,3.14.66a15.65,15.65,0,0,0,3.05.33c3.84-.05,6.81-.79,8.94-2.23A6.65,6.65,0,0,0,375,613.2a9.78,9.78,0,0,0-2.18-6.67,16.59,16.59,0,0,0-5.89-3.7q-4.23-1.8-8.5-3.56-2-.91-2-4.39a13,13,0,0,1,1.13-5.29c.76-1.71,1.57-2.56,2.44-2.56.64,0,1.05,1.47,1.22,4.39.18,3.09.35,4.73.53,4.9q1,1,5,2a17.52,17.52,0,0,0,4.79.72c1.57-.17,2.35-.87,2.35-2.09a17.18,17.18,0,0,0-.61-2.62c0-1.61,0-3.23-.08-4.84a7,7,0,0,0-1.92-4.78,7.68,7.68,0,0,0-3.84-1.37q-3.82-.52-4.62-.72-8.54-2.74-10.11-2.49a10.18,10.18,0,0,0-6.19,4,11.18,11.18,0,0,0-2.61,7c0,3.79,1.07,6.63,3.22,8.5q2.61,2.3,11,5.23,3.66,1.32,3.66,6.48,0,4.07-2,4.06c-.87,0-1.48-1-1.83-3-.41-2.31-.73-3.57-1-3.76s-1.67-.44-4.31-.72a62.35,62.35,0,0,0-6.59-.43,6.63,6.63,0,0,0-1.56.13c-1.17.31-1.75.77-1.75,1.38a7.8,7.8,0,0,0,1.4,2.29c.93,1.26,1.88,2.5,2.87,3.73a17.62,17.62,0,0,0,3.75,3.59A7.72,7.72,0,0,0,353.54,619.65Z"/><path class="cls-3" d="M399.17,618.37a3.69,3.69,0,0,0-1.09-1.44,2.7,2.7,0,0,1-1-1.63V589a4.6,4.6,0,0,1,1-2.16,4.83,4.83,0,0,0,1-2,.91.91,0,0,0-.26-.66c-.65-.61-2.52-1.32-5.63-2.13a31.46,31.46,0,0,0-7.28-1.21c-2.15,0-3.22.29-3.22.85a11.39,11.39,0,0,0,1,3.34v27.48a6.06,6.06,0,0,1-.78,3.6c-.82,1-1.08,1.68-.79,2q.87,1.17,5.84,2.22a38.85,38.85,0,0,0,7.76,1,9.42,9.42,0,0,0,1.22-.06C398.68,620.92,399.41,619.94,399.17,618.37Z"/><path class="cls-3" d="M393.59,570.32q-5-1.41-7-1.15a4.77,4.77,0,0,0-3.14,2.49,7.14,7.14,0,0,0-1.22,3.73,1.57,1.57,0,0,0,.26,1c.29.48,2.65,1.28,7.06,2.39s6.92,1.58,7.5,1.4,1.08-1.08,1.66-2.74a12.2,12.2,0,0,0,.78-3.73,1.23,1.23,0,0,0-.08-.53C398.85,572.21,396.91,571.26,393.59,570.32Z"/><path class="cls-3" d="M438.32,603.72a26.8,26.8,0,0,0-5.5-1.51c-1.68-.09-2.73.48-3.13,1.7-.12.75-.25,1.48-.4,2.2s-1.12,2.1-2.92,4.15q-3.22,3.6-5.23,3.27c-1.68-.3-2.53-3.14-2.53-8.5a43,43,0,0,1,1.75-12.57c1.27-4.31,2.84-6.43,4.7-6.34,1.23.09,1.84,1.44,1.84,4a8.36,8.36,0,0,1-.18,2.29c.12.44-.16,1-.83,1.64s-.91,1.18-.74,1.57c.52,1.13,2,2,4.54,2.68a27.89,27.89,0,0,0,5.92.72c1.8,0,2.71-.63,2.71-2,0,.09-.06-.45-.18-1.63a10.56,10.56,0,0,1,.09-2.26c.11-1.07.17-1.88.17-2.45a7,7,0,0,0-1.83-5q-2.18-2.29-8.37-4.19a31.92,31.92,0,0,0-10.46-1.7q-5.4.27-9.15,7.66a33.4,33.4,0,0,0-3.4,15.18q0,11.31,6.19,14.45,7.14,3.54,12,3.54c.75,0,1.54-.05,2.35-.13a16.53,16.53,0,0,0,9.85-4.65,27,27,0,0,0,4.19-5.56c1.92-1.4,2.87-2.51,2.87-3.34a4.08,4.08,0,0,0-.21-1.14Q442.24,605.09,438.32,603.72Z"/><path class="cls-3" d="M455.93,611.37q-5.76-.78-5.23-.78a2.36,2.36,0,0,0-1.92.65,26.06,26.06,0,0,0-2.44,3.93c-1.11,2.05-1.52,3.27-1.22,3.66s2,1.32,5.05,2.39,4.94,1.47,5.76,1.21,1.16-1,1.39-2.23a6.13,6.13,0,0,0,0-1.5,6.09,6.09,0,0,1,1.4-3.14c.81-1.18,1.16-2,1-2.49C459.53,612.25,458.25,611.68,455.93,611.37Z"/><path class="cls-3" d="M455.93,581.28q-5.76-.79-5.23-.79a2.33,2.33,0,0,0-1.92.66,26.4,26.4,0,0,0-2.44,3.92c-1.11,2-1.52,3.27-1.22,3.67.34.56,2,1.38,5.05,2.45s4.94,1.47,5.76,1.21,1.16-1,1.39-2.23a6.69,6.69,0,0,0,0-1.57,6.13,6.13,0,0,1,1.4-3.14c.81-1.17,1.16-2,1-2.48C459.53,582.15,458.25,581.58,455.93,581.28Z"/><path d="M226.21,374.79a10.11,10.11,0,0,0,7.6-5.07,10.82,10.82,0,0,0,2-7.88q-.85-8.05-.57-8.63-.28-6.18,16.6-52.14,18.57-50.83,33.21-75.78-4.51-5.07-22.51-9.76-16.6-4.12-21.11-3.19a14.33,14.33,0,0,0-9.28,5.82,36.9,36.9,0,0,0-2.53,9.56q-4.8,18.19-16.89,45.4t-16.88,44.64Q190.75,311,181.75,275q-3.66-15-7.88-34.7-.27-1.5,1.41-3.66a10.33,10.33,0,0,0,2-3.28q1.13-6,0-7.88-2.25-3.18-23.63-7.69-20.26-4.31-23.64-3.56-6.75,1.5-8.16,8.06a7.72,7.72,0,0,0,.56,3.94,12.82,12.82,0,0,1,1.41,3.94q6.46,53.66,38.55,121.37a18.77,18.77,0,0,1,.84,5.06,8.27,8.27,0,0,0,2,4.88q3.66,3.93,28.28,9.19T226.21,374.79Z"/><path d="M286.42,349.28Q296,364.66,312,367.47a178,178,0,0,0,20.82,2.81q15.75,1.88,23.63,3.19,21.39,1.88,35.74-18,12.93-18.57,12.94-43.9,0-18.37-7.6-31.89-8.43-14.81-23.91-19.69a243.08,243.08,0,0,0-27.86-2.07q-16.6-2.43-22.23-2.43a25.52,25.52,0,0,0-8.44,1.12,54.61,54.61,0,0,0-28.41,24.2,69.37,69.37,0,0,0-9,35.08Q277.7,335,286.42,349.28Zm41.65-60.12q6.46-12.29,14.06-12.29,10.69,0,15.76,13.88a51.75,51.75,0,0,1,3.66,18.95,72.69,72.69,0,0,1-6.75,31.51q-7,14.82-16,13.5-7-1.12-12.38-15.38a77.24,77.24,0,0,1-4.79-26.63Q321.59,301.44,328.07,289.16Z"/><path d="M469.31,215.16a131.32,131.32,0,0,0-18-2.07,86.7,86.7,0,0,0-11.81,0q-9.86,1.5-10.41,6a3.75,3.75,0,0,0,1,2.35,3.76,3.76,0,0,1,1,2.34V356a4,4,0,0,1-1.13,3.19c-.75.62-1.13,1.19-1.13,1.69q0,3,6.19,6.56,3.11,1.69,18.43,4.6t17.87,2.53q6.75-.94,6.75-12.94,0-1.12-1.68-2.91a5.7,5.7,0,0,1-1.69-4V239.54A62.29,62.29,0,0,1,478,227.91c.19-.37.71-1.31,1.55-2.81a8,8,0,0,0,1.27-3.57Q480.85,217.41,469.31,215.16Z"/><path d="M553.44,371.22q9.28,0,18.57-8.63a53.59,53.59,0,0,0,11.82-16.69,19,19,0,0,1,.84,4.88q0,1.88-2.81,6.75-2.26,4.13-.85,6.56,1.69,3,19.7,6,16.59,2.81,21.1,2.06,8.72-1.5,8.72-4.88c0-.87-.61-2.25-1.82-4.12s-1.83-3.19-1.83-3.94V272c0-.5,1.07-1.62,3.23-3.37s3.24-3.25,3.24-4.51a5.34,5.34,0,0,0-2-3.75q-1.41-1.31-16-3.65t-22.23-2.35a11.26,11.26,0,0,0-3.37.38q-9.57,2.63-9.57,9.94c0,2.37,1.22,4.38,3.66,6v35.08q0,9.56-15.9,27.85T548.09,351q-2.25-.56-1.69-74.47,0-2.06,4.22-6.66t4.23-6.65a3.15,3.15,0,0,0-1.41-2.44q-2.82-2.07-16-4a157.08,157.08,0,0,0-22.79-2,29.21,29.21,0,0,0-7,.56q-6.48,2.07-6.48,7.88a13.24,13.24,0,0,0,2.25,7.12q0,76.72,7.88,88.73,2.25,3.57,17.45,7.88T553.44,371.22Z"/><path d="M674.71,368.88q14.63,2.34,22.22,2.34a11.45,11.45,0,0,0,3.38-.37c6.38-1.76,9.57-5,9.57-9.76q0-3.55-3.66-6V320q0-9.57,16.32-28.32Q738,273.87,742,274.81q2.25.56,1.69,74.47,0,2.25-4.08,7.12t-4.08,6.76a2.2,2.2,0,0,0,1.13,1.87q2.8,1.88,16,3.85a158.27,158.27,0,0,0,22.79,2,29.12,29.12,0,0,0,7-.57q7.32-2.43,7.32-7.12a17.87,17.87,0,0,0-2-6.76V319.64q0-12.76,15.19-30,13.79-15.75,18.29-14.81,2.25.56,1.69,74.47,0,2.06-4.22,6.65c-2.82,3.07-4.22,5.29-4.22,6.66A3.14,3.14,0,0,0,816,365q2.82,1.88,16,3.85a158.39,158.39,0,0,0,22.79,2,29.22,29.22,0,0,0,7-.57q6.46-2.05,6.47-7.69a13.24,13.24,0,0,0-2.25-7.12q0-76.73-7.88-88.73-2.25-3.56-17.45-8T816,254.36q-8.72,0-18.29,9.57Q796,266,784.44,280.25q-3.11-11.26-5.63-13.51-3.37-3.18-17.72-7.69-15.48-4.7-24.48-4.69-9.29,0-18.57,8.82a53.27,53.27,0,0,0-11.82,16.69,10.8,10.8,0,0,1-1.13-4.5q0-.94,3.1-7.5c1.31-2.75,1.59-4.82.84-6.19q-1.68-3.19-19.69-6.19-16.61-2.82-21.11-2.07-7,1.13-8.72,5.07c-.56,1.12-.09,2.5,1.41,4.12s2.25,2.94,2.25,3.94v87.23q0,.75-3.24,3.37t-3.23,4.51a4.42,4.42,0,0,0,1.69,3.37C659.51,366,665,367.31,674.71,368.88Z"/><path d="M907.39,357.72q5.91,5.25,24.76,9.75,17.73,4.5,28.7,4.5a17,17,0,0,0,5.07-.56q14.07-5.25,28.7-20.07,13.5-13.87,11-16.7-2.25-2.62-15.47-6t-17.73-3A72.93,72.93,0,0,0,967,337.27q-1.68,3.75-8.72,9.19-7.87,6.38-13.5,6.19-4.23-.18-8.16-10.32A45.32,45.32,0,0,1,933.28,323a319.36,319.36,0,0,0,59.09-6.94q6.18-4.87,6.19-17.63a58.79,58.79,0,0,0-2.82-17.63q-2.25-8.44-4.78-10.13-9.86-6.75-25-10.69-12.39-3.19-21.1-3-23.93.38-39.4,20.07a64.92,64.92,0,0,0-14.35,41.64Q891.07,343.65,907.39,357.72Zm34.75-70.35q8.58-10.5,13.37-10.13c.93.26,1.41,2.7,1.41,7.32q0,16.51-4.51,18.76-7.59,3.75-20.26,4.13Q933.56,297.88,942.14,287.37Z"/><polygon class="cls-4" points="1250.68 140.46 1243.99 134.15 1226.06 153.14 1203.18 131.55 1197.24 137.84 1220.12 159.43 1202.2 178.43 1208.89 184.74 1226.82 165.75 1249.7 187.34 1255.64 181.04 1232.76 159.45 1250.68 140.46"/></g></g></svg>
