<svg xmlns="http://www.w3.org/2000/svg" viewBox="0 0 1420 930"><defs><style>.cls-1{fill:#c9f2de;}.cls-2{fill:#ffffe0;}.cls-3{fill:#ed4f4e;}</style></defs><title>Volume_1</title><g id="UI"><g id="Settings"><path d="M-3,929.5H1421V1.5H-3ZM23.5,108.58C23.5,58.63,63.66,18,113,18H1305c49.36,0,89.52,40.63,89.52,90.58V818.42c0,50-40.16,90.58-89.52,90.58H113c-49.36,0-89.52-40.63-89.52-90.58Z"/><path class="cls-1" d="M-4,.5v930H1422V.5Zm1425,929H-3V1.5H1421Z"/><path class="cls-2" d="M293.83,759.38c-1.37,0-2.71,1.38-4,4.11a19.58,19.58,0,0,0-2,8.21,30.78,30.78,0,0,0,1.48,9.37c1,3.15,2.25,4.93,3.5,5.16,1.61.28,3.12-1.26,4.48-4.53a28.74,28.74,0,0,0,2.09-11.08A20.28,20.28,0,0,0,298.3,764C297.31,760.89,295.84,759.38,293.83,759.38Z"/><path class="cls-2" d="M358.73,372.48l.24,0c5.71.69,10.92-3.86,15.49-13.58a75.24,75.24,0,0,0,6.79-32.1,53.61,53.61,0,0,0-3.67-19.25c-3.33-9.23-8.55-13.91-15.5-13.91-4.91,0-9.56,4.15-13.81,12.33h0a60,60,0,0,0-5.15,13.37,44.71,44.71,0,0,0-1.25,7.67c-.07,1-.11,1.92-.11,2.86A79.81,79.81,0,0,0,346.58,357C350.1,366.55,354.19,371.75,358.73,372.48Z"/><path class="cls-2" d="M432,775c0,2.21.69,3.77,2.08,4.71.16.1.34.18.51.27s.27.16.42.22a5,5,0,0,0,.55.17c.18.06.35.13.54.18l.25,0a8.05,8.05,0,0,0,1,.16h0a.67.67,0,0,0,.5-.26c1-1,3-5.25,6-22.68a18.82,18.82,0,0,0-7.92,6.89C433.28,768.37,432,771.84,432,775Z"/><path class="cls-2" d="M984.54,301c0-6.54-.94-7-1-7l-.28,0c-2.94,0-7.26,3.44-12.74,10.23a57.08,57.08,0,0,0-6.65,10.11,34.3,34.3,0,0,0-3.28,9.64c8.17-.3,14.8-1.7,19.72-4.16C983.1,318.39,984.54,312.07,984.54,301Z"/><path class="cls-2" d="M113,906H1305c47.69,0,86.49-39.26,86.49-87.53V108.58c0-48.27-38.8-87.53-86.49-87.53H113c-47.69,0-86.49,39.26-86.49,87.53V818.42C26.53,866.69,65.33,906,113,906ZM266.93,784.18a10.56,10.56,0,0,1-4.25,6.06c-.38.28-.78.54-1.2.79-2.84,1.67-6.57,2.55-11.1,2.63a18.49,18.49,0,0,1-2.07-.12c-.71-.08-1.45-.2-2.2-.36l-3.11-.66-.45-.09-.61-.11-4.33-.71a10.74,10.74,0,0,1-2.13-.59,8.75,8.75,0,0,1-1.83-1,10,10,0,0,1-2.76-2.92,16.17,16.17,0,0,1-1.3-2.53,23.84,23.84,0,0,0-2.74-5.15,9.17,9.17,0,0,1-1.71-1.92l-.08-.17a2.71,2.71,0,0,1,.57-2.41,3.83,3.83,0,0,1,2.09-1.42,9.67,9.67,0,0,1,2.07-.15c.51,0,1.06,0,1.64,0,1.15,0,2.42.14,3.81.29.69.07,1.41.15,2.16.25a31.78,31.78,0,0,1,4.3.74,2.35,2.35,0,0,1,1,.42c.3.26.66.93,1.29,3.75.09.41.18.86.28,1.35.61,3.09,1.45,3.94,2,4.12a1.78,1.78,0,0,0,.65.11,2.2,2.2,0,0,0,.68-.11,3.55,3.55,0,0,0,1.76-1.75,8.88,8.88,0,0,0,1.06-3.31c0-.4.07-.82.07-1.24,0-3.7-1.46-6.09-4.46-7.32q-2.75-1.12-5.1-2.21a46.58,46.58,0,0,1-10.41-6.19c-3.53-3-5.13-6.71-4.77-10.89.3-3.44,2-6.95,4.93-10.44s6.19-5.57,9.53-6.17c1.28-.21,4.64.52,10.24,2.23.75.23,1.54.47,2.37.74,1.69.49,3.42,1,5.16,1.54a13.25,13.25,0,0,1,1.87.75,9.69,9.69,0,0,1,2.53,1.71,8.49,8.49,0,0,1,2.25,4.49,19.21,19.21,0,0,1,.37,4c0,.72,0,1.79-.09,3.17-.06,1.2-.08,2-.08,2.53a8,8,0,0,0,.56,1.32,2.78,2.78,0,0,1,.4,1.76,3.71,3.71,0,0,1-3.71,3.72c-1.25.15-3.45-.19-6.71-1-.92-.21-1.74-.44-2.49-.67a10.74,10.74,0,0,1-4.46-2.21c-.2-.23-.32-.58-.32-1.69,0-.69.11-2.24.31-4.61.15-1.76.25-3.17.29-4.21,0-.34,0-.65,0-.91,0-2.07-.36-2.32-.37-2.32a4.75,4.75,0,0,0-3.41,1.77,8.75,8.75,0,0,0-.73,1,11.13,11.13,0,0,0-1.63,4.51,13.46,13.46,0,0,0-.1,1.69c0,3.87,1.44,6.53,4.42,8.15l10.58,5.09a24.15,24.15,0,0,1,6.27,4.14,9.59,9.59,0,0,1,.88,1c1.71,2.23,2.58,5.36,2.58,9.3A10.68,10.68,0,0,1,266.93,784.18Zm-9.6-185.38,11.45,23.37c.21-.53.44-1.12.7-1.76,1.62-4.17,4-10.65,7.15-19.35.24-.67.48-1.36.73-2,3-8.6,4.68-9.85,5.67-10a7.61,7.61,0,0,1,1.51-.14l.9,0c1,.08,2.42.27,4.22.58a48.91,48.91,0,0,0,5.33.8c2.91.19,5.06.34,6.43.45l1.65.15c3,.44,4.67,1.28,5.09,2.56a3.11,3.11,0,0,1,.21,1.16,6.81,6.81,0,0,1-.47,2.08q-.13.36-.21.63a4.88,4.88,0,0,0-.19.82c0,.09,0,.17,0,.22v41.06c0,.15.1.61,1,1.69s1.19,1.84,1,2.46c-.45,2.11-1.3,3.3-2.52,3.52a11.39,11.39,0,0,1-3.12,0,48.58,48.58,0,0,1-5.2-.88c-5.88-1.24-7.13-2.24-7.55-2.89a2.53,2.53,0,0,1-.35-1.29,6.44,6.44,0,0,1,.23-1.42,6.08,6.08,0,0,0,.21-1.39V610.48c-2.61,4.62-5.93,13.4-9.89,26.14a1.65,1.65,0,0,0-.06.46c0,.1,0,.22,0,.36,0,.41.14,1,.28,1.68.18.86.26,1.34.3,1.63a2.83,2.83,0,0,1,0,.35,14.87,14.87,0,0,1-.28,2.83,2.8,2.8,0,0,1-2.24,2,16.29,16.29,0,0,1-3.19.21c-7.83,0-13.1-1-16.1-3.11a2,2,0,0,1-.74-2.16,4.36,4.36,0,0,0,0-1.7c-2.16-5-4.12-9.56-5.82-13.39-1-2.3-2-4.38-2.8-6.22q-2.79-6.06-4.28-8.68v25a4.27,4.27,0,0,0,.31,1.35c.1.26.21.55.35.86.41.87.65,1.42.79,1.8a3.56,3.56,0,0,1,.22.66,8.9,8.9,0,0,1,.24,2.42c0,.3,0,.62-.06.94a7.64,7.64,0,0,1-.17,1.17,2.77,2.77,0,0,1-1.33,2,5.42,5.42,0,0,1-2.26.32,42.1,42.1,0,0,1-7.87-.88,29.8,29.8,0,0,1-4.17-1l-.67-.25a3.15,3.15,0,0,1-1.17-.73,2,2,0,0,1-.58-1.48,5.53,5.53,0,0,1,.33-1.5,4.66,4.66,0,0,0,.29-1.32V592.67a2.43,2.43,0,0,1,.25-1,4.79,4.79,0,0,1,.75-1.13,5.3,5.3,0,0,1,1.06-1A4.62,4.62,0,0,1,234,589c.69-.22,2.68-.29,11.82,1.6,1.79.36,3.3.69,4.57,1a22.52,22.52,0,0,1,6,2,2.48,2.48,0,0,1,.89.9,3.33,3.33,0,0,1,.12,1.88,14.42,14.42,0,0,0-.26,1.59A1.7,1.7,0,0,0,257.33,598.8Zm56.53,176.93A28.41,28.41,0,0,1,310,787.25h0c-2.48,3.91-5.5,6.13-9,6.62a10.77,10.77,0,0,1-1.52.11,11.81,11.81,0,0,1-1.18-.06q-2.52-.48-7.44-1.15a50.18,50.18,0,0,1-6.58-1c-3.48-.69-6.3-3-8.37-6.76a23.85,23.85,0,0,1-2.62-8.81,30.56,30.56,0,0,1-.18-3.36A28.17,28.17,0,0,1,276,760.07a18.9,18.9,0,0,1,7.74-8.2c.46-.25.94-.48,1.43-.69a7.51,7.51,0,0,1,2.85-.44,52.63,52.63,0,0,1,7.06.87,60.53,60.53,0,0,1,8.73.74l.1,0a13.93,13.93,0,0,1,7.79,7.29,25,25,0,0,1,2.4,10c0,.54,0,1.09,0,1.64A37.58,37.58,0,0,1,313.86,775.73Zm4.62-133.37-.08-.09,0-.06a.27.27,0,0,1-.07-.08l0-.06,0-.07a.25.25,0,0,1,0-.07l0,0h0c-1.07-1.84-1.79-6.6-2.18-14.43q-.36-7-.36-17.41a5.66,5.66,0,0,1-.71-2.68,3.92,3.92,0,0,1,.15-1.11,3.36,3.36,0,0,1,2.21-2.18,8.69,8.69,0,0,1,2.38-.23c.51,0,1,0,1.6,0a50.91,50.91,0,0,1,5.64.66c.72.13,1.34.24,1.88.36l.85.19.22.06a5.87,5.87,0,0,1,2.32.94,2.26,2.26,0,0,1,.38.46,1.48,1.48,0,0,1,.25.8,5.13,5.13,0,0,1-1.44,2.7c-1.1,1.36-1.21,1.9-1.21,2.06,0,3.71,0,6.9,0,9.65,0,11,.19,14.91.35,16.19,0,.11,0,.2,0,.27.47-.19,1.85-1.19,5.51-6,3.24-4.25,4.89-7.5,4.89-9.66V610.28a3,3,0,0,1-1.15-2.38,4.28,4.28,0,0,1,.21-1.37,4.36,4.36,0,0,1,3.14-2.66,3.35,3.35,0,0,1,1.21-.16,42.7,42.7,0,0,1,6.92.82l.15,0a38,38,0,0,1,4.36,1l.24.08a3.3,3.3,0,0,1,.35.15,1.19,1.19,0,0,1,.36.25,2.51,2.51,0,0,1,.75,1.69,2.92,2.92,0,0,1-1.17,2,4.06,4.06,0,0,0-.87.94v31.1a3.32,3.32,0,0,0,.51,1.16,3.81,3.81,0,0,1,.64,1.72c0,1.62-2.37,2.08-3.14,2.24a5.09,5.09,0,0,1-.86.06h0a36.59,36.59,0,0,1-6-.8c-.33-.06-.64-.12-.93-.19-4.42-.91-5.33-1.66-5.61-2.23a2.19,2.19,0,0,1-.19-.58,3.75,3.75,0,0,1,.46-2.2,11.33,11.33,0,0,0,.75-1.77s0,0,0-.06l0-.12a1.39,1.39,0,0,0,0-.24,19.65,19.65,0,0,1-1.4,2.39,18.64,18.64,0,0,1-1.71,2.16,10.9,10.9,0,0,1-3.86,2.79,6.29,6.29,0,0,1-2.34.46,27.14,27.14,0,0,1-7.92-1.57c-.84-.27-1.55-.52-2.16-.76h0l-.57-.23-.15-.07a3.92,3.92,0,0,1-.36-.16l-.16-.07-.29-.14-.18-.09-.21-.11-.16-.1-.18-.1-.11-.07-.18-.11-.08-.06-.17-.12-.08-.06-.13-.1a.46.46,0,0,0-.07-.07l-.1-.09Zm42.19,146a3.23,3.23,0,0,0,.51,1.16,5.28,5.28,0,0,1,.6,1.39,1.37,1.37,0,0,1,0,.34c0,1.61-2.37,2.08-3.14,2.23a5.09,5.09,0,0,1-.86.06,35.36,35.36,0,0,1-6-.8,28.39,28.39,0,0,1-4.73-1.2c-1.25-.47-1.64-.87-1.81-1.21a2.61,2.61,0,0,1-.05-2,4.38,4.38,0,0,1,.32-.81,6.61,6.61,0,0,0,.83-2.18,19.62,19.62,0,0,1-3.11,4.55c-2,2.15-4.12,3.24-6.2,3.24a27.07,27.07,0,0,1-7.92-1.56c-.84-.27-1.55-.53-2.16-.76-2.43-1-3.21-1.67-3.53-2.17a.75.75,0,0,1-.07-.12c-1.71-3-2.54-13.37-2.54-31.85a5.65,5.65,0,0,1-.71-2.67,3.3,3.3,0,0,1,2.36-3.29,8.35,8.35,0,0,1,2.38-.23,44.49,44.49,0,0,1,7.24.71,30.9,30.9,0,0,1,3.6.78,4.55,4.55,0,0,1,1.67.77,1.82,1.82,0,0,1,.59.92,1.86,1.86,0,0,1,0,.34,5.11,5.11,0,0,1-1.44,2.69c-1.1,1.36-1.21,1.9-1.21,2.07q0,3.71,0,6.76v2.88h0c0,11.91.22,15.51.39,16.45l.22-.11c.63-.39,2.09-1.68,5.29-5.87s4.89-7.5,4.89-9.66v-12.3a3,3,0,0,1-1.15-2.39c0-2,1.12-3.33,3.35-4a3.59,3.59,0,0,1,1.21-.16,43.35,43.35,0,0,1,7.07.85c4.75.87,5.11,1.25,5.31,1.46a2.48,2.48,0,0,1,.75,1.68,2.93,2.93,0,0,1-1.17,2,4.24,4.24,0,0,0-.87.93Zm6-148.12c-1-1.27-2-2.56-2.93-3.84a10,10,0,0,1-1.47-2.39,1,1,0,0,1,0-.26,1.37,1.37,0,0,1,.31-.88,3.35,3.35,0,0,1,1.83-1,6.71,6.71,0,0,1,1.72-.15,65.09,65.09,0,0,1,6.72.44c4.17.45,4.46.69,4.65.85s.28.25.54,1.25c.16.6.35,1.51.6,2.91a4.62,4.62,0,0,0,.94,2.49.61.61,0,0,0,.42.18c1,0,1.53-1.23,1.53-3.66,0-3.33-1.1-5.35-3.38-6.17-1.44-.52-2.75-1-3.94-1.49a27.26,27.26,0,0,1-7.35-4c-2.28-2-3.44-5.08-3.44-9.1a12.05,12.05,0,0,1,2.76-7.52,10.78,10.78,0,0,1,6.57-4.24c.75-.12,2.63,0,10.5,2.56.47.12,2,.37,4.59.72a8.1,8.1,0,0,1,4.15,1.53,7.65,7.65,0,0,1,2.11,5.24c.06,1.67.09,3.32.09,4.93.24.87.38,1.45.47,1.86a5.92,5.92,0,0,1,.14.77.57.57,0,0,1,0,.12c0,1.06-.49,2.38-2.83,2.64a17.68,17.68,0,0,1-5-.74c-2.77-.71-4.5-1.43-5.28-2.22-.19-.19-.39-.4-.67-5.35-.21-3.61-.72-4-.77-4-.62,0-1.32.81-2,2.32a13.13,13.13,0,0,0-1,3.89c0,.45-.07.89-.07,1.34,0,2.18.57,3.5,1.74,4,2.87,1.2,5.75,2.42,8.6,3.65a16.86,16.86,0,0,1,6.15,3.92,10.66,10.66,0,0,1,2.33,7.17,7.34,7.34,0,0,1-3.44,6.31,15.48,15.48,0,0,1-7.89,2.32c-.47,0-.95.05-1.45.05a16.29,16.29,0,0,1-3.19-.34l-.54-.11c-2-.41-2.5-.52-2.65-.56l-.07,0-.44-.07-2.7-.47h0a8.77,8.77,0,0,1-2.32-.75,5.07,5.07,0,0,1-.64-.37A18.49,18.49,0,0,1,366.66,640.21ZM411.52,790.1a3.27,3.27,0,0,1-2.33,2.66h0a8.17,8.17,0,0,1-2.37.23,44.69,44.69,0,0,1-7.24-.71c-3.83-.65-4.83-1.15-5.25-1.47a1.66,1.66,0,0,1-.64-1.27,5.17,5.17,0,0,1,1.44-2.7c1.09-1.36,1.21-1.9,1.21-2.06.13-19.78-.14-25-.36-26.11-.46.18-1.81,1.15-5.37,5.82-3.33,4.36-5,7.66-5,9.82v12.31a3,3,0,0,1,1.15,2.38c0,1.94-1.13,3.27-3.35,4a3.72,3.72,0,0,1-1.21.15,43.09,43.09,0,0,1-7.07-.84c-4.19-.77-5.08-1.2-5.39-1.52a2.15,2.15,0,0,1-.68-1.56,1.82,1.82,0,0,1,.3-.94,4.56,4.56,0,0,1,.88-1,6.28,6.28,0,0,0,.83-.87s0-.06,0-.07v-31.1c0-.11-.06-.43-.6-1.09a2.93,2.93,0,0,1-.58-1.05,1.43,1.43,0,0,1,.07-.94,2.75,2.75,0,0,1,1.09-1.35,2.86,2.86,0,0,1,.42-.24,4.43,4.43,0,0,1,1-.38l.59-.14c1-.19,3.24.06,6.81.74,4.57.87,5.92,1.64,6.39,2.25a1.65,1.65,0,0,1,.15.25,3.28,3.28,0,0,1-.26,2.62c-.1.25-.2.47-.28.68-.41,1-.56,1.47-.62,1.68a.87.87,0,0,0,0,.14v0a19.48,19.48,0,0,1,2.27-3.64c.29-.38.6-.74.92-1.09a9.27,9.27,0,0,1,5.42-3.26,5.12,5.12,0,0,1,.78-.06c.51,0,1.06,0,1.65.1a33.27,33.27,0,0,1,6.28,1.5l.49.17c3,1,4.25,1.8,4.85,2.38l0,0,.11.12a.1.1,0,0,1,0,0l.07.09.05.05a.18.18,0,0,0,.05.07l.05.09,0,0h0c1.7,3,2.53,13.37,2.54,31.84a5.7,5.7,0,0,1,.7,2.68A5.12,5.12,0,0,1,411.52,790.1Zm-.79-143.77-2.27-.44c-4.68-1-5.79-1.89-6.21-2.48s0-1.61.56-2.37l.24-.32c.32-.39.69-1.3.69-3.37V609.27a11.38,11.38,0,0,1-1.06-3.52.87.87,0,0,1,.09-.4c.39-.85,2.05-1,3.68-1a31.56,31.56,0,0,1,7.5,1.26l.78.21c3.21.88,4.39,1.49,4.93,1.91l.21.18a1.41,1.41,0,0,1,.42,1c0,.32-.13.87-1.11,2.3q-.35.51-.54.87a2.39,2.39,0,0,0-.38,1.06v27a.53.53,0,0,0,0,.16,3.14,3.14,0,0,0,.84,1.17c.2.19.37.37.51.53a2.84,2.84,0,0,1,.74,1.2h0v0c.27,1.87-.62,3.11-2.59,3.57a8.57,8.57,0,0,1-1.35.08A33.88,33.88,0,0,1,410.73,646.33Zm-8.49-47.09a7.85,7.85,0,0,1,1.31-4.08,5.27,5.27,0,0,1,3.53-2.78c1.45-.19,3.83.2,7.28,1.19s5.55,2,6.21,3.14a1.44,1.44,0,0,1,.16.79,10.58,10.58,0,0,1-.46,2.82c-.1.37-.22.76-.36,1.16-.59,1.69-1.13,2.64-1.73,3l-.27.12a1.56,1.56,0,0,1-.51.06,13.06,13.06,0,0,1-2.24-.29c-1.15-.23-2.78-.6-5.12-1.2-3-.77-4.8-1.32-5.85-1.71l-.41-.17c-1-.41-1.11-.63-1.21-.79a1.65,1.65,0,0,1-.31-.86C402.25,599.52,402.24,599.39,402.24,599.24Zm56.57,189c0,1.89.25,2.34.33,2.44h0a3.58,3.58,0,0,1,1,2.48,1,1,0,0,1-.23.5,2.48,2.48,0,0,1-1.71.67,9.54,9.54,0,0,1-1,0,48.89,48.89,0,0,1-6.25-.61c-4-.62-4.76-.73-4.89-.73a3.13,3.13,0,0,1-2.73-1.9c-.08-.1-.14-.34-.14-1.08a40.81,40.81,0,0,1,.58-5.92q-1.44,2.22-2.84,4.44c-1.84,2.5-3.49,3.77-5.05,3.88a3.65,3.65,0,0,1-.66,0c-11.83-1.83-17.83-7.45-17.83-16.73,0-.65,0-1.31.09-2a29.25,29.25,0,0,1,5.57-14c3.63-5.21,7.7-8.66,12.07-10.25a5.27,5.27,0,0,1,1.85-.36c1.49,0,3.84,1.19,7.19,3.66v-12a6.31,6.31,0,0,0-.33-.83c-.1-.23-.23-.51-.41-.85a8.4,8.4,0,0,1-.57-1.31,3,3,0,0,1-.19-1c0-.11,0-.22,0-.33.14-.78.8-1.58,2.95-1.58a31,31,0,0,1,6.47,1c1.78.45,3.51.87,5.22,1.27a4.09,4.09,0,0,1,2.32,1.21,2.82,2.82,0,0,1,.61,1.25c.09.34.12,1-.69,2.92l-.42,1c-.11.26-.18.46-.24.61s-.05.14-.07.19-.06.22-.07.25Zm21-2.66a9.45,9.45,0,0,1-1,1.74h0a7.52,7.52,0,0,0-1.27,2.46c0,.1,0,.19-.05.28a1.41,1.41,0,0,0,0,.2,6.72,6.72,0,0,1,0,1.58c-.28,1.54-.87,2.43-1.76,2.72a2.68,2.68,0,0,1-.76.1,17.81,17.81,0,0,1-5.39-1.35c-4.21-1.51-5.08-2.21-5.37-2.64s-.4-1.25,1.21-4.27a27.78,27.78,0,0,1,2.52-4.1,2.52,2.52,0,0,1,1.83-.84v0h.51v.38l.12-.34h0c.22,0,1.23.22,5.22.77,2.63.35,4,1,4.3,2.1A2.09,2.09,0,0,1,479.84,785.6Zm0-30.86a9.14,9.14,0,0,1-1,1.74h0a7.62,7.62,0,0,0-1.27,2.46,2.4,2.4,0,0,0-.06.48,7.28,7.28,0,0,1,0,1.65c-.28,1.54-.87,2.43-1.76,2.72a2.7,2.7,0,0,1-.77.1h-.35a21.23,21.23,0,0,1-5-1.34c-1.06-.38-1.9-.71-2.58-1l-.48-.21a5.57,5.57,0,0,1-2.26-1.42l-.06-.1c-.31-.4-.39-1.23,1.22-4.25a28,28,0,0,1,2.52-4.1,2.52,2.52,0,0,1,1.83-.84h.51V751l.12-.34h0l.27.05c.52.08,1.81.28,4.94.71a9.89,9.89,0,0,1,3,.78,2.46,2.46,0,0,1,1.11.94,1.71,1.71,0,0,1,.17.39A2.06,2.06,0,0,1,479.84,754.74Zm.78-114a5.74,5.74,0,0,0-1.32,2.94c0,.1,0,.22,0,.35a7.94,7.94,0,0,1,0,1.24,3.4,3.4,0,0,1-1.44,2.58,1.53,1.53,0,0,1-.32.13,2.26,2.26,0,0,1-.76.11l-.35,0a20.67,20.67,0,0,1-5-1.33c-4.21-1.51-5.08-2.21-5.37-2.65s-.39-1.25,1.21-4.27a27,27,0,0,1,2.53-4.09,2.49,2.49,0,0,1,1.82-.84v0h.51v.38l.12-.34.17,0,.21,0,.11,0c.61.1,1.93.29,4.76.68,2.63.35,4,1,4.3,2.11C481.91,638.42,481.55,639.35,480.62,640.71Zm0-30.85a5.88,5.88,0,0,0-1.32,2.93,6.53,6.53,0,0,1,0,1.31c0,.11,0,.22,0,.35a3.84,3.84,0,0,1-1.14,2.39,2,2,0,0,1-.62.32,2.26,2.26,0,0,1-.76.11,18.15,18.15,0,0,1-5.39-1.35l-.75-.28c-3.57-1.33-4.36-2-4.63-2.45s-.38-1.24,1.22-4.25c.18-.35.36-.66.53-1a23.75,23.75,0,0,1,2-3.13,2.51,2.51,0,0,1,1.82-.84v0h.51v.38l.12-.35.17,0c.4.07,1.62.26,5.08.74a7,7,0,0,1,3.77,1.28,1.71,1.71,0,0,1,.53.82C481.91,607.56,481.55,608.5,480.62,609.86ZM1087.47,766a8.67,8.67,0,0,1-8.61,8.7H518.5a8.71,8.71,0,0,1,0-17.41h560.36A8.68,8.68,0,0,1,1087.47,766ZM932.48,293c8.85-11.4,19.88-18.14,32.86-20.13,1.11-.17,2.23-.31,3.36-.41,1.34-.12,2.7-.21,4.08-.23,5.91-.13,13.15.92,21.51,3.1a84.78,84.78,0,0,1,23,9.34c.89.55,1.75,1.11,2.59,1.69,1.71,1.15,3.27,4.29,4.75,9.58.1.36.2.72.29,1.09a61.62,61.62,0,0,1,2.87,18.21c0,8.83-2.17,15.05-6.46,18.47l-.09.07-.11,0q-10.91,2.36-22.05,3.95A324.58,324.58,0,0,1,961.57,341a41.42,41.42,0,0,0,.64,9.34c.14.8.3,1.61.49,2.42.37,1.61.84,3.25,1.39,4.9.27.82.57,1.65.89,2.48.16.42.32.83.49,1.22,1.93,4.71,3.89,7.6,5.86,8.63a3.59,3.59,0,0,0,1.48.41c3.66.11,8.14-2,13.34-6.23,4.68-3.66,7.6-6.77,8.7-9.24a75.37,75.37,0,0,1,5.44-12l.13-.23.26,0c2.92-.25,8.26.61,16.29,2.62l1.84.47c9.12,2.35,14.33,4.42,15.94,6.32,1.23,1.37,1.42,4.73-11.14,17.78-9.89,10.14-19.73,17.1-29.26,20.7a17.14,17.14,0,0,1-5.31.61c-7.43,0-17.25-1.56-29.21-4.63-8.76-2.12-15.53-4.39-20.21-6.78l-1.12-.6-.1-.05a21.46,21.46,0,0,1-3.87-2.68,47.15,47.15,0,0,1-15.06-25.37,65.7,65.7,0,0,1-1.64-15A67.86,67.86,0,0,1,932.48,293ZM680.81,378.38a11.92,11.92,0,0,1,3-3.29h0a18.43,18.43,0,0,0,2.86-2.68,1.07,1.07,0,0,0,.24-.41V282.58a2.29,2.29,0,0,0,0-.25c-.1-.66-.58-1.74-2.13-3.45a5.44,5.44,0,0,1-1.79-3.73,2.83,2.83,0,0,1,.28-1.06c1.2-2.83,4.3-4.67,9.21-5.47,2.14-.36,6.14-.14,12.1.65,2.73.37,5.87.86,9.45,1.47,1.55.26,3,.53,4.39.79,9.63,1.85,14.85,3.77,15.92,5.82.85,1.57.57,3.79-.84,6.79-2.79,6-3.09,7.22-3.09,7.48A9.75,9.75,0,0,0,731,295a55.75,55.75,0,0,1,11.61-16.22c6-5.71,12-8.78,18-9.15l1.19,0c6.1,0,14.49,1.62,25,4.83,1.85.59,3.57,1.15,5.14,1.71,6.3,2.21,10.44,4.14,12.54,5.86l.49.43.32.32c1.62,1.77,3.35,6,5.25,12.81q6-7.47,9.22-11.52l2.62-3.26.95-1.19c6.57-6.64,12.92-10,18.93-10a64.11,64.11,0,0,1,11.19,1.14,136,136,0,0,1,14,3.4q4.9,1.44,8.48,2.79l1.38.54c4,1.6,6.54,3.12,7.75,4.57.13.17.25.33.35.49,5.41,8.36,8.05,38.16,8.06,91.1a14.23,14.23,0,0,1,2.28,7.45,7.81,7.81,0,0,1-1.74,5.15,10.86,10.86,0,0,1-5.17,3.21,15.35,15.35,0,0,1-2.85.45c-1.21.1-2.68.15-4.43.15a158.91,158.91,0,0,1-23.17-2c-9.09-1.37-14.47-2.68-16.45-4a3.74,3.74,0,0,1-1.65-2.91c0-1.56,1.44-3.9,4.41-7.17,3.42-3.77,4.14-5.61,4.14-6.49,0-1.9,0-3.75,0-5.56.35-54.26-.56-68.41-1.42-70.25a.56.56,0,0,0-.05-.08c-2-.31-6.73,2.1-17.93,15.05-10.14,11.66-15.28,21.9-15.28,30.45V374.6a18.46,18.46,0,0,1,2,7c0,3.43-2.61,6.05-7.75,7.79a15.62,15.62,0,0,1-2.86.45l-1,.07c-1,.05-2.16.08-3.47.08a140.54,140.54,0,0,1-16.69-1.14c-2.09-.26-4.25-.55-6.48-.89-9.09-1.37-14.48-2.68-16.46-4a2.73,2.73,0,0,1-1.36-2.34,3.62,3.62,0,0,1,.27-1.24,15.74,15.74,0,0,1,2.11-3.61c.53-.73,1.16-1.53,1.87-2.39a28.6,28.6,0,0,0,3.26-4.64,9.8,9.8,0,0,0,.5-1.11,4.48,4.48,0,0,0,.17-.58,2.51,2.51,0,0,0,.09-.66c.13-16.83.14-30.07.08-40.46,0-1.73,0-3.38,0-4.95,0-1.05,0-2.07,0-3.05s0-1.93,0-2.85l0-1.35c0-1.78-.06-3.42-.09-4.95,0-.77,0-1.5-.06-2.21,0-1.06-.05-2.05-.08-3,0-.62,0-1.22-.07-1.79-.29-7.7-.69-10.66-1.07-11.29h-.18c-1.82-.06-6.42,2.82-17.74,15.85l-1.15,1.34c-10.22,11.88-15.71,21.11-16.35,27.48a10.54,10.54,0,0,0-.07,1.24v35.7c2.46,1.73,3.71,3.89,3.71,6.42,0,5.1-3.39,8.62-10.06,10.48a11.77,11.77,0,0,1-3.56.4c-5.13,0-12.73-.81-22.6-2.41-5.88-.95-9.68-1.71-12.16-2.33l-1-.25-.44-.13a8.23,8.23,0,0,1-3.21-1.35,5.23,5.23,0,0,1-1.85-3.31,4.58,4.58,0,0,1,0-.53A3.64,3.64,0,0,1,680.81,378.38Zm-158-100.77c.51-3.39,2.79-5.75,6.8-7.05h0a25.6,25.6,0,0,1,6-.59h1.28A160.09,160.09,0,0,1,560,272c9.09,1.37,14.48,2.75,16.47,4.23a3.74,3.74,0,0,1,1.63,2.9,6,6,0,0,1-1.09,2.94,29.23,29.23,0,0,1-3.32,4.22,27,27,0,0,0-3.35,4.34,4.59,4.59,0,0,0-.79,2.15c-.46,59.84.51,74.4,1.43,75.9,1.76.27,6.6-2.64,19.5-17.66,10.61-12.35,16-21.85,16-28.23v-35.7c-2.46-1.74-3.71-3.89-3.71-6.42,0-5.23,3.39-8.82,10.06-10.68.2-.06.42-.12.67-.17a14.21,14.21,0,0,1,2.89-.23c.64,0,1.32,0,2,0a164.83,164.83,0,0,1,18.75,2.08L639,272c13.42,2.18,15.85,3.26,16.51,3.88a6,6,0,0,1,2.16,4.21,3.68,3.68,0,0,1-.48,1.72,11.91,11.91,0,0,1-3,3.28c-2.86,2.35-3.08,3-3.1,3.09v89.42c0,.47.31,1.49,1.77,3.77,1.3,2,1.94,3.5,1.94,4.5a3.59,3.59,0,0,1-1.76,3c-1.5,1.08-4,1.92-7.5,2.53a16.32,16.32,0,0,1-2.57.17c-3.56,0-9.29-.67-17.34-2l-1.64-.28c-16.57-2.79-19.53-5-20.31-6.4-1-1.81-.75-4.24.85-7.21,1.86-3.26,2.79-5.51,2.79-6.69a15.7,15.7,0,0,0-.49-3.51c-.35.74-.72,1.47-1.1,2.19a55.86,55.86,0,0,1-10.39,13.79c-6.35,6-12.79,9-19.16,9s-15-1.49-25.23-4.44a100.34,100.34,0,0,1-11.15-3.79l-.05,0c-.39-.16-.76-.33-1.12-.49l-.28-.14-.78-.37-.45-.24-.51-.27-.57-.33-.29-.18c-.23-.14-.44-.28-.64-.42l-.11-.08a6,6,0,0,1-.55-.41l-.11-.08c-.16-.13-.3-.26-.44-.39l-.11-.1-.36-.38-.09-.11c-.11-.13-.2-.26-.29-.38l-.06-.1h0c-4.19-6.46-6.71-25.77-7.64-58.7,0-1.2-.07-2.43-.1-3.66,0-1,0-2-.07-3-.1-4.81-.17-9.87-.21-15.21q0-5.08,0-10.5a14.21,14.21,0,0,1-2.28-7.45A10.41,10.41,0,0,1,522.77,277.61Zm-7.31,333h560.36a8.71,8.71,0,0,1,0,17.41H515.46a8.71,8.71,0,0,1,0-17.41Zm-64.68-374a4.37,4.37,0,0,1-1.1-2.71,4.62,4.62,0,0,1,.11-.63c.76-3,4.33-5,10.86-6a87.49,87.49,0,0,1,12,0h.05a133.93,133.93,0,0,1,18.33,2.13c6.1,1.21,9.85,2.8,11.34,4.84a3.63,3.63,0,0,1,.75,2.19,3.92,3.92,0,0,1-.09.8,10.81,10.81,0,0,1-1.26,3.1h0c-.92,1.65-1.38,2.51-1.55,2.86a49.79,49.79,0,0,0-2.53,8q-.42,1.72-.84,3.72V373a5.43,5.43,0,0,0,1.57,3.79c1.24,1.33,1.85,2.42,1.85,3.32,0,8.46-2.45,13.09-7.28,13.77a5.82,5.82,0,0,1-.81.05c-2.3,0-7.49-.77-15.76-2.33l-1.7-.32c-10.51-2-16.66-3.58-18.82-4.77-4.4-2.56-6.53-4.9-6.53-7.16a3,3,0,0,1,1.32-2.12,3.64,3.64,0,0,0,1-2.89V238.73A3.5,3.5,0,0,0,450.78,236.63ZM438.67,603.24c.36,0,.74,0,1.13,0a35.33,35.33,0,0,1,9.64,1.78c4.3,1.34,7.15,2.79,8.7,4.43a7.7,7.7,0,0,1,2,5.51c0,.6-.06,1.44-.18,2.57-.05.49-.09.88-.1,1.19a5,5,0,0,0,0,1c.1,1,.15,1.55.17,1.65l-.49.08h.5l0,.48a2.33,2.33,0,0,1-.65,1.34,3.5,3.5,0,0,1-2.57.76,31.46,31.46,0,0,1-4.65-.45c-.5-.09-1-.19-1.46-.3a10.58,10.58,0,0,1-3.83-1.69,3.74,3.74,0,0,1-1.11-1.34,1.65,1.65,0,0,1,.34-1.6,5.84,5.84,0,0,1,.52-.58,3.13,3.13,0,0,0,.64-.83h0v0a.54.54,0,0,0,.06-.33l0-.15.05-.15a2.35,2.35,0,0,0,.09-.53c0-.32.06-.84.06-1.64,0-1.63-.25-3.58-1.4-3.67a1.87,1.87,0,0,0-1.15.35c-1.14.75-2.2,2.73-3.1,5.8a40.43,40.43,0,0,0-1.31,6.1,49.26,49.26,0,0,0-.44,6.64c0,1.28.05,2.36.13,3.28.36,4,1.37,4.83,2,5h0c.8.13,2.28-.32,4.83-3.19,2.31-2.66,2.77-3.66,2.85-4q.21-1.1.39-2.22c.35-1.11,1.26-2.31,3.7-2.17a27,27,0,0,1,5.71,1.57c3,1.06,4,1.68,4.35,2.14a1,1,0,0,1,.15.29,4.42,4.42,0,0,1,.25,1.33,1.87,1.87,0,0,1-.19.8,5.76,5.76,0,0,1-1.5,1.87c-.39.34-.83.71-1.35,1.09a35.17,35.17,0,0,1-3.3,4.7,14.15,14.15,0,0,1-1,1A17.22,17.22,0,0,1,446.88,646a23.38,23.38,0,0,1-2.45.14c-3.36,0-7.54-1.24-12.41-3.68-4.35-2.23-6.55-7.36-6.55-15.27,0-.72,0-1.44,0-2.14A34.68,34.68,0,0,1,429,611.37C431.57,606.16,434.84,603.43,438.67,603.24ZM334.53,271.92l.84-.28a26.36,26.36,0,0,1,6.55-.89l1.34,0c3.84,0,11.23.82,22.6,2.51h.08a245.42,245.42,0,0,1,28.13,2.11,43.45,43.45,0,0,1,7.52,3.19,39.43,39.43,0,0,1,3.42,2.08c.55.37,1.1.76,1.63,1.16a44.62,44.62,0,0,1,12,14A58.7,58.7,0,0,1,424,309q.27,1,.51,2c.33,1.38.61,2.78.86,4.21a80.36,80.36,0,0,1,1.09,13.51c0,17.33-4.44,32.57-13.2,45.29-1.12,1.57-2.27,3-3.45,4.4-8.28,9.6-18.19,14.45-29.54,14.45-1.21,0-2.43-.06-3.68-.17l-2.13-.35c-5.26-.83-12.58-1.81-21.83-2.92l-2.88-.26c-4.74-.45-9.22-1-13.4-1.73q-2.5-.42-4.86-.9c-10.92-1.94-19.77-8.3-26.27-18.89h0a62.82,62.82,0,0,1-8.6-27.28c-.21-2.35-.31-4.76-.31-7.21A72.77,72.77,0,0,1,305.47,297,56.28,56.28,0,0,1,334.53,271.92ZM138.34,237.11a10.56,10.56,0,0,1,8.65-8.68,17.83,17.83,0,0,1,5,.13c4.11.49,10.46,1.65,19.13,3.52,14.71,3.14,22.64,5.78,24.26,8.09a7.78,7.78,0,0,1,.62,4.29,33.66,33.66,0,0,1-.54,4.17,5.07,5.07,0,0,1-.25.71,15.1,15.1,0,0,1-1.84,2.87,5.2,5.2,0,0,0-1.36,3,1.87,1.87,0,0,0,0,.34c2.49,11.76,4.85,22.39,7.05,31.67.31,1.32.62,2.62.93,3.89,4.26,17.27,7.89,29.67,10.85,37.07a38.63,38.63,0,0,0,2.72,5.72c3.07-11,8.24-24.94,15.39-41.46.48-1.1,1-2.21,1.46-3.34l1.49-3.43c4.89-11.33,8.85-21.53,11.84-30.51q2.23-6.73,3.75-12.53a38.53,38.53,0,0,1,2.58-9.86l.05-.1a15,15,0,0,1,9.72-6.17,18.56,18.56,0,0,1,5.43,0,129.12,129.12,0,0,1,16.18,3.26l2.26.61q2.22.62,4.2,1.23l1.93.62c7.49,2.48,12.32,5,14.67,7.7l.24.27-.18.31c-9.82,16.94-21.13,43.06-33.61,77.62-11.33,31.21-17,49.14-16.79,53.28v.13l-.06.11a1.23,1.23,0,0,0,0,.13c0,.07,0,.16,0,.29v.22c0,.92.14,3.05.65,7.94a11.76,11.76,0,0,1-.23,4.4,15,15,0,0,1-5.29,7.71l-.06,0c-.23.16-.48.29-.72.43s-.21.13-.32.18-.3.13-.44.2l-.67.29-.11,0a10.19,10.19,0,0,1-2.29.53c-.35.05-.74.09-1.13.12-.74.06-1.54.1-2.42.1-5.75,0-14.68-1.28-27-3.86l-2.79-.59a202.93,202.93,0,0,1-19.84-5.11c-4.79-1.59-7.8-3.07-9.08-4.47h0a8.2,8.2,0,0,1-1.83-3.61,12.64,12.64,0,0,1-.29-1.67c-.07-.94-.15-1.77-.24-2.48a11.27,11.27,0,0,0-.57-2.57,545,545,0,0,1-23.46-58c-8-23.75-13.19-46-15.64-66.56a3.87,3.87,0,0,0-.27-1.19,25.81,25.81,0,0,0-1.11-2.7c-.16-.41-.28-.82-.39-1.2A7.48,7.48,0,0,1,138.34,237.11Z"/><path class="cls-1" d="M263.75,771.43a24.15,24.15,0,0,0-6.27-4.14L246.9,762.2c-3-1.62-4.42-4.28-4.42-8.15a13.46,13.46,0,0,1,.1-1.69,11.13,11.13,0,0,1,1.63-4.51,8.75,8.75,0,0,1,.73-1,4.75,4.75,0,0,1,3.41-1.77s.37.25.37,2.32c0,.26,0,.57,0,.91,0,1-.14,2.45-.29,4.21-.2,2.37-.31,3.92-.31,4.61,0,1.11.12,1.46.32,1.69a10.74,10.74,0,0,0,4.46,2.21c.75.23,1.57.46,2.49.67,3.26.83,5.46,1.17,6.71,1a3.71,3.71,0,0,0,3.71-3.72,2.78,2.78,0,0,0-.4-1.76,8,8,0,0,1-.56-1.32c0-.49,0-1.33.08-2.53.06-1.38.09-2.45.09-3.17a19.21,19.21,0,0,0-.37-4,8.49,8.49,0,0,0-2.25-4.49,9.69,9.69,0,0,0-2.53-1.71,13.25,13.25,0,0,0-1.87-.75c-1.74-.54-3.47-1-5.16-1.54-.83-.27-1.62-.51-2.37-.74-5.6-1.71-9-2.44-10.24-2.23-3.34.6-6.55,2.67-9.53,6.17s-4.63,7-4.93,10.44c-.36,4.18,1.24,7.84,4.77,10.89a46.58,46.58,0,0,0,10.41,6.19q2.35,1.08,5.1,2.21c3,1.23,4.46,3.62,4.46,7.32,0,.42,0,.84-.07,1.24a8.88,8.88,0,0,1-1.06,3.31,3.55,3.55,0,0,1-1.76,1.75,2.2,2.2,0,0,1-.68.11,1.78,1.78,0,0,1-.65-.11c-.59-.18-1.43-1-2-4.12-.1-.49-.19-.94-.28-1.35-.63-2.82-1-3.49-1.29-3.75a2.35,2.35,0,0,0-1-.42,31.78,31.78,0,0,0-4.3-.74c-.75-.1-1.47-.18-2.16-.25-1.39-.15-2.66-.24-3.81-.29-.58,0-1.13,0-1.64,0a9.67,9.67,0,0,0-2.07.15,3.83,3.83,0,0,0-2.09,1.42,2.71,2.71,0,0,0-.57,2.41l.08.17a9.17,9.17,0,0,0,1.71,1.92,23.84,23.84,0,0,1,2.74,5.15,16.17,16.17,0,0,0,1.3,2.53,10,10,0,0,0,2.76,2.92,8.75,8.75,0,0,0,1.83,1,10.74,10.74,0,0,0,2.13.59l4.33.71.61.11.45.09,3.11.66c.75.16,1.49.28,2.2.36a18.49,18.49,0,0,0,2.07.12c4.53-.08,8.26-1,11.1-2.63.42-.25.82-.51,1.2-.79a10.56,10.56,0,0,0,4.25-6.06,10.68,10.68,0,0,0,.28-2.49c0-3.94-.87-7.07-2.58-9.3A9.59,9.59,0,0,0,263.75,771.43Z"/><path class="cls-1" d="M934.53,376.43a21.46,21.46,0,0,0,3.87,2.68l.1.05,1.12.6c4.68,2.39,11.45,4.66,20.21,6.78,12,3.07,21.78,4.63,29.21,4.63a17.14,17.14,0,0,0,5.31-.61c9.53-3.6,19.37-10.56,29.26-20.7,12.56-13.05,12.37-16.41,11.14-17.78-1.61-1.9-6.82-4-15.94-6.32l-1.84-.47c-8-2-13.37-2.87-16.29-2.62l-.26,0-.13.23a75.37,75.37,0,0,0-5.44,12c-1.1,2.47-4,5.58-8.7,9.24-5.2,4.26-9.68,6.34-13.34,6.23a3.59,3.59,0,0,1-1.48-.41c-2-1-3.93-3.92-5.86-8.63-.17-.39-.33-.8-.49-1.22-.32-.83-.62-1.66-.89-2.48-.55-1.65-1-3.29-1.39-4.9-.19-.81-.35-1.62-.49-2.42a41.42,41.42,0,0,1-.64-9.34A324.58,324.58,0,0,0,999,337.8q11.13-1.6,22.05-3.95l.11,0,.09-.07c4.29-3.42,6.46-9.64,6.46-18.47a61.62,61.62,0,0,0-2.87-18.21c-.09-.37-.19-.73-.29-1.09-1.48-5.29-3-8.43-4.75-9.58-.84-.58-1.7-1.14-2.59-1.69a84.78,84.78,0,0,0-23-9.34c-8.36-2.18-15.6-3.23-21.51-3.1-1.38,0-2.74.11-4.08.23-1.13.1-2.25.24-3.36.41-13,2-24,8.73-32.86,20.13a67.86,67.86,0,0,0-14.65,43,65.7,65.7,0,0,0,1.64,15A47.15,47.15,0,0,0,934.53,376.43Zm-15.48-46.29a66.3,66.3,0,0,1,14.21-36.48c.65-.83,1.3-1.64,2-2.42,7.34-8.57,16.09-14.1,26.12-16.54a51.42,51.42,0,0,1,11.45-1.43h1A72.34,72.34,0,0,1,988.36,275c1.83.39,3.72.83,5.68,1.34,10.15,2.67,18.64,6.33,25.22,10.9,1.2.8,2.38,2.92,3.52,6.3.38,1.13.76,2.4,1.13,3.82a60.82,60.82,0,0,1,2.83,17.93c0,8.45-2,14.38-6,17.61A321.52,321.52,0,0,1,961.08,340h-.46l0,.46a44.77,44.77,0,0,0,1.73,14.85q.72,2.56,1.72,5.17c2.76,7.2,5.61,10.76,8.72,10.9,3.9.13,8.62-2,14-6.45,4.86-3.81,7.8-7,9-9.66a75.23,75.23,0,0,1,5.25-11.6,19.12,19.12,0,0,1,2.82.1c.56.05,1.16.12,1.81.22l1,.15c3.1.49,7.08,1.36,11.9,2.61,2.2.56,4.17,1.12,5.92,1.65l1.26.4a37,37,0,0,1,6.47,2.61,6.72,6.72,0,0,1,1.79,1.34c.84.95.52,4.35-11.11,16.44-9.78,10-19.51,16.91-28.88,20.45a16.59,16.59,0,0,1-5,.55c-7.34,0-17.08-1.55-29-4.6-1.57-.38-3.08-.76-4.52-1.15-10.09-2.73-16.93-5.66-20.35-8.74h0c-10.86-9.47-16.36-22.81-16.36-39.63Q918.83,333.05,919.05,330.14Z"/><path class="cls-1" d="M408.31,755h0l0,0-.05-.09a.18.18,0,0,1-.05-.07l-.05-.05-.07-.09a.1.1,0,0,0,0,0l-.11-.12,0,0c-.6-.58-1.88-1.36-4.85-2.38l-.49-.17a33.27,33.27,0,0,0-6.28-1.5c-.59-.06-1.14-.1-1.65-.1a5.12,5.12,0,0,0-.78.06,9.27,9.27,0,0,0-5.42,3.26c-.32.35-.63.71-.92,1.09a19.48,19.48,0,0,0-2.27,3.64v0a.87.87,0,0,1,0-.14c.06-.21.21-.66.62-1.68.08-.21.18-.43.28-.68a3.28,3.28,0,0,0,.26-2.62,1.65,1.65,0,0,0-.15-.25c-.47-.61-1.82-1.38-6.39-2.25-3.57-.68-5.8-.93-6.81-.74l-.59.14a4.43,4.43,0,0,0-1,.38,2.86,2.86,0,0,0-.42.24,2.75,2.75,0,0,0-1.09,1.35,1.43,1.43,0,0,0-.07.94,2.93,2.93,0,0,0,.58,1.05c.54.66.6,1,.6,1.09v31.1s0,0,0,.07a6.28,6.28,0,0,1-.83.87,4.56,4.56,0,0,0-.88,1,1.82,1.82,0,0,0-.3.94,2.15,2.15,0,0,0,.68,1.56c.31.32,1.2.75,5.39,1.52a43.09,43.09,0,0,0,7.07.84,3.72,3.72,0,0,0,1.21-.15c2.22-.7,3.35-2,3.35-4a3,3,0,0,0-1.15-2.38V774.31c0-2.16,1.69-5.46,5-9.82,3.56-4.67,4.91-5.64,5.37-5.82.22,1.15.49,6.33.36,26.11,0,.16-.12.7-1.21,2.06a5.17,5.17,0,0,0-1.44,2.7,1.66,1.66,0,0,0,.64,1.27c.42.32,1.42.82,5.25,1.47a44.69,44.69,0,0,0,7.24.71,8.17,8.17,0,0,0,2.37-.23h0a3.27,3.27,0,0,0,2.33-2.66,5.12,5.12,0,0,0,0-.56,5.7,5.7,0,0,0-.7-2.68C410.84,768.39,410,758,408.31,755Z"/><path class="cls-1" d="M475.7,782.27c-4-.55-5-.72-5.22-.77h0l-.12.34v-.38h-.51v0a2.52,2.52,0,0,0-1.83.84,27.78,27.78,0,0,0-2.52,4.1c-1.61,3-1.53,3.84-1.21,4.27s1.16,1.13,5.37,2.64a17.81,17.81,0,0,0,5.39,1.35,2.68,2.68,0,0,0,.76-.1c.89-.29,1.48-1.18,1.76-2.72a6.72,6.72,0,0,0,0-1.58,1.41,1.41,0,0,1,0-.2c0-.09,0-.18.05-.28a7.52,7.52,0,0,1,1.27-2.46h0a9.45,9.45,0,0,0,1-1.74,2.09,2.09,0,0,0,.16-1.23C479.69,783.29,478.33,782.62,475.7,782.27Z"/><path class="cls-1" d="M318.64,642.51a.46.46,0,0,1,.07.07l.13.1.08.06.17.12.08.06.18.11.11.07.18.1.16.1.21.11.18.09.29.14.16.07a3.92,3.92,0,0,0,.36.16l.15.07.57.23h0c.61.24,1.32.49,2.16.76a27.14,27.14,0,0,0,7.92,1.57,6.29,6.29,0,0,0,2.34-.46,10.9,10.9,0,0,0,3.86-2.79,18.64,18.64,0,0,0,1.71-2.16,19.65,19.65,0,0,0,1.4-2.39,1.39,1.39,0,0,1,0,.24l0,.12s0,0,0,.06a11.33,11.33,0,0,1-.75,1.77,3.75,3.75,0,0,0-.46,2.2,2.19,2.19,0,0,0,.19.58c.28.57,1.19,1.32,5.61,2.23.29.07.6.13.93.19a36.59,36.59,0,0,0,6,.8h0a5.09,5.09,0,0,0,.86-.06c.77-.16,3.14-.62,3.14-2.24a3.81,3.81,0,0,0-.64-1.72,3.32,3.32,0,0,1-.51-1.16v-31.1a4.06,4.06,0,0,1,.87-.94,2.92,2.92,0,0,0,1.17-2,2.51,2.51,0,0,0-.75-1.69,1.19,1.19,0,0,0-.36-.25,3.3,3.3,0,0,0-.35-.15l-.24-.08a38,38,0,0,0-4.36-1l-.15,0a42.7,42.7,0,0,0-6.92-.82,3.35,3.35,0,0,0-1.21.16,4.36,4.36,0,0,0-3.14,2.66,4.28,4.28,0,0,0-.21,1.37,3,3,0,0,0,1.15,2.38v12.31c0,2.16-1.65,5.41-4.89,9.66-3.66,4.79-5,5.79-5.51,6,0-.07,0-.16,0-.27-.16-1.28-.35-5.19-.35-16.19,0-2.75,0-5.94,0-9.65,0-.16.11-.7,1.21-2.06a5.13,5.13,0,0,0,1.44-2.7,1.48,1.48,0,0,0-.25-.8,2.26,2.26,0,0,0-.38-.46,5.87,5.87,0,0,0-2.32-.94l-.22-.06-.85-.19c-.54-.12-1.16-.23-1.88-.36a50.91,50.91,0,0,0-5.64-.66c-.56,0-1.09,0-1.6,0a8.69,8.69,0,0,0-2.38.23,3.36,3.36,0,0,0-2.21,2.18,3.92,3.92,0,0,0-.15,1.11,5.66,5.66,0,0,0,.71,2.68q0,10.38.36,17.41c.39,7.83,1.11,12.59,2.18,14.43h0l0,0a.25.25,0,0,0,0,.07l0,.07,0,.06a.27.27,0,0,0,.07.08l0,.06.08.09.06.06Z"/><path class="cls-1" d="M311.68,759.67a13.93,13.93,0,0,0-7.79-7.29l-.1,0a60.53,60.53,0,0,0-8.73-.74,52.63,52.63,0,0,0-7.06-.87,7.51,7.51,0,0,0-2.85.44c-.49.21-1,.44-1.43.69a18.9,18.9,0,0,0-7.74,8.2,28.17,28.17,0,0,0-2.88,12.77,30.56,30.56,0,0,0,.18,3.36A23.85,23.85,0,0,0,275.9,785c2.07,3.79,4.89,6.07,8.37,6.76a50.18,50.18,0,0,0,6.58,1q4.92.68,7.44,1.15a11.81,11.81,0,0,0,1.18.06,10.77,10.77,0,0,0,1.52-.11c3.49-.49,6.51-2.71,9-6.62h0a28.41,28.41,0,0,0,3.88-11.52,37.58,37.58,0,0,0,.26-4.44c0-.55,0-1.1,0-1.64A25,25,0,0,0,311.68,759.67Zm-12.25,11a28.74,28.74,0,0,1-2.09,11.08c-1.36,3.27-2.87,4.81-4.48,4.53-1.25-.23-2.47-2-3.5-5.16a30.78,30.78,0,0,1-1.48-9.37,19.58,19.58,0,0,1,2-8.21c1.25-2.73,2.59-4.11,4-4.11,2,0,3.48,1.51,4.47,4.63A20.28,20.28,0,0,1,299.43,770.62Z"/><path class="cls-1" d="M257.27,594.5a2.48,2.48,0,0,0-.89-.9,22.52,22.52,0,0,0-6-2c-1.27-.3-2.78-.63-4.57-1-9.14-1.89-11.13-1.82-11.82-1.6a4.62,4.62,0,0,0-1.21.57,5.3,5.3,0,0,0-1.06,1,4.79,4.79,0,0,0-.75,1.13,2.43,2.43,0,0,0-.25,1v47.56a4.66,4.66,0,0,1-.29,1.32,5.53,5.53,0,0,0-.33,1.5,2,2,0,0,0,.58,1.48,3.15,3.15,0,0,0,1.17.73l.67.25a29.8,29.8,0,0,0,4.17,1,42.1,42.1,0,0,0,7.87.88,5.42,5.42,0,0,0,2.26-.32,2.77,2.77,0,0,0,1.33-2,7.64,7.64,0,0,0,.17-1.17c0-.32.05-.64.06-.94a8.9,8.9,0,0,0-.24-2.42,3.56,3.56,0,0,0-.22-.66c-.14-.38-.38-.93-.79-1.8-.14-.31-.25-.6-.35-.86a4.27,4.27,0,0,1-.31-1.35v-25q1.49,2.61,4.28,8.68c.84,1.84,1.78,3.92,2.8,6.22,1.7,3.83,3.66,8.34,5.82,13.39a4.36,4.36,0,0,1,0,1.7,2,2,0,0,0,.74,2.16c3,2.09,8.27,3.11,16.1,3.11a16.29,16.29,0,0,0,3.19-.21,2.8,2.8,0,0,0,2.24-2,14.87,14.87,0,0,0,.28-2.83,2.83,2.83,0,0,0,0-.35c0-.29-.12-.77-.3-1.63-.14-.7-.24-1.27-.28-1.68,0-.14,0-.26,0-.36a1.65,1.65,0,0,1,.06-.46c4-12.74,7.28-21.52,9.89-26.14v28.68a6.08,6.08,0,0,1-.21,1.39,6.44,6.44,0,0,0-.23,1.42,2.53,2.53,0,0,0,.35,1.29c.42.65,1.67,1.65,7.55,2.89a48.58,48.58,0,0,0,5.2.88,11.39,11.39,0,0,0,3.12,0c1.22-.22,2.07-1.41,2.52-3.52.16-.62-.16-1.41-1-2.46s-1-1.54-1-1.69V598.3s0-.13,0-.22a4.88,4.88,0,0,1,.19-.82q.07-.27.21-.63a6.81,6.81,0,0,0,.47-2.08,3.11,3.11,0,0,0-.21-1.16c-.42-1.28-2.08-2.12-5.09-2.56l-1.65-.15c-1.37-.11-3.52-.26-6.43-.45a48.91,48.91,0,0,1-5.33-.8c-1.8-.31-3.19-.5-4.22-.58l-.9,0A7.61,7.61,0,0,0,283,589c-1,.2-2.66,1.45-5.67,10-.25.69-.49,1.38-.73,2-3.13,8.7-5.53,15.18-7.15,19.35-.26.64-.49,1.23-.7,1.76L257.33,598.8a1.7,1.7,0,0,1-.2-.83,14.42,14.42,0,0,1,.26-1.59A3.33,3.33,0,0,0,257.27,594.5Z"/><path class="cls-1" d="M682.21,383.93a8.23,8.23,0,0,0,3.21,1.35l.44.13,1,.25c2.48.62,6.28,1.38,12.16,2.33,9.87,1.6,17.47,2.41,22.6,2.41a11.77,11.77,0,0,0,3.56-.4c6.67-1.86,10.06-5.38,10.06-10.48,0-2.53-1.25-4.69-3.71-6.42V337.4a10.54,10.54,0,0,1,.07-1.24c.64-6.37,6.13-15.6,16.35-27.48l1.15-1.34c11.32-13,15.92-15.91,17.74-15.85H767c.38.63.78,3.59,1.07,11.29,0,.57,0,1.17.07,1.79,0,.94.06,1.93.08,3,0,.71,0,1.44.06,2.21,0,1.53.07,3.17.09,4.95l0,1.35q0,1.38,0,2.85c0,1,0,2,0,3.05,0,1.57,0,3.22,0,4.95.06,10.39,0,23.63-.08,40.46a2.51,2.51,0,0,1-.09.66,4.48,4.48,0,0,1-.17.58,9.8,9.8,0,0,1-.5,1.11,28.6,28.6,0,0,1-3.26,4.64c-.71.86-1.34,1.66-1.87,2.39a15.74,15.74,0,0,0-2.11,3.61,3.62,3.62,0,0,0-.27,1.24,2.73,2.73,0,0,0,1.36,2.34c2,1.34,7.37,2.65,16.46,4,2.23.34,4.39.63,6.48.89A140.54,140.54,0,0,0,801.15,390c1.31,0,2.47,0,3.47-.08l1-.07a15.62,15.62,0,0,0,2.86-.45c5.14-1.74,7.75-4.36,7.75-7.79a18.46,18.46,0,0,0-2-7V337c0-8.55,5.14-18.79,15.28-30.45,11.2-12.95,15.94-15.36,17.93-15.05a.56.56,0,0,1,.05.08c.86,1.84,1.77,16,1.42,70.25,0,1.81,0,3.66,0,5.56,0,.88-.72,2.72-4.14,6.49-3,3.27-4.41,5.61-4.41,7.17a3.74,3.74,0,0,0,1.65,2.91c2,1.34,7.36,2.65,16.45,4a158.91,158.91,0,0,0,23.17,2c1.75,0,3.22,0,4.43-.15a15.35,15.35,0,0,0,2.85-.45,10.86,10.86,0,0,0,5.17-3.21,7.81,7.81,0,0,0,1.74-5.15,14.23,14.23,0,0,0-2.28-7.45c0-52.94-2.65-82.74-8.06-91.1-.1-.16-.22-.32-.35-.49-1.21-1.45-3.77-3-7.75-4.57l-1.38-.54q-3.57-1.35-8.48-2.79a136,136,0,0,0-14-3.4,64.11,64.11,0,0,0-11.19-1.14c-6,0-12.36,3.35-18.93,10l-.95,1.19L819.71,284q-3.24,4.07-9.22,11.52c-1.9-6.83-3.63-11-5.25-12.81l-.32-.32-.49-.43c-2.1-1.72-6.24-3.65-12.54-5.86-1.57-.56-3.29-1.12-5.14-1.71-10.46-3.21-18.85-4.83-25-4.83l-1.19,0c-6,.37-12,3.44-18,9.15A55.75,55.75,0,0,0,731,295a9.75,9.75,0,0,1-.66-3.36c0-.26.3-1.5,3.09-7.48,1.41-3,1.69-5.22.84-6.79-1.07-2.05-6.29-4-15.92-5.82-1.37-.26-2.84-.53-4.39-.79-3.58-.61-6.72-1.1-9.45-1.47-6-.79-10-1-12.1-.65-4.91.8-8,2.64-9.21,5.47a2.83,2.83,0,0,0-.28,1.06,5.44,5.44,0,0,0,1.79,3.73c1.55,1.71,2,2.79,2.13,3.45a2.29,2.29,0,0,1,0,.25V372a1.07,1.07,0,0,1-.24.41,18.43,18.43,0,0,1-2.86,2.68h0a11.92,11.92,0,0,0-3,3.29,3.64,3.64,0,0,0-.48,1.71,4.58,4.58,0,0,0,0,.53A5.23,5.23,0,0,0,682.21,383.93Zm1.93-109.43c1.07-2.51,3.91-4.15,8.46-4.89,3-.5,10.12.21,21.22,2.12,1.86.31,3.55.62,5.09.92,10,2,13.39,3.68,14.33,4.9a1.06,1.06,0,0,1,.18.27c.68,1.25.38,3.24-.87,5.9-2.82,6-3.18,7.4-3.18,7.9a11.63,11.63,0,0,0,1.19,4.82l.46,1,.45-1a54.16,54.16,0,0,1,8.27-13.12q1.69-2,3.59-3.84c6.15-5.91,12.37-8.9,18.47-8.9,5.25,0,12.26,1.23,20.87,3.67,1.23.34,2.49.72,3.79,1.11,9.57,3,15.55,5.66,17.78,7.78,1.22,1.1,2.57,3.95,4,8.5.49,1.52,1,3.22,1.51,5.11l.26.95.61-.77q11.69-14.61,13.37-16.69c6.33-6.41,12.45-9.66,18.18-9.66,6.37,0,14.77,1.51,24.95,4.5,1.26.37,2.45.73,3.58,1.1,7.9,2.53,12.54,4.83,13.81,6.86a15.67,15.67,0,0,1,1.41,2.87c4.31,11.14,6.5,40.63,6.5,87.84v.14l.07.12a13.26,13.26,0,0,1,2.21,7.05,7.27,7.27,0,0,1-.86,3.58c-1,1.72-2.74,3-5.34,3.82a17.83,17.83,0,0,1-3.64.48c-1,.05-2.09.08-3.35.08a158.29,158.29,0,0,1-23-2q-3.3-.5-6-1c-.88-.16-1.72-.32-2.5-.48l-1.12-.25c-3.26-.72-5.41-1.43-6.42-2.11a3.79,3.79,0,0,1-.93-1,2.07,2.07,0,0,1-.31-1.08c0-.88.72-2.72,4.15-6.5,3-3.26,4.4-5.6,4.4-7.16.58-76.17-1.15-76.61-2.1-76.85-3.27-.68-9.49,4.34-19,15.36a102.5,102.5,0,0,0-6.77,8.62c-.48.69-.94,1.38-1.39,2.07a45.92,45.92,0,0,0-6.81,15.29,25.59,25.59,0,0,0-.55,5.12v37.7l0,.2a20.75,20.75,0,0,1,1.92,6.1c0,.22,0,.43,0,.62a5.09,5.09,0,0,1-.44,2.09c-.89,2-3.11,3.56-6.61,4.74a17.83,17.83,0,0,1-3.64.48c-1,.05-2.09.08-3.35.08a158.18,158.18,0,0,1-23-2c-8.82-1.32-14.22-2.62-16-3.86a1.91,1.91,0,0,1-.86-1.08,1.49,1.49,0,0,1-.06-.43c0-.79.7-2.58,4-6.6,2.86-3.46,4.25-6,4.25-7.63.17-22.61.14-38.55,0-49.79,0-1.18,0-2.31,0-3.4,0-.54,0-1.06,0-1.58,0-1,0-2-.06-2.95-.08-3.28-.17-6-.28-8.24-.08-1.93-.18-3.51-.28-4.8,0-.44-.06-.84-.1-1.21-.42-4.66-.91-4.78-1.27-4.87-1.84-.44-5.94.88-20.17,17.47-11,12.85-16.66,22.73-16.66,29.37v36.23l.22.15c2.35,1.58,3.49,3.46,3.49,5.74,0,4.66-3.05,7.77-9.36,9.52a10.89,10.89,0,0,1-3.26.36c-5.07,0-12.63-.8-22.44-2.39s-14-2.69-15.55-3.4a2.42,2.42,0,0,1-.73-.43,4.05,4.05,0,0,1-1.55-3.09c0-1.1,1.07-2.56,3.1-4.22,3-2.5,3.46-3.33,3.46-3.85V282.58a4.16,4.16,0,0,0-.6-2,13.36,13.36,0,0,0-1.81-2.42,5.44,5.44,0,0,1-1.49-2.49A1.91,1.91,0,0,1,684.14,274.5Z"/><path class="cls-1" d="M525,297.07c0,5.34.11,10.4.21,15.21,0,1,0,2,.07,3,0,1.23.06,2.46.1,3.66.93,32.93,3.45,52.24,7.64,58.7h0l.06.1c.09.12.18.25.29.38l.09.11.36.38.11.1c.14.13.28.26.44.39l.11.08a6,6,0,0,0,.55.41l.11.08c.2.14.41.28.64.42l.29.18.57.33.51.27.45.24.78.37.28.14c.36.16.73.33,1.12.49l.05,0A100.34,100.34,0,0,0,551,386c10.26,3,18.75,4.44,25.23,4.44s12.81-3,19.16-9a55.86,55.86,0,0,0,10.39-13.79c.38-.72.75-1.45,1.1-2.19a15.7,15.7,0,0,1,.49,3.51c0,1.18-.93,3.43-2.79,6.69-1.6,3-1.89,5.4-.85,7.21.78,1.41,3.74,3.61,20.31,6.4l1.64.28c8.05,1.34,13.78,2,17.34,2a16.32,16.32,0,0,0,2.57-.17c3.51-.61,6-1.45,7.5-2.53a3.59,3.59,0,0,0,1.76-3c0-1-.64-2.47-1.94-4.5-1.46-2.28-1.77-3.3-1.77-3.77V288.17c0-.1.24-.74,3.1-3.09a11.91,11.91,0,0,0,3-3.28,3.68,3.68,0,0,0,.48-1.72,6,6,0,0,0-2.16-4.21c-.66-.62-3.09-1.7-16.51-3.88l-1.82-.29a164.83,164.83,0,0,0-18.75-2.08c-.71,0-1.39,0-2,0a14.21,14.21,0,0,0-2.89.23c-.25.05-.47.11-.67.17-6.67,1.86-10.06,5.45-10.06,10.68,0,2.53,1.25,4.68,3.71,6.42v35.7c0,6.38-5.38,15.88-16,28.23-12.9,15-17.74,17.93-19.5,17.66-.92-1.5-1.89-16.06-1.43-75.9a4.59,4.59,0,0,1,.79-2.15,27,27,0,0,1,3.35-4.34,29.23,29.23,0,0,0,3.32-4.22,6,6,0,0,0,1.09-2.94,3.74,3.74,0,0,0-1.63-2.9c-2-1.48-7.38-2.86-16.47-4.23a160.09,160.09,0,0,0-23.17-2h-1.28a25.6,25.6,0,0,0-6,.59h0c-4,1.3-6.29,3.66-6.8,7.05a10.41,10.41,0,0,0-.11,1.51,14.21,14.21,0,0,0,2.28,7.45Q525,292,525,297.07Zm31.62-24.56c1.07.14,2.16.3,3.27.47q2.48.38,4.59.75c6.11,1.08,9.95,2.19,11.42,3.28a2.75,2.75,0,0,1,1.24,2.11c0,.88-.72,2.71-4.15,6.49-3,3.27-4.4,5.61-4.4,7.16-.54,70.22.9,76.08,1.86,76.75a.64.64,0,0,0,.23.1c.86.21,2.23,0,5-2,3.07-2.28,7.88-6.91,15.65-15.95q9.09-10.59,13.1-18.44,3.12-6.09,3.13-10.45V286.55l-.22-.15c-2.35-1.58-3.49-3.46-3.49-5.74,0-4.79,3.05-8,9.36-9.72a10.89,10.89,0,0,1,3.26-.36c5.06,0,12.62.8,22.44,2.4,12.76,2.07,15.5,3.15,16,3.61a5.07,5.07,0,0,1,1.84,3.49c0,1.12-1,2.54-3.1,4.23-2.85,2.34-3.4,3.22-3.45,3.75a.34.34,0,0,0,0,.1v89.43c0,.88.63,2.29,1.93,4.31,1.47,2.29,1.78,3.42,1.78,4,0,2-2.92,3.55-8.42,4.51-3,.5-10.12-.21-21.22-2.11-14.89-2.52-18.88-4.6-19.61-5.92a4.57,4.57,0,0,1-.27-3.49,12.26,12.26,0,0,1,1.13-2.74c1.71-3,2.66-5.19,2.87-6.61a3.78,3.78,0,0,0,0-.56,20.21,20.21,0,0,0-.87-5.14l-.37-1.34-.57,1.28a53.74,53.74,0,0,1-6.63,11.09,55.48,55.48,0,0,1-5.23,5.86c-6.15,5.78-12.37,8.71-18.47,8.71-6.38,0-14.78-1.48-25-4.4s-15.94-5.55-17.39-7.86h0c-5.25-8.08-7.91-38.6-7.91-90.7v-.15l-.07-.12a13.29,13.29,0,0,1-2.21-7c0-3.77,2-6.25,6.2-7.6a29.23,29.23,0,0,1,7-.56A148.3,148.3,0,0,1,556.6,272.51Z"/><path d="M113,908H1305c48.81,0,88.52-40.18,88.52-89.58V108.58c0-49.4-39.71-89.58-88.52-89.58H113C64.21,19,24.5,59.18,24.5,108.58V818.42C24.5,867.82,64.21,908,113,908ZM25.53,108.58c0-48.82,39.25-88.53,87.49-88.53H1305c48.24,0,87.49,39.71,87.49,88.53V818.42c0,48.82-39.25,88.53-87.49,88.53H113c-48.24,0-87.49-39.71-87.49-88.53Z"/><path class="cls-1" d="M113,909H1305c49.36,0,89.52-40.63,89.52-90.58V108.58C1394.5,58.63,1354.34,18,1305,18H113C63.66,18,23.5,58.63,23.5,108.58V818.42C23.5,868.37,63.66,909,113,909ZM24.5,108.58C24.5,59.18,64.21,19,113,19H1305c48.81,0,88.52,40.18,88.52,89.58V818.42c0,49.4-39.71,89.58-88.52,89.58H113c-48.81,0-88.52-40.18-88.52-89.58Z"/><path class="cls-1" d="M113,907H1305c48.24,0,87.49-39.71,87.49-88.53V108.58c0-48.82-39.25-88.53-87.49-88.53H113c-48.24,0-87.49,39.71-87.49,88.53V818.42C25.53,867.24,64.78,907,113,907ZM26.53,108.58c0-48.27,38.8-87.53,86.49-87.53H1305c47.69,0,86.49,39.26,86.49,87.53V818.42c0,48.27-38.8,87.53-86.49,87.53H113c-47.69,0-86.49-39.26-86.49-87.53Z"/><path class="cls-1" d="M361.53,756.3a2.93,2.93,0,0,0,1.17-2,2.48,2.48,0,0,0-.75-1.68c-.2-.21-.56-.59-5.31-1.46a43.35,43.35,0,0,0-7.07-.85,3.59,3.59,0,0,0-1.21.16c-2.23.7-3.35,2-3.35,4a3,3,0,0,0,1.15,2.39v12.3c0,2.16-1.65,5.41-4.89,9.66s-4.66,5.48-5.29,5.87l-.22.11c-.17-.94-.39-4.54-.39-16.45h0v-2.88q0-3.06,0-6.76c0-.17.11-.71,1.21-2.07a5.11,5.11,0,0,0,1.44-2.69,1.86,1.86,0,0,0,0-.34,1.82,1.82,0,0,0-.59-.92,4.55,4.55,0,0,0-1.67-.77,30.9,30.9,0,0,0-3.6-.78,44.49,44.49,0,0,0-7.24-.71,8.35,8.35,0,0,0-2.38.23,3.3,3.3,0,0,0-2.36,3.29,5.65,5.65,0,0,0,.71,2.67c0,18.48.83,28.89,2.54,31.85a.75.75,0,0,0,.07.12c.32.5,1.1,1.21,3.53,2.17.61.23,1.32.49,2.16.76a27.07,27.07,0,0,0,7.92,1.56c2.08,0,4.17-1.09,6.2-3.24a19.62,19.62,0,0,0,3.11-4.55,6.61,6.61,0,0,1-.83,2.18,4.38,4.38,0,0,0-.32.81,2.61,2.61,0,0,0,.05,2c.17.34.56.74,1.81,1.21a28.39,28.39,0,0,0,4.73,1.2,35.36,35.36,0,0,0,6,.8,5.09,5.09,0,0,0,.86-.06c.77-.15,3.14-.62,3.14-2.23a1.37,1.37,0,0,0,0-.34,5.28,5.28,0,0,0-.6-1.39,3.23,3.23,0,0,1-.51-1.16v-31.1A4.24,4.24,0,0,1,361.53,756.3Z"/><path class="cls-1" d="M459,744.12c.06-.15.13-.35.24-.61l.42-1c.81-1.88.78-2.58.69-2.92a2.82,2.82,0,0,0-.61-1.25,4.09,4.09,0,0,0-2.32-1.21c-1.71-.4-3.44-.82-5.22-1.27a31,31,0,0,0-6.47-1c-2.15,0-2.81.8-2.95,1.58,0,.11,0,.22,0,.33a3,3,0,0,0,.19,1,8.4,8.4,0,0,0,.57,1.31c.18.34.31.62.41.85a6.31,6.31,0,0,1,.33.83v12c-3.35-2.47-5.7-3.66-7.19-3.66a5.27,5.27,0,0,0-1.85.36c-4.37,1.59-8.44,5-12.07,10.25a29.25,29.25,0,0,0-5.57,14c-.06.66-.09,1.32-.09,2,0,9.28,6,14.9,17.83,16.73a3.65,3.65,0,0,0,.66,0c1.56-.11,3.21-1.38,5.05-3.88q1.39-2.22,2.84-4.44a40.81,40.81,0,0,0-.58,5.92c0,.74.06,1,.14,1.08a3.13,3.13,0,0,0,2.73,1.9c.13,0,.92.11,4.89.73a48.89,48.89,0,0,0,6.25.61,9.54,9.54,0,0,0,1,0,2.48,2.48,0,0,0,1.71-.67,1,1,0,0,0,.23-.5,3.58,3.58,0,0,0-1-2.48h0c-.08-.1-.33-.55-.33-2.44v-43.7s0-.09.07-.25S458.92,744.19,459,744.12Zm-15.14,13.66c-2.94,17.43-5,21.72-6,22.68a.67.67,0,0,1-.5.26h0a8.05,8.05,0,0,1-1-.16l-.25,0c-.19,0-.36-.12-.54-.18a5,5,0,0,1-.55-.17c-.15-.06-.28-.15-.42-.22s-.35-.17-.51-.27c-1.39-.94-2.08-2.5-2.08-4.71,0-3.14,1.32-6.61,3.93-10.31A18.82,18.82,0,0,1,443.81,757.78Z"/><path class="cls-1" d="M479.83,753.13a2.46,2.46,0,0,0-1.11-.94,9.89,9.89,0,0,0-3-.78c-3.13-.43-4.42-.63-4.94-.71l-.27-.05h0l-.12.34v-.38h-.51a2.52,2.52,0,0,0-1.83.84,28,28,0,0,0-2.52,4.1c-1.61,3-1.53,3.85-1.22,4.25l.06.1a5.57,5.57,0,0,0,2.26,1.42l.48.21c.68.29,1.52.62,2.58,1a21.23,21.23,0,0,0,5,1.34H475a2.7,2.7,0,0,0,.77-.1c.89-.29,1.48-1.18,1.76-2.72a7.28,7.28,0,0,0,0-1.65,2.4,2.4,0,0,1,.06-.48,7.62,7.62,0,0,1,1.27-2.46h0a9.14,9.14,0,0,0,1-1.74,2.06,2.06,0,0,0,.16-1.22A1.71,1.71,0,0,0,479.83,753.13Z"/><path class="cls-1" d="M371.22,644.37a8.77,8.77,0,0,0,2.32.75h0l2.7.47.44.07.07,0c.15,0,.64.15,2.65.56l.54.11a16.29,16.29,0,0,0,3.19.34c.5,0,1,0,1.45-.05a15.48,15.48,0,0,0,7.89-2.32,7.34,7.34,0,0,0,3.44-6.31,10.66,10.66,0,0,0-2.33-7.17,16.86,16.86,0,0,0-6.15-3.92c-2.85-1.23-5.73-2.45-8.6-3.65-1.17-.55-1.74-1.87-1.74-4,0-.45,0-.89.07-1.34a13.13,13.13,0,0,1,1-3.89c.66-1.51,1.36-2.32,2-2.32.05,0,.56.42.77,4,.28,4.95.48,5.16.67,5.35.78.79,2.51,1.51,5.28,2.22a17.68,17.68,0,0,0,5,.74c2.34-.26,2.83-1.58,2.83-2.64a.57.57,0,0,0,0-.12,5.92,5.92,0,0,0-.14-.77c-.09-.41-.23-1-.47-1.86,0-1.61,0-3.26-.09-4.93a7.65,7.65,0,0,0-2.11-5.24,8.1,8.1,0,0,0-4.15-1.53c-2.56-.35-4.12-.6-4.59-.72-7.87-2.55-9.75-2.68-10.5-2.56a10.78,10.78,0,0,0-6.57,4.24,12.05,12.05,0,0,0-2.76,7.52c0,4,1.16,7.08,3.44,9.1a27.26,27.26,0,0,0,7.35,4c1.19.48,2.5,1,3.94,1.49,2.28.82,3.38,2.84,3.38,6.17,0,2.43-.51,3.66-1.53,3.66a.61.61,0,0,1-.42-.18,4.62,4.62,0,0,1-.94-2.49c-.25-1.4-.44-2.31-.6-2.91-.26-1-.42-1.14-.54-1.25s-.48-.4-4.65-.85a65.09,65.09,0,0,0-6.72-.44,6.71,6.71,0,0,0-1.72.15,3.35,3.35,0,0,0-1.83,1,1.37,1.37,0,0,0-.31.88,1,1,0,0,0,0,.26,10,10,0,0,0,1.47,2.39c.93,1.28,1.92,2.57,2.93,3.84a18.49,18.49,0,0,0,3.92,3.79A5.07,5.07,0,0,0,371.22,644.37Z"/><path class="cls-1" d="M403.78,601.3l.41.17c1.05.39,2.82.94,5.85,1.71,2.34.6,4,1,5.12,1.2a13.06,13.06,0,0,0,2.24.29,1.56,1.56,0,0,0,.51-.06l.27-.12c.6-.37,1.14-1.32,1.73-3,.14-.4.26-.79.36-1.16a10.58,10.58,0,0,0,.46-2.82,1.44,1.44,0,0,0-.16-.79c-.66-1.11-2.69-2.14-6.21-3.14s-5.83-1.38-7.28-1.19a5.27,5.27,0,0,0-3.53,2.78,7.85,7.85,0,0,0-1.31,4.08c0,.15,0,.28,0,.41a1.65,1.65,0,0,0,.31.86C402.67,600.67,402.8,600.89,403.78,601.3Z"/><path class="cls-1" d="M420.37,643.25v0h0a2.84,2.84,0,0,0-.74-1.2c-.14-.16-.31-.34-.51-.53a3.14,3.14,0,0,1-.84-1.17.53.53,0,0,1,0-.16v-27a2.39,2.39,0,0,1,.38-1.06q.19-.36.54-.87c1-1.43,1.11-2,1.11-2.3a1.41,1.41,0,0,0-.42-1l-.21-.18c-.54-.42-1.72-1-4.93-1.91l-.78-.21a31.56,31.56,0,0,0-7.5-1.26c-1.63,0-3.29.12-3.68,1a.87.87,0,0,0-.09.4,11.38,11.38,0,0,0,1.06,3.52v28.08c0,2.07-.37,3-.69,3.37l-.24.32c-.57.76-1.1,1.72-.56,2.37s1.53,1.48,6.21,2.48l2.27.44a33.88,33.88,0,0,0,5.7.57,8.57,8.57,0,0,0,1.35-.08C419.75,646.36,420.64,645.12,420.37,643.25Z"/><path class="cls-1" d="M425.47,627.15c0,7.91,2.2,13,6.55,15.27,4.87,2.44,9.05,3.68,12.41,3.68a23.38,23.38,0,0,0,2.45-.14,17.22,17.22,0,0,0,10.26-4.89,14.15,14.15,0,0,0,1-1,35.17,35.17,0,0,0,3.3-4.7c.52-.38,1-.75,1.35-1.09a5.76,5.76,0,0,0,1.5-1.87,1.87,1.87,0,0,0,.19-.8,4.42,4.42,0,0,0-.25-1.33,1,1,0,0,0-.15-.29c-.35-.46-1.35-1.08-4.35-2.14a27,27,0,0,0-5.71-1.57c-2.44-.14-3.35,1.06-3.7,2.17q-.18,1.13-.39,2.22c-.08.37-.54,1.37-2.85,4-2.55,2.87-4,3.32-4.83,3.19h0c-.66-.12-1.67-1-2-5-.08-.92-.13-2-.13-3.28a49.26,49.26,0,0,1,.44-6.64,40.43,40.43,0,0,1,1.31-6.1c.9-3.07,2-5,3.1-5.8a1.87,1.87,0,0,1,1.15-.35c1.15.09,1.4,2,1.4,3.67,0,.8,0,1.32-.06,1.64a2.35,2.35,0,0,1-.09.53l-.05.15,0,.15a.54.54,0,0,1-.06.33v0h0a3.13,3.13,0,0,1-.64.83,5.84,5.84,0,0,0-.52.58,1.65,1.65,0,0,0-.34,1.6,3.74,3.74,0,0,0,1.11,1.34,10.58,10.58,0,0,0,3.83,1.69c.48.11,1,.21,1.46.3a31.46,31.46,0,0,0,4.65.45,3.5,3.5,0,0,0,2.57-.76,2.33,2.33,0,0,0,.65-1.34l0-.48h-.5l.49-.08c0-.1-.07-.64-.17-1.65a5,5,0,0,1,0-1c0-.31,0-.7.1-1.19.12-1.13.18-2,.18-2.57a7.7,7.7,0,0,0-2-5.51c-1.55-1.64-4.4-3.09-8.7-4.43a35.33,35.33,0,0,0-9.64-1.78c-.39,0-.77,0-1.13,0-3.83.19-7.1,2.92-9.7,8.13A34.68,34.68,0,0,0,425.52,625C425.49,625.71,425.47,626.43,425.47,627.15Z"/><path class="cls-1" d="M477.45,635.64c-2.83-.39-4.15-.58-4.76-.68l-.11,0-.21,0-.17,0-.12.34v-.38h-.51v0a2.49,2.49,0,0,0-1.82.84,27,27,0,0,0-2.53,4.09c-1.6,3-1.52,3.85-1.21,4.27s1.16,1.14,5.37,2.65a20.67,20.67,0,0,0,5,1.33l.35,0a2.26,2.26,0,0,0,.76-.11,1.53,1.53,0,0,0,.32-.13,3.4,3.4,0,0,0,1.44-2.58,7.94,7.94,0,0,0,0-1.24c0-.13,0-.25,0-.35a5.74,5.74,0,0,1,1.32-2.94c.93-1.36,1.29-2.29,1.13-3C481.45,636.66,480.08,636,477.45,635.64Z"/><path class="cls-1" d="M481.22,606.07a7,7,0,0,0-3.77-1.28c-3.46-.48-4.68-.67-5.08-.74l-.17,0-.12.35V604h-.51v0a2.51,2.51,0,0,0-1.82.84,23.75,23.75,0,0,0-2,3.13c-.17.31-.35.62-.53,1-1.6,3-1.52,3.84-1.22,4.25s1.06,1.12,4.63,2.45l.75.28a18.15,18.15,0,0,0,5.39,1.35,2.26,2.26,0,0,0,.76-.11,2,2,0,0,0,.62-.32,3.84,3.84,0,0,0,1.14-2.39c0-.13,0-.24,0-.35a6.53,6.53,0,0,0,0-1.31,5.88,5.88,0,0,1,1.32-2.93c.93-1.36,1.29-2.3,1.13-3A1.71,1.71,0,0,0,481.22,606.07Z"/><path d="M139.32,237.29a7.53,7.53,0,0,0,.55,3.76c1.3,2.82,1.46,3.76,1.46,4.22q.81,6.82,2,13.89c5.31,30.65,16.39,64.79,33,101.76q1.92,4.26,3.94,8.58a19.45,19.45,0,0,1,.9,5.36,8.06,8.06,0,0,0,1.87,4.71c2.38,2.6,11.93,5.72,28.39,9.27s27.62,5,33,4.22h0a9.64,9.64,0,0,0,7.33-5,10.58,10.58,0,0,0,1.93-7.75c-.66-6.37-.7-8.18-.62-8.8a.88.88,0,0,1,0-.2c-.1-4.51,5.41-22,16.85-53.55,12.42-34.4,23.69-60.47,33.5-77.47-3.12-3.27-10.62-6.5-22.32-9.58-11.08-2.79-18.2-3.89-21.15-3.26a14.13,14.13,0,0,0-9.07,5.7,38.4,38.4,0,0,0-2.51,9.62c-3.24,12.49-9,28.17-17.15,46.7s-13.87,33.87-17.08,45.71l-.27,1-.62-.82c-1.64-2.22-3.54-6.56-5.73-13.11-2.48-7.42-5.34-17.69-8.61-30.92-1.53-6.36-3.15-13.42-4.85-21.11-1-4.61-2.06-9.45-3.13-14.49-.23-1.2.27-2.55,1.52-4.16.34-.44.62-.83.85-1.17a6.86,6.86,0,0,0,1-2c.17-.92.3-1.74.38-2.47.38-3.14.06-4.58-.32-5.24l-.23-.27-.34-.3a7,7,0,0,0-1-.67c-2.62-1.47-8.71-3.57-22-6.41-11.6-2.5-19.13-3.76-22.43-3.76a6.21,6.21,0,0,0-1.3.11C142.81,230.4,140.23,233,139.32,237.29Z"/><path class="cls-1" d="M139,241.44a25.81,25.81,0,0,1,1.11,2.7,3.87,3.87,0,0,1,.27,1.19c2.45,20.56,7.68,42.81,15.64,66.56a545,545,0,0,0,23.46,58,11.27,11.27,0,0,1,.57,2.57c.09.71.17,1.54.24,2.48a12.64,12.64,0,0,0,.29,1.67,8.2,8.2,0,0,0,1.83,3.61h0c1.28,1.4,4.29,2.88,9.08,4.47a202.93,202.93,0,0,0,19.84,5.11l2.79.59c12.36,2.58,21.29,3.86,27,3.86.88,0,1.68,0,2.42-.1.39,0,.78-.07,1.13-.12a10.19,10.19,0,0,0,2.29-.53l.11,0,.67-.29c.14-.07.3-.12.44-.2s.21-.12.32-.18.49-.27.72-.43l.06,0a15,15,0,0,0,5.29-7.71,11.76,11.76,0,0,0,.23-4.4c-.51-4.89-.63-7-.65-7.94v-.22c0-.13,0-.22,0-.29a1.23,1.23,0,0,1,0-.13l.06-.11v-.13c-.19-4.14,5.46-22.07,16.79-53.28,12.48-34.56,23.79-60.68,33.61-77.62l.18-.31-.24-.27c-2.35-2.68-7.18-5.22-14.67-7.7l-1.93-.62q-2-.62-4.2-1.23l-2.26-.61a129.12,129.12,0,0,0-16.18-3.26,18.56,18.56,0,0,0-5.43,0,15,15,0,0,0-9.72,6.17l-.05.1a38.53,38.53,0,0,0-2.58,9.86q-1.52,5.79-3.75,12.53c-3,9-7,19.18-11.84,30.51l-1.49,3.43c-.5,1.13-1,2.24-1.46,3.34-7.15,16.52-12.32,30.44-15.39,41.46a38.63,38.63,0,0,1-2.72-5.72c-3-7.4-6.59-19.8-10.85-37.07-.31-1.27-.62-2.57-.93-3.89-2.2-9.28-4.56-19.91-7.05-31.67a1.87,1.87,0,0,1,0-.34,5.2,5.2,0,0,1,1.36-3,15.1,15.1,0,0,0,1.84-2.87,5.07,5.07,0,0,0,.25-.71,33.66,33.66,0,0,0,.54-4.17,7.78,7.78,0,0,0-.62-4.29c-1.62-2.31-9.55-4.95-24.26-8.09-8.67-1.87-15-3-19.13-3.52a17.83,17.83,0,0,0-5-.13,10.56,10.56,0,0,0-8.65,8.68,7.48,7.48,0,0,0,.22,3.13C138.67,240.62,138.79,241,139,241.44Zm9.56-12.14c3.3,0,10.83,1.26,22.43,3.76,13.31,2.84,19.4,4.94,22,6.41a7,7,0,0,1,1,.67l.34.3.23.27c.38.66.7,2.1.32,5.24-.08.73-.21,1.55-.38,2.47a6.86,6.86,0,0,1-1,2c-.23.34-.51.73-.85,1.17-1.25,1.61-1.75,3-1.52,4.16,1.07,5,2.11,9.88,3.13,14.49,1.7,7.69,3.32,14.75,4.85,21.11,3.27,13.23,6.13,23.5,8.61,30.92,2.19,6.55,4.09,10.89,5.73,13.11l.62.82.27-1c3.21-11.84,8.95-27.22,17.08-45.71s13.91-34.21,17.15-46.7a38.4,38.4,0,0,1,2.51-9.62,14.13,14.13,0,0,1,9.07-5.7c2.95-.63,10.07.47,21.15,3.26,11.7,3.08,19.2,6.31,22.32,9.58-9.81,17-21.08,43.07-33.5,77.47-11.44,31.52-16.95,49-16.85,53.55a.88.88,0,0,0,0,.2c-.08.62,0,2.43.62,8.8a10.58,10.58,0,0,1-1.93,7.75,9.64,9.64,0,0,1-7.33,5h0c-5.42.76-16.54-.66-33-4.22s-26-6.67-28.39-9.27a8.06,8.06,0,0,1-1.87-4.71,19.45,19.45,0,0,0-.9-5.36q-2-4.32-3.94-8.58c-16.65-37-27.73-71.11-33-101.76q-1.22-7.07-2-13.89c0-.46-.16-1.4-1.46-4.22a7.53,7.53,0,0,1-.55-3.76c.91-4.31,3.49-6.89,7.89-7.88A6.21,6.21,0,0,1,148.51,229.3Z"/><path d="M306.05,367.14c6.35,10.34,15,16.53,25.61,18.42a177.88,177.88,0,0,0,21,2.88c10.6,1.28,18.67,2.38,24,3.28,14.15,1.26,26.18-4.89,35.72-18.26.54-.79,1.06-1.58,1.57-2.38a74.21,74.21,0,0,0,10.63-29.89,91.79,91.79,0,0,0,.82-12.45q0-1.17,0-2.31c0-1.53-.12-3-.24-4.51-.06-.75-.13-1.48-.21-2.21A62.51,62.51,0,0,0,418.73,298c-.3-.59-.61-1.16-.92-1.73-5.61-10-13.67-16.68-23.95-20a244.56,244.56,0,0,0-28.08-2.1c-11.23-1.66-18.78-2.5-22.52-2.5a25,25,0,0,0-8.38,1.13A54.7,54.7,0,0,0,309,293.24c-.94,1.35-1.82,2.75-2.67,4.21a71.63,71.63,0,0,0-9,35.72C297.29,346.09,300.23,357.52,306.05,367.14Zm41.33-61.61c4.44-8.54,9.39-12.87,14.7-12.87,7.42,0,12.95,4.9,16.43,14.56a54.43,54.43,0,0,1,3.74,19.6,76.11,76.11,0,0,1-6.89,32.52c-4.44,9.46-9.56,14.25-15.24,14.25a10.08,10.08,0,0,1-1.54-.12c-4.62-.75-8.73-5.55-12.24-14.29-.24-.58-.47-1.18-.7-1.8a80.82,80.82,0,0,1-4.88-27.49C340.76,322.15,343,314,347.38,305.53Z"/><path class="cls-1" d="M296.6,340.38a62.82,62.82,0,0,0,8.6,27.28h0c6.5,10.59,15.35,16.95,26.27,18.89q2.36.48,4.86.9c4.18.7,8.66,1.28,13.4,1.73l2.88.26c9.25,1.11,16.57,2.09,21.83,2.92l2.13.35c1.25.11,2.47.17,3.68.17,11.35,0,21.26-4.85,29.54-14.45,1.18-1.37,2.33-2.83,3.45-4.4,8.76-12.72,13.2-28,13.2-45.29a80.36,80.36,0,0,0-1.09-13.51c-.25-1.43-.53-2.83-.86-4.21q-.24-1-.51-2a58.7,58.7,0,0,0-5.3-13.18,44.62,44.62,0,0,0-12-14c-.53-.4-1.08-.79-1.63-1.16a39.43,39.43,0,0,0-3.42-2.08,43.45,43.45,0,0,0-7.52-3.19,245.42,245.42,0,0,0-28.13-2.11h-.08c-11.37-1.69-18.76-2.51-22.6-2.51l-1.34,0a26.36,26.36,0,0,0-6.55.89l-.84.28a56.28,56.28,0,0,0-29.06,25,72.77,72.77,0,0,0-9.18,36.22C296.29,335.62,296.39,338,296.6,340.38ZM309,293.24a54.7,54.7,0,0,1,25.87-20.38,25,25,0,0,1,8.38-1.13c3.74,0,11.29.84,22.52,2.5a244.56,244.56,0,0,1,28.08,2.1c10.28,3.28,18.34,10,23.95,20,.31.57.62,1.14.92,1.73A62.51,62.51,0,0,1,425,319.71c.08.73.15,1.46.21,2.21.12,1.48.2,3,.24,4.51q0,1.14,0,2.31a91.79,91.79,0,0,1-.82,12.45A74.21,74.21,0,0,1,414,371.08c-.51.8-1,1.59-1.57,2.38-9.54,13.37-21.57,19.52-35.72,18.26-5.32-.9-13.39-2-24-3.28a177.88,177.88,0,0,1-21-2.88c-10.64-1.89-19.26-8.08-25.61-18.42-5.82-9.62-8.76-21.05-8.76-34a71.63,71.63,0,0,1,9-35.72C307.19,296,308.07,294.59,309,293.24Z"/><path class="cls-1" d="M346.34,359.18c3.51,8.74,7.62,13.54,12.24,14.29a10.08,10.08,0,0,0,1.54.12c5.68,0,10.8-4.79,15.24-14.25a76.11,76.11,0,0,0,6.89-32.52,54.43,54.43,0,0,0-3.74-19.6c-3.48-9.66-9-14.56-16.43-14.56-5.31,0-10.26,4.33-14.7,12.87s-6.62,16.62-6.62,24.36a80.82,80.82,0,0,0,4.88,27.49C345.87,358,346.1,358.6,346.34,359.18ZM341.87,327a44.71,44.71,0,0,1,1.25-7.67A60,60,0,0,1,348.27,306h0c4.25-8.18,8.9-12.33,13.81-12.33,6.95,0,12.17,4.68,15.5,13.91a53.61,53.61,0,0,1,3.67,19.25,75.24,75.24,0,0,1-6.79,32.1c-4.57,9.72-9.78,14.27-15.49,13.58l-.24,0c-4.54-.73-8.63-5.93-12.15-15.44a79.81,79.81,0,0,1-4.82-27.15C341.76,329,341.8,328,341.87,327Z"/><path d="M452.6,238.06a3.11,3.11,0,0,1,.07.67V374.32a4.55,4.55,0,0,1-1.32,3.66c-.62.52-1,1-1,1.35a3.16,3.16,0,0,0,.38,1.43c.76,1.49,2.65,3.12,5.65,4.86,1.64.91,6.06,2.12,13.17,3.59q2.46.51,5.34,1.07c10.26,2,16.29,2.83,17.94,2.59,4.26-.6,6.42-4.9,6.42-12.78a1.4,1.4,0,0,0-.07-.4,6,6,0,0,0-1.51-2.24,6.47,6.47,0,0,1-1.82-3.86c0-.2,0-.41,0-.61V254.78c.28-1.35.57-2.61.86-3.79a51.18,51.18,0,0,1,2.59-8.23c.12-.24.34-.67.73-1.37.22-.42.51-.93.86-1.56a7.84,7.84,0,0,0,1.22-3.41c0-2.5-3.91-4.59-11.29-6h0a118.25,118.25,0,0,0-13.11-1.76c-1.63-.13-3.32-.25-5.07-.35-3-.12-5.54-.19-7.53-.19-1.48,0-2.66,0-3.56.11l-.79.08c-6.36,1-9.77,2.91-10.12,5.72a3.55,3.55,0,0,0,.89,2A4.92,4.92,0,0,1,452.6,238.06Z"/><path class="cls-1" d="M450.71,377.21a3,3,0,0,0-1.32,2.12c0,2.26,2.13,4.6,6.53,7.16,2.16,1.19,8.31,2.75,18.82,4.77l1.7.32c8.27,1.56,13.46,2.33,15.76,2.33a5.82,5.82,0,0,0,.81-.05c4.83-.68,7.28-5.31,7.28-13.77,0-.9-.61-2-1.85-3.32a5.43,5.43,0,0,1-1.57-3.79v-118q.42-2,.84-3.72a49.79,49.79,0,0,1,2.53-8c.17-.35.63-1.21,1.55-2.86h0a10.81,10.81,0,0,0,1.26-3.1,3.92,3.92,0,0,0,.09-.8,3.63,3.63,0,0,0-.75-2.19c-1.49-2-5.24-3.63-11.34-4.84a133.93,133.93,0,0,0-18.33-2.13h-.05a87.49,87.49,0,0,0-12,0c-6.53,1-10.1,3-10.86,6a4.62,4.62,0,0,0-.11.63,4.37,4.37,0,0,0,1.1,2.71,3.5,3.5,0,0,1,.89,2.1V374.32A3.64,3.64,0,0,1,450.71,377.21Zm10.08-148.95.79-.08c.9-.07,2.08-.11,3.56-.11,2,0,4.51.07,7.53.19,1.75.1,3.44.22,5.07.35a118.25,118.25,0,0,1,13.11,1.76h0c7.38,1.46,11.29,3.55,11.29,6a7.84,7.84,0,0,1-1.22,3.41c-.35.63-.64,1.14-.86,1.56-.39.7-.61,1.13-.73,1.37a51.18,51.18,0,0,0-2.59,8.23c-.29,1.18-.58,2.44-.86,3.79V373c0,.2,0,.41,0,.61a6.47,6.47,0,0,0,1.82,3.86,6,6,0,0,1,1.51,2.24,1.4,1.4,0,0,1,.07.4c0,7.88-2.16,12.18-6.42,12.78-1.65.24-7.68-.63-17.94-2.59q-2.88-.55-5.34-1.07c-7.11-1.47-11.53-2.68-13.17-3.59-3-1.74-4.89-3.37-5.65-4.86a3.16,3.16,0,0,1-.38-1.43c0-.35.34-.83,1-1.35a4.55,4.55,0,0,0,1.32-3.66V238.73a3.11,3.11,0,0,0-.07-.67,4.92,4.92,0,0,0-1-2.05,3.55,3.55,0,0,1-.89-2C451,231.17,454.43,229.24,460.79,228.26Z"/><path d="M529.86,271.52c-4.16,1.35-6.2,3.83-6.2,7.6a13.29,13.29,0,0,0,2.21,7l.07.12v.15c0,52.1,2.66,82.62,7.91,90.7h0c1.45,2.31,7.3,5,17.39,7.86s18.58,4.4,25,4.4c6.1,0,12.32-2.93,18.47-8.71a55.48,55.48,0,0,0,5.23-5.86,53.74,53.74,0,0,0,6.63-11.09l.57-1.28.37,1.34a20.21,20.21,0,0,1,.87,5.14,3.78,3.78,0,0,1,0,.56c-.21,1.42-1.16,3.59-2.87,6.61a12.26,12.26,0,0,0-1.13,2.74,4.57,4.57,0,0,0,.27,3.49c.73,1.32,4.72,3.4,19.61,5.92,11.1,1.9,18.23,2.61,21.22,2.11,5.5-1,8.42-2.52,8.42-4.51,0-.54-.31-1.67-1.78-4-1.3-2-1.93-3.43-1.93-4.31V288.16a.34.34,0,0,1,0-.1c0-.53.6-1.41,3.45-3.75,2.06-1.69,3.1-3.11,3.1-4.23a5.07,5.07,0,0,0-1.84-3.49c-.49-.46-3.23-1.54-16-3.61-9.82-1.6-17.38-2.4-22.44-2.4a10.89,10.89,0,0,0-3.26.36c-6.31,1.75-9.36,4.93-9.36,9.72,0,2.28,1.14,4.16,3.49,5.74l.22.15v36.23q0,4.35-3.13,10.45-4,7.83-13.1,18.44c-7.77,9-12.58,13.67-15.65,15.95-2.72,2-4.09,2.21-5,2a.64.64,0,0,1-.23-.1c-1-.67-2.4-6.53-1.86-76.75,0-1.55,1.44-3.89,4.4-7.16,3.43-3.78,4.15-5.61,4.15-6.49a2.75,2.75,0,0,0-1.24-2.11c-1.47-1.09-5.31-2.2-11.42-3.28q-2.12-.37-4.59-.75c-1.11-.17-2.2-.33-3.27-.47A148.3,148.3,0,0,0,536.85,271,29.23,29.23,0,0,0,529.86,271.52Z"/><path d="M685.48,278.2a13.36,13.36,0,0,1,1.81,2.42,4.16,4.16,0,0,1,.6,2V372c0,.52-.42,1.35-3.46,3.85-2,1.66-3.1,3.12-3.1,4.22a4.05,4.05,0,0,0,1.55,3.09,2.42,2.42,0,0,0,.73.43c1.58.71,5.68,1.79,15.55,3.4s17.37,2.39,22.44,2.39a10.89,10.89,0,0,0,3.26-.36c6.31-1.75,9.36-4.86,9.36-9.52,0-2.28-1.14-4.16-3.49-5.74l-.22-.15V337.4c0-6.64,5.61-16.52,16.66-29.37,14.23-16.59,18.33-17.91,20.17-17.47.36.09.85.21,1.27,4.87,0,.37.07.77.1,1.21.1,1.29.2,2.87.28,4.8.11,2.24.2,5,.28,8.24,0,.93,0,1.92.06,2.95,0,.52,0,1,0,1.58,0,1.09,0,2.22,0,3.4.16,11.24.19,27.18,0,49.79,0,1.67-1.39,4.17-4.25,7.63-3.32,4-4,5.81-4,6.6a1.49,1.49,0,0,0,.06.43,1.91,1.91,0,0,0,.86,1.08c1.83,1.24,7.23,2.54,16,3.86a158.18,158.18,0,0,0,23,2c1.26,0,2.38,0,3.35-.08a17.83,17.83,0,0,0,3.64-.48c3.5-1.18,5.72-2.77,6.61-4.74a5.09,5.09,0,0,0,.44-2.09c0-.19,0-.4,0-.62a20.75,20.75,0,0,0-1.92-6.1l0-.2V337a25.59,25.59,0,0,1,.55-5.12,45.92,45.92,0,0,1,6.81-15.29c.45-.69.91-1.38,1.39-2.07a102.5,102.5,0,0,1,6.77-8.62c9.53-11,15.75-16,19-15.36.95.24,2.68.68,2.1,76.85,0,1.56-1.44,3.9-4.4,7.16-3.43,3.78-4.15,5.62-4.15,6.5a2.07,2.07,0,0,0,.31,1.08,3.79,3.79,0,0,0,.93,1c1,.68,3.16,1.39,6.42,2.11l1.12.25c.78.16,1.62.32,2.5.48q2.67.5,6,1a158.29,158.29,0,0,0,23,2c1.26,0,2.38,0,3.35-.08a17.83,17.83,0,0,0,3.64-.48c2.6-.84,4.37-2.1,5.34-3.82a7.27,7.27,0,0,0,.86-3.58,13.26,13.26,0,0,0-2.21-7.05l-.07-.12v-.14c0-47.21-2.19-76.7-6.5-87.84a15.67,15.67,0,0,0-1.41-2.87c-1.27-2-5.91-4.33-13.81-6.86-1.13-.37-2.32-.73-3.58-1.1-10.18-3-18.58-4.5-24.95-4.5-5.73,0-11.85,3.25-18.18,9.66q-1.66,2.06-13.37,16.69l-.61.77-.26-.95c-.51-1.89-1-3.59-1.51-5.11-1.47-4.55-2.82-7.4-4-8.5C802,281,796,278.4,786.46,275.36c-1.3-.39-2.56-.77-3.79-1.11-8.61-2.44-15.62-3.67-20.87-3.67-6.1,0-12.32,3-18.47,8.9q-1.89,1.84-3.59,3.84a54.16,54.16,0,0,0-8.27,13.12l-.45,1-.46-1a11.63,11.63,0,0,1-1.19-4.82c0-.5.36-1.86,3.18-7.9,1.25-2.66,1.55-4.65.87-5.9a1.06,1.06,0,0,0-.18-.27c-.94-1.22-4.36-2.93-14.33-4.9-1.54-.3-3.23-.61-5.09-.92-11.1-1.91-18.24-2.62-21.22-2.12-4.55.74-7.39,2.38-8.46,4.89a1.91,1.91,0,0,0-.15,1.21A5.44,5.44,0,0,0,685.48,278.2Z"/><path d="M935.19,375.68h0c3.42,3.08,10.26,6,20.35,8.74,1.44.39,3,.77,4.52,1.15,11.89,3.05,21.63,4.6,29,4.6a16.59,16.59,0,0,0,5-.55c9.37-3.54,19.1-10.43,28.88-20.45,11.63-12.09,11.95-15.49,11.11-16.44a6.72,6.72,0,0,0-1.79-1.34,37,37,0,0,0-6.47-2.61l-1.26-.4c-1.75-.53-3.72-1.09-5.92-1.65-4.82-1.25-8.8-2.12-11.9-2.61l-1-.15c-.65-.1-1.25-.17-1.81-.22a19.12,19.12,0,0,0-2.82-.1,75.23,75.23,0,0,0-5.25,11.6c-1.2,2.7-4.14,5.85-9,9.66-5.39,4.41-10.11,6.58-14,6.45-3.11-.14-6-3.7-8.72-10.9q-1-2.61-1.72-5.17a44.77,44.77,0,0,1-1.73-14.85l0-.46h.46a321.52,321.52,0,0,0,59.67-7.08c4-3.23,6-9.16,6-17.61a60.82,60.82,0,0,0-2.83-17.93c-.37-1.42-.75-2.69-1.13-3.82-1.14-3.38-2.32-5.5-3.52-6.3-6.58-4.57-15.07-8.23-25.22-10.9-2-.51-3.85-.95-5.68-1.34a72.34,72.34,0,0,0-14.61-1.73h-1a51.42,51.42,0,0,0-11.45,1.43c-10,2.44-18.78,8-26.12,16.54-.67.78-1.32,1.59-2,2.42a66.3,66.3,0,0,0-14.21,36.48q-.22,2.91-.22,5.91C918.83,352.87,924.33,366.21,935.19,375.68Zm24.27-51.24c1-6.6,4.4-13.61,10.23-20.82,6-7.39,10.52-10.83,14-10.58,1,.26,1.88,1.4,1.88,8,0,11.6-1.58,18-4.83,19.68-5.17,2.59-12.15,4-20.74,4.29l-.6,0Z"/><path class="cls-1" d="M980.71,320.72c3.25-1.64,4.83-8.08,4.83-19.68,0-6.6-.9-7.74-1.88-8-3.45-.25-8,3.19-14,10.58-5.83,7.21-9.27,14.22-10.23,20.82l-.09.59.6,0C968.56,324.75,975.54,323.31,980.71,320.72Zm-16.89-6.37a57.08,57.08,0,0,1,6.65-10.11c5.48-6.79,9.8-10.23,12.74-10.23l.28,0c.11,0,1,.47,1,7,0,11-1.44,17.35-4.28,18.79-4.92,2.46-11.55,3.86-19.72,4.16A34.3,34.3,0,0,1,963.82,314.35Z"/><path class="cls-3" d="M508.19,621.64c.08.24.16.48.26.71a7.64,7.64,0,0,0,6.23,4.67c.26,0,.51,0,.78,0h560.36c.26,0,.52,0,.78,0a7.64,7.64,0,0,0,6.23-4.67c.09-.23.18-.47.25-.71a8.14,8.14,0,0,0,.31-1.5c0-.26,0-.52,0-.79s0-.53,0-.78a8.43,8.43,0,0,0-.31-1.51c-.07-.24-.16-.47-.25-.7a7.62,7.62,0,0,0-6.23-4.67,6.79,6.79,0,0,0-.78,0H515.46a6.68,6.68,0,0,0-.78,0,7.62,7.62,0,0,0-6.23,4.67c-.1.23-.18.46-.26.7a7.62,7.62,0,0,0-.3,1.51,6.68,6.68,0,0,0,0,.78,6.85,6.85,0,0,0,0,.79A7.38,7.38,0,0,0,508.19,621.64Z"/><path class="cls-1" d="M515.46,628.06h560.36a8.71,8.71,0,0,0,0-17.41H515.46a8.71,8.71,0,0,0,0,17.41Zm-7.57-9.49a7.62,7.62,0,0,1,.3-1.51c.08-.24.16-.47.26-.7a7.62,7.62,0,0,1,6.23-4.67,6.68,6.68,0,0,1,.78,0h560.36a6.79,6.79,0,0,1,.78,0,7.62,7.62,0,0,1,6.23,4.67c.09.23.18.46.25.7a8.43,8.43,0,0,1,.31,1.51c0,.25,0,.52,0,.78s0,.53,0,.79a8.14,8.14,0,0,1-.31,1.5c-.07.24-.16.48-.25.71a7.64,7.64,0,0,1-6.23,4.67c-.26,0-.52,0-.78,0H515.46c-.27,0-.52,0-.78,0a7.64,7.64,0,0,1-6.23-4.67c-.1-.23-.18-.47-.26-.71a7.38,7.38,0,0,1-.3-1.5,6.85,6.85,0,0,1,0-.79A6.68,6.68,0,0,1,507.89,618.57Z"/><path class="cls-3" d="M1078.86,758.27H518.5c-.27,0-.52,0-.78,0a7.64,7.64,0,0,0-6.23,4.67c-.1.23-.18.47-.26.71a7.38,7.38,0,0,0-.3,1.5,7.72,7.72,0,0,0,0,1.57,7.45,7.45,0,0,0,.56,2.21,7.62,7.62,0,0,0,6.23,4.67,6.68,6.68,0,0,0,.78,0h560.36a7.71,7.71,0,0,0,0-15.41Z"/><path class="cls-1" d="M518.5,757.27a8.71,8.71,0,0,0,0,17.41h560.36a8.71,8.71,0,0,0,0-17.41Zm560.36,16.41H518.5a6.68,6.68,0,0,1-.78,0,7.62,7.62,0,0,1-6.23-4.67,7.45,7.45,0,0,1-.56-2.21,7.72,7.72,0,0,1,0-1.57,7.38,7.38,0,0,1,.3-1.5c.08-.24.16-.48.26-.71a7.64,7.64,0,0,1,6.23-4.67c.26,0,.51,0,.78,0h560.36a7.71,7.71,0,0,1,0,15.41Z"/></g></g></svg>
